<svg xmlns="http://www.w3.org/2000/svg" viewBox="0 0 800 500" height="500" width="800"><path fill="#fff" d="M0 0h800v500H0z"/><g font-weight="400" font-size="100" font-family="Adobe Caslon" letter-spacing="-.03em" text-anchor="middle" fill="#222"><path d="M237.133 68.496v28.907q-.098 5.176-.293 6.592-.195 2.295-3.32 2.393h-6.788q-.78 0-.683 1.025v1.904q-.1.88.878.977 1.513-.195 15.234-.293 13.574.098 13.965.293 1.123 0 1.025-.78v-2.1q.098-1.026-1.025-1.026h-6.3q-3.27 0-3.368-4.004V86.71q-.1-12.696-.1-15.43V42.81h2.785q4.1 0 9.375.196 2.636.195 4.736.488 2.1.39 3.174 1.025 1.318.587 2.49 2.003 1.22 1.465 2.1 3.37 1.025 1.806 1.61 3.418.587 1.612.93 2.393.292.88.78.684l1.61-.39q.782-.1.587-.782-1.904-11.426-2.88-18.018-.196-1.71-.928-1.61-.49 0-1.173.438l-1.905 1.172q-2.197 1.416-5.224 1.416-5.47.49-20.07.586h-4.833q-12.5-.098-18.896-.587-3.663 0-5.665-1.71l-1.318-.878q-.49-.44-1.22-.44-.587-.097-.978 1.612-.294 1.416-2.003 7.813-1.71 6.396-2.685 9.814-.196.78.39.78l1.807.49q.683.195.976-.49 1.123-2.684 3.32-6.493 1.172-1.805 2.588-3.22 1.416-1.37 2.978-1.906 3.32-.88 8.3-1.074 4.835-.098 7.52-.098h2.49zM284.572 85.684V97.11q0 6.103-.293 8.007-.245.88-1.124 1.172-.88.39-2.197.39h-2.1q-1.612 0-1.514.83v1.806q0 .977.732.977 1.758-.195 9.668-.293 3.613 0 6.2.098 2.59.195 3.322.195.78 0 .78-1.074v-1.71q0-.83-1.073-.83h-3.028q-1.27 0-1.71-.88-.487-.878-.487-3.222V80.8q0-1.415.684-2.782.732-1.32 1.318-2.1 2.1-2.393 4.687-3.418 2.54-.78 4.638-.78 3.662 0 6.592 2.782 2.197 2.002 2.783 4.98.488 3.125.488 7.325V104.824q-.096 1.172-1.17 1.465-1.22.39-2.637.39h-2.295q-.78 0-.684.83v1.71q-.097 1.073.88 1.073 1.708-.195 9.423-.293 4.297 0 6.69.098 2.392.195 2.93.195.78 0 .78-1.172v-1.513q0-.927-1.123-.927h-1.66q-1.513 0-2.636-.39-1.075-.294-1.075-1.075-.195-4.102-.195-13.72V85.78q.098-4.1-.39-7.86-.635-3.613-3.907-6.836-3.905-4.004-9.91-4.004-3.42 0-7.08 1.61-3.81 1.71-6.642 4.933h-.488v-6.396q0-4.932.195-14.844 0-4.688.098-8.057v-4.1q.195-2.54-.78-2.54-1.124.097-2.296.83l-10.4 5.468q-1.32.635-1.22 1.026v.88q-.1.438.73.633l1.66.586q2.736.683 3.81 2.294 1.025 1.612 1.025 6.104zM361.846 83.39q1.22 0 2.002-.294.83-.293.83-1.27.097-3.613-3.028-8.935-1.61-2.49-4.394-4.2-2.98-1.61-7.276-1.61-1.806 0-3.613.147-2.002.195-3.808.78-3.615 1.075-6.886 4.395-3.81 4.004-5.127 8.4-1.27 4.296-1.172 7.518-.195 9.278 4.395 15.772 2.88 3.906 7.177 5.517 4.2 1.61 8.496 1.61 3.418-.097 6.104-1.22 2.734-1.123 4.64-2.783 1.952-1.71 3.27-3.613 1.318-1.807 1.904-3.32.587-1.466 0-1.466l-1.317-.732q-.488-.098-.88.537-1.22 2.49-4.296 4.59-3.125 2.197-7.812 2.197-6.104-.098-10.01-5.03-4.102-4.687-4.2-12.157 0-3.516.342-4.834zm-24.268-2.98q1.465-5.517 4.395-8.008 2.783-2.295 6.103-2.295 2.49 0 4.102.977 1.465.928 2.197 2.54 1.367 3.27 1.367 5.37 0 1.416-2.685 1.416zM430.943 90.81q0-11.523.293-14.794.196-2.93.782-6.592.39-1.416 0-1.514l-.88-.683q-.39-.44-.927-.147l-5.272 2.246q-6.104-2.246-11.915-2.246-6.884-.098-13.183 4.834-4.102 3.467-6.2 8.594-2.296 5.078-2.296 9.717 0 6.396 1.904 10.4 1.66 4.053 4.395 6.494 2.783 2.196 5.908 3.075 3.077 1.026 5.665 1.026 5.517-.097 9.033-1.708 3.37-1.514 5.273-3.125h.197v15.82q0 7.715-.196 9.57-.096 2.1-2.39 2.1h-4.103q-1.22 0-1.074.732v2q0 .88.78.88 1.076-.195 10.5-.293 3.906 0 6.494.098 2.587.195 3.222.195.683 0 .683-.78v-2.198q0-.635-1.026-.635h-3.076q-2-.098-2.098-2.88-.49-6.104-.49-17.384zm-7.226 11.768q-1.367 1.71-4.2 3.027-2.685 1.514-6.396 1.514-4.784 0-8.788-4.2-1.807-2.002-3.418-5.615-.78-2.002-1.27-4.493-.634-2.587-.634-6.005 0-4.98 3.32-10.498 1.71-2.59 4.2-4.298 2.392-1.71 5.712-1.71 3.272 0 6.983 1.905 1.71.977 3.027 2.783 1.172 1.807 1.465 4.492zM477.113 82.314q.098-13.33.586-13.33.097-.88-.88-.976-.39.097-1.22.097-.684.196-1.71.196h-9.277q-1.318-.097-1.22.88v1.71q-.098.73 2.197.73 1.904 0 3.125.685 1.074.683 1.22 2.783v23.828q0 .586-.34 1.367-.294.83-.685 1.32-1.514 1.903-3.906 3.32-2.49 1.66-4.688 1.66-2.002.097-4.004-.587-2.1-.586-4.003-3.174-1.173-1.806-1.613-3.808-.39-2.002-.586-4.004-.096-4.102 0-7.227v-7.08q0-9.52.392-11.523.098-1.075-1.074-1.172-.537.097-1.123.097-.49.196-1.368.196h-8.935q-1.172 0-1.074.782v1.807q-.098.633 2.197.73 1.807.1 2.783.88 1.026.78 1.026 2.88v11.622q-.098 7.91.488 11.816.488 4.004 3.37 7.764 2.636 3.027 5.028 3.81 2.295.83 4.395.83 3.906-.1 7.715-2.1 3.662-2.003 5.86-4.933h.243l.78 5.81q.197 1.22.88 1.22 1.22-.097 2.002-.44l10.498-3.466q.635-.097.537-.927l-.34-1.27q-.1-.732-1.173-.44-2.1.44-3.32.343-.88.097-1.465-.635-.83-.684-1.123-2.88-.197-3.907-.197-11.817zM493.205 95.596q0 4.492-.098 9.082 0 2.1-1.61 2.002h-4.884q-1.025 0-1.025.83v2.002q0 .78.83.78 1.904-.194 10.79-.292 3.272 0 6.104.098 2.784.195 3.467.195.927 0 .927-.977v-1.71q0-.926-1.025-.926h-4.59q-1.514.097-1.612-2.588-.097-2.197-.097-8.594v-10.89q0-6.395.097-10.692 0-4.297.098-5.615.244-1.073-.488-1.22-.78 0-1.905.635-5.81 3.076-10.79 4.883-.684.293-.684.683v.93q-.097.585.88.683 3.613.488 4.687 2.002 1.026 1.513.928 4.003zm.977-43.994q3.027 0 4.54-1.905 1.27-1.61 1.27-3.613 0-1.758-1.172-3.37-1.318-1.415-4.004-1.513-3.027 0-4.54 1.612-1.563 1.612-1.563 3.614.098 2.392 2.002 3.76 1.806 1.416 3.467 1.416zM529.56 70.303q1.807-.098 3.516.586 1.563.83 3.174 3.807 2.197 4.004 5.518 4.004 3.37 0 3.71-3.514 0-1.905-2.93-4.883-1.513-1.416-4.1-2.295-2.686-.928-6.593-.928-10.01.244-15.576 7.324-5.81 6.983-5.81 16.21-.1 3.273.878 6.593 1.025 3.272 3.613 6.982 3.517 4.2 7.618 5.615 3.955 1.416 7.86 1.416 5.226-.097 9.62-2.44 4.297-2.1 6.495-4.688.683-.78 0-1.27l-.977-1.025q-.537-.39-.83 0-2.392 2.295-4.883 3.32-2.392.977-6.103.977-2.588.097-5.42-.977-2.88-1.025-5.47-4.1-2-3.03-3.515-7.13-1.61-4.004-1.61-8.106.097-7.762 3.905-11.67 3.516-3.807 7.91-3.807zM555.467 85.684q0 12.597-.244 18.603 0 2.295-1.758 2.393h-3.71q-1.026 0-1.026.927v1.71q0 .878.536.976 1.27-.195 9.57-.293 3.81 0 6.2.098 2.296.195 2.687.195.83 0 .83-1.074v-1.71q0-.83-.928-.83h-2.88q-2.003 0-2.003-2.1-.098-5.176-.098-10.4v-4.395q2.295 0 4.297 1.123 1.906 1.71 7.18 7.373 2.538 2.54 4.345 4.542 1.66 2.1 1.758 2.49.34 1.612-1.075 1.612h-.683q-1.123 0-1.026.78v1.612q0 .977.683.977 1.61-.195 10.938-.293 3.565 0 5.665.098 2.002.195 2.636.195.88 0 .88-.88v-1.805q0-.928-.78-.928-2.1 0-5.226-1.367-.683-.39-3.515-3.223-2.882-2.686-6.593-6.2-8.008-7.667-10.4-10.206 3.027-2.88 7.42-6.885 2.2-1.905 3.712-3.32 1.562-1.27 2.1-1.564 1.56-1.123 3.466-1.71 1.904-.585 3.418-.585h.683q.83 0 .83-.83v-1.806q0-.976-.634-.976-.88.195-8.057.293-3.81 0-6.3-.194-2.538-.098-3.026-.098-.684 0-.684.78v1.905q-.097.928.78.928 1.222-.096 2.59.587.927.586 0 2.295-.977 1.318-4.786 5.42-1.71 1.758-3.32 3.37-1.66 1.708-2.49 2.294-.782.537-2.198.83-1.367.293-2.588.293V70.89q-.097-21.193.49-31.495.194-1.71-.587-1.71-.88.098-2.197.83l-10.206 4.395q-1.416.488-1.318.977v.927q-.098.293 1.416.684 3.613.83 4.492 2.393.83 1.612.733 4.737zM219.018 203.008v10.596q0 5.078-.196 6.396-.195.684.44.78l1.172.343q.78.098 1.318-.342l4.004-2.196q1.807 1.025 4.785 1.807 2.784.83 6.983.83 8.838-.243 14.698-7.03 6.007-6.69 6.104-15.674-.195-10.79-5.81-16.21-5.567-5.226-12.5-5.226-3.662 0-7.373 1.22-3.906 1.417-6.396 3.81v-11.622q0-7.177.098-13.672v-7.42q.195-1.71-.78-1.71-1.027.097-2.1.927-5.03 2.98-10.646 5.47-.78.438-.78.83v.78q-.1.39 1.318.83l.976.293q2.686.684 3.81 2.49.878 1.905.878 6.788zm7.226-17.53q3.613-3.466 9.473-3.564 7.422.195 11.23 5.81 3.71 5.47 3.71 13.087 0 4.786-1.22 8.106-1.22 3.272-3.222 5.273-1.953 1.904-4.297 2.83-2.393.978-4.688.978-3.173 0-5.908-1.71-2.783-1.366-3.564-3.27-.83-2.295-1.123-5.42-.39-3.077-.39-9.082zM268.947 202.813q0 7.373-.097 12.01 0 1.857-2.198 1.857h-3.906q-1.22 0-1.123.927v1.71q0 .976.586.976 1.317-.195 11.034-.293 4.2 0 7.08.098 3.028.195 3.516.195t.488-.88v-1.806q0-.927-.684-.927h-4.736q-1.465 0-2.1-.977-.683-.88-.683-3.125v-20.996q0-.976 1.025-3.174 1.368-2.392 3.077-3.418 1.61-.78 2.783-.78 2.002 0 3.32.78 1.22.83 2.88.83 1.515 0 2.833-1.416 1.27-1.416 1.367-3.515 0-1.906-1.172-3.077-1.318-1.32-3.906-1.32-3.223.1-6.396 2.59-3.223 2.538-5.616 6.103h-.39l-.49-6.885q0-1.073-.73-1.22-.49 0-1.368.44l-9.912 5.078q-.782.39-.782.927v.586q0 .49.782.685l1.904 1.025q2.1.88 2.88 2.393.733 1.514.733 5.176zM314.043 221.22q9.473-.243 15.674-7.03 6.3-6.495 6.396-14.99 0-9.62-6.787-16.31-2.295-2.392-6.006-4.1-3.71-1.563-8.007-1.71-2.393 0-5.91.928-3.465.976-7.47 3.906-4.296 3.467-6.396 7.813-2.197 4.296-2.197 8.252 0 5.125 1.074 8.74 1.123 3.563 4.395 7.567 3.32 3.71 7.42 5.322 4.102 1.61 7.813 1.61zm1.172-3.027q-3.37 0-5.81-1.416-2.296-1.367-4.102-3.76-2.295-3.417-2.98-6.738-.39-1.66-.585-3.468-.195-1.806-.195-3.808 0-5.615 1.27-9.277 1.22-3.516 4.003-6.446 1.807-1.854 3.81-2.587 2-.586 3.905-.586 4.2.098 8.595 4.786 2.002 2.392 3.32 5.712 1.27 3.32 1.27 7.618-.098 8.154-3.272 13.867-1.61 2.734-3.906 4.394-2.392 1.71-5.322 1.71zM376.96 184.795q-.292-1.172.196-2.002.49-.586 1.22-.586h2.1q.684 0 .684-.78v-2.1q0-.733-.928-.733-.878.195-7.568.293-3.71 0-6.006-.196-2.392-.096-3.027-.096-.878 0-.878.83v2.1q0 .683.684.683h1.513q2 0 2.685.977.44.634.732 1.318.098.684.196 1.904l-10.206 24.414h-.39l-7.91-26.513q-.684-2.686 1.22-2.686h.88q.78 0 .78-.83v-2q0-.782-.78-.782-1.905.195-8.4.293-4.1 0-6.103-.195-2.002-.097-2.978-.097-.635 0-.635.78v1.905q0 .928.733.928h2.198q3.37 0 4.2 2.687l13.086 35.205q.586 1.904 1.71 2.002 1.268 0 2.098-1.612l12.305-28.808h.487l9.815 28.515q.683 1.806 1.758 1.904 1.318.097 1.904-1.32 1.807-4.296 7.715-18.993 1.415-3.417 2.684-6.395 1.22-3.125 2.198-5.518 2.1-5.176 2.636-6.006.49-.78 1.368-1.17.927-.49 1.806-.49h2.49q.733 0 .733-.83v-2.1q0-.682-.733-.682-1.27.195-7.275.293-3.125 0-5.127-.195-2.1-.097-2.588-.097-.683 0-.683.683v2.1q-.1.83.585.83h1.416q3.174.1 1.514 5.47l-8.105 22.02h-.44z"/><path d="M445.787 188.8q0-2.1-1.562-4.982-1.612-2.93-3.907-4.492-3.808-2.246-8.496-2.246-3.906.147-7.617 2.246-3.71 2.197-6.103 5.078h-.196l-.683-6.103q-.098-1.22-.83-1.22-.586 0-1.758.732l-8.643 4.786q-.88.293-.88 1.025v.488q-.096.392.783.88l.83.39q2.002.93 2.978 2.198 1.123 1.514 1.123 3.71v23.39q0 1.22-.44 1.61-.585.392-1.562.392h-2.93q-1.074 0-.976.927v1.807q0 .88.684.88 1.123-.196 8.886-.294 4.004 0 6.2.098 2.1.195 2.54.195.684 0 .684-.88v-1.708q0-1.025-1.025-1.025h-2.49q-1.465 0-1.905-.684-.488-.683-.488-2.588v-20.703q0-1.61.488-3.418.44-1.71 1.807-3.37 2.39-2.392 4.686-3.222 2.246-.683 3.418-.683 1.905 0 3.71.195 1.808.293 3.615 1.61 2.098 1.466 2.586 3.664.293 2.344.293 5.323v13.183q0 4.2-.196 8.4 0 1.317-.488 1.708-.635.586-1.514.586h-2.88q-1.417 0-1.32.927v1.612q0 1.073.782 1.073 1.22-.195 9.033-.293 4.297 0 6.69.098 2.392.195 2.783.195.83 0 .83-1.074v-1.612q0-.928-1.123-.928h-3.223q-2.197.097-2.197-2.1zM484.22 194.414v18.8q0 1.708-.39 2.587-.488.88-2.002.88h-4.785q-1.123 0-1.025.732v2.197q0 .683.83.683 2.197-.195 11.377-.293 11.28.098 12.01.293.685 0 .685-1.172v-1.61q0-.83-1.074-.83h-5.713q-1.514 0-1.904-.782-.587-.586-.685-1.806-.098-2.98-.098-22.07v-8.936h10.987q1.172 0 1.27-.488l.536-3.272q.293-.928-.732-1.025h-12.06v-2q-.098-5.52.39-11.183.488-5.615 3.076-9.228 1.71-2.1 3.71-2.882 1.808-.586 3.81-.586 2.783 0 4.59 2.295.78 1.074 2.392 2.295 1.318.586 2.832.586 1.27 0 2.783-1.27 1.27-1.22 1.417-3.027-.146-2.782-2.734-4.296-2.686-1.318-6.397-1.318-8.398-.196-16.406 7.91-2.88 3.222-4.785 8.3-1.904 5.03-1.904 12.5v1.905h-5.81q-1.074 0-1.172.684l-.39 3.028q-.342 1.172.488 1.074h6.885z"/><path d="M525.8 221.22q9.473-.243 15.675-7.03 6.298-6.495 6.396-14.99 0-9.62-6.786-16.31-2.295-2.392-6.006-4.1-3.71-1.563-8.008-1.71-2.392 0-5.908.928-3.467.976-7.47 3.906-4.297 3.467-6.397 7.813-2.197 4.296-2.197 8.252 0 5.125 1.074 8.74 1.123 3.563 4.394 7.567 3.32 3.71 7.422 5.322 4.102 1.61 7.813 1.61zm1.173-3.027q-3.37 0-5.81-1.416-2.296-1.367-4.102-3.76-2.294-3.417-2.978-6.738-.39-1.66-.586-3.468-.195-1.806-.195-3.808 0-5.615 1.27-9.277 1.22-3.516 4.004-6.446 1.807-1.854 3.81-2.587 2-.586 3.905-.586 4.198.098 8.593 4.786 2.002 2.392 3.32 5.712 1.27 3.32 1.27 7.618-.098 8.154-3.272 13.867-1.61 2.734-3.905 4.394-2.393 1.71-5.322 1.71z"/><path d="M562.596 217.51q0-.733-.49-.83h-2.098q-.88 0-1.074-.782-.342-.586 0-1.416.88-1.66 4.052-6.2 3.223-4.395 4.64-6.3l7.177 11.524q.78 1.172.586 2.197-.294.977-1.173.977h-1.514q-.88 0-.78 1.025v1.71q-.1.78.78.878 1.514-.195 9.815-.293 6.884.098 7.666.293.732-.098.732-.78v-2.003q0-.83-.488-.83h-1.612q-2.587 0-4.394-2.1-6.494-8.203-12.402-17.285 2.1-2.49 6.396-7.813 4.297-5.175 5.908-6.69 1.27-1.17 3.906-1.17h1.563q.83 0 .83-.83v-1.808q.098-.976-.928-.976-.39.195-5.664.293-4.1 0-5.907-.195-1.904-.097-2.734-.097-.49 0-.49.78v2.1q-.097.733.586.733h1.22q1.32.1 1.612 1.075.293 1.123-.488 2.1l-7.617 10.01-6.2-9.815q-.88-1.367-.783-2.392 0-.977 1.172-.977h.928q.586 0 .586-.83v-1.903q0-.88-.586-.88-1.807.196-9.326.294-3.418 0-5.518-.195-2.1-.097-2.685-.097-.78 0-.78.88v2q0 .733.683.733h2.783q2.344 0 3.614 1.368 4.834 5.713 11.816 16.504-1.61 2.002-6.3 8.008-2.196 2.685-3.905 4.883-1.903 2.295-2.685 3.125-1.025 1.172-4.1 1.172h-2.638q-.78.097-.78.927v1.807q0 .78.927.88.88-.196 7.666-.294 3.32 0 5.224.098 2.002.195 2.588.195.684-.098.684-.78zM205.967 322.725q0 11.67-.537 21.386-.88 8.888-4.98 8.79-.782 0-2.296-1.513-1.318-1.465-2.588-2.393-1.513-.683-3.125-.683-3.465.39-3.612 4.2.147 2.1 1.807 3.37 1.71 1.22 4.004 1.317 6.005 0 10.692-4.2 4.64-4.1 6.397-12.597.926-4.492 1.122-10.986.293-6.494.293-11.133v-12.5q0-6.98.195-11.57 0-4.69.195-5.42.195-1.563-.586-1.71-.782 0-1.905.733-5.615 3.71-10.79 5.37-.782.342-.782.733v.88q-.147.39.586.683l.975.438q3.125.88 4.004 2.295.927 1.514.927 4.687zm1.66-51.123q2.93 0 4.64-1.905 1.66-1.71 1.66-3.906-.1-3.27-1.857-4.784-1.904-1.416-3.71-1.416-3.223.098-4.932 2.1-1.758 2-1.758 3.808.098 3.125 2.1 4.59 2 1.514 3.857 1.514zM259.56 302.314q.096-13.33.585-13.33.097-.88-.88-.976-.39.098-1.22.098-.684.195-1.71.195h-9.276q-1.32-.097-1.222.88v1.71q-.098.73 2.197.73 1.904 0 3.125.685 1.074.683 1.22 2.783v23.828q0 .586-.34 1.367-.294.83-.685 1.32-1.513 1.903-3.906 3.32-2.49 1.66-4.688 1.66-2.002.097-4.004-.587-2.1-.586-4.004-3.174-1.172-1.806-1.61-3.808-.392-2.002-.587-4.004-.098-4.102 0-7.227v-7.08q0-9.52.39-11.523.098-1.074-1.074-1.172-.537.098-1.123.098-.488.195-1.367.195h-8.936q-1.172 0-1.074.782v1.807q-.098.634 2.197.73 1.807.1 2.784.88 1.025.78 1.025 2.88v11.622q-.1 7.91.487 11.816.488 4.004 3.37 7.764 2.636 3.027 5.03 3.81 2.294.83 4.393.83 3.906-.1 7.715-2.1 3.662-2.003 5.86-4.932h.244l.78 5.81q.195 1.22.88 1.22 1.22-.097 2-.44l10.5-3.466q.633-.097.536-.927l-.342-1.27q-.098-.732-1.172-.44-2.1.44-3.32.343-.88.097-1.465-.635-.83-.684-1.123-2.88-.195-3.907-.195-11.817zM302.848 325.02q0 1.757-2.198 1.66h-2.93q-1.074 0-.976 1.025v1.61q0 .978.684.978 1.123-.195 9.424-.293 8.105.098 8.886.293.684 0 .684-1.074v-1.613q0-.927-1.074-.927h-3.418q-2.1-.098-2.002-2.295V307.1q0-1.807.097-3.174 0-1.32.098-2.54.195-1.17.537-2.294.293-1.074.684-2.1 1.416-2.295 3.906-3.808 2.49-1.368 4.785-1.368 4.59 0 7.422 2.1 1.66 1.27 2.393 3.27.488 2.1.488 4.738v14.795q0 4.003-.195 8.104-.196 1.953-2.002 1.856h-2.49q-.732 0-1.025.097-.293.244-.293.83v1.71q0 .976.83.976 1.367-.195 9.278-.293 3.613 0 5.712.098 2.1.195 2.588.195.684 0 .684-.977v-1.71q0-.926-1.074-.926h-2.686q-2.002.097-2.1-2.002v-22.266q0-3.027-.34-5.03-.392-1.903-1.173-3.173-1.415-2.49-3.32-4.103-1.806-1.806-4.003-2.49-2.295-.537-4.98-.537-4.59.147-8.4 2.344-4.003 2.295-6.298 5.37h-.49q-3.32-7.47-11.328-7.714-4.394 0-8.3 2.246-4.004 2.197-6.397 5.37h-.293l-.39-5.81q0-1.27-.928-1.366-.586 0-1.856.585l-8.837 4.493q-.488.195-.585.78v.83q0 .392.683.782l2.1 1.123q.928.39 1.513.977.587.635.783 1.22.537 1.417.537 2.88v17.824q0 2.588-.098 5.175 0 1.318-.342 1.904-.39.586-1.172.586h-3.417q-1.27-.098-1.17.927v1.807q0 .88.78.88 1.318-.196 9.326-.294 4.2 0 6.397.098 2.1.195 2.685.195.78 0 .78-1.074v-1.613q.1-.927-.975-.927h-3.614q-2.002 0-2.002-2.588v-19.776q-.098-4.003 1.416-6.738 2.197-3.37 4.882-4.687 2.686-1.074 4.688-1.074 1.71 0 3.613.39 1.904.49 2.783 1.417 1.32.88 2.246 3.076.782 2.294.782 7.714zM351.996 334.004q0 14.404-.293 17.383-.097 1.123-.39 1.71-.39.78-1.71.78h-3.906q-1.27 0-1.172.928v1.806q-.097.88.88.88 1.318-.195 10.107-.293 9.62.098 10.302.293.88 0 .88-.88v-1.708q.097-1.025-.88-1.025h-4.394q-1.025 0-1.61-.684-.587-.586-.587-2.588v-21.093q2.49.88 5.175 1.27 2.832.44 4.786.44 9.62-.245 15.625-7.033 5.907-6.592 6.004-16.602 0-5.762-1.22-9.375-1.27-3.516-4.2-6.2-2.1-2.1-4.785-3.517-2.784-1.416-6.592-1.416-5.03.147-8.692 2.002-3.808 1.904-5.908 4.736h-.293l-.44-4.834q0-2.002-.683-2.002-1.074.098-2.295.83l-9.62 4.786q-.683.293-.683.683v.83q-.097.392.684.88l2.344 1.32q2.197 1.073 2.978 2.294.586 1.318.586 3.076zm7.227-35.89q4.004-6.298 10.693-6.395 5.273 0 9.082 4.49 3.81 4.688 3.906 15.09-.097 9.08-3.613 12.89-1.56 1.904-3.563 2.83-2.1.978-4.444.978-5.957.098-9.96-2.686-1.32-1.123-1.71-2.392-.39-1.22-.39-2.93zM408.078 331.22q6.592-.097 10.79-3.613 4.2-3.515 4.396-9.62-.098-5.663-3.174-8.592-3.223-2.784-8.838-4.2-3.662-.88-6.592-2.588-2.88-1.513-2.978-5.712 0-3.272 2.49-4.98 2.197-1.612 5.224-1.612 2.98.097 4.59 1.22 1.612 1.075 2.393 2.686l3.417 4.59q.39.682.88.487l1.22-.39q.683-.293.683-.88l-1.514-7.03q.196-.782-1.806-1.807-1.27-.782-3.37-1.368-2.197-.732-5.81-.732-5.713.147-9.717 3.418-4.2 3.418-4.297 8.79.098 5.712 3.81 8.593 3.515 2.93 8.007 4.102 5.615 1.514 7.715 3.614 1.953 2.197 1.953 5.615-.097 3.37-2.587 5.08-2.393 1.708-5.274 1.708-3.81 0-5.518-1.807-1.807-1.708-3.174-4.393l-2.54-4.883q-.292-.83-.878-.635l-1.318.34q-.684.1-.586.782l1.71 9.522q0 .78.585 1.367 1.026.733 3.712 1.71 2.783 1.123 6.396 1.22zM470.633 331.22q9.472-.243 15.674-7.03 6.298-6.495 6.396-14.99 0-9.62-6.787-16.31-2.295-2.392-6.006-4.1-3.71-1.563-8.008-1.71-2.392 0-5.908.928-3.467.976-7.47 3.906-4.297 3.467-6.397 7.813-2.197 4.296-2.197 8.252 0 5.125 1.074 8.74 1.123 3.563 4.394 7.567 3.32 3.71 7.422 5.322 4.102 1.61 7.813 1.61zm1.172-3.027q-3.37 0-5.81-1.416-2.296-1.367-4.102-3.76-2.295-3.417-2.98-6.738-.39-1.66-.585-3.467-.195-1.807-.195-3.81 0-5.614 1.27-9.276 1.22-3.516 4.003-6.446 1.807-1.854 3.81-2.587 2-.586 3.905-.586 4.2.098 8.595 4.786 2.002 2.392 3.32 5.712 1.27 3.32 1.27 7.618-.098 8.154-3.272 13.867-1.61 2.734-3.906 4.394-2.393 1.71-5.322 1.71zM509.332 305.293q-.586-1.807-1.807-5.908-.39-2.002-.88-3.662-.487-1.612-.487-2.198.098-1.904 1.807-1.904h1.953q.732 0 .732-1.024v-1.807q0-.782-1.025-.782-1.27.195-8.984.293-7.617-.195-8.398-.292-1.123 0-1.123.78v1.808q0 1.025.634 1.025h2.002q1.27 0 2.295.685.88.78 1.807 2.978 2.88 7.52 5.08 13.82 4.002 10.4 7.81 20.31.49.88.88 1.368.537.636 1.22.734 1.417-.098 2.393-2.295l4.297-9.523q3.418-7.812 4.688-10.986 1.416-3.417 4.1-8.983 1.222-2.637 2.296-4.64 1.124-1.903 1.612-2.392 1.32-1.074 3.125-1.074h1.905q.488 0 .488-1.024v-1.71q.098-.976-.928-.878-1.27.195-7.177.293-3.223 0-5.127-.195-1.856-.097-2.88-.097-.587 0-.587.78v1.808q0 1.025.39 1.025h2.003q2.784.1 1.807 4.298-1.123 3.662-4.492 12.305-3.516 8.79-5.127 12.597h-.292q-.88-2.197-3.076-7.91l-2.93-7.617zM569.174 303.39q1.22 0 2.002-.294.83-.293.83-1.27.098-3.613-3.027-8.935-1.613-2.49-4.396-4.2-2.98-1.61-7.275-1.61-1.808 0-3.615.147-2.002.195-3.808.78-3.614 1.075-6.885 4.395-3.81 4.004-5.127 8.4-1.27 4.296-1.172 7.518-.195 9.278 4.395 15.772 2.88 3.906 7.177 5.517 4.2 1.61 8.496 1.61 3.42-.097 6.105-1.22 2.734-1.123 4.64-2.783 1.952-1.71 3.27-3.613 1.32-1.807 1.904-3.32.585-1.466 0-1.466l-1.32-.732q-.487-.098-.878.537-1.22 2.49-4.297 4.59-3.125 2.197-7.812 2.197-6.104-.098-10.01-5.03-4.102-4.687-4.2-12.157 0-3.516.343-4.834zm-24.268-2.98q1.465-5.517 4.395-8.008 2.784-2.295 6.104-2.295 2.49 0 4.102.977 1.465.928 2.197 2.54 1.367 3.27 1.367 5.37 0 1.416-2.685 1.416zM582.287 312.813q0 7.373-.098 12.01 0 1.857-2.198 1.857h-3.906q-1.22 0-1.123.927v1.71q0 .976.586.976 1.317-.195 11.034-.293 4.2 0 7.08.098 3.027.195 3.516.195.488 0 .488-.88v-1.806q0-.927-.684-.927h-4.736q-1.465 0-2.1-.977-.683-.88-.683-3.125v-20.996q0-.976 1.025-3.174 1.367-2.392 3.076-3.418 1.612-.78 2.784-.78 2.002 0 3.32.78 1.22.83 2.88.83 1.514 0 2.833-1.416 1.27-1.416 1.367-3.515 0-1.906-1.172-3.077-1.318-1.32-3.906-1.32-3.223.1-6.397 2.59-3.222 2.538-5.615 6.103h-.39l-.49-6.885q0-1.073-.73-1.22-.49 0-1.368.44l-9.913 5.078q-.782.39-.782.927v.586q0 .49.78.685l1.906 1.025q2.1.88 2.88 2.393.733 1.514.733 5.176zM179.035 417.49q0-6.982.293-13.965h12.89q.83 0 .928-.83l.977-3.515q.293-.782-.684-.88h-13.917l.538-9.91q0-1.37-1.025-1.466-.88 0-1.416.976-1.173 2.88-5.177 6.983-4.004 4.2-6.2 5.615-.88.39-1.32.78-.487.44-.487 1.027 0 1.22 1.513 1.22h6.103q-.196 8.057-.196 12.696v2.198q-.195 5.078-.34 14.307 0 2.978 3.124 5.566 1.417 1.222 3.077 2.003 1.71.928 3.515.928 4.59-.097 7.52-1.708 1.465-.733 2.393-1.32.878-.682 1.17-.975.636-.537.246-1.123l-.537-.88q-.39-.634-1.17-.194-1.124.585-2.93.878-1.808.39-3.663.39-1.514.1-3.223-1.708-1.904-1.66-2.002-7.08z"/><path d="M200.79 415.684v11.425q0 6.103-.292 8.007-.244.88-1.123 1.172-.88.39-2.197.39h-2.1q-1.61 0-1.514.83v1.806q0 .977.733.977 1.758-.195 9.668-.293 3.613 0 6.2.098 2.59.195 3.32.195.783 0 .783-1.074v-1.71q0-.83-1.075-.83h-3.027q-1.27 0-1.71-.88-.487-.878-.487-3.222V410.8q0-1.415.682-2.782.733-1.32 1.32-2.1 2.098-2.393 4.686-3.418 2.54-.78 4.64-.78 3.66 0 6.59 2.782 2.198 2.002 2.784 4.98.488 3.125.488 7.325V434.824q-.098 1.172-1.172 1.465-1.22.39-2.636.39h-2.295q-.782 0-.684.83v1.71q-.098 1.073.88 1.073 1.708-.195 9.423-.293 4.297 0 6.69.098 2.392.195 2.93.195.78 0 .78-1.172v-1.513q0-.927-1.123-.927h-1.66q-1.514 0-2.637-.39-1.074-.294-1.074-1.075-.195-4.102-.195-13.72v-5.714q.097-4.1-.39-7.86-.636-3.613-3.907-6.836-3.906-4.004-9.912-4.004-3.418 0-7.08 1.61-3.81 1.71-6.64 4.933h-.49v-6.396q0-4.932.196-14.844 0-4.688.098-8.057v-4.1q.195-2.54-.78-2.54-1.125.097-2.296.83l-10.4 5.468q-1.32.635-1.222 1.026v.88q-.097.438.733.634l1.66.585q2.734.683 3.81 2.294 1.024 1.612 1.024 6.104zM278.064 413.39q1.22 0 2.002-.294.83-.293.83-1.27.098-3.613-3.027-8.935-1.612-2.49-4.395-4.2-2.98-1.61-7.276-1.61-1.807 0-3.614.147-2.002.195-3.81.78-3.612 1.075-6.883 4.395-3.81 4.004-5.127 8.4-1.27 4.296-1.172 7.518-.196 9.278 4.394 15.772 2.88 3.906 7.178 5.517 4.2 1.61 8.496 1.61 3.418-.097 6.104-1.22 2.734-1.123 4.638-2.783 1.953-1.71 3.272-3.613 1.318-1.807 1.904-3.32.586-1.466 0-1.466l-1.318-.732q-.49-.098-.88.537-1.22 2.49-4.296 4.59-3.125 2.197-7.813 2.197-6.103-.098-10.01-5.03-4.1-4.687-4.2-12.157 0-3.516.343-4.834zm-24.267-2.98q1.465-5.517 4.394-8.008 2.785-2.295 6.105-2.295 2.49 0 4.1.977 1.466.928 2.2 2.54 1.366 3.27 1.366 5.37 0 1.416-2.685 1.416zM320.648 401.28q0-15.87.39-31.788.196-1.806-.78-1.806-.83 0-2.1.83-6.006 3.466-11.72 5.81-.877.293-.877.684v.78q-.097.196.586.538l2.002.684q2.393.683 3.71 2.002 1.173 1.513 1.27 4.004.343 6.005.343 18.798v6.3q0 15.087-.097 26.073-.342 2.587-2.246 2.49h-4.785q-.684 0-.977.097-.293.244-.293.83v1.71q0 .878.684.976 1.513-.195 11.28-.293 4.735 0 7.812.098 2.978.195 3.515.195.586-.098.586-.977v-1.71q0-.926-1.124-.926h-4.492q-1.367 0-2.002-.977-.488-.78-.586-2.1-.098-10.107-.098-23.388zM360.03 422.178v-15.283q0-2.1-.194-3.907-.39-1.71-2.002-3.174-.977-1.123-2.686-1.904-1.71-.83-5.322-.83-6.3 0-12.207 3.516-2.98 1.806-4.884 4.297-2.002 2.587-2.002 5.127 0 3.27 2.393 3.173 3.125 0 4.2-1.61 1.122-1.466 1.122-4.103-.098-1.367-.196-2.587-.195-1.075.683-2.002 1.22-.976 3.077-1.61 1.904-.49 3.418-.49 4.394.1 6.005 2.198.49.537.782 1.123.194.685.292 1.515.244.684.342 1.465V415q-1.32 1.123-4.54 2.588-3.175 1.71-6.79 3.223-5.71 2.588-7.91 5.567-2.196 3.027-2.098 6.543.097 4.59 2.1 6.494 2 1.807 3.905 1.807 3.224 0 5.91-.634 6.787-2.295 9.912-6.104h.195q.78 3.125 2.588 4.834 1.807 1.807 4.492 1.905 3.906-.097 5.615-2 .88-.83 1.514-1.613.39-.83.684-1.318.683-1.368.097-1.808l-.976-.78q-.536-.39-1.025.39-.88 1.416-3.466 1.513-1.32 0-2.1-1.71-.93-1.61-.93-5.81zm-7.274-4.2v12.305q-.098 2.1-2.93 4.004-2.783 2.197-5.273 2.197-5.03 0-5.225-5.468 0-3.125 1.71-5.323 1.61-2.1 3.71-3.37 2.295-1.415 4.492-2.44 2.1-.977 3.516-1.904zM385.107 440q2.002 0 8.79.195 6.2 0 9.033 1.026l7.666-13.622q.39-.684-.196-.977l-.976-.73q-.733-.49-1.32.292-4.784 6.298-8.3 8.642-3.417 2.197-5.42 2.1h-14.16l26.465-37.207q.732-1.32-.88-1.416h-13.818q-9.472 0-13.086-.39-2.783-.293-4.785-.928l-6.59 14.014q-.342.684.195 1.025l1.27.587q.634.39 1.122-.39 5.81-7.422 8.594-9.424 2.784-1.61 7.08-1.514h10.597l-25.684 37.01q-1.172 1.71.586 1.71z"/><path d="M414.725 467.197q4.004-.097 5.76-2.295 1.71-2.1 2.736-4.2 2.98-6.005 10.596-23.68 5.372-12.208 9.668-21.73 4.2-9.57 6.006-11.913 1.71-1.76 3.516-1.76h1.61q.49 0 .49-.927v-1.904q.097-.685-.586-.782-1.807.195-6.104.293-3.516 0-5.322-.195-1.905-.097-2.88-.097-.685 0-.587.78v2.003q-.098.83.684.83h1.612q2.392 0 1.71 3.76-.93 3.028-4.933 12.745-1.905 4.297-3.272 7.764-1.612 3.612-2.1 4.296h-.44q-1.17-2.88-4.296-13.282-1.367-4.687-2.49-8.398-1.172-3.81-1.416-4.688-.293-2.197 1.318-2.197h1.904q.586 0 .586-.83v-2.1q.098-.682-.88-.682-1.61.195-9.325.293-4.298 0-6.397-.195-2.1-.097-2.784-.097-.782 0-.782.683v2.003q0 .928.78.928h2.59q1.904 0 2.93 1.075.976 1.123 1.757 3.125 1.318 3.272 6.103 17.676 2.198 6.494 3.907 11.72 1.71 5.077 1.904 6.395-1.27 3.37-3.907 9.28-1.172 2.83-2.295 4.784-1.075 2.246-1.807 3.027-.976.782-2.1.587-.585-.195-1.903-.684-1.172-.39-2.685-.39-1.807 0-3.077 1.074-1.416 1.123-1.513 2.832 0 4.882 5.713 5.077zM508.334 398.594q-4.492-1.367-10.693-1.514-8.69 0-14.892 6.3-6.982 7.42-6.982 17.04-.098 4.883 1.27 8.69 1.318 3.81 5.028 7.472 3.614 3.418 6.495 4.004 2.88.635 5.272.635 4.102-.097 8.106-1.61 4.1-1.417 6.59-3.81l1.32 4.395q.39 1.123 1.318.782l11.28-3.76q.927-.293.683-1.123l-.196-.78q-.098-.734-2.002-.734-1.075-.195-2.295-.586-1.27-.293-2.1-1.074-.586-.928-.683-3.613-.293-2.686-.293-5.518v-22.07q0-21.925.39-32.228.196-1.71-.487-1.806-1.026.097-2.295.34-4.004.685-11.035 2.1-.78.1-.78.685v1.71q-.1.585.682.683 4.102.488 5.322 1.807 1.075 1.318.977 4.1zm0 29.394q0 1.416-.586 3.418-.78 2.002-3.71 3.614-2.882 1.904-7.18 1.904-4.686-.147-8.885-5.615-4.64-5.324-4.737-13.917-.097-2.88.928-6.592.977-3.515 3.71-6.69 2.003-2.098 4.396-2.928 2.392-.684 4.687-.684 4.492 0 6.982 1.61 2.49 1.613 3.515 3.81.684 1.172.78 2.393.1 1.417.1 2.49zM545.422 441.22q9.473-.243 15.674-7.03 6.3-6.495 6.396-14.99 0-9.62-6.787-16.31-2.295-2.392-6.006-4.1-3.712-1.563-8.01-1.71-2.39 0-5.907.928-3.467.976-7.47 3.906-4.297 3.467-6.397 7.813-2.197 4.296-2.197 8.252 0 5.125 1.073 8.74 1.123 3.563 4.394 7.567 3.32 3.71 7.422 5.322 4.1 1.61 7.812 1.61zm1.172-3.027q-3.37 0-5.81-1.416-2.296-1.367-4.102-3.76-2.295-3.417-2.98-6.738-.39-1.66-.585-3.467-.195-1.807-.195-3.81 0-5.614 1.27-9.276 1.22-3.516 4.003-6.446 1.807-1.854 3.81-2.587 2-.586 3.905-.586 4.2.098 8.594 4.786 2.002 2.392 3.32 5.712 1.27 3.32 1.27 7.618-.098 8.154-3.272 13.867-1.61 2.734-3.906 4.394-2.393 1.71-5.322 1.71zM589.785 467.197q6.543-.097 10.84-1.71 2.295-.682 3.857-1.61 1.514-.78 2.442-1.367 3.662-2.832 5.273-5.908 1.416-3.028 1.416-6.397.098-1.904-.83-4.492-.88-2.637-4.1-5.127-5.372-4.395-17.19-3.565-4.98.392-8.3-.096-3.37-.537-3.37-3.32.1-2.1 2.003-3.614 1.66-1.367 3.272-2.002 2.002.49 5.127.49 2.685 0 6.2-1.466 3.272-1.416 5.372-3.516 3.71-4.785 3.71-10.79 0-2.49-.39-4.395-.488-1.806-1.123-3.222 1.026-.488 1.904-.586h1.32q1.17.098 2.098.88.586.536 1.465 1.024.83.49 2.003.49 1.807 0 2.93-1.173.976-1.123.976-2.54.195-.78-.098-1.562-.293-.73-.88-1.317-1.22-1.32-3.71-1.32-2.393.1-4.883 1.222-2.393 1.074-4.493 2.686-.342-.488-1.22-1.464-.977-1.026-2.59-1.904-1.512-1.124-3.71-1.807-2.197-.635-5.078-.635-8.4.244-12.745 4.834-4.394 4.492-4.394 9.668.098 6.64 3.32 10.205 2.882 3.71 6.007 5.03v.195q-2.832.88-5.713 3.37-1.416 1.22-2.295 2.733-1.026 1.465-1.026 3.37 0 2.294 1.904 4.2 1.71 2 4.834 2.83v.39q-3.81 1.515-7.03 4.59-1.466 1.515-2.394 3.32-1.074 2.003-1.074 4.103-.098 4.883 5.078 8.057 3.71 1.904 7.715 2.54 4.004.682 7.568.682zm-.586-41.504q-3.37 0-6.007-2.49-3.173-3.515-3.173-8.69-.098-2.93.585-6.105.684-3.125 2.98-5.713 1.806-1.806 3.612-2.295 1.807-.488 3.516-.488 2.588.098 4.785 2.197 1.416 1.415 2.1 3.515.586 2.197.586 5.47 0 2.294-.39 4.784-.392 2.538-1.466 4.833-1.025 2.1-2.734 3.467-1.807 1.513-4.395 1.513zm4.1 38.282q-9.814.146-14.013-2.784-1.465-1.073-2.588-3.075-1.27-1.904-1.27-3.808.097-4.102 2.88-6.592 2.588-2.393 5.08-3.027l9.618-.684q7.52-.488 11.084 2.295 3.418 2.782 3.418 7.42.195 2.784-1.416 4.786-1.465 2.002-4.004 3.174-2.49 1.123-4.785 1.71-2.393.585-4.004.585zM625.457 441.22q2.49-.097 4.004-1.61 1.612-1.417 1.612-3.907 0-2.88-1.61-4.492-1.71-1.513-4.005-1.513-3.613.098-4.883 2.1-1.416 2.002-1.318 3.515.098 3.37 2.295 4.688 2.1 1.22 3.907 1.22z"/></g></svg>