<svg xmlns="http://www.w3.org/2000/svg" viewBox="0 0 1600 1000" height="1000" width="1600"><path fill="#fff" d="M0 0h1600v1000H0z"/><g font-weight="400" font-size="200" font-family="Adobe Caslon" letter-spacing="-.03em" text-anchor="middle" fill="#222"><path d="M474.266 136.992v57.813q-.196 10.35-.586 13.183-.39 4.59-6.64 4.785h-13.575q-1.563 0-1.367 2.05v3.81q-.196 1.758 1.757 1.953 3.028-.39 30.47-.586 27.148.195 27.93.586 2.245 0 2.05-1.563v-4.2q.195-2.05-2.05-2.05h-12.6q-6.542 0-6.737-8.007v-31.348q-.195-25.39-.195-30.86V85.626h5.566q8.202 0 18.75.39 5.273.39 9.472.977 4.2.78 6.347 2.05 2.636 1.173 4.98 4.005 2.44 2.93 4.2 6.738 2.05 3.613 3.222 6.836 1.172 3.224 1.855 4.786.586 1.758 1.563 1.367l3.222-.78q1.563-.196 1.172-1.563-3.808-22.852-5.76-36.035-.392-3.418-1.857-3.223-.977 0-2.344.88l-3.808 2.343q-4.395 2.832-10.45 2.832-10.937.976-40.136 1.17h-9.67q-25-.194-37.792-1.17-7.324 0-11.328-3.418l-2.637-1.76q-.977-.878-2.44-.878-1.173-.195-1.955 3.223-.585 2.832-4.003 15.625t-5.372 19.628q-.39 1.563.782 1.563l3.613.977q1.367.39 1.953-.976 2.247-5.37 6.642-12.987 2.343-3.614 5.176-6.446 2.832-2.734 5.957-3.808 6.64-1.76 16.6-2.15 9.67-.195 15.04-.195h4.98zM569.145 171.367v22.852q0 12.206-.586 16.014-.49 1.758-2.247 2.344-1.758.78-4.395.78h-4.2q-3.222 0-3.027 1.662v3.613q0 1.953 1.466 1.953 3.516-.39 19.336-.586 7.227 0 12.403.195 5.175.39 6.64.39 1.563 0 1.563-2.148v-3.417q0-1.66-2.15-1.66h-6.053q-2.54 0-3.418-1.758-.977-1.758-.977-6.446v-43.554q0-2.832 1.367-5.567 1.465-2.637 2.637-4.2 4.2-4.784 9.375-6.835 5.077-1.562 9.276-1.562 7.324 0 13.184 5.566 4.394 4.004 5.566 9.96.977 6.25.977 14.65V209.647q-.196 2.344-2.344 2.93-2.442.78-5.274.78h-4.59q-1.563 0-1.367 1.662v3.417q-.197 2.15 1.756 2.15 3.418-.392 18.848-.587 8.594 0 13.38.195 4.784.39 5.858.39 1.563 0 1.563-2.343v-3.027q0-1.856-2.246-1.856h-3.322q-3.027 0-5.273-.782-2.148-.586-2.148-2.148-.39-8.203-.39-27.442v-11.425q.194-8.204-.782-15.723-1.27-7.227-7.813-13.672-7.812-8.008-19.824-8.008-6.836 0-14.16 3.223-7.617 3.418-13.28 9.863h-.978v-12.793q0-9.863.39-29.687 0-9.375.196-16.114V80.45q.39-5.08-1.563-5.08-2.246.196-4.59 1.66l-20.8 10.94q-2.637 1.268-2.442 2.05v1.757q-.194.88 1.466 1.27l3.32 1.172q5.47 1.366 7.618 4.59 2.05 3.22 2.05 12.206zM723.69 166.777q2.443 0 4.005-.586 1.66-.585 1.66-2.538.196-7.226-6.054-17.87-3.222-4.98-8.788-8.4-5.957-3.222-14.55-3.222-3.614 0-7.228.293-4.004.39-7.617 1.563-7.226 2.148-13.77 8.79-7.617 8.007-10.253 16.796-2.54 8.593-2.344 15.04-.39 18.553 8.79 31.542 5.76 7.812 14.355 11.035 8.398 3.22 16.992 3.22 6.836-.194 12.207-2.44 5.468-2.246 9.277-5.566 3.907-3.418 6.544-7.227 2.637-3.613 3.81-6.64 1.17-2.93 0-2.93l-2.638-1.465q-.977-.195-1.758 1.074-2.44 4.98-8.594 9.18-6.25 4.394-15.625 4.394-12.208-.195-20.02-10.058-8.203-9.375-8.4-24.317 0-7.03.685-9.668zm-48.534-5.957q2.93-11.035 8.79-16.015 5.566-4.59 12.206-4.59 4.98 0 8.203 1.953 2.93 1.855 4.395 5.078 2.734 6.543 2.734 10.742 0 2.832-5.37 2.832zM861.887 181.62q0-23.046.586-29.59.39-5.858 1.562-13.182.78-2.832 0-3.028l-1.758-1.367q-.78-.88-1.855-.293l-10.547 4.492q-12.207-4.492-23.828-4.492-13.77-.195-26.367 9.668-8.203 6.934-12.403 17.188-4.59 10.156-4.59 19.433 0 12.792 3.81 20.8 3.32 8.105 8.788 12.988 5.567 4.395 11.817 6.153 6.152 2.05 11.328 2.05 11.035-.194 18.066-3.417 6.738-3.027 10.547-6.25h.39v31.64q0 15.43-.39 19.142-.195 4.2-4.785 4.2h-8.203q-2.442 0-2.15 1.464v4.003q0 1.757 1.564 1.757 2.147-.39 20.995-.585 7.812 0 12.988.195 5.176.39 6.445.39 1.368 0 1.368-1.562v-4.395q0-1.27-2.05-1.27h-6.153q-4.004-.194-4.2-5.76-.976-12.208-.976-34.766zm-14.453 23.536q-2.735 3.418-8.4 6.055-5.37 3.028-12.792 3.028-9.57 0-17.578-8.398-3.613-4.004-6.836-11.23-1.562-4.005-2.54-8.985-1.268-5.176-1.268-12.012 0-9.96 6.64-20.996 3.418-5.176 8.4-8.594 4.784-3.418 11.424-3.418 6.543 0 13.965 3.81 3.417 1.952 6.054 5.565 2.344 3.614 2.93 8.985zM954.227 164.63q.195-26.66 1.17-26.66.197-1.76-1.756-1.954-.78.195-2.44.195-1.368.392-3.42.392h-18.553q-2.637-.196-2.442 1.757v3.417q-.195 1.465 4.395 1.465 3.808 0 6.25 1.367 2.148 1.367 2.44 5.566v47.656q0 1.172-.683 2.734-.585 1.66-1.367 2.637-3.027 3.81-7.812 6.64-4.98 3.32-9.375 3.32-4.004.196-8.008-1.17-4.2-1.173-8.008-6.348-2.344-3.614-3.222-7.618-.782-4.004-1.172-8.007-.196-8.204 0-14.454v-14.16q0-19.043.78-23.047.196-2.15-2.148-2.344-1.074.195-2.246.195-.977.392-2.735.392h-17.87q-2.345 0-2.15 1.562v3.613q-.195 1.27 4.395 1.465 3.613.196 5.566 1.758 2.05 1.563 2.05 5.762v23.242q-.194 15.82.978 23.633.976 8.008 6.738 15.527 5.273 6.055 10.06 7.617 4.588 1.66 8.788 1.66 7.812-.194 15.43-4.198 7.324-4.004 11.718-9.863h.488L941.63 220q.39 2.44 1.757 2.44 2.44-.194 4.004-.878l20.997-6.933q1.27-.196 1.074-1.857l-.683-2.54q-.195-1.463-2.343-.878-4.2.88-6.64.684-1.76.194-2.93-1.27-1.66-1.368-2.247-5.762-.39-7.813-.39-23.633zM986.41 191.19q0 8.986-.195 18.165 0 4.2-3.223 4.004h-9.765q-2.05 0-2.05 1.66v4.003q0 1.563 1.66 1.563 3.808-.39 21.58-.586 6.544 0 12.208.195 5.566.39 6.934.39 1.854 0 1.854-1.952v-3.418q0-1.856-2.05-1.856h-9.18q-3.028.195-3.223-5.176-.194-4.395-.194-17.188V169.22q0-12.794.195-21.388 0-8.594.196-11.23.488-2.15-.976-2.442-1.563 0-3.81 1.27-11.62 6.152-21.58 9.765-1.368.586-1.368 1.368v1.855q-.195 1.172 1.758 1.367 7.226.977 9.375 4.004 2.05 3.026 1.855 8.007zm1.953-87.987q6.055 0 9.082-3.808 2.54-3.223 2.54-7.227 0-3.516-2.344-6.738-2.636-2.832-8.007-3.028-6.055 0-9.082 3.223-3.124 3.223-3.124 7.227.195 4.785 4.004 7.52 3.613 2.83 6.933 2.83zM1059.12 140.605q3.614-.195 7.032 1.172 3.125 1.66 6.348 7.618 4.394 8.007 11.035 8.007 6.738 0 7.422-7.03 0-3.81-5.86-9.767-3.027-2.832-8.202-4.59-5.372-1.855-13.184-1.855-20.02.488-31.15 14.65-11.622 13.963-11.622 32.42-.196 6.543 1.757 13.184 2.05 6.543 7.227 13.965 7.03 8.397 15.234 11.23 7.91 2.83 15.723 2.83 10.448-.194 19.237-4.88 8.594-4.2 12.99-9.376 1.366-1.563 0-2.54l-1.955-2.05q-1.074-.782-1.66 0-4.785 4.59-9.765 6.64-4.786 1.953-12.207 1.953-5.176.196-10.84-1.953-5.762-2.05-10.938-8.203-4.004-6.053-7.03-14.257-3.224-8.007-3.224-16.21.196-15.528 7.813-23.34 7.032-7.618 15.82-7.618zM1110.934 171.367q0 25.196-.49 37.207 0 4.59-3.514 4.785h-7.422q-2.05 0-2.05 1.855v3.418q0 1.758 1.073 1.953 2.54-.39 19.142-.586 7.617 0 12.402.195 4.59.39 5.37.39 1.662 0 1.662-2.148v-3.417q0-1.66-1.856-1.66h-5.762q-4.004 0-4.004-4.2-.195-10.35-.195-20.8v-8.79q4.59 0 8.593 2.246 3.808 3.418 14.355 14.746 5.078 5.08 8.692 9.083 3.32 4.2 3.515 4.98.684 3.223-2.148 3.223h-1.367q-2.246 0-2.05 1.562v3.223q0 1.953 1.366 1.953 3.223-.39 21.875-.586 7.13 0 11.33.195 4.003.39 5.273.39 1.757 0 1.757-1.757v-3.613q0-1.856-1.562-1.856-4.2 0-10.45-2.735-1.366-.78-7.03-6.445-5.762-5.37-13.184-12.403-16.016-15.332-20.8-20.41 6.054-5.762 14.843-13.77 4.394-3.808 7.422-6.64 3.124-2.54 4.198-3.125 3.125-2.246 6.934-3.418 3.808-1.172 6.835-1.172h1.368q1.66 0 1.66-1.66v-3.613q0-1.954-1.27-1.954-1.758.39-16.113.586-7.617 0-12.598-.39-5.078-.196-6.054-.196-1.368 0-1.368 1.562v3.81q-.195 1.854 1.563 1.854 2.44-.195 5.176 1.172 1.856 1.172 0 4.59-1.952 2.637-9.57 10.84-3.418 3.515-6.64 6.738-3.32 3.418-4.98 4.59-1.563 1.074-4.395 1.66-2.734.586-5.176.586v-31.64q-.196-42.383.976-62.99.39-3.417-1.172-3.417-1.758.196-4.395 1.66l-20.41 8.79q-2.833.977-2.638 1.953v1.856q-.195.585 2.832 1.366 7.227 1.66 8.985 4.785 1.66 3.224 1.464 9.474zM438.035 406.016v21.19q0 10.157-.39 12.794-.39 1.367.878 1.563l2.344.683q1.563.195 2.637-.683l8.008-4.395q3.613 2.05 9.57 3.613 5.566 1.66 13.965 1.66 17.676-.487 29.394-14.06 12.013-13.38 12.208-31.35-.39-21.58-11.62-32.42-11.133-10.45-25-10.45-7.325 0-14.747 2.442-7.81 2.832-12.792 7.617v-23.243q0-14.356.196-27.344V298.79q.39-3.42-1.563-3.42-2.05.196-4.198 1.857-10.06 5.957-21.29 10.937-1.562.88-1.562 1.66v1.563q-.195.78 2.637 1.66l1.953.586q5.37 1.367 7.617 4.98 1.758 3.81 1.758 13.575zm14.453-35.06q7.227-6.933 18.946-7.128 14.843.39 22.46 11.62 7.422 10.94 7.422 26.173 0 9.57-2.44 16.212-2.442 6.543-6.446 10.547-3.907 3.808-8.594 5.663-4.785 1.953-9.375 1.953-6.347 0-11.815-3.418-5.567-2.734-7.13-6.543-1.66-4.59-2.245-10.84-.782-6.152-.782-18.164zM537.895 405.625q0 14.746-.196 24.023 0 3.71-4.395 3.71h-7.813q-2.44 0-2.246 1.857v3.418q0 1.953 1.172 1.953 2.637-.39 22.07-.586 8.4 0 14.16.195 6.055.39 7.032.39.976 0 .976-1.757v-3.613q0-1.856-1.367-1.856h-9.474q-2.93 0-4.2-1.954-1.366-1.758-1.366-6.25v-41.992q0-1.953 2.05-6.348 2.735-4.785 6.153-6.836 3.223-1.562 5.567-1.562 4.003 0 6.64 1.562 2.442 1.66 5.762 1.66 3.027 0 5.664-2.83 2.54-2.833 2.734-7.033 0-3.808-2.343-6.152-2.637-2.637-7.813-2.637-6.445.196-12.793 5.176-6.444 5.078-11.23 12.207h-.78l-.977-13.768q0-2.15-1.465-2.442-.977 0-2.734.88l-19.825 10.155q-1.563.782-1.563 1.856v1.173q0 .976 1.562 1.367l3.808 2.05q4.2 1.758 5.762 4.786 1.465 3.027 1.465 10.35zM628.086 442.44q18.945-.487 31.348-14.06 12.597-12.99 12.793-29.982 0-19.238-13.575-32.617-4.59-4.784-12.01-8.202-7.423-3.125-16.017-3.418-4.785 0-11.816 1.856-6.935 1.953-14.943 7.812-8.594 6.934-12.793 15.625-4.394 8.594-4.394 16.504 0 10.254 2.148 17.48 2.246 7.13 8.79 15.137 6.64 7.422 14.843 10.645 8.204 3.22 15.626 3.22zm2.344-6.053q-6.74 0-11.62-2.832-4.59-2.735-8.205-7.52-4.59-6.836-5.957-13.476-.78-3.322-1.17-6.935-.392-3.613-.392-7.617 0-11.23 2.54-18.555 2.44-7.03 8.007-12.89 3.613-3.71 7.617-5.176 4.004-1.172 7.813-1.172 8.398.195 17.187 9.57 4.004 4.785 6.64 11.426 2.54 6.642 2.54 15.235-.196 16.31-6.543 27.735-3.223 5.468-7.813 8.79-4.785 3.417-10.644 3.417zM753.922 369.59q-.586-2.344.39-4.004.977-1.172 2.442-1.172h4.2q1.366 0 1.366-1.562v-4.2q0-1.465-1.855-1.465-1.758.39-15.137.586-7.422 0-12.012-.39-4.785-.195-6.054-.195-1.758 0-1.758 1.66v4.2q0 1.366 1.367 1.366h3.028q4.004 0 5.372 1.953.878 1.27 1.464 2.637.196 1.367.39 3.808l-20.41 48.83h-.78l-15.82-53.03q-1.368-5.37 2.44-5.37h1.76q1.56 0 1.56-1.66v-4.004q0-1.562-1.562-1.562-3.808.39-16.796.586-8.203 0-12.207-.39-4.005-.196-5.958-.196-1.27 0-1.27 1.562v3.81q0 1.854 1.465 1.854h4.394q6.74 0 8.4 5.37l26.172 70.41q1.172 3.81 3.418 4.005 2.54 0 4.2-3.222l24.608-57.617h.977l19.63 57.03q1.366 3.614 3.514 3.81 2.636.195 3.808-2.637 3.613-8.593 15.43-37.988 2.832-6.836 5.37-12.793 2.442-6.25 4.395-11.036 4.2-10.35 5.274-12.012.976-1.562 2.734-2.343 1.857-.978 3.614-.978h4.98q1.466 0 1.466-1.66v-4.2q0-1.366-1.465-1.366-2.54.39-14.55.586-6.25 0-10.255-.39-4.2-.196-5.176-.196-1.367 0-1.367 1.367v4.2q-.195 1.66 1.172 1.66h2.83q6.35.194 3.028 10.937l-16.21 44.043h-.88z"/><path d="M891.574 377.598q0-4.2-3.125-9.96-3.223-5.86-7.813-8.986-7.617-4.492-16.992-4.492-7.813.293-15.235 4.492-7.422 4.395-12.207 10.157h-.39l-1.368-12.208q-.195-2.442-1.66-2.442-1.172 0-3.515 1.465l-17.286 9.57q-1.757.586-1.757 2.05v.978q-.196.78 1.562 1.757l1.66.782q4.003 1.855 5.956 4.394 2.246 3.028 2.246 7.422v46.777q0 2.442-.88 3.223-1.17.78-3.124.78h-5.86q-2.147 0-1.952 1.857v3.613q0 1.758 1.367 1.758 2.246-.39 17.774-.586 8.007 0 12.402.195 4.198.39 5.077.39 1.367 0 1.367-1.757v-3.418q0-2.05-2.05-2.05h-4.98q-2.93 0-3.81-1.368-.976-1.367-.976-5.176V385.41q0-3.223.976-6.836.88-3.418 3.614-6.738 4.785-4.785 9.375-6.445 4.492-1.367 6.836-1.367 3.807 0 7.42.39 3.614.587 7.227 3.224 4.2 2.93 5.176 7.324.586 4.688.586 10.645v26.368q0 8.398-.392 16.797 0 2.636-.976 3.418-1.27 1.17-3.028 1.17h-5.76q-2.834 0-2.638 1.857v3.223q0 2.148 1.562 2.148 2.442-.39 18.067-.586 8.593 0 13.38.195 4.784.39 5.565.39 1.66 0 1.66-2.147v-3.223q0-1.856-2.246-1.856h-6.445q-4.396.195-4.396-4.2zM968.44 388.828v37.598q0 3.418-.78 5.176-.976 1.757-4.004 1.757h-9.57q-2.246 0-2.05 1.464v4.395q0 1.366 1.66 1.366 4.394-.39 22.753-.586 22.558.195 24.023.586 1.367 0 1.367-2.344v-3.222q0-1.66-2.15-1.66h-11.424q-3.028 0-3.81-1.563-1.17-1.172-1.366-3.613-.195-5.957-.195-44.14V366.17h21.972q2.344 0 2.54-.977l1.074-6.543q.586-1.855-1.464-2.05h-24.12v-4.004q-.197-11.036.78-22.364.976-11.23 6.152-18.457 3.418-4.2 7.422-5.76 3.613-1.173 7.617-1.173 5.567 0 9.18 4.59 1.562 2.148 4.785 4.59 2.637 1.17 5.664 1.17 2.54 0 5.566-2.538 2.54-2.44 2.833-6.054-.293-5.567-5.47-8.594-5.37-2.637-12.792-2.637-16.797-.39-32.813 15.82-5.76 6.447-9.57 16.603-3.81 10.06-3.81 25v3.81h-11.62q-2.148 0-2.343 1.366l-.782 6.053q-.683 2.344.977 2.15h13.77z"/><path d="M1051.602 442.44q18.945-.487 31.347-14.06 12.597-12.99 12.792-29.982 0-19.238-13.574-32.617-4.59-4.784-12.012-8.202-7.422-3.125-16.015-3.418-4.785 0-11.816 1.856-6.933 1.953-14.94 7.812-8.595 6.934-12.794 15.625-4.395 8.594-4.395 16.504 0 10.254 2.15 17.48 2.245 7.13 8.788 15.137 6.64 7.422 14.844 10.645 8.203 3.22 15.625 3.22zm2.343-6.053q-6.738 0-11.62-2.832-4.59-2.735-8.204-7.52-4.59-6.836-5.956-13.476-.78-3.322-1.172-6.935-.39-3.613-.39-7.617 0-11.23 2.54-18.555 2.44-7.03 8.006-12.89 3.614-3.71 7.618-5.176 4.003-1.172 7.812-1.172 8.4.195 17.188 9.57 4.003 4.785 6.64 11.426 2.54 6.642 2.54 15.235-.196 16.31-6.544 27.735-3.222 5.468-7.812 8.79-4.785 3.417-10.645 3.417z"/><path d="M1125.19 435.02q0-1.465-.975-1.66h-4.2q-1.757 0-2.148-1.563-.683-1.172 0-2.832 1.758-3.32 8.106-12.402 6.445-8.79 9.277-12.598l14.355 23.047q1.563 2.343 1.172 4.394-.586 1.953-2.343 1.953h-3.028q-1.758 0-1.562 2.05v3.418q-.196 1.563 1.562 1.758 3.028-.39 19.63-.586 13.77.195 15.33.586 1.466-.195 1.466-1.563v-4.003q0-1.66-.977-1.66h-3.222q-5.176 0-8.79-4.2-12.988-16.406-24.804-34.57 4.198-4.98 12.792-15.625 8.594-10.352 11.816-13.38 2.54-2.343 7.813-2.343h3.126q1.66 0 1.66-1.66v-3.613q.195-1.954-1.855-1.954-.78.39-11.328.586-8.203 0-11.816-.39-3.81-.196-5.47-.196-.975 0-.975 1.562v4.2q-.194 1.464 1.173 1.464h2.44q2.638.195 3.224 2.15.586 2.245-.977 4.198l-15.234 20.02-12.403-19.63q-1.757-2.734-1.562-4.785 0-1.953 2.345-1.953h1.855q1.172 0 1.172-1.66v-3.81q0-1.756-1.172-1.756-3.613.39-18.652.586-6.836 0-11.035-.39-4.2-.196-5.37-.196-1.564 0-1.564 1.757v4.004q0 1.465 1.366 1.465h5.567q4.687 0 7.226 2.735 9.667 11.425 23.632 33.007-3.223 4.004-12.598 16.016-4.394 5.37-7.812 9.766-3.81 4.59-5.37 6.25-2.052 2.343-8.204 2.343h-5.274q-1.562.195-1.562 1.855v3.613q0 1.563 1.855 1.758 1.758-.39 15.332-.586 6.64 0 10.448.195 4.004.39 5.176.39 1.367-.194 1.367-1.562zM411.934 645.45q0 23.34-1.075 42.773-1.758 17.773-9.962 17.578-1.562 0-4.59-3.027-2.636-2.93-5.175-4.785-3.028-1.367-6.25-1.367-6.934.782-7.227 8.4.293 4.2 3.614 6.738 3.417 2.44 8.007 2.637 12.012 0 21.387-8.4 9.277-8.202 12.793-25.194 1.855-8.984 2.246-21.972.586-12.988.586-22.265v-25q0-13.965.39-23.145 0-9.375.39-10.84.39-3.125-1.172-3.418-1.562 0-3.808 1.465-11.23 7.422-21.582 10.742-1.563.684-1.563 1.465v1.758q-.293.78 1.172 1.367l1.953.88q6.25 1.757 8.008 4.59 1.856 3.026 1.856 9.374zm3.32-102.247q5.86 0 9.277-3.808 3.322-3.418 3.322-7.813-.196-6.543-3.71-9.57-3.81-2.832-7.423-2.832-6.447.195-9.865 4.2-3.515 4.003-3.515 7.616.195 6.25 4.2 9.18 4.003 3.027 7.714 3.027zM519.117 604.63q.196-26.66 1.172-26.66.194-1.76-1.76-1.954-.78.195-2.44.195-1.367.392-3.418.392h-18.555q-2.637-.196-2.44 1.757v3.417q-.197 1.465 4.393 1.465 3.81 0 6.25 1.367 2.15 1.367 2.442 5.566v47.656q0 1.172-.684 2.734-.586 1.66-1.367 2.637-3.026 3.81-7.812 6.64-4.98 3.32-9.375 3.32-4.003.196-8.007-1.17-4.2-1.173-8.008-6.348-2.344-3.614-3.223-7.618-.78-4.004-1.172-8.007-.195-8.204 0-14.454v-14.16q0-19.043.782-23.047.195-2.15-2.15-2.344-1.073.195-2.245.195-.977.392-2.734.392h-17.87q-2.345 0-2.15 1.562v3.613q-.195 1.27 4.395 1.465 3.614.195 5.567 1.758 2.05 1.562 2.05 5.762v23.242q-.194 15.82.977 23.633.977 8.008 6.74 15.527 5.272 6.055 10.057 7.617 4.59 1.66 8.79 1.66 7.813-.194 15.43-4.198 7.324-4.004 11.72-9.863h.487L506.52 660q.39 2.44 1.757 2.44 2.442-.194 4.004-.878l20.997-6.933q1.27-.196 1.075-1.857l-.684-2.54q-.195-1.463-2.344-.878-4.2.88-6.64.684-1.758.194-2.93-1.27-1.66-1.368-2.246-5.762-.39-7.813-.39-23.633zM605.695 650.04q0 3.515-4.394 3.32h-5.86q-2.147 0-1.952 2.05v3.223q0 1.953 1.367 1.953 2.247-.39 18.848-.586 16.21.195 17.774.586 1.367 0 1.367-2.15v-3.22q0-1.857-2.15-1.857h-6.835q-4.2-.196-4.005-4.59V614.2q0-3.614.196-6.348 0-2.637.196-5.08.39-2.342 1.074-4.588.586-2.15 1.367-4.2 2.833-4.59 7.813-7.617 4.98-2.734 9.57-2.734 9.18 0 14.844 4.2 3.32 2.538 4.785 6.542.976 4.2.976 9.473v29.59q0 8.007-.39 16.21-.39 3.907-4.005 3.71h-4.98q-1.464 0-2.05.197-.586.488-.586 1.66v3.418q0 1.953 1.66 1.953 2.735-.39 18.555-.586 7.225 0 11.425.195 4.2.39 5.175.39 1.368 0 1.368-1.952v-3.418q0-1.856-2.15-1.856h-5.37q-4.004.195-4.2-4.005v-44.53q0-6.055-.683-10.06-.78-3.808-2.343-6.347-2.832-4.98-6.64-8.203-3.614-3.613-8.01-4.98-4.59-1.075-9.96-1.075-9.18.293-16.797 4.688-8.008 4.59-12.597 10.742h-.977q-6.64-14.942-22.655-15.43-8.79 0-16.602 4.492-8.008 4.395-12.793 10.743h-.586l-.78-11.622q0-2.54-1.856-2.734-1.172 0-3.71 1.17l-17.677 8.985q-.976.39-1.17 1.563v1.66q0 .78 1.366 1.562l4.2 2.247q1.855.78 3.027 1.953 1.172 1.27 1.562 2.44 1.075 2.833 1.075 5.763v35.644q0 5.176-.196 10.352 0 2.636-.683 3.808-.78 1.17-2.343 1.17h-6.836q-2.538-.194-2.343 1.857v3.613q0 1.758 1.563 1.758 2.636-.39 18.652-.586 8.398 0 12.793.195 4.2.39 5.37.39 1.564 0 1.564-2.147v-3.223q.194-1.856-1.955-1.856h-7.226q-4.005 0-4.005-5.176v-39.55q-.195-8.01 2.832-13.478 4.395-6.738 9.766-9.375 5.37-2.147 9.375-2.147 3.418 0 7.226.78 3.81.978 5.567 2.833 2.637 1.758 4.493 6.152 1.562 4.59 1.562 15.43zM703.992 668.008q0 28.808-.586 34.765-.195 2.247-.78 3.418-.782 1.564-3.42 1.564h-7.81q-2.54 0-2.345 1.855v3.613q-.195 1.757 1.76 1.757 2.635-.39 20.213-.585 19.24.195 20.606.585 1.757 0 1.757-1.757v-3.418q.195-2.05-1.758-2.05h-8.79q-2.05 0-3.223-1.368-1.172-1.172-1.172-5.176v-42.187q4.98 1.758 10.352 2.54 5.664.878 9.57.878 19.238-.487 31.25-14.06 11.817-13.185 12.012-33.204 0-11.524-2.443-18.75-2.54-7.03-8.398-12.403-4.2-4.2-9.57-7.03-5.568-2.833-13.185-2.833-10.058.293-17.383 4.004-7.617 3.81-11.816 9.473h-.586l-.88-9.668q0-4.005-1.366-4.005-2.15.195-4.59 1.66l-19.238 9.57q-1.367.586-1.367 1.367v1.66q-.197.782 1.366 1.758l4.687 2.637q4.395 2.15 5.957 4.59 1.172 2.637 1.172 6.152zm14.453-71.778q8.008-12.597 21.387-12.793 10.547 0 18.164 8.985 7.617 9.375 7.813 30.176-.197 18.164-7.228 25.78-3.125 3.81-7.13 5.665-4.198 1.953-8.886 1.953-11.914.195-19.92-5.37-2.638-2.247-3.42-4.786-.78-2.442-.78-5.86zM816.156 662.44q13.184-.194 21.582-7.225 8.4-7.03 8.79-19.238-.196-11.33-6.348-17.188-6.446-5.567-17.676-8.4-7.324-1.757-13.184-5.175-5.76-3.028-5.957-11.426 0-6.544 4.98-9.962 4.395-3.223 10.45-3.223 5.957.196 9.18 2.442 3.222 2.148 4.785 5.37l6.836 9.18q.78 1.368 1.758.977l2.44-.78q1.368-.587 1.368-1.76l-3.027-14.06q.39-1.564-3.613-3.615-2.54-1.563-6.74-2.735-4.393-1.465-11.62-1.465-11.426.293-19.433 6.836-8.4 6.836-8.594 17.578.195 11.426 7.617 17.188 7.03 5.86 16.016 8.203 11.23 3.027 15.43 7.226 3.906 4.396 3.906 11.232-.196 6.738-5.176 10.156-4.785 3.418-10.547 3.418-7.618 0-11.036-3.613-3.614-3.418-6.348-8.79l-5.078-9.765q-.586-1.66-1.758-1.27l-2.637.684q-1.367.195-1.17 1.563l3.417 19.043q0 1.562 1.17 2.734 2.052 1.465 7.423 3.418 5.567 2.246 12.793 2.44zM941.266 662.44q18.945-.487 31.347-14.06 12.598-12.99 12.793-29.982 0-19.238-13.574-32.617-4.59-4.784-12.012-8.202-7.422-3.125-16.015-3.418-4.785 0-11.817 1.856-6.933 1.953-14.94 7.812-8.595 6.934-12.794 15.625-4.395 8.594-4.395 16.504 0 10.254 2.148 17.48 2.246 7.13 8.79 15.137 6.64 7.422 14.843 10.645 8.204 3.22 15.626 3.22zm2.343-6.053q-6.74 0-11.622-2.832-4.59-2.735-8.203-7.52-4.59-6.836-5.957-13.476-.78-3.322-1.172-6.935-.39-3.613-.39-7.617 0-11.23 2.54-18.555 2.44-7.03 8.007-12.89 3.613-3.71 7.617-5.176 4.004-1.172 7.812-1.172 8.4.195 17.188 9.57 4.004 4.785 6.64 11.426 2.54 6.642 2.54 15.235-.196 16.31-6.544 27.735-3.222 5.468-7.812 8.79-4.785 3.417-10.645 3.417zM1018.664 610.586q-1.172-3.613-3.613-11.816-.78-4.004-1.757-7.325-.977-3.222-.977-4.394.196-3.808 3.614-3.808h3.906q1.465 0 1.465-2.05v-3.614q0-1.562-2.05-1.562-2.54.39-17.97.586-15.233-.39-16.796-.586-2.246 0-2.246 1.562v3.613q0 2.052 1.27 2.052h4.004q2.54 0 4.59 1.367 1.757 1.562 3.613 5.956 5.762 15.04 10.156 27.637 8.01 20.8 15.626 40.625.977 1.758 1.758 2.735 1.074 1.27 2.44 1.464 2.833-.195 4.787-4.59 1.368-3.027 8.594-19.042 6.836-15.625 9.375-21.973 2.83-6.836 8.202-17.97 2.442-5.272 4.59-9.276 2.246-3.81 3.223-4.785 2.637-2.148 6.25-2.148h3.808q.977 0 .977-2.05v-3.42q.195-1.952-1.855-1.756-2.54.39-14.356.586-6.446 0-10.255-.39-3.71-.196-5.762-.196-1.17 0-1.17 1.562v3.613q0 2.052.78 2.052h4.004q5.566.196 3.613 8.594-2.246 7.324-8.984 24.61-7.032 17.577-10.254 25.195h-.586q-1.758-4.394-6.153-15.82l-5.86-15.234zM1138.348 606.777q2.44 0 4.004-.586 1.66-.585 1.66-2.538.195-7.226-6.055-17.87-3.223-4.98-8.79-8.4-5.956-3.222-14.55-3.222-3.613 0-7.226.293-4.003.39-7.617 1.563-7.226 2.148-13.77 8.79-7.616 8.006-10.253 16.796-2.54 8.593-2.344 15.04-.39 18.553 8.79 31.542 5.76 7.812 14.355 11.035 8.4 3.22 16.993 3.22 6.836-.194 12.207-2.44 5.47-2.246 9.277-5.566 3.907-3.418 6.543-7.227 2.637-3.613 3.81-6.64 1.17-2.93 0-2.93l-2.638-1.465q-.976-.195-1.758 1.074-2.44 4.98-8.593 9.18-6.25 4.394-15.624 4.394-12.207-.195-20.02-10.058-8.203-9.375-8.398-24.317 0-7.03.683-9.668zm-48.535-5.957q2.93-11.035 8.79-16.015 5.565-4.59 12.206-4.59 4.98 0 8.202 1.953 2.93 1.855 4.394 5.078 2.735 6.543 2.735 10.742 0 2.832-5.37 2.832zM1164.574 625.625q0 14.746-.195 24.023 0 3.71-4.396 3.71h-7.812q-2.442 0-2.246 1.857v3.418q0 1.953 1.172 1.953 2.636-.39 22.07-.586 8.398 0 14.16.195 6.055.39 7.03.39.978 0 .978-1.757v-3.613q0-1.856-1.367-1.856h-9.474q-2.93 0-4.2-1.954-1.366-1.758-1.366-6.25v-41.992q0-1.953 2.05-6.348 2.735-4.785 6.153-6.836 3.223-1.562 5.566-1.562 4.003 0 6.64 1.562 2.44 1.66 5.762 1.66 3.027 0 5.664-2.83 2.54-2.833 2.734-7.033 0-3.808-2.344-6.152-2.636-2.637-7.812-2.637-6.446.196-12.793 5.176-6.444 5.078-11.23 12.207h-.78l-.977-13.768q0-2.15-1.465-2.442-.977 0-2.735.88l-19.824 10.155q-1.563.782-1.563 1.856v1.173q0 .976 1.562 1.367l3.808 2.05q4.2 1.758 5.76 4.786 1.466 3.027 1.466 10.35zM358.07 834.98q0-13.964.586-27.93h25.78q1.662 0 1.857-1.66l1.953-7.03q.586-1.563-1.367-1.758h-27.833l1.074-19.825q0-2.734-2.05-2.93-1.757 0-2.832 1.954-2.343 5.763-10.35 13.966-8.01 8.398-12.404 11.23-1.757.78-2.636 1.563-.977.878-.977 2.05 0 2.44 3.028 2.44h12.207q-.39 16.114-.39 25.39v4.396q-.39 10.156-.684 28.613 0 5.956 6.25 11.132 2.833 2.44 6.154 4.004 3.418 1.855 7.03 1.855 9.18-.194 15.04-3.417 2.93-1.464 4.785-2.636 1.757-1.367 2.343-1.953 1.27-1.075.488-2.246l-1.073-1.758q-.78-1.27-2.344-.39-2.246 1.17-5.86 1.757-3.613.78-7.323.78-3.028.196-6.446-3.417-3.808-3.32-4.004-14.16z"/><path d="M401.582 831.367v22.852q0 12.206-.586 16.014-.488 1.758-2.246 2.344-1.758.78-4.395.78h-4.2q-3.22 0-3.026 1.662v3.613q0 1.953 1.464 1.953 3.515-.39 19.336-.586 7.226 0 12.402.195 5.176.39 6.64.39 1.563 0 1.563-2.148v-3.417q0-1.66-2.148-1.66h-6.055q-2.54 0-3.418-1.758-.977-1.758-.977-6.446v-43.554q0-2.832 1.368-5.567 1.465-2.637 2.636-4.2 4.2-4.784 9.376-6.835 5.08-1.563 9.278-1.563 7.324 0 13.183 5.567 4.395 4.004 5.567 9.96.976 6.25.976 14.65V869.647q-.195 2.344-2.343 2.93-2.442.78-5.274.78h-4.59q-1.562 0-1.367 1.662v3.417q-.195 2.15 1.758 2.15 3.418-.392 18.848-.587 8.593 0 13.378.195 4.786.39 5.86.39 1.562 0 1.562-2.343v-3.027q0-1.856-2.246-1.856h-3.32q-3.027 0-5.274-.782-2.148-.586-2.148-2.148-.39-8.203-.39-27.442v-11.426q.195-8.203-.782-15.722-1.27-7.227-7.812-13.672-7.813-8.008-19.825-8.008-6.835 0-14.16 3.223-7.617 3.418-13.28 9.863h-.978v-12.793q0-9.863.39-29.687 0-9.375.196-16.114v-8.203q.39-5.08-1.562-5.08-2.245.196-4.59 1.66l-20.8 10.94q-2.636 1.268-2.44 2.05v1.757q-.196.88 1.464 1.27l3.32 1.172q5.47 1.366 7.617 4.59 2.052 3.22 2.052 12.206zM556.13 826.777q2.44 0 4.003-.586 1.66-.585 1.66-2.538.195-7.226-6.055-17.87-3.222-4.98-8.79-8.4-5.956-3.222-14.55-3.222-3.613 0-7.226.293-4.004.39-7.617 1.563-7.227 2.148-13.77 8.79-7.617 8.006-10.254 16.796-2.538 8.593-2.342 15.04-.39 18.553 8.79 31.542 5.76 7.812 14.354 11.035 8.398 3.22 16.992 3.22 6.836-.194 12.207-2.44 5.47-2.246 9.28-5.566 3.905-3.418 6.542-7.227 2.636-3.613 3.808-6.64 1.172-2.93 0-2.93l-2.637-1.465q-.976-.195-1.757 1.074-2.442 4.98-8.594 9.18-6.25 4.394-15.625 4.394-12.207-.195-20.02-10.058-8.203-9.375-8.398-24.317 0-7.03.682-9.668zm-48.536-5.957q2.93-11.035 8.79-16.015 5.565-4.59 12.206-4.59 4.98 0 8.203 1.953 2.93 1.855 4.394 5.078 2.735 6.543 2.735 10.742 0 2.832-5.37 2.832zM641.297 802.56q0-31.74.78-63.576.392-3.613-1.56-3.613-1.662 0-4.2 1.66-12.012 6.935-23.438 11.622-1.76.586-1.76 1.368v1.562q-.194.39 1.173 1.074l4.004 1.367q4.785 1.368 7.422 4.004 2.342 3.028 2.538 8.008.683 12.012.683 37.598v12.597q0 30.176-.194 52.15-.684 5.175-4.492 4.98h-9.57q-1.368 0-1.954.195-.585.488-.585 1.66v3.418q0 1.758 1.367 1.953 3.027-.39 22.558-.586 9.473 0 15.625.195 5.957.39 7.032.39 1.17-.194 1.17-1.952v-3.418q0-1.856-2.245-1.856h-8.984q-2.734 0-4.004-1.954-.977-1.562-1.172-4.2-.195-20.214-.195-46.776zM720.063 844.355V813.79q0-4.2-.39-7.813-.782-3.418-4.005-6.348-1.953-2.247-5.37-3.81-3.42-1.66-10.646-1.66-12.597 0-24.414 7.03-5.957 3.615-9.765 8.595-4.004 5.176-4.004 10.254 0 6.542 4.784 6.347 6.25 0 8.398-3.223 2.246-2.93 2.246-8.203-.195-2.733-.39-5.175-.39-2.148 1.367-4.004 2.44-1.952 6.152-3.22 3.81-.978 6.836-.978 8.79.195 12.012 4.395.977 1.074 1.563 2.246.39 1.367.585 3.027.49 1.367.684 2.93V830q-2.637 2.246-9.082 5.176-6.348 3.418-13.574 6.445-11.425 5.177-15.82 11.134-4.394 6.055-4.2 13.086.197 9.18 4.2 12.988 4.004 3.613 7.813 3.613 6.445 0 11.816-1.268 13.574-4.59 19.824-12.207h.39q1.563 6.25 5.176 9.668 3.613 3.613 8.984 3.808 7.813-.194 11.23-4.003 1.76-1.66 3.028-3.222.78-1.66 1.367-2.637 1.367-2.734.195-3.613l-1.953-1.563q-1.075-.78-2.05.782-1.76 2.832-6.935 3.027-2.637 0-4.2-3.417-1.854-3.223-1.854-11.62zm-14.55-8.398v24.61q-.197 4.2-5.86 8.007-5.567 4.395-10.548 4.395-10.058 0-10.45-10.94 0-6.25 3.42-10.643 3.222-4.2 7.42-6.74 4.59-2.83 8.985-4.88 4.2-1.955 7.032-3.81z"/><path d="M770.215 880q4.004 0 17.578.39 12.402 0 18.066 2.05l15.33-27.245q.783-1.367-.39-1.953l-1.952-1.465q-1.465-.976-2.637.586-9.57 12.598-16.6 17.285-6.837 4.395-10.84 4.2h-28.32l52.93-74.414q1.464-2.637-1.76-2.832h-27.636q-18.945 0-26.17-.782-5.568-.586-9.572-1.855l-13.183 28.027q-.685 1.367.39 2.05l2.538 1.173q1.27.78 2.246-.78 11.62-14.845 17.188-18.85 5.566-3.222 14.16-3.026h21.19l-51.366 74.022Q739.063 880 742.578 880z"/><path d="M829.45 934.395q8.007-.196 11.523-4.59 3.418-4.2 5.468-8.4 5.958-12.01 21.193-47.362 10.742-24.414 19.336-43.457 8.397-19.14 12.01-23.828 3.418-3.516 7.032-3.516h3.222q.977 0 .977-1.855v-3.81q.196-1.366-1.17-1.56-3.614.39-12.208.585-7.03 0-10.644-.39-3.81-.196-5.762-.196-1.367 0-1.172 1.562v4.004q-.195 1.66 1.367 1.66h3.224q4.785 0 3.418 7.52-1.856 6.054-9.864 25.488-3.808 8.594-6.543 15.527-3.222 7.227-4.2 8.594h-.878q-2.343-5.76-8.593-26.56-2.735-9.376-4.98-16.798-2.345-7.617-2.833-9.375-.585-4.395 2.638-4.395h3.808q1.172 0 1.172-1.66v-4.2q.196-1.366-1.758-1.366-3.222.39-18.652.586-8.594 0-12.793-.39-4.2-.196-5.566-.196-1.564 0-1.564 1.367v4.004q0 1.855 1.563 1.855h5.175q3.808 0 5.86 2.15 1.952 2.245 3.515 6.25 2.636 6.542 12.207 35.35 4.394 12.988 7.812 23.438 3.417 10.156 3.808 12.793-2.54 6.738-7.813 18.554-2.344 5.664-4.59 9.57-2.148 4.493-3.613 6.055-1.953 1.563-4.2 1.172-1.17-.39-3.808-1.367-2.344-.78-5.37-.78-3.614 0-6.153 2.147-2.83 2.246-3.027 5.664 0 9.766 11.426 10.157zM1016.668 797.188q-8.984-2.735-21.387-3.028-17.382 0-29.784 12.598-13.965 14.844-13.965 34.082-.194 9.765 2.54 17.383 2.637 7.617 10.06 14.94 7.225 6.837 12.987 8.01 5.762 1.268 10.547 1.268 8.203-.194 16.21-3.22 8.204-2.833 13.185-7.618l2.635 8.79q.782 2.245 2.637 1.56l22.56-7.518q1.854-.586 1.366-2.246l-.39-1.563q-.196-1.465-4.005-1.465-2.148-.39-4.59-1.172-2.54-.586-4.2-2.148-1.17-1.856-1.366-7.227-.586-5.37-.586-11.035v-44.14q0-43.848.782-64.454.39-3.418-.976-3.613-2.05.196-4.59.685-8.008 1.367-22.07 4.2-1.563.194-1.563 1.366v3.42q-.195 1.17 1.367 1.366 8.203.977 10.645 3.614 2.148 2.636 1.953 8.203zm0 58.79q0 2.83-1.172 6.834-1.562 4.004-7.422 7.227-5.762 3.808-14.355 3.808-9.376-.293-17.775-11.23-9.277-10.645-9.472-27.833-.196-5.762 1.855-13.183 1.953-7.032 7.422-13.38 4.004-4.2 8.79-5.86 4.784-1.366 9.374-1.366 8.984 0 13.965 3.223 4.98 3.22 7.03 7.616 1.367 2.344 1.563 4.785.195 2.833.195 4.982zM1090.844 882.44q18.945-.487 31.347-14.06 12.6-12.99 12.794-29.982 0-19.238-13.574-32.617-4.59-4.784-12.012-8.202-7.42-3.125-16.015-3.418-4.785 0-11.817 1.856-6.933 1.953-14.94 7.812-8.595 6.934-12.794 15.625-4.394 8.594-4.394 16.504 0 10.254 2.148 17.48 2.246 7.13 8.79 15.137 6.64 7.422 14.843 10.645 8.202 3.22 15.624 3.22zm2.344-6.053q-6.74 0-11.622-2.832-4.59-2.735-8.203-7.52-4.59-6.836-5.957-13.476-.78-3.322-1.172-6.935-.39-3.613-.39-7.617 0-11.23 2.54-18.555 2.44-7.03 8.007-12.89 3.614-3.71 7.618-5.176 4.004-1.172 7.812-1.172 8.4.195 17.188 9.57 4.004 4.785 6.64 11.426 2.54 6.642 2.54 15.235-.196 16.31-6.544 27.735-3.222 5.468-7.812 8.79-4.785 3.417-10.645 3.417zM1179.57 934.395q13.086-.196 21.68-3.418 4.59-1.368 7.715-3.223 3.027-1.563 4.883-2.734 7.324-5.665 10.547-11.817 2.832-6.055 2.832-12.793.195-3.808-1.66-8.984-1.758-5.274-8.204-10.254-10.742-8.79-34.375-7.13-9.96.782-16.6-.194-6.74-1.075-6.74-6.64.196-4.2 4.004-7.228 3.32-2.734 6.543-4.003 4.004.976 10.254.976 5.37 0 12.402-2.93 6.542-2.832 10.742-7.03 7.422-9.57 7.422-21.583 0-4.98-.782-8.79-.976-3.612-2.246-6.444 2.05-.977 3.81-1.172h2.636q2.343.195 4.2 1.758 1.17 1.074 2.93 2.05 1.66.977 4.002.977 3.614 0 5.86-2.345 1.953-2.246 1.953-5.078.39-1.562-.196-3.125-.586-1.465-1.758-2.637-2.442-2.636-7.422-2.636-4.785.194-9.766 2.44-4.785 2.15-8.984 5.37-.684-.975-2.442-2.928-1.953-2.05-5.175-3.81-3.028-2.245-7.422-3.612-4.395-1.27-10.156-1.27-16.798.488-25.49 9.668-8.79 8.984-8.79 19.336.197 13.28 6.642 20.41 5.762 7.422 12.012 10.06v.39q-5.665 1.757-11.426 6.738-2.832 2.44-4.59 5.468-2.05 2.93-2.05 6.74 0 4.59 3.808 8.397 3.418 4.004 9.668 5.664v.783q-7.617 3.027-14.063 9.18-2.928 3.027-4.784 6.64-2.148 4.004-2.148 8.203-.196 9.766 10.156 16.113 7.422 3.808 15.43 5.077 8.007 1.368 15.136 1.368zm-1.172-83.008q-6.738 0-12.01-4.98-6.35-7.032-6.35-17.384-.194-5.86 1.173-12.207 1.368-6.25 5.958-11.425 3.613-3.613 7.227-4.59 3.613-.976 7.03-.976 5.177.196 9.57 4.395 2.833 2.83 4.2 7.03 1.172 4.395 1.172 10.938 0 4.59-.78 9.57-.782 5.078-2.93 9.668-2.05 4.2-5.47 6.933-3.613 3.027-8.79 3.027zm8.204 76.562q-19.63.292-28.028-5.567-2.93-2.15-5.176-6.153-2.54-3.808-2.54-7.617.197-8.203 5.763-13.183 5.177-4.785 10.157-6.055l19.24-1.367q15.038-.977 22.167 4.59 6.835 5.566 6.835 14.843.39 5.568-2.833 9.572-2.93 4.004-8.007 6.347-4.98 2.245-9.57 3.417-4.786 1.172-8.008 1.172zM1250.914 882.44q4.98-.194 8.008-3.22 3.223-2.833 3.223-7.814 0-5.76-3.223-8.984-3.418-3.027-8.008-3.027-7.227.195-9.766 4.2-2.832 4.003-2.636 7.03.195 6.738 4.59 9.375 4.2 2.44 7.812 2.44z"/></g></svg>