<svg xmlns="http://www.w3.org/2000/svg" viewBox="0 0 1600 1000" height="1000" width="1600"><path fill="#fff" d="M0 0h1600v1000H0z"/><g font-weight="100" font-size="200" font-family="Agenda" letter-spacing="-.03em" text-anchor="middle" fill="#222"><path d="M498.1 104v116h-13.4V104h-43.8V92.4h101.2V104zM614.006 220v-59.8q0-9.6-6.4-15.6-6.4-6.2-18.6-6.2-11.8 0-18.8 6.2-7 6-7 15.6V220h-12.6V77.6h12.6v62q3.4-4.8 10.2-8.4 7-3.8 18.6-3.8 7.4 0 13.6 2.2 6.4 2.2 11 6.2 4.8 4 7.4 10 2.6 5.8 2.6 13.2v61zM709.178 161.8q0-4-1.6-8-1.6-4.2-4.8-7.6-3-3.4-7.6-5.6-4.6-2.2-10.8-2.2-5.6 0-10.6 2.2t-9.2 5.8q-4 3.6-6.8 8.4-2.6 4.6-3.6 9.6h54.8q.2-.8.2-2.6zm12.6-.6v3.2q0 1.6-.4 3l-7.6 7.4h-60.6q-.4 6.8 2 13.4 2.4 6.4 7.2 11.4 4.8 5 11.6 8.2 6.8 3 15.2 3 8.2 0 15-2 6.8-2.2 13.4-7l-3.6 14q-5.2 3-11.6 4.6-6.2 1.6-14.6 1.6-9.8 0-18.6-3.4-8.6-3.6-15.2-9.8-6.4-6.2-10.2-14.8-3.8-8.8-3.8-19.2 0-11 3.8-19.8t10-14.8q6.2-6.2 14-9.4 8-3.4 16-3.4 9.4 0 16.4 3 7.2 2.8 12 7.6t7.2 11q2.4 6 2.4 12.2zM841.12 144.2q-3.6-2.4-9.2-4t-12-1.6q-7.2 0-13.6 2.6-6.4 2.6-11.2 7.4-4.8 4.6-7.6 11.2-2.6 6.6-2.6 14.4 0 8.4 2.8 15.2 3 6.6 7.8 11.4 5 4.8 11.4 7.4 6.6 2.6 13.8 2.6 6 0 11.2-1.6 5.2-1.8 9.2-4.6zm0 122v-49.4q-3.8 2.4-9 3.8t-11.4 1.4q-9.8 0-18.8-3.4-8.8-3.4-15.4-9.6-6.6-6.4-10.6-15.2-3.8-8.8-3.8-19.6t3.8-19.4q3.8-8.6 10.2-14.6 6.6-6.2 15.2-9.4 8.8-3.4 18.6-3.4 6.4 0 13.2 1.6 6.8 1.6 11.6 4.2l5.2-5h3.8v138zM937.462 220l-.4-11q-3.6 5.2-10.6 9.2-7 3.8-19 3.8-7.4 0-13.8-2.2-6.2-2.2-11-6.2-4.6-4-7.2-9.8-2.6-6-2.6-13.4v-61h12.6v59.8q0 9.6 6.4 15.8 6.4 6 18.6 6 11.8 0 18.8-6 7-6.2 7-15.8v-59.8h12.6V220zM971.272 220v-90.6h12.8V220zm15-117.8q0 1.2-1 2.8-.8 1.6-2.2 3.2-1.4 1.4-2.8 2.6-1.4 1-2.6 1-1.2 0-2.6-1-1.4-1.2-2.8-2.6-1.2-1.6-2.2-3.2-.8-1.6-.8-2.8 0-1.2.8-2.8 1-1.8 2.2-3.2 1.4-1.6 2.8-2.6 1.4-1.2 2.6-1.2 1.2 0 2.6 1.2 1.4 1 2.8 2.6 1.4 1.4 2.2 3.2 1 1.6 1 2.8zM1076.566 145.6q-5.2-3.4-11.8-5.2-6.4-1.8-13.4-1.8-7.6 0-14.4 2.6-6.6 2.6-11.6 7.4-4.8 4.8-7.6 11.6-2.8 6.6-2.8 14.6t2.8 14.6q3 6.6 7.8 11.4 5 4.8 11.6 7.4 6.8 2.6 14.6 2.6 7 0 13.2-1.4 6.4-1.6 13.4-5.2l-3.2 12.8q-4.6 2.6-11 3.8-6.4 1.2-13.4 1.2-9.6 0-18.4-3.2-8.8-3.4-15.6-9.6-6.6-6.2-10.6-14.8-4-8.8-4-19.6t3.8-19.6q4-8.8 10.6-14.8 6.8-6.2 15.6-9.6 8.8-3.4 18.6-3.4 8.8 0 16 2 7.2 2 12.4 5zM1148.972 220l-43-44v44h-12.6V77.6h12.6v95l42-43.2h15.2l-42.8 44.4 45 46.2zM503.336 394.4q0-8-3-14.6-2.8-6.6-7.8-11.2-4.8-4.8-11.4-7.4-6.4-2.6-13.4-2.6-6.4 0-11.8 1.8-5.4 1.6-8.8 4.4v61.8q3.4 1.6 8 3 4.6 1.2 11 1.2 8.4 0 15.2-2.6 7-2.8 11.8-7.6 5-4.8 7.6-11.4 2.6-6.8 2.6-14.8zm12.8 0q0 10.8-3.8 19.6-3.6 8.6-10.2 15-6.6 6.2-15.8 9.6-9.2 3.4-20.2 3.4-9.6 0-17.8-2.4-8-2.4-13.8-6v-136h12.6v55q3.4-2.4 8.6-3.8 5.4-1.4 12-1.4 9.8 0 18.6 3.4t15.4 9.6q6.6 6.2 10.4 15 4 8.6 4 19zM578.08 359h-2q-6.4 0-12.2 2.4-5.8 2.2-10.2 6.8-4.4 4.4-7 11.4-2.6 6.8-2.6 16V440h-12.6v-90.6h12l.6 17.4q2.8-8.4 11-13.4 8.4-5.2 20.4-5.2zM661.445 394.8q0-8-2.8-14.6-2.6-6.6-7.4-11.4-4.8-4.8-11.2-7.4-6.2-2.8-13.4-2.8-7.4 0-13.8 2.8-6.4 2.6-11.2 7.4-4.6 4.8-7.4 11.4-2.6 6.6-2.6 14.6t2.6 14.6q2.8 6.6 7.4 11.4 4.8 4.8 11.2 7.4 6.4 2.6 13.8 2.6 7.2 0 13.4-2.6 6.4-2.6 11.2-7.4 4.8-4.8 7.4-11.4 2.8-6.6 2.8-14.6zm12.8 0q0 10.4-3.6 19t-10 15q-6.4 6.2-15.2 9.8-8.6 3.4-18.8 3.4-10.2 0-19-3.4-8.6-3.6-15-9.8-6.4-6.4-10.2-15-3.6-8.6-3.6-19t3.6-19q3.8-8.8 10.2-15 6.4-6.4 15-9.8 8.8-3.6 19-3.6t18.8 3.6q8.8 3.4 15.2 9.8 6.4 6.2 10 15 3.6 8.6 3.6 19zM773.695 441.8h-4l-18.2-49.4-4.4-12.4q-2-6.2-4-12.8h-.4q-2.2 6.8-4.2 13-2 6-4.2 11.8l-18.2 49.8h-4.2l-33.8-92.4h12.2l16.4 45.2q2.2 5.8 4 11.6 1.8 5.8 3.4 11h.4q1.6-5.2 3.4-11.2 2-6 4-11.2l16.4-45.4h9.6l16.4 45.2q2 5.2 3.8 11 2 5.8 3.6 11.6h.4q1.8-5.8 3.6-11.4 2-5.6 4-11l16.2-45.4h11.6zM883.083 440v-59.8q0-9.6-6.4-15.6-6.4-6.2-18.6-6.2-11.8 0-18.8 6.2-7 6-7 15.6V440h-12.6v-90.6h11.4l.4 11q3.6-5.2 10.6-9 7-4 19-4 7.4 0 13.6 2.2 6.4 2.2 11 6.2 4.8 4 7.4 10 2.6 5.8 2.6 13.2v61zM1010.748 310.6q-2.8-1.4-6.6-2.2-3.8-.8-7.8-.8-10.8 0-16.8 8-5.8 8-5.8 20.2v13.6h28.6l-2.4 10.4h-26.2V440h-12.8v-80.2h-14.4v-10.4h14.4v-10.2q0-21 9.8-31.6 9.8-10.8 27.6-10.8 4.2 0 8 .8 4 .8 7 2.2zM1087.695 394.8q0-8-2.8-14.6-2.6-6.6-7.4-11.4-4.8-4.8-11.2-7.4-6.2-2.8-13.4-2.8-7.4 0-13.8 2.8-6.4 2.6-11.2 7.4-4.6 4.8-7.4 11.4-2.6 6.6-2.6 14.6t2.6 14.6q2.8 6.6 7.4 11.4 4.8 4.8 11.2 7.4 6.4 2.6 13.8 2.6 7.2 0 13.4-2.6 6.4-2.6 11.2-7.4 4.8-4.8 7.4-11.4 2.8-6.6 2.8-14.6zm12.8 0q0 10.4-3.6 19t-10 15q-6.4 6.2-15.2 9.8-8.6 3.4-18.8 3.4-10.2 0-19-3.4-8.6-3.6-15-9.8-6.4-6.4-10.2-15-3.6-8.6-3.6-19t3.6-19q3.8-8.8 10.2-15 6.4-6.4 15-9.8 8.8-3.6 19-3.6t18.8 3.6q8.8 3.4 15.2 9.8 6.4 6.2 10 15 3.6 8.6 3.6 19zM1163.745 440l-15.2-24q-3.8-6-7-12.2h-.4q-1.6 3-3.8 6.2-2 3.2-3.8 6l-15.2 24h-13.6l29.4-46.2-27.8-44.4h14.2l14.2 22.8q3.6 5.6 6.6 11.4h.4q3-5.2 6.8-11.4l14.2-22.8h13.8l-27.8 44 29.2 46.6zM419.752 670.4q0 7-2 13t-5.4 10.6q-3.2 4.6-7.6 7.6-4.4 3.2-9.4 4.4l-8.2-8q9.6-2.2 14.6-9.2 5.2-7 5.2-19.4v-100h12.8zm2-128.2q0 1.2-1 2.8-.8 1.6-2.2 3.2-1.2 1.4-2.6 2.6-1.4 1-2.6 1-1.2 0-2.6-1-1.4-1.2-2.8-2.6-1.2-1.6-2.2-3.2-.8-1.6-.8-2.8 0-1.2.8-2.8 1-1.8 2.2-3.2 1.4-1.6 2.8-2.6 1.4-1.2 2.6-1.2 1.2 0 2.6 1.2 1.4 1 2.6 2.6 1.4 1.4 2.2 3.2 1 1.6 1 2.8zM506.845 660l-.4-11q-3.6 5.2-10.6 9.2-7 3.8-19 3.8-7.4 0-13.8-2.2-6.2-2.2-11-6.2-4.6-4-7.2-9.8-2.6-6-2.6-13.4v-61h12.6v59.8q0 9.6 6.4 15.8 6.4 6 18.6 6 11.8 0 18.8-6 7-6.2 7-15.8v-59.8h12.6V660zM652.455 660v-63.6q0-8.6-6-13.2-5.8-4.8-16.4-4.8-10.4 0-16.8 4.8t-6.4 13.2V660h-12.6v-63.6q0-8.6-6-13.2-6-4.8-16.6-4.8-10.4 0-16.8 4.8t-6.4 13.2V660h-12.6v-90.6h11.4l.4 10q3.6-5 10-8.4 6.4-3.6 17.8-3.6 9 0 16.2 4 7.2 3.8 10.6 10.2 3.4-5.8 11-10 7.8-4.2 20.4-4.2 6.8 0 12.4 2 5.8 2 10 5.8 4.2 3.6 6.6 8.8 2.4 5 2.4 11.4V660zM756.39 614.6q0-8-2.8-14.6-2.6-6.6-7.4-11.4-4.6-4.8-11-7.4-6.2-2.6-13.6-2.6-7.8 0-14.2 2.6-6.4 2.6-10.8 7.2v52.8q4 4 10.6 6.8 6.8 2.8 14.4 2.8 7.4 0 13.6-2.6 6.4-2.8 11-7.6 4.8-4.8 7.4-11.4 2.8-6.6 2.8-14.6zm12.8 0q0 10.4-3.6 19.2-3.6 8.6-10 15-6.4 6.2-15.2 9.8-8.6 3.4-18.8 3.4-7.6 0-14.4-2.2-6.6-2.2-10.6-5.2v51.6h-12.6V569.4h11.2l.2 7.6q4.8-4.8 12-7.2 7.2-2.4 16.2-2.4 8.4 0 16.6 3.2 8.2 3.2 14.6 9.4 6.4 6 10.4 14.8 4 8.6 4 19.8zM835.477 636.4q0 11.4-8.4 18.6-8.2 7-22.6 7-8.4 0-15-2-6.4-2.2-10.4-5.4l-3.4-14.6q5.6 5.2 13 8.2 7.6 3 16 3 7.6 0 12.8-3.8 5.4-3.8 5.4-10.4 0-6.4-4.6-10.4-4.6-4.2-12.2-7-12.6-4.6-19.6-11-6.8-6.4-6.8-17.2 0-5.4 2-9.8 2.2-4.4 5.8-7.4 3.8-3.2 9-5 5.2-1.8 11.2-1.8 7.4 0 13.4 2 6.2 2 8.8 3.8l-2.4 10.4q-2.8-1.8-8-3.6-5.2-2-12-2t-11.2 3.6q-4.2 3.6-4.2 9.4 0 6 4 9.6 4.2 3.6 11.8 6.4 13 4.6 20.2 11.4 7.4 6.8 7.4 18zM969.352 614.8q0-8-2.8-14.6-2.6-6.6-7.4-11.4-4.8-4.8-11.2-7.4-6.2-2.8-13.4-2.8-7.4 0-13.8 2.8-6.4 2.6-11.2 7.4-4.6 4.8-7.4 11.4-2.6 6.6-2.6 14.6t2.6 14.6q2.8 6.6 7.4 11.4 4.8 4.8 11.2 7.4 6.4 2.6 13.8 2.6 7.2 0 13.4-2.6 6.4-2.6 11.2-7.4 4.8-4.8 7.4-11.4 2.8-6.6 2.8-14.6zm12.8 0q0 10.4-3.6 19t-10 15q-6.4 6.2-15.2 9.8-8.6 3.4-18.8 3.4-10.2 0-19-3.4-8.6-3.6-15-9.8-6.4-6.4-10.2-15-3.6-8.6-3.6-19t3.6-19q3.8-8.8 10.2-15 6.4-6.4 15-9.8 8.8-3.6 19-3.6t18.8 3.6q8.8 3.4 15.2 9.8 6.4 6.2 10 15 3.6 8.6 3.6 19zM1027.802 661.8h-4.6l-38.2-92.4h12.8l19.4 46.4q2.2 5.6 4.4 11.4 2.4 5.8 4.2 11.6h.4q2-5.8 4.2-11.4 2.2-5.8 4.6-11.6l19-46.4h12zM1138.092 601.8q0-4-1.6-8-1.6-4.2-4.8-7.6-3-3.4-7.6-5.6-4.6-2.2-10.8-2.2-5.6 0-10.6 2.2t-9.2 5.8q-4 3.6-6.8 8.4-2.6 4.6-3.6 9.6h54.8q.2-.8.2-2.6zm12.6-.6v3.2q0 1.6-.4 3l-7.6 7.4h-60.6q-.4 6.8 2 13.4 2.4 6.4 7.2 11.4 4.8 5 11.6 8.2 6.8 3 15.2 3 8.2 0 15-2 6.8-2.2 13.4-7l-3.6 14q-5.2 3-11.6 4.6-6.2 1.6-14.6 1.6-9.8 0-18.6-3.4-8.6-3.6-15.2-9.8-6.4-6.2-10.2-14.8-3.8-8.8-3.8-19.2 0-11 3.8-19.8t10-14.8q6.2-6.2 14-9.4 8-3.4 16-3.4 9.4 0 16.4 3 7.2 2.8 12 7.6t7.2 11q2.4 6 2.4 12.2zM1212.377 579h-2q-6.4 0-12.2 2.4-5.8 2.2-10.2 6.8-4.4 4.4-7 11.4-2.6 6.8-2.6 16V660h-12.6v-90.6h12l.6 17.4q2.8-8.4 11-13.4 8.4-5.2 20.4-5.2zM389.253 799.8h-29.8v57.6q0 6.6 3.8 9.8 4 3.2 9.6 3.2 6.6 0 10.4-1.8l-3 11.8q-3 1-8.4 1-10.6 0-17.8-6.2-7.2-6.2-7.2-18.2v-57.2h-18.8v-10.4h18.8v-19.6l12.6-6.6v26.2h32.4zM465.584 880v-59.8q0-9.6-6.4-15.6-6.4-6.2-18.6-6.2-11.8 0-18.8 6.2-7 6-7 15.6V880h-12.6V737.6h12.6v62q3.4-4.8 10.2-8.4 7-3.8 18.6-3.8 7.4 0 13.6 2.2 6.4 2.2 11 6.2 4.8 4 7.4 10 2.6 5.8 2.6 13.2v61zM560.756 821.8q0-4-1.6-8-1.6-4.2-4.8-7.6-3-3.4-7.6-5.6-4.6-2.2-10.8-2.2-5.6 0-10.6 2.2t-9.2 5.8q-4 3.6-6.8 8.4-2.6 4.6-3.6 9.6h54.8q.2-.8.2-2.6zm12.6-.6v3.2q0 1.6-.4 3l-7.6 7.4h-60.6q-.4 6.8 2 13.4 2.4 6.4 7.2 11.4 4.8 5 11.6 8.2 6.8 3 15.2 3 8.2 0 15-2 6.8-2.2 13.4-7l-3.6 14q-5.2 3-11.6 4.6-6.2 1.6-14.6 1.6-9.8 0-18.6-3.4-8.6-3.6-15.2-9.8-6.4-6.2-10.2-14.8-3.8-8.8-3.8-19.2 0-11 3.8-19.8t10-14.8q6.2-6.2 14-9.4 8-3.4 16-3.4 9.4 0 16.4 3 7.2 2.8 12 7.6t7.2 11q2.4 6 2.4 12.2zM648.497 883q-2.6-.8-5.4-2.4-2.8-1.6-5-4.2-2.2-2.8-3.8-6.8-1.4-4-1.4-9.4V737.6h12.6v121.2q0 6.4 3.4 10.6 3.6 4 8.2 5zM721.678 835.6l-22.2 2q-8.8.8-13.8 5.6t-5 12.2q0 6.8 5 11.4 5 4.4 12.2 4.4 4 0 8.2-1.6 4.4-1.8 7.8-4.8 3.4-3 5.6-7.2 2.2-4.4 2.2-9.8zm15.8 46.4q-4.6-1-8.6-4.8t-5-9q-3.6 6.4-10.8 10.2-7.2 3.6-15.6 3.6-6.4 0-11.8-2-5.2-2.2-9.2-5.8-3.8-3.6-6-8.4-2-4.8-2-10.4 0-6.6 2.4-11.6 2.6-5.2 6.6-8.6 4-3.4 9.2-5.2 5.2-2 10.8-2.6l24.2-2.4v-8.6q0-8.4-5.6-13.2-5.6-4.8-15.8-4.8-6.4 0-13 2-6.4 1.8-11 4.8l-2.6-10.6q5.2-3.6 12.4-5.4 7.2-1.8 14.8-1.8 7.2 0 13.4 2t10.6 5.8q4.6 3.8 7 9.6 2.6 5.6 2.6 12.8V859q0 6.8 3.4 10.4 3.4 3.6 7.8 4.4zM749.34 880v-2.4l31.4-51.6q3.8-6.2 8-13t8.2-12.6l-.2-.2h-43.6v-10.8h63v2.4l-31.6 51.6q-3.8 6.4-8 12.8l-8 12.8.2.2h50.8V880zM871.99 872.2q-5.2 12.2-10.6 21.2-5.4 9.2-11.2 15.8-5.6 6.6-11.8 10.8-6 4.2-12.8 6.6l-7.8-8q13-4 22.8-15 10-10.8 18.8-31.6l-35-82.6h13.2l19.4 45.6q2.2 5.4 4.4 11.2 2.4 5.6 4.6 11.6h.4q2.2-5.8 4.4-11.2 2.2-5.6 4.6-11.2l19.6-46h12.2zM1027.816 808.2q-4-4-10.6-6.8t-14.2-2.8q-7.4 0-13.8 2.8-6.2 2.6-11 7.4-4.6 4.8-7.4 11.4-2.6 6.6-2.6 14.6t2.6 14.6q2.8 6.6 7.4 11.4 4.8 4.8 11 7.4 6.4 2.6 13.8 2.6 7.8 0 14.2-2.6 6.4-2.6 10.6-7.2zm1.6 71.8l-.4-7.6q-4.6 4.8-12 7.2-7.2 2.4-16 2.4-8.4 0-16.6-3.2-8.2-3.2-14.8-9.2-6.4-6.2-10.4-15-3.8-8.8-3.8-19.8 0-10.4 3.6-19 3.6-8.8 10-15 6.4-6.4 15-9.8 8.8-3.6 19-3.6 7.6 0 14.2 2.2t10.6 5.2v-57.2h12.8V880zM1137.875 834.8q0-8-2.8-14.6-2.6-6.6-7.4-11.4-4.8-4.8-11.2-7.4-6.2-2.8-13.4-2.8-7.4 0-13.8 2.8-6.4 2.6-11.2 7.4-4.6 4.8-7.4 11.4-2.6 6.6-2.6 14.6t2.6 14.6q2.8 6.6 7.4 11.4 4.8 4.8 11.2 7.4 6.4 2.6 13.8 2.6 7.2 0 13.4-2.6 6.4-2.6 11.2-7.4 4.8-4.8 7.4-11.4 2.8-6.6 2.8-14.6zm12.8 0q0 10.4-3.6 19t-10 15q-6.4 6.2-15.2 9.8-8.6 3.4-18.8 3.4-10.2 0-19-3.4-8.6-3.6-15-9.8-6.4-6.4-10.2-15-3.6-8.6-3.6-19t3.6-19q3.8-8.8 10.2-15 6.4-6.4 15-9.8 8.8-3.6 19-3.6t18.8 3.6q8.8 3.4 15.2 9.8 6.4 6.2 10 15 3.6 8.6 3.6 19zM1225.03 897.4q0-6.4-4.2-10.8t-11.8-6.8l-18.2-5.6q-9.8.2-16.2 6-6.2 5.8-6.2 14.8 0 4 1.8 7.6 2 3.8 5.6 6.6 3.8 3 9 4.8 5.4 1.8 12.2 1.8 6.6 0 11.8-1.6 5.2-1.6 8.8-4.2 3.6-2.6 5.4-6 2-3.2 2-6.6zm-6.8-80q0-4-1.6-7.4-1.6-3.6-4.6-6.2-2.8-2.8-6.6-4.2-3.8-1.6-8.4-1.6-9.4 0-15.6 5.8-6 5.6-6 13.6 0 8.4 6 14 6.2 5.6 15.6 5.6 4.2 0 8-1.4 4-1.6 6.8-4.2 3-2.8 4.6-6.2 1.8-3.6 1.8-7.8zm18.8 80q0 6.2-3 11.4-2.8 5.2-8 9-5.2 4-12.6 6.2-7.4 2.2-16.2 2.2-9 0-16.4-2.4-7.4-2.4-12.8-6.6-5.2-4.2-8.2-10-2.8-5.6-2.8-12.2 0-5.6 1.8-10.2t4.8-8.2q3-3.6 6.8-5.8 4-2.4 8-3.4l-10.8-9.8q0-2.4 1-4.6 1.2-2.4 3-4.2 1.8-2 4-3.4 2.4-1.6 4.6-2.2-6.8-3.4-11.8-10-4.8-6.8-4.8-15.8 0-6.6 2.4-12 2.6-5.6 7-9.6t10.4-6.2q6.2-2.2 13.4-2.2 3.6 0 6.4.6 2.8.4 5 1 4.4 1.4 11.2 1.4 4 0 7.6-.8 3.6-1 6.2-2.4l2.6 10.4q-1.6 1-5.6 2-4 .8-6.8.8 2.8 2.8 4.6 7.2 2 4.4 2 9.8 0 6-2.4 11.6-2.2 5.4-6.6 9.6-4.2 4.2-10.4 6.6-6.2 2.4-13.8 2.4-7.6 0-11.6 2.2-4 2-4 4.8 0 .6 2.4 3 2.6 2.4 5.8 3.4l23.4 8q11.6 4 17.8 10.6 6.4 6.4 6.4 17.8zM1264.847 871q0 1.4-1 3.4-1 1.8-2.4 3.6-1.4 1.6-3.2 2.8-1.6 1.2-2.8 1.2-1.2 0-3-1.2-1.6-1.2-3-2.8-1.4-1.8-2.4-3.6-1-2-1-3.4t1-3.2q1-2 2.4-3.6 1.4-1.8 3-3 1.8-1.2 3-1.2t2.8 1.2q1.8 1.2 3.2 3 1.4 1.6 2.4 3.6 1 1.8 1 3.2z"/></g></svg>