<svg xmlns="http://www.w3.org/2000/svg" viewBox="0 0 1600 1000" height="1000" width="1600"><path fill="#fff" d="M0 0h1600v1000H0z"/><g font-weight="400" font-size="200" font-family="Agenda" letter-spacing="-.03em" text-anchor="middle" fill="#222"><path d="M536.627 109V92.4h-101.4V109h41v111h19.4V109zM622.942 220v-60q0-7.6-2.6-13.6-2.6-6.2-7.2-10.4t-11-6.4q-6.2-2.4-13.6-2.4-10 0-15.8 2.4-5.8 2.4-10.8 7.2V77.6h-18.2V220h18.2v-58.2q0-3.6 1.4-7t4-6q2.8-2.8 6.8-4.4 4.2-1.6 9.6-1.6 5.6 0 9.6 1.6t6.6 4.4q2.6 2.6 3.6 6 1.2 3.4 1.2 7V220zM719.286 161.6q0-6.2-2.6-12.4t-7.6-11q-5-5-12.4-8-7.2-3-16.6-3-7.8 0-16 3.2-8 3-14.4 9t-10.6 15q-4 8.8-4 20.4 0 10.6 4 19.4 4 8.6 10.6 15 6.8 6.2 15.6 9.6 8.8 3.4 18.4 3.4 9.2 0 15.6-1.6t11.2-4.2l4.6-19.4q-6.4 4.6-13.4 7-6.8 2.2-15.6 2.2-8 0-14-2.6-5.8-2.6-9.8-6.6-4-4.2-6.2-8.8-2-4.8-2.2-9h54.6l10.2-10.2q.6-3 .6-7.4zm-18.4.4q0 1.6-.2 2.4h-45.6q.8-4.8 3.4-8.6 2.6-4 6.2-6.8 3.6-3 7.8-4.6 4.4-1.6 8.6-1.6 4.4 0 8 1.8 3.8 1.6 6.4 4.4 2.6 2.8 4 6.2 1.4 3.4 1.4 6.8zM850.627 266.2V127.6h-4.4l-8 4.6q-4.2-2-10.6-3.4-6.2-1.6-12.2-1.6-9.4 0-18.2 3.2-8.6 3-15.4 9-6.6 6-10.6 14.8-4 8.6-4 19.8 0 11.2 4 20.2 4.2 9 11 15.2 6.8 6.2 15.8 9.6 9 3.2 18.6 3.2 5.2 0 9-1 4-.8 6.8-2v47zm-18.2-64q-3.4 2-7.2 3-3.8 1-8.6 1-5.8 0-11.4-2.2-5.6-2.2-10-6.2-4.2-4.2-7-10.2-2.6-6-2.6-13.6 0-7 2.4-12.6 2.4-5.8 6.4-9.8 4.2-4 9.6-6.2 5.4-2.2 11.4-2.2 5.6 0 9.8 1.4 4.4 1.2 7.2 2.8zM946.77 220v-90.6h-18.2v58.2q0 3.6-1.4 7t-4.2 6.2q-2.6 2.6-6.8 4.2-4 1.6-9.4 1.6-5.8 0-9.8-1.6-3.8-1.6-6.4-4.2-2.6-2.8-3.8-6.2-1-3.4-1-7v-58.2h-18.2v60q0 7.6 2.6 13.8 2.6 6 7.2 10.2 4.6 4.2 10.8 6.6 6.4 2.2 13.8 2.2 10.6 0 16.6-2.6 6.2-2.8 11.4-8.6l.8 9zM987.142 101q0-1.4-1.2-3.2-1.2-2-3-3.8-1.8-1.8-3.8-3-1.8-1.2-3.2-1.2-1.4 0-3.4 1.2-1.8 1.2-3.6 3-1.6 1.8-2.8 3.8-1.2 1.8-1.2 3.2 0 1.4 1.2 3.4 1.2 1.8 2.8 3.6 1.8 1.6 3.6 2.8 2 1.2 3.4 1.2t3.2-1.2q2-1.2 3.8-2.8 1.8-1.8 3-3.6 1.2-2 1.2-3.4zm-2 119v-90.6h-18.4V220zM1079.38 134q-5.8-3.2-13-5-7-1.8-16-1.8-9.4 0-18.2 3.2-8.8 3.2-15.8 9.4-6.8 6.2-11 15t-4.2 20q0 11.2 4.2 20 4.2 8.6 11 14.8 7 6.2 15.8 9.4t18.2 3.2q13.6 0 23.8-4.6l3.8-17.8q-7.6 3.6-13.6 5t-12.4 1.4q-6.2 0-12.2-2.2-5.8-2.2-10.4-6.2-4.4-4-7.2-9.8-2.6-6-2.6-13.2 0-7.4 2.6-13.2 2.8-5.8 7.2-9.8 4.4-4.2 10.2-6.4 5.8-2.2 12-2.2 6.6 0 12.4 1.4 5.8 1.4 12 5.4zM1171.577 220l-40.8-45.8 39.6-44.8h-21.6l-38.6 43.2v-95h-18.2V220h18.2v-42.6l37.8 42.6zM511.462 394q0-10.6-4.2-19.2-4-8.8-10.8-14.8-6.8-6.2-15.8-9.4-9-3.4-18.6-3.4-5.8 0-9.8 1-3.8 1-6 2v-52.6h-18.2v136.2q5.4 3.4 13.2 6 8 2.4 18.4 2.4 11.4 0 21-3.2 9.6-3.4 16.4-9.6 6.8-6.2 10.6-15.2t3.8-20.2zm-18.4 0q0 14.6-8.8 23.4-8.8 8.8-24.6 8.8-5.2 0-8.2-.6-2.8-.8-5.2-1.8v-56.6q2.4-1.6 6.4-2.8 4.2-1.2 9.4-1.2 5.6 0 11.2 2.2 5.6 2 10 6t7 9.8q2.8 5.6 2.8 12.8zM577.606 363.6l-3.4-15.4q-10.2 0-18.8 3.6-8.4 3.4-12 11.8l-.8-14.2h-17.2V440h18.2v-42.8q0-9.6 3-16 3-6.6 7.6-10.4 4.6-4 10.4-5.6 5.8-1.6 11.2-1.6zM674.06 394.8q0-10.6-3.8-19.2-3.6-8.8-10.2-15-6.4-6.4-15.2-9.8-8.6-3.6-18.8-3.6-10.2 0-19 3.6-8.8 3.4-15.4 9.8-6.4 6.2-10.2 15-3.6 8.6-3.6 19.2t3.6 19.4q3.8 8.6 10.2 14.8 6.6 6.2 15.4 9.8 8.8 3.4 19 3.4t18.8-3.4q8.8-3.6 15.2-9.8 6.6-6.2 10.2-14.8 3.8-8.8 3.8-19.4zm-18.4 0q0 7-2.4 12.8-2.4 5.8-6.6 10-4 4-9.4 6.4-5.2 2.2-11.2 2.2-6 0-11.4-2.2-5.4-2.4-9.6-6.4-4-4.2-6.4-10-2.4-5.8-2.4-12.8 0-7.2 2.4-13t6.4-9.8q4.2-4.2 9.6-6.4 5.4-2.4 11.4-2.4t11.2 2.4q5.4 2.2 9.4 6.4 4.2 4 6.6 9.8 2.4 5.8 2.4 13zM806.91 349.4h-16.4l-14.2 38.4q-1.6 4.2-3.2 9t-3.2 10h-.4q-1.6-5.2-3-9.6-1.4-4.6-3.2-9.4l-14.4-38.4h-13.2l-14.2 38.4q-1.6 4.4-3.2 9.4t-3.2 9.6h-.4q-1.4-4.6-3-9.4-1.6-5-3.2-9.6l-14.2-38.4h-17.2l34.2 92.2h6.6l16.4-44q1.8-4.6 3.6-10.2 2-5.6 3.8-11.8h.4q3.6 11.8 7.6 22.4l16.4 43.6h6.6zM897.106 440v-60q0-7.6-2.6-13.6-2.6-6.2-7.2-10.4t-11-6.4q-6.2-2.4-13.6-2.4-10.6 0-16.8 2.8-6 2.8-11.2 8.4l-.8-9h-16V440h18.2v-58.2q0-3.6 1.4-7t4-6q2.8-2.8 6.8-4.4 4.2-1.6 9.6-1.6 5.6 0 9.6 1.6t6.6 4.4q2.6 2.6 3.6 6 1.2 3.4 1.2 7V440zM1015.572 299.8q-7.2-3-15.4-3-19.8 0-30.2 11-10.4 10.8-10.4 33.2v8.4h-15.4V364h15.4v76h18.2v-76h23.2l3-14.6h-26.2v-14q0-4.4 1.2-8.6 1.2-4.4 3.6-7.6 2.4-3.2 6-5.2t8.2-2q4 0 8 .8 4.2.8 7.6 2.4zM1103.825 394.8q0-10.6-3.8-19.2-3.6-8.8-10.2-15-6.4-6.4-15.2-9.8-8.6-3.6-18.8-3.6-10.2 0-19 3.6-8.8 3.4-15.4 9.8-6.4 6.2-10.2 15-3.6 8.6-3.6 19.2t3.6 19.4q3.8 8.6 10.2 14.8 6.6 6.2 15.4 9.8 8.8 3.4 19 3.4t18.8-3.4q8.8-3.6 15.2-9.8 6.6-6.2 10.2-14.8 3.8-8.8 3.8-19.4zm-18.4 0q0 7-2.4 12.8-2.4 5.8-6.6 10-4 4-9.4 6.4-5.2 2.2-11.2 2.2-6 0-11.4-2.2-5.4-2.4-9.6-6.4-4-4.2-6.4-10-2.4-5.8-2.4-12.8 0-7.2 2.4-13t6.4-9.8q4.2-4.2 9.6-6.4 5.4-2.4 11.4-2.4t11.2 2.4q5.4 2.2 9.4 6.4 4.2 4 6.6 9.8 2.4 5.8 2.4 13zM1183.875 440l-28-46.6 26.6-44h-19.6l-11.6 19.8q-1.6 2.6-3 5-1.2 2.4-2.6 4.8h-.4q-1.4-2.6-2.8-5-1.2-2.4-2.6-4.8l-11.6-19.8h-20.2l26.8 44.8-28 45.8h19.6l12.4-20.8q1.2-2.2 2.8-5 1.8-2.8 3.2-5.6h.4l2.8 5.6q1.6 2.8 3 5l12.4 20.8zM417.544 541q0-1.4-1.2-3.2-1.2-2-3-3.8-1.6-1.8-3.6-3-1.8-1.2-3.2-1.2-1.4 0-3.4 1.2-1.8 1.2-3.6 3t-3 3.8q-1.2 1.8-1.2 3.2 0 1.4 1.2 3.4 1.2 1.8 3 3.6 1.8 1.6 3.6 2.8 2 1.2 3.4 1.2t3.2-1.2q2-1.2 3.6-2.8 1.8-1.8 3-3.6 1.2-2 1.2-3.4zm-1.8 128.8V569.4h-18.4v99q0 11.8-5.4 18-5.2 6.4-14.2 8.4l11.6 11.4q4.8-1.2 9.6-4.4 4.8-3 8.4-7.8 3.8-4.8 6-11 2.4-6 2.4-13.2zM514.98 660v-90.6h-18.2v58.2q0 3.6-1.4 7t-4.2 6.2q-2.6 2.6-6.8 4.2-4 1.6-9.4 1.6-5.8 0-9.8-1.6-3.8-1.6-6.4-4.2-2.6-2.8-3.8-6.2-1-3.4-1-7v-58.2h-18.2v60q0 7.6 2.6 13.8 2.6 6 7.2 10.2 4.6 4.2 10.8 6.6 6.4 2.2 13.8 2.2 10.6 0 16.6-2.6 6.2-2.8 11.4-8.6l.8 9zM665.353 660v-63.6q0-6.2-2.4-11.6-2.4-5.4-6.8-9.2-4.2-4-10.2-6.2-5.8-2.2-12.6-2.2-12.6 0-20.4 3.8-7.6 3.8-12.2 9-3.4-5.2-10.2-9-6.8-3.8-15.2-3.8-10.6 0-16.6 2.8-5.8 2.8-11 8.4l-.8-9h-16V660h18.2v-62q0-6.2 5.2-10.6 5.2-4.4 14.8-4.4 10 0 15 4.2 5 4 5 10.8v62h18.2v-62q0-6.2 5.2-10.6 5.2-4.4 14.8-4.4 9.8 0 14.8 4.2 5 4 5 10.8v62zM770.803 614.6q0-11.8-4.2-20.6-4.2-9-10.8-14.8-6.4-6-14.4-9-7.8-3-15-3-9.4 0-16.6 2.4-7.2 2.4-11.4 7l-.6-7.2h-15.6v136.8h18.2v-50q3.4 2.2 9.2 4 6 2 13.4 2 10.2 0 18.8-3.4 8.8-3.6 15.2-9.8 6.4-6.4 10-15 3.8-8.8 3.8-19.4zm-18.4 0q0 7.2-2.4 13-2.2 5.8-6.2 10-4 4-9.4 6.4-5.4 2.2-11.4 2.2-7.2 0-13.2-2.4-5.8-2.6-9.4-6v-45.4q3.6-4 9.4-6.6 5.8-2.6 13.2-2.6 6 0 11.4 2.4 5.4 2.2 9.4 6.4 4 4 6.2 9.8 2.4 5.8 2.4 12.8zM838.453 635.2q0-11.8-7.4-18.6-7.4-7-21-12-6.8-2.4-10-5t-3.2-7q0-4.6 3.4-7.4 3.4-2.8 9.2-2.8 7.4 0 12.4 1.8t8 4l3.4-15.2q-2.6-1.6-9.2-3.6-6.6-2.2-14.4-2.2-6.8 0-12.4 2-5.6 1.8-9.6 5.4-4 3.4-6.2 8.2-2.2 4.8-2.2 10.4 0 11 7.2 17.8 7.2 6.8 20.8 11.8 6.4 2.2 9.6 5.4 3.4 3 3.4 7.8 0 4.6-4 7.8-4 3-10.4 3-8.4 0-16.4-3.2-8-3.2-13.6-8l4.2 20q4 2.8 10.6 4.6 6.8 2 14.8 2 8.2 0 14.4-2.2 6.2-2.2 10.2-5.8 4.2-3.8 6.2-8.6 2.2-5 2.2-10.4zM982.747 614.8q0-10.6-3.8-19.2-3.6-8.8-10.2-15-6.4-6.4-15.2-9.8-8.6-3.6-18.8-3.6-10.2 0-19 3.6-8.8 3.4-15.4 9.8-6.4 6.2-10.2 15-3.6 8.6-3.6 19.2t3.6 19.4q3.8 8.6 10.2 14.8 6.6 6.2 15.4 9.8 8.8 3.4 19 3.4t18.8-3.4q8.8-3.6 15.2-9.8 6.6-6.2 10.2-14.8 3.8-8.8 3.8-19.4zm-18.4 0q0 7-2.4 12.8-2.4 5.8-6.6 10-4 4-9.4 6.4-5.2 2.2-11.2 2.2-6 0-11.4-2.2-5.4-2.4-9.6-6.4-4-4.2-6.4-10-2.4-5.8-2.4-12.8 0-7.2 2.4-13t6.4-9.8q4.2-4.2 9.6-6.4 5.4-2.4 11.4-2.4t11.2 2.4q5.4 2.2 9.4 6.4 4.2 4 6.6 9.8 2.4 5.8 2.4 13zM1067.997 569.4h-17l-16.2 40q-1.8 4.4-3.8 9.6-2 5-3.6 10.2h-.4q-1.6-5.2-3.6-10.2-2-5.2-3.8-9.6l-16.4-40h-18.4l37.8 92.2h7.4zM1154.45 601.6q0-6.2-2.6-12.4t-7.6-11q-5-5-12.4-8-7.2-3-16.6-3-7.8 0-16 3.2-8 3-14.4 9t-10.6 15q-4 8.8-4 20.4 0 10.6 4 19.4 4 8.6 10.6 15 6.8 6.2 15.6 9.6 8.8 3.4 18.4 3.4 9.2 0 15.6-1.6t11.2-4.2l4.6-19.4q-6.4 4.6-13.4 7-6.8 2.2-15.6 2.2-8 0-14-2.6-5.8-2.6-9.8-6.6-4-4.2-6.2-8.8-2-4.8-2.2-9h54.6l10.2-10.2q.6-3 .6-7.4zm-18.4.4q0 1.6-.2 2.4h-45.6q.8-4.8 3.4-8.6 2.6-4 6.2-6.8 3.6-3 7.8-4.6 4.4-1.6 8.6-1.6 4.4 0 8 1.8 3.8 1.6 6.4 4.4 2.6 2.8 4 6.2 1.4 3.4 1.4 6.8zM1220.497 583.6l-3.4-15.4q-10.2 0-18.8 3.6-8.4 3.4-12 11.8l-.8-14.2h-17.2V660h18.2v-42.8q0-9.6 3-16 3-6.6 7.6-10.4 4.6-4 10.4-5.6 5.8-1.6 11.2-1.6zM387.045 789.4h-32v-27.8l-18 9.4v18.4h-17.8V804h17.8v49.8q0 6.8 2.2 12 2.4 5 6.4 8.6 4 3.4 9.4 5.2 5.4 1.8 11.6 1.8 5.6 0 8.2-.8l3.6-16.2q-4 1.4-10 1.4-5.6 0-9.6-2.8-3.8-3-3.8-8.6V804h28.8zM474.52 880v-60q0-7.6-2.6-13.6-2.6-6.2-7.2-10.4t-11-6.4q-6.2-2.4-13.6-2.4-10 0-15.8 2.4-5.8 2.4-10.8 7.2v-59.2h-18.2V880h18.2v-58.2q0-3.6 1.4-7t4-6q2.8-2.8 6.8-4.4 4.2-1.6 9.6-1.6 5.6 0 9.6 1.6t6.6 4.4q2.6 2.6 3.6 6 1.2 3.4 1.2 7V880zM570.864 821.6q0-6.2-2.6-12.4t-7.6-11q-5-5-12.4-8-7.2-3-16.6-3-7.8 0-16 3.2-8 3-14.4 9t-10.6 15q-4 8.8-4 20.4 0 10.6 4 19.4 4 8.6 10.6 15 6.8 6.2 15.6 9.6 8.8 3.4 18.4 3.4 9.2 0 15.6-1.6t11.2-4.2l4.6-19.4q-6.4 4.6-13.4 7-6.8 2.2-15.6 2.2-8 0-14-2.6-5.8-2.6-9.8-6.6-4-4.2-6.2-8.8-2-4.8-2.2-9h54.6l10.2-10.2q.6-3 .6-7.4zm-18.4.4q0 1.6-.2 2.4h-45.6q.8-4.8 3.4-8.6 2.6-4 6.2-6.8 3.6-3 7.8-4.6 4.4-1.6 8.6-1.6 4.4 0 8 1.8 3.8 1.6 6.4 4.4 2.6 2.8 4 6.2 1.4 3.4 1.4 6.8zM657.205 871.2q-4.2-.8-8.2-4.6-4-4-4-10.4V737.6h-18.2v121q0 6.6 2 11.2 2 4.4 4.8 7.4 2.8 2.8 5.8 4.2 3.2 1.6 5.4 2.2zM744.94 870.6q-4.4-.8-7.4-4.2-2.8-3.6-2.8-9.8V820q0-8-2.6-14-2.6-6.2-7.2-10.4t-11-6.2q-6.4-2.2-14-2.2-8.4 0-16 2-7.4 1.8-13.6 5.8l3.6 15q5-3.4 11.6-5.2 6.6-2 13.4-2 9.6 0 13.6 4.4 4 4.2 4 10.4v5.8l-21.2 2q-5.8.6-11.2 2.8-5.4 2-9.6 5.6-4 3.6-6.6 8.8-2.4 5.2-2.4 11.8 0 5.4 2 10.6 2 5 5.8 8.8 3.8 3.8 9.2 6.2 5.4 2.2 12.2 2.2 7.4 0 14-2.6t11.4-9q1.6 4.2 5 7.4 3.6 3.2 8.2 4.2zm-28.4-24.2q0 4.2-2 8-1.8 3.8-5 6.6-3 2.6-6.8 4.2-3.6 1.6-7.2 1.6-5.4 0-9-3.6-3.6-3.8-3.6-8.6 0-5 3.6-9.4 3.8-4.4 12-5.2l18-1.6zM821.555 880v-15.2h-45l-.2-.2q4-6.4 7.4-12.2l6.8-11.6 27.4-47.8v-3.6h-66v15.2h38.4l.2.2q-3.4 5.2-7.2 11.8-3.8 6.4-7 12l-27.2 47.8v3.6zM912.34 789.4h-17.4l-17 41.8q-1.8 4.6-3.8 9.6-2 5-3.8 10.2h-.4q-2-5.6-4-10.8-2-5.2-3.8-9.6l-16.8-41.2h-18.8l33.8 82.6q-4 9.8-8.2 17-4.2 7.2-9 12.4-4.6 5.2-10 8.6-5.2 3.6-11.4 6l11 11.2q6.6-3 12.8-7.4 6.2-4.4 11.8-11 5.8-6.6 11-15.8 5.4-9.2 10.6-21.8zM1046.936 880V737.6h-18.2v55.6q-3.4-2.2-9.4-4-5.8-2-13.2-2-10.2 0-19 3.6-8.6 3.4-15 9.8-6.4 6.2-10.2 15-3.6 8.8-3.6 19.2 0 11.8 4.2 20.8 4.2 8.8 10.6 14.8 6.6 5.8 14.4 8.8 8 3 15.2 3 9.4 0 16.6-2.4 7.2-2.4 11.4-7l.6 7.2zm-18.2-23q-3.6 4-9.4 6.6-5.8 2.6-13.2 2.6-6 0-11.4-2.2-5.4-2.4-9.4-6.4-4-4.2-6.4-10-2.2-5.8-2.2-12.8 0-7.2 2.2-13 2.4-5.8 6.4-9.8 4-4.2 9.4-6.4 5.4-2.4 11.4-2.4 7.2 0 13 2.6 6 2.4 9.6 5.8zM1155.958 834.8q0-10.6-3.8-19.2-3.6-8.8-10.2-15-6.4-6.4-15.2-9.8-8.6-3.6-18.8-3.6-10.2 0-19 3.6-8.8 3.4-15.4 9.8-6.4 6.2-10.2 15-3.6 8.6-3.6 19.2t3.6 19.4q3.8 8.6 10.2 14.8 6.6 6.2 15.4 9.8 8.8 3.4 19 3.4t18.8-3.4q8.8-3.6 15.2-9.8 6.6-6.2 10.2-14.8 3.8-8.8 3.8-19.4zm-18.4 0q0 7-2.4 12.8-2.4 5.8-6.6 10-4 4-9.4 6.4-5.2 2.2-11.2 2.2-6 0-11.4-2.2-5.4-2.4-9.6-6.4-4-4.2-6.4-10-2.4-5.8-2.4-12.8 0-7.2 2.4-13t6.4-9.8q4.2-4.2 9.6-6.4 5.4-2.4 11.4-2.4t11.2 2.4q5.4 2.2 9.4 6.4 4.2 4 6.6 9.8 2.4 5.8 2.4 13zM1243.114 896.2q0-12.6-6.8-19.6-6.6-7.2-18.6-11.4l-24.8-8.6q-1.6-.6-2.2-1.6-.4-1-.4-1.6 0-3 3-4 3.2-1 8.6-1 8 0 14.2-2.4 6.2-2.6 10.6-6.8 4.4-4.2 6.6-9.8 2.4-5.6 2.4-11.6 0-4.4-1-8-.8-3.6-2.2-5.8 2.2-.2 5-.8 3-.8 4-1.6l-3.4-15q-2.4 1.2-6 2.2-3.4 1-7.4 1-3.4 0-6.4-.2-3-.4-5.2-1t-5-1q-2.6-.4-6.2-.4-7.6 0-13.8 2.4-6.2 2.2-10.8 6.2-4.4 4-7 9.8-2.4 5.6-2.4 12.2 0 7.6 3.4 13.8 3.6 6.2 10 10.8-3.8 2-7 6-3.2 3.8-3.2 8.8l9.2 9.2q-3.6 1.2-7 3.8-3.4 2.4-6 6-2.6 3.4-4.2 7.8-1.6 4.6-1.6 9.6 0 7 2.8 13 3 6 8.4 10.4t13 6.8q7.6 2.4 17 2.4 9 0 16.4-2.4 7.6-2.2 12.8-6.2 5.4-4 8.2-9.6 3-5.4 3-11.8zm-24-78.4q0 3.2-1.4 6.2-1.4 2.8-3.8 5-2.4 2-5.6 3.2-3 1.2-6.4 1.2-7.6 0-12.6-4.6-4.8-4.6-4.8-11 0-6.2 4.8-10.8 5-4.8 12.6-4.8t12.4 4.8q4.8 4.6 4.8 10.8zm7.2 78.2q0 2.8-1.6 5.4-1.4 2.8-4.4 5-3 2.4-7.6 3.8-4.4 1.4-10.4 1.4-6.2 0-10.8-1.6-4.6-1.4-7.8-4-3-2.6-4.6-5.8-1.4-3.2-1.4-6.6 0-7.6 5.2-12.6t13.6-5l15.8 4.6q7 2.2 10.4 6.2 3.6 4 3.6 9.2zM1274.902 870q0-1.4-1.4-3.4-1.2-2.2-3.2-4-2-2-4.2-3.2-2-1.4-3.4-1.4-1.6 0-3.6 1.4-2 1.2-4 3.2-2 1.8-3.4 4-1.2 2-1.2 3.4 0 1.6 1.2 3.6 1.4 2 3.4 4t4 3.2q2 1.4 3.6 1.4 1.4 0 3.4-1.4 2.2-1.2 4.2-3.2t3.2-4q1.4-2 1.4-3.6z"/></g></svg>