<svg xmlns="http://www.w3.org/2000/svg" viewBox="0 0 800 500" height="500" width="800"><path fill="#fff" d="M0 0h800v500H0z"/><g font-weight="100" font-size="100" font-family="Agenda" letter-spacing="-.03em" text-anchor="middle" fill="#222"><path d="M249.05 52v58h-6.7V52h-21.9v-5.8h50.6V52zM307.003 110V80.1q0-4.8-3.2-7.8-3.2-3.1-9.3-3.1-5.9 0-9.4 3.1-3.5 3-3.5 7.8V110h-6.3V38.8h6.3v31q1.7-2.4 5.1-4.2 3.5-1.9 9.3-1.9 3.7 0 6.8 1.1 3.2 1.1 5.5 3.1 2.4 2 3.7 5 1.3 2.9 1.3 6.6V110zM354.59 80.9q0-2-.8-4-.8-2.1-2.4-3.8-1.5-1.7-3.8-2.8-2.3-1.1-5.4-1.1-2.8 0-5.3 1.1t-4.6 2.9q-2 1.8-3.4 4.2-1.3 2.3-1.8 4.8h27.4q.1-.4.1-1.3zm6.3-.3v1.6q0 .8-.2 1.5l-3.8 3.7h-30.3q-.2 3.4 1 6.7 1.2 3.2 3.6 5.7 2.4 2.5 5.8 4.1 3.4 1.5 7.6 1.5 4.1 0 7.5-1 3.4-1.1 6.7-3.5l-1.8 7q-2.6 1.5-5.8 2.3-3.1.8-7.3.8-4.9 0-9.3-1.7-4.3-1.8-7.6-4.9-3.2-3.1-5.1-7.4-1.9-4.4-1.9-9.6 0-5.5 1.9-9.9t5-7.4q3.1-3.1 7-4.7 4-1.7 8-1.7 4.7 0 8.2 1.5 3.6 1.4 6 3.8t3.6 5.5q1.2 3 1.2 6.1zM420.56 72.1q-1.8-1.2-4.6-2t-6-.8q-3.6 0-6.8 1.3-3.2 1.3-5.6 3.7-2.4 2.3-3.8 5.6-1.3 3.3-1.3 7.2 0 4.2 1.4 7.6 1.5 3.3 3.9 5.7 2.5 2.4 5.7 3.7 3.3 1.3 6.9 1.3 3 0 5.6-.8 2.6-.9 4.6-2.3zm0 61v-24.7q-1.9 1.2-4.5 1.9t-5.7.7q-4.9 0-9.4-1.7-4.4-1.7-7.7-4.8-3.3-3.2-5.3-7.6-1.9-4.4-1.9-9.8t1.9-9.7q1.9-4.3 5.1-7.3 3.3-3.1 7.6-4.7 4.4-1.7 9.3-1.7 3.2 0 6.6.8 3.4.8 5.8 2.1l2.6-2.5h1.9v69zM468.73 110l-.2-5.5q-1.8 2.6-5.3 4.6-3.5 1.9-9.5 1.9-3.7 0-6.9-1.1-3.1-1.1-5.5-3.1-2.3-2-3.6-4.9-1.3-3-1.3-6.7V64.7h6.3v29.9q0 4.8 3.2 7.9 3.2 3 9.3 3 5.9 0 9.4-3 3.5-3.1 3.5-7.9V64.7h6.3V110zM485.636 110V64.7h6.4V110zm7.5-58.9q0 .6-.5 1.4-.4.8-1.1 1.6-.7.7-1.4 1.3-.7.5-1.3.5-.6 0-1.3-.5-.7-.6-1.4-1.3-.6-.8-1.1-1.6-.4-.8-.4-1.4 0-.6.4-1.4.5-.9 1.1-1.6.7-.8 1.4-1.3.7-.6 1.3-.6.6 0 1.3.6.7.5 1.4 1.3.7.7 1.1 1.6.5.8.5 1.4zM538.283 72.8q-2.6-1.7-5.9-2.6-3.2-.9-6.7-.9-3.8 0-7.2 1.3-3.3 1.3-5.8 3.7-2.4 2.4-3.8 5.8-1.4 3.3-1.4 7.3t1.4 7.3q1.5 3.3 3.9 5.7 2.5 2.4 5.8 3.7 3.4 1.3 7.3 1.3 3.5 0 6.6-.7 3.2-.8 6.7-2.6l-1.6 6.4q-2.3 1.3-5.5 1.9-3.2.6-6.7.6-4.8 0-9.2-1.6-4.4-1.7-7.8-4.8-3.3-3.1-5.3-7.4-2-4.4-2-9.8t1.9-9.8q2-4.4 5.3-7.4 3.4-3.1 7.8-4.8 4.4-1.7 9.3-1.7 4.4 0 8 1 3.6 1 6.2 2.5zM574.486 110l-21.5-22v22h-6.3V38.8h6.3v47.5l21-21.6h7.6l-21.4 22.2 22.5 23.1zM251.668 197.2q0-4-1.5-7.3-1.4-3.3-3.9-5.6-2.4-2.4-5.7-3.7-3.2-1.3-6.7-1.3-3.2 0-5.9.9-2.7.8-4.4 2.2v30.9q1.7.8 4 1.5 2.3.6 5.5.6 4.2 0 7.6-1.3 3.5-1.4 5.9-3.8 2.5-2.4 3.8-5.7 1.3-3.4 1.3-7.4zm6.4 0q0 5.4-1.9 9.8-1.8 4.3-5.1 7.5-3.3 3.1-7.9 4.8-4.6 1.7-10.1 1.7-4.8 0-8.9-1.2-4-1.2-6.9-3v-68h6.3v27.5q1.7-1.2 4.3-1.9 2.7-.7 6-.7 4.9 0 9.3 1.7t7.7 4.8q3.3 3.1 5.2 7.5 2 4.3 2 9.5zM289.04 179.5h-1q-3.2 0-6.1 1.2-2.9 1.1-5.1 3.4-2.2 2.2-3.5 5.7-1.3 3.4-1.3 8V220h-6.3v-45.3h6l.3 8.7q1.4-4.2 5.5-6.7 4.2-2.6 10.2-2.6zM330.723 197.4q0-4-1.4-7.3-1.3-3.3-3.7-5.7-2.4-2.4-5.6-3.7-3.1-1.4-6.7-1.4-3.7 0-6.9 1.4-3.2 1.3-5.6 3.7-2.3 2.4-3.7 5.7-1.3 3.3-1.3 7.3t1.3 7.3q1.4 3.3 3.7 5.7 2.4 2.4 5.6 3.7 3.2 1.3 6.9 1.3 3.6 0 6.7-1.3 3.2-1.3 5.6-3.7 2.4-2.4 3.7-5.7 1.4-3.3 1.4-7.3zm6.4 0q0 5.2-1.8 9.5t-5 7.5q-3.2 3.1-7.6 4.9-4.3 1.7-9.4 1.7-5.1 0-9.5-1.7-4.3-1.8-7.5-4.9-3.2-3.2-5.1-7.5-1.8-4.3-1.8-9.5t1.8-9.5q1.9-4.4 5.1-7.5 3.2-3.2 7.5-4.9 4.4-1.8 9.5-1.8t9.4 1.8q4.4 1.7 7.6 4.9 3.2 3.1 5 7.5 1.8 4.3 1.8 9.5zM386.848 220.9h-2l-9.1-24.7-2.2-6.2q-1-3.1-2-6.4h-.2q-1.1 3.4-2.1 6.5-1 3-2.1 5.9l-9.1 24.9h-2.1l-16.9-46.2h6.1l8.2 22.6q1.1 2.9 2 5.8.9 2.9 1.7 5.5h.2q.8-2.6 1.7-5.6 1-3 2-5.6l8.2-22.7h4.8l8.2 22.6q1 2.6 1.9 5.5 1 2.9 1.8 5.8h.2q.9-2.9 1.8-5.7 1-2.8 2-5.5l8.1-22.7h5.8zM441.54 220v-29.9q0-4.8-3.2-7.8-3.2-3.1-9.3-3.1-5.9 0-9.4 3.1-3.5 3-3.5 7.8V220h-6.3v-45.3h5.7l.2 5.5q1.8-2.6 5.3-4.5 3.5-2 9.5-2 3.7 0 6.8 1.1 3.2 1.1 5.5 3.1 2.4 2 3.7 5 1.3 2.9 1.3 6.6V220zM505.374 155.3q-1.4-.7-3.3-1.1-1.9-.4-3.9-.4-5.4 0-8.4 4-2.9 4-2.9 10.1v6.8h14.3l-1.2 5.2h-13.1V220h-6.4v-40.1h-7.2v-5.2h7.2v-5.1q0-10.5 4.9-15.8 4.9-5.4 13.8-5.4 2.1 0 4 .4 2 .4 3.5 1.1zM543.848 197.4q0-4-1.4-7.3-1.3-3.3-3.7-5.7-2.4-2.4-5.6-3.7-3.1-1.4-6.7-1.4-3.7 0-6.9 1.4-3.2 1.3-5.6 3.7-2.3 2.4-3.7 5.7-1.3 3.3-1.3 7.3t1.3 7.3q1.4 3.3 3.7 5.7 2.4 2.4 5.6 3.7 3.2 1.3 6.9 1.3 3.6 0 6.7-1.3 3.2-1.3 5.6-3.7 2.4-2.4 3.7-5.7 1.4-3.3 1.4-7.3zm6.4 0q0 5.2-1.8 9.5t-5 7.5q-3.2 3.1-7.6 4.9-4.3 1.7-9.4 1.7-5.1 0-9.5-1.7-4.3-1.8-7.5-4.9-3.2-3.2-5.1-7.5-1.8-4.3-1.8-9.5t1.8-9.5q1.9-4.4 5.1-7.5 3.2-3.2 7.5-4.9 4.4-1.8 9.5-1.8t9.4 1.8q4.4 1.7 7.6 4.9 3.2 3.1 5 7.5 1.8 4.3 1.8 9.5zM581.873 220l-7.6-12q-1.9-3-3.5-6.1h-.2q-.8 1.5-1.9 3.1-1 1.6-1.9 3l-7.6 12h-6.8l14.7-23.1-13.9-22.2h7.1l7.1 11.4q1.8 2.8 3.3 5.7h.2q1.5-2.6 3.4-5.7l7.1-11.4h6.9l-13.9 22 14.6 23.3zM209.876 335.2q0 3.5-1 6.5t-2.7 5.3q-1.6 2.3-3.8 3.8-2.2 1.6-4.7 2.2l-4.1-4q4.8-1.1 7.3-4.6 2.6-3.5 2.6-9.7v-50h6.4zm1-64.1q0 .6-.5 1.4-.4.8-1.1 1.6-.6.7-1.3 1.3-.7.5-1.3.5-.6 0-1.3-.5-.7-.6-1.4-1.3-.6-.8-1.1-1.6-.4-.8-.4-1.4 0-.6.4-1.4.5-.9 1.1-1.6.7-.8 1.4-1.3.7-.6 1.3-.6.6 0 1.3.6.7.5 1.3 1.3.7.7 1.1 1.6.5.8.5 1.4zM253.423 330l-.2-5.5q-1.8 2.6-5.3 4.6-3.5 1.9-9.5 1.9-3.7 0-6.9-1.1-3.1-1.1-5.5-3.1-2.3-2-3.6-4.9-1.3-3-1.3-6.7v-30.5h6.3v29.9q0 4.8 3.2 7.9 3.2 3 9.3 3 5.9 0 9.4-3 3.5-3.1 3.5-7.9v-29.9h6.3V330zM326.227 330v-31.8q0-4.3-3-6.6-2.9-2.4-8.2-2.4-5.2 0-8.4 2.4t-3.2 6.6V330h-6.3v-31.8q0-4.3-3-6.6-3-2.4-8.3-2.4-5.2 0-8.4 2.4t-3.2 6.6V330h-6.3v-45.3h5.7l.2 5q1.8-2.5 5-4.2 3.2-1.8 8.9-1.8 4.5 0 8.1 2 3.6 1.9 5.3 5.1 1.7-2.9 5.5-5 3.9-2.1 10.2-2.1 3.4 0 6.2 1 2.9 1 5 2.9 2.1 1.8 3.3 4.4 1.2 2.5 1.2 5.7V330zM378.195 307.3q0-4-1.4-7.3-1.3-3.3-3.7-5.7-2.3-2.4-5.5-3.7-3.1-1.3-6.8-1.3-3.9 0-7.1 1.3-3.2 1.3-5.4 3.6v26.4q2 2 5.3 3.4 3.4 1.4 7.2 1.4 3.7 0 6.8-1.3 3.2-1.4 5.5-3.8 2.4-2.4 3.7-5.7 1.4-3.3 1.4-7.3zm6.4 0q0 5.2-1.8 9.6-1.8 4.3-5 7.5-3.2 3.1-7.6 4.9-4.3 1.7-9.4 1.7-3.8 0-7.2-1.1-3.3-1.1-5.3-2.6v25.8h-6.3v-68.4h5.6l.1 3.8q2.4-2.4 6-3.6 3.6-1.2 8.1-1.2 4.2 0 8.3 1.6 4.1 1.6 7.3 4.7 3.2 3 5.2 7.4 2 4.3 2 9.9zM417.738 318.2q0 5.7-4.2 9.3-4.1 3.5-11.3 3.5-4.2 0-7.5-1-3.2-1.1-5.2-2.7l-1.7-7.3q2.8 2.6 6.5 4.1 3.8 1.5 8 1.5 3.8 0 6.4-1.9 2.7-1.9 2.7-5.2 0-3.2-2.3-5.2-2.3-2.1-6.1-3.5-6.3-2.3-9.8-5.5-3.4-3.2-3.4-8.6 0-2.7 1-4.9 1.1-2.2 2.9-3.7 1.9-1.6 4.5-2.5 2.6-.9 5.6-.9 3.7 0 6.7 1 3.1 1 4.4 1.9l-1.2 5.2q-1.4-.9-4-1.8-2.6-1-6-1t-5.6 1.8q-2.1 1.8-2.1 4.7 0 3 2 4.8 2.1 1.8 5.9 3.2 6.5 2.3 10.1 5.7 3.7 3.4 3.7 9zM484.676 307.4q0-4-1.4-7.3-1.3-3.3-3.7-5.7-2.4-2.4-5.6-3.7-3.1-1.4-6.7-1.4-3.7 0-6.9 1.4-3.2 1.3-5.6 3.7-2.3 2.4-3.7 5.7-1.3 3.3-1.3 7.3t1.3 7.3q1.4 3.3 3.7 5.7 2.4 2.4 5.6 3.7 3.2 1.3 6.9 1.3 3.6 0 6.7-1.3 3.2-1.3 5.6-3.7 2.4-2.4 3.7-5.7 1.4-3.3 1.4-7.3zm6.4 0q0 5.2-1.8 9.5t-5 7.5q-3.2 3.1-7.6 4.9-4.3 1.7-9.4 1.7-5.1 0-9.5-1.7-4.3-1.8-7.5-4.9-3.2-3.2-5.1-7.5-1.8-4.3-1.8-9.5t1.8-9.5q1.9-4.4 5.1-7.5 3.2-3.2 7.5-4.9 4.4-1.8 9.5-1.8t9.4 1.8q4.4 1.7 7.6 4.9 3.2 3.1 5 7.5 1.8 4.3 1.8 9.5zM513.9 330.9h-2.3l-19.1-46.2h6.4l9.7 23.2q1.1 2.8 2.2 5.7 1.2 2.9 2.1 5.8h.2q1-2.9 2.1-5.7 1.1-2.9 2.3-5.8l9.5-23.2h6zM569.046 300.9q0-2-.8-4-.8-2.1-2.4-3.8-1.5-1.7-3.8-2.8-2.3-1.1-5.4-1.1-2.8 0-5.3 1.1t-4.6 2.9q-2 1.8-3.4 4.2-1.3 2.3-1.8 4.8h27.4q.1-.4.1-1.3zm6.3-.3v1.6q0 .8-.2 1.5l-3.8 3.7h-30.3q-.2 3.4 1 6.7 1.2 3.2 3.6 5.7 2.4 2.5 5.8 4.1 3.4 1.5 7.6 1.5 4.1 0 7.5-1 3.4-1.1 6.7-3.5l-1.8 7q-2.6 1.5-5.8 2.3-3.1.8-7.3.8-4.9 0-9.3-1.7-4.3-1.8-7.6-4.9-3.2-3.1-5.1-7.4-1.9-4.4-1.9-9.6 0-5.5 1.9-9.9t5-7.4q3.1-3.1 7-4.7 4-1.7 8-1.7 4.7 0 8.2 1.5 3.6 1.4 6 3.8t3.6 5.5q1.2 3 1.2 6.1zM606.188 289.5h-1q-3.2 0-6.1 1.2-2.9 1.1-5.1 3.4-2.2 2.2-3.5 5.7-1.3 3.4-1.3 8V330h-6.3v-45.3h6l.3 8.7q1.4-4.2 5.5-6.7 4.2-2.6 10.2-2.6zM194.627 399.9h-14.9v28.8q0 3.3 1.9 4.9 2 1.6 4.8 1.6 3.3 0 5.2-.9l-1.5 5.9q-1.5.5-4.2.5-5.3 0-8.9-3.1-3.6-3.1-3.6-9.1v-28.6h-9.4v-5.2h9.4v-9.8l6.3-3.3v13.1h16.2zM232.792 440v-29.9q0-4.8-3.2-7.8-3.2-3.1-9.3-3.1-5.9 0-9.4 3.1-3.5 3-3.5 7.8V440h-6.3v-71.2h6.3v31q1.7-2.4 5.1-4.2 3.5-1.9 9.3-1.9 3.7 0 6.8 1.1 3.2 1.1 5.5 3.1 2.4 2 3.7 5 1.3 2.9 1.3 6.6V440zM280.378 410.9q0-2-.8-4-.8-2.1-2.4-3.8-1.5-1.7-3.8-2.8-2.3-1.1-5.4-1.1-2.8 0-5.3 1.1t-4.6 2.9q-2 1.8-3.4 4.2-1.3 2.3-1.8 4.8h27.4q.1-.4.1-1.3zm6.3-.3v1.6q0 .8-.2 1.5l-3.8 3.7h-30.3q-.2 3.4 1 6.7 1.2 3.2 3.6 5.7 2.4 2.5 5.8 4.1 3.4 1.5 7.6 1.5 4.1 0 7.5-1 3.4-1.1 6.7-3.5l-1.8 7q-2.6 1.5-5.8 2.3-3.1.8-7.3.8-4.9 0-9.3-1.7-4.3-1.8-7.6-4.9-3.2-3.1-5.1-7.4-1.9-4.4-1.9-9.6 0-5.5 1.9-9.9t5-7.4q3.1-3.1 7-4.7 4-1.7 8-1.7 4.7 0 8.2 1.5 3.6 1.4 6 3.8t3.6 5.5q1.2 3 1.2 6.1zM324.248 441.5q-1.3-.4-2.7-1.2-1.4-.8-2.5-2.1-1.1-1.4-1.9-3.4-.7-2-.7-4.7v-61.3h6.3v60.6q0 3.2 1.7 5.3 1.8 2 4.1 2.5zM360.84 417.8l-11.1 1q-4.4.4-6.9 2.8t-2.5 6.1q0 3.4 2.5 5.7 2.5 2.2 6.1 2.2 2 0 4.1-.8 2.2-.9 3.9-2.4 1.7-1.5 2.8-3.6 1.1-2.2 1.1-4.9zm7.9 23.2q-2.3-.5-4.3-2.4t-2.5-4.5q-1.8 3.2-5.4 5.1-3.6 1.8-7.8 1.8-3.2 0-5.9-1-2.6-1.1-4.6-2.9-1.9-1.8-3-4.2-1-2.4-1-5.2 0-3.3 1.2-5.8 1.3-2.6 3.3-4.3 2-1.7 4.6-2.6 2.6-1 5.4-1.3l12.1-1.2v-4.3q0-4.2-2.8-6.6-2.8-2.4-7.9-2.4-3.2 0-6.5 1-3.2.9-5.5 2.4l-1.3-5.3q2.6-1.8 6.2-2.7 3.6-.9 7.4-.9 3.6 0 6.7 1t5.3 2.9q2.3 1.9 3.5 4.8 1.3 2.8 1.3 6.4v20.7q0 3.4 1.7 5.2 1.7 1.8 3.9 2.2zM374.67 440v-1.2l15.7-25.8q1.9-3.1 4-6.5t4.1-6.3l-.1-.1h-21.8v-5.4h31.5v1.2l-15.8 25.8q-1.9 3.2-4 6.4l-4 6.4.1.1h25.4v5.4zM435.995 436.1q-2.6 6.1-5.3 10.6-2.7 4.6-5.6 7.9-2.8 3.3-5.9 5.4-3 2.1-6.4 3.3l-3.9-4q6.5-2 11.4-7.5 5-5.4 9.4-15.8l-17.5-41.3h6.6l9.7 22.8q1.1 2.7 2.2 5.6 1.2 2.8 2.3 5.8h.2q1.1-2.9 2.2-5.6 1.1-2.8 2.3-5.6l9.8-23h6.1zM513.908 404.1q-2-2-5.3-3.4t-7.1-1.4q-3.7 0-6.9 1.4-3.1 1.3-5.5 3.7-2.3 2.4-3.7 5.7-1.3 3.3-1.3 7.3t1.3 7.3q1.4 3.3 3.7 5.7 2.4 2.4 5.5 3.7 3.2 1.3 6.9 1.3 3.9 0 7.1-1.3 3.2-1.3 5.3-3.6zm.8 35.9l-.2-3.8q-2.3 2.4-6 3.6-3.6 1.2-8 1.2-4.2 0-8.3-1.6-4.1-1.6-7.4-4.6-3.2-3.1-5.2-7.5-1.9-4.4-1.9-9.9 0-5.2 1.8-9.5 1.8-4.4 5-7.5 3.2-3.2 7.5-4.9 4.4-1.8 9.5-1.8 3.8 0 7.1 1.1t5.3 2.6v-28.6h6.4V440zM568.938 417.4q0-4-1.4-7.3-1.3-3.3-3.7-5.7-2.4-2.4-5.6-3.7-3.1-1.4-6.7-1.4-3.7 0-6.9 1.4-3.2 1.3-5.6 3.7-2.3 2.4-3.7 5.7-1.3 3.3-1.3 7.3t1.3 7.3q1.4 3.3 3.7 5.7 2.4 2.4 5.6 3.7 3.2 1.3 6.9 1.3 3.6 0 6.7-1.3 3.2-1.3 5.6-3.7 2.4-2.4 3.7-5.7 1.4-3.3 1.4-7.3zm6.4 0q0 5.2-1.8 9.5t-5 7.5q-3.2 3.1-7.6 4.9-4.3 1.7-9.4 1.7-5.1 0-9.5-1.7-4.3-1.8-7.5-4.9-3.2-3.2-5.1-7.5-1.8-4.3-1.8-9.5t1.8-9.5q1.9-4.4 5.1-7.5 3.2-3.2 7.5-4.9 4.4-1.8 9.5-1.8t9.4 1.8q4.4 1.7 7.6 4.9 3.2 3.1 5 7.5 1.8 4.3 1.8 9.5zM612.516 448.7q0-3.2-2.1-5.4t-5.9-3.4l-9.1-2.8q-4.9.1-8.1 3-3.1 2.9-3.1 7.4 0 2 .9 3.8 1 1.9 2.8 3.3 1.9 1.5 4.5 2.4 2.7.9 6.1.9 3.3 0 5.9-.8 2.6-.8 4.4-2.1 1.8-1.3 2.7-3 1-1.6 1-3.3zm-3.4-40q0-2-.8-3.7-.8-1.8-2.3-3.1-1.4-1.4-3.3-2.1-1.9-.8-4.2-.8-4.7 0-7.8 2.9-3 2.8-3 6.8 0 4.2 3 7 3.1 2.8 7.8 2.8 2.1 0 4-.7 2-.8 3.4-2.1 1.5-1.4 2.3-3.1.9-1.8.9-3.9zm9.4 40q0 3.1-1.5 5.7-1.4 2.6-4 4.5-2.6 2-6.3 3.1-3.7 1.1-8.1 1.1-4.5 0-8.2-1.2-3.7-1.2-6.4-3.3-2.6-2.1-4.1-5-1.4-2.8-1.4-6.1 0-2.8.9-5.1t2.4-4.1q1.5-1.8 3.4-2.9 2-1.2 4-1.7l-5.4-4.9q0-1.2.5-2.3.6-1.2 1.5-2.1.9-1 2-1.7 1.2-.8 2.3-1.1-3.4-1.7-5.9-5-2.4-3.4-2.4-7.9 0-3.3 1.2-6 1.3-2.8 3.5-4.8t5.2-3.1q3.1-1.1 6.7-1.1 1.8 0 3.2.3 1.4.2 2.5.5 2.2.7 5.6.7 2 0 3.8-.4 1.8-.5 3.1-1.2l1.3 5.2q-.8.5-2.8 1-2 .4-3.4.4 1.4 1.4 2.3 3.6 1 2.2 1 4.9 0 3-1.2 5.8-1.1 2.7-3.3 4.8-2.1 2.1-5.2 3.3-3.1 1.2-6.9 1.2-3.8 0-5.8 1.1-2 1-2 2.4 0 .3 1.2 1.5 1.3 1.2 2.9 1.7l11.7 4q5.8 2 8.9 5.3 3.2 3.2 3.2 8.9zM632.423 435.5q0 .7-.5 1.7-.5.9-1.2 1.8-.7.8-1.6 1.4-.8.6-1.4.6-.6 0-1.5-.6-.8-.6-1.5-1.4-.7-.9-1.2-1.8-.5-1-.5-1.7t.5-1.6q.5-1 1.2-1.8.7-.9 1.5-1.5.9-.6 1.5-.6t1.4.6q.9.6 1.6 1.5.7.8 1.2 1.8.5.9.5 1.6z"/></g></svg>