<svg xmlns="http://www.w3.org/2000/svg" viewBox="0 0 1600 1000" height="1000" width="1600"><path fill="#fff" d="M0 0h1600v1000H0z"/><g font-weight="400" font-size="200" font-family="Akzidenz Grotesk" letter-spacing="-.03em" text-anchor="middle" fill="#222"><path d="M457.966 220V94h-42.8V77.6h104.4V94h-42.8v126zM529.694 220V77.6h16.4v59.6h.4q9.8-15.2 28-15.2 33.8 0 33.8 35v63h-16.4v-61.4q0-21.4-20.2-21.4-11.4 0-18.6 7-7 6.8-7 18.2V220zM712 175.8h-72.6q0 14.8 7.4 24 7.8 9.8 21.4 9.8 21.4 0 26.8-21.4l16.2 2q-9.2 31.8-43.6 32.2-21.2.2-33.8-14.4-12-13.8-12-35 0-24 11.4-37.4 11.6-13.6 34.2-13.6 21.6 0 33.6 14.4 11 13.4 11 35.6zM639.4 163h55q-3.6-28.2-28.8-28.2-11.4 0-18.8 8.6-6.6 8-7.4 19.6zM862.175 124.4v140.4h-16.4V208h-.4q-10.4 14.4-30.6 14.4-23 0-35-15.6-10.6-13.4-10.6-34.6 0-21.6 10.4-34.8 12-15.4 36-15.4 8.6 0 17.2 4t12.6 9.8h.4v-11.4zm-75.4 47.8q0 15.6 7 25.2 7.8 11 22.8 11 13.6 0 22-11 7.8-10.2 7.8-25.2 0-15.6-7-25.2-7.8-11-22.8-11t-22.8 11q-7 9.6-7 25.2zM958.903 124.4V220h-16.4v-12.8h-.4q-9.8 15.2-28 15.2-33.8 0-33.8-35v-63h16.4v63q0 19.8 20.2 19.8 11.4 0 18.4-6.8 7.2-7 7.2-18.4v-57.6zM977.81 220v-95.6h16.4V220zm0-123.6V77.6h16.4v18.8zM1097.434 154.2l-17.6 1.8q-1.8-9.8-8.8-15.4-6.8-5.8-16.6-5.8-15.8 0-23.6 12.2-6.2 10-6.2 25.4 0 15.6 6.6 25.6 7.8 11.6 22.8 11.6 12.2 0 19.6-6.8 7.4-7 7.8-19l17.6 1.4q-2 17.2-14.2 27.2-12 10-30.2 10-22.6 0-35.2-13.4-12.4-13.4-12.4-35.8 0-22.8 12.4-37t35-14.2q15.8 0 27.2 8 12.4 8.6 15.8 24.2zM1110.74 220V77.6h16.4v87.8l37.6-40.6h19.8l-34.8 37.8 43 57.4h-20.6l-33.6-45.6-11.4 12.2V220zM420.236 440V297.6h16.4v58.8h.4q10.6-14.4 30.6-14.4 23 0 35.2 15.4 10.4 13.6 10.4 34.8 0 21.6-10.2 34.6-12.2 15.6-36.8 15.6-19.2 0-29.4-13.8h-.2V440zm75.4-47.8q0-15.6-7-25.2-7.8-11-22.8-11-13.6 0-22 11-7.8 10.2-7.8 25.2 0 15.6 7 25.2 7.8 11 22.8 11t22.8-11q7-9.6 7-25.2zM526.764 440v-95.6h16.4v16.4h.4q5.8-9.6 13.4-13.6 7.8-4 20.4-4v18q-6.4-.4-11-.4-11 0-17.6 8.6-5.6 7.6-5.6 17V440zM581.76 392.2q0-22.2 12.6-36.2 12.6-14 34.2-14t34.2 14q12.6 14 12.6 36.2 0 22.2-12.6 36.2-12.6 14-34.2 14t-34.2-14q-12.6-14-12.6-36.2zm17.6 0q0 14.8 5.8 24.6 7.4 12.8 23.4 12.8 16 0 23.4-12.8 5.8-9.8 5.8-24.6t-5.8-24.6q-7.4-12.8-23.4-12.8-16 0-23.4 12.8-5.8 9.8-5.8 24.6zM711.792 440l-33.2-95.6h17.8l23.8 70.2h.4l22.8-70.2h14l22.4 70.2h.4l24.8-70.2h16.6l-34.8 95.6h-14.2l-22.6-70.2h-.4l-23.2 70.2zM830.64 440v-95.6h16.4v12.8h.4q9.8-15.2 28-15.2 33.8 0 33.8 35v63h-16.4v-61.4q0-21.4-20.2-21.4-11.4 0-18.6 7-7 6.8-7 18.2V440zM982.614 440v-81.6h-15.8v-14h15.8v-17q0-15.6 6.4-22.6 6.4-7.2 20.2-7.2 4 0 10.4 1.2v12.4q-5.2-.8-9-.8-11.6 0-11.6 13.4v20.6h17.8v14h-17.8V440zM1021.683 392.2q0-22.2 12.6-36.2 12.6-14 34.2-14t34.2 14q12.6 14 12.6 36.2 0 22.2-12.6 36.2-12.6 14-34.2 14t-34.2-14q-12.6-14-12.6-36.2zm17.6 0q0 14.8 5.8 24.6 7.4 12.8 23.4 12.8 16 0 23.4-12.8 5.8-9.8 5.8-24.6t-5.8-24.6q-7.4-12.8-23.4-12.8-16 0-23.4 12.8-5.8 9.8-5.8 24.6zM1118.114 440l29.2-48.4-27.8-47.2h18.6l18.6 32.6 19.8-32.6h18.6l-29.2 47.2 29.2 48.4h-18.6l-19.8-33.6-20.4 33.6zM393.952 564.4v114q0 14.6-4.2 20.8-5.2 8-18.8 8-7.2 0-10.8-.8v-14q.8 0 2.8.4 1.8.4 3 .4 11.6 0 11.6-11V564.4zm-16.4-28v-18.8h16.4v18.8zM491.177 564.4V660h-16.4v-12.8h-.4q-9.8 15.2-28 15.2-33.8 0-33.8-35v-63h16.4v63q0 19.8 20.2 19.8 11.4 0 18.4-6.8 7.2-7 7.2-18.4v-57.6zM510.483 660v-95.6h15.2v12h.4q11-14.4 26.8-14.4 20.8 0 27.8 16.6 5.2-7.2 13.2-11.8 8.2-4.8 15.8-4.8 31.2 0 31.2 34.8V660h-16.4v-64q0-18.8-16.8-18.8-9 0-15.8 4.6-8 5.6-8 15.4V660h-16.4v-64q0-18.8-16.8-18.8-9 0-15.8 4.6-8 5.6-8 15.4V660zM658.752 704.8V564.4h16.4v11.4h.2q4.2-5.8 12.4-9.8 8.4-4 18.2-4 23.6 0 35.6 15.4 10.2 13.4 10.2 34.8 0 21.2-10.4 34.6-12.2 15.6-35.2 15.6-20 0-30.6-14.4h-.4v56.8zm75.4-92.6q0-15.6-7-25.2-7.8-11-22.8-11t-22.8 11q-7 9.6-7 25.2 0 15 7.8 25.2 8.4 11 22 11 15 0 22.8-11 7-9.6 7-25.2zM758.88 628.6l17.6-2.2q0 12.2 8.6 18.2 7.2 5 18.6 5 21.4 0 21.4-16.4 0-9.6-16.2-13.6l-30-7.2q-16.2-6.6-16.2-22.6 0-13.6 11.6-21.2 10-6.6 24.4-6.6 13.8 0 25.4 6.4 15.6 8.6 15.6 24.8l-16.4 2.2q0-10-7.2-15.6-6.6-5-16.6-5-20.4 0-20.4 14.2 0 8.6 16.4 12.6 28.4 7 30.8 8 16.4 7.2 16.4 23.4 0 14.2-12.8 22.2-11.6 7.2-28.6 7.2-17.2 0-28.2-7.8-12.6-8.8-14.2-26zM899.042 612.2q0-22.2 12.6-36.2 12.6-14 34.2-14t34.2 14q12.6 14 12.6 36.2 0 22.2-12.6 36.2-12.6 14-34.2 14t-34.2-14q-12.6-14-12.6-36.2zm17.6 0q0 14.8 5.8 24.6 7.4 12.8 23.4 12.8 16 0 23.4-12.8 5.8-9.8 5.8-24.6t-5.8-24.6q-7.4-12.8-23.4-12.8-16 0-23.4 12.8-5.8 9.8-5.8 24.6zM1030.673 660l-35.2-95.6h17l25.6 71.2h.4l24.6-71.2h16.8l-33.8 95.6zM1172.945 615.8h-72.6q0 14.8 7.4 24 7.8 9.8 21.4 9.8 21.4 0 26.8-21.4l16.2 2q-9.2 31.8-43.6 32.2-21.2.2-33.8-14.4-12-13.8-12-35 0-24 11.4-37.4 11.6-13.6 34.2-13.6 21.6 0 33.6 14.4 11 13.4 11 35.6zm-72.6-12.8h55q-3.6-28.2-28.8-28.2-11.4 0-18.8 8.6-6.6 8-7.4 19.6zM1186.452 660v-95.6h16.4v16.4h.4q5.8-9.6 13.4-13.6 7.8-4 20.4-4v18q-6.4-.4-11-.4-11 0-17.6 8.6-5.6 7.6-5.6 17V660zM300.486 798.4v-14h15.8v-29.8h16.4v29.8h17.8v14h-17.8v60.8q0 4.6.8 6.4 1.4 2.8 5.8 2.8 4.6 0 10.2-2v14q-9 2-16.2 2-11.4 0-14.8-5.4-2.2-3.4-2.2-13.4v-65.2zM361.155 880V737.6h16.4v59.6h.4q9.8-15.2 28-15.2 33.8 0 33.8 35v63h-16.4v-61.4q0-21.4-20.2-21.4-11.4 0-18.6 7-7 6.8-7 18.2V880zM543.46 835.8h-72.6q0 14.8 7.4 24 7.8 9.8 21.4 9.8 21.4 0 26.8-21.4l16.2 2q-9.2 31.8-43.6 32.2-21.2.2-33.8-14.4-12-13.8-12-35 0-24 11.4-37.4 11.6-13.6 34.2-13.6 21.6 0 33.6 14.4 11 13.4 11 35.6zm-72.6-12.8h55q-3.6-28.2-28.8-28.2-11.4 0-18.8 8.6-6.6 8-7.4 19.6zM606.036 880V737.6h16.4V880zM697.06 844.4v-11q-24.4 3.4-32.8 6.6-12.6 5-12.6 15 0 14.6 18.4 14.6 11.8 0 19.4-6.8 7.6-6.8 7.6-18.4zm0-21.8v-8.4q0-10.4-5.2-14.8-5-4.6-17.2-4.6-18.6 0-19.6 19.6l-16.4-1q3.2-31.4 36.2-31.4 38.6 0 38.6 29.6V856q0 10.8 7 10.8 2.4 0 5-1v13.6q-5.6 1.4-10.2 1.4-13.4 0-16.6-13.2-13.4 14.8-34 14.8-12.8 0-21.8-7.6-8.8-7.8-8.8-18.8 0-18.4 16.8-25.8 13-5.8 46.2-7.6zM727.06 880v-14l54.6-67.6h-49.6v-14h69.8V798l-55.4 68h56.6v14zM846.017 856.6l25-72.2h16.8l-41.4 116.6q-4.6 12.8-9.4 18.4-7 7.8-19 7.8-5.8 0-13.8-2.8v-14.2q6 1.8 10.6 1.8 10.6 0 15.4-13.4l6.6-18.4-32.2-95.8h17.4l23.6 72.2zM1033.558 737.6V880h-16.4v-11.4h-.4q-9.8 13.8-29.2 13.8-24.6 0-36.8-15.6-10.2-13-10.2-34.6 0-21.2 10.6-34.8 12-15.4 35-15.4 20.2 0 30.6 14.4h.4v-58.8zm-75.4 94.6q0 15.6 7 25.2 7.8 11 22.8 11t22.8-11q7-9.6 7-25.2 0-15-7.8-25.2-8.4-11-22-11-15 0-22.8 11-7 9.6-7 25.2zM1045.886 832.2q0-22.2 12.6-36.2 12.6-14 34.2-14t34.2 14q12.6 14 12.6 36.2 0 22.2-12.6 36.2-12.6 14-34.2 14t-34.2-14q-12.6-14-12.6-36.2zm17.6 0q0 14.8 5.8 24.6 7.4 12.8 23.4 12.8 16 0 23.4-12.8 5.8-9.8 5.8-24.6t-5.8-24.6q-7.4-12.8-23.4-12.8-16 0-23.4 12.8-5.8 9.8-5.8 24.6zM1192.717 796q-13.2 0-21 8.8-8.4 9.6-8.4 27.4 0 15.6 7.6 25.6 8 10.6 21.8 10.6t22.6-11.2q8.6-10.6 8.2-25.6-.8-35.6-30.8-35.6zm30.8 1.6v-13.2h16.4v96.4q0 44-44 44-18.8 0-30.4-8-13-9.2-14-27h17.6q-.2 11 7.6 16.8 7.2 5.4 18.6 5.4 18.2 0 24.6-11.4 3.6-6.8 3.6-21.8v-13.6h-.4q-13.4 17.2-32.6 17.2-16.4 0-28-9.8-15.6-13.2-15.6-40.4 0-22.2 10.6-35.6 11.6-14.6 33.2-14.6 23 0 32.4 15.4zM1263.045 880v-22.6h20.4V880z"/></g></svg>