<svg xmlns="http://www.w3.org/2000/svg" viewBox="0 0 800 500" height="500" width="800"><path fill="#fff" d="M0 0h800v500H0z"/><g font-weight="400" font-size="100" font-family="Akzidenz Grotesk" letter-spacing="-.03em" text-anchor="middle" fill="#222"><path d="M228.983 110V47h-21.4v-8.2h52.2V47h-21.4v63zM264.847 110V38.8h8.2v29.8h.2q4.9-7.6 14-7.6 16.9 0 16.9 17.5V110h-8.2V79.3q0-10.7-10.1-10.7-5.7 0-9.3 3.5-3.5 3.4-3.5 9.1V110zM356 87.9h-36.3q0 7.4 3.7 12 3.9 4.9 10.7 4.9 10.7 0 13.4-10.7l8.1 1q-4.6 15.9-21.8 16.1-10.6.1-16.9-7.2-6-6.9-6-17.5 0-12 5.7-18.7 5.8-6.8 17.1-6.8 10.8 0 16.8 7.2Q356 74.9 356 86zm-36.3-6.4h27.5q-1.8-14.1-14.4-14.1-5.7 0-9.4 4.3-3.3 4-3.7 9.8zM431.087 62.2v70.2h-8.2V104h-.2q-5.2 7.2-15.3 7.2-11.5 0-17.5-7.8-5.3-6.7-5.3-17.3 0-10.8 5.2-17.4 6-7.7 18-7.7 4.3 0 8.6 2t6.3 4.9h.2v-5.7zm-37.7 23.9q0 7.8 3.5 12.6 3.9 5.5 11.4 5.5 6.8 0 11-5.5 3.9-5.1 3.9-12.6 0-7.8-3.5-12.6-3.9-5.5-11.4-5.5t-11.4 5.5q-3.5 4.8-3.5 12.6zM479.452 62.2V110h-8.2v-6.4h-.2q-4.9 7.6-14 7.6-16.9 0-16.9-17.5V62.2h8.2v31.5q0 9.9 10.1 9.9 5.7 0 9.2-3.4 3.6-3.5 3.6-9.2V62.2zM488.905 110V62.2h8.2V110zm0-61.8v-9.4h8.2v9.4zM548.717 77.1l-8.8.9q-.9-4.9-4.4-7.7-3.4-2.9-8.3-2.9-7.9 0-11.8 6.1-3.1 5-3.1 12.7 0 7.8 3.3 12.8 3.9 5.8 11.4 5.8 6.1 0 9.8-3.4 3.7-3.5 3.9-9.5l8.8.7q-1 8.6-7.1 13.6-6 5-15.1 5-11.3 0-17.6-6.7-6.2-6.7-6.2-17.9 0-11.4 6.2-18.5t17.5-7.1q7.9 0 13.6 4 6.2 4.3 7.9 12.1zM555.37 110V38.8h8.2v43.9l18.8-20.3h9.9l-17.4 18.9 21.5 28.7h-10.3l-16.8-22.8-5.7 6.1V110zM210.118 220v-71.2h8.2v29.4h.2q5.3-7.2 15.3-7.2 11.5 0 17.6 7.7 5.2 6.8 5.2 17.4 0 10.8-5.1 17.3-6.1 7.8-18.4 7.8-9.6 0-14.7-6.9h-.1v5.7zm37.7-23.9q0-7.8-3.5-12.6-3.9-5.5-11.4-5.5-6.8 0-11 5.5-3.9 5.1-3.9 12.6 0 7.8 3.5 12.6 3.9 5.5 11.4 5.5t11.4-5.5q3.5-4.8 3.5-12.6zM263.382 220v-47.8h8.2v8.2h.2q2.9-4.8 6.7-6.8 3.9-2 10.2-2v9q-3.2-.2-5.5-.2-5.5 0-8.8 4.3-2.8 3.8-2.8 8.5V220zM290.88 196.1q0-11.1 6.3-18.1 6.3-7 17.1-7t17.1 7q6.3 7 6.3 18.1 0 11.1-6.3 18.1-6.3 7-17.1 7t-17.1-7q-6.3-7-6.3-18.1zm8.8 0q0 7.4 2.9 12.3 3.7 6.4 11.7 6.4 8 0 11.7-6.4 2.9-4.9 2.9-12.3t-2.9-12.3q-3.7-6.4-11.7-6.4-8 0-11.7 6.4-2.9 4.9-2.9 12.3zM355.896 220l-16.6-47.8h8.9l11.9 35.1h.2l11.4-35.1h7l11.2 35.1h.2l12.4-35.1h8.3l-17.4 47.8h-7.1l-11.3-35.1h-.2l-11.6 35.1zM415.32 220v-47.8h8.2v6.4h.2q4.9-7.6 14-7.6 16.9 0 16.9 17.5V220h-8.2v-30.7q0-10.7-10.1-10.7-5.7 0-9.3 3.5-3.5 3.4-3.5 9.1V220zM491.307 220v-40.8h-7.9v-7h7.9v-8.5q0-7.8 3.2-11.3 3.2-3.6 10.1-3.6 2 0 5.2.6v6.2q-2.6-.4-4.5-.4-5.8 0-5.8 6.7v10.3h8.9v7h-8.9V220zM510.84 196.1q0-11.1 6.3-18.1 6.3-7 17.1-7t17.1 7q6.3 7 6.3 18.1 0 11.1-6.3 18.1-6.3 7-17.1 7t-17.1-7q-6.3-7-6.3-18.1zm8.8 0q0 7.4 2.9 12.3 3.7 6.4 11.7 6.4 8 0 11.7-6.4 2.9-4.9 2.9-12.3t-2.9-12.3q-3.7-6.4-11.7-6.4-8 0-11.7 6.4-2.9 4.9-2.9 12.3zM559.057 220l14.6-24.2-13.9-23.6h9.3l9.3 16.3 9.9-16.3h9.3l-14.6 23.6 14.6 24.2h-9.3l-9.9-16.8-10.2 16.8zM196.976 282.2v57q0 7.3-2.1 10.4-2.6 4-9.4 4-3.6 0-5.4-.4v-7q.4 0 1.4.2.9.2 1.5.2 5.8 0 5.8-5.5v-58.9zm-8.2-14v-9.4h8.2v9.4zM245.588 282.2V330h-8.2v-6.4h-.2q-4.9 7.6-14 7.6-16.9 0-16.9-17.5v-31.5h8.2v31.5q0 9.9 10.1 9.9 5.7 0 9.2-3.4 3.6-3.5 3.6-9.2v-28.8zM255.24 330v-47.8h7.6v6h.2q5.5-7.2 13.4-7.2 10.4 0 13.9 8.3 2.6-3.6 6.6-5.9 4.1-2.4 7.9-2.4 15.6 0 15.6 17.4V330h-8.2v-32q0-9.4-8.4-9.4-4.5 0-7.9 2.3-4 2.8-4 7.7V330h-8.2v-32q0-9.4-8.4-9.4-4.5 0-7.9 2.3-4 2.8-4 7.7V330zM329.376 352.4v-70.2h8.2v5.7h.1q2.1-2.9 6.2-4.9 4.2-2 9.1-2 11.8 0 17.8 7.7 5.1 6.7 5.1 17.4 0 10.6-5.2 17.3-6.1 7.8-17.6 7.8-10 0-15.3-7.2h-.2v28.4zm37.7-46.3q0-7.8-3.5-12.6-3.9-5.5-11.4-5.5t-11.4 5.5q-3.5 4.8-3.5 12.6 0 7.5 3.9 12.6 4.2 5.5 11 5.5 7.5 0 11.4-5.5 3.5-4.8 3.5-12.6zM379.44 314.3l8.8-1.1q0 6.1 4.3 9.1 3.6 2.5 9.3 2.5 10.7 0 10.7-8.2 0-4.8-8.1-6.8l-15-3.6q-8.1-3.3-8.1-11.3 0-6.8 5.8-10.6 5-3.3 12.2-3.3 6.9 0 12.7 3.2 7.8 4.3 7.8 12.4l-8.2 1.1q0-5-3.6-7.8-3.3-2.5-8.3-2.5-10.2 0-10.2 7.1 0 4.3 8.2 6.3 14.2 3.5 15.4 4 8.2 3.6 8.2 11.7 0 7.1-6.4 11.1-5.8 3.6-14.3 3.6-8.6 0-14.1-3.9-6.3-4.4-7.1-13zM449.52 306.1q0-11.1 6.3-18.1 6.3-7 17.1-7t17.1 7q6.3 7 6.3 18.1 0 11.1-6.3 18.1-6.3 7-17.1 7t-17.1-7q-6.3-7-6.3-18.1zm8.8 0q0 7.4 2.9 12.3 3.7 6.4 11.7 6.4 8 0 11.7-6.4 2.9-4.9 2.9-12.3t-2.9-12.3q-3.7-6.4-11.7-6.4-8 0-11.7 6.4-2.9 4.9-2.9 12.3zM515.337 330l-17.6-47.8h8.5l12.8 35.6h.2l12.3-35.6h8.4l-16.9 47.8zM586.473 307.9h-36.3q0 7.4 3.7 12 3.9 4.9 10.7 4.9 10.7 0 13.4-10.7l8.1 1q-4.6 15.9-21.8 16.1-10.6.1-16.9-7.2-6-6.9-6-17.5 0-12 5.7-18.7 5.8-6.8 17.1-6.8 10.8 0 16.8 7.2 5.5 6.7 5.5 17.8zm-36.3-6.4h27.5q-1.8-14.1-14.4-14.1-5.7 0-9.4 4.3-3.3 4-3.7 9.8zM593.226 330v-47.8h8.2v8.2h.2q2.9-4.8 6.7-6.8 3.9-2 10.2-2v9q-3.2-.2-5.5-.2-5.5 0-8.8 4.3-2.8 3.8-2.8 8.5V330zM150.243 399.2v-7h7.9v-14.9h8.2v14.9h8.9v7h-8.9v30.4q0 2.3.4 3.2.7 1.4 2.9 1.4 2.3 0 5.1-1v7q-4.5 1-8.1 1-5.7 0-7.4-2.7-1.1-1.7-1.1-6.7v-32.6zM180.577 440v-71.2h8.2v29.8h.2q4.9-7.6 14-7.6 16.9 0 16.9 17.5V440h-8.2v-30.7q0-10.7-10.1-10.7-5.7 0-9.3 3.5-3.5 3.4-3.5 9.1V440zM271.73 417.9h-36.3q0 7.4 3.7 12 3.9 4.9 10.7 4.9 10.7 0 13.4-10.7l8.1 1q-4.6 15.9-21.8 16.1-10.6.1-16.9-7.2-6-6.9-6-17.5 0-12 5.7-18.7 5.8-6.8 17.1-6.8 10.8 0 16.8 7.2 5.5 6.7 5.5 17.8zm-36.3-6.4h27.5q-1.8-14.1-14.4-14.1-5.7 0-9.4 4.3-3.3 4-3.7 9.8zM303.018 440v-71.2h8.2V440zM348.53 422.2v-5.5q-12.2 1.7-16.4 3.3-6.3 2.5-6.3 7.5 0 7.3 9.2 7.3 5.9 0 9.7-3.4 3.8-3.4 3.8-9.2zm0-10.9v-4.2q0-5.2-2.6-7.4-2.5-2.3-8.6-2.3-9.3 0-9.8 9.8l-8.2-.5q1.6-15.7 18.1-15.7 19.3 0 19.3 14.8V428q0 5.4 3.5 5.4 1.2 0 2.5-.5v6.8q-2.8.7-5.1.7-6.7 0-8.3-6.6-6.7 7.4-17 7.4-6.4 0-10.9-3.8-4.4-3.9-4.4-9.4 0-9.2 8.4-12.9 6.5-2.9 23.1-3.8zM363.53 440v-7l27.3-33.8h-24.8v-7h34.9v6.8l-27.7 34h28.3v7zM423.01 428.3l12.5-36.1h8.4l-20.7 58.3q-2.3 6.4-4.7 9.2-3.5 3.9-9.5 3.9-2.9 0-6.9-1.4v-7.1q3 .9 5.3.9 5.3 0 7.7-6.7l3.3-9.2-16.1-47.9h8.7l11.8 36.1zM516.78 368.8V440h-8.2v-5.7h-.2q-4.9 6.9-14.6 6.9-12.3 0-18.4-7.8-5.1-6.5-5.1-17.3 0-10.6 5.3-17.4 6-7.7 17.5-7.7 10.1 0 15.3 7.2h.2v-29.4zm-37.7 47.3q0 7.8 3.5 12.6 3.9 5.5 11.4 5.5t11.4-5.5q3.5-4.8 3.5-12.6 0-7.5-3.9-12.6-4.2-5.5-11-5.5-7.5 0-11.4 5.5-3.5 4.8-3.5 12.6zM522.943 416.1q0-11.1 6.3-18.1 6.3-7 17.1-7t17.1 7q6.3 7 6.3 18.1 0 11.1-6.3 18.1-6.3 7-17.1 7t-17.1-7q-6.3-7-6.3-18.1zm8.8 0q0 7.4 2.9 12.3 3.7 6.4 11.7 6.4 8 0 11.7-6.4 2.9-4.9 2.9-12.3t-2.9-12.3q-3.7-6.4-11.7-6.4-8 0-11.7 6.4-2.9 4.9-2.9 12.3zM596.36 398q-6.6 0-10.5 4.4-4.2 4.8-4.2 13.7 0 7.8 3.8 12.8 4 5.3 10.9 5.3t11.3-5.6q4.3-5.3 4.1-12.8-.4-17.8-15.4-17.8zm15.4.8v-6.6h8.2v48.2q0 22-22 22-9.4 0-15.2-4-6.5-4.6-7-13.5h8.8q-.1 5.5 3.8 8.4 3.6 2.7 9.3 2.7 9.1 0 12.3-5.7 1.8-3.4 1.8-10.9v-6.8h-.2q-6.7 8.6-16.3 8.6-8.2 0-14-4.9-7.8-6.6-7.8-20.2 0-11.1 5.3-17.8 5.8-7.3 16.6-7.3 11.5 0 16.2 7.7zM631.523 440v-11.3h10.2V440z"/></g></svg>