<svg xmlns="http://www.w3.org/2000/svg" viewBox="0 0 1600 1000" height="1000" width="1600"><path fill="#fff" d="M0 0h1600v1000H0z"/><g font-weight="400" font-size="200" font-family="American Typewriter" letter-spacing="-.03em" text-anchor="middle" fill="#222"><path d="M433.556 193.6q0 15 10.2 15 1.6 0 4.8-.4 3.2-.6 4.8-.6 2.6 0 4.4 2 2 1.8 2 4.4 0 7-9 7h-1.2q-1-.2-1.4-.2l-9.8-1.4q-5.6-.8-12.6-.8-7.6 0-13.4.8l-10 1.4q-.6 0-1.4.2h-1.4q-8.8 0-8.8-7 0-6.4 6.4-6.4 1.6 0 4.8.6 3.2.4 4.8.4 10 0 10-15v-14l.2-17.6v-17l-.2-32.6q0-14.2-14.6-14.2h-6.2q-14.4 0-14.4 14 0 5 .2 6.8l.8 7.4q.2 1.8.2 5 0 12.6-7.8 12.6-7.4 0-7.4-9.2 0-2.6.4-9 .6-9.6.6-12.2 0-5-.4-10.4-.8-10.6-.8-9 0-8.4 7.6-8.4 2.8 0 13 .6 1 0 16.4.4l22.8.4q4 0 21.4-.4 3.8 0 13-.6 8.2-.6 12.8-.6 10 0 10 8.2v.4q0 2-.6 7.4-.4 5.4-1 11.6v2.2q0 3 .6 9.4.8 8.4.8 10.4 0 8.2-7.8 8.2-7.6 0-7.6-10 0-3.6.6-10.6.6-7.2.6-10.8 0-13.8-15.8-13.8h-5.6q-7.4 0-10.6 3.2-3.2 3-3.6 10.2l-.6 14zM522.7 91.2l-.8 38.8q8-7.6 14.6-10.4 6.6-3 15.6-3 17.2 0 27.6 9.8 10.4 9.8 10.4 25.8v33.4q0 11.8.2 13 .8 10 5.2 10 1.6 0 4.6-.8 1.2-.2 3.2-.2 7.4 0 7.4 6.6t-9.6 6.6q-2.6 0-7.6-.6-8.4-1-13.6-1-5.2 0-8 .4-8.4 1.2-10.4 1.2-3.6 0-6-2-2.4-2.2-2.4-5.4 0-2.6 2-4.4 2.2-1.8 5-1.8 2.2 0 5.2 1 1.8.6 3.4.6 6 0 6.2-13 0-2.4.2-9.4l.2-8.6V167q0-20.4-4-27.4-5.8-10.4-20.4-10.4-15.8 0-23 10.8-5 7.4-5.2 23.8l-.2 14.4q0 1.2-.2 4v3.8q0 11.4.2 13.2 1 9.8 5.8 9.8 1.6 0 4.4-.6 3-.8 4.4-.8 6.4 0 6.4 6.2 0 7-8.8 7-2.8 0-8.4-.6-7.6-.8-13-.8-3.4 0-9.4.6-8 .8-10.2.8-8.2 0-8.2-7.2 0-6 7.6-6 2.6 0 3.8.4 3.4.6 4.8.6 3.2 0 4.2-6 1.2-6.2 1.4-25l.2-35.8q0-30-1.2-37.8-1.2-8-5.6-8-1.4 0-4.2.6-2.8.6-4.4.6-6.8 0-6.8-6.4 0-2.8 2.4-4.8t5.8-2q1 0 6.8.6 3.8.4 8.2.4 1.8 0 5-.4t4.6-.4q4.6 0 4.6 6.6zM703.444 161.2q0 7.6-1 9.4-1 1.6-5.8 1.6h-63.6q-2.6 0-3.4.8-.8.6-.8 2.2 0 15 9 25t22.4 10q8.8 0 16-4.8 7.4-4.8 9.6-12.2l1.8-5.8q1.4-4.8 6.6-4.8 7.4 0 7.4 7.6 0 13-13.2 23.2-13.2 10-30 10-21 0-33.4-14-12.4-14.2-12.4-38 0-24.4 13.2-39.6 13.2-15.2 34.4-15.2 18.8 0 31 12.6t12.2 32zm-72.6-5.2q0 2.8 4.4 2.8h47.8q4.2 0 4.2-2.8 0-10.6-8-18.4-8-7.8-18.8-7.8-11.2 0-20.4 8.2-9.2 8-9.2 18zM828.112 221v-9q-11.2 11.4-27.6 11.4-20 0-32.2-14.6-12.2-14.8-12.2-39.2 0-24.4 11.6-38.6 11.8-14.4 31.8-14.4 18.6 0 31 15-.4-4-.4-3.8 0-8.6 6.8-8.6t6.8 10.4v4.2l-.8 23.8v38.2l.6 28.6q.2 12.2 1.4 15.8 1.2 3.8 5.2 3.8-.2 0 4.8-1 2-.4 3.2-.4 6.4 0 6.4 6.6t-7.4 6.6q-3.6 0-10.8-.6-7.2-.6-10.8-.6-3.6 0-10.8.6-7 .6-10.4.6-7.4 0-7.4-6.6 0-6.4 6.8-6.4 2.4 0 6.4.8 2 .4 2.6.4 4.4 0 5.2-10 .2-1.2.2-13zm-.2-45.8v-5.6q-.4-13.4-1.8-19.2-2.6-9.8-10.6-15.6-6.8-5-15.2-5-13.2 0-20.6 10.4-7.4 10.4-7.4 29 0 19.4 7.6 30.2t21.2 10.8q10.2 0 17.6-6.4 7.6-6.6 8.8-16.4.4-3.4.4-12.2zM942.26 215v-6.2q-10.6 14.6-31.4 14.6-23.6 0-32.8-14.6-4-6.4-4.4-15-.2-4.2-.2-17.6v-16.6q0-27.4-5.8-27.4-1.2 0-3.8.6-2.6.4-4 .4-7 0-7-6.6 0-6.4 8.6-6.4 2 0 5.8.4 4 .4 6 .4 1.8 0 6.2-.6 3-.4 3.4-.4 6.2 0 6.2 7.6v4.2l-.2 13-.6 14.8v13q0 17.4 2.8 25 4.6 12.6 22 12.6 8.6 0 15.2-3.8 6.6-4 9.2-10.4 3.2-7.8 3.2-29.6v-11-13q-1-9.6-5.2-9.6-2.2 0-3.6.4h-2.4q-7 0-7-6.2 0-7 7.8-7 1.8 0 5.4.4 3.8.4 5.6.4 1.6 0 4.8-.2 3.2-.4 4.8-.4 6 0 6 6.4 0 2.8-.4 4.4-1 7.6-1 22.4v30.8q0 12.2.2 13.6 1 10.6 5.6 10.6 1.4 0 4-.4 2.6-.6 4-.6 6.8 0 6.8 6.6 0 6.8-8.4 6.8-1.8 0-5.2-.4-5-.6-6.2-.6-.6 0-4.2.4-2.4.6-4.2.6-5.6 0-5.6-5.8z"/><path d="M1010.888 162v26q0 10 .2 11.8 1 9 5.4 9 1 0 5-1 1-.4 3-.4 7.6 0 7.6 6.6 0 2.8-2.6 4.8-2.4 2-6.2 2-3.2 0-9.8-.8-6.4-1-9.6-1-5.2 0-11.6.8-7.8 1-10.4 1-8 0-8-6.8 0-6.6 6.8-6.6 1.6 0 4.6.6 3.2.6 4.8.6 4.8 0 5.8-12.8V162v-17.4q-1-12.6-6-12.6-1.6 0-4.6.8-2.8.6-4.2.6-7.2 0-7.2-6.4 0-6.8 8.8-6.8 3.8 0 5.4.2 6.4.8 8.2.8 1.6 0 4.8-.4 3.4-.6 5-.6 5.8 0 5.8 7.8 0 .8-.2 2.4-.2 1.6-.2 2.4-.2 1.6-.4 12.4-.2 8.2-.2 16.8zm-10.4-52.4q-4.6 0-8-3.2-3.2-3.4-3.2-8t3.2-7.8q3.4-3.2 8-3.2t7.8 3.2q3.4 3.2 3.4 7.8t-3.4 8q-3.2 3.2-7.8 3.2zM1092.797 154q0-8 10-9.2-1-7-6.8-11-5.6-4-14.6-4-13.8 0-22.2 11-8.4 11-8.4 29.2 0 18.8 7.8 29.6 8 10.6 22 10.6 8.8 0 15.2-5 6.6-5 9-13.8 2-7 2.4-8 2.2-4 6.4-4 3.4 0 5.6 2.2 2.2 2.2 2.2 5.6 0 5-3.2 12t-7.6 11.6q-11.8 12.6-30.6 12.6-20.4 0-33-14.4-12.4-14.4-12.4-37.8 0-24.8 12.8-39.6 13-15 34.4-15 16 0 26.6 8.8 10.6 8.6 10.6 22 0 7.4-4.2 12.2-4 4.8-10.4 4.8-5 0-8.4-3-3.2-3-3.2-7.4zM1159.016 169.4l34.2-32q1.8-1.6 1.8-3.6t-2.6-2q-2 0-5.8.8t-5.8.8q-7 0-7-6.4 0-7 8.8-7 2.2 0 5.6.4 13.8 1.6 21 1.6 4 0 6.8-.4l8.2-1.2q2.8-.4 4.6-.4 9.8 0 9.8 6.8 0 6.4-6.8 6.4-1.6 0-4.6-.4-2.8-.4-4.4-.4-5 0-10.4 5l-21 19.2q-2.2 2-2.2 3.2 0 1 1.6 3l25.6 33.2q9.8 12.6 14 12.6 1 0 3.2-.4 2.4-.6 3.8-.6 7.2 0 7.2 6.4 0 6.8-9.2 6.8-3.6 0-10.8-.8-7-.8-10.6-.8-3.2 0-9.4.8-6 .8-9 .8-7.6 0-7.6-6.8 0-6.4 7.2-6.4 2 0 3.2.2 3.6 1 4.6 1 1.8 0 1.8-1.4v-.6q-.2-.2-.2-.4l-2-2.8-2.6-3.8-20-26.6q-2-2.6-3.2-2.6-.8 0-3 2l-14.8 13.2v4.6q0 9.6.2 10.8 1 7 5.6 7 2 0 3.4-.2 1.4-.4 3.8-.4 6.8 0 6.8 6.6t-7.6 6.6q-3.4 0-10.4-.8-6.8-1-10.4-1-4.6 0-10.6.8-7.6 1-10.2 1-7.8 0-7.8-6.6t7.6-6.6q1.6 0 3.8.4 3.2.6 4.4.6 4.8 0 5.4-7.6l.6-7.8v-80.8q-.4-10.8-1.4-13.6-1-3-4.2-3-1 0-3.8.4-2.8 1-5.6 1-6.6 0-6.6-6.2 0-6.8 7.8-6.8 4 0 5.6.2 5 .6 6.6.6 1.6 0 4.6-.4 3.2-.6 4.6-.6h1.4q6.4 0 6.4 8.2zM384.823 312.4q-1.6 16.6-1.8 39.4 6.4-8.4 13-11.8 6.6-3.4 16.6-3.4 20 0 31.8 14t11.8 37.2q0 25.4-12.6 40.6-12.4 15-33.6 15-20.6 0-29.8-15.4.8 5.8.8 6.4 0 7.2-7 7.2t-7-10q0-2.8.2-4.2 0-4.6.2-9.8l.6-15.4.4-20.2-.4-53.4q-.2-7.4-1.6-10-1.2-2.6-4.4-2.6-.6 0-5.2.8-2.2.4-3.8.4-6.8 0-6.8-6.4 0-6.6 8-6.6 2.4 0 4 .2l4.8.6q3.2.4 5.2.4 2.2 0 6.2-.6 4-.8 6-.8 4.4 0 4.4 5.6zm-.2 58q-1.4 6.4-1.4 18 0 19.8 3.2 27.2 6.2 14.6 23.6 14.6 13.8 0 21.8-10.8 8.2-11 8.2-29.4 0-18.8-7.8-29.4-7.6-10.8-21-10.8-9.4 0-17 6-7.6 5.8-9.6 14.6zM495.914 345.8v5.4q10.4-14.6 27.8-14.6 14 0 22.6 8 8.8 7.8 8.8 20.2 0 8.8-4.4 14.4-4.4 5.4-11.6 5.4-4.6 0-7.8-2.8t-3.2-6.8q0-3.2 2.4-5.6 2.4-2.6 5.6-2.6.6 0 2.6.6 1.2-2.4 1.2-4.4 0-5.8-5.2-9.8-5-4-12.6-4-15.6 0-20.8 14-3.2 8.6-3.2 26v13.2q0 13.4.2 15 1 11.4 6.2 11.4 2.6 0 5.4-.8 2.2-.6 3.8-.6 6.4 0 6.4 6.4 0 7-8.2 7h-.8q-3 0-9.2-.8-6-.6-9-.6-8 0-12.6.4l-11.2 1q-8.2 0-8.2-7 0-6.2 7.6-6.2 2 0 3 .2l3 .6q2 .4 2.8.4 5 0 5.4-9.2l.4-10.2-.6-45.4q-.6-11.8-6-11.8-1.6 0-4.4.6-2.8.6-4.4.6-6.6 0-6.6-6.4 0-7 8.6-7 2 0 6 .6 4 .4 6 .4 1.6 0 5.2-.4 1.6-.4 3.8-.4 5.2 0 5.2 5.6zM603.76 443.4q-21 0-33.6-14.4-12.6-14.6-12.6-39t12.6-38.8q12.8-14.6 34.2-14.6 21.8 0 34.4 14.2 12.6 14.2 12.6 38.6 0 24.4-13 39.2-13 14.8-34.6 14.8zm1-93.6q-14 0-22 9.8t-8.8 27.8v2.6q0 18.8 7.8 29.6 8 10.6 22.2 10.6 14.6 0 22.8-10.6 8.4-10.8 8.4-29.8 0-40-30.4-40zM686.792 368l14.6 60.8 15.6-70.4q2.4-11.2 5.2-14.8 3-3.8 9-3.8 6.2 0 9 3.8 3 3.8 5.4 14.8l15 70.4 14.8-60.8q1.4-5.8 1.4-10v-.4q0-5.4-4.6-5.4-1.8 0-5.2.8-3.4.6-5.2.6-7.4 0-7.4-6.6 0-7 9.8-7 1.4 0 3 .2l8.2 1q3.2.4 10 .4 5.4 0 10.4-.6l6.6-.8q.8-.2 2.2-.2 8.6 0 8.6 6.8 0 6.6-6.6 6.6-2.2 0-3.4-.4-3.2-.4-3.6-.4-5.4 0-11.2 22.2l-13.6 51.4q-2.4 9.4-5.6 13.2-3.2 3.6-8.8 3.6-10.6 0-14.2-16.8l-15-71.2-15.6 70q-2.2 10-5.6 14.2-3.4 4-9.2 4-9.4 0-12.6-12.4l-19.2-72q-1.8-6.4-5.6-6.4-1.2 0-3.6.6-3.2.4-4.4.4-6.6 0-6.6-6.4 0-7 9-7 1.6 0 2.2.2l8.6 1.2q2.8.4 7.4.4 5.6 0 12.8-.8 9-1 10.4-1 8.8 0 8.8 6.8 0 6.6-7.4 6.6-1.4 0-5-.4-2.6-.8-5-.8-5.2 0-5.2 6 0 4 1.4 9.8z"/><path d="M843.548 346.2v5.6q12-15.2 32-15.2 10.8 0 20.4 5.6 9.6 5.4 13 13.6 2.8 6.8 2.8 17.8v38q0 8.6.2 10.2 1 6.8 5.4 6.8 1.8 0 4.6-.4 3-.6 4.2-.6 2.6 0 4.4 1.8 2 1.8 2 4.4 0 3-2.4 5t-5.8 2q-2.8 0-9.2-.8-6.4-.8-12-.8-5.2 0-8.6.4-10 1.2-10.6 1.2-8 0-8-7 0-6.2 6.8-6.2 1.6 0 3.6.4 3.8.8 4.8.8 4.8 0 5.2-11l.4-10.2.2-12.2v-15.2q0-10.6-1-14.6-1.8-7.6-7.8-11.8-6.6-4.6-15-4.6-16 0-23 11.4-4.8 7.8-4.8 26.6v26.6q0 8.8 1.2 12 1.2 3.2 4.4 3.2 1.6 0 4.4-.8 2.8-.8 4.6-.8 6.2 0 6.2 6.8 0 6.6-8 6.6-1.6 0-10.4-1.2-4.4-.6-9.8-.6-4.2 0-11.2.8-8.8 1-10 1-8.4 0-8.4-6.8 0-6.4 6.4-6.4 1 0 3.6.6 2.8.6 5.4.6 6 0 6.2-11.6l.4-22.2v-24.2l-.4-7q-.4-6.8-1.8-9.2-1.2-2.6-4.4-2.6-1.4 0-4.2.6-2.6.4-4 .4-7.2 0-7.2-6.4 0-6.6 9-6.6 1.2 0 2 .2l7.4.8q3.2 0 5.6-.4 5.2-.4 5.4-.4 5.8 0 5.8 6zM1037.492 321.8q0-2.8 2-5-3.4-3.2-10-3.2-8.6 0-13.6 5.6-4.8 5.4-4.8 15.2v3.6q0 2.6 2.6 2.6h15.6q6.6 0 6.6 7.2t-6.6 7.2h-14.8q-3.4 0-3.4 3.6v56q0 7.4.2 8.6 1 5.4 5 5.4 1 0 5-1 2.8-.4 4-.4 6.8 0 6.8 6.6 0 7-8.2 7-3.4 0-10.4-.8-6.8-.8-10.2-.8-6 0-10.8.6-7.8 1-10 1-8.6 0-8.6-7 0-2.6 2-4.6 2.2-2 5-2 2 0 4.4.8 2.6.6 4.6.6 3.8 0 4.8-4.8t1.2-23.2l.2-42q0-3.6-3.6-3.6h-10q-7 0-7-7.4 0-7 7.2-7h11.4q2.6 0 2.6-2.6v-3.6q0-15.8 8.4-24.2 8.4-8.4 23.8-8.4 12.6 0 20.2 5.2 7.6 5 7.6 13.6 0 4.4-2.8 7.2-2.8 2.6-7 2.6-4 0-6.8-2.4-2.6-2.6-2.6-6.2z"/><path d="M1082.745 443.4q-21 0-33.6-14.4-12.6-14.6-12.6-39t12.6-38.8q12.8-14.6 34.2-14.6 21.8 0 34.4 14.2 12.6 14.2 12.6 38.6 0 24.4-13 39.2-13 14.8-34.6 14.8zm1-93.6q-14 0-22 9.8t-8.8 27.8v2.6q0 18.8 7.8 29.6 8 10.6 22.2 10.6 14.6 0 22.8-10.6 8.4-10.8 8.4-29.8 0-40-30.4-40z"/><path d="M1153.433 420l27.8-31.8-27.8-32.8q-2.8-3.2-6.8-3.2-1.6 0-2.4.2l-3.4.8q-.8.2-2.8.2-6.6 0-6.6-6.4 0-6.8 8.2-6.8h.6q.2 0 10 .8 5 .4 8.4.4 3.4 0 9.8-.6t9.6-.6q8.2 0 8.2 6.8 0 6.4-7.6 6.4-1.6 0-3-.4l-3-.8h-1.2q-.8 0-.8.4.4 1.2 1.8 2.8l18.2 22 19-22q1.8-2 1.8-2.8-.2-.4-1-.4-1 0-3.4.6-2.2.6-3.4.6-7.2 0-7.2-6.8 0-6.6 8.4-6.6-.4 0 10.6 1 4.4.4 9.4.4t10.6-.6q5.6-.6 8-.6 8.8 0 8.8 6.8 0 6.6-6.8 6.6-1.6 0-4.6-.8-3-.8-4.6-.8-4.8 0-13.2 9.6l-23.2 26.4 31.2 36.8q2.8 3.4 6.8 3.4 1.2 0 3.6-.4 2.6-.4 3.8-.4 7.2 0 7.2 6.4 0 7-8.4 7h-1.6l-7.8-1q-3.2-.4-9.6-.4-5.4 0-10.8.6l-7.2.8h-2.2q-9.4 0-9.4-6.4 0-7 7.4-7 2.6 0 7.4.8.4.2 1.4.2 2 0 2-1.6 0-.6-.6-1.2l-.6-.8-22.2-26-22.6 26q-1.4 1.6-1.4 2.4 0 1 2 1 1.4 0 4.2-.4 2.8-.4 4.2-.4 8.6 0 8.6 7 0 6.4-8.6 6.4h-2.8l-8-.8q-6-.6-10.6-.6-3.6 0-8.6.6-6.8.8-10 .8-8.4 0-8.4-6.8 0-6.6 7.2-6.6 1.2 0 3.6.4 2.4.2 3.6.2 3.8 0 10.8-8zM296.136 676.4q0 4.2-3.6 7.8 5.4 4 11 4 11.2 0 16-6.6 5-6.6 5-21.2l.2-62.8q0-17.6-1-21.6-1-4.2-5.4-4.2-2.2 0-5.6.8-1.8.6-3.6.6-6.4 0-6.4-6.4 0-6.6 8.4-6.6 3 0 5.2.2 6.4.6 9 .6 1.6 0 5-.4 3.4-.6 5-.6 5.8 0 5.8 6.4 0 1-.2 4-.2 3.6-.2 5.8-.2 3.2-.6 14.4-.4 12.6-.4 19.4v45.2q0 12-1 17.8-1.8 9.4-7.2 16-9.6 11.6-26.8 11.6-12 0-20-6t-8-15q0-5 3-8.4 2.8-3.2 7.2-3.2 3.8 0 6.6 2.4 2.6 2.6 2.6 6zm33.6-126.8q-4.6 0-8-3.2-3.2-3.4-3.2-8t3.2-7.8q3.4-3.2 8-3.2t8 3.4q3.4 3.2 3.4 7.6 0 4.6-3.4 8-3.4 3.2-8 3.2zM440.94 655v-6.2q-10.6 14.6-31.4 14.6-23.6 0-32.8-14.6-4-6.4-4.4-15-.2-4.2-.2-17.6v-16.6q0-27.4-5.8-27.4-1.2 0-3.8.6-2.6.4-4 .4-7 0-7-6.6 0-6.4 8.6-6.4 2 0 5.8.4 4 .4 6 .4 1.8 0 6.2-.6 3-.4 3.4-.4 6.2 0 6.2 7.6v4.2l-.2 13-.6 14.8v13q0 17.4 2.8 25 4.6 12.6 22 12.6 8.6 0 15.2-3.8 6.6-4 9.2-10.4 3.2-7.8 3.2-29.6v-11-13q-1-9.6-5.2-9.6-2.2 0-3.6.4h-2.4q-7 0-7-6.2 0-7 7.8-7 1.8 0 5.4.4 3.8.4 5.6.4 1.6 0 4.8-.2 3.2-.4 4.8-.4 6 0 6 6.4 0 2.8-.4 4.4-1 7.6-1 22.4v30.8q0 12.2.2 13.6 1 10.6 5.6 10.6 1.4 0 4-.4 2.6-.6 4-.6 6.8 0 6.8 6.6 0 6.8-8.4 6.8-1.8 0-5.2-.4-5-.6-6.2-.6-.6 0-4.2.4-2.4.6-4.2.6-5.6 0-5.6-5.8z"/><path d="M507.167 566v5.8q7.2-8.6 13.6-11.8 6.4-3.4 16-3.4 19.6 0 28.8 15.2 6.8-8.4 13.8-11.8 7-3.4 18-3.4 11.4 0 20.4 4.8 10 5.4 13.8 15.2 2.6 6.6 2.6 20.8v19.4l-.2 15q0 8.2.2 10 1 7.2 5.2 7.2 1.4 0 4.2-.6 2.8-.6 4.2-.6 7 0 7 6 0 7-8 7-3 0-9.2-.8-6-.6-9.2-.6-3.4 0-10 .6-6.4.8-9.8.8-8.4 0-8.4-7 0-6 6.4-6 .8 0 4 .4 1.2.4 3.2.4 3.4 0 4.2-3.4 1-3.4 1.2-17l.2-12.2v-13.2q0-13.8-2.2-20-2-6.4-7.8-10-5.8-3.6-13.2-3.6-14.2 0-19.8 9.8-4.4 7.8-4.4 27.2v14.2q0 18.8.8 23.6 1 4.6 4.8 4.6 1.2 0 3.4-.4 2.4-.6 3.6-.6 2.8 0 4.6 2 2 1.8 2 4.6 0 6.6-9.4 6.6-3 0-9-.8-5.8-.8-8.8-.8-4.2 0-9.2.8-5 .8-8.8.8-8.2 0-8.2-6.8 0-6.2 6-6.2 2.2 0 3.4.4 2.8.6 4.2.6 4.8 0 5-10.2l.2-9.4q.2-4.4.2-8.6.2-3.6.2-3.8v-16.6q0-17.4-4.8-24.2-4.6-6.8-16.6-6.8-13.2 0-20.2 9.6-5.8 7.8-5.8 27.2v26.6q0 8 .2 9.4.8 6.8 4.4 6.8 1 0 4.2-.8.4 0 1.2-.2h1.4q7.8 0 7.8 6.6 0 6.4-9 6.4-3.4 0-8.4-.6-6.8-.8-11.6-.8-2.4 0-8.8.6-8.6.8-10.4.8-8 0-8-6.8 0-6.2 7.6-6.2h1.2q.8.2 1.2.2l5 1q.2.2.8.2 5.4 0 5.8-9.8l.4-11.4v-30.6q0-17-1-21.2-.8-4.2-4.8-4.2-.8 0-5.6 1-2 .4-3.2.4-7.4 0-7.4-6.4 0-6.8 8.2-6.8 2.2 0 6 .4t6.6.4q1 0 2.2-.2h1.4l4.8-.6h.6q4.8 0 4.8 5.8z"/><path d="M682.036 565.8v6.4q11.2-15.6 30.6-15.6 20 0 31.8 13.8t11.8 37.4q0 25.4-12.6 40.6-12.4 15-33.4 15-17.4 0-28.2-12.2v16.6q0 7.6.4 9.8 1.2 6.2 5.8 6.2 1.4 0 4.2-.6 2.8-.6 4.2-.6 6.4 0 6.4 6.6t-8.4 6.6q-3 0-9-.8-4.4-.6-13.2-.6-4.8 0-8 .4-8 1-10.6 1-3.4 0-5.8-2.2-2.4-2-2.4-4.8 0-6.4 6.8-6.4 1.2 0 3.8.6 3.4.8 5 .8 3.8 0 4.6-4 1-3.8 1.2-21.6l.2-77.2q-.2-9.2-5.2-9.2-1.4 0-4.4.8-2.8.6-4.4.6-7.4 0-7.4-6.6 0-6.4 8.8-6.4 2.2 0 4.8.2 5 .4 7.4.4 1.8 0 5.2-.2 3.4-.4 5-.4 5 0 5 5.6zm3 24.4q-1.8 7.8-2 19 0 .8-.2 3v2.8q0 13.4 2.2 19.6 2.2 6 8.6 10.8 6.6 4.8 16.2 4.8 14.4 0 22.2-10.4 8-10.6 8-30 0-40-28.4-40-9.6 0-17.2 5.8-7.4 5.8-9.4 14.6zM807.758 556.6q13.4 0 22.4 7v-.8q0-7.4 6.4-7.4 6.6 0 6.6 6.4 0 1.2-.4 6-.8 4-.8 8 0 2.4.6 7 .8 4.6.8 7 0 7.6-6.6 7.6-6.4 0-6.6-6.4l-.2-6.6q-.2-6-7-10.2-6.6-4.4-15.6-4.4-9.2 0-15.4 4.8-6.2 4.6-6.2 11.6 0 12.8 17.6 15.2l11.6 1.6q34 4.6 34 28.2 0 14.4-11 23.4-11 8.8-28.8 8.8-16.6 0-28.8-9.4.2 2 .2 3.8 0 7.2-6.8 7.2-7.4 0-7.4-8.2 0 1.4 1.2-10.4.4-2.8.4-5.6 0-4.8-.8-9t-.8-6.6q0-7 6.4-7 4.2 0 5.2 2 1.2 2 1.4 10.6.2 8.6 9 14t22.4 5.4q9.8 0 16.2-5 6.4-5 6.4-12.6 0-13.6-21.6-15.8-20.6-2.2-31.4-8-10.8-6-10.8-20.8 0-14 10.6-22.6 10.6-8.8 27.6-8.8zM947.995 663.4q-21 0-33.6-14.4-12.6-14.6-12.6-39t12.6-38.8q12.8-14.6 34.2-14.6 21.8 0 34.4 14.2 12.6 14.2 12.6 38.6 0 24.4-13 39.2-13 14.8-34.6 14.8zm1-93.6q-14 0-22 9.8t-8.8 27.8v2.6q0 18.8 7.8 29.6 8 10.6 22.2 10.6 14.6 0 22.8-10.6 8.4-10.8 8.4-29.8 0-40-30.4-40zM1035.17 583.8l23.4 62.4 22.6-62.4q2-5.6 2-7.2 0-4.4-4.2-4.4-1.6 0-4.8.8-3 .6-4.6.6-6.6 0-6.6-6.6 0-7 9.6-7h1.6q1 .2 1.6.2l8.4 1.2q2.8.4 5.8.4 4 0 13.2-1 5.6-.6 8-.6 8.6 0 8.6 6.6t-7 6.6q-2.2 0-3.2-.4-3-.6-4.2-.6-3.6 0-7.4 9.6l-28.2 72q-3.6 9.2-12.2 9.2-8.2 0-11.8-9.2l-28.8-74q-2.8-7.4-6.6-7.4-1.4 0-4.2.6-2.8.6-4.2.6-6.6 0-6.6-6.2 0-7.2 9.2-7.2 1.6 0 2.4.2l8.4.8q4.2.4 8.4.4 3.4 0 10-.6l6.6-.6q1-.2 2.8-.2 8.8 0 8.8 6.8 0 6.4-7.6 6.4-2.4 0-3.4-.2-3.8-.8-4.8-.8-3.2 0-3.2 2.8 0 1.4.8 4zM1207.748 601.2q0 7.6-1 9.4-1 1.6-5.8 1.6h-63.6q-2.6 0-3.4.8-.8.6-.8 2.2 0 15 9 25t22.4 10q8.8 0 16-4.8 7.4-4.8 9.6-12.2l1.8-5.8q1.4-4.8 6.6-4.8 7.4 0 7.4 7.6 0 13-13.2 23.2-13.2 10-30 10-21 0-33.4-14-12.4-14.2-12.4-38 0-24.4 13.2-39.6 13.2-15.2 34.4-15.2 18.8 0 31 12.6t12.2 32zm-72.6-5.2q0 2.8 4.4 2.8h47.8q4.2 0 4.2-2.8 0-10.6-8-18.4-8-7.8-18.8-7.8-11.2 0-20.4 8.2-9.2 8-9.2 18zM1246.617 565.8v5.4q10.4-14.6 27.8-14.6 14 0 22.6 8 8.8 7.8 8.8 20.2 0 8.8-4.4 14.4-4.4 5.4-11.6 5.4-4.6 0-7.8-2.8t-3.2-6.8q0-3.2 2.4-5.6 2.4-2.6 5.6-2.6.6 0 2.6.6 1.2-2.4 1.2-4.4 0-5.8-5.2-9.8-5-4-12.6-4-15.6 0-20.8 14-3.2 8.6-3.2 26v13.2q0 13.4.2 15 1 11.4 6.2 11.4 2.6 0 5.4-.8 2.2-.6 3.8-.6 6.4 0 6.4 6.4 0 7-8.2 7h-.8q-3 0-9.2-.8-6-.6-9-.6-8 0-12.6.4l-11.2 1q-8.2 0-8.2-7 0-6.2 7.6-6.2 2 0 3 .2l3 .6q2 .4 2.8.4 5 0 5.4-9.2l.4-10.2-.6-45.4q-.6-11.8-6-11.8-1.6 0-4.4.6-2.8.6-4.4.6-6.6 0-6.6-6.4 0-7 8.6-7 2 0 6 .6 4 .4 6 .4 1.6 0 5.2-.4 1.6-.4 3.8-.4 5.2 0 5.2 5.6zM295.48 852.4l.4-12.8q.2-8.2 7.2-8.2t7 9.2q0 21.8-5.6 30.4-7.6 11.6-25 11.6-16 0-22.8-10.2-5-7.4-5-25.2v-48q0-4.2-3.8-4.2h-6.4q-3.2 0-5.4-2-2-2.2-2-5.2 0-2.8 2-5 2.2-2.2 4.8-2.2h7.8q3.4 0 3.4-3.8v-20.6q0-7.6 7.8-7.6 7.2 0 7.2 7.6v21.4q0 3 3.6 3h21.8q7.6 0 7.6 7 0 7.4-8.2 7.4h-22q-2.8 0-2.8 4.2v49.2q0 21 13.8 21 14 0 14.6-17z"/><path d="M345.958 751.2l-.8 38.8q8-7.6 14.6-10.4 6.6-3 15.6-3 17.2 0 27.6 9.8 10.4 9.8 10.4 25.8v33.4q0 11.8.2 13 .8 10 5.2 10 1.6 0 4.6-.8 1.2-.2 3.2-.2 7.4 0 7.4 6.6t-9.6 6.6q-2.6 0-7.6-.6-8.4-1-13.6-1-5.2 0-8 .4-8.4 1.2-10.4 1.2-3.6 0-6-2-2.4-2.2-2.4-5.4 0-2.6 2-4.4 2.2-1.8 5-1.8 2.2 0 5.2 1 1.8.6 3.4.6 6 0 6.2-13 0-2.4.2-9.4l.2-8.6V827q0-20.4-4-27.4-5.8-10.4-20.4-10.4-15.8 0-23 10.8-5 7.4-5.2 23.8l-.2 14.4q0 1.2-.2 4v3.8q0 11.4.2 13.2 1 9.8 5.8 9.8 1.6 0 4.4-.6 3-.8 4.4-.8 6.4 0 6.4 6.2 0 7-8.8 7-2.8 0-8.4-.6-7.6-.8-13-.8-3.4 0-9.4.6-8 .8-10.2.8-8.2 0-8.2-7.2 0-6 7.6-6 2.6 0 3.8.4 3.4.6 4.8.6 3.2 0 4.2-6 1.2-6.2 1.4-25l.2-35.8q0-30-1.2-37.8-1.2-8-5.6-8-1.4 0-4.2.6-2.8.6-4.4.6-6.8 0-6.8-6.4 0-2.8 2.4-4.8t5.8-2q1 0 6.8.6 3.8.4 8.2.4 1.8 0 5-.4t4.6-.4q4.6 0 4.6 6.6zM526.702 821.2q0 7.6-1 9.4-1 1.6-5.8 1.6h-63.6q-2.6 0-3.4.8-.8.6-.8 2.2 0 15 9 25t22.4 10q8.8 0 16-4.8 7.4-4.8 9.6-12.2l1.8-5.8q1.4-4.8 6.6-4.8 7.4 0 7.4 7.6 0 13-13.2 23.2-13.2 10-30 10-21 0-33.4-14-12.4-14.2-12.4-38 0-24.4 13.2-39.6 13.2-15.2 34.4-15.2 18.8 0 31 12.6t12.2 32zm-72.6-5.2q0 2.8 4.4 2.8h47.8q4.2 0 4.2-2.8 0-10.6-8-18.4-8-7.8-18.8-7.8-11.2 0-20.4 8.2-9.2 8-9.2 18zM610.57 796.4l.2 62.2q.2 10.2 5.4 10.2 1.2 0 5-1 2.4-.4 3.2-.4 6.6 0 6.6 6.8 0 6.6-8.2 6.6-3.2 0-10.2-.8-7-.8-10.8-.8-3.2 0-9.6.8-6.4.8-9.4.8h-1q-8.4 0-8.4-7.2 0-6.2 6.8-6.2h1.4q1.2.2 1.8.2 5 .8 5.8.8 3.6 0 4.4-3 1-3.2 1.2-16.2l.2-14 .6-31-.2-35.6q-.2-6-.6-8-1.4-4.6-5.6-4.6-.6 0-5.2.8-2.2.4-3.6.4-6.8 0-6.8-6.4 0-6.6 8-6.6 2.2 0 3.8.2l4.8.6q3.2.4 5.4.4 2 0 6-.6 4-.8 6-.8 4.6 0 4.6 5.8 0 2-.2 3-1.4 15.4-1.4 43.6zM721.09 882.6q-16.4 0-20.2-14.2-10.2 15-32 15-16.2 0-26-8-9.6-8-9.6-21.4 0-16.6 14.2-24.4 5.4-3 9.2-3.8 4-1 15.8-2.4 16.8-1.8 21.8-5 5.2-3.2 5.2-11.8 0-8.2-5.8-12.8-5.6-4.8-15.8-4.8-9 0-16.8 5-3 2-3 4.2 0 .8 1.8 2 2.8 2 2.8 6.8 0 4-3 6.6-2.8 2.6-7.2 2.6-5.2 0-8.8-3.6-3.4-3.6-3.4-8.8 0-11.2 11-19.2 11.2-8 27-8 36.4 0 36.4 35V852q0 9.6.4 11.4 1.2 7 6.8 7 7 0 7-12.8v-9.8q0-6.4 6.2-6.4 6.6 0 6.6 9.6v1l-.2 11.4q-.4 19.2-20.4 19.2zm-22.2-39.8l.2-14.2q-4.4 4-9.4 5.6-4.8 1.6-17.4 2.8-22.8 2.2-22.8 16.8 0 7.6 5.4 12 5.6 4.4 15 4.4 13.4 0 21-7.2 7.8-7.4 8-20.2z"/><path d="M745.98 859.4l65.2-66h-30.6q-15 0-18.8 1-3.8.8-3.8 4.6 0 1.6.4 3.6 1 5.2 1 9.8 0 7.6-6.6 7.6-6.8 0-6.8-8.8 0-3.8.2-5.2.8-6 .8-8.6 0-2-.8-5.8-.6-4-.6-6 0-6.2 10-6.2 3.2 0 8.6.2 6.2.4 8.6.4l12 .2h34q13 0 13 9.2 0 4.2-7.6 11.8l-64.8 65.4h47.6q11.8 0 11.8-6.8V856q0-3.4-.4-5.8-.4-7.6-.4-7.2 0-3.4 2-5.6 2-2.4 5-2.4 6.4 0 6.4 7.6 0 3.4-.4 7-.8 7.2-.8 10.4 0 2.2.4 6.4.6 4.2.6 6.4 0 7.8-8.8 7.6l-12.2-.4h-57.6q-5 0-8.2-3-3.2-3-3.2-7.6 0-5.2 4.8-10z"/><path d="M872.848 799.2l23 67.6 24.4-66.6q1-2.8 1-4.4 0-3.4-4.6-3.4-2.4 0-3.8.4-3.2.4-4.2.4-6.6 0-6.6-6.4 0-6.8 8.6-6.8 1.2 0 4 .4l7.2 1q2.8.4 6 .4 3.4 0 10-.8t10-.8q8.6 0 8.6 6.6 0 6.4-6.6 6.4-2 0-3-.4-2.6-.6-3.6-.6-3.8 0-7.8 10.2l-27.2 68q-9 22.6-17 32.8-13.6 17.4-34 17.4-12.2 0-20.6-6.2-8.2-6.2-8.2-15 0-6.2 3.6-10.2 3.6-3.8 9.4-3.8 4.6 0 7.6 2.6 3 2.8 3 6.8 0 6.4-5.8 8.2 3 4.4 11.4 4.4 10.6 0 19-8 8.6-7.8 8.6-17.6 0-5-5.4-18.6l-22-55.6-2.4-6.4q-3.4-9-7.8-9-1.2 0-4.4.6-3 .6-4 .6-7 0-7-6.4 0-6.8 9.2-6.8 3 0 4.6.2l8 1h1.6q1.4.2 2.4.2 7.2 0 15.4-.8 6.2-.6 8.2-.6 8.4 0 8.4 6.6t-7.6 6.6q-1.2 0-3.8-.4-2.6-.6-3.8-.6-2.8 0-2.8 2.8 0 1.6.8 4zM1044.56 776.6q19.8 0 29.6 15.4v-20.2q0-8-.4-9.8-1-6.2-5.6-6.2-1.6 0-4.6.6-2.8.6-4.4.6-7.4 0-7.4-6.4 0-6.6 10-6.6 1.6 0 5.8.4 6.4.6 6.6.6 1.8 0 5.2-.4 3.4-.4 5.2-.4 5.6 0 5.6 8v2.2q-.2.6-.4 10.6 0 1.2-.6 15.4-.4 10-.4 15.2v19.6l.4 33.4q.2 13.2 1.2 16.4 1 3.2 4.8 3.2 2.6 0 4-.4 3.2-.4 4.4-.4 7.4 0 7.4 6.6 0 6.8-9 6.8-2 0-6.2-.6-4-.4-6-.4-.6 0-4.6.4-2.4.6-4.2.6-5.4 0-5.4-7.2v-1l.2-3.4q-10.6 14.2-30.8 14.2-20.4 0-32.8-14.8-12.4-14.8-12.4-38.8 0-24.2 12.2-38.6 12.2-14.6 32.6-14.6zm28.4 70.6q.8-6.6.8-17 0-13.4-1-18.2-1.8-10-8.6-15.6-8-6.6-18.4-6.6-14 0-22 10.6-7.8 10.6-7.8 29 0 19 8.2 30 8.2 10.8 22.4 10.8 10.8 0 18-6.2 7.2-6.4 8.4-16.8zM1159.683 883.4q-21 0-33.6-14.4-12.6-14.6-12.6-39t12.6-38.8q12.8-14.6 34.2-14.6 21.8 0 34.4 14.2 12.6 14.2 12.6 38.6 0 24.4-13 39.2-13 14.8-34.6 14.8zm1-93.6q-14 0-22 9.8t-8.8 27.8v2.6q0 18.8 7.8 29.6 8 10.6 22.2 10.6 14.6 0 22.8-10.6 8.4-10.8 8.4-29.8 0-40-30.4-40zM1264.458 776.6q5.2 0 11.8 1.6 1-19.6 22.8-19.6 9.2 0 15.4 4.8 6.2 4.8 6.2 12.2 0 4.8-3.2 8.2-3 3.4-7.2 3.4-3.2 0-5.6-2.2-2.4-2.2-2.4-5.2 0-3.2 4.4-6.6-3.2-4-8.2-4-10.6 0-10.8 13.2 15.2 10.2 15.2 27.4 0 13.8-10.4 23t-26 9.2q-11 0-22.8-5.2-3.2-1.4-5.4-1.4-2.8 0-5 2.6-2.2 2.4-2.2 5.8 0 10.4 21 10.4h1.2q1.6 0 3.6-.2h2.4q19 0 30.8 3.6 11 3.4 17.4 10.6 6.4 7.2 6.4 16.2 0 14.6-13.6 23-13.4 8.6-36.4 8.6t-36.2-8q-13-8-13-22 0-16.2 18.2-23-16.2-6.4-16.2-19.2 0-14 16.2-19.2-5.2-7-5.2-16.4 0-13.6 10.4-22.6 10.6-9 26.4-9zm.6 13.2q-8.8 0-15 5.2-6.2 5.2-6.8 13v1.2q0 8.8 6 14.2 6 5.4 15.6 5.4 10 0 16.2-5.4 6.4-5.4 6.4-13.8 0-8.6-6.4-14.2t-16-5.6zm.2 77.6q-16 0-25.2 4.8t-9.2 13q0 8.2 9 12.8 9 4.8 24.2 4.8 16 0 25.2-4.8 9.4-4.8 9.4-12.8 0-8.4-8.8-13-8.8-4.8-24.6-4.8zM1339.833 883.4q-5.2 0-8.8-3.6-3.6-3.8-3.6-9t3.6-8.8q3.6-3.8 8.8-3.8 5.2 0 8.8 3.8 3.6 3.6 3.6 8.8 0 5.2-3.6 9-3.6 3.6-8.8 3.6z"/></g></svg>