<svg xmlns="http://www.w3.org/2000/svg" viewBox="0 0 1600 1000" height="1000" width="1600"><path fill="#fff" d="M0 0h1600v1000H0z"/><g font-weight="400" font-size="200" font-family="Amplitude" letter-spacing="-.03em" text-anchor="middle" fill="#222"><path d="M475.73 106.035h-33.593v-16.21h87.207v16.21H495.75V220h-20.02zM561.82 136.016V220h-18.36V76.445h18.36v51.758l9.375-10.84q9.18-4.2 19.043-4.2 28.223 0 28.223 33.204V220h-18.456v-75.977q0-8.984-4.2-12.402-4.2-3.417-11.23-3.417-6.933 0-12.01 2.15-4.982 2.05-10.744 5.663zM654.16 173.418q.39 19.14 6.153 26.855 5.76 7.715 19.433 7.715 7.422 0 13.965-1.953 6.642-2.05 13.38-4.883l3.027 13.672q-4.59 2.54-13.086 5.274-8.495 2.734-18.553 2.734-21.582 0-32.618-13.77-10.938-13.867-10.938-41.308 0-27.93 11.328-41.21 11.426-13.38 30.273-13.38 18.457 0 28.028 12.402 9.57 12.305 9.57 36.426v11.426zm0-13.184h42.188v-3.222q0-16.602-4.98-23.34-4.884-6.836-14.65-6.836-11.913 0-16.894 8.105-4.98 8.01-5.664 25.294zM827.316 209.844q-4.394 3.71-10.546 6.738-6.055 3.027-14.844 3.027-17.188 0-26.953-12.89-9.668-12.892-9.668-39.552 0-26.758 9.375-40.332 9.472-13.672 26.855-13.672 10.645 0 18.945 3.81l10.254 11.034 5.957-12.793h8.986v137.207h-18.36zm0-74.61q-10.644-7.03-21.777-7.03-11.036 0-16.114 8.69-5.078 8.594-5.078 27.15v6.542q0 19.824 5.566 28.223 5.566 8.397 16.21 8.397 7.423 0 12.696-2.832 5.274-2.93 8.496-5.566zM924.44 200.566v-85.35h18.36V220h-11.327l-6.64-12.793-8.985 11.035q-9.278 4.004-19.63 4.004-12.988 0-20.507-8.008-7.52-8.008-7.52-25.39v-73.633h18.458v75.78q0 9.767 4.102 13.478 4.102 3.71 10.84 3.71 7.422 0 12.5-2.05 5.176-2.15 10.35-5.567zM976.547 97.44q-4.785 0-8.4-3.22-3.612-3.224-3.612-8.4 0-5.175 3.613-8.496 3.614-3.32 8.4-3.32 4.784 0 8.3 3.32 3.515 3.32 3.515 8.496t-3.515 8.4q-3.516 3.22-8.3 3.22zM967.172 220V115.215h18.36V220zM1044.96 222.832q-20.02 0-30.663-13.867Q1003.75 195 1003.75 167.56q0-54.396 41.21-54.396 14.942 0 28.42 6.25l-2.833 13.965q-6.836-2.15-12.5-3.42-5.664-1.366-11.914-1.366-9.18 0-13.965 3.613-4.688 3.613-6.934 11.523-2.246 7.813-2.246 21.68v3.223q0 21.387 5.37 30.37 5.372 8.985 17.775 8.985 7.226 0 12.89-1.855 5.762-1.953 12.305-4.98l3.027 13.867q-14.257 7.812-29.394 7.812zM1107.32 184.355V220h-18.36V76.445h18.36v64.55L1103.902 170l40.43-54.785h19.63l-35.84 45.996 13.183 13.38 24.61 45.41h-20.216l-27.345-51.367zM450.926 428.184l-5.567 12.402h-8.985v-144.14h18.36v47.558q10.84-10.84 25.585-10.84 17.578 0 26.953 13.38 9.473 13.28 9.473 41.015 0 28.612-9.766 41.99-9.668 13.282-28.418 13.282-8.69 0-16.406-3.223zm3.808-70.8v65.624q9.57 7.03 20.41 7.03 11.524 0 16.993-8.788 5.566-8.79 5.566-29.492v-6.934q0-18.847-4.883-27.734-4.785-8.887-16.504-8.887-8.007 0-13.183 3.223-5.176 3.222-8.4 5.957zM552.25 349.375l10.547-12.793q7.52-3.418 14.648-3.418 7.715 0 13.184 3.027l-3.42 16.798q-6.64-2.832-14.55-2.832-6.055 0-10.742 2.15-4.688 2.05-9.277 5.272V440h-18.36V335.215h11.134zM637.07 442.832q-19.63 0-30.957-14.062-11.23-14.16-11.23-40.723 0-26.856 11.523-40.82 11.524-14.063 30.664-14.063 19.434 0 30.664 13.867 11.328 13.77 11.328 40.333 0 27.05-11.23 41.31-11.133 14.16-30.762 14.16zm0-14.258q11.817 0 17.285-9.472 5.567-9.473 5.567-29.297v-3.223q0-20.02-4.98-29.395t-17.872-9.375q-12.597 0-17.773 8.887-5.176 8.788-5.176 28.905v3.418q0 20.313 5.372 29.98 5.47 9.57 17.578 9.57zM710.855 440l-26.17-104.785h18.75l14.256 62.988 3.03 31.445 5.956-38.086 13.38-56.347h18.456l13.183 56.348 5.176 38.085 3.028-31.445 14.16-62.988h16.602L784.684 440h-18.457l-12.99-56.445-4.784-35.352-4.98 35.352L729.508 440zM841.672 348.594l9.765-11.23q9.18-4.2 19.043-4.2 28.223 0 28.223 33.203V440h-18.457v-75.977q0-8.984-4.2-12.402-4.198-3.417-11.23-3.417-6.933 0-12.01 2.15-4.982 2.05-10.743 5.663V440h-18.36V335.215h11.133zM964.047 348.984h-12.793v-13.77h12.793v-12.01q0-14.65 6.348-21.583 6.445-7.03 18.066-7.03 11.134 0 20.02 4.59l-.78 10.254h-15.626q-5.37 0-7.617 2.246-2.148 2.148-2.148 6.933v16.602h23.143v13.77H982.31V440h-18.263zM1052.383 442.832q-19.63 0-30.957-14.062-11.23-14.16-11.23-40.723 0-26.856 11.523-40.82 11.522-14.063 30.663-14.063 19.433 0 30.664 13.867 11.328 13.77 11.328 40.333 0 27.05-11.23 41.31-11.133 14.16-30.762 14.16zm0-14.258q11.816 0 17.285-9.472 5.566-9.473 5.566-29.297v-3.223q0-20.02-4.98-29.395t-17.87-9.375q-12.6 0-17.775 8.887-5.176 8.788-5.176 28.905v3.418q0 20.313 5.37 29.98 5.47 9.57 17.58 9.57zM1098.238 440l29.98-53.613-28.71-51.172h19.53l13.868 25.39 7.52 20.02 6.25-20.02 12.793-25.39h17.967l-28.222 50.976 30.078 53.81h-19.63l-15.038-27.44-7.52-20.802-6.836 20.8L1116.304 440zM404.023 537.44q-4.785 0-8.3-3.22-3.516-3.224-3.516-8.4 0-5.175 3.516-8.496 3.515-3.32 8.3-3.32 4.786 0 8.3 3.32 3.517 3.32 3.517 8.496t-3.516 8.4q-3.515 3.22-8.3 3.22zm-11.816 156.544q-11.133 0-18.555-4.59l1.368-9.765h10.937q5.078 0 7.03-2.247 2.052-2.15 2.052-6.738v-115.43h17.968v109.96q0 28.81-20.8 28.81zM492.457 640.566v-85.35h18.36V660h-11.33l-6.64-12.793-8.984 11.035q-9.277 4.004-19.63 4.004-12.987 0-20.506-8.008-7.52-8.008-7.52-25.39v-73.633h18.457v75.78q0 9.767 4.102 13.478 4.1 3.71 10.84 3.71 7.42 0 12.5-2.05 5.175-2.15 10.35-5.567zM605.793 568.984l10.352-11.62q8.69-4.2 18.457-4.2 27.54 0 27.54 33.203V660h-18.36v-75.977q0-8.984-3.907-12.402-3.906-3.417-10.938-3.417-6.738 0-11.523 2.246-4.687 2.148-9.863 5.566V660h-18.36v-75.977q0-8.984-4.1-12.402-4.102-3.417-10.742-3.417-6.348 0-11.328 2.05-4.883 1.954-10.06 5.372V660h-18.358V555.215h11.132l6.64 12.988 9.376-10.84q8.69-4.2 18.36-4.2 10.45 0 18.26 4.2zM702.82 567.813l9.766-11.036q8.984-3.613 17.383-3.613 17.675 0 26.56 13.867 8.888 13.77 8.888 40.724 0 26.465-9.18 39.16-9.082 12.695-27.246 12.695-13.867 0-25.39-8.985v41.797h-18.36V555.215h11.133zm.782 71.777q3.418 2.44 8.69 5.078 5.274 2.54 12.5 2.54 10.84 0 16.212-8.302 5.37-8.3 5.37-28.32v-6.543q0-19.238-4.882-27.54-4.883-8.3-16.113-8.3-10.84 0-21.778 7.227zM806.488 662.832q-16.797 0-30.37-6.64l2.148-13.575q5.273 2.15 11.914 4.2 6.738 1.953 14.55 1.953 9.57 0 14.65-3.516 5.175-3.613 5.175-12.89 0-5.665-1.758-8.497-1.66-2.832-6.25-4.883-4.492-2.05-15.625-4.785-13.477-3.32-19.434-10.645-5.957-7.422-5.957-19.532 0-15.82 9.376-23.34 9.375-7.52 25-7.52 16.992 0 28.418 6.056l-2.832 13.378q-5.762-1.953-11.328-3.223-5.47-1.367-13.086-1.367-9.375 0-13.965 3.027-4.59 2.93-4.59 12.012 0 4.492 1.368 7.13 1.368 2.538 4.493 4.393 3.222 1.758 16.113 5.274 15.234 3.906 21.387 11.328 6.25 7.324 6.25 20.41 0 13.77-8.79 22.56-8.788 8.69-26.855 8.69zM933.844 662.832q-19.63 0-30.957-14.062-11.23-14.16-11.23-40.723 0-26.856 11.523-40.82 11.523-14.063 30.664-14.063 19.433 0 30.664 13.867 11.328 13.77 11.328 40.333 0 27.05-11.23 41.31-11.133 14.16-30.762 14.16zm0-14.258q11.816 0 17.285-9.472 5.565-9.473 5.565-29.297v-3.223q0-20.02-4.98-29.394-4.98-9.375-17.87-9.375-12.6 0-17.775 8.886-5.175 8.788-5.175 28.905v3.418q0 20.313 5.37 29.98 5.47 9.57 17.58 9.57zM1013.098 660l-32.813-104.785h19.238l18.36 64.55 5.176 33.594 5.174-33.594 18.848-64.55h17.383L1032.043 660zM1088.348 613.418q.39 19.14 6.152 26.855 5.762 7.715 19.434 7.715 7.422 0 13.964-1.953 6.64-2.05 13.38-4.883l3.027 13.672q-4.59 2.54-13.086 5.274-8.497 2.734-18.556 2.734-21.582 0-32.617-13.77-10.938-13.867-10.938-41.308 0-27.93 11.328-41.21 11.425-13.38 30.273-13.38 18.458 0 28.028 12.402 9.57 12.305 9.57 36.426v11.426zm0-13.184h42.187v-3.222q0-16.602-4.98-23.34-4.883-6.836-14.65-6.836-11.913 0-16.893 8.105-4.98 8.01-5.664 25.294zM1184.008 569.375l10.547-12.793q7.52-3.418 14.648-3.418 7.715 0 13.184 3.027l-3.418 16.798q-6.642-2.832-14.552-2.832-6.055 0-10.742 2.15-4.688 2.05-9.278 5.272V660h-18.36V555.215h11.134zM356.313 882.246q-12.012 0-17.383-6.64-5.274-6.64-5.274-20.41v-66.212h-12.402v-13.77h13.574l8.79-28.222h8.398v28.223h22.85v13.77h-22.85v70.214q0 5.175 1.855 7.128 1.954 1.856 7.618 1.856h14.942l1.074 9.863q-10.742 4.2-21.19 4.2zM410.273 796.016V880h-18.36V736.445h18.36v51.758l9.375-10.84q9.18-4.2 19.043-4.2 28.224 0 28.224 33.204V880h-18.457v-75.977q0-8.984-4.2-12.402-4.198-3.417-11.23-3.417-6.933 0-12.01 2.15-4.982 2.05-10.744 5.663zM502.613 833.418q.39 19.14 6.153 26.855 5.76 7.715 19.433 7.715 7.42 0 13.964-1.953 6.64-2.05 13.38-4.883l3.026 13.672q-4.59 2.54-13.086 5.274t-18.554 2.734q-21.582 0-32.618-13.77-10.937-13.867-10.937-41.308 0-27.93 11.328-41.21 11.426-13.38 30.274-13.38 18.457 0 28.027 12.402 9.57 12.305 9.57 36.426v11.426zm0-13.184H544.8v-3.222q0-16.602-4.98-23.34-4.882-6.836-14.648-6.836-11.914 0-16.895 8.105-4.98 8.01-5.664 25.294zM621.18 880V736.445h18.36V880zM712.934 817.988v-10.742q0-8.008-3.516-13.184-3.418-5.273-13.28-5.273-11.525 0-30.958 6.835l-2.832-14.258q7.03-2.93 15.625-5.566 8.593-2.636 19.336-2.636 18.065 0 25.975 9.57 7.91 9.473 7.91 30.86v49.218q0 4.2 1.465 5.665 1.465 1.367 4.883 1.367h4.2l.585 8.984q-4.59 3.418-11.62 3.418-5.177 0-9.376-1.465l-7.422-11.62-8.79 10.254q-7.323 3.418-17.382 3.418-14.453 0-22.265-7.812-7.715-7.91-7.715-22.46 0-15.138 8.3-22.56 8.3-7.422 29.688-9.96zm0 42.97v-31.74l-16.016 1.954q-11.328 1.465-16.406 5.566-4.98 4.102-4.98 14.258v1.563q0 9.08 4.394 13.085 4.394 4.003 13.476 4.003 12.598 0 19.532-8.69zM748.242 880v-15.82l44.922-65.625 9.668-9.766-18.848 1.562H750.78v-15.137h67.384v16.797l-44.336 65.43-10.84 10.742 19.434-2.344h36.426V880zM847.32 912.422l11.035-35.645-33.79-101.562h18.947l18.847 61.23 4.98 30.37 5.37-30.37 18.653-61.23h17.383L865.19 912.422zM1016.863 781.953v-45.508h18.36V880h-11.328l-6.25-12.402-11.036 11.816q-6.25 2.832-13.965 2.832-18.36 0-27.93-13.77-9.473-13.867-9.473-41.113 0-26.172 9.96-40.136 10.06-14.063 27.638-14.063 13.38 0 24.023 8.79zm0 78.027v-64.355q-9.765-7.422-20.605-7.422-8.4 0-12.988 3.613-4.493 3.516-6.74 11.23-2.245 7.716-2.245 20.997v7.52q0 20.996 5.762 29.59 5.762 8.495 16.406 8.495 6.348 0 10.742-2.636 4.492-2.637 9.668-7.032zM1094.75 882.832q-19.63 0-30.957-14.062-11.23-14.16-11.23-40.723 0-26.856 11.523-40.82 11.523-14.063 30.664-14.063 19.434 0 30.664 13.867 11.328 13.77 11.328 40.333 0 27.05-11.23 41.31-11.133 14.16-30.762 14.16zm0-14.258q11.816 0 17.285-9.472 5.567-9.473 5.567-29.297v-3.223q0-20.02-4.98-29.394-4.98-9.375-17.872-9.375-12.598 0-17.773 8.886-5.176 8.788-5.176 28.905v3.418q0 20.313 5.372 29.98 5.47 9.57 17.578 9.57zM1212.09 779.414l23.828-8.398v17.187h-23.633l12.988 8.4q.586 2.245 1.075 4.49.586 2.15.586 5.47 0 15.917-9.668 25.195-9.57 9.277-28.516 9.277-10.45 0-17.676-3.223-5.176 3.81-5.176 9.375 0 10.06 12.99 10.06h23.046q31.738 0 31.738 25.976 0 15.722-12.305 24.218-12.304 8.595-34.277 8.595-19.63 0-29.59-6.836-9.96-6.837-9.96-18.848 0-8.497 5.175-14.356l11.62-5.762q-12.987-3.906-12.987-17.48 0-7.715 4.2-12.988l11.132-5.957-12.012-7.62q-4.59-8.983-4.59-18.944 0-16.21 10.45-25.098 10.546-8.984 28.222-8.984 13.574 0 23.34 6.25zm-23.34 49.22q10.156 0 14.94-4.69 4.787-4.784 4.787-15.33v-2.637q0-9.57-4.786-14.356-4.784-4.784-14.94-4.784-10.645 0-15.43 4.785-4.785 4.786-4.785 14.16v2.638q0 10.742 4.785 15.527 4.786 4.688 15.43 4.688zm-17.48 43.358q-7.715 6.64-7.715 15.625 0 7.617 5.664 11.133 5.663 3.613 18.26 3.613 14.65 0 21.778-5.176 7.226-5.175 7.226-12.207v-1.17q0-4.982-3.027-8.4-2.93-3.418-11.72-3.418zM1258.14 882.246q-5.956 0-10.45-4.1-4.393-4.103-4.393-10.548 0-6.64 4.394-10.743 4.494-4.1 10.45-4.1 5.958 0 10.254 4.1 4.395 4.102 4.395 10.743 0 6.445-4.396 10.547-4.296 4.1-10.253 4.1z"/></g></svg>