<svg xmlns="http://www.w3.org/2000/svg" viewBox="0 0 800 500"><path fill="#fff" d="M0 0h800v500H0z"/><g font-weight="400" font-size="100" font-family="Amplitude" letter-spacing="-.03em" text-anchor="middle" fill="#222"><path d="M237.865 53.018h-16.797v-8.106h43.604v8.106h-16.797V110h-10.01zM280.91 68.008V110h-9.18V38.223h9.18v25.88l4.688-5.42q4.59-2.1 9.52-2.1 14.112 0 14.112 16.6V110h-9.228V72.012q0-4.492-2.1-6.2-2.1-1.71-5.615-1.71-3.467 0-6.006 1.074-2.49 1.025-5.37 2.832zM327.08 86.71q.195 9.57 3.076 13.427 2.88 3.857 9.717 3.857 3.71 0 6.982-.976 3.32-1.026 6.69-2.442l1.514 6.836q-2.296 1.27-6.544 2.637-4.248 1.366-9.278 1.366-10.79 0-16.308-6.885-5.47-6.932-5.47-20.653 0-13.965 5.665-20.606 5.713-6.688 15.137-6.688 9.228 0 14.013 6.2 4.786 6.154 4.786 18.214v5.713zm0-6.593h21.094v-1.61q0-8.302-2.49-11.67-2.442-3.42-7.325-3.42-5.958 0-8.448 4.054-2.49 4.005-2.832 12.647zM413.658 104.922q-2.197 1.855-5.273 3.37-3.028 1.513-7.422 1.513-8.594 0-13.477-6.446-4.834-6.446-4.834-19.776 0-13.38 4.688-20.166 4.736-6.836 13.428-6.836 5.322 0 9.472 1.904l5.127 5.518 2.98-6.397h4.49v68.604h-9.18zm0-37.305q-5.322-3.515-10.888-3.515-5.518 0-8.057 4.345-2.54 4.297-2.54 13.574v3.273q0 9.912 2.784 14.11 2.783 4.2 8.106 4.2 3.71 0 6.347-1.415 2.637-1.465 4.248-2.784zM462.22 100.283V57.607h9.18V110h-5.664l-3.32-6.396-4.492 5.517q-4.64 2.003-9.815 2.003-6.495 0-10.255-4.004-3.76-4.005-3.76-12.696V57.607h9.23v37.89q0 4.884 2.05 6.74 2.05 1.855 5.42 1.855 3.71 0 6.25-1.026 2.588-1.074 5.176-2.783zM488.273 48.72q-2.392 0-4.2-1.61-1.805-1.612-1.805-4.2t1.806-4.248q1.807-1.66 4.2-1.66 2.392 0 4.15 1.66 1.758 1.66 1.758 4.248t-1.758 4.2q-1.758 1.61-4.15 1.61zM483.586 110V57.607h9.18V110zM522.48 111.416q-10.01 0-15.332-6.934-5.273-6.982-5.273-20.703 0-27.198 20.605-27.198 7.47 0 14.21 3.125l-1.417 6.982q-3.418-1.075-6.25-1.71-2.832-.683-5.957-.683-4.59 0-6.982 1.807-2.344 1.806-3.467 5.76-1.123 3.907-1.123 10.84v1.612q0 10.694 2.686 15.186 2.685 4.492 8.886 4.492 3.614 0 6.446-.928 2.88-.976 6.152-2.49l1.514 6.934q-7.13 3.906-14.698 3.906zM553.66 92.178V110h-9.18V38.223h9.18v32.275L551.95 85l20.216-27.393h9.814l-17.92 22.998 6.592 6.69L582.957 110H572.85l-13.672-25.684zM225.463 214.092l-2.783 6.2h-4.493v-72.07h9.18v23.78q5.42-5.42 12.793-5.42 8.79 0 13.477 6.69 4.736 6.64 4.736 20.507 0 14.306-4.883 20.995-4.834 6.64-14.21 6.64-4.344 0-8.202-1.61zm1.904-35.4v32.812q4.785 3.516 10.205 3.516 5.762 0 8.496-4.395 2.784-4.395 2.784-14.746v-3.468q0-9.424-2.442-13.867-2.392-4.443-8.252-4.443-4.004 0-6.592 1.61-2.587 1.612-4.2 2.98zM276.125 174.688l5.273-6.397q3.76-1.708 7.325-1.708 3.857 0 6.59 1.514l-1.708 8.398q-3.32-1.416-7.275-1.416-3.027 0-5.37 1.074-2.345 1.026-4.64 2.637V220h-9.18v-52.393h5.567zM318.535 221.416q-9.814 0-15.478-7.03-5.616-7.08-5.616-20.363 0-13.427 5.763-20.41 5.762-7.03 15.332-7.03 9.717 0 15.332 6.933 5.664 6.884 5.664 20.166 0 13.525-5.614 20.654-5.566 7.08-15.38 7.08zm0-7.13q5.908 0 8.643-4.735 2.783-4.736 2.783-14.648v-1.61q0-10.01-2.49-14.698-2.49-4.688-8.935-4.688-6.3 0-8.887 4.444-2.587 4.394-2.587 14.453v1.71q0 10.155 2.686 14.99 2.734 4.784 8.79 4.784zM355.428 220l-13.086-52.393h9.375l7.13 31.495 1.512 15.722 2.978-19.043 6.69-28.173h9.228l6.592 28.174 2.588 19.044 1.513-15.722 7.08-31.495h8.3L392.342 220h-9.23l-6.493-28.223-2.393-17.675-2.49 17.675L364.753 220zM420.836 174.297l4.883-5.615q4.59-2.1 9.52-2.1 14.112 0 14.112 16.602V220h-9.23v-37.988q0-4.492-2.1-6.2-2.098-1.71-5.614-1.71-3.467 0-6.006 1.074-2.49 1.025-5.37 2.832V220h-9.18v-52.393h5.566zM482.023 174.492h-6.396v-6.885h6.396v-6.005q0-7.325 3.174-10.79 3.223-3.517 9.033-3.517 5.567 0 10.01 2.295l-.39 5.127h-7.813q-2.685 0-3.808 1.123-1.076 1.074-1.076 3.467v8.3h11.573v6.885h-11.573V220h-9.13zM526.19 221.416q-9.813 0-15.477-7.03-5.615-7.08-5.615-20.363 0-13.427 5.76-20.41 5.763-7.03 15.333-7.03 9.718 0 15.333 6.933 5.665 6.884 5.665 20.166 0 13.525-5.616 20.654-5.566 7.08-15.38 7.08zm0-7.13q5.91 0 8.644-4.735 2.783-4.736 2.783-14.648v-1.61q0-10.01-2.49-14.698-2.49-4.688-8.936-4.688-6.297 0-8.885 4.444-2.588 4.394-2.588 14.453v1.71q0 10.155 2.685 14.99 2.735 4.784 8.79 4.784zM549.12 220l14.99-26.807-14.356-25.586h9.766l6.933 12.696 3.76 10.01 3.125-10.01 6.396-12.696h8.985l-14.113 25.49L589.647 220h-9.815l-7.52-13.72-3.76-10.4-3.417 10.4-6.983 13.72zM202.012 268.72q-2.393 0-4.15-1.61-1.758-1.612-1.758-4.2t1.757-4.248q1.76-1.66 4.152-1.66 2.392 0 4.15 1.66 1.758 1.66 1.758 4.248t-1.758 4.2q-1.758 1.61-4.15 1.61zm-5.908 78.272q-5.567 0-9.278-2.295l.684-4.883h5.47q2.538 0 3.514-1.123 1.026-1.073 1.026-3.368v-57.715h8.984v54.98q0 14.405-10.4 14.405zM246.23 320.283v-42.676h9.178V330h-5.664l-3.32-6.396-4.492 5.517q-4.64 2.003-9.815 2.003-6.494 0-10.254-4.004-3.76-4.005-3.76-12.696v-36.817h9.23v37.89q0 4.884 2.05 6.74 2.05 1.855 5.42 1.855 3.71 0 6.25-1.026 2.588-1.074 5.176-2.783zM302.896 284.492l5.176-5.81q4.346-2.1 9.23-2.1 13.768 0 13.768 16.602V330h-9.18v-37.988q0-4.492-1.952-6.2-1.954-1.71-5.47-1.71-3.368 0-5.76 1.123-2.345 1.074-4.933 2.783V330h-9.18v-37.988q0-4.492-2.05-6.2-2.05-1.71-5.37-1.71-3.175 0-5.665 1.025-2.442.977-5.03 2.685V330h-9.18v-52.393h5.567l3.32 6.495 4.688-5.42q4.346-2.1 9.18-2.1 5.224 0 9.13 2.1zM351.41 283.906l4.883-5.517q4.492-1.808 8.69-1.808 8.84 0 13.283 6.934 4.443 6.884 4.443 20.36 0 13.233-4.59 19.58-4.542 6.35-13.624 6.35-6.933 0-12.695-4.493v20.898h-9.18v-68.603h5.568zm.39 35.89q1.71 1.22 4.346 2.538 2.637 1.27 6.25 1.27 5.42 0 8.106-4.15t2.686-14.16v-3.273q0-9.618-2.442-13.768-2.44-4.15-8.057-4.15-5.42 0-10.89 3.613zM403.244 331.416q-8.398 0-15.185-3.32l1.073-6.787q2.637 1.073 5.957 2.098 3.37.977 7.275.977 4.785 0 7.324-1.758 2.587-1.807 2.587-6.445 0-2.832-.88-4.248-.83-1.416-3.124-2.442-2.246-1.025-7.812-2.392-6.737-1.66-9.716-5.323-2.978-3.71-2.978-9.765 0-7.91 4.687-11.67 4.688-3.76 12.5-3.76 8.496 0 14.21 3.027l-1.417 6.69q-2.88-.978-5.664-1.613-2.734-.683-6.543-.683-4.688 0-6.983 1.514-2.295 1.464-2.295 6.005 0 2.247.683 3.565.684 1.27 2.246 2.197 1.613.88 8.058 2.637 7.617 1.953 10.693 5.664 3.126 3.662 3.126 10.205 0 6.886-4.394 11.28-4.395 4.346-13.428 4.346zM466.922 331.416q-9.815 0-15.48-7.03-5.614-7.08-5.614-20.363 0-13.427 5.762-20.41 5.762-7.03 15.332-7.03 9.717 0 15.332 6.933 5.664 6.884 5.664 20.166 0 13.525-5.615 20.654-5.567 7.08-15.38 7.08zm0-7.13q5.908 0 8.642-4.735 2.784-4.736 2.784-14.648v-1.61q0-10.01-2.49-14.698-2.49-4.688-8.936-4.688-6.3 0-8.887 4.444-2.588 4.394-2.588 14.453v1.71q0 10.155 2.686 14.99 2.734 4.784 8.79 4.784zM506.55 330l-16.407-52.393h9.62l9.178 32.276 2.59 16.797 2.587-16.797 9.424-32.276h8.692L516.022 330zM544.174 306.71q.195 9.57 3.076 13.427 2.88 3.857 9.717 3.857 3.71 0 6.982-.976 3.32-1.026 6.69-2.442l1.512 6.836q-2.295 1.27-6.543 2.637-4.25 1.366-9.278 1.366-10.79 0-16.31-6.885-5.467-6.932-5.467-20.653 0-13.965 5.664-20.606 5.712-6.688 15.135-6.688 9.23 0 14.014 6.2 4.784 6.154 4.784 18.214v5.713zm0-6.593h21.094v-1.61q0-8.302-2.49-11.67-2.442-3.42-7.325-3.42-5.957 0-8.447 4.054-2.49 4.005-2.832 12.647zM592.004 284.688l5.273-6.397q3.76-1.708 7.325-1.708 3.857 0 6.59 1.514l-1.708 8.398q-3.32-1.416-7.275-1.416-3.028 0-5.372 1.074-2.344 1.026-4.64 2.637V330h-9.178v-52.393h5.566zM178.156 441.123q-6.006 0-8.69-3.32-2.638-3.32-2.638-10.205v-33.106h-6.2v-6.885h6.786l4.395-14.11h4.198v14.11h11.426v6.885h-11.426V429.6q0 2.588.928 3.564.976.928 3.808.928h7.47l.538 4.93q-5.37 2.1-10.596 2.1zM205.137 398.008V440h-9.18v-71.777h9.18v25.88l4.687-5.42q4.59-2.1 9.522-2.1 14.11 0 14.11 16.6V440h-9.227v-37.988q0-4.492-2.1-6.2-2.1-1.71-5.616-1.71-3.467 0-6.006 1.074-2.49 1.025-5.37 2.832zM251.307 416.71q.195 9.57 3.076 13.427 2.88 3.857 9.717 3.857 3.71 0 6.982-.976 3.32-1.026 6.69-2.442l1.513 6.836q-2.295 1.27-6.543 2.637-4.248 1.366-9.277 1.366-10.79 0-16.31-6.885-5.468-6.932-5.468-20.653 0-13.965 5.665-20.606 5.712-6.688 15.136-6.688 9.23 0 14.014 6.2 4.785 6.154 4.785 18.214v5.713zm0-6.593H272.4v-1.61q0-8.302-2.49-11.67-2.44-3.42-7.324-3.42-5.957 0-8.447 4.054-2.492 4.005-2.833 12.647zM310.59 440v-71.777h9.18V440zM356.467 408.994v-5.37q0-4.005-1.758-6.593-1.71-2.635-6.642-2.635-5.76 0-15.478 3.418l-1.416-7.13q3.515-1.464 7.812-2.783 4.297-1.318 9.668-1.318 9.033 0 12.99 4.785 3.954 4.737 3.954 15.43v24.61q0 2.1.732 2.83.732.685 2.44.685h2.1l.294 4.492q-2.295 1.71-5.81 1.71-2.588 0-4.688-.733l-3.71-5.81-4.395 5.127q-3.662 1.71-8.69 1.71-7.227 0-11.134-3.907-3.857-3.955-3.857-11.23 0-7.57 4.15-11.28 4.15-3.71 14.843-4.98zm0 21.485v-15.87l-8.008.976q-5.665.732-8.204 2.783-2.49 2.05-2.49 7.128v.78q0 4.542 2.197 6.544t6.738 2.002q6.3 0 9.767-4.345zM374.12 440v-7.91l22.462-32.813 4.834-4.882-9.424.78h-16.6v-7.568h33.69v8.4l-22.168 32.714-5.42 5.372 9.717-1.172h18.214V440zM423.66 456.21l5.518-17.82-16.895-50.783h9.473l9.424 30.616 2.49 15.185 2.685-15.185 9.327-30.616h8.69l-21.776 68.604zM508.432 390.977v-22.754h9.18V440h-5.665l-3.125-6.2-5.517 5.907q-3.125 1.416-6.983 1.416-9.18 0-13.965-6.885-4.736-6.933-4.736-20.556 0-13.086 4.982-20.07 5.03-7.03 13.818-7.03 6.69 0 12.012 4.395zm0 39.013v-32.178q-4.883-3.71-10.303-3.71-4.2 0-6.495 1.806-2.246 1.758-3.37 5.615-1.122 3.858-1.122 10.498v3.76q0 10.5 2.88 14.796 2.88 4.248 8.204 4.248 3.173 0 5.37-1.318 2.247-1.318 4.835-3.516zM547.375 441.416q-9.814 0-15.48-7.03-5.614-7.08-5.614-20.363 0-13.427 5.763-20.41 5.762-7.03 15.332-7.03 9.717 0 15.332 6.933 5.664 6.884 5.664 20.166 0 13.525-5.614 20.654-5.567 7.08-15.38 7.08zm0-7.13q5.908 0 8.643-4.735 2.783-4.736 2.783-14.648v-1.61q0-10.01-2.49-14.698-2.49-4.688-8.935-4.688-6.3 0-8.887 4.444-2.588 4.394-2.588 14.453v1.71q0 10.155 2.686 14.99 2.734 4.784 8.79 4.784zM606.045 389.707l11.914-4.2v8.595h-11.817l6.494 4.2q.293 1.122.537 2.245.293 1.074.293 2.734 0 7.96-4.834 12.6-4.785 4.638-14.258 4.638-5.225 0-8.838-1.612-2.588 1.905-2.588 4.688 0 5.03 6.493 5.03h11.524q15.87 0 15.87 12.987 0 7.863-6.153 12.11-6.153 4.298-17.14 4.298-9.814 0-14.794-3.418t-4.98-9.424q0-4.248 2.587-7.178l5.81-2.88q-6.493-1.954-6.493-8.74 0-3.858 2.1-6.495l5.566-2.98-6.006-3.807q-2.295-4.492-2.295-9.473 0-8.105 5.224-12.55 5.273-4.49 14.11-4.49 6.788 0 11.67 3.124zm-11.67 24.61q5.078 0 7.47-2.344 2.393-2.393 2.393-7.666v-1.32q0-4.784-2.392-7.176-2.393-2.392-7.47-2.392-5.323 0-7.716 2.393-2.392 2.393-2.392 7.08v1.32q0 5.37 2.392 7.763 2.393 2.343 7.715 2.343zm-8.74 21.68q-3.858 3.32-3.858 7.812 0 3.807 2.832 5.565 2.83 1.807 9.13 1.807 7.324 0 10.89-2.588 3.612-2.588 3.612-6.104v-.586q0-2.49-1.513-4.2-1.466-1.708-5.86-1.708zM629.07 441.123q-2.978 0-5.224-2.05-2.198-2.052-2.198-5.274 0-3.32 2.198-5.372 2.246-2.05 5.224-2.05 2.98 0 5.127 2.05 2.198 2.05 2.198 5.37 0 3.223-2.198 5.274-2.148 2.05-5.127 2.05z"/></g></svg>