<svg xmlns="http://www.w3.org/2000/svg" viewBox="0 0 800 500"><path fill="#fff" d="M0 0h800v500H0z"/><g font-weight="400" font-size="100" font-family="Arial" letter-spacing="-.03em" text-anchor="middle" fill="#222"><path d="M222.533 110V46.865H198.95v-8.447h56.738v8.447h-23.682V110zM261.33 110V38.418h8.79v25.684q6.15-7.13 15.526-7.13 5.762 0 10.01 2.296 4.248 2.246 6.055 6.25 1.856 4.003 1.856 11.62V110h-8.79V77.14q0-6.593-2.88-9.572-2.832-3.027-8.056-3.027-3.906 0-7.373 2.052-3.418 2.002-4.883 5.47-1.465 3.465-1.465 9.57V110zM349.492 93.3l9.082 1.124q-2.148 7.96-7.96 12.353-5.81 4.395-14.843 4.395-11.375 0-18.065-6.983-6.64-7.032-6.64-19.678 0-13.086 6.738-20.313 6.738-7.227 17.48-7.227 10.4 0 16.992 7.08 6.592 7.08 6.592 19.922 0 .78-.05 2.343h-38.67q.488 8.545 4.833 13.086 4.346 4.54 10.84 4.54 4.834 0 8.252-2.538 3.418-2.54 5.42-8.105zm-28.857-14.208h28.955q-.586-6.543-3.32-9.815-4.2-5.078-10.89-5.078-6.054 0-10.204 4.052-4.102 4.053-4.54 10.84zM424.45 129.873v-25.39q-2.052 2.88-5.762 4.785-3.663 1.904-7.813 1.904-9.23 0-15.918-7.373-6.64-7.374-6.64-20.216 0-7.813 2.685-14.014 2.734-6.2 7.86-9.375 5.177-3.222 11.33-3.222 9.62 0 15.136 8.105v-6.933h7.91v71.728zm-27.1-45.947q0 10.01 4.2 15.04 4.198 4.98 10.057 4.98 5.616 0 9.668-4.737 4.053-4.786 4.053-14.503 0-10.352-4.297-15.576-4.247-5.224-10.01-5.224-5.71 0-9.715 4.883-3.955 4.833-3.955 15.136zM478.04 110v-7.617q-6.054 8.79-16.454 8.79-4.59 0-8.594-1.76-3.955-1.757-5.908-4.393-1.904-2.686-2.686-6.543-.537-2.588-.537-8.204V58.145h8.79v28.76q0 6.884.538 9.277.83 3.466 3.515 5.468 2.686 1.954 6.64 1.954 3.956 0 7.423-2.002 3.466-2.05 4.882-5.518 1.465-3.516 1.465-10.156V58.145h8.79V110zM496.77 48.525V38.418h8.79v10.107zm0 61.475V58.145h8.79V110zM549.824 91.006l8.643 1.123q-1.416 8.934-7.276 14.013-5.81 5.03-14.305 5.03-10.645 0-17.14-6.935-6.444-6.982-6.444-19.97 0-8.4 2.784-14.698 2.783-6.3 8.447-9.424 5.714-3.173 12.404-3.173 8.447 0 13.818 4.297 5.37 4.248 6.885 12.11l-8.545 1.317q-1.22-5.224-4.346-7.86-3.076-2.638-7.47-2.638-6.64 0-10.792 4.784-4.15 4.737-4.15 15.04 0 10.45 4.004 15.185 4.004 4.735 10.45 4.735 5.175 0 8.642-3.174 3.466-3.172 4.394-9.764zM563.035 110V38.418h8.79v40.82l20.8-21.093h11.377l-19.824 19.238L606.004 110h-10.84l-17.14-26.514-6.2 5.957V110zM211.303 220h-8.155v-71.582h8.79v25.537q5.566-6.982 14.208-6.982 4.786 0 9.034 1.953 4.297 1.904 7.03 5.42 2.784 3.467 4.347 8.398 1.562 4.932 1.562 10.547 0 13.33-6.593 20.606-6.59 7.276-15.82 7.276-9.18 0-14.404-7.666zm-.098-26.318q0 9.326 2.54 13.476 4.15 6.787 11.23 6.787 5.76 0 9.96-4.98 4.2-5.03 4.2-14.942 0-10.156-4.053-14.99-4.004-4.834-9.717-4.834-5.76 0-9.96 5.03-4.2 4.98-4.2 14.452zM255.764 220v-51.855h7.91v7.86q3.027-5.517 5.566-7.275 2.588-1.757 5.664-1.757 4.444 0 9.033 2.832l-3.027 8.154q-3.223-1.905-6.445-1.905-2.88 0-5.176 1.758-2.296 1.708-3.272 4.785-1.465 4.687-1.465 10.254V220zM282.988 194.072q0-14.404 8.008-21.338 6.69-5.76 16.31-5.76 10.692 0 17.48 7.03 6.786 6.982 6.786 19.336 0 10.01-3.027 15.77-2.98 5.714-8.74 8.888-5.713 3.174-12.5 3.174-10.89 0-17.627-6.983-6.69-6.983-6.69-20.118zm9.033 0q0 9.96 4.347 14.942 4.346 4.93 10.938 4.93 6.543 0 10.888-4.98 4.346-4.98 4.346-15.185 0-9.62-4.395-14.55-4.346-4.982-10.84-4.982-6.592 0-10.938 4.932-4.346 4.93-4.346 14.892zM348.494 220l-15.87-51.855h9.083l8.252 29.93 3.075 11.134q.195-.83 2.686-10.694l8.253-30.37h9.033l7.764 30.077 2.587 9.912 2.98-10.01 8.886-29.98h8.545L387.558 220h-9.132l-8.252-31.055-2.002-8.838L357.674 220zM408.19 220v-51.855h7.91v7.373q5.713-8.545 16.504-8.545 4.687 0 8.593 1.71 3.955 1.66 5.908 4.393 1.954 2.735 2.735 6.494.488 2.442.488 8.545V220h-8.79v-31.543q0-5.37-1.024-8.008-1.026-2.686-3.662-4.25-2.588-1.61-6.104-1.61-5.615 0-9.717 3.564-4.05 3.565-4.05 13.526V220zM487.688 220v-45.02h-7.764v-6.835h7.764v-5.518q0-5.225.927-7.764 1.27-3.418 4.444-5.517 3.22-2.15 8.983-2.15 3.71 0 8.203.88l-1.318 7.666q-2.735-.488-5.176-.488-4.004 0-5.664 1.71-1.66 1.708-1.66 6.395v4.785h10.107v6.835h-10.107V220zM507.05 194.072q0-14.404 8.01-21.338 6.688-5.76 16.307-5.76 10.694 0 17.48 7.03 6.788 6.982 6.788 19.336 0 10.01-3.028 15.77-2.978 5.714-8.74 8.888-5.713 3.174-12.5 3.174-10.888 0-17.627-6.983-6.69-6.983-6.69-20.118zm9.034 0q0 9.96 4.346 14.942 4.345 4.93 10.937 4.93 6.543 0 10.89-4.98 4.345-4.98 4.345-15.185 0-9.62-4.395-14.55-4.346-4.982-10.84-4.982-6.592 0-10.937 4.932-4.346 4.93-4.346 14.892zM557.127 220l18.945-26.953-17.53-24.902h10.987l7.958 12.158q2.246 3.467 3.614 5.81 2.148-3.222 3.955-5.713l8.74-12.255h10.498l-17.92 24.414L605.662 220h-10.79l-10.645-16.113-2.832-4.346L567.77 220zM176.816 268.623v-10.205h8.79v10.205zm-11.132 81.494l1.66-7.47q2.636.683 4.15.683 2.686 0 4.004-1.807 1.318-1.757 1.318-8.886v-54.492h8.79v54.687q0 9.57-2.49 13.33-3.175 4.883-10.548 4.883-3.564 0-6.884-.928zM230.115 330v-7.617q-6.054 8.79-16.455 8.79-4.59 0-8.594-1.76-3.955-1.757-5.908-4.393-1.904-2.686-2.685-6.543-.537-2.588-.537-8.204v-32.128h8.79v28.76q0 6.884.536 9.277.83 3.466 3.515 5.468 2.686 1.954 6.64 1.954 3.956 0 7.423-2.002 3.467-2.05 4.883-5.518 1.465-3.516 1.465-10.156v-27.783h8.79V330zM248.795 330v-51.855h7.86v7.275q2.443-3.81 6.495-6.104 4.053-2.343 9.23-2.343 5.76 0 9.423 2.392 3.71 2.393 5.224 6.69 6.153-9.082 16.016-9.082 7.715 0 11.865 4.297 4.15 4.248 4.15 13.134V330h-8.74v-32.666q0-5.273-.88-7.568-.83-2.344-3.075-3.76-2.246-1.416-5.273-1.416-5.47 0-9.082 3.662-3.613 3.613-3.613 11.62V330h-8.79v-33.69q0-5.86-2.148-8.79-2.148-2.93-7.03-2.93-3.712 0-6.886 1.953-3.124 1.953-4.54 5.713t-1.416 10.84V330zM329.193 349.873v-71.728h8.008v6.738q2.833-3.955 6.398-5.908 3.564-2.002 8.642-2.002 6.64 0 11.72 3.418 5.077 3.42 7.665 9.67 2.588 6.2 2.588 13.622 0 7.96-2.88 14.355-2.833 6.348-8.302 9.766-5.42 3.37-11.425 3.37-4.394 0-7.91-1.857-3.466-1.855-5.713-4.687v25.243zm7.96-45.508q0 10.01 4.052 14.795 4.053 4.785 9.815 4.785 5.86 0 10.01-4.93 4.2-4.982 4.2-15.382 0-9.912-4.103-14.844-4.053-4.933-9.717-4.933-5.615 0-9.96 5.274-4.298 5.225-4.298 15.235zM378.342 314.52l8.69-1.366q.734 5.225 4.054 8.008 3.37 2.783 9.375 2.783 6.056 0 8.985-2.44 2.93-2.49 2.93-5.812 0-2.978-2.588-4.687-1.807-1.172-8.984-2.98-9.668-2.44-13.428-4.198-3.71-1.807-5.664-4.932-1.903-3.173-1.903-6.982 0-3.467 1.562-6.396 1.61-2.98 4.345-4.932 2.05-1.514 5.566-2.54 3.566-1.073 7.618-1.073 6.104 0 10.694 1.757 4.638 1.758 6.836 4.786 2.197 2.978 3.027 8.007l-8.594 1.172q-.585-4.004-3.417-6.25-2.783-2.246-7.91-2.246-6.054 0-8.642 2-2.587 2.003-2.587 4.69 0 1.708 1.074 3.075 1.074 1.416 3.37 2.344 1.317.487 7.763 2.245 9.326 2.49 12.988 4.1 3.71 1.564 5.81 4.59 2.1 3.028 2.1 7.52 0 4.395-2.588 8.3-2.54 3.86-7.373 6.007-4.834 2.1-10.937 2.1-10.108 0-15.43-4.2-5.273-4.2-6.738-12.45zM450.32 304.072q0-14.404 8.008-21.338 6.69-5.76 16.31-5.76 10.692 0 17.48 7.03 6.786 6.982 6.786 19.336 0 10.01-3.027 15.77-2.98 5.714-8.74 8.888-5.713 3.174-12.5 3.174-10.89 0-17.627-6.983-6.69-6.983-6.69-20.118zm9.034 0q0 9.96 4.345 14.942 4.345 4.93 10.937 4.93 6.543 0 10.888-4.98 4.346-4.98 4.346-15.185 0-9.62-4.393-14.55-4.346-4.982-10.84-4.982-6.592 0-10.938 4.932-4.346 4.93-4.346 14.892zM520.66 330l-19.726-51.855h9.277l11.134 31.054q1.806 5.03 3.32 10.448 1.172-4.1 3.272-9.863l11.523-31.64h9.032L528.862 330zM588.754 313.3l9.082 1.124q-2.148 7.96-7.96 12.353-5.81 4.395-14.843 4.395-11.377 0-18.066-6.983-6.64-7.032-6.64-19.678 0-13.086 6.737-20.313 6.74-7.227 17.48-7.227 10.4 0 16.993 7.08 6.592 7.08 6.592 19.922 0 .78-.05 2.343h-38.672q.488 8.545 4.834 13.086 4.346 4.54 10.84 4.54 4.834 0 8.252-2.538 3.418-2.54 5.42-8.105zm-28.858-14.208h28.956q-.586-6.543-3.32-9.815-4.2-5.078-10.89-5.078-6.054 0-10.205 4.052-4.1 4.053-4.54 10.84zM605.822 330v-51.855h7.91v7.86q3.028-5.517 5.567-7.275 2.587-1.757 5.663-1.757 4.443 0 9.033 2.832l-3.027 8.154q-3.224-1.905-6.447-1.905-2.88 0-5.175 1.757-2.295 1.71-3.272 4.786-1.465 4.687-1.465 10.254V330zM160.188 432.14l1.27 7.762q-3.712.782-6.642.782-4.785 0-7.42-1.514-2.638-1.514-3.712-3.955-1.075-2.49-1.075-10.4V394.98h-6.446v-6.835h6.445v-12.842l8.74-5.274v18.115h8.838v6.835h-8.838v30.323q0 3.76.44 4.834.487 1.074 1.513 1.71 1.074.633 3.027.633 1.465 0 3.857-.34zM165.732 440v-71.582h8.79v25.684q6.152-7.13 15.527-7.13 5.76 0 10.01 2.296 4.247 2.246 6.053 6.25 1.856 4.003 1.856 11.62V440h-8.79v-32.86q0-6.593-2.88-9.572-2.833-3.027-8.058-3.027-3.906 0-7.373 2.052-3.42 2.002-4.884 5.47-1.465 3.465-1.465 9.57V440zM253.895 423.3l9.082 1.124q-2.15 7.96-7.96 12.353-5.81 4.395-14.843 4.395-11.377 0-18.067-6.983-6.64-7.032-6.64-19.678 0-13.086 6.738-20.313 6.738-7.227 17.48-7.227 10.4 0 16.993 7.08 6.592 7.08 6.592 19.922 0 .78-.05 2.343h-38.67q.487 8.545 4.833 13.086 4.346 4.54 10.84 4.54 4.834 0 8.252-2.538 3.418-2.54 5.42-8.105zm-28.858-14.208h28.955q-.586-6.543-3.32-9.815-4.2-5.078-10.89-5.078-6.053 0-10.204 4.052-4.1 4.053-4.54 10.84zM295.6 440v-71.582h8.79V440zM348.898 433.604q-4.882 4.15-9.423 5.86-4.493 1.708-9.668 1.708-8.545 0-13.135-4.15-4.59-4.2-4.59-10.694 0-3.808 1.71-6.933 1.757-3.174 4.54-5.08 2.832-1.903 6.348-2.88 2.588-.683 7.812-1.318 10.645-1.27 15.674-3.027.05-1.807.05-2.295 0-5.37-2.49-7.568-3.37-2.98-10.01-2.98-6.202 0-9.18 2.198-2.93 2.15-4.347 7.666l-8.594-1.17q1.172-5.518 3.857-8.887 2.686-3.418 7.764-5.225 5.078-1.855 11.767-1.855 6.64 0 10.79 1.562 4.152 1.563 6.105 3.955 1.952 2.344 2.733 5.957.44 2.246.44 8.106v11.718q0 12.257.537 15.53.586 3.22 2.246 6.2h-9.18q-1.367-2.734-1.758-6.396zm-.732-19.63q-4.785 1.954-14.355 3.32-5.42.782-7.665 1.76-2.247.975-3.467 2.88-1.22 1.855-1.22 4.15 0 3.516 2.636 5.86 2.685 2.343 7.812 2.343 5.078 0 9.033-2.197 3.955-2.246 5.81-6.104 1.416-2.978 1.416-8.79zM363.086 440v-7.13l33.008-37.89q-5.615.293-9.912.293H365.04v-7.128h42.382v5.81l-28.076 32.91-5.42 6.006q5.908-.438 11.084-.438h23.974V440zM414.334 459.97l-.977-8.25q2.88.78 5.03.78 2.93 0 4.687-.977 1.758-.976 2.88-2.734.83-1.32 2.687-6.544.245-.732.782-2.148l-19.678-51.953h9.473l10.79 30.03q2.1 5.712 3.76 12.01 1.514-6.054 3.614-11.816l11.085-30.225h8.79l-19.728 52.734q-3.173 8.544-4.93 11.766-2.345 4.346-5.372 6.348-3.028 2.05-7.227 2.05-2.54 0-5.664-1.073zM520.102 440v-6.543q-4.932 7.715-14.502 7.715-6.202 0-11.426-3.418-5.176-3.418-8.057-9.522-2.832-6.152-2.832-14.11 0-7.765 2.588-14.063 2.588-6.35 7.764-9.718 5.175-3.37 11.572-3.37 4.686 0 8.35 2.003 3.66 1.953 5.956 5.127v-25.684h8.74V440zm-27.784-25.88q0 9.962 4.2 14.894 4.2 4.93 9.912 4.93 5.76 0 9.765-4.686 4.053-4.737 4.053-14.404 0-10.645-4.102-15.625-4.1-4.982-10.107-4.982-5.86 0-9.815 4.785-3.907 4.785-3.907 15.088zM535.852 414.072q0-14.404 8.007-21.338 6.69-5.76 16.308-5.76 10.693 0 17.48 7.03 6.788 6.982 6.788 19.336 0 10.01-3.028 15.77-2.978 5.714-8.74 8.888-5.713 3.174-12.5 3.174-10.89 0-17.627-6.983-6.688-6.983-6.688-20.118zm9.033 0q0 9.96 4.345 14.942 4.346 4.93 10.938 4.93 6.543 0 10.89-4.98 4.344-4.98 4.344-15.185 0-9.62-4.394-14.55-4.346-4.982-10.84-4.982-6.592 0-10.938 4.932-4.345 4.93-4.345 14.892zM590.176 444.297l8.545 1.27q.538 3.954 2.98 5.76 3.27 2.443 8.935 2.443 6.103 0 9.424-2.442 3.32-2.44 4.49-6.836.684-2.685.636-11.28Q619.424 440 610.83 440q-10.693 0-16.553-7.715-5.86-7.715-5.86-18.506 0-7.423 2.687-13.673 2.685-6.298 7.763-9.716 5.127-3.417 12.012-3.417 9.18 0 15.136 7.422v-6.25h8.105v44.824q0 12.108-2.49 17.137-2.44 5.08-7.812 8.008-5.322 2.93-13.134 2.93-9.278 0-14.99-4.2-5.714-4.15-5.518-12.548zm7.275-31.152q0 10.205 4.054 14.892 4.053 4.688 10.156 4.688 6.055 0 10.156-4.64 4.102-4.687 4.102-14.647 0-9.522-4.248-14.356-4.2-4.834-10.156-4.834-5.86 0-9.96 4.785-4.103 4.737-4.103 14.112zM646.94 440v-10.01h10.01V440z"/></g></svg>