<svg xmlns="http://www.w3.org/2000/svg" viewBox="0 0 1600 1000" height="1000" width="1600"><path fill="#fff" d="M0 0h1600v1000H0z"/><g font-weight="400" font-size="200" font-family="Arial" letter-spacing="-.03em" text-anchor="middle" fill="#222"><path d="M445.066 220V93.73h-47.168V76.836h113.477V93.73h-47.363V220zM522.66 220V76.836h17.578v51.367q12.305-14.258 31.055-14.258 11.523 0 20.02 4.59 8.496 4.492 12.11 12.5 3.71 8.008 3.71 23.242V220h-17.578v-65.723q0-13.183-5.762-19.14-5.664-6.055-16.113-6.055-7.813 0-14.746 4.102-6.836 4.003-9.766 10.937-2.93 6.935-2.93 19.142V220zM698.984 186.602l18.164 2.246q-4.296 15.918-15.918 24.707-11.62 8.79-29.687 8.79-22.754 0-36.133-13.966-13.28-14.064-13.28-39.357 0-26.17 13.475-40.625 13.477-14.453 34.96-14.453 20.802 0 33.986 14.16 13.184 14.16 13.184 39.844 0 1.562-.097 4.687h-77.344q.976 17.09 9.668 26.172 8.692 9.08 21.68 9.08 9.67 0 16.504-5.077 6.836-5.08 10.84-16.21zm-57.714-28.418h57.91q-1.172-13.086-6.64-19.63-8.4-10.156-21.778-10.156-12.11 0-20.41 8.106-8.204 8.105-9.082 21.68zM848.898 259.746v-50.78q-4.1 5.76-11.523 9.57-7.324 3.808-15.625 3.808-18.457 0-31.836-14.746-13.28-14.746-13.28-40.43 0-15.625 5.37-28.027 5.47-12.402 15.723-18.75 10.35-6.445 22.656-6.445 19.238 0 30.273 16.21V116.29h15.82v143.456zm-54.2-91.894q0 20.02 8.4 30.078 8.398 9.96 20.117 9.96 11.23 0 19.336-9.472 8.106-9.57 8.106-29.004 0-20.703-8.593-31.152-8.497-10.45-20.02-10.45-11.426 0-19.434 9.766-7.91 9.668-7.91 30.274zM956.082 220v-15.234q-12.11 17.578-32.91 17.578-9.18 0-17.188-3.516-7.91-3.515-11.816-8.79-3.81-5.37-5.37-13.085-1.075-5.176-1.075-16.406V116.29H905.3v57.52q0 13.768 1.075 18.553 1.66 6.934 7.03 10.938 5.372 3.907 13.283 3.907 7.91 0 14.843-4.004 6.935-4.1 9.767-11.035 2.93-7.03 2.93-20.313V116.29h17.578V220zM993.54 97.05V76.837h17.577V97.05zm0 122.95V116.29h17.577V220zM1099.648 182.012l17.286 2.246q-2.832 17.87-14.55 28.027-11.622 10.06-28.614 10.06-21.29 0-34.278-13.868-12.89-13.965-12.89-39.942 0-16.797 5.566-29.394 5.566-12.597 16.895-18.847 11.425-6.348 24.804-6.348 16.895 0 27.637 8.594 10.742 8.495 13.77 24.218l-17.09 2.637q-2.442-10.45-8.692-15.723-6.152-5.274-14.94-5.274-13.282 0-21.583 9.57-8.302 9.473-8.302 30.08 0 20.897 8.008 30.37 8.008 9.473 20.898 9.473 10.352 0 17.285-6.347 6.933-6.348 8.788-19.53zM1126.07 220V76.836h17.578v81.64l41.602-42.187h22.754l-39.65 38.476L1212.01 220h-21.68l-34.277-53.027-12.402 11.914V220zM422.605 440h-16.308V296.836h17.578v51.074q11.133-13.965 28.418-13.965 9.57 0 18.066 3.907 8.593 3.808 14.062 10.84 5.566 6.933 8.69 16.796 3.126 9.864 3.126 21.094 0 26.66-13.183 41.21-13.184 14.552-31.64 14.552-18.36 0-28.81-15.332zm-.195-52.637q0 18.653 5.078 26.953 8.3 13.575 22.46 13.575 11.525 0 19.923-9.96 8.4-10.06 8.4-29.883 0-20.313-8.106-29.98-8.008-9.67-19.434-9.67-11.523 0-19.92 10.06-8.4 9.96-8.4 28.906zM511.527 440V336.29h15.82v15.722q6.055-11.035 11.133-14.55 5.176-3.517 11.33-3.517 8.885 0 18.065 5.664l-6.055 16.308q-6.445-3.81-12.89-3.81-5.762 0-10.352 3.517-4.59 3.418-6.543 9.57-2.93 9.375-2.93 20.508V440zM565.977 388.145q0-28.81 16.015-42.676 13.38-11.525 32.617-11.525 21.386 0 34.96 14.063 13.575 13.965 13.575 38.672 0 20.02-6.055 31.543-5.957 11.425-17.48 17.773-11.426 6.348-25 6.348-21.778 0-35.255-13.965-13.378-13.966-13.378-40.235zm18.066 0q0 19.92 8.69 29.882 8.693 9.864 21.876 9.864 13.085 0 21.777-9.96 8.69-9.96 8.69-30.37 0-19.24-8.788-29.103-8.692-9.96-21.68-9.96-13.184 0-21.876 9.862-8.69 9.863-8.69 29.785zM696.988 440L665.25 336.29h18.164l16.504 59.862 6.152 22.266q.39-1.66 5.37-21.387l16.505-60.74h18.067l15.527 60.155 5.175 19.825 5.957-20.02 17.773-59.96h17.09L775.113 440h-18.26l-16.505-62.11-4.004-17.675L715.348 440zM816.38 440V336.29h15.82v14.745q11.425-17.09 33.007-17.09 9.375 0 17.188 3.418 7.91 3.32 11.816 8.79 3.907 5.468 5.47 12.988.976 4.883.976 17.09V440h-17.578v-63.086q0-10.742-2.05-16.016-2.05-5.37-7.325-8.496-5.176-3.222-12.207-3.222-11.23 0-19.434 7.13-8.105 7.127-8.105 27.05V440zM975.375 440v-90.04h-15.527v-13.67h15.527v-11.036q0-10.45 1.855-15.527 2.54-6.836 8.887-11.036 6.445-4.295 17.97-4.295 7.42 0 16.405 1.757l-2.637 15.332q-5.468-.976-10.35-.976-8.01 0-11.33 3.418-3.32 3.418-3.32 12.793v9.57h20.215v13.67h-20.215V440zM1014.102 388.145q0-28.81 16.015-42.676 13.38-11.525 32.617-11.525 21.387 0 34.96 14.063 13.575 13.965 13.575 38.672 0 20.02-6.055 31.543-5.957 11.425-17.48 17.773-11.426 6.348-25 6.348-21.778 0-35.254-13.965-13.378-13.966-13.378-40.235zm18.066 0q0 19.92 8.69 29.882 8.693 9.864 21.876 9.864 13.086 0 21.778-9.96 8.69-9.96 8.69-30.37 0-19.24-8.788-29.103-8.69-9.96-21.68-9.96-13.183 0-21.875 9.862-8.692 9.863-8.692 29.785zM1114.254 440l37.89-53.906-35.058-49.805h21.973l15.917 24.315q4.492 6.934 7.226 11.622 4.297-6.446 7.91-11.426l17.48-24.51h20.997l-35.84 48.827L1211.324 440h-21.582l-21.29-32.227-5.663-8.69L1135.542 440zM353.633 537.246v-20.41h17.578v20.41zm-22.266 162.988l3.32-14.94q5.274 1.366 8.3 1.366 5.372 0 8.01-3.613 2.636-3.516 2.636-17.774V556.29h17.578v109.374q0 19.14-4.98 26.66-6.347 9.766-21.093 9.766-7.13 0-13.77-1.856zM460.23 660v-15.234q-12.11 17.578-32.91 17.578-9.18 0-17.187-3.516-7.91-3.515-11.817-8.79-3.808-5.37-5.37-13.085-1.075-5.176-1.075-16.406V556.29h17.58v57.52q0 13.768 1.073 18.553 1.66 6.934 7.032 10.938 5.37 3.907 13.28 3.907 7.91 0 14.845-4.004 6.933-4.1 9.765-11.035 2.93-7.03 2.93-20.313V556.29h17.578V660zM497.59 660V556.29h15.723v14.55q4.882-7.617 12.988-12.207 8.106-4.688 18.458-4.688 11.523 0 18.847 4.785 7.422 4.786 10.45 13.38 12.304-18.165 32.03-18.165 15.43 0 23.73 8.594 8.302 8.495 8.302 26.27V660h-17.48v-65.332q0-10.547-1.758-15.137-1.66-4.686-6.153-7.518-4.493-2.832-10.547-2.832-10.938 0-18.164 7.324-7.227 7.226-7.227 23.242V660h-17.58v-67.383q0-11.72-4.296-17.578-4.297-5.86-14.062-5.86-7.422 0-13.77 3.906-6.25 3.906-9.082 11.426-2.832 7.52-2.832 21.68V660zM658.387 699.746V556.29h16.015v13.476q5.664-7.91 12.793-11.817 7.13-4.005 17.285-4.005 13.282 0 23.438 6.836 10.156 6.837 15.332 19.337 5.176 12.403 5.176 27.246 0 15.918-5.762 28.71-5.664 12.697-16.6 19.532-10.84 6.74-22.853 6.74-8.788 0-15.82-3.712-6.933-3.71-11.425-9.375v50.488zm15.918-91.016q0 20.02 8.105 29.59 8.106 9.57 19.63 9.57 11.718 0 20.02-9.863 8.397-9.96 8.397-30.76 0-19.826-8.203-29.69-8.106-9.862-19.434-9.862-11.23 0-19.922 10.547-8.593 10.45-8.593 30.468zM756.684 629.043l17.382-2.734q1.465 10.448 8.106 16.014 6.738 5.567 18.75 5.567 12.11 0 17.97-4.882 5.858-4.98 5.858-11.62 0-5.958-5.176-9.376-3.613-2.344-17.97-5.957-19.334-4.883-26.854-8.4-7.422-3.612-11.328-9.862-3.81-6.348-3.81-13.965 0-6.933 3.126-12.793 3.223-5.957 8.692-9.863 4.1-3.027 11.133-5.078 7.128-2.15 15.234-2.15 12.207 0 21.387 3.517 9.277 3.517 13.67 9.57 4.396 5.958 6.056 16.017l-17.187 2.344q-1.172-8.007-6.836-12.5-5.567-4.492-15.82-4.492-12.11 0-17.286 4.004-5.175 4.004-5.175 9.375 0 3.418 2.15 6.153 2.147 2.832 6.737 4.687 2.637.977 15.528 4.492 18.652 4.98 25.976 8.202 7.422 3.125 11.62 9.18 4.2 6.055 4.2 15.04 0 8.788-5.175 16.6-5.078 7.716-14.745 12.013-9.668 4.2-21.875 4.2-20.215 0-30.86-8.4-10.547-8.398-13.476-24.902zM900.64 608.145q0-28.81 16.016-42.676 13.38-11.525 32.617-11.525 21.387 0 34.96 14.063 13.576 13.965 13.576 38.672 0 20.02-6.056 31.543-5.957 11.425-17.48 17.773-11.426 6.348-25 6.348-21.778 0-35.254-13.965-13.38-13.966-13.38-40.235zm18.067 0q0 19.92 8.69 29.882 8.693 9.864 21.876 9.864 13.086 0 21.778-9.96 8.692-9.96 8.692-30.37 0-19.24-8.79-29.103-8.69-9.96-21.68-9.96-13.182 0-21.874 9.862-8.69 9.863-8.69 29.785zM1041.32 660l-39.453-103.71h18.555l22.266 62.108q3.613 10.06 6.64 20.9 2.344-8.204 6.543-19.728l23.048-63.28h18.066L1057.727 660zM1177.508 626.602l18.164 2.246q-4.297 15.918-15.918 24.707-11.62 8.79-29.688 8.79-22.753 0-36.132-13.966-13.282-14.064-13.282-39.357 0-26.17 13.477-40.625 13.475-14.453 34.96-14.453 20.8 0 33.984 14.16 13.184 14.16 13.184 39.844 0 1.562-.098 4.687h-77.344q.977 17.09 9.668 26.172 8.69 9.08 21.68 9.08 9.668 0 16.504-5.077 6.835-5.08 10.84-16.21zm-57.715-28.418h57.91q-1.172-13.086-6.64-19.63-8.4-10.156-21.778-10.156-12.11 0-20.41 8.106-8.203 8.105-9.082 21.68zM1211.645 660V556.29h15.82v15.722q6.055-11.035 11.133-14.55 5.175-3.517 11.328-3.517 8.887 0 18.066 5.664l-6.054 16.308q-6.446-3.81-12.89-3.81-5.763 0-10.353 3.517-4.59 3.418-6.543 9.57-2.93 9.375-2.93 20.508V660zM320.375 864.277l2.54 15.528q-7.423 1.562-13.282 1.562-9.57 0-14.844-3.027-5.274-3.028-7.423-7.91-2.148-4.98-2.148-20.8v-59.67h-12.892v-13.67h12.89v-25.685l17.48-10.546v36.23h17.677v13.67H302.7v60.645q0 7.52.878 9.668.977 2.15 3.027 3.418 2.15 1.27 6.055 1.27 2.93 0 7.715-.683zM331.465 880V736.836h17.578v51.367q12.305-14.258 31.055-14.258 11.523 0 20.02 4.59 8.495 4.492 12.11 12.5 3.71 8.008 3.71 23.242V880h-17.58v-65.723q0-13.183-5.76-19.14-5.664-6.055-16.114-6.055-7.812 0-14.746 4.102-6.836 4.003-9.765 10.937-2.93 6.935-2.93 19.142V880zM507.79 846.602l18.163 2.246q-4.297 15.918-15.918 24.707-11.62 8.79-29.687 8.79-22.754 0-36.133-13.966-13.28-14.064-13.28-39.357 0-26.17 13.475-40.625 13.477-14.453 34.96-14.453 20.802 0 33.985 14.16 13.184 14.16 13.184 39.844 0 1.562-.1 4.687H449.1q.976 17.09 9.668 26.172 8.69 9.08 21.68 9.08 9.667 0 16.503-5.077 6.835-5.08 10.84-16.21zm-57.716-28.418h57.91q-1.17-13.086-6.64-19.63-8.4-10.156-21.778-10.156-12.11 0-20.41 8.106-8.203 8.105-9.082 21.68zM591.2 880V736.836h17.577V880zM697.797 867.207q-9.766 8.3-18.848 11.72-8.985 3.417-19.337 3.417-17.09 0-26.27-8.3-9.18-8.4-9.18-21.388 0-7.617 3.42-13.867 3.515-6.35 9.08-10.157 5.665-3.81 12.696-5.762 5.175-1.366 15.624-2.636 21.29-2.54 31.348-6.054.098-3.614.098-4.59 0-10.742-4.98-15.137-6.74-5.957-20.02-5.957-12.403 0-18.36 4.395-5.86 4.298-8.69 15.333l-17.19-2.344q2.345-11.036 7.716-17.775 5.37-6.835 15.528-10.45 10.156-3.71 23.535-3.71 13.28 0 21.58 3.125 8.302 3.125 12.208 7.91 3.906 4.688 5.47 11.915.878 4.492.878 16.21v23.438q0 24.512 1.074 31.055 1.172 6.445 4.492 12.402h-18.36q-2.734-5.47-3.515-12.793zm-1.465-39.258q-9.57 3.905-28.71 6.64-10.84 1.562-15.333 3.515-4.493 1.954-6.935 5.762-2.44 3.71-2.44 8.3 0 7.032 5.272 11.72 5.372 4.687 15.625 4.687 10.157 0 18.067-4.394 7.91-4.492 11.62-12.207 2.832-5.957 2.832-17.578zM726.172 880v-14.258l66.015-75.78q-11.23.585-19.824.585h-42.285V776.29h84.766v11.62l-56.153 65.82-10.838 12.012q11.816-.88 22.168-.88h47.95V880zM828.668 919.94l-1.953-16.503Q832.477 905 836.773 905q5.86 0 9.375-1.953 3.516-1.953 5.762-5.47 1.66-2.636 5.37-13.085.49-1.465 1.564-4.297L819.488 776.29h18.946l21.582 60.058q4.2 11.425 7.52 24.023 3.027-12.108 7.226-23.632l22.168-60.45h17.578l-39.453 105.47q-6.348 17.09-9.864 23.535-4.686 8.69-10.74 12.695-6.055 4.102-14.454 4.102-5.078 0-11.328-2.15zM1040.203 880v-13.086q-9.863 15.43-29.004 15.43-12.403 0-22.852-6.836-10.352-6.836-16.114-19.043-5.664-12.305-5.664-28.223 0-15.527 5.176-28.125 5.176-12.695 15.527-19.433 10.352-6.74 23.145-6.74 9.375 0 16.7 4.005 7.323 3.905 11.913 10.253v-51.367h17.482V880zm-55.566-51.758q0 19.922 8.398 29.785 8.4 9.864 19.824 9.864 11.523 0 19.53-9.374 8.106-9.473 8.106-28.81 0-21.288-8.203-31.25-8.203-9.96-20.215-9.96-11.72 0-19.63 9.57-7.81 9.57-7.81 30.176zM1071.703 828.145q0-28.81 16.016-42.676 13.378-11.525 32.616-11.525 21.387 0 34.96 14.063 13.575 13.965 13.575 38.672 0 20.02-6.054 31.543-5.957 11.425-17.48 17.773-11.426 6.348-25 6.348-21.777 0-35.254-13.965-13.38-13.966-13.38-40.235zm18.066 0q0 19.92 8.69 29.882 8.692 9.864 21.876 9.864 13.086 0 21.777-9.96 8.692-9.96 8.692-30.37 0-19.24-8.79-29.103-8.69-9.96-21.68-9.96-13.183 0-21.874 9.862-8.69 9.863-8.69 29.785zM1180.352 888.594l17.09 2.54q1.074 7.91 5.956 11.522 6.543 4.883 17.872 4.883 12.207 0 18.847-4.884 6.64-4.883 8.985-13.672 1.367-5.37 1.27-22.558Q1238.847 880 1221.66 880q-21.387 0-33.105-15.43-11.72-15.43-11.72-37.01 0-14.845 5.372-27.345 5.37-12.598 15.527-19.434 10.254-6.835 24.024-6.835 18.36 0 30.273 14.844v-12.5h16.212v89.647q0 24.22-4.98 34.278-4.883 10.156-15.625 16.015-10.645 5.86-26.27 5.86-18.554 0-29.98-8.4-11.426-8.3-11.035-25.096zm14.55-62.305q0 20.41 8.106 29.784 8.105 9.375 20.312 9.375 12.11 0 20.313-9.278 8.203-9.375 8.203-29.297 0-19.043-8.496-28.71-8.4-9.67-20.313-9.67-11.718 0-19.922 9.57-8.203 9.474-8.203 28.224zM1293.883 880v-20.02h20.02V880z"/></g></svg>