<svg xmlns="http://www.w3.org/2000/svg" viewBox="0 0 800 500"><path fill="#fff" d="M0 0h800v500H0z"/><g font-weight="400" font-size="100" font-family="Avant Garde" text-anchor="middle" fill="#111"><path d="M211.138 42.8v-6.7h-41.2v6.7h16.9V110h7.4V42.8zM266.516 110V80.6c0-18.3-9.4-26.6-23.6-26.6-7.5 0-13.7 3-17.4 8.4V36.1h-7.4V110h7.4V80c0-13.4 7.2-19.2 16.7-19.2 10 0 16.9 6.2 16.9 19.8V110zM333.854 85.1c0-19.4-12.3-31.1-28.5-31.1-15.9 0-28.4 12.5-28.4 28.4 0 16.2 12.7 28.9 28.9 28.9 12.4 0 23.1-8.9 26.6-19.3h-7.7c-3.1 7.5-10.8 12.5-19.1 12.5-11.2 0-20.7-8.6-21.3-19.4zm-7.4-6.7h-41.9c2-10.5 10.3-17.6 20.7-17.6 10.6 0 18.7 6.7 21.2 17.6zM427.427 129.2V55.3h-7.4v9.4c-4.6-7-12.2-10.7-21.5-10.7-16.3 0-28.8 12.5-28.8 28.7 0 16.1 12.7 28.6 29 28.6 9.1 0 16.5-3.7 21.3-10.7v28.6zm-6.9-46.2c0 12-9.6 21.5-21.7 21.5-12.3 0-21.6-9.4-21.6-21.7 0-12.6 9.3-22 21.6-22 12.4 0 21.7 9.5 21.7 22.2zM489.754 110V55.3h-7.4v28.1c0 14.9-7 21.1-17 21.1-10.6 0-16.4-5.8-16.4-19.7V55.3h-7.4v29.5c0 19.1 9.3 26.5 23.2 26.5 8.5 0 13.9-3 17.6-9.8v8.5zM509.696 110V55.3h-7.4V110zm0-60.7V36.7h-7.4v12.6zM576.718 93.9h-8.4c-5.7 7.6-11 10.6-18.7 10.6-12.3 0-22-9.7-22-21.8 0-12.3 9.5-21.9 21.7-21.9 8.1 0 14.8 3.9 19 11.1h8.3c-4.4-11-14.9-17.9-27.2-17.9-16.4 0-29.3 12.6-29.3 28.5 0 16.3 13 28.8 29.8 28.8 11.3 0 20.2-4.9 26.8-17.4zM630.266 110l-22.7-27.2 21.3-27.5h-9.1l-25.5 33.2V36.1h-7.4V110h7.4V98.7l8.6-10.6 18.2 21.9zM228.258 192.6c0-16.1-12.6-28.6-28.8-28.6-9.2 0-16.8 3.8-21.5 10.7v-28.6h-7.4V220h7.4v-9.4c4.6 6.8 12.4 10.7 21.4 10.7 16.5 0 28.9-12.3 28.9-28.7zm-7.5-.2c0 12.6-9.3 22.1-21.6 22.1-12 0-21.7-10-21.7-22.1 0-12.1 9.6-21.6 21.8-21.6 12.3 0 21.5 9.3 21.5 21.6zM261.622 171.3V164c-7.9.4-12.6 3.1-15.5 9.1v-7.8h-7.4V220h7.4v-31.9c0-10.2 5.2-15.8 15.5-16.8zM320.87 192.8c0-16.7-12-28.8-28.4-28.8-16.2 0-28.7 12.3-28.7 28.3 0 16.8 12.3 29 29.3 29 16 0 27.8-12.1 27.8-28.5zm-7.5.1c0 12.5-8.6 21.6-20.5 21.6-12.6 0-21.6-9.2-21.6-22 0-12.4 9.1-21.7 21.2-21.7 12 0 20.9 9.4 20.9 22.1zM405.447 165.3h-7.2l-17.8 45.8-12.9-39.1h-6.1l-12.9 39.1-17.4-45.8h-7.4l20.9 54.7h8l11.8-36.3 11.9 36.3h7.9zM460.755 220v-28.7c0-19.2-9.7-27.3-23.4-27.3-7.2 0-13 2.8-17.6 8.4v-7.1h-7.4V220h7.4v-30.1c0-13.4 6.8-19.1 16.7-19.1 10.1 0 16.9 5.6 16.9 20.5V220zM525.827 172v-6.7h-13.6c-.1-9.1 3.5-12.5 13.6-12.5v-6.7c-14.1 0-21.2 6.5-21 19.2h-8.5v6.7h8.5v48h7.4v-48zM585.52 192.8c0-16.7-12-28.8-28.4-28.8-16.2 0-28.7 12.3-28.7 28.3 0 16.8 12.3 29 29.3 29 16 0 27.8-12.1 27.8-28.5zm-7.5.1c0 12.5-8.6 21.6-20.5 21.6-12.6 0-21.6-9.2-21.6-22 0-12.4 9.1-21.7 21.2-21.7 12 0 20.9 9.4 20.9 22.1zM634.895 220l-19.1-27.9 19.1-26.8h-8.5l-14.7 21.1-14.8-21.1h-8.4l19 26.8-19 27.9h8.4l14.8-21.9 14.7 21.9zM152.965 326.2v-50.9h-7.4v50.9c0 11.4-2.8 15.4-11.1 15.9v7.1c12.4-.5 18.5-7.2 18.5-23zm0-56.9v-12.6h-7.4v12.6zM213.777 330v-54.7h-7.4v28.1c0 14.9-7 21.1-17 21.1-10.6 0-16.4-5.8-16.4-19.7v-29.5h-7.4v29.5c0 19.1 9.3 26.5 23.2 26.5 8.5 0 13.9-3 17.6-9.8v8.5zM307.52 330v-32.5c0-15.9-9-23.6-21.5-23.6-8.5 0-14.4 3.3-19 10.6-4.3-7.3-9.7-10.5-17.9-10.5-6.9 0-11.2 2.1-15.4 7.6v-6.3h-7.4V330h7.4v-31.9c0-10.9 5.5-17.3 14.7-17.3 8.4 0 14.8 5.1 14.8 17.3V330h7.4v-31.7c0-12.4 6.3-17.6 15-17.6 9 0 14.5 5.3 14.5 17.6V330zM379.332 302.8c0-16.3-12.5-28.8-28.8-28.8-9.3 0-16.9 3.8-21.5 10.7v-9.4h-7.4v73.9h7.4v-28.6c4.8 7 12.2 10.7 21.3 10.7 16.3 0 29-12.5 29-28.5zm-7.5 0c0 12.3-9.3 21.7-21.5 21.7-12.5 0-21.8-9.5-21.8-22.1 0-12.1 9.6-21.6 21.7-21.6 12.3 0 21.6 9.4 21.6 22zM419.596 314.3c0-6.7-3.1-11.3-9.5-14-8.3-3.4-8.7-3.6-10.3-4.4-3.4-1.7-5-4-5-7.2 0-4.4 3.5-7.9 7.9-7.9 4.8 0 8 2.8 8 8h7.5c0-8.8-6.6-14.8-15.4-14.8-8.9 0-15.5 6.5-15.5 15.4 0 3.9 1.4 7.3 4.1 9.8 2.2 2.1 2.4 2.2 10.1 5.3 7.9 3.2 10.6 5 10.6 10.5s-3.9 9.5-9.2 9.5c-6.1 0-10.3-3.9-10.3-10.6h-7.3c0 10.6 7.1 17.4 17.6 17.4 9.8 0 16.7-7 16.7-17zM511.398 302.8c0-16.7-12-28.8-28.4-28.8-16.2 0-28.7 12.3-28.7 28.3 0 16.8 12.3 29 29.3 29 16 0 27.8-12.1 27.8-28.5zm-7.5.1c0 12.5-8.6 21.6-20.5 21.6-12.6 0-21.6-9.2-21.6-22 0-12.4 9.1-21.7 21.2-21.7 12 0 20.9 9.4 20.9 22.1zM567.588 275.3h-7.5l-19.6 46-19.2-46h-7.5l23 54.7h7.8zM627.018 305.1c0-19.4-12.3-31.1-28.5-31.1-15.9 0-28.4 12.5-28.4 28.4 0 16.2 12.7 28.9 28.9 28.9 12.4 0 23.1-8.9 26.6-19.3h-7.7c-3.1 7.5-10.8 12.5-19.1 12.5-11.2 0-20.7-8.6-21.3-19.4zm-7.4-6.7h-41.9c2-10.5 10.3-17.6 20.7-17.6 10.6 0 18.7 6.7 21.2 17.6zM660.157 281.3V274c-7.9.4-12.6 3.1-15.5 9.1v-7.8h-7.4V330h7.4v-31.9c0-10.2 5.2-15.8 15.5-16.8zM118.247 392v-6.7h-12.3v-19.2h-7.4v19.2h-11.8v6.7h11.8v48h7.4v-48zM174.23 440v-29.4c0-18.3-9.4-26.6-23.6-26.6-7.5 0-13.7 3-17.4 8.4v-26.3h-7.4V440h7.4v-30c0-13.4 7.2-19.2 16.7-19.2 10 0 16.9 6.2 16.9 19.8V440zM241.57 415.1c0-19.4-12.3-31.1-28.5-31.1-15.9 0-28.4 12.5-28.4 28.4 0 16.2 12.7 28.9 28.9 28.9 12.4 0 23.1-8.9 26.6-19.3h-7.7c-3.1 7.5-10.8 12.5-19.1 12.5-11.2 0-20.7-8.6-21.3-19.4zm-7.4-6.7h-41.9c2-10.5 10.3-17.6 20.7-17.6 10.6 0 18.7 6.7 21.2 17.6zM286.942 440v-73.9h-7.4V440zM355.164 440v-54.7h-7.4v9.7c-5.4-7.6-12.1-11-21.6-11-16.4 0-28.8 12.4-28.8 28.8 0 16.3 12.5 28.5 29.3 28.5 9.3 0 15.3-3.1 21.1-10.9v9.6zm-7.4-27.6c0 12.4-9.2 22.1-21 22.1-12.4 0-21.9-9.7-21.9-22.2 0-11.9 9.6-21.5 21.5-21.5 12 0 21.4 9.4 21.4 21.6zM403.023 440v-6.7h-31.8l29.9-41.7v-6.3h-37.6v6.7h29.2l-30.2 41.3v6.7zM456.802 385.3h-7.9l-18.5 43.6-17.3-43.6h-8.1l21.2 52.9-8.9 21h7.9zM547.552 440v-73.9h-7.4V394c-5.4-6.5-12.9-10-21.5-10-16.5 0-29.1 12.4-29.1 28.7 0 16.2 12.9 28.6 29.8 28.6 9.1 0 15.3-3.3 20.8-11.2v9.9zm-7.1-27.5c0 12-9.6 22-21.3 22-12.5 0-22.1-9.6-22.1-22.1 0-12 9.5-21.6 21.4-21.6 12.1 0 22 9.7 22 21.7zM615.206 412.8c0-16.7-12-28.8-28.4-28.8-16.2 0-28.7 12.3-28.7 28.3 0 16.8 12.3 29 29.3 29 16 0 27.8-12.1 27.8-28.5zm-7.5.1c0 12.5-8.6 21.6-20.5 21.6-12.6 0-21.6-9.2-21.6-22 0-12.4 9.1-21.7 21.2-21.7 12 0 20.9 9.4 20.9 22.1zM680.336 430.2v-44.9h-7.4v9.7c-5.5-7.5-12.2-11-21.4-11-16 0-28 12.4-28 28.9 0 16 12.5 28.4 28.5 28.4 9.8 0 16.6-4 20.9-12.4v3.7c0 14.4-6.9 22.1-20.1 22.1-9.2 0-14.5-3.1-20.1-13h-7.2c4 12.8 13.7 19.8 27.5 19.8 9.5 0 17.5-3.6 22.2-9.8 3.7-5 5.1-10.8 5.1-21.5zm-7.4-18.2c0 12.8-9 22.5-20.9 22.5-12 0-21-9.5-21-22.2 0-12.5 8.8-21.5 20.9-21.5 11.8 0 21 9.3 21 21.2zM704.22 440v-12.6h-7.4V440z"/></g></svg>