<svg xmlns="http://www.w3.org/2000/svg" viewBox="0 0 1600 1000" height="1000" width="1600"><path fill="#fff" d="M0 0h1600v1000H0z"/><g font-weight="400" font-size="200" font-family="Avant Garde" letter-spacing="-.03em" text-anchor="middle" fill="#222"><path d="M449.277 85.6V72.2h-82.4v13.4h33.8V220h14.8V85.6zM554.033 220v-58.8c0-36.6-18.8-53.2-47.2-53.2-15 0-27.4 6-34.8 16.8V72.2h-14.8V220h14.8v-60c0-26.8 14.4-38.4 33.4-38.4 20 0 33.8 12.4 33.8 39.6V220zM682.708 170.2c0-38.8-24.6-62.2-57-62.2-31.8 0-56.8 25-56.8 56.8 0 32.4 25.4 57.8 57.8 57.8 24.8 0 46.2-17.8 53.2-38.6h-15.4c-6.2 15-21.6 25-38.2 25-22.4 0-41.4-17.2-42.6-38.8zm-14.8-13.4h-83.8c4-21 20.6-35.2 41.4-35.2 21.2 0 37.4 13.4 42.4 35.2zM857.855 258.4V110.6h-14.8v18.8c-9.2-14-24.4-21.4-43-21.4-32.6 0-57.6 25-57.6 57.4 0 32.2 25.4 57.2 58 57.2 18.2 0 33-7.4 42.6-21.4v57.2zm-13.8-92.4c0 24-19.2 43-43.4 43-24.6 0-43.2-18.8-43.2-43.4 0-25.2 18.6-44 43.2-44 24.8 0 43.4 19 43.4 44.4zM976.508 220V110.6h-14.8v56.2c0 29.8-14 42.2-34 42.2-21.2 0-32.8-11.6-32.8-39.4v-59h-14.8v59c0 38.2 18.6 53 46.4 53 17 0 27.8-6 35.2-19.6v17zM1010.392 220V110.6h-14.8V220zm0-121.4V73.4h-14.8v25.2zM1138.436 187.8h-16.8c-11.4 15.2-22 21.2-37.4 21.2-24.6 0-44-19.4-44-43.6 0-24.6 19-43.8 43.4-43.8 16.2 0 29.6 7.8 38 22.2h16.6c-8.8-22-29.8-35.8-54.4-35.8-32.8 0-58.6 25.2-58.6 57 0 32.6 26 57.6 59.6 57.6 22.6 0 40.4-9.8 53.6-34.8zM1239.533 220l-45.4-54.4 42.6-55h-18.2l-51 66.4V72.2h-14.8V220h14.8v-22.6l17.2-21.2 36.4 43.8zM483.516 385.2c0-32.2-25.2-57.2-57.6-57.2-18.4 0-33.6 7.6-43 21.4v-57.2h-14.8V440h14.8v-18.8c9.2 13.6 24.8 21.4 42.8 21.4 33 0 57.8-24.6 57.8-57.4zm-15-.4c0 25.2-18.6 44.2-43.2 44.2-24 0-43.4-20-43.4-44.2 0-24.2 19.2-43.2 43.6-43.2 24.6 0 43 18.6 43 43.2zM544.244 342.6V328c-15.8.8-25.2 6.2-31 18.2v-15.6h-14.8V440h14.8v-63.8c0-20.4 10.4-31.6 31-33.6zM656.74 385.6c0-33.4-24-57.6-56.8-57.6-32.4 0-57.4 24.6-57.4 56.6 0 33.6 24.6 58 58.6 58 32 0 55.6-24.2 55.6-57zm-15 .2c0 25-17.2 43.2-41 43.2-25.2 0-43.2-18.4-43.2-44 0-24.8 18.2-43.4 42.4-43.4 24 0 41.8 18.8 41.8 44.2zM819.894 330.6h-14.4l-35.6 91.6-25.8-78.2h-12.2l-25.8 78.2-34.8-91.6h-14.8l41.8 109.4h16l23.6-72.6 23.8 72.6h15.8zM924.51 440v-57.4c0-38.4-19.4-54.6-46.8-54.6-14.4 0-26 5.6-35.2 16.8v-14.2h-14.8V440h14.8v-60.2c0-26.8 13.6-38.2 33.4-38.2 20.2 0 33.8 11.2 33.8 41V440zM1042.653 344v-13.4h-27.2c-.2-18.2 7-25 27.2-25v-13.4c-28.2 0-42.4 13-42 38.4h-17V344h17v96h14.8v-96zM1156.037 385.6c0-33.4-24-57.6-56.8-57.6-32.4 0-57.4 24.6-57.4 56.6 0 33.6 24.6 58 58.6 58 32 0 55.6-24.2 55.6-57zm-15 .2c0 25-17.2 43.2-41 43.2-25.2 0-43.2-18.4-43.2-44 0-24.8 18.2-43.4 42.4-43.4 24 0 41.8 18.8 41.8 44.2z"/><path d="M1248.79 440l-38.2-55.8 38.2-53.6h-17l-29.4 42.2-29.6-42.2h-16.8l38 53.6-38 55.8h16.8l29.6-43.8 29.4 43.8zM335.93 652.4V550.6h-14.8v101.8c0 22.8-5.6 30.8-22.2 31.8v14.2c24.8-1 37-14.4 37-46zm0-113.8v-25.2h-14.8v25.2zM451.555 660V550.6h-14.8v56.2c0 29.8-14 42.2-34 42.2-21.2 0-32.8-11.6-32.8-39.4v-59h-14.8v59c0 38.2 18.6 53 46.4 53 17 0 27.8-6 35.2-19.6v17zM633.04 660v-65c0-31.8-18-47.2-43-47.2-17 0-28.8 6.6-38 21.2-8.6-14.6-19.4-21-35.8-21-13.8 0-22.4 4.2-30.8 15.2v-12.6h-14.8V660h14.8v-63.8c0-21.8 11-34.6 29.4-34.6 16.8 0 29.6 10.2 29.6 34.6V660h14.8v-63.4c0-24.8 12.6-35.2 30-35.2 18 0 29 10.6 29 35.2V660zM770.664 605.6c0-32.6-25-57.6-57.6-57.6-18.6 0-33.8 7.6-43 21.4v-18.8h-14.8v147.8h14.8v-57.2c9.6 14 24.4 21.4 42.6 21.4 32.6 0 58-25 58-57zm-15 0c0 24.6-18.6 43.4-43 43.4-25 0-43.6-19-43.6-44.2 0-24.2 19.2-43.2 43.4-43.2 24.6 0 43.2 18.8 43.2 44zM845.192 628.6c0-13.4-6.2-22.6-19-28-16.6-6.8-17.4-7.2-20.6-8.8-6.8-3.4-10-8-10-14.4 0-8.8 7-15.8 15.8-15.8 9.6 0 16 5.6 16 16h15c0-17.6-13.2-29.6-30.8-29.6-17.8 0-31 13-31 30.8 0 7.8 2.8 14.6 8.2 19.6 4.4 4.2 4.8 4.4 20.2 10.6 15.8 6.4 21.2 10 21.2 21s-7.8 19-18.4 19c-12.2 0-20.6-7.8-20.6-21.2h-14.6c0 21.2 14.2 34.8 35.2 34.8 19.6 0 33.4-14 33.4-34zM1016.795 605.6c0-33.4-24-57.6-56.8-57.6-32.4 0-57.4 24.6-57.4 56.6 0 33.6 24.6 58 58.6 58 32 0 55.6-24.2 55.6-57zm-15 .2c0 25-17.2 43.2-41 43.2-25.2 0-43.2-18.4-43.2-44 0-24.8 18.2-43.4 42.4-43.4 24 0 41.8 18.8 41.8 44.2zM1123.177 550.6h-15l-39.2 92-38.4-92h-15l46 109.4h15.6zM1236.036 610.2c0-38.8-24.6-62.2-57-62.2-31.8 0-56.8 25-56.8 56.8 0 32.4 25.4 57.8 57.8 57.8 24.8 0 46.2-17.8 53.2-38.6h-15.4c-6.2 15-21.6 25-38.2 25-22.4 0-41.4-17.2-42.6-38.8zm-14.8-13.4h-83.8c4-21 20.6-35.2 41.4-35.2 21.2 0 37.4 13.4 42.4 35.2zM1296.314 562.6V548c-15.8.8-25.2 6.2-31 18.2v-15.6h-14.8V660h14.8v-63.8c0-20.4 10.4-31.6 31-33.6zM272.494 784v-13.4h-24.6v-38.4h-14.8v38.4h-23.6V784h23.6v96h14.8v-96zM378.462 880v-58.8c0-36.6-18.8-53.2-47.2-53.2-15 0-27.4 6-34.8 16.8v-52.6h-14.8V880h14.8v-60c0-26.8 14.4-38.4 33.4-38.4 20 0 33.8 12.4 33.8 39.6V880zM507.137 830.2c0-38.8-24.6-62.2-57-62.2-31.8 0-56.8 25-56.8 56.8 0 32.4 25.4 57.8 57.8 57.8 24.8 0 46.2-17.8 53.2-38.6h-15.4c-6.2 15-21.6 25-38.2 25-22.4 0-41.4-17.2-42.6-38.8zm-14.8-13.4h-83.8c4-21 20.6-35.2 41.4-35.2 21.2 0 37.4 13.4 42.4 35.2zM585.884 880V732.2h-14.8V880zM716.328 880V770.6h-14.8V790c-10.8-15.2-24.2-22-43.2-22-32.8 0-57.6 24.8-57.6 57.6 0 32.6 25 57 58.6 57 18.6 0 30.6-6.2 42.2-21.8V880zm-14.8-55.2c0 24.8-18.4 44.2-42 44.2-24.8 0-43.8-19.4-43.8-44.4 0-23.8 19.2-43 43-43 24 0 42.8 18.8 42.8 43.2zM806.047 880v-13.4h-63.6l59.8-83.4v-12.6h-75.2V784h58.4l-60.4 82.6V880zM907.603 770.6h-15.8l-37 87.2-34.6-87.2h-16.2l42.4 105.8-17.8 42h15.8zM1077.103 880V732.2h-14.8V788c-10.8-13-25.8-20-43-20-33 0-58.2 24.8-58.2 57.4 0 32.4 25.8 57.2 59.6 57.2 18.2 0 30.6-6.6 41.6-22.4V880zm-14.2-55c0 24-19.2 44-42.6 44-25 0-44.2-19.2-44.2-44.2 0-24 19-43.2 42.8-43.2 24.2 0 44 19.4 44 43.4zM1206.412 825.6c0-33.4-24-57.6-56.8-57.6-32.4 0-57.4 24.6-57.4 56.6 0 33.6 24.6 58 58.6 58 32 0 55.6-24.2 55.6-57zm-15 .2c0 25-17.2 43.2-41 43.2-25.2 0-43.2-18.4-43.2-44 0-24.8 18.2-43.4 42.4-43.4 24 0 41.8 18.8 41.8 44.2zM1330.672 860.4v-89.8h-14.8V790c-11-15-24.4-22-42.8-22-32 0-56 24.8-56 57.8 0 32 25 56.8 57 56.8 19.6 0 33.2-8 41.8-24.8v7.4c0 28.8-13.8 44.2-40.2 44.2-18.4 0-29-6.2-40.2-26h-14.4c8 25.6 27.4 39.6 55 39.6 19 0 35-7.2 44.4-19.6 7.4-10 10.2-21.6 10.2-43zm-14.8-36.4c0 25.6-18 45-41.8 45-24 0-42-19-42-44.4 0-25 17.6-43 41.8-43 23.6 0 42 18.6 42 42.4zM1372.438 880v-25.2h-14.8V880z"/></g></svg>