<svg xmlns="http://www.w3.org/2000/svg" viewBox="0 0 1600 1000" height="1000" width="1600"><path fill="#fff" d="M0 0h1600v1000H0z"/><g font-weight="400" font-size="200" font-family="Avenir" letter-spacing="-.03em" text-anchor="middle" fill="#222"><path d="M457.81 220h-14.4V91.6h-47.4V78.4h109.2v13.2h-47.4zM516.455 68.8h13.2v72.6h.4q2.2-3.8 5.6-7 3.4-3.2 7.6-5.4 4.2-2.4 8.8-3.6 4.8-1.4 9.4-1.4 18 0 26.6 9.6 8.6 9.4 8.6 27V220h-13.2v-51.8q0-15.6-5.4-23.8-5.4-8.4-20-8.4-1 0-5.6.8t-9.8 4.4q-5 3.6-9 10.8-4 7.2-4 20v48h-13.2zM694.583 166q0-13.4-8-21.6-8-8.4-22.4-8.4-6.4 0-12.4 2.6-6 2.4-10.6 6.6-4.4 4.2-7.2 9.6-2.6 5.4-2.6 11.2zm-63.6 10.8q.6 7 3.4 13.2 2.8 6.2 7.4 10.8 4.6 4.4 10.6 7 6 2.6 13 2.6 10.6 0 18.2-4.8 7.8-5 11.8-11.4l10.2 8.4q-8.4 10.6-18.6 15.2-10 4.6-21.6 4.6-10.4 0-19.4-3.6-8.8-3.8-15.2-10.4-6.4-6.6-10.2-15.6-3.6-9-3.6-19.6 0-10.6 3.6-19.6 3.6-9 10-15.6t15-10.2q8.6-3.8 18.6-3.8 10.6 0 19 3.8t14 10.2q5.8 6.2 8.8 14.8 3 8.4 3 18v6zM784.58 173.2q0 7.8 2.4 14.6 2.6 6.8 7.2 11.8 4.6 5 11 8 6.6 2.8 14.8 2.8 8 0 14.8-2.8 7-3 12-8t7.8-11.8q2.8-6.8 2.8-14.6t-2.8-14.6q-2.8-6.8-7.8-11.8-5-5-12-7.8-6.8-3-14.8-3-8.2 0-14.8 3-6.4 2.8-11 7.8t-7.2 11.8q-2.4 6.8-2.4 14.6zm85.4 104.4h-13.2v-73.2h-.4q-3.2 4.8-7.6 8.2-4.4 3.4-9.2 5.6-4.8 2.2-10 3.2-5 1-9.6 1-11 0-20.2-3.6-9-3.8-15.6-10.4-6.6-6.6-10.4-15.6-3.6-9-3.6-19.6 0-10.6 3.6-19.6 3.8-9 10.4-15.6 6.6-6.6 15.6-10.2 9.2-3.8 20.2-3.8 4.6 0 9.6 1 5.2 1 10 3.2t9.2 5.6q4.4 3.4 7.6 8.2h.4v-15.6h13.2zM960.445 220q-.4-3.8-.6-7.4V205h-.4q-2.2 3.8-5.6 7-3.4 3.2-7.6 5.6-4.2 2.2-9 3.4-4.6 1.4-9.2 1.4-18 0-26.6-9.4-8.6-9.6-8.6-27.2v-59.4h13.2v51.8q0 7.8 1.2 13.8 1.2 6 4 10.2 3 4 7.8 6.2 5 2 12.4 2 1 0 5.6-.8t9.6-4.4q5.2-3.6 9.2-10.8 4-7.2 4-20v-48h13.2v73q0 3.8.2 9.6.4 5.8.8 11zM1017.373 90.4q0 4.2-3 7-3 2.6-6.6 2.6-3.6 0-6.6-2.6-3-2.8-3-7t3-6.8q3-2.8 6.6-2.8 3.6 0 6.6 2.8 3 2.6 3 6.8zm-3 129.6h-13.2v-93.6h13.2zM1108.42 148.4q-3.4-5.2-9.6-8.8-6-3.6-13.8-3.6-8.2-.2-14.8 2.6-6.4 2.8-11 7.8t-7 12q-2.4 6.8-2.4 14.8t2.4 15q2.4 6.8 7 11.8 4.6 5 11 7.8 6.6 2.8 14.8 2.6 7.8 0 13.8-3.6 6.2-3.6 9.6-8.8l10.8 8.2q-7 8.2-15.8 12.2-8.8 3.8-18.4 4-11.4.2-20.6-3.4-9.2-3.8-15.8-10.4-6.4-6.6-9.8-15.6-3.4-9.2-3.4-19.8 0-10.6 3.4-19.6 3.4-9.2 9.8-15.8 6.6-6.6 15.8-10.2 9.2-3.8 20.6-3.6 9.6.2 18.4 4.2 8.8 3.8 15.8 12zM1143.905 168.6l44.2-42.2h19.8l-46.6 42.8 51.6 50.8h-20.4l-48.6-49.2V220h-13.2V68.8h13.2zM481.878 393.2q0-7.8-2.6-14.6-2.4-6.8-7-11.8-4.6-5-11.2-7.8-6.4-3-14.6-3t-15 3q-6.8 2.8-11.8 7.8-5 5-7.8 11.8-2.8 6.8-2.8 14.6t2.8 14.6q2.8 6.8 7.8 11.8 5 5 11.8 8 6.8 2.8 15 2.8t14.6-2.8q6.6-3 11.2-8t7-11.8q2.6-6.8 2.6-14.6zm-85.4-104.4h13.2V362h.4q3.2-4.8 7.6-8.2 4.4-3.4 9.2-5.6 4.8-2.2 9.8-3.2 5.2-1 9.8-1 11 0 20 3.8 9.2 3.6 15.8 10.2 6.6 6.6 10.2 15.6 3.8 9 3.8 19.6 0 10.6-3.8 19.6-3.6 9-10.2 15.6t-15.8 10.4q-9 3.6-20 3.6-4.6 0-9.8-1-5-1-9.8-3.2-4.8-2.2-9.2-5.6-4.4-3.4-7.6-8.2h-.4V440h-13.2zM514.144 375.6q0-6.2-.4-12.6-.2-6.4-.4-16.6h13v17.4h.4q1.4-3.8 4-7.2 2.6-3.6 6.2-6.4 3.8-2.8 8.6-4.4 5-1.8 11.2-1.8 5.6 0 9.8 1.2l-2.6 13q-2.6-1-7.6-1-7.6 0-13 3-5.4 2.8-9 7.4-3.6 4.4-5.4 9.6-1.6 5.2-1.6 10V440h-13.2zM649.834 393.2q0-7.8-2.6-14.6-2.4-6.8-7-11.8-4.6-5-11.2-7.8-6.4-3-14.6-3t-14.8 3q-6.4 2.8-11 7.8-4.4 5-7 11.8-2.4 6.8-2.4 14.6t2.4 14.6q2.6 6.8 7 11.8 4.6 5 11 8 6.6 2.8 14.8 2.8 8.2 0 14.6-2.8 6.6-3 11.2-8t7-11.8q2.6-6.8 2.6-14.6zm14.4 0q0 10.6-3.8 19.6-3.6 9-10.2 15.6t-15.8 10.4q-9 3.6-20 3.6-10.8 0-20-3.6-9-3.8-15.6-10.4-6.6-6.6-10.4-15.6-3.6-9-3.6-19.6 0-10.6 3.6-19.6 3.8-9 10.4-15.6 6.6-6.6 15.6-10.2 9.2-3.8 20-3.8 11 0 20 3.8 9.2 3.6 15.8 10.2 6.6 6.6 10.2 15.6 3.8 9 3.8 19.6zM686.384 346.4l21.6 76h.4l25-76h13.6l25 76h.4l21.6-76h15.6l-29.6 93.6h-14.8l-24.8-76.8h-.4l-24.8 76.8h-14.8l-29.6-93.6zM833.516 346.4q.4 3.8.4 7.6.2 3.6.2 7.4h.4q2.2-3.8 5.6-7 3.4-3.2 7.6-5.4 4.2-2.4 8.8-3.6 4.8-1.4 9.4-1.4 18 0 26.6 9.6 8.6 9.4 8.6 27V440h-13.2v-51.8q0-15.6-5.4-23.8-5.4-8.4-20-8.4-1 0-5.6.8t-9.8 4.4q-5 3.6-9 10.8-4 7.2-4 20v48h-13.2v-73q0-3.8-.4-9.6-.2-5.8-.6-11zM1019.313 358.4h-22.2V440h-13.2v-81.6h-19.8v-12h19.8v-25.6q0-18.6 8.6-26.4 8.6-8 22.8-8 2.8 0 5.6.4 3 .4 5.8 1l-2.4 12q-2.4-.6-5-1t-5.2-.4q-5.4 0-8.8 1.8-3.4 1.8-5.2 5.2-1.8 3.2-2.4 7.6-.6 4.4-.6 9.4v24h22.2zM1109.287 393.2q0-7.8-2.6-14.6-2.4-6.8-7-11.8-4.6-5-11.2-7.8-6.4-3-14.6-3t-14.8 3q-6.4 2.8-11 7.8-4.4 5-7 11.8-2.4 6.8-2.4 14.6t2.4 14.6q2.6 6.8 7 11.8 4.6 5 11 8 6.6 2.8 14.8 2.8 8.2 0 14.6-2.8 6.6-3 11.2-8t7-11.8q2.6-6.8 2.6-14.6zm14.4 0q0 10.6-3.8 19.6-3.6 9-10.2 15.6t-15.8 10.4q-9 3.6-20 3.6-10.8 0-20-3.6-9-3.8-15.6-10.4-6.6-6.6-10.4-15.6-3.6-9-3.6-19.6 0-10.6 3.6-19.6 3.8-9 10.4-15.6 6.6-6.6 15.6-10.2 9.2-3.8 20-3.8 11 0 20 3.8 9.2 3.6 15.8 10.2 6.6 6.6 10.2 15.6 3.8 9 3.8 19.6zM1166.037 390l-34-43.6h18l26 35 24.8-35h16.4l-32.6 43.6 39.2 50h-18l-31.4-41-30.2 41h-16.8zM370.827 530.4q0 4.2-3 7-3 2.6-6.6 2.6-3.6 0-6.6-2.6-3-2.8-3-7t3-6.8q3-2.8 6.6-2.8 3.6 0 6.6 2.8 3 2.6 3 6.8zm-38 164.2l.6.2q1.6.4 3.6.8 1.8.4 3.4.4 4.8 0 7.6-1.8 3-1.8 4.4-4.8 1.4-2.8 1.8-6.2.4-3.4.4-6.8v-110h13.2v112.2q0 2-.2 6.8-.2 5-2.6 10-2.2 5-7.8 8.8-5.4 3.8-15.8 3.8-5.6 0-10.4-2zM461.273 660q-.4-3.8-.6-7.4V645h-.4q-2.2 3.8-5.6 7-3.4 3.2-7.6 5.6-4.2 2.2-9 3.4-4.6 1.4-9.2 1.4-18 0-26.6-9.4-8.6-9.6-8.6-27.2v-59.4h13.2v51.8q0 7.8 1.2 13.8 1.2 6 4 10.2 3 4 7.8 6.2 5 2 12.4 2 1 0 5.6-.8t9.6-4.4q5.2-3.6 9.2-10.8 4-7.2 4-20v-48h13.2v73q0 3.8.2 9.6.4 5.8.8 11zM499.002 587.2q0-5.2-.4-10.4-.2-5.2-.6-10.4h14.2v14.2h.4q4.8-8.2 13.2-12.4 8.6-4.2 17-4.2 3.8 0 8 .8 4.4.8 8.4 3 4 2 7.4 5.8 3.6 3.8 6 9.8 4-9 12.6-14.2 8.8-5.2 18.2-5.2 18 0 26.6 9.6 8.6 9.4 8.6 27V660h-13.2v-54.6q0-14.2-5-21.8-5-7.6-18.6-7.6-7.4 0-12.4 3-5 2.8-8.2 7.6-3 4.8-4.4 11-1.4 6-1.4 12.6V660h-13.2v-54.6q0-14.2-5-21.8-5-7.6-18.6-7.6-1.2 0-5.6.8-4.2.8-8.8 4.4-4.6 3.6-8.4 10.8-3.6 7.2-3.6 20v48h-13.2zM748.714 613.2q0-7.8-2.6-14.6-2.4-6.8-7-11.8-4.6-5-11.2-7.8-6.4-3-14.6-3t-15 3q-6.8 2.8-11.8 7.8-5 5-7.8 11.8-2.8 6.8-2.8 14.6t2.8 14.6q2.8 6.8 7.8 11.8 5 5 11.8 8 6.8 2.8 15 2.8t14.6-2.8q6.6-3 11.2-8t7-11.8q2.6-6.8 2.6-14.6zm-85.4-46.8h13.2V582h.4q3.2-4.8 7.6-8.2 4.4-3.4 9.2-5.6 4.8-2.2 9.8-3.2 5.2-1 9.8-1 11 0 20 3.8 9.2 3.6 15.8 10.2 6.6 6.6 10.2 15.6 3.8 9 3.8 19.6 0 10.6-3.8 19.6-3.6 9-10.2 15.6t-15.8 10.4q-9 3.6-20 3.6-4.6 0-9.8-1-5-1-9.8-3.2-4.8-2.2-9.2-5.6-4.4-3.4-7.6-8.2h-.4v73.2h-13.2zM829.18 588.6q-3-5.8-8-9.2-5-3.4-12.2-3.4-3.4 0-7 .8-3.4.8-6.2 2.6-2.8 1.6-4.6 4.2-1.6 2.6-1.6 6.4 0 6.6 4.6 9.6t13.8 5.2l13.4 3.2q9.8 2.2 16.2 9 6.6 6.6 6.6 16.6 0 7.6-3.2 13.2-3 5.4-8.2 9-5 3.4-11.6 5t-13.4 1.6q-10.8 0-20.2-4-9.2-4.2-15.8-14.2l11.4-7.8q4 6.4 10 10.2 6.2 3.8 14.6 3.8 4 0 8-.8 4-1 7-2.8 3.2-2 5-5 2-3 2-7 0-7-5.2-10-5.2-3.2-12.6-5l-12.8-3q-2.4-.6-6.6-2-4-1.4-8-4.2-3.8-2.8-6.6-7.2-2.8-4.6-2.8-11.2 0-7.2 2.8-12.6 3-5.4 7.8-8.8 5-3.4 11.2-5 6.2-1.8 12.8-1.8 9.8 0 18.2 3.8 8.4 3.8 13 13zM988.405 613.2q0-7.8-2.6-14.6-2.4-6.8-7-11.8-4.6-5-11.2-7.8-6.4-3-14.6-3t-14.8 3q-6.4 2.8-11 7.8-4.4 5-7 11.8-2.4 6.8-2.4 14.6t2.4 14.6q2.6 6.8 7 11.8 4.6 5 11 8 6.6 2.8 14.8 2.8 8.2 0 14.6-2.8 6.6-3 11.2-8t7-11.8q2.6-6.8 2.6-14.6zm14.4 0q0 10.6-3.8 19.6-3.6 9-10.2 15.6t-15.8 10.4q-9 3.6-20 3.6-10.8 0-20-3.6-9-3.8-15.6-10.4-6.6-6.6-10.4-15.6-3.6-9-3.6-19.6 0-10.6 3.6-19.6 3.8-9 10.4-15.6 6.6-6.6 15.6-10.2 9.2-3.8 20-3.8 11 0 20 3.8 9.2 3.6 15.8 10.2 6.6 6.6 10.2 15.6 3.8 9 3.8 19.6zM1062.155 660h-14.8l-38-93.6h15.8l29.8 78.8h.4l29.8-78.8h15zM1184.24 606q0-13.4-8-21.6-8-8.4-22.4-8.4-6.4 0-12.4 2.6-6 2.4-10.6 6.6-4.4 4.2-7.2 9.6-2.6 5.4-2.6 11.2zm-63.6 10.8q.6 7 3.4 13.2 2.8 6.2 7.4 10.8 4.6 4.4 10.6 7 6 2.6 13 2.6 10.6 0 18.2-4.8 7.8-5 11.8-11.4l10.2 8.4q-8.4 10.6-18.6 15.2-10 4.6-21.6 4.6-10.4 0-19.4-3.6-8.8-3.8-15.2-10.4-6.4-6.6-10.2-15.6-3.6-9-3.6-19.6 0-10.6 3.6-19.6 3.6-9 10-15.6t15-10.2q8.6-3.8 18.6-3.8 10.6 0 19 3.8t14 10.2q5.8 6.2 8.8 14.8 3 8.4 3 18v6zM1218.167 595.6q0-6.2-.4-12.6-.2-6.4-.4-16.6h13v17.4h.4q1.4-3.8 4-7.2 2.6-3.6 6.2-6.4 3.8-2.8 8.6-4.4 5-1.8 11.2-1.8 5.6 0 9.8 1.2l-2.6 13q-2.6-1-7.6-1-7.6 0-13 3-5.4 2.8-9 7.4-3.6 4.4-5.4 9.6-1.6 5.2-1.6 10V660h-13.2zM322.628 798.4h-27v55.2q0 5.2 1 8.6 1 3.2 2.8 5 1.8 1.8 4.2 2.6 2.6.6 5.6.6 3.4 0 7-1t6.6-2.6l.6 12.2q-7.4 3.4-17.8 3.4-3.8 0-8-1-4-1-7.4-3.8-3.4-2.8-5.6-7.6-2.2-4.8-2.2-12.6v-59h-19.8v-12h19.8V760h13.2v26.4h27zM334.634 728.8h13.2v72.6h.4q2.2-3.8 5.6-7 3.4-3.2 7.6-5.4 4.2-2.4 8.8-3.6 4.8-1.4 9.4-1.4 18 0 26.6 9.6 8.6 9.4 8.6 27V880h-13.2v-51.8q0-15.6-5.4-23.8-5.4-8.4-20-8.4-1 0-5.6.8t-9.8 4.4q-5 3.6-9 10.8-4 7.2-4 20v48h-13.2zM512.763 826q0-13.4-8-21.6-8-8.4-22.4-8.4-6.4 0-12.4 2.6-6 2.4-10.6 6.6-4.4 4.2-7.2 9.6-2.6 5.4-2.6 11.2zm-63.6 10.8q.6 7 3.4 13.2 2.8 6.2 7.4 10.8 4.6 4.4 10.6 7 6 2.6 13 2.6 10.6 0 18.2-4.8 7.8-5 11.8-11.4l10.2 8.4q-8.4 10.6-18.6 15.2-10 4.6-21.6 4.6-10.4 0-19.4-3.6-8.8-3.8-15.2-10.4-6.4-6.6-10.2-15.6-3.6-9-3.6-19.6 0-10.6 3.6-19.6 3.6-9 10-15.6t15-10.2q8.6-3.8 18.6-3.8 10.6 0 19 3.8t14 10.2q5.8 6.2 8.8 14.8 3 8.4 3 18v6zM610.96 880h-13.2V728.8h13.2zM690.006 833.4q-5 0-12.6.6-7.4.4-14.4 2.4-6.8 1.8-11.8 5.8-4.8 4-4.8 11 0 4.6 1.8 8 2 3.2 5.2 5.4 3.2 2 7 3 4 .8 8 .8 7.2 0 12.4-2.4 5.4-2.4 9-6.4 3.6-4.2 5.2-9.6 1.8-5.6 1.8-11.8v-6.8zm6.8-10.8v-2.4q0-24.2-24-24.2-16.4 0-28.6 11l-8-9.4q13.2-13.6 39.6-13.6 6.8 0 13 2 6.4 2 11 6.2 4.6 4 7.4 10.2 2.8 6.2 2.8 14.8V859q0 5.4.4 11.4.6 5.8 1.2 9.6h-12.8q-.6-3.4-1-7.4-.2-4-.2-7.8h-.4q-5.8 9.4-13.8 13.6-7.8 4-19.2 4-6.2 0-12-1.8-5.8-1.6-10.4-5-4.4-3.6-7.2-8.6-2.6-5.2-2.6-12 0-11.4 5.8-17.8 6-6.6 14.8-9.8 9-3.2 19-4 10.2-.8 18.6-.8zM798.913 796l-54.8 72h56.8v12h-76v-9.6l54.8-72h-52v-12h71.2zM848.67 863.8l28.6-77.4h16l-46.8 118q-4.2 10.8-10.8 17.2-6.4 6.4-18.6 6.4-3 0-6.2-.2-3-.2-6-1.2l1.4-12.8q4.2 2.2 10 2.2 7 0 11-4.4t7-12.4l6.8-18-38.4-94.8h16.6zM961.822 833.2q0 7.8 2.4 14.6 2.6 6.8 7.2 11.8 4.6 5 11 8 6.6 2.8 14.8 2.8 8 0 14.8-2.8 7-3 12-8t7.8-11.8q2.8-6.8 2.8-14.6t-2.8-14.6q-2.8-6.8-7.8-11.8-5-5-12-7.8-6.8-3-14.8-3-8.2 0-14.8 3-6.4 2.8-11 7.8t-7.2 11.8q-2.4 6.8-2.4 14.6zm85.4 46.8h-13.2v-15.6h-.4q-3.2 4.8-7.6 8.2-4.4 3.4-9.2 5.6-4.8 2.2-10 3.2-5 1-9.6 1-11 0-20.2-3.6-9-3.8-15.6-10.4-6.6-6.6-10.4-15.6-3.6-9-3.6-19.6 0-10.6 3.6-19.6 3.8-9 10.4-15.6 6.6-6.6 15.6-10.2 9.2-3.8 20.2-3.8 4.6 0 9.6 1 5.2 1 10 3.2t9.2 5.6q4.4 3.4 7.6 8.2h.4v-73.2h13.2zM1150.287 833.2q0-7.8-2.6-14.6-2.4-6.8-7-11.8-4.6-5-11.2-7.8-6.4-3-14.6-3t-14.8 3q-6.4 2.8-11 7.8-4.4 5-7 11.8-2.4 6.8-2.4 14.6t2.4 14.6q2.6 6.8 7 11.8 4.6 5 11 8 6.6 2.8 14.8 2.8 8.2 0 14.6-2.8 6.6-3 11.2-8t7-11.8q2.6-6.8 2.6-14.6zm14.4 0q0 10.6-3.8 19.6-3.6 9-10.2 15.6t-15.8 10.4q-9 3.6-20 3.6-10.8 0-20-3.6-9-3.8-15.6-10.4-6.6-6.6-10.4-15.6-3.6-9-3.6-19.6 0-10.6 3.6-19.6 3.8-9 10.4-15.6 6.6-6.6 15.6-10.2 9.2-3.8 20-3.8 11 0 20 3.8 9.2 3.6 15.8 10.2 6.6 6.6 10.2 15.6 3.8 9 3.8 19.6zM1192.438 832q0 7.4 2.6 14 2.8 6.4 7.4 11.4 4.8 4.8 11 7.8 6.4 2.8 13.8 2.8 7.2 0 13.6-2.6 6.6-2.6 11.6-7.2 5-4.8 7.6-11.4 2.8-6.6 2.6-14.8 0-7.4-2.4-13.8-2.4-6.6-7-11.4-4.6-5-11.2-7.8-6.6-3-14.8-3-7.4 0-13.8 3-6.2 2.8-11 7.8-4.6 4.8-7.4 11.4-2.6 6.4-2.6 13.8zm-2.4 66.8q5.8 7.8 15 12.4 9.4 4.8 20.8 4.8 10 0 17-3 7-2.8 11.2-7.8 4.4-5 6.2-11.8 2-6.6 2-14.2v-16.8h-.4q-6.4 9.6-15.6 13.6t-19.4 4q-10.2 0-19.2-3.6-8.8-3.6-15.4-9.8-6.6-6.4-10.4-15.2-3.8-8.8-3.8-19t3.6-19q3.6-8.8 9.8-15.4 6.4-6.6 15-10.2 8.8-3.8 19.2-3.8 4.2 0 8.8.8 4.8.8 9.4 2.8 4.8 2 9.4 5.6 4.6 3.4 8.6 8.8h.4v-15.6h13.2v92.8q0 7.6-2 16.2-1.8 8.6-7.4 15.8-5.4 7.2-15.2 12-9.8 4.8-25.6 4.8-14 0-25-4.6t-20-14.2zM1323.303 870.4q0 4.2-3 7.6-3 3.2-7.8 3.2t-7.8-3.2q-3-3.4-3-7.6 0-4.2 3-7.4 3-3.4 7.8-3.4t7.8 3.4q3 3.2 3 7.4z"/></g></svg>