<svg xmlns="http://www.w3.org/2000/svg" viewBox="0 0 800 500"><path fill="#fff" d="M0 0h800v500H0z"/><g font-weight="400" font-size="100" font-family="Avenir" letter-spacing="-.03em" text-anchor="middle" fill="#222"><path d="M228.905 110h-7.2V45.8h-23.7v-6.6h54.6v6.6h-23.7zM258.227 34.4h6.6v36.3h.2q1.1-1.9 2.8-3.5 1.7-1.6 3.8-2.7 2.1-1.2 4.4-1.8 2.4-.7 4.7-.7 9 0 13.3 4.8 4.3 4.7 4.3 13.5V110h-6.6V84.1q0-7.8-2.7-11.9-2.7-4.2-10-4.2-.5 0-2.8.4t-4.9 2.2q-2.5 1.8-4.5 5.4-2 3.6-2 10v24h-6.6zM347.29 83q0-6.7-4-10.8-4-4.2-11.2-4.2-3.2 0-6.2 1.3-3 1.2-5.3 3.3-2.2 2.1-3.6 4.8-1.3 2.7-1.3 5.6zm-31.8 5.4q.3 3.5 1.7 6.6 1.4 3.1 3.7 5.4 2.3 2.2 5.3 3.5 3 1.3 6.5 1.3 5.3 0 9.1-2.4 3.9-2.5 5.9-5.7l5.1 4.2q-4.2 5.3-9.3 7.6-5 2.3-10.8 2.3-5.2 0-9.7-1.8-4.4-1.9-7.6-5.2-3.2-3.3-5.1-7.8-1.8-4.5-1.8-9.8 0-5.3 1.8-9.8 1.8-4.5 5-7.8t7.5-5.1q4.3-1.9 9.3-1.9 5.3 0 9.5 1.9t7 5.1q2.9 3.1 4.4 7.4 1.5 4.2 1.5 9v3zM392.29 86.6q0 3.9 1.2 7.3 1.3 3.4 3.6 5.9 2.3 2.5 5.5 4 3.3 1.4 7.4 1.4 4 0 7.4-1.4 3.5-1.5 6-4t3.9-5.9q1.4-3.4 1.4-7.3t-1.4-7.3q-1.4-3.4-3.9-5.9-2.5-2.5-6-3.9-3.4-1.5-7.4-1.5-4.1 0-7.4 1.5-3.2 1.4-5.5 3.9t-3.6 5.9q-1.2 3.4-1.2 7.3zm42.7 52.2h-6.6v-36.6h-.2q-1.6 2.4-3.8 4.1-2.2 1.7-4.6 2.8-2.4 1.1-5 1.6-2.5.5-4.8.5-5.5 0-10.1-1.8-4.5-1.9-7.8-5.2-3.3-3.3-5.2-7.8-1.8-4.5-1.8-9.8 0-5.3 1.8-9.8 1.9-4.5 5.2-7.8 3.3-3.3 7.8-5.1 4.6-1.9 10.1-1.9 2.3 0 4.8.5 2.6.5 5 1.6t4.6 2.8q2.2 1.7 3.8 4.1h.2v-7.8h6.6zM480.223 110q-.2-1.9-.3-3.7v-3.8h-.2q-1.1 1.9-2.8 3.5-1.7 1.6-3.8 2.8-2.1 1.1-4.5 1.7-2.3.7-4.6.7-9 0-13.3-4.7-4.3-4.8-4.3-13.6V63.2h6.6v25.9q0 3.9.6 6.9.6 3 2 5.1 1.5 2 3.9 3.1 2.5 1 6.2 1 .5 0 2.8-.4t4.8-2.2q2.6-1.8 4.6-5.4 2-3.6 2-10v-24h6.6v36.5q0 1.9.1 4.8.2 2.9.4 5.5zM508.687 45.2q0 2.1-1.5 3.5-1.5 1.3-3.3 1.3-1.8 0-3.3-1.3-1.5-1.4-1.5-3.5t1.5-3.4q1.5-1.4 3.3-1.4 1.8 0 3.3 1.4 1.5 1.3 1.5 3.4zm-1.5 64.8h-6.6V63.2h6.6zM554.21 74.2q-1.7-2.6-4.8-4.4-3-1.8-6.9-1.8-4.1-.1-7.4 1.3-3.2 1.4-5.5 3.9t-3.5 6q-1.2 3.4-1.2 7.4t1.2 7.5q1.2 3.4 3.5 5.9 2.3 2.5 5.5 3.9 3.3 1.4 7.4 1.3 3.9 0 6.9-1.8 3.1-1.8 4.8-4.4l5.4 4.1q-3.5 4.1-7.9 6.1-4.4 1.9-9.2 2-5.7.1-10.3-1.7-4.6-1.9-7.9-5.2-3.2-3.3-4.9-7.8-1.7-4.6-1.7-9.9 0-5.3 1.7-9.8 1.7-4.6 4.9-7.9 3.3-3.3 7.9-5.1 4.6-1.9 10.3-1.8 4.8.1 9.2 2.1 4.4 1.9 7.9 6zM571.952 84.3l22.1-21.1h9.9l-23.3 21.4 25.8 25.4h-10.2l-24.3-24.6V110h-6.6V34.4h6.6zM240.94 196.6q0-3.9-1.3-7.3-1.2-3.4-3.5-5.9-2.3-2.5-5.6-3.9-3.2-1.5-7.3-1.5t-7.5 1.5q-3.4 1.4-5.9 3.9-2.5 2.5-3.9 5.9-1.4 3.4-1.4 7.3t1.4 7.3q1.4 3.4 3.9 5.9 2.5 2.5 5.9 4 3.4 1.4 7.5 1.4t7.3-1.4q3.3-1.5 5.6-4t3.5-5.9q1.3-3.4 1.3-7.3zm-42.7-52.2h6.6V181h.2q1.6-2.4 3.8-4.1 2.2-1.7 4.6-2.8 2.4-1.1 4.9-1.6 2.6-.5 4.9-.5 5.5 0 10 1.9 4.6 1.8 7.9 5.1 3.3 3.3 5.1 7.8 1.9 4.5 1.9 9.8 0 5.3-1.9 9.8-1.8 4.5-5.1 7.8t-7.9 5.2q-4.5 1.8-10 1.8-2.3 0-4.9-.5-2.5-.5-4.9-1.6-2.4-1.1-4.6-2.8-2.2-1.7-3.8-4.1h-.2v7.8h-6.6zM257.072 187.8q0-3.1-.2-6.3-.1-3.2-.2-8.3h6.5v8.7h.2q.7-1.9 2-3.6 1.3-1.8 3.1-3.2 1.9-1.4 4.3-2.2 2.5-.9 5.6-.9 2.8 0 4.9.6l-1.3 6.5q-1.3-.5-3.8-.5-3.8 0-6.5 1.5-2.7 1.4-4.5 3.7-1.8 2.2-2.7 4.8-.8 2.6-.8 5V220h-6.6zM324.917 196.6q0-3.9-1.3-7.3-1.2-3.4-3.5-5.9-2.3-2.5-5.6-3.9-3.2-1.5-7.3-1.5t-7.4 1.5q-3.2 1.4-5.5 3.9-2.2 2.5-3.5 5.9-1.2 3.4-1.2 7.3t1.2 7.3q1.3 3.4 3.5 5.9 2.3 2.5 5.5 4 3.3 1.4 7.4 1.4 4.1 0 7.3-1.4 3.3-1.5 5.6-4t3.5-5.9q1.3-3.4 1.3-7.3zm7.2 0q0 5.3-1.9 9.8-1.8 4.5-5.1 7.8t-7.9 5.2q-4.5 1.8-10 1.8-5.4 0-10-1.8-4.5-1.9-7.8-5.2-3.3-3.3-5.2-7.8-1.8-4.5-1.8-9.8 0-5.3 1.8-9.8 1.9-4.5 5.2-7.8 3.3-3.3 7.8-5.1 4.6-1.9 10-1.9 5.5 0 10 1.9 4.6 1.8 7.9 5.1 3.3 3.3 5.1 7.8 1.9 4.5 1.9 9.8zM343.192 173.2l10.8 38h.2l12.5-38h6.8l12.5 38h.2l10.8-38h7.8l-14.8 46.8h-7.4l-12.4-38.4h-.2l-12.4 38.4h-7.4l-14.8-46.8zM416.758 173.2q.2 1.9.2 3.8.1 1.8.1 3.7h.2q1.1-1.9 2.8-3.5 1.7-1.6 3.8-2.7 2.1-1.2 4.4-1.8 2.4-.7 4.7-.7 9 0 13.3 4.8 4.3 4.7 4.3 13.5V220h-6.6v-25.9q0-7.8-2.7-11.9-2.7-4.2-10-4.2-.5 0-2.8.4t-4.9 2.2q-2.5 1.8-4.5 5.4-2 3.6-2 10v24h-6.6v-36.5q0-1.9-.2-4.8-.1-2.9-.3-5.5zM509.656 179.2h-11.1V220h-6.6v-40.8h-9.9v-6h9.9v-12.8q0-9.3 4.3-13.2 4.3-4 11.4-4 1.4 0 2.8.2 1.5.2 2.9.5l-1.2 6q-1.2-.3-2.5-.5t-2.6-.2q-2.7 0-4.4.9-1.7.9-2.6 2.6-.9 1.6-1.2 3.8-.3 2.2-.3 4.7v12h11.1zM554.644 196.6q0-3.9-1.3-7.3-1.2-3.4-3.5-5.9-2.3-2.5-5.6-3.9-3.2-1.5-7.3-1.5t-7.4 1.5q-3.2 1.4-5.5 3.9-2.2 2.5-3.5 5.9-1.2 3.4-1.2 7.3t1.2 7.3q1.3 3.4 3.5 5.9 2.3 2.5 5.5 4 3.3 1.4 7.4 1.4 4.1 0 7.3-1.4 3.3-1.5 5.6-4t3.5-5.9q1.3-3.4 1.3-7.3zm7.2 0q0 5.3-1.9 9.8-1.8 4.5-5.1 7.8t-7.9 5.2q-4.5 1.8-10 1.8-5.4 0-10-1.8-4.5-1.9-7.8-5.2-3.3-3.3-5.2-7.8-1.8-4.5-1.8-9.8 0-5.3 1.8-9.8 1.9-4.5 5.2-7.8 3.3-3.3 7.8-5.1 4.6-1.9 10-1.9 5.5 0 10 1.9 4.6 1.8 7.9 5.1 3.3 3.3 5.1 7.8 1.9 4.5 1.9 9.8zM583.02 195l-17-21.8h9l13 17.5 12.4-17.5h8.2l-16.3 21.8 19.6 25h-9l-15.7-20.5-15.1 20.5h-8.4zM185.413 265.2q0 2.1-1.5 3.5-1.5 1.3-3.3 1.3-1.8 0-3.3-1.3-1.5-1.4-1.5-3.5t1.5-3.4q1.5-1.4 3.3-1.4 1.8 0 3.3 1.4 1.5 1.3 1.5 3.4zm-19 82.1l.3.1q.8.2 1.8.4.9.2 1.7.2 2.4 0 3.8-.9 1.5-.9 2.2-2.4.7-1.4.9-3.1.2-1.7.2-3.4v-55h6.6v56.1q0 1-.1 3.4-.1 2.5-1.3 5-1.1 2.5-3.9 4.4-2.7 1.9-7.9 1.9-2.8 0-5.2-1zM230.637 330q-.2-1.9-.3-3.7v-3.8h-.2q-1.1 1.9-2.8 3.5-1.7 1.6-3.8 2.8-2.1 1.1-4.5 1.7-2.3.7-4.6.7-9 0-13.3-4.7-4.3-4.8-4.3-13.6v-29.7h6.6v25.9q0 3.9.6 6.9.6 3 2 5.1 1.5 2 3.9 3.1 2.5 1 6.2 1 .5 0 2.8-.4t4.8-2.2q2.6-1.8 4.6-5.4 2-3.6 2-10v-24h6.6v36.5q0 1.9.1 4.8.2 2.9.4 5.5zM249.5 293.6q0-2.6-.2-5.2-.1-2.6-.3-5.2h7.1v7.1h.2q2.4-4.1 6.6-6.2 4.3-2.1 8.5-2.1 1.9 0 4 .4 2.2.4 4.2 1.5 2 1 3.7 2.9 1.8 1.9 3 4.9 2-4.5 6.3-7.1 4.4-2.6 9.1-2.6 9 0 13.3 4.8 4.3 4.7 4.3 13.5V330h-6.6v-27.3q0-7.1-2.5-10.9-2.5-3.8-9.3-3.8-3.7 0-6.2 1.5-2.5 1.4-4.1 3.8-1.5 2.4-2.2 5.5-.7 3-.7 6.3V330h-6.6v-27.3q0-7.1-2.5-10.9-2.5-3.8-9.3-3.8-.6 0-2.8.4-2.1.4-4.4 2.2-2.3 1.8-4.2 5.4-1.8 3.6-1.8 10v24h-6.6zM374.357 306.6q0-3.9-1.3-7.3-1.2-3.4-3.5-5.9-2.3-2.5-5.6-3.9-3.2-1.5-7.3-1.5t-7.5 1.5q-3.4 1.4-5.9 3.9-2.5 2.5-3.9 5.9-1.4 3.4-1.4 7.3t1.4 7.3q1.4 3.4 3.9 5.9 2.5 2.5 5.9 4 3.4 1.4 7.5 1.4t7.3-1.4q3.3-1.5 5.6-4t3.5-5.9q1.3-3.4 1.3-7.3zm-42.7-23.4h6.6v7.8h.2q1.6-2.4 3.8-4.1 2.2-1.7 4.6-2.8 2.4-1.1 4.9-1.6 2.6-.5 4.9-.5 5.5 0 10 1.9 4.6 1.8 7.9 5.1 3.3 3.3 5.1 7.8 1.9 4.5 1.9 9.8 0 5.3-1.9 9.8-1.8 4.5-5.1 7.8t-7.9 5.2q-4.5 1.8-10 1.8-2.3 0-4.9-.5-2.5-.5-4.9-1.6-2.4-1.1-4.6-2.8-2.2-1.7-3.8-4.1h-.2v36.6h-6.6zM414.59 294.3q-1.5-2.9-4-4.6-2.5-1.7-6.1-1.7-1.7 0-3.5.4-1.7.4-3.1 1.3-1.4.8-2.3 2.1-.8 1.3-.8 3.2 0 3.3 2.3 4.8t6.9 2.6l6.7 1.6q4.9 1.1 8.1 4.5 3.3 3.3 3.3 8.3 0 3.8-1.6 6.6-1.5 2.7-4.1 4.5-2.5 1.7-5.8 2.5t-6.7.8q-5.4 0-10.1-2-4.6-2.1-7.9-7.1l5.7-3.9q2 3.2 5 5.1 3.1 1.9 7.3 1.9 2 0 4-.4 2-.5 3.5-1.4 1.6-1 2.5-2.5 1-1.5 1-3.5 0-3.5-2.6-5-2.6-1.6-6.3-2.5l-6.4-1.5q-1.2-.3-3.3-1-2-.7-4-2.1-1.9-1.4-3.3-3.6-1.4-2.3-1.4-5.6 0-3.6 1.4-6.3 1.5-2.7 3.9-4.4 2.5-1.7 5.6-2.5 3.1-.9 6.4-.9 4.9 0 9.1 1.9 4.2 1.9 6.5 6.5zM494.202 306.6q0-3.9-1.3-7.3-1.2-3.4-3.5-5.9-2.3-2.5-5.6-3.9-3.2-1.5-7.3-1.5t-7.4 1.5q-3.2 1.4-5.5 3.9-2.2 2.5-3.5 5.9-1.2 3.4-1.2 7.3t1.2 7.3q1.3 3.4 3.5 5.9 2.3 2.5 5.5 4 3.3 1.4 7.4 1.4 4.1 0 7.3-1.4 3.3-1.5 5.6-4t3.5-5.9q1.3-3.4 1.3-7.3zm7.2 0q0 5.3-1.9 9.8-1.8 4.5-5.1 7.8t-7.9 5.2q-4.5 1.8-10 1.8-5.4 0-10-1.8-4.5-1.9-7.8-5.2-3.3-3.3-5.2-7.8-1.8-4.5-1.8-9.8 0-5.3 1.8-9.8 1.9-4.5 5.2-7.8 3.3-3.3 7.8-5.1 4.6-1.9 10-1.9 5.5 0 10 1.9 4.6 1.8 7.9 5.1 3.3 3.3 5.1 7.8 1.9 4.5 1.9 9.8zM531.077 330h-7.4l-19-46.8h7.9l14.9 39.4h.2l14.9-39.4h7.5zM592.12 303q0-6.7-4-10.8-4-4.2-11.2-4.2-3.2 0-6.2 1.3-3 1.2-5.3 3.3-2.2 2.1-3.6 4.8-1.3 2.7-1.3 5.6zm-31.8 5.4q.3 3.5 1.7 6.6 1.4 3.1 3.7 5.4 2.3 2.2 5.3 3.5 3 1.3 6.5 1.3 5.3 0 9.1-2.4 3.9-2.5 5.9-5.7l5.1 4.2q-4.2 5.3-9.3 7.6-5 2.3-10.8 2.3-5.2 0-9.7-1.8-4.4-1.9-7.6-5.2-3.2-3.3-5.1-7.8-1.8-4.5-1.8-9.8 0-5.3 1.8-9.8 1.8-4.5 5-7.8t7.5-5.1q4.3-1.9 9.3-1.9 5.3 0 9.5 1.9t7 5.1q2.9 3.1 4.4 7.4 1.5 4.2 1.5 9v3zM609.084 297.8q0-3.1-.2-6.3-.1-3.2-.2-8.3h6.5v8.7h.2q.7-1.9 2-3.6 1.3-1.8 3.1-3.2 1.9-1.4 4.3-2.2 2.5-.9 5.6-.9 2.8 0 4.9.6l-1.3 6.5q-1.3-.5-3.8-.5-3.8 0-6.5 1.5-2.7 1.4-4.5 3.7-1.8 2.2-2.7 4.8-.8 2.6-.8 5V330h-6.6zM161.314 399.2h-13.5v27.6q0 2.6.5 4.3.5 1.6 1.4 2.5.9.9 2.1 1.3 1.3.3 2.8.3 1.7 0 3.5-.5t3.3-1.3l.3 6.1q-3.7 1.7-8.9 1.7-1.9 0-4-.5-2-.5-3.7-1.9-1.7-1.4-2.8-3.8-1.1-2.4-1.1-6.3v-29.5h-9.9v-6h9.9V380h6.6v13.2h13.5zM167.317 364.4h6.6v36.3h.2q1.1-1.9 2.8-3.5 1.7-1.6 3.8-2.7 2.1-1.2 4.4-1.8 2.4-.7 4.7-.7 9 0 13.3 4.8 4.3 4.7 4.3 13.5V440h-6.6v-25.9q0-7.8-2.7-11.9-2.7-4.2-10-4.2-.5 0-2.8.4t-4.9 2.2q-2.5 1.8-4.5 5.4-2 3.6-2 10v24h-6.6zM256.38 413q0-6.7-4-10.8-4-4.2-11.2-4.2-3.2 0-6.2 1.3-3 1.2-5.3 3.3-2.2 2.1-3.6 4.8-1.3 2.7-1.3 5.6zm-31.8 5.4q.3 3.5 1.7 6.6 1.4 3.1 3.7 5.4 2.3 2.2 5.3 3.5 3 1.3 6.5 1.3 5.3 0 9.1-2.4 3.9-2.5 5.9-5.7l5.1 4.2q-4.2 5.3-9.3 7.6-5 2.3-10.8 2.3-5.2 0-9.7-1.8-4.4-1.9-7.6-5.2-3.2-3.3-5.1-7.8-1.8-4.5-1.8-9.8 0-5.3 1.8-9.8 1.8-4.5 5-7.8t7.5-5.1q4.3-1.9 9.3-1.9 5.3 0 9.5 1.9t7 5.1q2.9 3.1 4.4 7.4 1.5 4.2 1.5 9v3zM305.48 440h-6.6v-75.6h6.6zM345.003 416.7q-2.5 0-6.3.3-3.7.2-7.2 1.2-3.4.9-5.9 2.9-2.4 2-2.4 5.5 0 2.3.9 4 1 1.6 2.6 2.7 1.6 1 3.5 1.5 2 .4 4 .4 3.6 0 6.2-1.2 2.7-1.2 4.5-3.2 1.8-2.1 2.6-4.8.9-2.8.9-5.9v-3.4zm3.4-5.4v-1.2q0-12.1-12-12.1-8.2 0-14.3 5.5l-4-4.7q6.6-6.8 19.8-6.8 3.4 0 6.5 1 3.2 1 5.5 3.1 2.3 2 3.7 5.1 1.4 3.1 1.4 7.4v20.9q0 2.7.2 5.7.3 2.9.6 4.8h-6.4q-.3-1.7-.5-3.7-.1-2-.1-3.9h-.2q-2.9 4.7-6.9 6.8-3.9 2-9.6 2-3.1 0-6-.9-2.9-.8-5.2-2.5-2.2-1.8-3.6-4.3-1.3-2.6-1.3-6 0-5.7 2.9-8.9 3-3.3 7.4-4.9 4.5-1.6 9.5-2 5.1-.4 9.3-.4zM399.456 398l-27.4 36h28.4v6h-38v-4.8l27.4-36h-26v-6h35.6zM424.334 431.9l14.3-38.7h8l-23.4 59q-2.1 5.4-5.4 8.6-3.2 3.2-9.3 3.2-1.5 0-3.1-.1-1.5-.1-3-.6l.7-6.4q2.1 1.1 5 1.1 3.5 0 5.5-2.2t3.5-6.2l3.4-9-19.2-47.4h8.3zM480.91 416.6q0 3.9 1.2 7.3 1.3 3.4 3.6 5.9 2.3 2.5 5.5 4 3.3 1.4 7.4 1.4 4 0 7.4-1.4 3.5-1.5 6-4t3.9-5.9q1.4-3.4 1.4-7.3t-1.4-7.3q-1.4-3.4-3.9-5.9-2.5-2.5-6-3.9-3.4-1.5-7.4-1.5-4.1 0-7.4 1.5-3.2 1.4-5.5 3.9t-3.6 5.9q-1.2 3.4-1.2 7.3zm42.7 23.4h-6.6v-7.8h-.2q-1.6 2.4-3.8 4.1-2.2 1.7-4.6 2.8-2.4 1.1-5 1.6-2.5.5-4.8.5-5.5 0-10.1-1.8-4.5-1.9-7.8-5.2-3.3-3.3-5.2-7.8-1.8-4.5-1.8-9.8 0-5.3 1.8-9.8 1.9-4.5 5.2-7.8 3.3-3.3 7.8-5.1 4.6-1.9 10.1-1.9 2.3 0 4.8.5 2.6.5 5 1.6t4.6 2.8q2.2 1.7 3.8 4.1h.2v-36.6h6.6zM575.144 416.6q0-3.9-1.3-7.3-1.2-3.4-3.5-5.9-2.3-2.5-5.6-3.9-3.2-1.5-7.3-1.5t-7.4 1.5q-3.2 1.4-5.5 3.9-2.2 2.5-3.5 5.9-1.2 3.4-1.2 7.3t1.2 7.3q1.3 3.4 3.5 5.9 2.3 2.5 5.5 4 3.3 1.4 7.4 1.4 4.1 0 7.3-1.4 3.3-1.5 5.6-4t3.5-5.9q1.3-3.4 1.3-7.3zm7.2 0q0 5.3-1.9 9.8-1.8 4.5-5.1 7.8t-7.9 5.2q-4.5 1.8-10 1.8-5.4 0-10-1.8-4.5-1.9-7.8-5.2-3.3-3.3-5.2-7.8-1.8-4.5-1.8-9.8 0-5.3 1.8-9.8 1.9-4.5 5.2-7.8 3.3-3.3 7.8-5.1 4.6-1.9 10-1.9 5.5 0 10 1.9 4.6 1.8 7.9 5.1 3.3 3.3 5.1 7.8 1.9 4.5 1.9 9.8zM596.22 416q0 3.7 1.3 7 1.4 3.2 3.7 5.7 2.4 2.4 5.5 3.9 3.2 1.4 6.9 1.4 3.6 0 6.8-1.3 3.3-1.3 5.8-3.6 2.5-2.4 3.8-5.7 1.4-3.3 1.3-7.4 0-3.7-1.2-6.9-1.2-3.3-3.5-5.7-2.3-2.5-5.6-3.9-3.3-1.5-7.4-1.5-3.7 0-6.9 1.5-3.1 1.4-5.5 3.9-2.3 2.4-3.7 5.7-1.3 3.2-1.3 6.9zm-1.2 33.4q2.9 3.9 7.5 6.2 4.7 2.4 10.4 2.4 5 0 8.5-1.5 3.5-1.4 5.6-3.9 2.2-2.5 3.1-5.9 1-3.3 1-7.1v-8.4h-.2q-3.2 4.8-7.8 6.8t-9.7 2q-5.1 0-9.6-1.8-4.4-1.8-7.7-4.9-3.3-3.2-5.2-7.6-1.9-4.4-1.9-9.5t1.8-9.5q1.8-4.4 4.9-7.7 3.2-3.3 7.5-5.1 4.4-1.9 9.6-1.9 2.1 0 4.4.4 2.4.4 4.7 1.4 2.4 1 4.7 2.8 2.3 1.7 4.3 4.4h.2v-7.8h6.6v46.4q0 3.8-1 8.1-.9 4.3-3.7 7.9-2.7 3.6-7.6 6-4.9 2.4-12.8 2.4-7 0-12.5-2.3t-10-7.1zM661.652 435.2q0 2.1-1.5 3.8-1.5 1.6-3.9 1.6t-3.9-1.6q-1.5-1.7-1.5-3.8 0-2.1 1.5-3.7 1.5-1.7 3.9-1.7t3.9 1.7q1.5 1.6 1.5 3.7z"/></g></svg>