<svg xmlns="http://www.w3.org/2000/svg" viewBox="0 0 800 500"><path fill="#fff" d="M0 0h800v500H0z"/><g font-weight="400" font-size="100" font-family="Baskerville" letter-spacing="-.03em" text-anchor="middle" fill="#222"><path d="M213.012 59.707h-2.246l.34-15.918h64.26l.34 15.917h-2.1q-1.122-6.543-3.075-9.424-1.952-2.93-4.198-3.564-2.246-.685-7.666-.685H248.02v46.73q0 7.762.343 10.204.39 2.44 2.002 3.612 1.612 1.172 6.055 1.172h3.223V110h-33.008v-2.246h3.418q4.248 0 5.86-1.074 1.66-1.075 2.1-3.32.487-2.296.487-10.596v-46.73h-9.814q-6.397 0-8.594.636-2.197.586-4.15 3.662-1.905 3.076-2.93 9.375zM292.238 76.602q2.93-4.102 6.543-6.153 3.663-2.052 8.01-2.052 4.93 0 8.153 2.05 3.272 2.052 4.248 5.08.978 2.978.978 9.716V96.28q0 7.03.244 8.544.293 1.514 1.61 2.246 1.32.684 4.884.684V110h-20.654v-2.246h.928q3.564 0 4.59-1.025 1.074-1.027 1.22-2.394.196-1.416.196-8.057V84.267q0-4.98-.586-7.373t-2.784-3.956q-2.148-1.563-5.42-1.563-3.808 0-6.835 2.246-3.027 2.197-5.322 6.64V96.28q0 6.738.196 8.3.244 1.563 1.513 2.393 1.27.78 4.64.78V110h-20.314v-2.246h1.026q3.514 0 4.54-.977 1.074-1.025 1.22-2.392.196-1.416.196-8.106V56.435q0-6.055-1.172-7.666-1.123-1.612-5.47-1.612v-2.246q7.57 0 12.6-2.05h1.024zM365.996 83.535h-27.88q-.196 2.88-.196 4.297 0 10.547 3.27 15.87 3.322 5.273 9.865 5.273 8.886 0 12.597-7.96h2.344q-1.562 4.98-6.2 7.813-4.64 2.783-10.11 2.783-5.077 0-9.618-2.538-4.492-2.588-7.373-7.275-2.88-4.688-2.88-11.377 0-9.473 5.566-15.723 5.567-6.3 13.917-6.3 7.86 0 12.158 4.787 4.297 4.785 4.54 10.35zm-8.545-1.953q.148-1.123.148-2.002 0-4.297-2.54-6.64-2.49-2.393-6.152-2.393-8.886 0-10.595 11.035zM431.53 68.398h1.61v52.49q0 6.397.147 8.057.195 1.66 1.416 2.54 1.22.878 4.346.878h1.073v2.246H418.59v-2.247h1.61q2.93 0 4.152-.78 1.27-.782 1.513-2.296.244-1.465.244-8.398V106.58q-3.516 2.49-7.13 3.76-3.564 1.27-7.275 1.27-8.35 0-13.916-5.714-5.52-5.712-5.52-15.234 0-10.01 6.154-16.113 6.2-6.152 13.965-6.152 3.27 0 6.688 1.32 3.467 1.268 7.03 3.905 2.687-1.758 5.42-5.225zm-5.42 8.252q-2.88-2.636-5.958-3.955-3.027-1.318-6.2-1.318-5.567 0-9.57 4.346-4.005 4.345-4.005 15.38 0 8.936 3.418 13.477 3.467 4.492 9.57 4.492 3.272 0 6.446-1.172 3.174-1.22 6.3-3.613zM481.41 70.01v26.22q0 6.543.195 8.204.196 1.66 1.416 2.49 1.27.83 4.494.83V110q-7.422.098-10.84 1.563h-.586q-1.563-2.686-1.66-9.278-2.98 4.64-6.836 6.983-3.81 2.343-8.447 2.343-4.004 0-7.08-1.805-3.077-1.856-4.25-4.492-1.122-2.637-1.122-7.96V83.73q0-6.933-.244-8.447-.245-1.562-1.563-2.295-1.27-.732-4.737-.732V70.01h13.575v27.734q0 4.102.488 5.957.488 1.857 2.49 3.273 2.002 1.367 4.64 1.367 3.76 0 7.177-2.442 3.417-2.49 4.638-5.224 1.27-2.783 1.27-7.91V83.73q0-6.542-.147-7.96-.145-1.415-1.268-2.44-1.075-1.074-4.54-1.074h-1.027V70.01zM493.79 47.988q0-2.1 1.466-3.613 1.514-1.514 3.613-1.514 2.1 0 3.564 1.515 1.464 1.514 1.464 3.613 0 2.15-1.464 3.662-1.465 1.514-3.565 1.514-2.1 0-3.614-1.514-1.465-1.513-1.465-3.662zm9.425 20.41v27.88q0 6.398.195 8.058.195 1.66 1.416 2.54 1.22.878 4.346.878h1.025V110h-21.533v-2.246h1.66q3.467 0 4.492-.977 1.075-1.025 1.22-2.392.196-1.416.196-8.106V84.17q0-7.03-.683-8.594-.636-1.562-1.76-1.953-1.073-.39-3.808-.39h-1.318v-2.247q8.69-.88 13.477-2.588zM547.334 100.234h2.148q-3.32 11.377-16.6 11.377-8.546 0-14.405-5.81-5.81-5.81-5.81-15.38 0-9.815 6.298-15.918 6.3-6.104 14.892-6.104 5.176 0 9.522 2.295 4.345 2.246 4.345 5.518 0 1.222-.83 2.296-.782 1.074-2.295 1.074-3.223 0-3.955-3.76-.586-2.832-1.807-3.955-1.27-1.123-4.932-1.123-6.543 0-9.863 4.54-3.272 4.542-3.272 13.673 0 9.424 3.517 14.746 3.565 5.323 10.742 5.323 9.667 0 12.304-8.79zM575.29 70.01h16.114v2.246q-4.443.098-11.914 6.64-2.392 2.05-7.422 6.006l14.258 16.7q3.223 3.76 5.078 4.93 1.856 1.124 3.81 1.222V110H575.29v-2.246q4.98-.098 4.98-2.15 0-.926-3.27-4.735l-10.254-11.915-2.1 1.563v5.76q0 6.398.147 8.058.195 1.61 1.416 2.54 1.22.878 4.247.878V110h-20.264v-2.246h1.514q3.516 0 4.54-.977 1.075-1.025 1.222-2.392.145-1.416.145-8.106V56.19q0-5.81-1.123-7.42-1.074-1.612-5.273-1.612v-2.246q2.88 0 6.884-.683 4.052-.685 5.517-1.37h1.026v44.972l4.2-2.93q10.205-7.226 10.205-10.4 0-2.148-3.76-2.246zM221.264 221.61h-1.905v-53.514q0-5.86-.342-7.57-.293-1.708-1.612-2.538-1.27-.83-4.492-.83v-2.246q2.88 0 6.934-.683 4.052-.685 5.517-1.37h1.026v31.642q3.42-3.076 6.934-4.59 3.516-1.514 7.13-1.514 8.642 0 14.16 6.006 5.517 6.006 5.517 15.332 0 9.375-5.663 15.625-5.664 6.25-14.697 6.25-4.444 0-7.813-1.854-3.32-1.856-5.566-5.518-3.173 3.174-5.126 7.373zm5.127-34.227v15.674q0 6.054.782 8.74.83 2.637 3.906 5.078 3.076 2.44 7.178 2.44 6.3 0 10.01-5.174 3.76-5.175 3.76-14.892 0-8.936-3.516-13.574-3.467-4.688-9.278-4.688-3.32 0-6.543 1.612-3.174 1.562-6.3 4.785zM277.443 188.604q1.66-4.346 5.37-7.276 3.76-2.93 7.326-2.93 3.22 0 5.077 2.002 1.855 2.002 1.855 4.102 0 1.416-.976 2.44-.928 1.027-2.295 1.027-2.44 0-3.71-3.615-.88-2.44-2.637-2.44-2.1 0-5.03 2.88-2.93 2.832-3.76 5.908-.83 3.076-.83 8.447v7.13q0 6.396.147 8.056.196 1.66 1.416 2.54 1.22.878 4.346.878h1.367V220h-21.24v-2.246h1.025q2.93 0 4.15-.78 1.27-.83 1.514-2.296.243-1.465.243-8.4V195q0-6.445-.196-8.057-.146-1.66-1.367-2.54-1.22-.926-4.345-.926h-1.026v-2.198q4.59-.538 12.01-2.882 1.417 3.858 1.563 10.206zM296.074 199.932q0-9.18 6.153-15.332 6.152-6.202 15.136-6.202 9.033 0 15.186 6.202 6.15 6.2 6.15 15.332 0 10.107-6.25 15.918-6.25 5.76-15.087 5.76-8.838 0-15.088-5.858-6.2-5.908-6.2-15.82zm8.106.244q0 10.644 3.466 14.94 3.467 4.25 9.717 4.25 6.397 0 9.766-4.25 3.417-4.296 3.417-14.94 0-10.547-3.37-15.04-3.368-4.49-9.814-4.49-6.396 0-9.814 4.49-3.37 4.444-3.37 15.04zM386.385 221.563h-2.197l-11.915-31.74-12.158 31.74h-2.148l-12.207-31.74q-2.1-5.42-3.125-6.493-1.026-1.074-4.102-1.074v-2.246h18.262v2.246q-3.076 0-4.2.586-1.122.537-1.122 1.904 0 .977 1.904 5.713l8.105 21.435 12.403-31.885h1.904l12.01 31.885 8.79-22.706q1.416-3.614 1.416-4.346 0-2.393-4.932-2.588v-2.246h12.99v2.246q-2.345.05-3.712.928-1.32.83-2.442 3.808l-1.074 2.832z"/><path d="M416.93 178.398h1.318q1.123 3.028 1.27 8.252 3.515-4.15 7.373-6.2 3.858-2.052 8.057-2.052 4.785 0 7.813 2.002 3.076 2.002 3.955 4.932.88 2.88.88 8.447v12.5q0 6.933.243 8.447.244 1.513 1.514 2.294 1.318.734 4.785.734V220h-20.46v-2.246h.928q3.516 0 4.59-1.025 1.075-1.027 1.22-2.394.147-1.367.147-8.057v-12.89q0-4.738-.488-6.74-.44-2.05-2.49-3.613-2.002-1.562-5.127-1.562-3.564 0-6.836 2.148-3.222 2.1-6.102 6.348v16.31q0 6.933.244 8.447.293 1.513 1.562 2.294 1.32.734 4.834.734V220h-20.215v-2.246q3.37 0 4.688-.684 1.32-.683 1.612-2.05.342-1.416.342-8.74v-11.915q0-6.982-.293-8.447-.243-1.514-1.56-2.246-1.27-.78-4.787-.78v-2.247q5.37-.586 10.987-2.247zM499.602 180.01v2.246h-8.35v24.023q0 6.396.146 8.056.196 1.66 1.416 2.54 1.22.878 4.346.878h2.1V220h-21.63v-2.246q3.368 0 4.638-.684 1.318-.683 1.61-2.05.343-1.416.343-8.74v-24.024h-7.47v-2.246h7.47v-3.614q0-6.054.49-9.375.487-3.32 2.733-6.834 2.295-3.565 5.713-5.47 3.467-1.904 8.203-1.904 5.76 0 9.228 2.393 3.467 2.393 3.467 4.883 0 1.416-.977 2.344-.976.927-2.295.927-2.588 0-4.736-4.005-2.393-4.394-6.2-4.394-3.077 0-5.42 2.247-2.296 2.197-2.736 5.518-.438 3.32-.438 14.257v3.028z"/><path d="M502.168 199.932q0-9.18 6.152-15.332 6.153-6.202 15.137-6.202 9.033 0 15.186 6.202 6.152 6.2 6.152 15.332 0 10.107-6.25 15.918-6.25 5.76-15.088 5.76t-15.088-5.858q-6.202-5.908-6.202-15.82zm8.105.244q0 10.644 3.467 14.94 3.467 4.25 9.717 4.25 6.397 0 9.766-4.25 3.418-4.296 3.418-14.94 0-10.547-3.37-15.04-3.368-4.49-9.813-4.49-6.396 0-9.814 4.49-3.37 4.444-3.37 15.04zM570.31 197.295l11.23 14.11q2.93 3.663 4.835 4.982 1.953 1.27 4.64 1.367V220h-19.972v-2.246q4.932 0 4.932-1.904 0-.782-2.246-3.37l-7.912-9.814-7.324 8.69q-2.685 3.126-2.685 3.908 0 2.44 5.42 2.49V220h-16.457v-2.246q2.15 0 4.737-1.123 2.588-1.122 6.69-5.956l8.25-9.766-8.837-11.18q-3.76-4.787-5.713-6.105-1.953-1.367-4.59-1.367v-2.246h18.848v2.246q-4.053 0-4.053 1.807 0 .83 1.807 2.978l7.03 8.692 6.496-7.617q2.197-2.636 2.197-3.27 0-2.59-5.37-2.59v-2.245h15.868v2.246q-4.785.146-9.912 6.006zM202.5 267.988q0-2.1 1.465-3.613 1.465-1.514 3.613-1.514 2.1 0 3.565 1.515 1.464 1.514 1.464 3.613 0 2.15-1.513 3.662-1.465 1.514-3.516 1.514-2.197 0-3.662-1.562-1.416-1.563-1.416-3.614zm9.62 20.41v42.97q0 6.396-.538 9.814-.488 3.418-2.54 6.543-2.05 3.125-5.81 4.98-3.71 1.904-8.398 1.904-4.443 0-7.47-1.71-3.028-1.71-3.028-4.345 0-1.563.976-2.393.928-.83 2.1-.83 2.197 0 3.613 3.125 1.71 4.004 5.225 4.004 3.076 0 5.42-2.05 2.393-2.002 2.93-5.224.537-3.174.537-10.206v-30.86q0-5.907-.44-7.763-.44-1.904-1.562-2.49-1.074-.635-4.2-.635h-1.22v-2.246q8.594-.88 13.33-2.588zM260.73 290.01v26.22q0 6.543.196 8.204.195 1.66 1.416 2.49 1.27.83 4.492.83V330q-7.422.098-10.84 1.563h-.586q-1.562-2.686-1.66-9.278-2.978 4.64-6.836 6.983-3.808 2.343-8.447 2.343-4.004 0-7.08-1.805-3.076-1.856-4.248-4.493-1.123-2.636-1.123-7.958V303.73q0-6.933-.244-8.447-.245-1.562-1.563-2.295-1.27-.732-4.736-.732v-2.246h13.575v27.734q0 4.102.488 5.957.488 1.857 2.49 3.273 2.002 1.367 4.64 1.367 3.76 0 7.177-2.442 3.418-2.49 4.64-5.224 1.268-2.783 1.268-7.91v-9.034q0-6.542-.146-7.96-.147-1.415-1.27-2.44-1.074-1.074-4.54-1.074h-1.026v-2.246zM280.436 288.398h.488q1.416 3.272 1.416 8.4 3.27-4.2 7.03-6.3 3.81-2.1 8.155-2.1 4.932 0 8.008 2.247 3.076 2.246 4.297 6.738 3.71-4.492 7.617-6.738 3.907-2.247 7.96-2.247 4.638 0 7.86 2.15 3.223 2.147 3.907 4.882.683 2.734.683 8.838v12.01q0 6.984.245 8.497.293 1.514 1.562 2.246 1.318.734 4.834.734V330h-19.97v-2.246q3.173 0 4.443-.684 1.32-.732 1.612-2.148.293-1.465.293-8.643v-13.33q0-4.054-.488-6.104-.44-2.05-2.393-3.516-1.953-1.465-5.078-1.465-3.174 0-6.396 2.15-3.174 2.147-6.397 6.493v15.77q0 6.398.147 8.058.195 1.61 1.367 2.54 1.22.878 4.297.878V330h-19.336v-2.246q3.27 0 4.54-.684 1.32-.683 1.612-2.1.342-1.415.342-8.69v-11.085q0-5.273-.44-7.617-.39-2.392-2.49-4.053-2.1-1.71-5.225-1.71-3.027 0-6.2 1.955-3.126 1.953-6.397 5.86v16.65q0 6.59.195 8.202t1.465 2.442q1.27.83 4.54.83V330h-19.58v-2.246q3.224 0 4.493-.684 1.318-.732 1.61-2.148.294-1.416.294-8.643v-11.964q0-6.836-.244-8.35-.195-1.562-1.513-2.343-1.27-.78-4.64-.78v-2.247q6.935-.684 11.476-2.198z"/><path d="M356.05 288.398h1.317q.83 2.735.83 6.592 3.125-3.32 6.69-4.93 3.613-1.662 7.617-1.662 8.3 0 13.818 5.86 5.518 5.81 5.518 15.38 0 9.376-5.567 15.675-5.517 6.298-14.55 6.298-3.71 0-7.13-1.512-3.368-1.465-6.396-4.395v15.186q0 6.932.244 8.446.294 1.514 1.564 2.246 1.27.78 4.736.78v2.247h-20.898v-2.247h1.465q3.466 0 4.492-1.025 1.073-.977 1.22-2.393.195-1.367.195-8.056v-36.33q0-6.396-.195-8.056-.147-1.66-1.368-2.54-1.22-.878-4.345-.878h-1.465v-2.246q4.834-.488 12.207-2.442zm2.147 34.082q2.637 3.223 5.567 4.883 2.978 1.612 6.25 1.612 5.517 0 9.62-4.737 4.1-4.736 4.1-15.088 0-8.984-3.955-13.427-3.956-4.444-9.425-4.444-3.37 0-6.396 1.708-3.028 1.71-5.763 5.176zM396.896 331.27v-13.135h1.905q3.32 11.377 11.866 11.377 3.71 0 5.518-2.246 1.855-2.246 1.855-4.932 0-3.125-1.954-5.127-2.002-2.002-7.764-4.834-6.054-2.978-8.69-5.86-2.638-2.83-2.638-6.982 0-3.954 2.832-7.518 2.832-3.614 7.96-3.614 5.224 0 8.642 4.248.732-.732 1.904-3.564h1.807v12.354h-1.808q-.977-4.444-3.81-7.618-2.782-3.222-6.59-3.222-2.93 0-4.737 1.806-1.806 1.807-1.806 4.2 0 2.636 2 4.54 1.954 1.954 7.47 4.444 8.302 3.76 10.158 7.324 1.855 3.613 1.855 6.934 0 5.224-3.467 8.496-3.418 3.27-8.642 3.27-5.518 0-9.815-4.54-1.32 1.465-2.15 4.2zM448.953 309.932q0-9.18 6.152-15.332 6.153-6.202 15.137-6.202 9.033 0 15.186 6.202 6.152 6.2 6.152 15.332 0 10.107-6.25 15.918-6.25 5.76-15.088 5.76t-15.088-5.858q-6.2-5.908-6.2-15.82zm8.106.244q0 10.644 3.465 14.94 3.467 4.25 9.717 4.25 6.397 0 9.766-4.25 3.418-4.296 3.418-14.94 0-10.547-3.37-15.04-3.368-4.49-9.814-4.49-6.396 0-9.814 4.49-3.37 4.444-3.37 15.04zM513.775 331.61h-2.832l-14.21-32.08q-2.098-4.637-3.32-5.907-1.22-1.27-4.003-1.367v-2.246h18.067v2.246q-2.98 0-4.102.488-1.074.488-1.074 1.856 0 1.074 1.954 5.224l10.79 24.268 9.718-21.63q2.295-5.177 2.295-6.74 0-3.27-4.883-3.466v-2.246h13.476v2.246q-2.49.146-4.2 2.1-1.66 1.904-4.686 8.642zM570.395 303.535h-27.88q-.197 2.88-.197 4.297 0 10.547 3.272 15.87 3.32 5.273 9.863 5.273 8.887 0 12.598-7.96h2.345q-1.563 4.98-6.202 7.813-4.638 2.783-10.107 2.783-5.078 0-9.62-2.538-4.49-2.588-7.372-7.275-2.88-4.688-2.88-11.377 0-9.473 5.565-15.723 5.566-6.3 13.915-6.3 7.862 0 12.16 4.787 4.295 4.785 4.54 10.35zm-8.545-1.953q.146-1.123.146-2.002 0-4.297-2.54-6.64-2.49-2.393-6.15-2.393-8.888 0-10.597 11.035zM587.854 298.604q1.66-4.346 5.37-7.276 3.76-2.93 7.325-2.93 3.22 0 5.077 2.002 1.855 2.002 1.855 4.102 0 1.416-.976 2.44-.928 1.027-2.295 1.027-2.44 0-3.71-3.615-.88-2.44-2.637-2.44-2.1 0-5.03 2.88-2.93 2.832-3.76 5.908-.83 3.076-.83 8.447v7.13q0 6.396.148 8.056.196 1.66 1.417 2.54 1.22.878 4.345.878h1.368V330h-21.24v-2.246h1.025q2.93 0 4.15-.78 1.27-.83 1.514-2.296.243-1.465.243-8.4V305q0-6.445-.195-8.057-.147-1.66-1.368-2.54-1.22-.926-4.345-.926h-1.026v-2.198q4.59-.538 12.01-2.882 1.417 3.858 1.564 10.206zM194.367 402.256h-12.06v24.17q0 5.566.488 7.52.488 1.904 2.05 3.075 1.612 1.173 3.42 1.173 3.514 0 6.102-4.004l1.563.927q-1.514 3.223-4.493 4.883-2.93 1.61-5.957 1.61-3.515 0-6.2-2.05-2.637-2.1-3.32-4.882-.636-2.783-.636-9.766v-22.656h-5.81v-2.246q4.004-.098 7.177-3.37 3.175-3.27 4.054-9.18h1.563v12.55h12.06z"/><path d="M209.336 406.602q2.93-4.102 6.543-6.153 3.66-2.052 8.007-2.052 4.93 0 8.154 2.05 3.273 2.052 4.25 5.08.976 2.978.976 9.716v11.035q0 7.03.244 8.544.293 1.514 1.61 2.246 1.32.684 4.884.684V440H223.35v-2.246h.927q3.565 0 4.59-1.025 1.074-1.027 1.22-2.394.196-1.416.196-8.057v-12.012q0-4.98-.586-7.373t-2.783-3.956q-2.148-1.563-5.42-1.563-3.808 0-6.836 2.246-3.027 2.197-5.322 6.64v16.016q0 6.738.195 8.3.245 1.563 1.515 2.393 1.27.78 4.64.78V440H195.37v-2.246h1.026q3.516 0 4.542-.977 1.074-1.025 1.22-2.392.196-1.416.196-8.106v-39.844q0-6.055-1.172-7.666-1.123-1.612-5.47-1.612v-2.246q7.57 0 12.6-2.05h1.024zM283.094 413.535h-27.88q-.196 2.88-.196 4.297 0 10.547 3.27 15.87 3.32 5.273 9.864 5.273 8.887 0 12.598-7.96h2.344q-1.563 4.98-6.2 7.813-4.64 2.783-10.11 2.783-5.077 0-9.618-2.538-4.492-2.588-7.373-7.275-2.88-4.688-2.88-11.377 0-9.473 5.566-15.723 5.565-6.3 13.915-6.3 7.86 0 12.158 4.787 4.297 4.785 4.54 10.35zm-8.545-1.953q.145-1.123.145-2.002 0-4.297-2.54-6.64-2.49-2.393-6.15-2.393-8.888 0-10.597 11.035zM321.234 372.86v53.42q0 6.396.147 8.056.196 1.66 1.417 2.54 1.22.878 4.346.878h1.17V440H306.93v-2.246h1.367q2.93 0 4.15-.78 1.27-.83 1.514-2.296.243-1.465.243-8.4v-39.55q0-6.298-1.123-7.91-1.123-1.66-5.47-1.66v-2.246q2.98 0 6.984-.683 4.052-.685 5.566-1.37zM370.97 432.676h1.805q-.44 8.35-8.203 8.35-3.32 0-5.273-1.758-1.905-1.758-2.49-5.225-4.884 3.467-8.937 5.225-4.004 1.757-7.178 1.757-4.052 0-6.982-2.343-2.93-2.344-2.93-6.202 0-5.03 4.883-8.79 4.932-3.758 13.574-7.323l7.57-3.076v-1.952q0-4.15-.54-6.006-.536-1.855-2.782-3.32-2.246-1.465-5.908-1.465-7.324 0-8.154 4.883-.78 4.98-4.102 4.98-2.978 0-2.978-2.832 0-2.783 3.955-5.957 3.956-3.222 12.305-3.222 6.202 0 9.62 1.954 3.418 1.953 4.492 4.443 1.123 2.49 1.123 7.617v16.162q0 5.664.586 7.276.586 1.61 2.54 1.61 3.22 0 4.003-4.784zm-14.16-17.09l-5.324 2.148q-12.597 5.127-12.597 12.89 0 3.077 1.61 4.98 1.61 1.857 4.2 1.857 2.294 0 5.32-1.513 3.03-1.513 6.79-4.54zM373.39 440v-1.514l26.512-36.23h-14.55q-2.784 0-3.81.39-.976.342-2.392 2.344-1.367 1.953-2.783 6.104h-1.806l.635-11.084h33.496v1.758l-26.366 35.986h10.938q5.322 0 7.13-.586 1.805-.586 3.563-2.88 1.758-2.345 3.516-7.032h1.954L408.252 440zM436.502 432.432l9.277-22.217q2-4.883 2-5.42 0-2.44-5.42-2.54v-2.245h14.064v2.246q-3.272.146-4.785 1.758-1.515 1.562-3.76 6.982l-17.823 43.018q-2.54 6.152-4.493 8.35-1.953 2.245-4.296 2.245-3.174 0-3.174-2.88 0-3.322 5.078-5.617 2.978-1.318 3.955-2.246 1.025-.928 2.002-3.37l3.808-9.52-15.04-32.227q-2.002-4.248-3.32-5.37-1.318-1.124-4.492-1.124v-2.246h18.36v2.246q-4.835.146-4.835 2.002 0 .732 1.906 4.785zM513.02 404.258v-15.625q0-6.397-.194-8.057-.146-1.66-1.367-2.54-1.222-.878-4.347-.878h-1.025v-2.246q5.908-.146 12.94-2.05h1.025v53.76q0 6.982.244 8.495.244 1.514 1.514 2.246 1.32.733 4.835.733v2.246q-7.08.146-12.598 1.27-.586-2.296-.586-7.227-3.612 3.613-7.47 5.42-3.808 1.806-7.91 1.806-7.764 0-13.428-6.25-5.615-6.25-5.615-15.135 0-9.766 5.762-15.772 5.76-6.055 13.72-6.055 4.052 0 7.666 1.465 3.613 1.465 6.835 4.395zm0 2.832q-3.22-2.783-6.493-4.15-3.222-1.417-6.494-1.417-5.517 0-9.228 4.248-3.662 4.25-3.662 13.87 0 9.764 3.76 14.403 3.808 4.64 9.374 4.64 3.71 0 6.885-1.76 3.174-1.757 5.86-5.273zM528.332 419.932q0-9.18 6.152-15.332 6.153-6.202 15.137-6.202 9.034 0 15.187 6.202 6.152 6.2 6.152 15.332 0 10.107-6.25 15.918-6.25 5.76-15.09 5.76-8.837 0-15.087-5.858-6.2-5.908-6.2-15.82zm8.106.244q0 10.644 3.466 14.94 3.467 4.25 9.717 4.25 6.398 0 9.767-4.25 3.418-4.296 3.418-14.94 0-10.547-3.37-15.04-3.37-4.49-9.814-4.49-6.395 0-9.813 4.49-3.37 4.444-3.37 15.04zM605.898 403.525q4.15-4.687 8.4-4.687 2.343 0 3.612 1.27 1.32 1.27 1.32 2.783 0 3.223-2.93 3.223-1.613 0-2.784-2.002-1.075-1.854-2.246-1.854-1.856 0-4.102 2.54 2.54 4.003 2.54 8.495 0 5.86-4.2 10.353-4.2 4.54-14.16 4.882-10.352.342-10.352 4.2 0 1.806 2.344 2.54 2.295.78 9.668 1.17 8.056.39 12.402 1.514 4.346 1.073 6.934 4.394 2.588 3.32 2.588 7.91 0 6.445-5.274 10.4-5.273 3.955-15.185 3.955-9.082 0-14.55-3.516-5.47-3.516-5.47-8.887 0-2.978 1.563-4.883 1.562-1.904 4.443-1.904.78 0 1.415.244-3.027 3.32-3.027 7.03 0 4.298 4.004 7.08 4.052 2.833 12.06 2.833 7.13 0 11.084-2.88Q610 456.895 610 452.45q0-4.882-3.564-6.884-3.565-1.953-12.696-2.343-10.498-.44-13.623-2.588-3.125-2.1-3.125-5.42 0-6.397 8.936-8.057-4.64-2.734-6.983-6.25-2.343-3.515-2.343-7.86 0-6.105 4.785-10.353 4.834-4.297 11.426-4.297 8.154 0 13.085 5.127zm-21.972 10.645q0 6.3 2.588 9.228 2.588 2.93 6.59 2.93 3.712 0 6.35-2.88 2.685-2.93 2.685-10.108 0-7.227-2.833-9.96-2.832-2.735-6.397-2.735-4.492 0-6.738 3.37-2.246 3.368-2.246 10.155z"/><path d="M615.252 436.338q0-2.15 1.514-3.662 1.562-1.563 3.71-1.563 2.198 0 3.712 1.563 1.562 1.513 1.562 3.662 0 2.197-1.562 3.71-1.563 1.563-3.71 1.563-2.2 0-3.712-1.61-1.514-1.563-1.514-3.662z"/></g></svg>