<svg xmlns="http://www.w3.org/2000/svg" viewBox="0 0 1600 1000" height="1000" width="1600"><path fill="#fff" d="M0 0h1600v1000H0z"/><g font-weight="400" font-size="200" font-family="Baskerville" letter-spacing="-.03em" text-anchor="middle" fill="#222"><path d="M426.023 119.414h-4.492l.685-31.836H550.73l.684 31.836h-4.2q-2.245-13.086-6.152-18.848-3.906-5.86-8.398-7.128-4.492-1.368-15.332-1.368h-21.29v93.457q0 15.528.685 20.41.78 4.883 4.003 7.227 3.223 2.344 12.11 2.344h6.445V220H453.27v-4.492h6.835q8.497 0 11.72-2.15 3.32-2.147 4.198-6.64.977-4.59.977-21.19V92.07h-19.63q-12.792 0-17.186 1.27-4.395 1.172-8.3 7.324-3.81 6.152-5.86 18.75zM584.477 153.203q5.86-8.203 13.086-12.305 7.324-4.1 16.015-4.1 9.863 0 16.31 4.1 6.542 4.102 8.495 10.157 1.953 5.957 1.953 19.433v22.07q0 14.063.488 17.09.586 3.028 3.223 4.493 2.637 1.368 9.765 1.368V220h-41.308v-4.492h1.855q7.128 0 9.18-2.05 2.148-2.052 2.44-4.786.39-2.832.39-16.113v-24.025q0-9.96-1.17-14.746-1.173-4.786-5.567-7.91-4.297-3.126-10.84-3.126-7.617 0-13.672 4.492-6.054 4.395-10.643 13.28v32.033q0 13.475.39 16.6.488 3.125 3.028 4.785 2.54 1.563 9.277 1.563V220h-40.625v-4.492h2.05q7.032 0 9.083-1.953 2.148-2.05 2.44-4.785.392-2.833.392-16.21v-79.69q0-12.108-2.344-15.33-2.246-3.224-10.938-3.224v-4.492q15.137 0 25.196-4.1h2.05zM731.992 167.07H676.23q-.39 5.762-.39 8.594 0 21.094 6.543 31.738 6.64 10.547 19.726 10.547 17.773 0 25.195-15.92h4.687q-3.125 9.962-12.402 15.626-9.277 5.567-20.215 5.567-10.156 0-19.238-5.078-8.985-5.176-14.746-14.55-5.76-9.376-5.76-22.755 0-18.945 11.132-31.445 11.133-12.598 27.832-12.598 15.722 0 24.316 9.57t9.082 20.703zm-17.09-3.906q.293-2.246.293-4.004 0-8.594-5.078-13.28-4.98-4.786-12.304-4.786-17.774 0-21.192 22.07zM863.06 136.797h3.22v104.98q0 12.793.294 16.114.39 3.32 2.832 5.08 2.442 1.757 8.692 1.757h2.148v4.492H837.18v-4.493h3.222q5.86 0 8.3-1.563 2.54-1.562 3.028-4.59.49-2.93.49-16.797v-28.613q-7.033 4.98-14.26 7.52-7.128 2.54-14.55 2.54-16.7 0-27.832-11.427-11.035-11.426-11.035-30.47 0-20.018 12.305-32.225 12.402-12.305 27.93-12.305 6.542 0 13.378 2.637 6.934 2.54 14.063 7.812 5.37-3.516 10.84-10.45zM852.22 153.3q-5.763-5.273-11.915-7.91-6.055-2.636-12.403-2.636-11.132 0-19.14 8.69-8.008 8.693-8.008 30.763 0 17.87 6.836 26.953 6.933 8.985 19.14 8.985 6.543 0 12.89-2.344 6.35-2.44 12.6-7.226zM962.82 140.02v52.44q0 13.087.39 16.407.392 3.32 2.833 4.98 2.54 1.66 8.984 1.66V220q-14.843.195-21.68 3.125h-1.17q-3.126-5.37-3.322-18.555-5.957 9.278-13.67 13.965-7.62 4.688-16.896 4.688-8.01 0-14.16-3.614-6.153-3.712-8.497-8.985-2.246-5.273-2.246-15.918V167.46q0-13.866-.49-16.894-.487-3.125-3.124-4.59-2.54-1.464-9.472-1.464v-4.492h27.15v55.468q0 8.203.976 11.914.976 3.71 4.98 6.543 4.004 2.735 9.278 2.735 7.52 0 14.355-4.883 6.835-4.98 9.276-10.45 2.54-5.566 2.54-15.82V167.46q0-13.085-.294-15.917-.292-2.832-2.54-4.883-2.147-2.148-9.08-2.148h-2.05v-4.492zM987.582 95.977q0-4.2 2.93-7.227 3.027-3.027 7.226-3.027 4.2 0 7.13 3.027 2.93 3.027 2.93 7.227 0 4.296-2.93 7.324-2.93 3.028-7.13 3.028-4.2 0-7.226-3.027-2.93-3.027-2.93-7.323zm18.848 40.82v55.762q0 12.792.39 16.112.39 3.32 2.832 5.078 2.442 1.758 8.692 1.758h2.05V220h-43.066v-4.492h3.32q6.934 0 8.985-1.953 2.148-2.05 2.44-4.785.392-2.833.392-16.21v-24.22q0-14.063-1.367-17.188-1.27-3.125-3.516-3.906-2.148-.78-7.617-.78h-2.637v-4.493q17.383-1.758 26.953-5.176zM1094.668 200.47h4.297q-6.64 22.753-33.203 22.753-17.09 0-28.81-11.62-11.62-11.623-11.62-30.763 0-19.63 12.598-31.836 12.597-12.207 29.785-12.207 10.35 0 19.043 4.59 8.69 4.492 8.69 11.035 0 2.44-1.66 4.59-1.56 2.148-4.59 2.148-6.444 0-7.91-7.52-1.17-5.663-3.612-7.91-2.54-2.246-9.864-2.246-13.085 0-19.726 9.082-6.543 9.082-6.543 27.344 0 18.848 7.03 29.492 7.13 10.645 21.486 10.645 19.334 0 24.608-17.578zM1150.582 140.02h32.227v4.492q-8.888.195-23.83 13.28-4.785 4.103-14.843 12.013l28.515 33.398q6.446 7.52 10.157 9.863 3.71 2.246 7.616 2.442V220h-39.844v-4.492q9.96-.196 9.96-4.297 0-1.855-6.542-9.472l-20.508-23.828-4.2 3.125v11.524q0 12.792.294 16.112.39 3.223 2.832 5.078 2.44 1.758 8.496 1.758V220h-40.527v-4.492h3.027q7.03 0 9.082-1.953 2.148-2.05 2.44-4.785.295-2.833.295-16.21v-80.177q0-11.62-2.246-14.844-2.148-3.224-10.547-3.224v-4.492q5.762 0 13.77-1.367 8.105-1.367 11.035-2.734h2.05v89.94l8.4-5.858q20.41-14.453 20.41-20.8 0-4.298-7.52-4.493zM442.527 443.223h-3.808V336.19q0-11.717-.685-15.135-.586-3.418-3.223-5.078-2.54-1.66-8.984-1.66v-4.493q5.762 0 13.867-1.367 8.106-1.367 11.035-2.734h2.05v63.28q6.837-6.15 13.868-9.18 7.032-3.026 14.258-3.026 17.285 0 28.32 12.012 11.036 12.01 11.036 30.663 0 18.75-11.328 31.25-11.33 12.5-29.395 12.5-8.888 0-15.626-3.71-6.64-3.712-11.133-11.036-6.346 6.347-10.253 14.746zm10.254-68.457v31.347q0 12.11 1.564 17.48 1.66 5.274 7.812 10.157 6.153 4.883 14.356 4.883 12.597 0 20.02-10.352 7.52-10.35 7.52-29.784 0-17.87-7.032-27.148-6.934-9.375-18.555-9.375-6.64 0-13.086 3.222-6.35 3.125-12.6 9.57zM554.887 377.207q3.32-8.69 10.742-14.55 7.518-5.86 14.647-5.86 6.446 0 10.157 4.004 3.71 4.005 3.71 8.204 0 2.832-1.953 4.883-1.854 2.05-4.588 2.05-4.883 0-7.422-7.226-1.758-4.882-5.274-4.882-4.2 0-10.058 5.762-5.86 5.664-7.52 11.816-1.66 6.153-1.66 16.895v14.26q0 12.792.293 16.112.392 3.32 2.833 5.078 2.44 1.758 8.69 1.758h2.736V440h-42.482v-4.492h2.05q5.86 0 8.302-1.563 2.54-1.66 3.027-4.59.488-2.93.488-16.796V390q0-12.89-.39-16.113-.293-3.32-2.735-5.078-2.44-1.857-8.69-1.857h-2.052v-4.394q9.18-1.076 24.024-5.763 2.832 7.715 3.125 20.41zM592.148 399.863q0-18.36 12.305-30.664 12.305-12.403 30.274-12.403 18.066 0 30.37 12.402 12.305 12.402 12.305 30.663 0 20.215-12.5 31.836-12.5 11.523-30.175 11.523-17.676 0-30.176-11.72-12.402-11.816-12.402-31.64zm16.21.49q0 21.288 6.935 29.88 6.934 8.497 19.434 8.497 12.793 0 19.53-8.496 6.837-8.593 6.837-29.882 0-21.094-6.74-30.08-6.737-8.983-19.627-8.983-12.793 0-19.63 8.983-6.738 8.887-6.738 30.08zM772.77 443.125h-4.395l-23.828-63.477-24.317 63.477h-4.296l-24.414-63.477q-4.2-10.84-6.25-12.988-2.05-2.148-8.204-2.148v-4.492h36.524v4.492q-6.153 0-8.4 1.172-2.245 1.074-2.245 3.808 0 1.953 3.81 11.426l16.21 42.87 24.805-63.768h3.808l24.024 63.77 17.578-45.41q2.832-7.228 2.832-8.692 0-4.786-9.864-5.176v-4.492h25.977v4.492q-4.688.097-7.422 1.855-2.637 1.66-4.883 7.617l-2.148 5.664z"/><path d="M833.86 356.797h2.636q2.246 6.055 2.54 16.504 7.03-8.3 14.745-12.402 7.716-4.1 16.115-4.1 9.57 0 15.625 4.003 6.152 4.005 7.91 9.864 1.758 5.762 1.758 16.895v25q0 13.866.488 16.893.488 3.027 3.027 4.59 2.637 1.465 9.57 1.465V440h-40.918v-4.492h1.856q7.032 0 9.18-2.05 2.15-2.052 2.442-4.786.293-2.735.293-16.113v-25.783q0-9.472-.977-13.476-.878-4.1-4.98-7.226-4.004-3.125-10.254-3.125-7.13 0-13.672 4.296-6.445 4.2-12.207 12.695v32.62q0 13.866.488 16.893.586 3.027 3.125 4.59 2.637 1.465 9.668 1.465V440h-40.43v-4.492q6.74 0 9.376-1.367 2.636-1.367 3.222-4.1.684-2.833.684-17.48v-23.83q0-13.964-.586-16.894-.488-3.027-3.125-4.492-2.54-1.563-9.57-1.563v-4.49q10.742-1.173 21.972-4.493zM999.203 360.02v4.492h-16.7v48.047q0 12.792.294 16.112.39 3.32 2.832 5.078 2.44 1.758 8.69 1.758h4.2V440h-43.262v-4.492q6.738 0 9.277-1.367 2.637-1.367 3.223-4.1.683-2.833.683-17.48V364.51H953.5v-4.492h14.94v-7.227q0-12.11.978-18.75.977-6.64 5.47-13.672 4.59-7.128 11.424-10.936 6.934-3.81 16.407-3.81 11.522 0 18.456 4.786 6.933 4.785 6.933 9.766 0 2.832-1.954 4.687-1.953 1.856-4.59 1.856-5.175 0-9.472-8.01-4.785-8.788-12.403-8.788-6.15 0-10.838 4.492-4.59 4.395-5.47 11.035-.878 6.64-.878 28.515v6.055z"/><path d="M1004.336 399.863q0-18.36 12.305-30.664 12.305-12.403 30.274-12.403 18.066 0 30.37 12.402 12.306 12.402 12.306 30.663 0 20.215-12.5 31.836-12.5 11.523-30.176 11.523t-30.176-11.72q-12.402-11.816-12.402-31.64zm16.21.49q0 21.288 6.935 29.88 6.934 8.497 19.434 8.497 12.793 0 19.53-8.496 6.837-8.593 6.837-29.882 0-21.094-6.737-30.08-6.738-8.983-19.63-8.983-12.792 0-19.628 8.983-6.738 8.887-6.738 30.08zM1140.62 394.59l22.462 28.223q5.86 7.324 9.668 9.96 3.906 2.54 9.277 2.735V440h-39.94v-4.492q9.862 0 9.862-3.81 0-1.56-4.493-6.737l-15.82-19.628-14.65 17.383q-5.37 6.25-5.37 7.812 0 4.883 10.84 4.98V440h-32.91v-4.492q4.297 0 9.472-2.246t13.378-11.914l16.504-19.532-17.675-22.363q-7.52-9.57-11.426-12.207-3.906-2.734-9.18-2.734v-4.492h37.696v4.492q-8.105 0-8.105 3.613 0 1.66 3.614 5.957l14.063 17.383 12.988-15.235q4.394-5.273 4.394-6.543 0-5.175-10.743-5.175v-4.492h31.74v4.492q-9.572.293-19.826 12.01zM405 535.977q0-4.2 2.93-7.227t7.226-3.027q4.2 0 7.13 3.027 2.93 3.027 2.93 7.227 0 4.296-3.028 7.324-2.93 3.028-7.032 3.028-4.394 0-7.324-3.125-2.832-3.125-2.832-7.226zm19.238 40.82v85.937q0 12.793-1.074 19.63-.977 6.835-5.078 13.085-4.102 6.25-11.62 9.96-7.423 3.81-16.798 3.81-8.887 0-14.94-3.42-6.056-3.417-6.056-8.69 0-3.126 1.953-4.786 1.855-1.66 4.2-1.66 4.394 0 7.226 6.25 3.42 8.008 10.45 8.008 6.152 0 10.84-4.102 4.785-4.004 5.86-10.45 1.073-6.347 1.073-20.41v-61.718q0-11.816-.878-15.527-.88-3.81-3.125-4.98-2.15-1.27-8.4-1.27h-2.44v-4.492q17.187-1.758 26.66-5.176zM521.46 580.02v52.44q0 13.087.392 16.407.39 3.32 2.832 4.98 2.54 1.66 8.984 1.66V660q-14.844.195-21.68 3.125h-1.172q-3.125-5.37-3.32-18.555-5.957 9.278-13.672 13.965-7.617 4.688-16.894 4.688-8.008 0-14.16-3.614-6.153-3.712-8.497-8.985-2.246-5.273-2.246-15.918V607.46q0-13.866-.488-16.894-.49-3.125-3.126-4.59-2.54-1.464-9.473-1.464v-4.492h27.15v55.468q0 8.203.976 11.914.977 3.71 4.98 6.543 4.005 2.735 9.278 2.735 7.52 0 14.356-4.883 6.836-4.98 9.277-10.45 2.54-5.566 2.54-15.82V607.46q0-13.085-.294-15.917-.293-2.832-2.54-4.883-2.147-2.148-9.08-2.148h-2.052v-4.492zM560.87 576.797h.978q2.832 6.543 2.832 16.797 6.543-8.4 14.062-12.598 7.617-4.2 16.31-4.2 9.862 0 16.014 4.493 6.153 4.49 8.594 13.476 7.422-8.985 15.235-13.477 7.812-4.493 15.918-4.493 9.277 0 15.722 4.297t7.813 9.765q1.367 5.468 1.367 17.675v24.024q0 13.963.488 16.99.586 3.028 3.125 4.493 2.637 1.465 9.668 1.465V660h-39.94v-4.492q6.346 0 8.885-1.367 2.638-1.464 3.224-4.296.586-2.93.586-17.285v-26.662q0-8.105-.977-12.207-.878-4.1-4.785-7.03-3.906-2.93-10.156-2.93-6.348 0-12.793 4.297-6.35 4.297-12.794 12.99v31.542q0 12.792.293 16.112.39 3.223 2.733 5.078 2.442 1.758 8.594 1.758V660h-38.672v-4.492q6.543 0 9.082-1.367 2.637-1.367 3.223-4.2.684-2.83.684-17.38v-22.17q0-10.546-.88-15.234-.78-4.785-4.98-8.105-4.2-3.417-10.45-3.417-6.054 0-12.4 3.906-6.25 3.905-12.794 11.718v33.3q0 13.184.39 16.407.39 3.222 2.93 4.883 2.54 1.66 9.082 1.66V660h-39.16v-4.492q6.445 0 8.984-1.367 2.637-1.464 3.223-4.296.585-2.832.585-17.285v-23.927q0-13.672-.488-16.7-.39-3.124-3.028-4.687-2.54-1.562-9.278-1.562v-4.493q13.867-1.366 22.95-4.393z"/><path d="M712.098 576.797h2.636q1.66 5.47 1.66 13.183 6.25-6.64 13.38-9.863 7.226-3.32 15.234-3.32 16.6 0 27.637 11.72 11.035 11.62 11.035 30.76 0 18.75-11.133 31.348-11.035 12.598-29.102 12.598-7.422 0-14.257-3.028-6.74-2.93-12.793-8.79v30.372q0 13.868.488 16.895.586 3.027 3.125 4.492 2.54 1.563 9.472 1.563v4.492h-41.796v-4.493h2.93q6.933 0 8.984-2.05 2.148-1.954 2.44-4.786.392-2.734.392-16.113V609.12q0-12.792-.39-16.112-.294-3.32-2.735-5.078-2.442-1.758-8.692-1.758h-2.93v-4.492q9.67-.977 24.415-4.883zm4.297 68.164q5.273 6.446 11.132 9.767 5.957 3.222 12.5 3.222 11.035 0 19.24-9.473 8.202-9.473 8.202-30.176 0-17.968-7.91-26.855-7.912-8.886-18.85-8.886-6.737 0-12.792 3.417-6.055 3.418-11.523 10.35zM793.793 662.54v-26.27h3.81q6.64 22.753 23.73 22.753 7.42 0 11.034-4.492 3.71-4.49 3.71-9.862 0-6.25-3.905-10.254-4.004-4.004-15.527-9.668-12.11-5.957-17.383-11.72-5.274-5.663-5.274-13.964 0-7.91 5.664-15.04 5.664-7.225 15.918-7.225 10.45 0 17.285 8.496 1.465-1.465 3.81-7.13h3.612v24.708h-3.613q-1.953-8.886-7.617-15.233-5.567-6.446-13.184-6.446-5.86 0-9.472 3.615-3.613 3.613-3.613 8.398 0 5.274 4.004 9.082 3.907 3.906 14.943 8.887 16.6 7.52 20.312 14.648 3.71 7.227 3.71 13.867 0 10.45-6.933 16.993-6.835 6.543-17.285 6.543-11.035 0-19.63-9.082-2.635 2.93-4.295 8.4zM897.906 619.863q0-18.36 12.305-30.664 12.306-12.403 30.274-12.403 18.067 0 30.37 12.402 12.306 12.402 12.306 30.663 0 20.215-12.5 31.836-12.5 11.523-30.176 11.523-17.675 0-30.175-11.72-12.404-11.815-12.404-31.64zm16.21.49q0 21.288 6.935 29.88 6.934 8.497 19.434 8.497 12.793 0 19.532-8.496 6.836-8.593 6.836-29.882 0-21.094-6.74-30.08-6.737-8.983-19.628-8.983-12.793 0-19.63 8.983-6.737 8.887-6.737 30.08zM1027.55 663.223h-5.663l-28.418-64.16q-4.2-9.278-6.642-11.817-2.44-2.54-8.008-2.734v-4.492h36.133v4.492q-5.957 0-8.203.976-2.148.977-2.148 3.71 0 2.15 3.906 10.45l21.582 48.536 19.433-43.262q4.59-10.352 4.59-13.477 0-6.543-9.765-6.933v-4.492h26.953v4.492q-4.98.293-8.398 4.2-3.32 3.808-9.375 17.284zM1140.79 607.07h-55.763q-.39 5.762-.39 8.594 0 21.094 6.543 31.738 6.64 10.547 19.726 10.547 17.774 0 25.196-15.92h4.687q-3.126 9.962-12.403 15.626-9.278 5.567-20.215 5.567-10.156 0-19.238-5.078-8.985-5.176-14.746-14.55-5.762-9.376-5.762-22.755 0-18.945 11.133-31.445 11.13-12.598 27.83-12.598 15.723 0 24.317 9.57t9.082 20.703zm-17.09-3.906q.292-2.246.292-4.004 0-8.594-5.078-13.28-4.98-4.786-12.305-4.786-17.774 0-21.192 22.07zM1175.707 597.207q3.32-8.69 10.742-14.55 7.52-5.86 14.648-5.86 6.445 0 10.156 4.004 3.71 4.005 3.71 8.204 0 2.832-1.952 4.883-1.856 2.05-4.59 2.05-4.883 0-7.422-7.226-1.758-4.882-5.273-4.882-4.2 0-10.06 5.762-5.858 5.664-7.52 11.816-1.66 6.153-1.66 16.895v14.26q0 12.792.294 16.112.392 3.32 2.833 5.078 2.442 1.758 8.692 1.758h2.734V660h-42.48v-4.492h2.05q5.86 0 8.3-1.563 2.54-1.66 3.027-4.59.49-2.93.49-16.796V610q0-12.89-.392-16.113-.293-3.32-2.734-5.078-2.44-1.857-8.69-1.857h-2.05v-4.394q9.178-1.076 24.022-5.763 2.832 7.715 3.125 20.41zM388.734 804.512h-24.12v48.34q0 11.132.976 15.04.976 3.807 4.1 6.15 3.224 2.345 6.837 2.345 7.032 0 12.207-8.008l3.125 1.854q-3.028 6.446-8.985 9.766-5.86 3.223-11.914 3.223-7.03 0-12.4-4.102-5.275-4.198-6.642-9.765-1.27-5.566-1.27-19.53V804.51h-11.62v-4.492q8.007-.196 14.355-6.74 6.347-6.542 8.105-18.358h3.125v25.098h24.12z"/><path d="M418.672 813.203q5.86-8.203 13.086-12.305 7.324-4.1 16.015-4.1 9.864 0 16.31 4.1 6.542 4.102 8.495 10.157 1.953 5.957 1.953 19.433v22.07q0 14.063.49 17.09.585 3.028 3.222 4.493 2.637 1.368 9.766 1.368V880h-41.31v-4.492h1.857q7.13 0 9.18-2.05 2.148-2.052 2.44-4.786.39-2.832.39-16.113v-24.025q0-9.96-1.17-14.746-1.172-4.786-5.567-7.91-4.297-3.126-10.84-3.126-7.617 0-13.672 4.492-6.054 4.395-10.644 13.28v32.033q0 13.475.39 16.6.49 3.125 3.028 4.785 2.54 1.563 9.277 1.563V880h-40.625v-4.492h2.05q7.032 0 9.083-1.953 2.148-2.05 2.44-4.785.392-2.833.392-16.21v-79.69q0-12.108-2.344-15.33-2.246-3.224-10.937-3.224v-4.492q15.136 0 25.195-4.1h2.052zM566.188 827.07h-55.762q-.39 5.762-.39 8.594 0 21.094 6.542 31.738 6.64 10.547 19.727 10.547 17.773 0 25.195-15.92h4.688q-3.125 9.962-12.403 15.626-9.277 5.567-20.215 5.567-10.156 0-19.238-5.078-8.984-5.176-14.746-14.55-5.762-9.376-5.762-22.755 0-18.945 11.133-31.445 11.133-12.598 27.832-12.598 15.722 0 24.315 9.57 8.594 9.57 9.083 20.703zm-17.09-3.906q.293-2.246.293-4.004 0-8.594-5.077-13.28-4.98-4.786-12.305-4.786-17.774 0-21.192 22.07zM642.47 745.723V852.56q0 12.792.292 16.112.39 3.32 2.832 5.078 2.44 1.758 8.69 1.758h2.345V880h-42.775v-4.492h2.735q5.86 0 8.3-1.563 2.54-1.66 3.028-4.59.488-2.93.488-16.796v-79.103q0-12.598-2.246-15.82-2.246-3.32-10.937-3.32v-4.493q5.957 0 13.965-1.367 8.105-1.367 11.132-2.734zM741.938 865.352h3.613q-.878 16.7-16.405 16.7-6.64 0-10.547-3.517-3.81-3.515-4.98-10.45-9.766 6.935-17.872 10.45-8.008 3.516-14.355 3.516-8.105 0-13.964-4.687-5.86-4.687-5.86-12.402 0-10.058 9.766-17.577 9.863-7.52 27.148-14.65l15.137-6.15v-3.907q0-8.3-1.074-12.012-1.074-3.71-5.566-6.64-4.493-2.93-11.817-2.93-14.648 0-16.308 9.765-1.563 9.96-8.204 9.96-5.957 0-5.957-5.664 0-5.566 7.912-11.914 7.91-6.445 24.61-6.445 12.4 0 19.237 3.906 6.835 3.906 8.984 8.887 2.246 4.98 2.246 15.234v32.324q0 11.33 1.172 14.55 1.17 3.224 5.078 3.224 6.445 0 8.008-9.57zm-28.32-34.18l-10.645 4.297q-25.196 10.253-25.196 25.78 0 6.152 3.223 9.96 3.223 3.712 8.398 3.712 4.59 0 10.645-3.027 6.055-3.028 13.574-9.083zM746.777 880v-3.027l53.028-72.46h-29.102q-5.566 0-7.617.78-1.953.684-4.785 4.687-2.734 3.907-5.566 12.207h-3.613l1.27-22.167h66.993v3.515l-52.735 71.973h21.875q10.645 0 14.258-1.172 3.615-1.172 7.13-5.762 3.516-4.687 7.03-14.062h3.908L816.504 880zM873.004 864.863l18.555-44.433q4.003-9.766 4.003-10.84 0-4.883-10.84-5.078v-4.492h28.125v4.492q-6.543.293-9.57 3.515-3.028 3.125-7.52 13.965l-35.645 86.035q-5.078 12.305-8.984 16.7-3.907 4.492-8.595 4.492-6.348 0-6.348-5.763 0-6.64 10.157-11.23 5.957-2.637 7.91-4.493 2.05-1.855 4.004-6.738l7.617-19.043-30.078-64.453q-4.004-8.496-6.64-10.742-2.637-2.246-8.985-2.246v-4.492h36.72v4.492q-9.67.293-9.67 4.004 0 1.464 3.81 9.57zM1026.043 808.516v-31.25q0-12.793-.39-16.114-.294-3.32-2.735-5.078-2.44-1.758-8.69-1.758h-2.052v-4.492q11.816-.293 25.88-4.1h2.05V853.24q0 13.965.488 16.992.488 3.028 3.027 4.493 2.638 1.464 9.67 1.464v4.494q-14.16.293-25.196 2.54-1.172-4.59-1.172-14.454-7.227 7.226-14.942 10.84-7.617 3.613-15.82 3.613-15.527 0-26.855-12.5-11.23-12.5-11.23-30.274 0-19.532 11.523-31.544 11.523-12.11 27.44-12.11 8.106 0 15.333 2.93 7.228 2.93 13.673 8.79zm0 5.664q-6.445-5.567-12.988-8.3-6.446-2.833-12.99-2.833-11.034 0-18.456 8.496-7.325 8.496-7.325 27.734 0 19.532 7.52 28.81 7.617 9.276 18.75 9.276 7.422 0 13.77-3.515 6.347-3.516 11.718-10.547zM1056.664 839.863q0-18.36 12.305-30.664 12.303-12.403 30.272-12.403 18.067 0 30.37 12.402 12.306 12.402 12.306 30.663 0 20.215-12.5 31.836-12.5 11.523-30.176 11.523t-30.176-11.72q-12.402-11.815-12.402-31.64zm16.21.49q0 21.288 6.935 29.88 6.932 8.497 19.432 8.497 12.793 0 19.53-8.496 6.837-8.593 6.837-29.882 0-21.094-6.74-30.08-6.737-8.983-19.628-8.983-12.793 0-19.63 8.983-6.737 8.887-6.737 30.08zM1211.797 807.05q8.3-9.374 16.797-9.374 4.687 0 7.226 2.54 2.637 2.538 2.637 5.565 0 6.447-5.86 6.447-3.222 0-5.566-4.004-2.147-3.71-4.49-3.71-3.712 0-8.204 5.077 5.078 8.008 5.078 16.992 0 11.72-8.398 20.703-8.4 9.082-28.32 9.766-20.704.684-20.704 8.4 0 3.612 4.688 5.077 4.59 1.563 19.336 2.344 16.113.782 24.804 3.028 8.692 2.15 13.868 8.79 5.175 6.64 5.175 15.82 0 12.89-10.547 20.8t-30.37 7.91q-18.165 0-29.102-7.03-10.938-7.032-10.938-17.774 0-5.957 3.125-9.766 3.126-3.808 8.888-3.808 1.563 0 2.832.488-6.055 6.64-6.055 14.063 0 8.594 8.008 14.16 8.106 5.665 24.12 5.665 14.26 0 22.17-5.762 8.007-5.664 8.007-14.55 0-9.766-7.13-13.77-7.128-3.906-25.39-4.688-20.996-.88-27.246-5.175-6.25-4.2-6.25-10.84 0-12.793 17.872-16.114-9.278-5.468-13.965-12.5-4.687-7.03-4.687-15.722 0-12.207 9.57-20.703 9.668-8.593 22.852-8.593 16.31 0 26.172 10.254zm-43.945 21.29q0 12.597 5.175 18.457 5.176 5.86 13.184 5.86 7.423 0 12.696-5.762 5.37-5.86 5.37-20.215 0-14.453-5.663-19.922-5.664-5.47-12.793-5.47-8.984 0-13.476 6.74-4.492 6.738-4.492 20.312z"/><path d="M1230.504 872.676q0-4.297 3.027-7.324 3.126-3.125 7.423-3.125 4.395 0 7.422 3.125 3.125 3.027 3.125 7.324 0 4.394-3.125 7.422-3.125 3.125-7.422 3.125-4.394 0-7.422-3.223-3.026-3.125-3.026-7.324z"/></g></svg>