<svg xmlns="http://www.w3.org/2000/svg" viewBox="0 0 1600 1000" height="1000" width="1600"><path fill="#fff" d="M0 0h1600v1000H0z"/><g font-weight="400" font-size="200" font-family="Bembo" letter-spacing="-.03em" text-anchor="middle" fill="#222"><path d="M490.695 102.8h34.8q3 0 5.2 1t3.8 3.6q1.8 2.4 3 6.8 1.4 4.2 2.6 10.8h3.6l-3.2-32.4h-3.8q-.4 1.8-2.2 2.4-1.8.6-4 .6h-96.2q-2.2 0-4-.6-2-.6-2.2-2.4h-3.8l-3.2 32.4h3.6q1.2-6.6 2.4-10.8 1.4-4.4 3-6.8 1.8-2.6 4-3.6t5.2-1h34.8v98.8q0 8.2-3.4 11.4-3.2 3.2-12.4 3.2h-7.4v3.8h63v-3.8h-7.4q-9.2 0-12.6-3.2-3.2-3.2-3.2-11.4zM576.242 156.2q7.4-4.6 13-7 5.6-2.4 10.6-2.4 2.4 0 5.6.8 3.2.8 6 3.4 2.8 2.4 4.6 7.2 2 4.8 2 12.8 0 11.2-.2 18.6-.2 7.4-.8 12.2-.4 4.8-1.2 7.4-.8 2.4-2.2 3.8-3.2 3.2-11.2 3.2v3.8h43.2v-3.8q-8.8 0-12-1.8-3-1.8-3.2-5.8.4-8 .6-17.2.4-9.4.4-23 0-15.2-5.4-22.4-5.2-7.4-16.8-7.4-7.6 0-15.4 3.4-7.6 3.4-17.6 9.2V85.6h-3.2l-23.8 8.2v3.4l8.6 1.2q3.2.4 4 1.8 1 1.4 1 4.8v95.8q0 8.2-2.8 11.6-2.6 3.4-10.8 3.8v3.8h40v-3.8q-7.8 0-10.4-2.4-2.6-2.6-2.6-9.6zM723.74 169.2v-4.6q-2.4-2.4-4.2-6.8-1.6-4.4-4.6-8.6-3-4.4-8.6-7.4-5.4-3.2-15.6-3.2-9.2 0-16.4 3.8-7.2 3.6-12.2 9.6-4.8 6-7.4 13.8-2.6 7.6-2.6 15.6 0 8.8 2.6 16.2 2.8 7.4 7.4 13 4.8 5.6 11 8.8 6.4 3 13.8 3 5.4 0 10.4-1.8 5.2-1.6 9.6-4.4 4.6-3 8.4-6.6 4-3.8 7.2-7.8l-2.2-2.4q-5.8 6.8-11.8 10-6 3-13.6 3-6 0-11.6-2.4-5.4-2.6-9.6-7.2-4.2-4.6-6.8-11-2.4-6.4-2.4-14.2 0-2 .2-4 .2-2.2.6-4.4zm-57.8-5.2q1.8-7 4.4-11.2 2.6-4.2 5.4-6.4 3-2.4 6-3.2 3-.8 5.4-.8 7.2 0 12.6 6 5.6 5.8 7.2 15.6zM858.908 149.2q0-3 .2-5.2.4-2.2 1-5h-3.4q-1.6 1-3.6 3-1.8 1.8-3 3.4-6.8-3.4-12.8-5-6-1.8-12.4-1.8-8.8 0-16.6 3.4-7.6 3.4-13.4 9.4-5.6 5.8-9 13.8-3.2 8-3.2 17.2 0 8.4 2.4 15.6 2.4 7.2 6.8 12.6 4.4 5.2 10.4 8.2 6 2.8 13 2.8 7.4 0 14.6-3.4 7.2-3.4 15.6-10.6v39.8q0 8.6-2.8 12-2.8 3.4-10.6 3.4h-7.8v3.8h48.4v-3.8h-2.2q-4.6 0-8.2-3-3.4-2.8-3.4-9.2zm-13.4 53.8q-4.8 4.8-10.8 7.6-6 2.6-11 2.6-5.8 0-11-2.8-5-2.8-8.8-7.6-3.6-4.8-5.8-11.4-2-6.6-2-14.2 0-15.6 7.2-24.6 7.4-9 19.6-9 4.8 0 8.8 1.8 4.2 1.6 7.2 4.8 3.2 3.2 4.8 7.6 1.8 4.2 1.8 9.6zM966.908 210.6l-4.2.8q-5.4 1-7.4 0-1.8-1-1.8-5.2v-67.4l-30.8 4.8v2.8l10 1.8q2.4.4 3.8 1 1.6.6 2.2 1.8.8 1.2 1 3 .4 1.8.4 4.8v43q-6.2 5.2-12.4 8.2-6.2 2.8-11.4 2.8-3.4 0-6.6-1-3.2-1.2-5.8-3.4-2.6-2.2-4.2-5.6-1.4-3.4-1.4-8v-56l-25.8 5.6v3l7 2q3.2 1 4.2 2.8 1.2 1.8 1.2 5.4V202q0 5.2 1.8 9 2 3.8 5 6.4 3 2.4 6.8 3.6 3.8 1.4 7.6 1.4 11.8 0 34-16v16l26.8-8.2zM999.405 137.6h-3l-26 9v3.2l9.4 1.8q3.8.8 5 2.4 1.2 1.6 1.2 7.4v40.2q0 8-3.8 11.4-3.6 3.2-12.8 3.2v3.8h44.4v-3.8q-8 0-11.2-3-3.2-3.2-3.2-8.4zm-16.8-37.4q0 3.2 2.4 5.4 2.6 2.2 6.2 2.2t6.2-2.2q2.6-2.2 2.6-5.4t-2.6-5.4q-2.6-2.2-6.2-2.2t-6.2 2.2q-2.4 2.2-2.4 5.4zM1086.958 199.8q-5.4 7.6-11.4 11-5.8 3.4-13 3.4-6 0-11.2-2.6-5.2-2.6-9-7.2-3.8-4.8-6-11-2-6.4-2-14 0-7.2 2-13.6 2.2-6.6 5.6-11.4 3.6-4.8 8.2-7.6 4.8-3 10-3 4.2 0 7 2 2.8 1.8 5.2 4.2 2.4 2.2 5 4.2 2.6 1.8 6.2 1.8 2.4 0 4-1.6 1.8-1.8 1.8-4.4 0-4.8-6.4-8-6.4-3.4-16-3.4t-18 3.6q-8.2 3.4-14.6 9.6-6.2 6.2-9.8 14.4-3.6 8.2-3.6 17.6 0 6 1.8 12.8 2 6.6 6 12.4 4 5.8 10.4 9.6t15.4 3.8q12 0 20.4-5.2 8.6-5.4 15-15.6zM1144.305 140.8v3.8h3.4q5.6 0 6.8 2.2 1.4 2.2-2.6 5l-28.8 20.6V85.6h-3l-24.4 8.2v3.4l8.2 1.2q3.6.4 4.6 2 1.2 1.6 1.2 5.8v96.6q0 6.4-3 10-3 3.4-11 3.4v3.8h41v-3.8h-2q-7 0-9.4-2.2-2.2-2.4-2.2-7.6v-30.6l30.4 31.6q8.2 8.8-6 8.8v3.8h43v-3.8q-3.4 0-6.2-.6-2.8-.8-5.4-2.2-2.6-1.6-5.6-4-2.8-2.6-6.6-6.4l-32-32.6 18.4-13.2q3.8-2.8 7-5 3.4-2.2 6.8-3.8 3.6-1.6 7.6-2.6 4-1 9.4-1.2v-3.8zM448.173 305.6h-3.2l-24 8.2v3.4l5.6.8q2.8.4 4.4 1 1.8.4 2.6 1.6.8 1.2 1 3.6.2 2.2.2 6v108.4q9.6 1.8 16.2 2.8 6.6 1 13.4 1 10 0 18.4-3.4 8.6-3.6 14.8-9.6 6.4-6 10-14.2 3.6-8.4 3.6-18 0-7.8-2.6-14.8-2.6-7.2-7.2-12.4-4.4-5.2-10.4-8.2-6-3.2-12.6-3.2-5.6 0-12.6 3.2-6.8 3.2-17.6 10.8zm0 71.6q13.2-9.4 22.4-9.4 5.8 0 10.8 2.8 5 2.6 8.6 7.2 3.6 4.6 5.6 11.2 2.2 6.4 2.2 13.8 0 7.6-2 13.8-2 6.2-5.8 10.6-3.6 4.4-8.8 7-5 2.4-11.2 2.4-5.8 0-10-1.8-4-2-6.6-5-2.6-3-4-6.6-1.2-3.8-1.2-7.6zM545.773 386.6q2.4-4.4 6.4-10 1.6-2.2 3.2-3.6 1.8-1.6 4.6-1.6 1.8 0 3.6.6t3.4 1.4q2.8 1.4 5.6 2.2 2.8.6 5 1l4.8-12q-3.6-1-6.2-1.6-2.6-.8-4.2-1.4-2.8-1.2-4-1.4-1-.4-2.8-.4-2.4 0-4.4 1-1.8.8-3.8 3-2 2.2-4.6 6.2-2.4 3.8-6.2 10h-.4v-21.2h-4l-22.8 8v3.4l13.4 4.8v46.2q0 8-3 11.4-2.8 3.4-10.4 3.6v3.8h47.4v-3.8h-7.6q-7.6 0-10.4-2.2-2.6-2.4-2.6-8.6zM577.906 401q0 8.8 3.4 16.4 3.4 7.6 9.2 13.2 5.8 5.4 13.8 8.6 8 3.2 17.4 3.2 9 0 16.6-3.2 7.8-3.2 13.4-8.8 5.8-5.6 9-13.2 3.4-7.8 3.4-16.6 0-9-3.4-16.6-3.2-7.6-9-13.2-5.8-5.8-13.6-9t-17-3.2q-7.8 0-15.6 2.8-7.6 2.6-13.8 8-6.2 5.4-10 13.4-3.8 7.8-3.8 18.2zm15-6.8q0-6.4 2-12 2.2-5.6 5.6-9.8 3.6-4.2 8.2-6.6 4.6-2.4 9.6-2.4 6.2 0 11.8 3.4 5.6 3.4 9.8 9.2 4.2 5.8 6.6 13.4 2.6 7.6 2.6 16.2 0 7.6-2.4 13.6-2.2 5.8-5.8 10-3.6 4-8.2 6.2-4.4 2.2-8.8 2.2-6.4 0-12.2-3.4-5.6-3.4-9.8-9.2-4.2-5.8-6.6-13.8-2.4-8-2.4-17zM764.586 441.8l25.8-63q3-7.4 6.8-10.6 3.8-3.2 9.6-3.8v-3.6h-33.6v3.6q9.6 0 12.2 3 2.8 3-.6 11l-19.2 46.8-19.6-47.6q-3.2-7.6-1-10.2 2.2-2.8 9.6-3v-3.6h-41.4v3.6l4.8.6q5.2.6 8.2 3.8 3.2 3.2 6.6 10.8l-19.6 46.4-21.6-48.2q-3.2-7-1.8-10 1.4-3 10.2-3.4v-3.6h-38.8v3.6q7 .8 9.8 3.2 2.8 2.4 5 7l29.8 67.2h5.6l24-56.4 23.8 56.4zM833.633 379.2q7.8-5.4 14.8-9 7-3.8 11.8-3.8 3 0 5.8 1t5 3.6q2.4 2.4 3.6 6.4 1.4 4 1.4 10 0 20-.8 31.2-.6 11-3.4 13.8-1.6 1.6-4.4 2.6-2.6 1-7 1.2v3.8h43v-3.8h-4.4q-6.2 0-8.8-2-2.6-2-2.4-6 0-3 .2-5.8.4-2.8.6-7 .4-4.2.6-10.4.2-6.4.2-16.4 0-15-5.6-22.4-5.6-7.6-15.8-7.6-7.4 0-15.8 4.8-8.4 4.6-18.6 11v-15.6h-3.2l-23 8.4v3.2l6.8 1.4q4 .8 5 2.6 1 1.6 1 7.2v42q0 5.8-3.4 9.2-3.4 3.4-10 3.4v3.8h40.2v-3.8q-4 0-6.6-.6-2.6-.6-4.2-2-1.4-1.6-2-4.2-.6-2.6-.6-6.8zM1000.998 360.8h-20.2v-15.2q0-14.6 5.6-22.6 5.8-8.2 16.6-8.2 5 0 8.8 1.6 4 1.4 6.8 3.4 2.8 1.8 4.8 3.4 2 1.4 3 1.4.6 0 1.4-1.2 1-1.4 1.8-3 1-1.6 1.6-3.2.6-1.6.6-2.2 0-1.2-1.6-2.8-1.6-1.6-4.6-3-2.8-1.6-6.6-2.6-3.6-1-7.8-1-7 0-14 3.4t-14.4 10.8q-8.8 8.8-12.2 18.8-3.2 9.8-3.2 22.2-6.8 3.6-14.8 5.4v3.4h14.8v52.8q0 4.2-.6 7-.4 2.6-2 4.2-1.4 1.4-4 2-2.6.6-7 .6v3.8h49.4v-3.8h-7.6q-8.4 0-11.6-2.4-3.2-2.4-3.2-9.4v-54.8h21.6z"/><path d="M1006.695 401q0 8.8 3.4 16.4 3.4 7.6 9.2 13.2 5.8 5.4 13.8 8.6 8 3.2 17.4 3.2 9 0 16.6-3.2 7.8-3.2 13.4-8.8 5.8-5.6 9-13.2 3.4-7.8 3.4-16.6 0-9-3.4-16.6-3.2-7.6-9-13.2-5.8-5.8-13.6-9t-17-3.2q-7.8 0-15.6 2.8-7.6 2.6-13.8 8-6.2 5.4-10 13.4-3.8 7.8-3.8 18.2zm15-6.8q0-6.4 2-12 2.2-5.6 5.6-9.8 3.6-4.2 8.2-6.6 4.6-2.4 9.6-2.4 6.2 0 11.8 3.4 5.6 3.4 9.8 9.2 4.2 5.8 6.6 13.4 2.6 7.6 2.6 16.2 0 7.6-2.4 13.6-2.2 5.8-5.8 10-3.6 4-8.2 6.2-4.4 2.2-8.8 2.2-6.4 0-12.2-3.4-5.6-3.4-9.8-9.2-4.2-5.8-6.6-13.8-2.4-8-2.4-17z"/><path d="M1091.18 364.4q8.2.4 12.8 3.8 4.6 3.2 8.2 8l19.4 25.4-21.4 24q-2.6 3-4.8 5-2.2 2-4.4 3.2-2.2 1.2-5 1.8-2.6.4-6.2.4v4h37.2v-4q-8.8 0-11.8-3.2-2.8-3.2 1.6-8.2l17.6-19.8 17.8 22.8q3.8 4.8 2 6.6-1.8 1.8-9.2 1.8v4h40v-4q-7 0-10.8-2.8-3.6-2.8-7.6-7.6l-24-30 17-18.8q4.4-4.8 8.6-7.8 4.4-3.2 11-4l5.8-.6v-3.6h-38.6v3.6q7.6 0 9.6 3.8 2.2 3.8-3 9.6l-13 14.6-15-19.8q-2.8-4.2-1.6-6.2 1.2-2 8.2-2v-3.6h-40.4zM429.81 577.6h-2.8l-26.2 9v3.2l9 1.6q4 .8 5.2 2.2 1.4 1.4 1.4 6v77.6q0 12-3.8 16.8-3.6 5-9.6 5-3.4 0-6.4-2-3-1.8-5.6-4-2.8-2.2-5.2-4.2-2.4-1.8-4.6-1.8-2.2 0-4 2.6-2 2.8-2 6.6 0 4.4 6.2 7.4t15.2 3q6.8 0 12.8-3 6.2-2.8 10.6-8.4 4.6-5.4 7.2-13.4 2.6-8 2.6-18.2zm-17.2-37.4q0 3.2 2.4 5.4 2.6 2.2 6.2 2.2t6.2-2.2q2.6-2.2 2.6-5.4t-2.6-5.4q-2.6-2.2-6.2-2.2t-6.2 2.2q-2.4 2.2-2.4 5.4zM539.61 650.6l-4.2.8q-5.4 1-7.4 0-1.8-1-1.8-5.2v-67.4l-30.8 4.8v2.8l10 1.8q2.4.4 3.8 1 1.6.6 2.2 1.8.8 1.2 1 3 .4 1.8.4 4.8v43q-6.2 5.2-12.4 8.2-6.2 2.8-11.4 2.8-3.4 0-6.6-1-3.2-1.2-5.8-3.4-2.6-2.2-4.2-5.6-1.4-3.4-1.4-8v-56l-25.8 5.6v3l7 2q3.2 1 4.2 2.8 1.2 1.8 1.2 5.4V642q0 5.2 1.8 9 2 3.8 5 6.4 3 2.4 6.8 3.6 3.8 1.4 7.6 1.4 11.8 0 34-16v16l26.8-8.2zM570.308 598.2q10.2-6.8 16.4-9.2 6.2-2.4 10.4-2.4 2.6 0 5.2 1 2.8.8 4.8 3 2.2 2 3.4 5.2 1.4 3.2 1.4 8v37q0 8.6-3.4 12-3.4 3.4-11.8 3.4v3.8h41v-3.8q-7.6 0-10-2.4-2.4-2.4-2.4-10v-46q9.4-6.2 15.6-8.6 6.4-2.6 11-2.6 15 0 15 22.8V625q0 10.4-.6 18.4-.4 7.8-2.6 10-1.4 1.4-3.6 2.2-2.2.6-6.6.6h-1.8v3.8h45v-3.8h-6.4q-6.2 0-8.4-2.8-2.2-3-2.2-6.2.4-9.2.4-19 .2-9.8.2-19.4 0-14.4-4.6-22.2-4.6-8-15.4-8-7.4 0-16.4 4.8-8.8 4.8-19 11.2-1.6-7.4-6.6-11.6-5-4.4-12.4-4.4-6 0-15.4 4.2t-20.2 11.8v-16h-3l-24 8.4v3.4l7.8 1q3.4.4 4.6 2.4 1.2 2 1.2 7.8v39.2q0 7.6-2.8 11.6-2.6 3.8-11.4 3.8v3.8h41.6v-3.8q-8.4 0-11.2-2.2-2.8-2.4-2.8-10.2z"/><path d="M721.102 657.4q5.8 2.2 10 3 4.2 1 8.2 1 8.6 0 16.2-3.6 7.8-3.6 13.6-9.8 5.8-6.2 9.2-14.4 3.4-8.2 3.4-17.2 0-7.4-2.4-14-2.4-6.8-6.6-11.8-4-5.2-9.4-8.2-5.4-3.2-11.2-3.2-6 0-13.8 3.8-7.8 3.8-17.2 10.8v-19.2h-4l-21.4 13.2v3.8l6.4 1.6q3.6 1 4.6 2.4 1 1.4 1 4.2V688q0 8.6-3 11.6-2.8 3.2-10.4 3.2h-2v3.8h47.2v-3.8h-5q-6.4 0-10-2.8-3.4-2.6-3.4-10.2zm0-58.6q5.4-4.6 10.8-7.2 5.6-2.6 10.2-2.6 4 0 8.6 2t8.4 6.4q4 4.2 6.6 11.2 2.6 7 2.6 16.8 0 6.2-1.8 11.6-1.8 5.4-5 9.6-3 4-7.4 6.4-4.4 2.2-9.4 2.2-5.6 0-12-3-6.2-3-11.6-7.8zM791.502 639.8l2.2 22.4h3q1.4-2.4 3.4-2.4 1.2 0 2.4.4 1.4.4 3 .8 1.6.6 3.8 1 2.2.4 5 .4 5.2 0 9.8-1.8 4.6-1.6 7.8-4.6 3.4-3.2 5.2-7.4 2-4.2 2-9 0-6-2.8-10.4-2.8-4.6-7-8.2-4-3.6-8.8-6.4-4.8-3-9-6-4-3-6.8-6.2-2.8-3.4-2.8-7.8 0-5 3.6-8 3.6-3.2 8.6-3.2 6 0 10.4 4.6 4.6 4.4 5.6 12h3.4l-.4-18.2q-8-3.2-16-3.2-11.4 0-18.6 6.2-7 6.2-7 16.2 0 6.2 2.6 10 2.8 3.8 7 7 4.4 3.2 9.6 6.6 5.4 3.2 10.8 8.6 4 4 5.2 6.6 1.2 2.4 1.2 5.6 0 5.4-4.2 9.4-4 3.8-10 3.8-6.8 0-12-4.8-5.2-5-7-14zM898.117 621q0 8.8 3.4 16.4 3.4 7.6 9.2 13.2 5.8 5.4 13.8 8.6 8 3.2 17.4 3.2 9 0 16.6-3.2 7.8-3.2 13.4-8.8 5.8-5.6 9-13.2 3.4-7.8 3.4-16.6 0-9-3.4-16.6-3.2-7.6-9-13.2-5.8-5.8-13.6-9t-17-3.2q-7.8 0-15.6 2.8-7.6 2.6-13.8 8-6.2 5.4-10 13.4-3.8 7.8-3.8 18.2zm15-6.8q0-6.4 2-12 2.2-5.6 5.6-9.8 3.6-4.2 8.2-6.6 4.6-2.4 9.6-2.4 6.2 0 11.8 3.4 5.6 3.4 9.8 9.2 4.2 5.8 6.6 13.4 2.6 7.6 2.6 16.2 0 7.6-2.4 13.6-2.2 5.8-5.8 10-3.6 4-8.2 6.2-4.4 2.2-8.8 2.2-6.4 0-12.2-3.4-5.6-3.4-9.8-9.2-4.2-5.8-6.6-13.8-2.4-8-2.4-17zM1030.802 661.8l27.6-62.8q2.8-6.6 6.4-10 3.6-3.6 9.4-4.6v-3.6h-34.8v3.6q5.4.4 8.6 1.6 3.2 1.2 4.6 3.2 1.4 2 1.2 4.6-.2 2.6-1.6 5.6l-20.4 46.2-21.2-49.8q-1.8-3.6-2-5.6-.2-2.2 1.2-3.4 1.4-1.2 4.4-1.6 3-.6 7.6-.8v-3.6h-40.8v3.6l6.2 1q2.4.4 4.4 2.6 2.2 2.2 4.4 7.4l29 66.4zM1142.692 609.2v-4.6q-2.4-2.4-4.2-6.8-1.6-4.4-4.6-8.6-3-4.4-8.6-7.4-5.4-3.2-15.6-3.2-9.2 0-16.4 3.8-7.2 3.6-12.2 9.6-4.8 6-7.4 13.8-2.6 7.6-2.6 15.6 0 8.8 2.6 16.2 2.8 7.4 7.4 13 4.8 5.6 11 8.8 6.4 3 13.8 3 5.4 0 10.4-1.8 5.2-1.6 9.6-4.4 4.6-3 8.4-6.6 4-3.8 7.2-7.8l-2.2-2.4q-5.8 6.8-11.8 10-6 3-13.6 3-6 0-11.6-2.4-5.4-2.6-9.6-7.2-4.2-4.6-6.8-11-2.4-6.4-2.4-14.2 0-2 .2-4 .2-2.2.6-4.4zm-57.8-5.2q1.8-7 4.4-11.2 2.6-4.2 5.4-6.4 3-2.4 6-3.2 3-.8 5.4-.8 7.2 0 12.6 6 5.6 5.8 7.2 15.6zM1174.992 606.6q2.4-4.4 6.4-10 1.6-2.2 3.2-3.6 1.8-1.6 4.6-1.6 1.8 0 3.6.6t3.4 1.4q2.8 1.4 5.6 2.2 2.8.6 5 1l4.8-12q-3.6-1-6.2-1.6-2.6-.8-4.2-1.4-2.8-1.2-4-1.4-1-.4-2.8-.4-2.4 0-4.4 1-1.8.8-3.8 3-2 2.2-4.6 6.2-2.4 3.8-6.2 10h-.4v-21.2h-4l-22.8 8v3.4l13.4 4.8v46.2q0 8-3 11.4-2.8 3.4-10.4 3.6v3.8h47.4v-3.8h-7.6q-7.6 0-10.4-2.2-2.6-2.4-2.6-8.6zM359.517 800.8V781h-3.4q-3.4 9.4-8.4 16t-10.8 9.4v3.2h9.2v49.6q0 10.2 5.6 16.8 5.6 6.4 14.6 6.4 7 0 12.6-4.2 5.6-4.4 9.2-12.2l-3.2-3q-5.8 10-12.2 10-1.6 0-3.8-.8-2.2-1-4.4-2.8-2-2-3.6-5.2-1.4-3.2-1.4-8v-46.6h25.4l3.2-8.8zM415.71 816.2q7.4-4.6 13-7 5.6-2.4 10.6-2.4 2.4 0 5.6.8 3.2.8 6 3.4 2.8 2.4 4.6 7.2 2 4.8 2 12.8 0 11.2-.2 18.6-.2 7.4-.8 12.2-.4 4.8-1.2 7.4-.8 2.4-2.2 3.8-3.2 3.2-11.2 3.2v3.8h43.2v-3.8q-8.8 0-12-1.8-3-1.8-3.2-5.8.4-8 .6-17.2.4-9.4.4-23 0-15.2-5.4-22.4-5.2-7.4-16.8-7.4-7.6 0-15.4 3.4-7.6 3.4-17.6 9.2v-65.6h-3.2l-23.8 8.2v3.4l8.6 1.2q3.2.4 4 1.8 1 1.4 1 4.8v95.8q0 8.2-2.8 11.6-2.6 3.4-10.8 3.8v3.8h40v-3.8q-7.8 0-10.4-2.4-2.6-2.6-2.6-9.6zM563.208 829.2v-4.6q-2.4-2.4-4.2-6.8-1.6-4.4-4.6-8.6-3-4.4-8.6-7.4-5.4-3.2-15.6-3.2-9.2 0-16.4 3.8-7.2 3.6-12.2 9.6-4.8 6-7.4 13.8-2.6 7.6-2.6 15.6 0 8.8 2.6 16.2 2.8 7.4 7.4 13 4.8 5.6 11 8.8 6.4 3 13.8 3 5.4 0 10.4-1.8 5.2-1.6 9.6-4.4 4.6-3 8.4-6.6 4-3.8 7.2-7.8l-2.2-2.4q-5.8 6.8-11.8 10-6 3-13.6 3-6 0-11.6-2.4-5.4-2.6-9.6-7.2-4.2-4.6-6.8-11-2.4-6.4-2.4-14.2 0-2 .2-4 .2-2.2.6-4.4zm-57.8-5.2q1.8-7 4.4-11.2 2.6-4.2 5.4-6.4 3-2.4 6-3.2 3-.8 5.4-.8 7.2 0 12.6 6 5.6 5.8 7.2 15.6zM644.177 745.6h-3l-25.6 8.2v3.4l9 1q4.2.4 5.2 2.2 1 1.6 1 5.8v96.6q0 7.2-3.6 10.4-3.4 3-13 3v3.8h45v-3.8h-3.4q-11.6 0-11.6-12zM677.623 818q-1-2.2-1-3.8 0-3.2 3.6-6.4 3.8-3.4 8.8-3.4 3.4 0 6.2 1.8 3 1.6 5 4 2.6 3 3 5.8.4 2.8.4 7v15.8q-5.2 3.2-10 5-4.6 1.8-7.8 2.6-4.8 1.2-9.2 2.8-4.2 1.4-7.4 3.6t-5.2 5.4q-1.8 3.2-1.8 7.8 0 7.4 4.8 12 5 4.4 13.8 4.4 2 0 3.8-.4 2-.2 4.6-1.4 2.6-1.2 6-3.6 3.6-2.6 8.8-6.8 0 1.2.2 3.4.4 2 1.4 4 1 1.8 2.8 3.2 1.8 1.6 4.8 1.6 2.6 0 7-2.2 4.6-2.2 12.8-8.8l-1-3q-3.8 3.2-6 3.8-2.2.6-3.8.6-2 0-3-.8t-1.6-3q-.4-2.2-.6-6v-36.6-6.4q0-2.6-.4-4.4-.2-2-.8-3.4-.6-1.4-1.8-3-4.2-5.8-10.4-8.2-6-2.4-10.6-2.4-4.8 0-10.2 2.6-5.2 2.6-9.6 6.4-4.2 3.6-7 7.6-2.8 4-2.8 6.6 0 1 .6 2.8zm26 48.6q-4.2 3-7 4.8-2.6 1.6-4.4 2.6-1.8.8-3 1.2-1.2.2-2.4.2-4.6 0-8.2-3.2-3.6-3.2-3.6-8.6 0-3 .8-5 1-2.2 3-3.8 2-1.6 5.2-3 3.2-1.6 7.8-3.4 3.6-1.6 6.2-2.8 2.8-1.2 5.6-2.8zM734.52 880h64.4l8.2-21.8h-3.6q-3 7.4-5.8 11-2.8 3.6-8 3.6h-36.6l50.4-68.4v-3.6h-47.6q-5.8 0-7.6-1-1.8-1-1.8-4.4h-3.4l-6.2 31.8h3.8q1.6-5.2 2.8-8.8 1.2-3.8 2.2-6 1-2.4 2.2-3.4 1.4-1 3.4-1h33.8l-50.6 68.2z"/><path d="M855.77 865.4l-22.6-48.8q-3-6.4-1.4-9.2 1.8-2.8 11-3v-3.6h-40.2v3.6q6.4.2 9.6 3 3.4 2.6 6.2 8.8l31 65.8-6 15q-1.2 3-3.2 6.4-2 3.4-3.6 5-1.8 1.8-4.8 2.6-2.8 1-5.4 1.8-2.6.8-4.6 2.2-1.8 1.6-1.8 4.6 0 3 2.2 5 2.4 2 6 2 5.2 0 9-5.2 4-5 8.6-16.2l34-84.8q2.8-7 6.6-11 3.8-4.2 10-5v-3.6h-33.2v3.6q4.4.2 7.2 1 3 .8 4.2 2.8 1.4 2 .8 5.6-.4 3.6-2.6 9.2zM1012.39 802.4q-4-1.6-9.6-2.6-5.4-1.2-10-1.2-9.2 0-17.2 3.6-7.8 3.4-13.8 9.6-5.8 6.2-9.2 14.4-3.2 8.2-3.2 17.6 0 8 2.4 15 2.6 7 6.8 12.4 4.4 5.2 10.2 8.2 6 3 12.6 3 11.4 0 31-14.2v14.2h2.4l25.6-10v-4.2l-4.8 1.4q-4.2 1.2-7 0-2.8-1.4-2.8-6.6V745.6l-27.8 8.2v3.4l6.6.8q4.8.6 6.2 1.8 1.6 1 1.6 3.8zm0 61.4q-6.6 4.6-12.8 7.4-6.2 2.6-10.8 2.6-5.4 0-10.2-2.8-4.6-3-8.2-8-3.6-5.2-5.6-11.8-2-6.6-2-14.2 0-7 1.8-13 1.8-6.2 5.2-10.6 3.4-4.4 8.2-6.8 4.8-2.6 10.6-2.6 7 0 12.6 3.6 5.8 3.4 11.2 11.4zM1043.79 841q0 8.8 3.4 16.4 3.4 7.6 9.2 13.2 5.8 5.4 13.8 8.6 8 3.2 17.4 3.2 9 0 16.6-3.2 7.8-3.2 13.4-8.8 5.8-5.6 9-13.2 3.4-7.8 3.4-16.6 0-9-3.4-16.6-3.2-7.6-9-13.2-5.8-5.8-13.6-9t-17-3.2q-7.8 0-15.6 2.8-7.6 2.6-13.8 8-6.2 5.4-10 13.4-3.8 7.8-3.8 18.2zm15-6.8q0-6.4 2-12 2.2-5.6 5.6-9.8 3.6-4.2 8.2-6.6 4.6-2.4 9.6-2.4 6.2 0 11.8 3.4 5.6 3.4 9.8 9.2 4.2 5.8 6.6 13.4 2.6 7.6 2.6 16.2 0 7.6-2.4 13.6-2.2 5.8-5.8 10-3.6 4-8.2 6.2-4.4 2.2-8.8 2.2-6.4 0-12.2-3.4-5.6-3.4-9.8-9.2-4.2-5.8-6.6-13.8-2.4-8-2.4-17zM1223.58 804.6q-6.6.8-13 1.4-6.4.6-13.2.6-8.4-8-22.4-8-7.4 0-13.8 2.4t-11.2 6.6q-4.8 4-7.6 9.6-2.6 5.6-2.6 12 0 8.6 5 15 5 6.2 14.2 9.8-2.6 2-6.2 3.2-3.4 1.2-6.6 2.8-3.2 1.4-5.4 3.4t-2.2 5.4q0 2.4 1.4 4.8t4 4.4q2.6 1.8 6 3.2 3.6 1.4 7.6 1.8-3.4 4.2-7.2 6.8-3.8 2.8-7 5.2-3.2 2.6-5.2 5.4-2 2.8-2 7.2 0 7.4 7.6 13.2 7.6 5.8 23.2 5.8 13.8 0 24-3.4 10.4-3.2 17.2-8.2 6.8-5 10-10.8 3.4-5.8 3.4-10.6 0-3.2-1.2-6.8-1.2-3.6-4.8-7.2-2.2-2.2-5-3.6t-7-2.2q-4.2-.8-10.2-1-5.8-.4-14.2-.4-15-.2-21.8-1.8-6.8-1.6-6.8-5.4 0-1.8 1.4-3 1.6-1.4 3.4-2.6 2-1.2 4-2.2 2.2-1.2 3.4-2.4 2.8 1 4.6 1.4 1.8.2 4.6.2 8.4 0 14.8-2.4 6.6-2.4 11-6.4 4.6-4.2 6.8-9.4 2.4-5.2 2.4-10.8 0-4.8-1.2-8t-2.2-4.8q2.8.6 5.8 1 3.2.4 5.8.8 2.8.2 5 .4t3.4.2zm-30 24.8q0 10.4-5.2 17-5.2 6.4-14 6.4-5.8 0-9.8-2.6-4-2.8-6.6-6.8-2.4-4-3.6-8.8-1.2-5-1.2-9.4 0-7 2-11.4t4.8-7q3-2.6 6.4-3.4 3.4-1 6.2-1 9.2 0 15 7 6 7 6 20zm-45 71.6q0-3 1.2-5.2 1.2-2 3.2-4 2-1.8 4.2-3.8 2.2-1.8 4.4-4.2 2.2.4 7.4.6 5.2.2 10.8.2 5.8.2 10.8.4 5.2.2 7.2.4 5.4.4 9.4 3.2 4 3 4 8.6 0 4.8-2.8 9-2.8 4.4-7.4 7.6-4.6 3.4-10.6 5.2-5.8 2-12.2 2-6.2 0-11.6-1.8-5.4-1.8-9.4-4.8-4-2.8-6.4-6.4-2.2-3.4-2.2-7zM1242.93 863.6q-4.4 0-7.4 2.6-2.8 2.6-2.8 6.8 0 4.2 2.8 6.8 3 2.6 7.4 2.6 4.2 0 7.2-2.4t3-7q0-4.4-3-6.8-3-2.6-7.2-2.6z"/></g></svg>