<svg xmlns="http://www.w3.org/2000/svg" viewBox="0 0 800 500"><path fill="#fff" d="M0 0h800v500H0z"/><g font-weight="400" font-size="100" font-family="Bembo" letter-spacing="-.03em" text-anchor="middle" fill="#222"><path d="M245.348 51.4h17.4q1.5 0 2.6.5t1.9 1.8q.9 1.2 1.5 3.4.7 2.1 1.3 5.4h1.8l-1.6-16.2h-1.9q-.2.9-1.1 1.2-.9.3-2 .3h-48.1q-1.1 0-2-.3-1-.3-1.1-1.2h-1.9l-1.6 16.2h1.8q.6-3.3 1.2-5.4.7-2.2 1.5-3.4.9-1.3 2-1.8t2.6-.5h17.4v49.4q0 4.1-1.7 5.7-1.6 1.6-6.2 1.6h-3.7v1.9h31.5v-1.9h-3.7q-4.6 0-6.3-1.6-1.6-1.6-1.6-5.7zM288.12 78.1q3.7-2.3 6.5-3.5 2.8-1.2 5.3-1.2 1.2 0 2.8.4 1.6.4 3 1.7 1.4 1.2 2.3 3.6 1 2.4 1 6.4 0 5.6-.1 9.3-.1 3.7-.4 6.1-.2 2.4-.6 3.7-.4 1.2-1.1 1.9-1.6 1.6-5.6 1.6v1.9h21.6v-1.9q-4.4 0-6-.9-1.5-.9-1.6-2.9.2-4 .3-8.6.2-4.7.2-11.5 0-7.6-2.7-11.2-2.6-3.7-8.4-3.7-3.8 0-7.7 1.7-3.8 1.7-8.8 4.6V42.8h-1.6l-11.9 4.1v1.7l4.3.6q1.6.2 2 .9.5.7.5 2.4v47.9q0 4.1-1.4 5.8-1.3 1.7-5.4 1.9v1.9h20v-1.9q-3.9 0-5.2-1.2-1.3-1.3-1.3-4.8zM361.87 84.6v-2.3q-1.2-1.2-2.1-3.4-.8-2.2-2.3-4.3-1.5-2.2-4.3-3.7-2.7-1.6-7.8-1.6-4.6 0-8.2 1.9-3.6 1.8-6.1 4.8-2.4 3-3.7 6.9-1.3 3.8-1.3 7.8 0 4.4 1.3 8.1 1.4 3.7 3.7 6.5 2.4 2.8 5.5 4.4 3.2 1.5 6.9 1.5 2.7 0 5.2-.9 2.6-.8 4.8-2.2 2.3-1.5 4.2-3.3 2-1.9 3.6-3.9l-1.1-1.2q-2.9 3.4-5.9 5-3 1.5-6.8 1.5-3 0-5.8-1.2-2.7-1.3-4.8-3.6-2.1-2.3-3.4-5.5-1.2-3.2-1.2-7.1 0-1 .1-2 .1-1.1.3-2.2zm-28.9-2.6q.9-3.5 2.2-5.6 1.3-2.1 2.7-3.2 1.5-1.2 3-1.6 1.5-.4 2.7-.4 3.6 0 6.3 3 2.8 2.9 3.6 7.8zM429.454 74.6q0-1.5.1-2.6.2-1.1.5-2.5h-1.7q-.8.5-1.8 1.5-.9.9-1.5 1.7-3.4-1.7-6.4-2.5-3-.9-6.2-.9-4.4 0-8.3 1.7-3.8 1.7-6.7 4.7-2.8 2.9-4.5 6.9-1.6 4-1.6 8.6 0 4.2 1.2 7.8 1.2 3.6 3.4 6.3 2.2 2.6 5.2 4.1 3 1.4 6.5 1.4 3.7 0 7.3-1.7 3.6-1.7 7.8-5.3v19.9q0 4.3-1.4 6-1.4 1.7-5.3 1.7h-3.9v1.9h24.2v-1.9h-1.1q-2.3 0-4.1-1.5-1.7-1.4-1.7-4.6zm-6.7 26.9q-2.4 2.4-5.4 3.8-3 1.3-5.5 1.3-2.9 0-5.5-1.4-2.5-1.4-4.4-3.8-1.8-2.4-2.9-5.7-1-3.3-1-7.1 0-7.8 3.6-12.3 3.7-4.5 9.8-4.5 2.4 0 4.4.9 2.1.8 3.6 2.4 1.6 1.6 2.4 3.8.9 2.1.9 4.8zM483.454 105.3l-2.1.4q-2.7.5-3.7 0-.9-.5-.9-2.6V69.4l-15.4 2.4v1.4l5 .9q1.2.2 1.9.5.8.3 1.1.9.4.6.5 1.5.2.9.2 2.4v21.5q-3.1 2.6-6.2 4.1-3.1 1.4-5.7 1.4-1.7 0-3.3-.5-1.6-.6-2.9-1.7-1.3-1.1-2.1-2.8-.7-1.7-.7-4v-28l-12.9 2.8v1.5l3.5 1q1.6.5 2.1 1.4.6.9.6 2.7V101q0 2.6.9 4.5 1 1.9 2.5 3.2 1.5 1.2 3.4 1.8 1.9.7 3.8.7 5.9 0 17-8v8l13.4-4.1zM499.702 68.8h-1.5l-13 4.5v1.6l4.7.9q1.9.4 2.5 1.2.6.8.6 3.7v20.1q0 4-1.9 5.7-1.8 1.6-6.4 1.6v1.9h22.2v-1.9q-4 0-5.6-1.5-1.6-1.6-1.6-4.2zm-8.4-18.7q0 1.6 1.2 2.7 1.3 1.1 3.1 1.1t3.1-1.1q1.3-1.1 1.3-2.7t-1.3-2.7q-1.3-1.1-3.1-1.1t-3.1 1.1q-1.2 1.1-1.2 2.7zM543.48 99.9q-2.7 3.8-5.7 5.5-2.9 1.7-6.5 1.7-3 0-5.6-1.3-2.6-1.3-4.5-3.6-1.9-2.4-3-5.5-1-3.2-1-7 0-3.6 1-6.8 1.1-3.3 2.8-5.7 1.8-2.4 4.1-3.8 2.4-1.5 5-1.5 2.1 0 3.5 1 1.4.9 2.6 2.1 1.2 1.1 2.5 2.1 1.3.9 3.1.9 1.2 0 2-.8.9-.9.9-2.2 0-2.4-3.2-4-3.2-1.7-8-1.7t-9 1.8q-4.1 1.7-7.3 4.8-3.1 3.1-4.9 7.2-1.8 4.1-1.8 8.8 0 3 .9 6.4 1 3.3 3 6.2 2 2.9 5.2 4.8t7.7 1.9q6 0 10.2-2.6 4.3-2.7 7.5-7.8zM572.152 70.4v1.9h1.7q2.8 0 3.4 1.1.7 1.1-1.3 2.5l-14.4 10.3V42.8h-1.5l-12.2 4.1v1.7l4.1.6q1.8.2 2.3 1 .6.8.6 2.9v48.3q0 3.2-1.5 5-1.5 1.7-5.5 1.7v1.9h20.5v-1.9h-1q-3.5 0-4.7-1.1-1.1-1.2-1.1-3.8V87.9l15.2 15.8q4.1 4.4-3 4.4v1.9h21.5v-1.9q-1.7 0-3.1-.3-1.4-.4-2.7-1.1-1.3-.8-2.8-2-1.4-1.3-3.3-3.2l-16-16.3 9.2-6.6q1.9-1.4 3.5-2.5 1.7-1.1 3.4-1.9 1.8-.8 3.8-1.3 2-.5 4.7-.6v-1.9zM224.087 152.8h-1.6l-12 4.1v1.7l2.8.4q1.4.2 2.2.5.9.2 1.3.8.4.6.5 1.8.1 1.1.1 3v54.2q4.8.9 8.1 1.4 3.3.5 6.7.5 5 0 9.2-1.7 4.3-1.8 7.4-4.8 3.2-3 5-7.1 1.8-4.2 1.8-9 0-3.9-1.3-7.4-1.3-3.6-3.6-6.2-2.2-2.6-5.2-4.1-3-1.6-6.3-1.6-2.8 0-6.3 1.6-3.4 1.6-8.8 5.4zm0 35.8q6.6-4.7 11.2-4.7 2.9 0 5.4 1.4 2.5 1.3 4.3 3.6 1.8 2.3 2.8 5.6 1.1 3.2 1.1 6.9 0 3.8-1 6.9-1 3.1-2.9 5.3-1.8 2.2-4.4 3.5-2.5 1.2-5.6 1.2-2.9 0-5-.9-2-1-3.3-2.5-1.3-1.5-2-3.3-.6-1.9-.6-3.8zM272.887 193.3q1.2-2.2 3.2-5 .8-1.1 1.6-1.8.9-.8 2.3-.8.9 0 1.8.3t1.7.7q1.4.7 2.8 1.1 1.4.3 2.5.5l2.4-6q-1.8-.5-3.1-.8-1.3-.4-2.1-.7-1.4-.6-2-.7-.5-.2-1.4-.2-1.2 0-2.2.5-.9.4-1.9 1.5-1 1.1-2.3 3.1-1.2 1.9-3.1 5h-.2v-10.6h-2l-11.4 4v1.7l6.7 2.4v23.1q0 4-1.5 5.7-1.4 1.7-5.2 1.8v1.9h23.7v-1.9h-3.8q-3.8 0-5.2-1.1-1.3-1.2-1.3-4.3zM288.953 200.5q0 4.4 1.7 8.2 1.7 3.8 4.6 6.6 2.9 2.7 6.9 4.3 4 1.6 8.7 1.6 4.5 0 8.3-1.6 3.9-1.6 6.7-4.4 2.9-2.8 4.5-6.6 1.7-3.9 1.7-8.3 0-4.5-1.7-8.3-1.6-3.8-4.5-6.6-2.9-2.9-6.8-4.5t-8.5-1.6q-3.9 0-7.8 1.4-3.8 1.3-6.9 4-3.1 2.7-5 6.7-1.9 3.9-1.9 9.1zm7.5-3.4q0-3.2 1-6 1.1-2.8 2.8-4.9 1.8-2.1 4.1-3.3 2.3-1.2 4.8-1.2 3.1 0 5.9 1.7 2.8 1.7 4.9 4.6 2.1 2.9 3.3 6.7 1.3 3.8 1.3 8.1 0 3.8-1.2 6.8-1.1 2.9-2.9 5-1.8 2-4.1 3.1-2.2 1.1-4.4 1.1-3.2 0-6.1-1.7-2.8-1.7-4.9-4.6-2.1-2.9-3.3-6.9-1.2-4-1.2-8.5zM382.293 220.9l12.9-31.5q1.5-3.7 3.4-5.3 1.9-1.6 4.8-1.9v-1.8h-16.8v1.8q4.8 0 6.1 1.5 1.4 1.5-.3 5.5l-9.6 23.4-9.8-23.8q-1.6-3.8-.5-5.1 1.1-1.4 4.8-1.5v-1.8h-20.7v1.8l2.4.3q2.6.3 4.1 1.9 1.6 1.6 3.3 5.4l-9.8 23.2-10.8-24.1q-1.6-3.5-.9-5 .7-1.5 5.1-1.7v-1.8h-19.4v1.8q3.5.4 4.9 1.6 1.4 1.2 2.5 3.5l14.9 33.6h2.8l12-28.2 11.9 28.2zM416.816 189.6q3.9-2.7 7.4-4.5 3.5-1.9 5.9-1.9 1.5 0 2.9.5t2.5 1.8q1.2 1.2 1.8 3.2.7 2 .7 5 0 10-.4 15.6-.3 5.5-1.7 6.9-.8.8-2.2 1.3-1.3.5-3.5.6v1.9h21.5v-1.9h-2.2q-3.1 0-4.4-1-1.3-1-1.2-3 0-1.5.1-2.9.2-1.4.3-3.5.2-2.1.3-5.2.1-3.2.1-8.2 0-7.5-2.8-11.2-2.8-3.8-7.9-3.8-3.7 0-7.9 2.4-4.2 2.3-9.3 5.5v-7.8h-1.6l-11.5 4.2v1.6l3.4.7q2 .4 2.5 1.3.5.8.5 3.6v21q0 2.9-1.7 4.6-1.7 1.7-5 1.7v1.9h20.1v-1.9q-2 0-3.3-.3-1.3-.3-2.1-1-.7-.8-1-2.1-.3-1.3-.3-3.4zM500.5 180.4h-10.1v-7.6q0-7.3 2.8-11.3 2.9-4.1 8.3-4.1 2.5 0 4.4.8 2 .7 3.4 1.7 1.4.9 2.4 1.7 1 .7 1.5.7.3 0 .7-.6.5-.7.9-1.5.5-.8.8-1.6.3-.8.3-1.1 0-.6-.8-1.4-.8-.8-2.3-1.5-1.4-.8-3.3-1.3-1.8-.5-3.9-.5-3.5 0-7 1.7t-7.2 5.4q-4.4 4.4-6.1 9.4-1.6 4.9-1.6 11.1-3.4 1.8-7.4 2.7v1.7h7.4v26.4q0 2.1-.3 3.5-.2 1.3-1 2.1-.7.7-2 1-1.3.3-3.5.3v1.9h24.7v-1.9h-3.8q-4.2 0-5.8-1.2-1.6-1.2-1.6-4.7v-27.4h10.8z"/><path d="M503.348 200.5q0 4.4 1.7 8.2 1.7 3.8 4.6 6.6 2.9 2.7 6.9 4.3 4 1.6 8.7 1.6 4.5 0 8.3-1.6 3.9-1.6 6.7-4.4 2.9-2.8 4.5-6.6 1.7-3.9 1.7-8.3 0-4.5-1.7-8.3-1.6-3.8-4.5-6.6-2.9-2.9-6.8-4.5t-8.5-1.6q-3.9 0-7.8 1.4-3.8 1.3-6.9 4-3.1 2.7-5 6.7-1.9 3.9-1.9 9.1zm7.5-3.4q0-3.2 1-6 1.1-2.8 2.8-4.9 1.8-2.1 4.1-3.3 2.3-1.2 4.8-1.2 3.1 0 5.9 1.7 2.8 1.7 4.9 4.6 2.1 2.9 3.3 6.7 1.3 3.8 1.3 8.1 0 3.8-1.2 6.8-1.1 2.9-2.9 5-1.8 2-4.1 3.1-2.2 1.1-4.4 1.1-3.2 0-6.1-1.7-2.8-1.7-4.9-4.6-2.1-2.9-3.3-6.9-1.2-4-1.2-8.5z"/><path d="M545.59 182.2q4.1.2 6.4 1.9 2.3 1.6 4.1 4l9.7 12.7-10.7 12q-1.3 1.5-2.4 2.5-1.1 1-2.2 1.6-1.1.6-2.5.9-1.3.2-3.1.2v2h18.6v-2q-4.4 0-5.9-1.6-1.4-1.6.8-4.1l8.8-9.9 8.9 11.4q1.9 2.4 1 3.3-.9.9-4.6.9v2h20v-2q-3.5 0-5.4-1.4-1.8-1.4-3.8-3.8l-12-15 8.5-9.4q2.2-2.4 4.3-3.9 2.2-1.6 5.5-2l2.9-.3v-1.8h-19.3v1.8q3.8 0 4.8 1.9 1.1 1.9-1.5 4.8l-6.5 7.3-7.5-9.9q-1.4-2.1-.8-3.1.6-1 4.1-1v-1.8h-20.2zM214.905 288.8h-1.4l-13.1 4.5v1.6l4.5.8q2 .4 2.6 1.1.7.7.7 3v38.8q0 6-1.9 8.4-1.8 2.5-4.8 2.5-1.7 0-3.2-1-1.5-.9-2.8-2-1.4-1.1-2.6-2.1-1.2-.9-2.3-.9-1.1 0-2 1.3-1 1.4-1 3.3 0 2.2 3.1 3.7t7.6 1.5q3.4 0 6.4-1.5 3.1-1.4 5.3-4.2 2.3-2.7 3.6-6.7 1.3-4 1.3-9.1zm-8.6-18.7q0 1.6 1.2 2.7 1.3 1.1 3.1 1.1t3.1-1.1q1.3-1.1 1.3-2.7t-1.3-2.7q-1.3-1.1-3.1-1.1t-3.1 1.1q-1.2 1.1-1.2 2.7zM269.805 325.3l-2.1.4q-2.7.5-3.7 0-.9-.5-.9-2.6v-33.7l-15.4 2.4v1.4l5 .9q1.2.2 1.9.5.8.3 1.1.9.4.6.5 1.5.2.9.2 2.4v21.5q-3.1 2.6-6.2 4.1-3.1 1.4-5.7 1.4-1.7 0-3.3-.5-1.6-.6-2.9-1.7-1.3-1.1-2.1-2.8-.7-1.7-.7-4v-28l-12.9 2.8v1.5l3.5 1q1.6.5 2.1 1.4.6.9.6 2.7V321q0 2.6.9 4.5 1 1.9 2.5 3.2 1.5 1.2 3.4 1.8 1.9.7 3.8.7 5.9 0 17-8v8l13.4-4.1zM285.154 299.1q5.1-3.4 8.2-4.6 3.1-1.2 5.2-1.2 1.3 0 2.6.5 1.4.4 2.4 1.5 1.1 1 1.7 2.6.7 1.6.7 4v18.5q0 4.3-1.7 6-1.7 1.7-5.9 1.7v1.9h20.5v-1.9q-3.8 0-5-1.2-1.2-1.2-1.2-5v-23q4.7-3.1 7.8-4.3 3.2-1.3 5.5-1.3 7.5 0 7.5 11.4v7.8q0 5.2-.3 9.2-.2 3.9-1.3 5-.7.7-1.8 1.1-1.1.3-3.3.3h-.9v1.9h22.5v-1.9h-3.2q-3.1 0-4.2-1.4-1.1-1.5-1.1-3.1.2-4.6.2-9.5.1-4.9.1-9.7 0-7.2-2.3-11.1-2.3-4-7.7-4-3.7 0-8.2 2.4-4.4 2.4-9.5 5.6-.8-3.7-3.3-5.8-2.5-2.2-6.2-2.2-3 0-7.7 2.1t-10.1 5.9v-8h-1.5l-12 4.2v1.7l3.9.5q1.7.2 2.3 1.2.6 1 .6 3.9v19.6q0 3.8-1.4 5.8-1.3 1.9-5.7 1.9v1.9h20.8v-1.9q-4.2 0-5.6-1.1-1.4-1.2-1.4-5.1z"/><path d="M360.55 328.7q2.9 1.1 5 1.5 2.1.5 4.1.5 4.3 0 8.1-1.8 3.9-1.8 6.8-4.9 2.9-3.1 4.6-7.2 1.7-4.1 1.7-8.6 0-3.7-1.2-7-1.2-3.4-3.3-5.9-2-2.6-4.7-4.1-2.7-1.6-5.6-1.6-3 0-6.9 1.9-3.9 1.9-8.6 5.4v-9.6h-2l-10.7 6.6v1.9l3.2.8q1.8.5 2.3 1.2.5.7.5 2.1V344q0 4.3-1.5 5.8-1.4 1.6-5.2 1.6h-1v1.9h23.6v-1.9h-2.5q-3.2 0-5-1.4-1.7-1.3-1.7-5.1zm0-29.3q2.7-2.3 5.4-3.6 2.8-1.3 5.1-1.3 2 0 4.3 1t4.2 3.2q2 2.1 3.3 5.6 1.3 3.5 1.3 8.4 0 3.1-.9 5.8-.9 2.7-2.5 4.8-1.5 2-3.7 3.2-2.2 1.1-4.7 1.1-2.8 0-6-1.5-3.1-1.5-5.8-3.9zM395.75 319.9l1.1 11.2h1.5q.7-1.2 1.7-1.2.6 0 1.2.2.7.2 1.5.4.8.3 1.9.5 1.1.2 2.5.2 2.6 0 4.9-.9 2.3-.8 3.9-2.3 1.7-1.6 2.6-3.7 1-2.1 1-4.5 0-3-1.4-5.2-1.4-2.3-3.5-4.1-2-1.8-4.4-3.2-2.4-1.5-4.5-3-2-1.5-3.4-3.1-1.4-1.7-1.4-3.9 0-2.5 1.8-4 1.8-1.6 4.3-1.6 3 0 5.2 2.3 2.3 2.2 2.8 6h1.7l-.2-9.1q-4-1.6-8-1.6-5.7 0-9.3 3.1-3.5 3.1-3.5 8.1 0 3.1 1.3 5 1.4 1.9 3.5 3.5 2.2 1.6 4.8 3.3 2.7 1.6 5.4 4.3 2 2 2.6 3.3.6 1.2.6 2.8 0 2.7-2.1 4.7-2 1.9-5 1.9-3.4 0-6-2.4-2.6-2.5-3.5-7zM449.06 310.5q0 4.4 1.7 8.2 1.7 3.8 4.6 6.6 2.9 2.7 6.9 4.3 4 1.6 8.7 1.6 4.5 0 8.3-1.6 3.9-1.6 6.7-4.4 2.9-2.8 4.5-6.6 1.7-3.9 1.7-8.3 0-4.5-1.7-8.3-1.6-3.8-4.5-6.6-2.9-2.9-6.8-4.5t-8.5-1.6q-3.9 0-7.8 1.4-3.8 1.3-6.9 4-3.1 2.7-5 6.7-1.9 3.9-1.9 9.1zm7.5-3.4q0-3.2 1-6 1.1-2.8 2.8-4.9 1.8-2.1 4.1-3.3 2.3-1.2 4.8-1.2 3.1 0 5.9 1.7 2.8 1.7 4.9 4.6 2.1 2.9 3.3 6.7 1.3 3.8 1.3 8.1 0 3.8-1.2 6.8-1.1 2.9-2.9 5-1.8 2-4.1 3.1-2.2 1.1-4.4 1.1-3.2 0-6.1-1.7-2.8-1.7-4.9-4.6-2.1-2.9-3.3-6.9-1.2-4-1.2-8.5zM515.4 330.9l13.8-31.4q1.4-3.3 3.2-5 1.8-1.8 4.7-2.3v-1.8h-17.4v1.8q2.7.2 4.3.8 1.6.6 2.3 1.6.7 1 .6 2.3-.1 1.3-.8 2.8l-10.2 23.1-10.6-24.9q-.9-1.8-1-2.8-.1-1.1.6-1.7.7-.6 2.2-.8 1.5-.3 3.8-.4v-1.8h-20.4v1.8l3.1.5q1.2.2 2.2 1.3 1.1 1.1 2.2 3.7l14.5 33.2zM571.346 304.6v-2.3q-1.2-1.2-2.1-3.4-.8-2.2-2.3-4.3-1.5-2.2-4.3-3.7-2.7-1.6-7.8-1.6-4.6 0-8.2 1.9-3.6 1.8-6.1 4.8-2.4 3-3.7 6.9-1.3 3.8-1.3 7.8 0 4.4 1.3 8.1 1.4 3.7 3.7 6.5 2.4 2.8 5.5 4.4 3.2 1.5 6.9 1.5 2.7 0 5.2-.9 2.6-.8 4.8-2.2 2.3-1.5 4.2-3.3 2-1.9 3.6-3.9l-1.1-1.2q-2.9 3.4-5.9 5-3 1.5-6.8 1.5-3 0-5.8-1.2-2.7-1.3-4.8-3.6-2.1-2.3-3.4-5.5-1.2-3.2-1.2-7.1 0-1 .1-2 .1-1.1.3-2.2zm-28.9-2.6q.9-3.5 2.2-5.6 1.3-2.1 2.7-3.2 1.5-1.2 3-1.6 1.5-.4 2.7-.4 3.6 0 6.3 3 2.8 2.9 3.6 7.8zM587.496 303.3q1.2-2.2 3.2-5 .8-1.1 1.6-1.8.9-.8 2.3-.8.9 0 1.8.3t1.7.7q1.4.7 2.8 1.1 1.4.3 2.5.5l2.4-6q-1.8-.5-3.1-.8-1.3-.4-2.1-.7-1.4-.6-2-.7-.5-.2-1.4-.2-1.2 0-2.2.5-.9.4-1.9 1.5-1 1.1-2.3 3.1-1.2 1.9-3.1 5h-.2v-10.6h-2l-11.4 4v1.7l6.7 2.4v23.1q0 4-1.5 5.7-1.4 1.7-5.2 1.8v1.9h23.7v-1.9h-3.8q-3.8 0-5.2-1.1-1.3-1.2-1.3-4.3zM179.76 400.4v-9.9h-1.7q-1.7 4.7-4.2 8t-5.4 4.7v1.6h4.6v24.8q0 5.1 2.8 8.4 2.8 3.2 7.3 3.2 3.5 0 6.3-2.1 2.8-2.2 4.6-6.1l-1.6-1.5q-2.9 5-6.1 5-.8 0-1.9-.4-1.1-.5-2.2-1.4-1-1-1.8-2.6-.7-1.6-.7-4v-23.3h12.7l1.6-4.4zM207.855 408.1q3.7-2.3 6.5-3.5 2.8-1.2 5.3-1.2 1.2 0 2.8.4 1.6.4 3 1.7 1.4 1.2 2.3 3.6 1 2.4 1 6.4 0 5.6-.1 9.3-.1 3.7-.4 6.1-.2 2.4-.6 3.7-.4 1.2-1.1 1.9-1.6 1.6-5.6 1.6v1.9h21.6v-1.9q-4.4 0-6-.9-1.5-.9-1.6-2.9.2-4 .3-8.6.2-4.7.2-11.5 0-7.6-2.7-11.2-2.6-3.7-8.4-3.7-3.8 0-7.7 1.7-3.8 1.7-8.8 4.6v-32.8h-1.6l-11.9 4.1v1.7l4.3.6q1.6.2 2 .9.5.7.5 2.4v47.9q0 4.1-1.4 5.8-1.3 1.7-5.4 1.9v1.9h20v-1.9q-3.9 0-5.2-1.2-1.3-1.3-1.3-4.8zM281.604 414.6v-2.3q-1.2-1.2-2.1-3.4-.8-2.2-2.3-4.3-1.5-2.2-4.3-3.7-2.7-1.6-7.8-1.6-4.6 0-8.2 1.9-3.6 1.8-6.1 4.8-2.4 3-3.7 6.9-1.3 3.8-1.3 7.8 0 4.4 1.3 8.1 1.4 3.7 3.7 6.5 2.4 2.8 5.5 4.4 3.2 1.5 6.9 1.5 2.7 0 5.2-.9 2.6-.8 4.8-2.2 2.3-1.5 4.2-3.3 2-1.9 3.6-3.9l-1.1-1.2q-2.9 3.4-5.9 5-3 1.5-6.8 1.5-3 0-5.8-1.2-2.7-1.3-4.8-3.6-2.1-2.3-3.4-5.5-1.2-3.2-1.2-7.1 0-1 .1-2 .1-1.1.3-2.2zm-28.9-2.6q.9-3.5 2.2-5.6 1.3-2.1 2.7-3.2 1.5-1.2 3-1.6 1.5-.4 2.7-.4 3.6 0 6.3 3 2.8 2.9 3.6 7.8zM322.088 372.8h-1.5l-12.8 4.1v1.7l4.5.5q2.1.2 2.6 1.1.5.8.5 2.9v48.3q0 3.6-1.8 5.2-1.7 1.5-6.5 1.5v1.9h22.5v-1.9h-1.7q-5.8 0-5.8-6zM338.812 409q-.5-1.1-.5-1.9 0-1.6 1.8-3.2 1.9-1.7 4.4-1.7 1.7 0 3.1.9 1.5.8 2.5 2 1.3 1.5 1.5 2.9.2 1.4.2 3.5v7.9q-2.6 1.6-5 2.5-2.3.9-3.9 1.3-2.4.6-4.6 1.4-2.1.7-3.7 1.8t-2.6 2.7q-.9 1.6-.9 3.9 0 3.7 2.4 6 2.5 2.2 6.9 2.2 1 0 1.9-.2 1-.1 2.3-.7 1.3-.6 3-1.8 1.8-1.3 4.4-3.4 0 .6.1 1.7.2 1 .7 2 .5.9 1.4 1.6.9.8 2.4.8 1.3 0 3.5-1.1 2.3-1.1 6.4-4.4l-.5-1.5q-1.9 1.6-3 1.9-1.1.3-1.9.3-1 0-1.5-.4t-.8-1.5q-.2-1.1-.3-3v-18.3-3.2q0-1.3-.2-2.2-.1-1-.4-1.7-.3-.7-.9-1.5-2.1-2.9-5.2-4.1-3-1.2-5.3-1.2-2.4 0-5.1 1.3-2.6 1.3-4.8 3.2-2.1 1.8-3.5 3.8-1.4 2-1.4 3.3 0 .5.3 1.4zm13 24.3q-2.1 1.5-3.5 2.4-1.3.8-2.2 1.3-.9.4-1.5.6-.6.1-1.2.1-2.3 0-4.1-1.6-1.8-1.6-1.8-4.3 0-1.5.4-2.5.5-1.1 1.5-1.9 1-.8 2.6-1.5 1.6-.8 3.9-1.7 1.8-.8 3.1-1.4 1.4-.6 2.8-1.4zM367.26 440h32.2l4.1-10.9h-1.8q-1.5 3.7-2.9 5.5-1.4 1.8-4 1.8h-18.3l25.2-34.2v-1.8h-23.8q-2.9 0-3.8-.5-.9-.5-.9-2.2h-1.7l-3.1 15.9h1.9q.8-2.6 1.4-4.4.6-1.9 1.1-3 .5-1.2 1.1-1.7.7-.5 1.7-.5h16.9l-25.3 34.1z"/><path d="M427.885 432.7l-11.3-24.4q-1.5-3.2-.7-4.6.9-1.4 5.5-1.5v-1.8h-20.1v1.8q3.2.1 4.8 1.5 1.7 1.3 3.1 4.4l15.5 32.9-3 7.5q-.6 1.5-1.6 3.2-1 1.7-1.8 2.5-.9.9-2.4 1.3-1.4.5-2.7.9-1.3.4-2.3 1.1-.9.8-.9 2.3 0 1.5 1.1 2.5 1.2 1 3 1 2.6 0 4.5-2.6 2-2.5 4.3-8.1l17-42.4q1.4-3.5 3.3-5.5 1.9-2.1 5-2.5v-1.8h-16.6v1.8q2.2.1 3.6.5 1.5.4 2.1 1.4.7 1 .4 2.8-.2 1.8-1.3 4.6zM506.195 401.2q-2-.8-4.8-1.3-2.7-.6-5-.6-4.6 0-8.6 1.8-3.9 1.7-6.9 4.8-2.9 3.1-4.6 7.2-1.6 4.1-1.6 8.8 0 4 1.2 7.5 1.3 3.5 3.4 6.2 2.2 2.6 5.1 4.1 3 1.5 6.3 1.5 5.7 0 15.5-7.1v7.1h1.2l12.8-5v-2.1l-2.4.7q-2.1.6-3.5 0-1.4-.7-1.4-3.3v-58.7l-13.9 4.1v1.7l3.3.4q2.4.3 3.1.9.8.5.8 1.9zm0 30.7q-3.3 2.3-6.4 3.7-3.1 1.3-5.4 1.3-2.7 0-5.1-1.4-2.3-1.5-4.1-4-1.8-2.6-2.8-5.9-1-3.3-1-7.1 0-3.5.9-6.5.9-3.1 2.6-5.3 1.7-2.2 4.1-3.4 2.4-1.3 5.3-1.3 3.5 0 6.3 1.8 2.9 1.7 5.6 5.7zM521.895 420.5q0 4.4 1.7 8.2 1.7 3.8 4.6 6.6 2.9 2.7 6.9 4.3 4 1.6 8.7 1.6 4.5 0 8.3-1.6 3.9-1.6 6.7-4.4 2.9-2.8 4.5-6.6 1.7-3.9 1.7-8.3 0-4.5-1.7-8.3-1.6-3.8-4.5-6.6-2.9-2.9-6.8-4.5t-8.5-1.6q-3.9 0-7.8 1.4-3.8 1.3-6.9 4-3.1 2.7-5 6.7-1.9 3.9-1.9 9.1zm7.5-3.4q0-3.2 1-6 1.1-2.8 2.8-4.9 1.8-2.1 4.1-3.3 2.3-1.2 4.8-1.2 3.1 0 5.9 1.7 2.8 1.7 4.9 4.6 2.1 2.9 3.3 6.7 1.3 3.8 1.3 8.1 0 3.8-1.2 6.8-1.1 2.9-2.9 5-1.8 2-4.1 3.1-2.2 1.1-4.4 1.1-3.2 0-6.1-1.7-2.8-1.7-4.9-4.6-2.1-2.9-3.3-6.9-1.2-4-1.2-8.5zM611.79 402.3q-3.3.4-6.5.7-3.2.3-6.6.3-4.2-4-11.2-4-3.7 0-6.9 1.2t-5.6 3.3q-2.4 2-3.8 4.8-1.3 2.8-1.3 6 0 4.3 2.5 7.5 2.5 3.1 7.1 4.9-1.3 1-3.1 1.6-1.7.6-3.3 1.4-1.6.7-2.7 1.7t-1.1 2.7q0 1.2.7 2.4t2 2.2q1.3.9 3 1.6 1.8.7 3.8.9-1.7 2.1-3.6 3.4-1.9 1.4-3.5 2.6-1.6 1.3-2.6 2.7-1 1.4-1 3.6 0 3.7 3.8 6.6 3.8 2.9 11.6 2.9 6.9 0 12-1.7 5.2-1.6 8.6-4.1 3.4-2.5 5-5.4 1.7-2.9 1.7-5.3 0-1.6-.6-3.4-.6-1.8-2.4-3.6-1.1-1.1-2.5-1.8t-3.5-1.1q-2.1-.4-5.1-.5-2.9-.2-7.1-.2-7.5-.1-10.9-.9-3.4-.8-3.4-2.7 0-.9.7-1.5.8-.7 1.7-1.3 1-.6 2-1.1 1.1-.6 1.7-1.2 1.4.5 2.3.7.9.1 2.3.1 4.2 0 7.4-1.2 3.3-1.2 5.5-3.2 2.3-2.1 3.4-4.7 1.2-2.6 1.2-5.4 0-2.4-.6-4t-1.1-2.4q1.4.3 2.9.5 1.6.2 2.9.4 1.4.1 2.5.2t1.7.1zm-15 12.4q0 5.2-2.6 8.5-2.6 3.2-7 3.2-2.9 0-4.9-1.3-2-1.4-3.3-3.4-1.2-2-1.8-4.4-.6-2.5-.6-4.7 0-3.5 1-5.7t2.4-3.5q1.5-1.3 3.2-1.7 1.7-.5 3.1-.5 4.6 0 7.5 3.5 3 3.5 3 10zm-22.5 35.8q0-1.5.6-2.6.6-1 1.6-2 1-.9 2.1-1.9 1.1-.9 2.2-2.1 1.1.2 3.7.3 2.6.1 5.4.1 2.9.1 5.4.2 2.6.1 3.6.2 2.7.2 4.7 1.6 2 1.5 2 4.3 0 2.4-1.4 4.5-1.4 2.2-3.7 3.8-2.3 1.7-5.3 2.6-2.9 1-6.1 1-3.1 0-5.8-.9-2.7-.9-4.7-2.4-2-1.4-3.2-3.2-1.1-1.7-1.1-3.5zM621.465 431.8q-2.2 0-3.7 1.3-1.4 1.3-1.4 3.4 0 2.1 1.4 3.4 1.5 1.3 3.7 1.3 2.1 0 3.6-1.2t1.5-3.5q0-2.2-1.5-3.4-1.5-1.3-3.6-1.3z"/></g></svg>