<svg xmlns="http://www.w3.org/2000/svg" viewBox="0 0 800 500" height="500" width="800"><path fill="#fff" d="M0 0h800v500H0z"/><g font-weight="400" font-size="100" font-family="Bodoni" letter-spacing="-.03em" text-anchor="middle" fill="#222"><path d="M261.156 43.398l.88 21.192h-2.98q-1.952-10.938-5.663-14.99-3.71-4.102-11.426-4.102-1.32 0-2.002.05-.635 0-1.172.048l-.05 61.914h10.792V110h-34.472v-2.49h10.693V45.596h-3.125q-7.91 0-11.474 3.955-3.564 3.907-5.615 15.04h-2.977l.878-21.192zM264.943 110v-2.295h6.787V45.4h-6.787v-2.295h6.397q1.904 0 4.736-.244 2.88-.243 6.055-.633v36.865h.636q5.03-5.713 7.86-7.276 2.882-1.61 6.642-1.61 6.054 0 9.13 2.93 3.077 2.88 3.077 8.64v25.93h6.2V110h-22.9v-2.295h5.957V78.408q0-2.197-1.27-3.418-1.22-1.27-3.417-1.27-4.346 0-8.008 4.688-3.662 4.688-3.662 10.596v18.7h6.3V110zM352.91 97.5h2.393q-1.856 6.885-6.446 10.4-4.59 3.516-11.718 3.516-8.204 0-13.722-5.664-5.47-5.713-5.47-13.965 0-8.838 5.616-15.185 5.616-6.397 13.575-6.397 7.81 0 12.987 4.834 5.176 4.833 5.176 12.157v.88h-25.586V99.99q0 4.102 2.392 6.592 2.392 2.44 6.396 2.44 5.03 0 8.935-3.124 3.908-3.125 5.47-8.398zm-8.79-12.207v-5.37q0-3.76-1.757-5.52-1.758-1.805-5.42-1.805-3.613 0-5.42 1.855-1.806 1.807-1.806 5.47v5.37zM431.334 133.39h-24.17v-2.296h6.787V105.41h-1.22q-2.49 3.174-5.224 4.59-2.686 1.416-6.25 1.416-7.96 0-13.28-5.86-5.324-5.86-5.324-14.745 0-8.79 5.225-14.697 5.225-5.908 12.793-5.908 3.71 0 6.64 1.514 2.93 1.464 5.225 4.49h1.416v-6.005q3.224.44 6.007.684 2.832.194 4.688.194h7.03v2.295h-7.128v57.714h6.787zM413.95 85.88q0-5.714-3.71-9.523-3.71-3.857-8.79-3.857-3.66 0-5.32 2.54-1.66 2.538-1.66 8.25v14.015q0 6.933 1.708 9.472 1.758 2.54 5.957 2.54 4.394 0 8.105-3.956 3.71-4.003 3.71-8.837zM466.127 73.38h-6.3v-2.296h6.202q1.952 0 4.784-.195 2.88-.245 6.104-.685v37.402h6.592V110h-6.397q-2.49 0-5.175.195-2.686.196-5.616.586v-8.885h-.88q-2.83 4.638-6.25 6.835-3.417 2.15-7.86 2.15-6.152 0-9.18-2.833-3.027-2.88-3.027-8.643v-.293q-.098-.83-.098-1.512v-24.22h-6.396v-2.294h6.3q1.855 0 4.687-.195 2.88-.245 6.104-.685v28.71q0 4.737.977 6.593 1.026 1.806 3.516 1.806 4.687 0 8.3-4.59 3.614-4.59 3.614-10.644zM510.1 110h-25.49v-2.295h7.667V73.38h-6.494v-2.296h6.3q1.903 0 4.735-.195 2.88-.245 6.055-.685l.05 37.5h7.177zm-19.19-58.887q0-2.392 1.61-4.052 1.662-1.66 4.103-1.66 2.393 0 4.053 1.66 1.71 1.66 1.71 4.053t-1.71 4.053q-1.66 1.61-4.053 1.61-2.44 0-4.102-1.61-1.61-1.66-1.61-4.053zM546.797 97.5h2.44q-1.757 6.836-6.298 10.4-4.493 3.516-11.524 3.516-8.154 0-13.525-5.664-5.37-5.713-5.37-14.16 0-9.18 5.86-15.283 5.858-6.105 14.843-6.105 6.59 0 10.547 2.88 3.955 2.882 3.955 7.716 0 2.393-1.416 3.858-1.417 1.465-3.81 1.465-2.49 0-4.004-1.416-1.465-1.465-1.465-3.81 0-2.147 1.27-3.807 1.32-1.66 1.32-1.807 0-1.318-1.612-2.05-1.563-.733-4.395-.733-4.98 0-7.226 3.076-2.246 3.028-2.246 9.815v14.6q0 4.444 2.296 6.74 2.294 2.293 6.787 2.293 4.59 0 8.447-3.27 3.857-3.32 5.127-8.253zM569.97 88.32l15.282-14.94h-8.3v-2.296h21.19v2.295h-9.08l-10.207 9.91 18.8 24.415h3.417V110h-21.63v-2.295h5.42zM558.737 45.4h-7.666v-2.295h7.47q1.905 0 4.786-.244 2.88-.243 6.055-.633v65.478h6.885V110h-25.196v-2.295h7.666zM220.14 220.78l-6.445-.585h-.244q-3.466-.195-7.616-.195-.488 0-1.514.05-1.025.048-1.61.048v-2.393h6.786V155.4h-6.787v-2.295h6.395q1.905 0 4.737-.244 2.88-.243 6.054-.633v33.984h1.417q2.54-3.222 5.175-4.59 2.686-1.415 6.25-1.415 7.96 0 13.33 5.86t5.37 14.745q0 8.74-5.272 14.698-5.273 5.908-12.842 5.908-3.71 0-6.592-1.465-2.88-1.513-5.224-4.54h-1.367zm0-15.087q0 5.713 3.712 9.57 3.71 3.858 8.79 3.858 3.465 0 5.223-2.44 1.758-2.49 1.758-7.47v-14.894q0-6.933-1.758-9.472-1.758-2.54-5.957-2.54-4.345 0-8.056 4.005-3.71 3.954-3.71 8.788zM255.715 220v-2.295h6.787V183.38h-6.787v-2.296h6.396q1.857 0 4.69-.195 2.88-.245 6.054-.685l.048 9.717h.782q2.49-4.883 5.86-7.276 3.368-2.44 7.665-2.44 3.32 0 5.272 1.757 2.002 1.71 2.002 4.64 0 2.49-1.416 4.002-1.367 1.514-3.662 1.514-2.783 0-4.2-1.173-1.415-1.172-1.415-3.467v-.878q0-1.026-.243-1.514-.244-.488-.733-.488-3.466 0-6.59 4.54-3.126 4.493-3.126 9.864v18.7h8.79V220zM309.648 194.61v12.304q0 6.543 2.05 9.326 2.052 2.783 6.74 2.783 4.687 0 6.738-2.783 2.05-2.783 2.05-9.326V194.61q0-6.592-2.05-9.327-2.05-2.783-6.738-2.783-4.688 0-6.74 2.783-2.05 2.735-2.05 9.326zm-11.816 6.2q0-8.154 6.152-14.355 6.202-6.25 14.453-6.25 8.252 0 14.405 6.25 6.2 6.2 6.2 14.356 0 8.155-6.2 14.405-6.153 6.2-14.405 6.2-8.25 0-14.453-6.2-6.152-6.25-6.152-14.404zM362.752 221.416h-3.32l-13.38-38.037h-5.322v-2.296h22.608v2.295h-6.592l8.008 22.9h.683l9.815-25.196h3.174l9.717 25.195h.683l8.3-22.9h-7.372v-2.296h15.77v2.295h-5.467l-13.526 38.036h-3.173l-10.205-25.195h-.732zM429.283 220h-23.73v-2.295h6.787V183.38h-6.787v-2.296h6.396q1.904 0 4.736-.195 2.832-.245 6.054-.685v8.984h.928q2.832-4.64 6.25-6.788 3.418-2.197 7.86-2.197 6.105 0 9.18 2.93 3.126 2.88 3.126 8.642v25.928h6.2V220h-22.9v-2.295h5.958v-27.783q0-3.613-1.074-4.834-1.026-1.27-3.71-1.27-4.347 0-7.96 4.688-3.614 4.64-3.614 10.498v18.7h6.3zM506.145 220h-26.807v-2.295h7.86V183.38h-7.86v-2.296h7.86v-4.297q0-12.988 4.347-18.8 4.346-5.81 13.867-5.81 4.54 0 7.276 2.003 2.734 2.002 2.734 5.224 0 2.49-1.318 3.955-1.32 1.464-3.565 1.464-2.394 0-3.663-1.123-1.27-1.17-1.27-3.32 0-1.562 1.32-2.782 1.317-1.22 1.317-1.905 0-.683-.683-1.123-.683-.488-1.757-.488-3.516 0-5.762 3.955-2.196 3.906-2.196 10.45v12.597h9.472v2.295h-9.472v34.325h8.3zM524.14 194.61v12.304q0 6.543 2.05 9.326 2.052 2.783 6.74 2.783 4.687 0 6.738-2.783 2.05-2.783 2.05-9.326V194.61q0-6.592-2.05-9.327-2.05-2.783-6.738-2.783-4.688 0-6.74 2.783-2.05 2.735-2.05 9.326zm-11.816 6.2q0-8.154 6.153-14.355 6.2-6.25 14.453-6.25 8.252 0 14.404 6.25 6.2 6.2 6.2 14.356 0 8.155-6.2 14.405-6.152 6.2-14.404 6.2-8.252 0-14.453-6.2-6.153-6.25-6.153-14.404zM571.092 220H554.98v-2.295h6.297l11.914-14.893-14.208-19.433h-4.1v-2.296h21.776v2.295h-5.47l8.302 11.132h.684l8.984-11.133h-6.787v-2.296h16.31v2.295h-6.3l-10.888 13.915 14.99 20.41h3.907V220h-22.023v-2.295h5.713l-8.984-12.5h-.733l-9.668 12.5h6.397zM191.563 293.38h-7.57v-2.296h7.472q1.904 0 4.736-.195 2.882-.245 6.056-.685v38.086q0 11.915-4.297 18.507-4.25 6.592-11.77 6.592-4.247 0-6.932-2.052-2.686-2.002-2.686-5.127 0-2.538 1.32-4.003 1.317-1.416 3.563-1.416 2.393 0 3.662 1.124 1.27 1.172 1.27 3.272 0 1.22-.635 2.587-.586 1.368-.586 1.612 0 .635.635 1.123.636.488 1.466.488 2.295 0 3.27-2.392 1.027-2.393 1.027-8.204zm-1.27-22.267q0-2.392 1.61-4.052 1.66-1.66 4.054-1.66 2.44 0 4.053 1.66 1.66 1.66 1.66 4.053t-1.66 4.053q-1.612 1.61-4.053 1.61-2.393 0-4.053-1.61-1.61-1.66-1.61-4.053zM243.982 293.38h-6.298v-2.296h6.2q1.954 0 4.786-.195 2.88-.245 6.103-.685v37.402h6.592V330h-6.396q-2.49 0-5.177.195-2.686.196-5.615.586v-8.885h-.88q-2.83 4.638-6.25 6.835-3.417 2.15-7.86 2.15-6.153 0-9.18-2.833-3.028-2.88-3.028-8.643v-.293q-.097-.83-.097-1.512v-24.22h-6.397v-2.294h6.3q1.855 0 4.687-.195 2.88-.245 6.103-.685v28.71q0 4.737.977 6.593 1.025 1.806 3.515 1.806 4.688 0 8.3-4.59 3.614-4.59 3.614-10.644zM286.05 327.705V330h-22.704v-2.295h6.69V293.38h-6.69v-2.296h6.396q1.904 0 4.737-.195 2.83-.245 6.053-.685v8.984h.928q2.638-4.395 6.104-6.69 3.516-2.295 7.47-2.295 4.054 0 6.984 2.49 2.93 2.442 3.662 6.494h.88q2.635-4.395 6.102-6.69 3.516-2.295 7.47-2.295 5.616 0 8.155 3.174 2.588 3.124 2.588 10.106v24.22h5.47V330h-21.388v-2.295h5.322v-26.61q0-3.712-.928-5.128-.928-1.465-3.077-1.465-4.1 0-7.373 4.64-3.222 4.637-3.222 10.545v18.018h5.566V330H289.86v-2.295h5.273v-26.61q0-3.86-.977-5.226-.927-1.368-3.32-1.368-3.857 0-7.08 4.687-3.223 4.638-3.223 10.498v18.017zM337.885 353.39v-2.296h6.69V293.38h-6.69v-2.296h6.592q1.904 0 4.736-.195 2.88-.245 6.055-.685l.048 6.006h1.27q2.295-3.026 5.225-4.49 2.98-1.515 6.69-1.515 7.568 0 12.842 5.908 5.273 5.908 5.273 14.698 0 8.887-5.37 14.747-5.372 5.86-13.33 5.86-3.565 0-6.25-1.417-2.638-1.416-5.177-4.59h-1.172v25.684h6.69v2.295zm17.43-47.51v10.643q0 4.834 3.664 8.838 3.66 3.956 8.006 3.956 4.2 0 5.957-2.54 1.758-2.538 1.758-9.276V303.29q0-5.76-1.66-8.25-1.61-2.54-5.224-2.54-5.078 0-8.79 3.857-3.71 3.81-3.71 9.522zM393.87 330.488h-.88v-14.404h2.783q.928 5.908 4.15 9.375 3.223 3.417 7.667 3.417 4.297 0 6.836-1.953 2.54-2.002 2.54-5.322 0-2.686-1.857-4.004-1.856-1.368-6.446-2.002-8.545-1.123-11.865-4.053-3.32-2.98-3.32-8.74 0-5.713 3.416-9.13 3.467-3.468 9.278-3.468 2.49 0 4.687.78 2.247.783 4.69 2.492l1.805-2.198h1.32v10.937h-2.296q-.782-4.492-3.566-7.08-2.734-2.637-6.543-2.637-4.002 0-6.15 1.758-2.15 1.758-2.15 5.03 0 3.66 6.934 4.687 3.076.44 4.883.83 6.006 1.172 8.74 4.443 2.735 3.223 2.735 9.13 0 6.104-3.614 9.57-3.613 3.468-9.96 3.468-2.88 0-5.225-.88-2.344-.878-4.59-2.733zM461.94 304.61v12.304q0 6.543 2.052 9.326 2.05 2.783 6.738 2.783 4.688 0 6.74-2.783 2.05-2.783 2.05-9.326V304.61q0-6.592-2.05-9.327-2.052-2.783-6.74-2.783-4.687 0-6.738 2.783-2.05 2.735-2.05 9.326zm-11.815 6.2q0-8.154 6.152-14.355 6.202-6.25 14.453-6.25 8.252 0 14.405 6.25 6.2 6.2 6.2 14.356 0 8.155-6.2 14.405-6.153 6.2-14.405 6.2-8.25 0-14.453-6.2-6.152-6.25-6.152-14.404zM519.146 331.416h-2.832l-16.162-38.037h-5.322v-2.296h22.705v2.295h-6.494l10.4 24.12h.685l9.912-24.12h-7.08v-2.296h15.088v2.295h-5.127zM577.523 317.5h2.393q-1.855 6.885-6.445 10.4-4.59 3.516-11.718 3.516-8.203 0-13.72-5.664-5.47-5.713-5.47-13.965 0-8.838 5.616-15.185 5.615-6.397 13.574-6.397 7.812 0 12.988 4.834 5.176 4.833 5.176 12.157v.88H554.33v11.913q0 4.102 2.393 6.592 2.392 2.44 6.396 2.44 5.028 0 8.935-3.124 3.906-3.125 5.468-8.398zm-8.79-12.207v-5.37q0-3.76-1.756-5.52-1.758-1.805-5.42-1.805-3.614 0-5.42 1.855-1.807 1.807-1.807 5.47v5.37zM583.703 330v-2.295h6.787V293.38h-6.787v-2.296h6.397q1.855 0 4.687-.195 2.88-.245 6.055-.685l.05 9.717h.78q2.49-4.883 5.86-7.276 3.368-2.44 7.665-2.44 3.32 0 5.274 1.757 2.003 1.71 2.003 4.64 0 2.49-1.416 4.002-1.368 1.514-3.662 1.514-2.784 0-4.2-1.173-1.416-1.172-1.416-3.467v-.878q0-1.026-.245-1.514-.244-.488-.732-.488-3.467 0-6.592 4.54-3.124 4.493-3.124 9.864v18.7h8.79V330zM162.63 403.38h-6.495v-2.296h6.787V390.39h3.516q1.17 0 2.734-.244 1.61-.292 3.662-.83v11.768h9.52v2.295h-9.52v28.71q0 2.783 1.025 3.955 1.025 1.172 3.37 1.172 1.756 0 3.27-1.32 1.514-1.366 2.344-3.71l1.904.733q-.83 3.857-4.248 6.2-3.418 2.296-8.252 2.296-5.225 0-7.422-1.904-2.197-1.953-2.197-6.69zM186.143 440v-2.295h6.787V375.4h-6.787v-2.295h6.396q1.903 0 4.735-.244 2.88-.243 6.055-.633v36.865h.635q5.03-5.713 7.86-7.276 2.882-1.61 6.642-1.61 6.054 0 9.13 2.93 3.077 2.88 3.077 8.64v25.93h6.2V440h-22.9v-2.295h5.958v-29.297q0-2.197-1.27-3.418-1.22-1.27-3.418-1.27-4.346 0-8.008 4.688-3.662 4.688-3.662 10.596v18.7h6.3V440zM274.11 427.5h2.392q-1.856 6.885-6.445 10.4-4.59 3.516-11.72 3.516-8.202 0-13.72-5.664-5.47-5.713-5.47-13.965 0-8.838 5.617-15.185 5.615-6.397 13.574-6.397 7.812 0 12.988 4.834 5.176 4.833 5.176 12.157v.88h-25.586v11.913q0 4.102 2.393 6.592 2.39 2.44 6.395 2.44 5.03 0 8.936-3.124 3.907-3.125 5.47-8.398zm-8.79-12.207v-5.37q0-3.76-1.757-5.52-1.758-1.805-5.42-1.805-3.614 0-5.42 1.855-1.807 1.807-1.807 5.47v5.37zM308.93 375.4h-7.666v-2.295h7.47q1.905 0 4.786-.244 2.88-.243 6.054-.633v65.478h7.178V440h-25.488v-2.295h7.666zM353.244 419.883q-7.275.098-10.84 2.392-3.515 2.295-3.515 6.934 0 3.368 1.756 5.224 1.807 1.855 5.03 1.855 3.32 0 5.47-2.59 2.147-2.587 2.147-6.493zm.342 15.04h-.537q-2.736 3.27-6.154 4.882-3.417 1.61-7.617 1.61-5.176 0-7.862-2.636-2.637-2.637-2.637-7.667 0-5.76 5.812-9.52 5.81-3.81 14.697-3.81h4.003v-6.103q0-5.86-1.367-7.422-1.32-1.563-4.834-1.563-3.272 0-5.47.88-2.147.83-2.147 1.904 0 .145.83 1.61.88 1.465.88 3.027 0 1.953-1.32 3.174-1.27 1.222-3.37 1.222-2.294 0-3.515-1.22-1.22-1.222-1.22-3.468 0-4.053 4.443-6.836 4.443-2.783 11.28-2.783 4.247 0 7.714.78 3.516.734 5.37 2.003 1.662 1.123 2.247 2.735.635 1.562.635 6.396v22.46q0 .83.83 1.514.878.683 1.904.683.634 0 1.464-.586.83-.585 1.612-1.61l1.22 1.318q-1.416 2.588-4.003 4.053-2.54 1.466-5.616 1.466-2.88 0-4.686-1.562-1.758-1.612-2.588-4.932zM409.717 440h-35.205v-2.88l23.193-33.74h-4.59q-6.69 0-9.277 2.44-2.588 2.442-4.59 10.4h-2.44v-15.136h32.91v2.832l-23.097 33.79h8.107q5.42 0 8.398-3.468 2.98-3.467 4.297-11.328h2.295zM436.063 440l-17.676-36.62h-5.127v-2.296h22.803v2.295h-6.69l11.084 22.9h.83l8.79-22.9h-6.934v-2.296h15.527v2.295h-5.42l-16.7 43.407q-4.1 10.645-6.835 13.623-2.735 2.98-6.64 2.98-2.198 0-3.565-1.37-1.367-1.366-1.367-3.612t1.27-3.613q1.27-1.318 3.466-1.318 2.147 0 3.66 1.464 1.515 1.466 2.003 1.466.78 0 1.61-1.367.88-1.32 2.003-4.347zM526.742 437.705h6.397V440h-6.398q-1.855 0-4.687.244-2.832.244-6.006.635v-5.47h-1.417q-2.295 3.027-5.225 4.54-2.93 1.466-6.64 1.466-7.57 0-12.793-5.908-5.225-5.908-5.225-14.697 0-8.886 5.322-14.746 5.323-5.86 13.282-5.86 3.564 0 6.25 1.417 2.734 1.417 5.224 4.59h1.22V375.4h-6.396v-2.295h6.3q1.903 0 4.736-.244 2.88-.243 6.054-.633zm-10.79-12.012v-10.595q0-4.834-3.663-8.79-3.663-4.003-8.058-4.003-4.2 0-5.957 2.54-1.71 2.538-1.71 9.47v13.966q0 5.714 1.662 8.302 1.66 2.54 5.322 2.54 5.077 0 8.74-3.76 3.66-3.81 3.66-9.473zM548.84 414.61v12.304q0 6.543 2.05 9.326 2.05 2.783 6.74 2.783 4.686 0 6.737-2.783 2.05-2.783 2.05-9.326V414.61q0-6.592-2.05-9.327-2.05-2.783-6.738-2.783-4.69 0-6.74 2.783-2.05 2.735-2.05 9.326zm-11.817 6.2q0-8.154 6.153-14.355 6.2-6.25 14.453-6.25 8.25 0 14.403 6.25 6.2 6.2 6.2 14.356 0 8.155-6.2 14.405-6.152 6.2-14.404 6.2-8.253 0-14.454-6.2-6.153-6.25-6.153-14.404zM591.934 444.2q-1.075 1.366-1.66 3.368-.538 2.002-.538 4.444 0 4.297 3.174 6.738 3.174 2.44 8.74 2.44 6.787 0 11.573-3.807 4.834-3.76 4.834-9.18 0-2.44-1.563-3.613-1.562-1.172-4.736-1.172h-1.123l-10.303.586q-.293 0-3.076.05-2.783.096-5.322.145zm2.978-35.4v9.716q0 3.71 1.172 5.127 1.172 1.367 4.346 1.367 3.174 0 4.394-1.416 1.22-1.416 1.22-5.078V408.8q0-3.663-1.22-5.08-1.22-1.415-4.394-1.415-3.174 0-4.346 1.416-1.172 1.368-1.172 5.08zm-5.47 35.4v-.977q-2.928-.928-4.54-3.174-1.562-2.198-1.562-5.372 0-4.053 2.002-6.446 2.002-2.392 6.396-3.418v-1.025q-3.174-2.052-4.638-4.59-1.465-2.54-1.465-5.91 0-5.37 4.248-9.228 4.297-3.857 10.45-3.857 3.417 0 6.2 1.123 2.783 1.123 5.225 3.467 1.855-2.49 3.564-3.516 1.71-1.075 3.71-1.075 2.198 0 3.37 1.025 1.22.977 1.22 2.784 0 1.806-.83 2.685-.83.878-2.44.878-1.758 0-2.93-1.465-1.123-1.513-1.367-1.513-.733 0-1.563.537t-1.367 1.367q1.367 2.05 1.904 3.76.585 1.71.585 3.955 0 5.907-4.345 9.423-4.297 3.466-11.72 3.466-.732 0-2.343-.05-1.562-.048-2.393-.048-3.906 0-6.054 1.172-2.15 1.123-2.15 3.222 0 1.66 1.124 2.393 1.172.682 3.907.682h3.077q1.025-.048 1.953-.097l8.447-.39q1.27-.05 2.344-.05 1.124-.048 2.052-.048 6.884 0 9.57 2.54 2.734 2.49 2.734 8.64 0 8.302-6.005 13.38-6.005 5.127-15.77 5.127-7.325 0-12.11-3.174-4.785-3.125-4.785-7.715 0-2.783 1.367-4.736 1.416-1.905 4.93-3.76zM640.057 434.824q0 2.686-1.953 4.64-1.954 1.952-4.64 1.952-2.782 0-4.687-1.904-1.904-1.953-1.904-4.688 0-2.783 1.904-4.687 1.905-1.953 4.688-1.953 2.734 0 4.64 1.953 1.952 1.953 1.952 4.687z"/></g></svg>