<svg xmlns="http://www.w3.org/2000/svg" viewBox="0 0 1600 1000" height="1000" width="1600"><path fill="#fff" d="M0 0h1600v1000H0z"/><g font-weight="400" font-size="200" font-family="Bodoni" letter-spacing="-.03em" text-anchor="middle" fill="#222"><path d="M522.313 86.797l1.757 42.383h-5.957q-3.906-21.875-11.328-29.98-7.422-8.204-22.85-8.204-2.638 0-4.005.098-1.27 0-2.344.097l-.098 123.83h21.582V220h-68.945v-4.98h21.387V91.19h-6.25q-15.82 0-22.95 7.912-7.128 7.812-11.23 30.078h-5.957l1.758-42.383zM529.887 220v-4.59h13.574V90.8h-13.573v-4.59h12.793q3.808 0 9.472-.487 5.762-.49 12.11-1.27v73.73h1.27q10.058-11.425 15.722-14.55 5.762-3.223 13.28-3.223 12.11 0 18.263 5.86 6.152 5.76 6.152 17.285v51.855h12.402V220h-45.8v-4.59h11.913v-58.594q0-4.394-2.54-6.836-2.44-2.54-6.835-2.54-8.692 0-16.016 9.376-7.324 9.375-7.324 21.192v37.402h12.598V220zM705.82 195h4.785q-3.71 13.77-12.89 20.8-9.18 7.032-23.438 7.032-16.406 0-27.44-11.328-10.94-11.426-10.94-27.93 0-17.676 11.232-30.37 11.23-12.794 27.147-12.794 15.625 0 25.977 9.668 10.35 9.668 10.35 24.317v1.757h-51.17v23.828q0 8.204 4.785 13.184 4.784 4.883 12.792 4.883 10.058 0 17.87-6.25 7.813-6.25 10.938-16.797zm-17.578-24.414v-10.742q0-7.52-3.515-11.035-3.516-3.615-10.84-3.615-7.227 0-10.84 3.71-3.613 3.615-3.613 10.94v10.74zM862.668 266.777h-48.34v-4.59h13.574V210.82h-2.44q-4.982 6.348-10.45 9.18-5.37 2.832-12.5 2.832-15.918 0-26.563-11.72-10.645-11.717-10.645-29.49 0-17.58 10.45-29.395 10.448-11.817 25.585-11.817 7.422 0 13.28 3.028 5.86 2.93 10.45 8.984h2.832V140.41q6.446.88 12.012 1.367 5.664.39 9.375.39h14.062v4.59h-14.258v115.43h13.574zm-34.766-95.02q0-11.425-7.422-19.042Q813.06 145 802.902 145q-7.324 0-10.644 5.078-3.32 5.078-3.32 16.504v28.027q0 13.867 3.417 18.945 3.516 5.078 11.915 5.078 8.79 0 16.21-7.91 7.422-8.008 7.422-17.676zM932.254 146.758h-12.598v-4.59h12.403q3.905 0 9.57-.39 5.76-.49 12.206-1.368v74.805h13.184V220h-12.793q-4.98 0-10.352.39-5.37.39-11.23 1.173V203.79h-1.758q-5.664 9.276-12.5 13.67-6.836 4.298-15.723 4.298-12.305 0-18.36-5.664-6.054-5.762-6.054-17.285v-.587q-.195-1.66-.195-3.028v-48.437h-12.793v-4.59h12.597q3.71 0 9.374-.39 5.762-.49 12.207-1.368v57.422q0 9.473 1.955 13.184 2.05 3.613 7.03 3.613 9.376 0 16.602-9.18 7.227-9.18 7.227-21.29zM1020.2 220h-50.977v-4.59h15.332v-68.652h-12.99v-4.59h12.6q3.808 0 9.472-.39 5.76-.49 12.11-1.368l.097 75h14.356zm-38.38-117.773q0-4.786 3.223-8.106 3.32-3.32 8.203-3.32 4.785 0 8.106 3.32 3.417 3.32 3.417 8.107 0 4.785-3.418 8.105-3.32 3.223-8.106 3.223-4.883 0-8.203-3.223-3.223-3.32-3.223-8.105zM1093.594 195h4.883q-3.516 13.672-12.598 20.8-8.985 7.032-23.048 7.032-16.31 0-27.05-11.328-10.743-11.426-10.743-28.32 0-18.36 11.718-30.567 11.72-12.207 29.687-12.207 13.184 0 21.094 5.762 7.91 5.762 7.91 15.43 0 4.785-2.833 7.714-2.832 2.93-7.617 2.93-4.98 0-8.008-2.832-2.93-2.93-2.93-7.617 0-4.297 2.54-7.617 2.636-3.32 2.636-3.614 0-2.636-3.222-4.1-3.125-1.466-8.79-1.466-9.96 0-14.453 6.152-4.492 6.055-4.492 19.63v29.198q0 8.887 4.59 13.477t13.575 4.59q9.18 0 16.895-6.543 7.715-6.64 10.254-16.504zM1139.938 176.64l30.566-29.882h-16.602v-4.59h42.383v4.59h-18.164l-20.41 19.824 37.6 48.828h6.835V220h-43.262v-4.59h10.84zm-22.46-85.84h-15.334v-4.59h14.942q3.808 0 9.57-.487 5.762-.49 12.11-1.27V215.41h13.77V220h-50.392v-4.59h15.333zM440.28 441.563l-12.89-1.172h-.488q-6.933-.39-15.234-.39-.977 0-3.027.098-2.05.097-3.222.097v-4.785h13.574V310.8h-13.574v-4.59h12.793q3.81 0 9.474-.487 5.76-.49 12.11-1.27v67.97h2.83q5.08-6.446 10.353-9.18 5.37-2.833 12.5-2.833 15.918 0 26.66 11.72 10.742 11.718 10.742 29.49 0 17.482-10.548 29.396-10.547 11.816-25.684 11.816-7.42 0-13.183-2.93-5.762-3.027-10.45-9.082h-2.734zm0-30.176q0 11.426 7.423 19.14 7.422 7.715 17.578 7.715 6.935 0 10.45-4.883 3.516-4.98 3.516-14.942v-29.785q0-13.867-3.516-18.945-3.515-5.08-11.914-5.08-8.69 0-16.113 8.01-7.422 7.91-7.422 17.577zM511.43 440v-4.59h13.574v-68.652H511.43v-4.59h12.793q3.71 0 9.375-.39 5.76-.49 12.11-1.368l.097 19.434h1.562q4.98-9.766 11.72-14.55 6.737-4.884 15.33-4.884 6.642 0 10.548 3.516 4.004 3.418 4.004 9.277 0 4.98-2.833 8.008-2.735 3.028-7.324 3.028-5.567 0-8.4-2.343-2.83-2.344-2.83-6.934v-1.757q0-2.05-.49-3.027-.487-.977-1.464-.977-6.935 0-13.185 9.08-6.25 8.986-6.25 19.728v37.402h17.578V440zM619.297 389.22v24.608q0 13.086 4.1 18.652 4.103 5.567 13.478 5.567t13.477-5.567q4.1-5.566 4.1-18.652v-24.61q0-13.183-4.1-18.652Q646.25 365 636.875 365t-13.477 5.566q-4.1 5.47-4.1 18.653zm-23.633 12.4q0-16.308 12.305-28.71 12.4-12.5 28.905-12.5 16.504 0 28.81 12.5 12.4 12.402 12.4 28.71 0 16.31-12.4 28.81-12.306 12.402-28.81 12.402-16.504 0-28.906-12.402-12.306-12.5-12.306-28.81zM725.504 442.832h-6.64l-26.76-76.074h-10.643v-4.59h45.216v4.59h-13.184l16.016 45.8h1.367l19.63-50.39h6.347l19.433 50.39h1.367l16.602-45.8h-14.746v-4.59h31.543v4.59h-10.937l-27.05 76.074h-6.348l-20.41-50.39h-1.465zM858.566 440h-47.46v-4.59h13.574v-68.652h-13.575v-4.59h12.793q3.81 0 9.473-.39 5.665-.49 12.11-1.368v17.97h1.856q5.664-9.278 12.5-13.575 6.836-4.395 15.723-4.395 12.206 0 18.358 5.86 6.25 5.76 6.25 17.285v51.855h12.402V440h-45.8v-4.59h11.914v-55.566q0-7.227-2.15-9.668-2.05-2.54-7.42-2.54-8.692 0-15.92 9.376-7.225 9.277-7.225 20.996v37.402h12.596zM1012.29 440h-53.614v-4.59h15.722v-68.652h-15.722v-4.59h15.722v-8.594q0-25.976 8.692-37.597 8.69-11.622 27.734-11.622 9.082 0 14.55 4.004 5.47 4.003 5.47 10.45 0 4.98-2.637 7.91-2.637 2.928-7.13 2.928-4.784 0-7.323-2.246-2.54-2.343-2.54-6.64 0-3.125 2.638-5.567 2.636-2.44 2.636-3.808 0-1.367-1.367-2.246-1.366-.976-3.514-.976-7.032 0-11.524 7.91-4.394 7.813-4.394 20.9v25.194h18.945v4.59h-18.945v68.652h16.6zM1048.28 389.22v24.608q0 13.086 4.103 18.652 4.1 5.567 13.476 5.567 9.374 0 13.476-5.567 4.102-5.566 4.102-18.652v-24.61q0-13.183-4.102-18.652-4.102-5.566-13.477-5.566-9.376 0-13.477 5.566-4.102 5.47-4.102 18.653zm-23.632 12.4q0-16.308 12.305-28.71 12.402-12.5 28.906-12.5 16.503 0 28.808 12.5 12.402 12.402 12.402 28.71 0 16.31-12.402 28.81-12.305 12.402-28.81 12.402-16.502 0-28.905-12.402-12.305-12.5-12.305-28.81zM1142.184 440h-32.227v-4.59h12.598l23.828-29.785-28.418-38.867h-8.203v-4.59h43.554v4.59h-10.937l16.6 22.265h1.368l17.968-22.265h-13.574v-4.59h32.617v4.59h-12.598l-21.778 27.832 29.98 40.82h7.813V440h-44.043v-4.59h11.426l-17.97-25h-1.463l-19.336 25h12.794zM383.125 586.758h-15.137v-4.59h14.942q3.808 0 9.472-.39 5.762-.49 12.11-1.368v76.172q0 23.828-8.594 37.012-8.496 13.183-23.535 13.183-8.496 0-13.867-4.1-5.37-4.005-5.37-10.255 0-5.078 2.635-8.008 2.638-2.832 7.13-2.832 4.785 0 7.324 2.246 2.54 2.344 2.54 6.543 0 2.442-1.27 5.177-1.172 2.734-1.172 3.223 0 1.27 1.27 2.246t2.93.976q4.59 0 6.542-4.785 2.05-4.785 2.05-16.406zm-2.54-44.53q0-4.787 3.224-8.107 3.32-3.32 8.104-3.32 4.883 0 8.106 3.32 3.32 3.32 3.32 8.107 0 4.785-3.32 8.105-3.223 3.223-8.106 3.223-4.785 0-8.105-3.223-3.224-3.32-3.224-8.105zM487.965 586.758h-12.598v-4.59h12.403q3.906 0 9.57-.39 5.762-.49 12.207-1.368v74.805h13.183V660h-12.793q-4.98 0-10.35.39-5.372.39-11.232 1.173V643.79h-1.757q-5.664 9.276-12.5 13.67-6.836 4.298-15.723 4.298-12.305 0-18.36-5.664-6.054-5.762-6.054-17.285v-.587q-.194-1.66-.194-3.028v-48.437h-12.793v-4.59h12.597q3.71 0 9.375-.39 5.762-.49 12.207-1.368v57.422q0 9.473 1.953 13.184 2.05 3.613 7.032 3.613 9.375 0 16.6-9.18 7.228-9.18 7.228-21.29zM572.102 655.41V660h-45.41v-4.59h13.378v-68.652h-13.38v-4.59h12.794q3.81 0 9.473-.39 5.664-.49 12.11-1.368v17.97h1.855q5.273-8.79 12.207-13.38 7.03-4.59 14.94-4.59 8.106 0 13.965 4.98 5.86 4.883 7.324 12.99h1.757q5.274-8.79 12.207-13.38 7.03-4.59 14.942-4.59 11.23 0 16.308 6.348 5.176 6.25 5.176 20.215v48.437h10.938V660h-42.774v-4.59h10.645v-53.222q0-7.422-1.857-10.254-1.855-2.93-6.152-2.93-8.202 0-14.745 9.277-6.446 9.28-6.446 21.095v36.035h11.132V660H579.72v-4.59h10.546v-53.222q0-7.715-1.953-10.45-1.856-2.734-6.64-2.734-7.716 0-14.16 9.375-6.447 9.276-6.447 20.995v36.035zM675.77 706.777v-4.59h13.378v-115.43H675.77v-4.59h13.183q3.81 0 9.473-.39 5.76-.488 12.11-1.367l.097 12.012h2.54q4.59-6.055 10.448-8.985 5.958-3.027 13.38-3.027 15.137 0 25.684 11.817 10.546 11.816 10.546 29.394 0 17.775-10.742 29.493-10.742 11.72-26.66 11.72-7.13 0-12.5-2.833-5.273-2.832-10.35-9.18h-2.345v51.368h13.38v4.59zm34.863-95.02v21.29q0 9.668 7.324 17.676 7.324 7.91 16.016 7.91 8.398 0 11.914-5.078 3.515-5.078 3.515-18.555v-28.418q0-11.523-3.32-16.504Q742.86 585 735.632 585q-10.155 0-17.577 7.715-7.422 7.617-7.422 19.043zM787.738 660.977h-1.758v-28.81h5.567q1.855 11.817 8.3 18.75 6.446 6.837 15.333 6.837 8.593 0 13.672-3.906 5.078-4.004 5.078-10.645 0-5.37-3.71-8.008-3.712-2.734-12.892-4.004-17.09-2.245-23.73-8.104-6.64-5.957-6.64-17.48 0-11.426 6.835-18.262 6.934-6.934 18.555-6.934 4.98 0 9.375 1.563 4.492 1.562 9.375 4.98l3.613-4.394h2.638v21.874h-4.59q-1.563-8.985-7.13-14.16Q820.16 585 812.544 585q-8.008 0-12.305 3.516-4.297 3.515-4.297 10.058 0 7.324 13.87 9.375 6.15.878 9.764 1.66 12.012 2.343 17.48 8.886 5.47 6.445 5.47 18.262 0 12.207-7.227 19.14-7.227 6.934-19.922 6.934-5.762 0-10.45-1.758-4.687-1.758-9.18-5.47zM923.883 609.22v24.608q0 13.086 4.1 18.652 4.103 5.567 13.478 5.567 9.376 0 13.477-5.567 4.102-5.566 4.102-18.652v-24.61q0-13.183-4.103-18.652-4.1-5.566-13.476-5.566-9.374 0-13.476 5.566-4.1 5.47-4.1 18.653zm-23.633 12.4q0-16.308 12.305-28.71 12.402-12.5 28.906-12.5 16.505 0 28.81 12.5 12.402 12.403 12.402 28.71 0 16.31-12.402 28.81-12.305 12.402-28.81 12.402-16.503 0-28.905-12.402-12.305-12.5-12.305-28.81zM1038.293 662.832h-5.664l-32.325-76.074H989.66v-4.59h45.41v4.59h-12.988l20.8 48.242h1.368l19.824-48.242h-14.16v-4.59h30.176v4.59h-10.254zM1155.047 635h4.785q-3.71 13.77-12.89 20.8-9.18 7.032-23.438 7.032-16.406 0-27.44-11.328-10.94-11.426-10.94-27.93 0-17.676 11.232-30.37 11.23-12.794 27.148-12.794 15.625 0 25.977 9.668t10.352 24.317v1.757h-51.172v23.828q0 8.204 4.785 13.184 4.786 4.883 12.793 4.883 10.06 0 17.87-6.25 7.814-6.25 10.94-16.797zm-17.578-24.414v-10.742q0-7.52-3.517-11.035-3.515-3.615-10.84-3.615-7.226 0-10.84 3.71-3.613 3.615-3.613 10.94v10.74zM1167.406 660v-4.59h13.575v-68.652h-13.574v-4.59h12.793q3.71 0 9.374-.39 5.762-.49 12.11-1.368l.098 19.434h1.562q4.98-9.766 11.72-14.55 6.737-4.884 15.33-4.884 6.642 0 10.548 3.516 4.004 3.418 4.004 9.277 0 4.98-2.832 8.008-2.735 3.028-7.325 3.028-5.567 0-8.4-2.343-2.83-2.344-2.83-6.934v-1.757q0-2.05-.49-3.027-.488-.977-1.464-.977-6.934 0-13.184 9.08-6.25 8.986-6.25 19.728v37.402h17.578V660zM325.258 806.758H312.27v-4.59h13.574V780.78h7.03q2.345 0 5.47-.487 3.222-.586 7.324-1.66v23.535h19.043v4.59H345.67v57.422q0 5.566 2.05 7.91 2.052 2.344 6.74 2.344 3.515 0 6.542-2.637 3.027-2.735 4.688-7.422l3.808 1.465q-1.66 7.715-8.496 12.402-6.836 4.59-16.504 4.59-10.45 0-14.844-3.81-4.394-3.905-4.394-13.377zM372.285 880v-4.59h13.574V750.8h-13.575v-4.59h12.793q3.81 0 9.473-.487 5.763-.49 12.11-1.27v73.73h1.27q10.058-11.425 15.722-14.55 5.762-3.223 13.282-3.223 12.11 0 18.26 5.86 6.154 5.76 6.154 17.285v51.855h12.402V880h-45.8v-4.59h11.913v-58.594q0-4.394-2.54-6.836-2.44-2.54-6.835-2.54-8.69 0-16.015 9.376-7.325 9.375-7.325 21.192v37.402h12.598V880zM548.22 855h4.784q-3.71 13.77-12.89 20.8-9.18 7.032-23.438 7.032-16.406 0-27.442-11.328-10.937-11.426-10.937-27.93 0-17.676 11.23-30.37 11.23-12.794 27.15-12.794 15.624 0 25.975 9.668 10.352 9.668 10.352 24.317v1.757h-51.172v23.828q0 8.204 4.785 13.184 4.785 4.883 12.793 4.883 10.06 0 17.87-6.25 7.814-6.25 10.94-16.797zm-17.58-24.414v-10.742q0-7.52-3.515-11.035-3.516-3.615-10.84-3.615-7.226 0-10.84 3.71-3.613 3.615-3.613 10.94v10.74zM617.86 750.8h-15.333v-4.59h14.942q3.807 0 9.57-.487 5.76-.49 12.108-1.27V875.41h14.356V880h-50.977v-4.59h15.332zM706.488 839.766q-14.55.195-21.68 4.785-7.03 4.59-7.03 13.868 0 6.738 3.515 10.45 3.613 3.71 10.06 3.71 6.64 0 10.936-5.176 4.296-5.175 4.296-12.988zm.684 30.078h-1.074q-5.47 6.543-12.305 9.765-6.836 3.222-15.234 3.222-10.353 0-15.724-5.273-5.274-5.275-5.274-15.333 0-11.524 11.622-19.043 11.62-7.618 29.394-7.618h8.008V823.36q0-11.72-2.734-14.844-2.637-3.125-9.668-3.125-6.543 0-10.938 1.758-4.297 1.66-4.297 3.81 0 .292 1.66 3.222 1.757 2.93 1.757 6.054 0 3.907-2.637 6.348-2.54 2.44-6.738 2.44-4.59 0-7.03-2.44-2.442-2.44-2.442-6.934 0-8.105 8.886-13.67 8.887-5.568 22.56-5.568 8.495 0 15.43 1.563 7.03 1.465 10.74 4.004 3.32 2.246 4.493 5.468 1.268 3.125 1.268 12.793v44.922q0 1.66 1.66 3.028 1.758 1.367 3.81 1.367 1.27 0 2.93-1.172 1.66-1.172 3.222-3.223l2.44 2.637q-2.83 5.176-8.007 8.105-5.078 2.93-11.23 2.93-5.762 0-9.375-3.125-3.516-3.223-5.176-9.863zM819.434 880h-70.41v-5.762l46.386-67.48h-9.18q-13.378 0-18.554 4.883-5.176 4.883-9.18 20.8h-4.883V802.17h65.82v5.664l-46.19 67.578h16.21q10.84 0 16.797-6.933 5.957-6.934 8.594-22.657h4.59zM872.125 880l-35.352-73.242H826.52v-4.59h45.605v4.59h-13.38l22.17 45.8h1.66l17.577-45.8h-13.867v-4.59h31.055v4.59H906.5l-33.398 86.816q-8.204 21.29-13.672 27.246-5.47 5.957-13.282 5.957-4.394 0-7.128-2.734-2.735-2.734-2.735-7.227 0-4.492 2.54-7.226 2.538-2.637 6.933-2.637 4.297 0 7.324 2.93t4.004 2.93q1.562 0 3.223-2.735 1.756-2.637 4.002-8.69zM1053.484 875.41h12.793V880h-12.793q-3.71 0-9.375.488-5.665.49-12.012 1.27V870.82h-2.832q-4.59 6.055-10.45 9.082-5.86 2.93-13.28 2.93-15.138 0-25.587-11.816Q969.5 859.2 969.5 841.62q0-17.772 10.645-29.49 10.644-11.72 26.562-11.72 7.13 0 12.5 2.832 5.47 2.832 10.45 9.18h2.44v-61.62h-12.792v-4.59h12.597q3.81 0 9.473-.49 5.762-.488 12.11-1.27zm-21.582-24.023v-21.192q0-9.668-7.324-17.578-7.324-8.008-16.113-8.008-8.4 0-11.914 5.077-3.417 5.08-3.417 18.946v27.93q0 11.425 3.32 16.6 3.32 5.08 10.645 5.08 10.156 0 17.48-7.52 7.324-7.618 7.324-18.946zM1097.68 829.22v24.608q0 13.086 4.1 18.652 4.103 5.567 13.478 5.567t13.476-5.567q4.102-5.566 4.102-18.652v-24.61q0-13.183-4.102-18.652-4.1-5.566-13.476-5.566-9.375 0-13.477 5.566-4.1 5.47-4.1 18.653zm-23.633 12.4q0-16.308 12.305-28.71 12.402-12.5 28.906-12.5 16.504 0 28.808 12.5 12.403 12.403 12.403 28.71 0 16.31-12.404 28.81-12.304 12.402-28.808 12.402-16.504 0-28.906-12.402-12.305-12.5-12.305-28.81zM1183.867 888.398q-2.148 2.735-3.32 6.74-1.074 4.003-1.074 8.885 0 8.594 6.347 13.477 6.348 4.883 17.48 4.883 13.575 0 23.145-7.617 9.668-7.52 9.668-18.36 0-4.883-3.125-7.226-3.125-2.344-9.472-2.344h-2.247l-20.606 1.172q-.586 0-6.152.098-5.567.195-10.645.292zm5.957-70.8v19.433q0 7.423 2.344 10.255 2.344 2.735 8.69 2.735 6.35 0 8.79-2.832 2.442-2.833 2.442-10.157V817.6q0-7.325-2.442-10.157-2.44-2.83-8.79-2.83-6.346 0-8.69 2.83-2.344 2.736-2.344 10.158zm-10.937 70.8v-1.953q-5.86-1.855-9.082-6.347-3.125-4.395-3.125-10.743 0-8.105 4.004-12.89 4.003-4.785 12.793-6.836v-2.052q-6.348-4.1-9.278-9.18-2.93-5.078-2.93-11.816 0-10.742 8.496-18.457 8.593-7.715 20.898-7.715 6.836 0 12.402 2.246 5.567 2.246 10.45 6.934 3.71-4.98 7.128-7.03 3.418-2.15 7.422-2.15 4.395 0 6.74 2.05 2.44 1.954 2.44 5.567 0 3.614-1.66 5.37-1.66 1.76-4.883 1.76-3.516 0-5.86-2.93-2.245-3.028-2.734-3.028-1.466 0-3.126 1.073-1.66 1.075-2.734 2.735 2.734 4.1 3.81 7.52 1.17 3.417 1.17 7.91 0 11.816-8.69 18.847-8.595 6.934-23.438 6.934-1.465 0-4.688-.1-3.125-.097-4.785-.097-7.814 0-12.11 2.344-4.297 2.246-4.297 6.446 0 3.32 2.246 4.785 2.342 1.367 7.81 1.367h6.154q2.05-.098 3.906-.195l16.894-.782q2.54-.097 4.688-.097 2.246-.097 4.1-.097 13.77 0 19.142 5.078 5.47 4.98 5.47 17.286 0 16.602-12.013 26.758-12.01 10.254-31.542 10.254-14.648 0-24.22-6.348-9.57-6.25-9.57-15.43 0-5.566 2.735-9.472 2.832-3.81 9.864-7.52zM1280.113 869.648q0 5.372-3.906 9.278-3.906 3.906-9.277 3.906-5.567 0-9.375-3.81-3.81-3.905-3.81-9.374 0-5.566 3.81-9.375 3.808-3.906 9.375-3.906 5.468 0 9.277 3.906 3.906 3.907 3.906 9.375z"/></g></svg>