<svg xmlns="http://www.w3.org/2000/svg" viewBox="0 0 800 500"><path fill="#fff" d="M0 0h800v500H0z"/><g font-weight="400" font-size="100" font-family="Century Gothic" text-anchor="middle" fill="#111"><path d="M171.533 45.156v-6.982h39.405v6.982h-16.016V110h-7.324V45.156zM220.117 36.367h6.836v30.03q4.15-5.47 9.13-8.155 4.98-2.734 10.792-2.734 5.957 0 10.547 3.027 4.64 3.028 6.836 8.154 2.197 5.078 2.197 15.966V110h-6.836V84.658q0-9.18-.733-12.256-1.27-5.273-4.64-7.91-3.32-2.685-8.74-2.685-6.2 0-11.132 4.1-4.883 4.103-6.445 10.157-.977 3.907-.977 14.454V110h-6.836zM325.78 92.373l5.763 3.027q-2.832 5.567-6.543 8.985-3.71 3.418-8.35 5.224-4.638 1.757-10.498 1.757-12.988 0-20.312-8.496-7.324-8.544-7.324-19.286 0-10.107 6.2-18.018 7.862-10.058 21.046-10.058 13.574 0 21.68 10.303 5.76 7.276 5.86 18.165h-47.755q.195 9.277 5.908 15.234 5.713 5.907 14.11 5.907 4.054 0 7.863-1.416 3.857-1.415 6.543-3.76 2.686-2.342 5.81-7.567zm0-14.307q-1.366-5.468-4.003-8.74-2.588-3.27-6.884-5.273-4.297-2.002-9.034-2.002-7.813 0-13.428 5.03-4.102 3.662-6.202 10.986zM426.71 56.875v72.56h-6.74v-28.566q-4.296 5.224-9.667 7.86-5.323 2.637-11.67 2.637-11.28 0-19.287-8.154-7.96-8.203-7.96-19.922 0-11.474 8.057-19.628t19.385-8.154q6.543 0 11.817 2.783 5.322 2.784 9.326 8.35v-9.765zM399.364 62.1q-5.713 0-10.547 2.832-4.834 2.783-7.714 7.86-2.833 5.08-2.833 10.743 0 5.615 2.882 10.742 2.88 5.127 7.715 8.008 4.883 2.832 10.45 2.832 5.615 0 10.644-2.832 5.03-2.832 7.716-7.666 2.734-4.835 2.734-10.89 0-9.228-6.103-15.43-6.055-6.2-14.942-6.2zM441.113 56.875h6.885V81.68q0 9.082.977 12.5 1.464 4.882 5.566 7.715 4.15 2.832 9.864 2.832 5.713 0 9.668-2.735 4.004-2.783 5.518-7.275 1.025-3.076 1.025-13.037V56.875h6.983V82.95q0 10.986-2.588 16.552-2.54 5.566-7.715 8.74-5.127 3.125-12.89 3.125-7.764 0-12.99-3.125-5.175-3.174-7.763-8.79-2.54-5.663-2.54-16.99zM505.127 35q2.344 0 4.004 1.66 1.66 1.66 1.66 4.004 0 2.295-1.66 3.955-1.66 1.66-4.003 1.66-2.295 0-3.955-1.66-1.66-1.66-1.66-3.956 0-2.344 1.66-4.004 1.66-1.66 3.955-1.66zm-3.418 21.875h6.884V110h-6.885zM574.414 67.91l-5.42 3.37q-7.03-9.327-19.19-9.327-9.716 0-16.16 6.25-6.398 6.25-6.398 15.186 0 5.81 2.93 10.936 2.978 5.127 8.105 7.96 5.177 2.83 11.574 2.83 11.718 0 19.14-9.325l5.42 3.565q-3.81 5.713-10.254 8.887-6.396 3.125-14.6 3.125-12.597 0-20.898-8.008-8.3-8.008-8.3-19.483 0-7.715 3.857-14.307 3.905-6.64 10.692-10.35 6.787-3.712 15.186-3.712 5.273 0 10.156 1.61 4.932 1.612 8.35 4.2 3.417 2.588 5.81 6.592zM587.45 36.367h6.886v41.895l24.56-21.387h10.06l-29.15 25.342L630.663 110h-9.668l-26.66-23.877V110h-6.885zM167.822 220v-73.633h6.787v29.64q4.296-5.275 9.62-7.862 5.32-2.637 11.668-2.637 11.28 0 19.24 8.203 8.007 8.155 8.007 19.825 0 11.524-8.057 19.678-8.057 8.154-19.385 8.154-6.494 0-11.767-2.783-5.274-2.783-9.327-8.35V220zm27.344-5.225q5.713 0 10.547-2.783 4.834-2.832 7.666-7.91 2.88-5.078 2.88-10.742 0-5.664-2.88-10.79-2.882-5.128-7.765-7.96-4.834-2.88-10.35-2.88-5.617 0-10.695 2.88-5.03 2.832-7.763 7.666-2.686 4.834-2.686 10.89 0 9.227 6.056 15.428 6.103 6.2 14.99 6.2zM232.96 166.875h6.98v7.764q3.126-4.59 6.593-6.837 3.467-2.295 7.227-2.295 2.832 0 6.054 1.806l-3.564 5.762q-2.148-.928-3.613-.928-3.418 0-6.592 2.832-3.174 2.784-4.834 8.692-1.27 4.54-1.27 18.36V220h-6.98zM290.77 165.508q12.257 0 20.314 8.887 7.324 8.105 7.324 19.19 0 11.132-7.763 19.48-7.715 8.302-19.874 8.302-12.206 0-19.97-8.3-7.714-8.35-7.714-19.483 0-11.035 7.324-19.14 8.057-8.936 20.36-8.936zm0 6.69q-8.495 0-14.598 6.298-6.104 6.3-6.104 15.234 0 5.762 2.784 10.743 2.783 4.98 7.52 7.714 4.735 2.686 10.4 2.686 5.664 0 10.4-2.685 4.736-2.735 7.52-7.715 2.783-4.98 2.783-10.743 0-8.935-6.153-15.234-6.103-6.3-14.55-6.3zM323.877 166.875h7.03l16.26 38.574 17.042-38.575h1.22l16.992 38.574 16.553-38.575h7.13L383.056 220h-1.32l-16.893-38.037L347.804 220h-1.27zM414.258 166.875h6.836v9.52q4.1-5.467 9.082-8.153 4.98-2.734 10.84-2.734 5.957 0 10.546 3.027 4.64 3.028 6.836 8.154 2.198 5.126 2.198 15.966V220h-6.787v-25.342q0-9.18-.783-12.256-1.22-5.273-4.59-7.91-3.37-2.685-8.79-2.685-6.2 0-11.13 4.1-4.884 4.103-6.447 10.157-.976 3.956-.976 14.454V220h-6.836zM524.805 146.367v6.69q-3.76-1.612-6.446-1.612-2.003 0-3.32.83-1.32.782-1.66 1.856-.343 1.026-.343 5.567v7.178h11.084v5.86H512.99V220h-6.836v-47.266h-6.982v-5.86h6.982v-8.3q0-5.713 1.026-8.154 1.074-2.44 3.564-3.906 2.54-1.514 6.104-1.514 3.32 0 7.96 1.367zM559.52 165.508q12.257 0 20.314 8.887 7.324 8.105 7.324 19.19 0 11.132-7.763 19.48-7.715 8.302-19.874 8.302-12.206 0-19.97-8.3-7.714-8.35-7.714-19.483 0-11.035 7.324-19.14 8.057-8.936 20.36-8.936zm0 6.69q-8.495 0-14.598 6.298-6.104 6.3-6.104 15.234 0 5.762 2.784 10.743 2.783 4.98 7.52 7.714 4.735 2.686 10.4 2.686 5.664 0 10.4-2.685 4.736-2.735 7.52-7.715 2.783-4.98 2.783-10.743 0-8.935-6.153-15.234-6.103-6.3-14.55-6.3zM593.75 166.875h8.203l14.063 19.678 14.062-19.678h8.203l-18.163 25.244 20.46 27.88h-8.302l-16.26-22.314L600 220h-8.154l20.117-27.88zM147.363 255q2.344 0 3.955 1.66 1.66 1.66 1.66 4.004 0 2.295-1.66 3.955-1.61 1.66-3.955 1.66-2.343 0-4.004-1.66-1.612-1.66-1.612-3.956 0-2.344 1.61-4.004 1.662-1.66 4.005-1.66zm-3.37 21.875h6.935v61.133q0 6.69-2.442 9.717-2.392 3.076-6.59 3.076-3.468 0-7.814-1.66v-6.152q2.734 1.416 4.932 1.416 2.783 0 4.15-2.295.83-1.465.83-6.104zM164.258 276.875h6.885v24.805q0 9.082.976 12.5 1.464 4.882 5.566 7.715 4.15 2.832 9.863 2.832 5.712 0 9.667-2.735 4.004-2.783 5.517-7.275 1.026-3.076 1.026-13.037v-24.805h6.982v26.074q0 10.986-2.588 16.552-2.54 5.566-7.715 8.74-5.128 3.125-12.89 3.125-7.765 0-12.99-3.125-5.175-3.174-7.763-8.79-2.54-5.663-2.54-16.99zM225.83 276.875h6.787v9.18q3.565-5.078 7.324-7.422 5.177-3.125 10.89-3.125 3.857 0 7.324 1.513 3.467 1.515 5.664 4.054 2.198 2.49 3.81 7.178 3.417-6.25 8.544-9.473 5.127-3.272 11.035-3.272 5.518 0 9.717 2.783 4.248 2.784 6.3 7.765 2.05 4.98 2.05 14.94V330h-6.983v-29.004q0-8.545-1.22-11.72-1.22-3.22-4.2-5.174-2.93-1.954-7.03-1.954-4.98 0-9.13 2.93-4.103 2.93-6.007 7.813-1.904 4.883-1.904 16.31V330h-6.788v-27.197q0-9.62-1.22-13.037-1.173-3.467-4.15-5.518-2.98-2.1-7.08-2.1-4.738 0-8.888 2.88-4.102 2.833-6.104 7.667-1.953 4.834-1.953 14.795V330h-6.787zM319.727 276.875h6.787v9.766q4.052-5.566 9.326-8.35 5.273-2.782 11.767-2.782 11.33 0 19.385 8.154 8.057 8.154 8.057 19.63 0 11.718-8.01 19.92-7.958 8.155-19.237 8.155-6.348 0-11.67-2.637-5.322-2.636-9.62-7.86v28.564h-6.786zm27.343 5.225q-8.886 0-14.99 6.2-6.055 6.202-6.055 15.43 0 6.055 2.686 10.89 2.735 4.833 7.765 7.665 5.078 2.832 10.693 2.832 5.518 0 10.352-2.832 4.882-2.88 7.763-8.008 2.88-5.127 2.88-10.742 0-5.664-2.88-10.742-2.832-5.078-7.666-7.86-4.834-2.833-10.547-2.833zM414.502 282.686l-4.395 4.54q-5.468-5.322-10.693-5.322-3.32 0-5.713 2.198-2.343 2.197-2.343 5.127 0 2.586 1.954 4.93 1.954 2.393 8.204 5.615 7.617 3.955 10.35 7.618 2.687 3.71 2.687 8.35 0 6.542-4.59 11.083-4.59 4.54-11.474 4.54-4.59 0-8.79-2-4.15-2.003-6.883-5.518l4.296-4.883q5.224 5.908 11.083 5.908 4.102 0 6.983-2.637 2.88-2.636 2.88-6.2 0-2.93-1.904-5.225-1.904-2.246-8.593-5.664-7.18-3.71-9.767-7.324-2.588-3.613-2.588-8.252 0-6.054 4.102-10.058 4.15-4.004 10.45-4.004 7.323 0 14.745 7.178zM479.54 275.508q12.257 0 20.314 8.887 7.324 8.105 7.324 19.19 0 11.132-7.764 19.48-7.715 8.302-19.873 8.302-12.206 0-19.97-8.3-7.715-8.35-7.715-19.483 0-11.035 7.325-19.14 8.056-8.936 20.36-8.936zm0 6.69q-8.495 0-14.6 6.298-6.102 6.3-6.102 15.234 0 5.762 2.783 10.743 2.784 4.98 7.52 7.714 4.737 2.686 10.4 2.686 5.665 0 10.4-2.686 4.738-2.734 7.52-7.714 2.784-4.98 2.784-10.743 0-8.935-6.152-15.234-6.104-6.3-14.55-6.3zM514.795 276.875h7.275l17.774 38.672 17.627-38.672h7.325L540.48 330h-1.222zM620.02 312.373l5.76 3.027q-2.83 5.567-6.542 8.985-3.71 3.418-8.35 5.224-4.638 1.757-10.497 1.757-12.988 0-20.312-8.496-7.324-8.544-7.324-19.286 0-10.107 6.2-18.018 7.862-10.058 21.046-10.058 13.574 0 21.68 10.303 5.76 7.276 5.86 18.165h-47.755q.195 9.277 5.908 15.234 5.713 5.907 14.112 5.907 4.052 0 7.86-1.416 3.858-1.415 6.544-3.76 2.685-2.342 5.81-7.567zm0-14.307q-1.368-5.468-4.004-8.74-2.588-3.27-6.885-5.273-4.296-2.002-9.032-2.002-7.813 0-13.428 5.03-4.102 3.662-6.2 10.986zM637.744 276.875h6.983v7.764q3.125-4.59 6.59-6.837 3.468-2.295 7.228-2.295 2.832 0 6.055 1.806l-3.565 5.762q-2.148-.928-3.613-.928-3.418 0-6.592 2.832-3.174 2.784-4.834 8.692-1.27 4.54-1.27 18.36V330h-6.982zM98.926 367.148h6.885v19.727h10.84v5.86h-10.84V440h-6.884v-47.266H89.6v-5.86h9.326zM126.953 366.367h6.836v30.03q4.15-5.47 9.13-8.155 4.98-2.734 10.79-2.734 5.958 0 10.548 3.027 4.638 3.027 6.836 8.154 2.197 5.078 2.197 15.966V440h-6.835v-25.342q0-9.18-.732-12.256-1.27-5.273-4.64-7.91-3.32-2.685-8.74-2.685-6.2 0-11.132 4.1-4.882 4.103-6.444 10.157-.977 3.907-.977 14.454V440h-6.837zM232.617 422.373l5.762 3.027q-2.833 5.567-6.544 8.985-3.71 3.418-8.35 5.224-4.638 1.757-10.498 1.757-12.988 0-20.312-8.496-7.324-8.544-7.324-19.286 0-10.107 6.2-18.018 7.862-10.058 21.046-10.058 13.574 0 21.68 10.303 5.76 7.276 5.86 18.165h-47.755q.195 9.277 5.908 15.234 5.714 5.907 14.112 5.907 4.053 0 7.862-1.416 3.857-1.415 6.543-3.76 2.685-2.342 5.81-7.567zm0-14.307q-1.367-5.468-4.004-8.74-2.588-3.27-6.884-5.273-4.298-2.002-9.035-2.002-7.812 0-13.427 5.03-4.102 3.662-6.202 10.986zM279.64 366.367h6.835V440h-6.836zM353.71 386.875V440h-6.737v-9.13q-4.297 5.224-9.668 7.86-5.323 2.637-11.67 2.637-11.28 0-19.287-8.154-7.96-8.203-7.96-19.922 0-11.474 8.057-19.628t19.385-8.154q6.543 0 11.816 2.783 5.323 2.784 9.327 8.35v-9.765zm-27.343 5.225q-5.713 0-10.547 2.832-4.834 2.783-7.715 7.86-2.832 5.08-2.832 10.743 0 5.615 2.88 10.742 2.882 5.127 7.716 8.008 4.882 2.832 10.448 2.832 5.616 0 10.645-2.832 5.03-2.832 7.715-7.666 2.734-4.835 2.734-10.89 0-9.228-6.103-15.43-6.056-6.2-14.943-6.2zM364.795 386.875h39.014l-30.08 47.07h29.102V440h-40.87l30.08-47.12h-27.247zM406.006 386.875h7.226l18.262 40.918 17.725-40.918h7.274l-31.69 72.56h-7.226l10.254-23.44zM546.19 366.367V440h-6.737v-9.13q-4.297 5.224-9.668 7.86-5.322 2.637-11.67 2.637-11.28 0-19.287-8.154-7.96-8.203-7.96-19.922 0-11.474 8.058-19.628 8.056-8.154 19.385-8.154 6.544 0 11.817 2.783 5.322 2.784 9.326 8.35v-30.273zM518.85 392.1q-5.713 0-10.547 2.832-4.833 2.783-7.714 7.86-2.832 5.08-2.832 10.743 0 5.615 2.88 10.742 2.882 5.127 7.716 8.008 4.882 2.832 10.45 2.832 5.614 0 10.643-2.832 5.03-2.832 7.715-7.666 2.735-4.835 2.735-10.89 0-9.228-6.104-15.43-6.056-6.2-14.942-6.2zM586.865 385.508q12.256 0 20.313 8.887 7.324 8.105 7.324 19.19 0 11.132-7.764 19.48-7.715 8.302-19.873 8.302-12.207 0-19.97-8.3-7.715-8.35-7.715-19.483 0-11.035 7.324-19.14 8.057-8.936 20.36-8.936zm0 6.69q-8.496 0-14.6 6.298-6.103 6.3-6.103 15.234 0 5.762 2.783 10.743 2.784 4.98 7.52 7.714 4.736 2.686 10.4 2.686 5.664 0 10.4-2.686 4.737-2.734 7.52-7.714 2.783-4.98 2.783-10.743 0-8.935-6.152-15.234-6.104-6.3-14.55-6.3zM672.9 386.875h6.885v42.334q0 11.18-1.953 16.356-2.686 7.325-9.326 11.28-6.64 3.955-15.967 3.955-6.837 0-12.306-1.952-5.42-1.905-8.838-5.176-3.417-3.223-6.298-9.473h7.422q3.027 5.273 7.812 7.812 4.785 2.54 11.865 2.54 6.983 0 11.768-2.638 4.834-2.588 6.885-6.543 2.05-3.954 2.05-12.743v-2.734q-3.857 4.882-9.423 7.52Q657.91 440 651.66 440q-7.324 0-13.77-3.613-6.445-3.662-9.96-9.815-3.516-6.152-3.516-13.525t3.662-13.72q3.662-6.397 10.108-10.108 6.494-3.712 13.67-3.712 5.96 0 11.085 2.49 5.175 2.44 9.96 8.106zm-20.166 5.225q-5.81 0-10.79 2.832-4.98 2.783-7.813 7.763-2.83 4.932-2.83 10.694 0 8.74 5.858 14.452 5.86 5.713 15.186 5.713 9.424 0 15.136-5.664 5.762-5.663 5.762-14.892 0-6.006-2.637-10.693-2.636-4.737-7.47-7.47-4.834-2.735-10.4-2.735zM702.05 429.258q2.49 0 4.25 1.758 1.757 1.757 1.757 4.296 0 2.49-1.758 4.297-1.76 1.757-4.25 1.757t-4.247-1.758q-1.758-1.807-1.758-4.298 0-2.54 1.758-4.296 1.758-1.758 4.248-1.758z"/></g></svg>