<svg xmlns="http://www.w3.org/2000/svg" viewBox="0 0 1600 1000" height="1000" width="1600"><path fill="#fff" d="M0 0h1600v1000H0z"/><g font-weight="400" font-size="200" font-family="Clarendon" letter-spacing="-.03em" text-anchor="middle" fill="#222"><path d="M408.284 103.8v90.4q0 5.2 2.4 7.4 2.4 2 8.4 2l12.8-.2V220h-80.6v-16.6h13.2q6 .2 8.4-1.8 2.4-2.2 2.4-7.2v-90.6q-19.4.2-24 8.6-4.6 8.2-5.6 26.8l-18.2-.2V86.6h128.2V139h-18.4q.2-1.4.2-2.4v-1.4q0-15.6-6-23.4-5.8-8-17.6-8H411.284q-.8.2-1.6.2h-1.4zM505.012 86.6v50.2q6.8-8 14.2-11.4 7.4-3.6 17.4-3.6 17.6 0 24.6 8.4 7.2 8.2 7.2 24.8v39.8q0 5.2 1.6 7.2t5.8 2l8.2-.2V220h-58.4v-16.2h6q4 .2 5.6-1.8 1.6-2 1.6-7v-35.6q0-9.8-3.6-14.2-3.4-4.6-11.6-4.6-9.8 0-14.2 6-4.4 6-4.4 19.4v28.8q0 5.2 1.6 7.2t5.8 2l5.2-.2V220h-57.8v-16.2h8.4q4 .2 5.6-1.8 1.6-2 1.6-7v-83.2q0-4.8-1.6-6.6-1.6-2-5.6-2l-8.4-.2V86.6h45.2zM683.105 176h-68.8q1.2 15.4 7.2 23 6 7.4 17.2 7.4 9 0 15-4.8 6.2-5 9-14.4l19.2-.2q-2 16.6-14.2 26.6-12.2 9.8-30.6 9.8-25.8 0-39.6-13.4-13.6-13.4-13.6-38.6 0-22.2 13.6-35.8 13.8-13.6 36.2-13.6 23.4 0 36.4 13.4 13.2 13.4 13.2 37.4v1.2q-.2.4-.2 1v1.2zm-30.4-15.2q0-8.6-4.8-15.6-4.6-7.2-14.4-7.2-8.6 0-13.6 6-4.8 5.8-5.4 17l38.2-.2zM809.47 124.6h44.6v16.2h-8q-4 .2-5.6 2.2-1.4 1.8-1.4 7v85q0 5.2 1.4 7 1.6 2 5.6 2h8v16.2h-61.4V244h9.6q4 0 5.6-2 1.6-2 1.6-7v-23.4q-5 6.2-11.6 8.8-6.4 2.8-15.6 2.8-20 0-31.2-13-11-13-11-36.8 0-23.2 11.4-37.4 11.6-14.2 30.6-14.2 9 0 15.8 3.6 7 3.4 12.2 10.6l-.6-11.4zm-37.8 48.6q0 16.6 5 24.6t15 8q8.8 0 13.6-8.8 4.8-8.8 4.8-24.4 0-14-5-22.6-5-8.6-13.2-8.6-9.8 0-15 8.4-5.2 8.2-5.2 23.6zM966.24 124.6v70.2q0 5.2 1.6 7.2t5.6 2l8.8-.2V220h-45.6v-13.2q-2.2 2.8-4.2 5-2 2-4 3.8-5 4.2-10.4 6-5.4 1.8-12.4 1.8-15.2 0-23.2-7.4-7.8-7.4-7.8-21.8V150q0-5-1.6-6.8-1.6-2-5.6-2l-7.8-.2v-16.4h44.6v59q0 12 3.2 16.4 3.2 4.4 11.8 4.4 8.8 0 13-6 4.4-6 4.4-18V150q0-5-1.6-6.8-1.6-2-5.6-2l-8.4-.2v-16.4h45.2zM1033.025 124.6v70.2q0 5.2 1.6 7.2t5.6 2l8.4-.2V220h-61v-16.2h8.6q4 .2 5.6-1.8 1.6-2 1.6-7v-45.2q0-4.8-1.6-6.6-1.6-2-5.6-2l-8.6-.2v-16.4h45.4zm-16-42.6q7 .2 11.8 5 5 4.8 5 11.8 0 7-5 12-4.8 4.8-11.8 4.8-6.8 0-11.8-5-5-5-5-11.8 0-7 5-11.8 5-4.8 11.8-4.8zM1129.91 182.8h19.6q-1.4 18.4-14 29.6-12.6 11-31.6 11-23.8 0-37-13.4-13.2-13.6-13.2-37.8 0-23 14.2-36.6 14.2-13.6 38.2-13.6 17.8 0 28.8 8.4 11.2 8.4 11.2 21.8 0 7.4-4.4 12-4.4 4.4-11.6 4.4-6.8 0-11.2-4-4.2-4-4.2-10.2 0-1.8.2-3.2.4-1.6 1-2.8.8-1.6 2.2-3.2 1.4-1.6 3.6-3.6-2.6-1.4-4.6-2.2-1.8-.8-3.6-1.2h-1.6q-.8-.2-1.8-.2-11.4 0-18.2 9.4-6.6 9.2-6.6 25.2t6 25q6.2 9 16.8 9 8.8 0 14.8-6.6 6.2-6.6 7-17zM1201.494 86.6v80l26.6-19.6q.6-.4 1-.8l1-1 .4-.8q.2-.6.2-1.2 0-1.4-1-1.6-.8-.4-3.8-.4l-9.2-.2v-16.4h61.4V141q-9.4.2-14.8 1.6-5.2 1.2-9.6 4-3.4 2-7.2 5.2-3.6 3-9 7l26.2 36.6q.2.4.2.6l.4.4q.4.4.6.8.4.4.6.8 1.6 2.4 3.6 4.4 2 1.8 5 1.8l4-.2v16h-57.6v-16.2h5q2.8.2 4-.4 1.2-.6 1.2-2 0-.6-.2-1-.2-.6-.6-1-.2-.4-.4-.6 0-.4-.2-.6l-15.6-22.2-12.2 9.2v9.6q0 7 2.6 8.2 2.8 1 8 1v16h-56v-16.2h8.4q4.2.2 5.8-1.8 1.6-2 1.6-7v-83.2q0-4.8-1.6-6.6-1.6-2-5.8-2l-8.4-.2V86.6h45.4zM366.267 306.8v49l3.8-3.8q2-1.8 3.8-3.2 4.8-3.8 10-5.2 5.4-1.6 12.6-1.6 21.2 0 30 15.2 9 15 9.6 33.2v3.2q0 23-11.8 36.4-11.6 13.4-31.6 13.4-11 0-18.8-4.2-7.8-4.2-12.4-12.8l-5.2 13.6h-19.6V332q0-5-1.6-6.8-1.6-2-5.6-2l-8.2-.2v-16.2h45zm-.4 86.8q0 15.6 5 23.8 5 8.2 14.2 8.2 9.4 0 14.4-8.6t5-24.4q0-14.6-4.8-23-4.8-8.6-13-8.6-10 0-15.4 8.6-5.4 8.4-5.4 24.2zM488.62 344.6l-1 14.2q3.6-4.4 6.4-7.4 2.8-3.2 5.6-5 3-2.2 6.2-3 3.2-.8 7.2-.8 9 0 14.4 6.2 5.4 6 5.4 16.2 0 7.8-4.6 12.6-4.4 4.8-11.8 4.8-6.2 0-10.2-4-4-4.2-4-10.2v-1.6q.2-1 .4-1.8.4-1.8 1.4-3.6 1.2-2 3.2-4.6-7.8 0-11.8 6.4-3.8 6.4-5.4 14-.8 3.8-1.2 7.6-.2 3.8-.2 6.6v23.6q0 5.2 1.6 7.2t5.6 2l11.4-.2V440h-64.4v-16.2h9q4 .2 5.6-1.8 1.6-2 1.6-7v-45.2q0-4.8-1.6-6.6-1.6-2-5.6-2l-9-.2v-16.4h45.8zM535.077 391.8q1-23.6 14.8-36.6 14-13.2 38.2-13.2 24.8 0 38.8 13.6 14 13.6 14 37.4 0 23-14.4 36.8-14.2 13.6-38.2 13.6-24.8 0-39-13-14.2-13.2-14.2-38.4zm31.6-.2q0 17.6 5.4 26.8t15.8 9.2q10.4 0 15.8-9.2 5.6-9.2 5.6-26.8 0-15.4-5.8-24.4-5.6-9.2-15.4-9.2-10 0-15.8 9-5.6 8.8-5.6 24.8zM725.892 386.2l-20 53.8h-24.8l-24.6-72.2q-.2-.2-.4-.6 0-.4-.2-.8-1.2-3.2-2.6-4.4-1.2-1.2-3.4-1.2l-8.6-.2v-16h56.6v16h-7.6q-2.6.2-3.6 1-.8.6-.8 2.2 0 .6.2 1.2l.4 1.2q0 .4.2 1 .2.4.2.8l13.4 41 14.8-41q.6-1.6.8-2.4.4-.8.4-1.4v-.4q0-1.6-1-2-1-.6-3.8-.6l-5.6-.2v-16.4h54.8V361h-6.8q-2.4.2-3.6 1-1.2.6-1.2 2.2v.2q0 .6.2 1.4l.8 2.4 13.4 40.8 14.4-41q.6-1.4.8-2 .2-.6.2-1v-.4q0-1.8-1.2-2.6t-4-.8l-5.4-.2v-16.4h41.6V361h-4.4q-4.8.2-7 3.6-2.2 3.2-3.8 7.2 0 .4-.2.8 0 .2-.2.4-.2.6-.6 1.4l-.4 1.2-23.8 64.4h-25.4l-18.2-53.8zM859.055 344.6l-.6 14.6q3.4-3.8 6.4-6.6 3.2-3 6.2-5 4.6-3 9.4-4.2 5-1.4 11.2-1.4 14.8 0 23.2 7.4 8.4 7.4 8.4 20.8v44.6q0 5.2 1.6 7.2t5.8 2l8.4-.2V440h-58v-16.2h5.4q4 .2 5.6-1.8 1.6-2 1.6-7v-35.2q0-10.2-3.4-14.6-3.2-4.4-11-4.4-9.8 0-14.4 5.8-4.4 5.8-4.4 18.2v30q0 5.2 1.6 7.2t5.6 2l5-.2V440h-57v-16.2h8q4 .2 5.6-1.8 1.6-2 1.6-7v-45.2q0-4.8-1.6-6.6-1.6-2-5.6-2l-8-.2v-16.4h43.4zM1037.49 344.6h23.2V361h-22.2v53.8q0 5.2 1.6 7.2t5.6 2l11.8-.2V440h-64.2v-16.2h8.4q4 .2 5.6-1.8 1.6-2 1.6-7v-54h-15.6v-16.4h15.6v-1.4q0-.8.2-1.2.2-11.4 1.2-16.4 1.2-5 4.4-8.8l.8-.8q.4-.6.8-1 4.6-5 10.8-7.4 6.4-2.6 13-3.2 1-.2 2-.2h2.2q11 0 17.4 5.4 6.6 5.4 6.6 14.4 0 5.8-3.6 9.6-3.4 3.6-9 3.6-4.2 0-7-3-2.8-3.2-2.8-8v-1.4q0-.6.2-1.2.2-1.2.6-2.4.6-1.4 1.6-3.4-.6-.6-1.2-.8l-.8-.4h-1q-4.2 0-6 4.2-1.8 4-1.8 13.4v10.4z"/><path d="M1062.303 391.8q1-23.6 14.8-36.6 14-13.2 38.2-13.2 24.8 0 38.8 13.6 14 13.6 14 37.4 0 23-14.4 36.8-14.2 13.6-38.2 13.6-24.8 0-39-13-14.2-13.2-14.2-38.4zm31.6-.2q0 17.6 5.4 26.8t15.8 9.2q10.4 0 15.8-9.2 5.6-9.2 5.6-26.8 0-15.4-5.8-24.4-5.6-9.2-15.4-9.2-10 0-15.8 9-5.6 8.8-5.6 24.8z"/><path d="M1211.128 394l-22.4-25.8q-1.8-2-3.2-3.2-1.4-1.4-2.6-2.2-1.6-1-3.4-1.2-1.8-.4-4.6-.4l-5.4-.2v-16.4h62.2V361h-6.8q-1.8.2-2.6.6-.8.4-.8 1.4 0 .8 1.6 3 1.8 2 3.8 4.2l.4.4.4.4q1.8 2 3.4 3.8 1.8 1.8 2.4 2.6l13-12q.8-.4 1-1 .4-.6.4-1.2 0-1-.8-1.4-.8-.6-3-.6l-4.4-.2v-16.4h47.6V361h-5.4q-2.6.2-4.4.4-1.6.2-2.6.6-1.2.6-3 2t-5.2 4.4l-22.6 20 26.2 30q2.4 3 5 4.4 2.8 1.2 6.6 1.2l5.4-.2V440h-62.4v-16.2h6.8q2.2.2 3-.2 1-.6 1-1.6 0-.4-2.2-3-2.2-2.8-4.8-5.8-.2-.2-.4-.2v-.4q-2.2-2.4-4-4.4-1.8-2.2-2.8-3.2-.6.6-3 2.8-2.4 2-5 4.6-.4.2-.8.6-.2.4-.4.6-2.8 2.6-5 5-2 2.4-2 3.4 0 .8 1 1.4 1.2.6 2.6.6l7-.2V440h-48v-16.2q4.4.2 7.4-.4 3-.6 5.6-2.2 1.8-.8 3.4-2.2 1.8-1.4 3.8-3.4l23-21.6zM320.314 564.6V667q0 16.8-9 26.4-9 9.6-25 9.6-12.8 0-20-6-7.2-6-7.2-16.6 0-6.2 4-10.4 3.8-4.2 9.4-4.2 5.2 0 8.6 3.4 3.4 3.6 3.4 9.2 0 3.2-1.8 5.6-1.6 2.6-4.4 3.8.2.2.2.4.2.2.2.4.8 1.2 1.6 1.6 1 .4 2.6.4 4.4 0 6-3.8 1.6-3.6 1.6-14.2v-82.8q0-5-1.6-6.8-1.6-2-5.6-2l-11.4-.2v-16.2h48.4zm-16.8-42.6q7 .2 11.8 5 5 4.8 5 11.8 0 6.8-5 11.8-4.8 4.8-11.8 4.8-6.8 0-11.8-4.8-4.8-5-4.8-11.8 0-7 4.8-11.8 5-4.8 11.8-4.8zM441.483 564.6v70.2q0 5.2 1.6 7.2t5.6 2l8.8-.2V660h-45.6v-13.2q-2.2 2.8-4.2 5-2 2-4 3.8-5 4.2-10.4 6-5.4 1.8-12.4 1.8-15.2 0-23.2-7.4-7.8-7.4-7.8-21.8V590q0-5-1.6-6.8-1.6-2-5.6-2l-7.8-.2v-16.4h44.6v59q0 12 3.2 16.4 3.2 4.4 11.8 4.4 8.8 0 13-6 4.4-6 4.4-18V590q0-5-1.6-6.8-1.6-2-5.6-2l-8.4-.2v-16.4h45.2zM506.267 564.6l-.6 11.8q4.4-3.8 8-6.6 3.8-2.8 7.4-4.4 3.8-1.8 7.8-2.6t9-.8q10.2 0 17.2 3.8 7 3.6 11.8 11.8 1-1.2 1.8-2.2 1-1 2-1.8 6.6-6.4 13.4-9 7-2.6 16.6-2.6 13.2 0 21.4 7.4 8.2 7.2 8.2 19v46.4q0 5.2 1.6 7.2t5.8 2l8.4-.2V660h-57v-16.2q6.2.2 8.8-1 2.8-1.4 2.8-7.8v-37.6q0-9.6-3.2-13.4-3-4-10.8-4-8.8 0-13.2 5.8-4.4 5.6-4.4 17v32q0 5.2 1.6 7.2t5.8 2l4.6-.2V660h-53.6v-16.2q6 .2 9-.8 3-1.2 3-8v-37.6q0-9.2-3.2-13.2-3.2-4.2-10.4-4.2-9 0-13.4 5.6t-4.4 17.2v32q0 5.2 1.6 7.2t5.6 2l4.8-.2V660h-57.2v-16.2h8.4q4 .2 5.6-1.8 1.6-2 1.6-7v-45.2q0-4.8-1.6-6.6-1.6-2-5.6-2l-8.4-.2v-16.4h43.4zM696.398 564.6l-.6 11.6q6.4-7.4 13.4-10.8 7.2-3.6 17-3.6 19 0 29.2 13 10.2 12.8 10.2 36.8 0 23.8-10.8 37.8-10.8 13.8-29.4 13.8-9.8 0-16.4-2.6-6.6-2.6-12.6-8.8V675q0 5 1.6 7t5.6 2h9.6v16.2h-61.8V684h8q4.2 0 5.8-2 1.6-1.8 1.6-7v-85.2q0-5-1.6-6.8-1.6-2-5.8-2l-8-.2v-16.2h45zm-.4 47v5.6q.2 2.8.6 5.8 1 8.2 4.8 15.2 4 7 13.6 7 9.4 0 14.2-8.6 4.8-8.6 4.8-25.2 0-14.6-4.6-22.6-4.6-8.2-13-8.2-9.8 0-15 8-5 7.8-5.4 23.2zM858.752 564.8v33.6h-16q-3.6-10-11-15.2-7.4-5.4-18-5.4-6.4 0-10.6 2.4-4 2.2-4 6 0 5.2 5.6 7.6 5.8 2.2 14 3.8 2.8.6 5.8 1.2 3.2.6 6.2 1.4 11.8 2.8 21.6 9.4 10 6.6 10 22.8 0 14.6-10.4 22.8-10.2 8.2-28.6 8.2-9.6 0-16.4-1.8-6.6-1.8-12.8-6.2-1-.8-2.2-1.6-1-.8-2-1.8l-1.8 8h-15.2v-36h15.2q4 12 11.4 17.8 7.6 5.8 20.4 5.8 7 0 11.2-2.4 4.2-2.6 4.2-6.8 0-5.4-6-7.8-6-2.6-14.4-4.4-2.6-.6-5.4-1.2-2.6-.6-5.4-1.2-11.6-2.8-21.4-9-9.8-6.2-9.8-21.2t10.2-23.2q10.2-8.4 28.6-8.4 9.8 0 17 2.4 7.4 2.4 14 7.8l1.8-7.4h14.2zM919.155 611.8q1-23.6 14.8-36.6 14-13.2 38.2-13.2 24.8 0 38.8 13.6 14 13.6 14 37.4 0 23-14.4 36.8-14.2 13.6-38.2 13.6-24.8 0-39-13-14.2-13.2-14.2-38.4zm31.6-.2q0 17.6 5.4 26.8t15.8 9.2q10.4 0 15.8-9.2 5.6-9.2 5.6-26.8 0-15.4-5.8-24.4-5.6-9.2-15.4-9.2-10 0-15.8 9-5.6 8.8-5.6 24.8zM1087.938 630.8l17.4-42.4q.2-.2.2-.4l.4-.8q.4-1 .6-1.8.4-1 .4-2 0-1.4-1-1.8-.8-.4-3.6-.4l-7.6-.2v-16.4h44.6V581h-4.4q-3.2.2-5.2 1-1.8.6-3.2 3.2-.6.8-1.2 2t-1.2 2.8l-29.4 70h-26.4l-28.4-71.6q-.6-1.2-1.2-2.2-.4-1.2-.8-2-1.2-1.8-2.4-2.4-1.2-.6-3-.6l-7.2-.2v-16.4h59.8V581h-7.6q-3.4.2-5 1-1.4.8-1.4 2.8 0 .8.2 2 .4 1.2 1.2 3.2l15.4 40.8zM1239.167 616h-68.8q1.2 15.4 7.2 23 6 7.4 17.2 7.4 9 0 15-4.8 6.2-5 9-14.4l19.2-.2q-2 16.6-14.2 26.6-12.2 9.8-30.6 9.8-25.8 0-39.6-13.4-13.6-13.4-13.6-38.6 0-22.2 13.6-35.8 13.8-13.6 36.2-13.6 23.4 0 36.4 13.4 13.2 13.4 13.2 37.4v1.2q-.2.4-.2 1v1.2zm-30.4-15.2q0-8.6-4.8-15.6-4.6-7.2-14.4-7.2-8.6 0-13.6 6-4.8 5.8-5.4 17l38.2-.2zM1291.667 564.6l-1 14.2q3.6-4.4 6.4-7.4 2.8-3.2 5.6-5 3-2.2 6.2-3 3.2-.8 7.2-.8 9 0 14.4 6.2 5.4 6 5.4 16.2 0 7.8-4.6 12.6-4.4 4.8-11.8 4.8-6.2 0-10.2-4-4-4.2-4-10.2v-1.6q.2-1 .4-1.8.4-1.8 1.4-3.6 1.2-2 3.2-4.6-7.8 0-11.8 6.4-3.8 6.4-5.4 14-.8 3.8-1.2 7.6-.2 3.8-.2 6.6v23.6q0 5.2 1.6 7.2t5.6 2l11.4-.2V660h-64.4v-16.2h9q4 .2 5.6-1.8 1.6-2 1.6-7v-45.2q0-4.8-1.6-6.6-1.6-2-5.6-2l-9-.2v-16.4h45.8zM245.258 750.8v34.4h24.2v16.4h-24.2v55.2q0 5.6 1.2 8 1.4 2.2 4.6 2.2 3.4 0 4.8-2.6 1.6-2.6 1.6-8.6v-15.4h13.4v17.8q0 12.4-6.6 18.8t-19.4 6.4q-14.2 0-21.8-6.2-7.4-6.4-7.4-18.8v-56.8h-14.2v-14.8q14.4-3.4 20-12.4 5.8-9 5.8-23.4l18-.2zM323.973 746.6v50.2q6.8-8 14.2-11.4 7.4-3.6 17.4-3.6 17.6 0 24.6 8.4 7.2 8.2 7.2 24.8v39.8q0 5.2 1.6 7.2t5.8 2l8.2-.2V880h-58.4v-16.2h6q4 .2 5.6-1.8 1.6-2 1.6-7v-35.6q0-9.8-3.6-14.2-3.4-4.6-11.6-4.6-9.8 0-14.2 6-4.4 6-4.4 19.4v28.8q0 5.2 1.6 7.2t5.8 2l5.2-.2V880h-57.8v-16.2h8.4q4 .2 5.6-1.8 1.6-2 1.6-7v-83.2q0-4.8-1.6-6.6-1.6-2-5.6-2l-8.4-.2v-16.4h45.2zM502.066 836h-68.8q1.2 15.4 7.2 23 6 7.4 17.2 7.4 9 0 15-4.8 6.2-5 9-14.4l19.2-.2q-2 16.6-14.2 26.6-12.2 9.8-30.6 9.8-25.8 0-39.6-13.4-13.6-13.4-13.6-38.6 0-22.2 13.6-35.8 13.8-13.6 36.2-13.6 23.4 0 36.4 13.4 13.2 13.4 13.2 37.4v1.2q-.2.4-.2 1v1.2zm-30.4-15.2q0-8.6-4.8-15.6-4.6-7.2-14.4-7.2-8.6 0-13.6 6-4.8 5.8-5.4 17l38.2-.2zM603.83 746.6v108.2q0 5.2 1.6 7.2t5.4 2l9-.2V880h-61.4v-16.2h8.4q4.2.2 5.8-1.8 1.6-2 1.6-7v-83.2q0-4.8-1.6-6.6-1.6-2-5.8-2l-8.4-.2v-16.4h45.4zM720.705 844.8h13.4v11.4q0 14.2-6.2 20.8-6 6.4-19 6.4-10.2 0-16.2-3.4t-9.2-10.8q-6 7.2-13.8 10.8-7.8 3.4-17.2 3.4-13.4 0-21.2-7-7.8-7-7.8-19.2 0-14.8 9.2-20.2 9.4-5.4 20.6-8l3.2-.8q1.8-.4 3.4-.6 9.2-2 16-4.8 7-3 7-10.8 0-7.6-5.8-11.6-5.6-4-16.6-4-2.6 0-4.4.2-1.6 0-3 .4-1 .2-2.2.8-1 .4-2.4 1 4.8 1.8 7 4.6 2.4 2.6 2.4 6.6 0 6.4-4.2 10.4-4.2 3.8-11 3.8t-11.2-5q-4.4-5-4.4-12.6 0-11.8 10.4-18.2 10.6-6.6 29.4-6.6 24.4 0 34.8 7.6 10.4 7.6 10.4 25v44.2q0 3.8.8 5.4 1 1.4 3.2 1.4 2.6 0 3.6-2t1-7v-11.6zm-38.2-9.4q-1.2.6-2.4 1-1 .4-2.2.8l-2.4.8q-1 .4-2.2.8l-2.8 1.2q-1.4.4-3 .8-.2 0-.4.2h-.4q-5.2 1.4-9.4 3.8-4 2.4-4 9 0 5 3 8.2 3.2 3 8.4 3 7 0 12.4-4.4 5.4-4.6 5.4-10.2v-15zM832.873 784.6v13l-58.2 66.2h18q15.8.2 19.4-7 3.6-7.4 3.6-21.4l17.2-.2V880h-97v-15.2l56.8-63.8h-16.6q-12.8.2-16.4 4.6-3.6 4.4-4.4 21l-16.6-.2 1-41.8h93.2zM898.686 849.4l17.8-41.6q.4-1.2.6-2 .4-1 .4-1.8 0-1.8-1-2.4-1-.6-3.8-.6l-7.6-.2v-16.2h43.8v16.2h-3.8q-2.8.2-4.4.8-1.4.4-2.6 2.4-.8 1-1.6 2.4-.6 1.4-1.4 3.4l-37.8 85q-6.8 15.2-14.6 21.6-7.8 6.6-19.4 6.6-13.6 0-21.4-6.2-7.6-6.2-7.6-17.4 0-7.8 4.8-13.2 5-5.2 12.2-5.2 5.8 0 9.8 3.8 4.2 4 4.2 9.6 0 5.2-2.8 8-2.6 3-9.2 4.4.6.8 1 1.2.4.6 1 1 1 1 2.2 1.2 1.4.4 3.4.4 3.8 0 6.8-1.6t5.8-5.4q2.2-2.8 4.4-7.2 2.4-4.4 5-10.6l-34-78-.8-1.2-.4-1.2q-1.6-2.8-3.6-3.6-1.8-.8-6-.8l-4.6-.2v-16.2h60.8v16.2h-8.2q-3.2.2-4.4.8-1.2.6-1.2 2.4 0 .4.2 1.2l.6 1.8 17.4 42.4zM1098.752 746.8v108q0 5.2 1.6 7.2t5.6 2l8-.2V880h-43.2v-11q-6.2 7.8-13.8 11-7.4 3.4-17.8 3.4-18.2 0-29.2-13.4-11-13.6-11-35.8 0-22.6 11.8-37.4 11.8-14.8 30-14.8 5.8 0 10.2 1.4 4.4 1.2 8.6 4.2 2.2 1.4 4.4 3.4t4.4 4.6V772q0-5-1.6-6.8-1.6-2-5.6-2l-8.6-.2v-16.2h46.2zm-68.2 87.8q0 15.8 4.8 24 5 8 14.4 8 9.2 0 14.8-9 5.8-9 5.8-23.4 0-16-5.2-24.4-5-8.4-14.4-8.4t-14.8 9q-5.4 8.8-5.4 24.4zM1120.295 831.8q1-23.6 14.8-36.6 14-13.2 38.2-13.2 24.8 0 38.8 13.6 14 13.6 14 37.4 0 23-14.4 36.8-14.2 13.6-38.2 13.6-24.8 0-39-13-14.2-13.2-14.2-38.4zm31.6-.2q0 17.6 5.4 26.8t15.8 9.2q10.4 0 15.8-9.2 5.6-9.2 5.6-26.8 0-15.4-5.8-24.4-5.6-9.2-15.4-9.2-10 0-15.8 9-5.6 8.8-5.6 24.8zM1311.436 790.2l1.2-1.2 1.2-1.6q4.4-4.6 8.8-6.6 4.6-2 10.6-2 7.6 0 12.6 4.4t5 11.4q0 6-3.6 10t-9.2 4q-4.6 0-7.8-2.8-3.2-3-3.2-7v-2.2q.2-1 .6-2 .4-1 1-2 .8-1 1.8-2.2-.8-.4-1.4-.4-.4-.2-1-.2h-.2-.2q-2.6 0-5.2 1.6t-4.8 4.6q4.4 4.8 6.2 10.2 1.8 5.2 1.8 13 0 17-12.2 27t-33.4 10q-6.2 0-12-.8-5.6-1-10.2-2.8-2.8 1.4-4 3-1.2 1.6-1.2 4 0 3.8 2.8 5.6 2.8 1.6 8.6 1.6h1q.2-.2.4-.2l40.6-1.2q.4.2.8.2.6 0 1-.2h1.6q12.6 0 23 4.2t10.4 19.4q0 16-12 22.2-11.8 6.4-26 8-6.4.8-12.6.8-6.2.2-11.4.2-26.8 0-38.2-4.2-11.2-4-11.2-14 0-5.2 3-8.6 3.2-3.4 10.4-6.2-6.6-2-9.8-6-3.2-4-3.2-10.8 0-7.8 4-12t9.8-7.8q.8-.6 1.6-1l2-1.2q-7.4-4.2-11-11.2-3.4-7.2-3.4-17.6 0-17.8 12.4-27.8t34.2-10q6.2 0 11 .8 5 .8 9.6 2.8 2.2.8 4.6 2.2 2.4 1.2 4.8 2.8zm-52.2 99q-2.8 1.6-4.2 3.6-1.4 2-1.4 4.6 0 5.4 6.6 7.8 6.8 2.6 21 2.6 18.8 0 26.6-2.2 7.8-2.2 7.8-8 0-5-4.8-6.8-4.8-1.6-19.4-1.6h-32.2zm4.4-70.8q0 11.8 4.4 18.6 4.6 6.8 12 6.8 7.2 0 11.6-6.8 4.6-7 4.6-18 0-11.2-4.6-18-4.4-6.8-11.8-6.8t-11.8 6.6q-4.4 6.6-4.4 17.8zM1372.445 847.4q7 .2 12 5.2t5 12q0 7-5 12-5 4.8-12 4.8t-12-4.8q-5-5-5-12t5-12q5-5 12-5z"/></g></svg>