<svg xmlns="http://www.w3.org/2000/svg" viewBox="0 0 800 500"><path fill="#fff" d="M0 0h800v500H0z"/><g font-weight="400" font-size="100" font-family="Claredon" text-anchor="middle" fill="#111"><path d="M208.32 82.34h5.9v-.38q-.06-2.76.14-5.52.1-1.7.62-3.3.4-1.06 1.18-1.84.64-.54 1.32-.8 2.04-.76 4.2-.84l5.18-.06v30.94q0 .7-.08 1.36-.06.66-.32 1.3-.14.3-.44.46-.3.14-.6.24-.74.16-1.54.24-2.54.06-5.02.02V110h27.92v-5.84h-4.22q-1.26-.04-2.48-.22-.3-.06-.6-.18-.34-.14-.5-.5-.26-.46-.32-.96-.2-1.2-.2-2.44V69.6h3.4q2.16-.06 4.32.4 2.66.56 3.9 3.04.84 2.1.98 4.36.06 2.46.06 4.94h5.94V63.76h-48.74v18.58zM264.96 63.64V69h1.86q1.16-.04 2.38.14.34.06.66.2.34.16.46.6.06.26.1.52.06 1.14.08 2.24v25.06l-.04 4.18q0 .46-.04.92-.06.6-.46 1.04-.4.34-.9.5-.76.16-1.56.2h-2.54v5.4h20.7v-5.4h-1.74q-.94.04-1.9-.2-.36-.06-.7-.26-.26-.16-.36-.48-.14-.3-.16-.62-.14-1.2-.14-2.48V89.64l.3-.7q.14-.34.3-.6.4-.66.94-1.2 2.4-2.54 5.86-3 3.66-.24 5.16 3.1.4 1.16.4 2.4V100l-.02 2.2q-.04.54-.14 1.04-.26.94-1.2 1.2-.54.1-1.06.12-1.24.06-2.48.04v5.4h20.38v-5.4h-.98q-1.26.06-2.5-.1-.56-.1-1.02-.36-.74-.44-.84-1.28-.1-1.14-.1-2.3V87.6q0-.94-.06-1.9-.14-2.06-1.24-3.84-1.86-2.66-4.94-3.76-6.54-2.1-12.6 1.14-2.2 1.26-4.16 2.82V63.64h-15.7zM327.1 94.86h23.8q.14-4.04-1.08-7.82-1.56-4.96-6.06-7.7-6.04-3.24-12.8-2.3-7.74.96-12.34 7.22-3.66 6.14-2.52 13.2 1.46 8.74 9.72 11.88 5.84 1.84 11.9 1.22 5.16-.44 9.1-3.82 3.14-2.94 4.4-7.1h-7.96q-.16.46-.36.92-.44 1.14-1.28 2-5.54 4.7-11.36.38-1.5-1.46-2.16-3.48-.74-2.24-1-4.6zm0-4.52q.16-1.7.6-3.34.54-2 1.96-3.5 1.7-1.54 4.04-1.56 2-.1 3.8.76 1.4.76 2.16 2.16.94 1.64 1.16 3.5.14.96.24 1.98H327.1zM400.586 125.96h23.34v-5.42h-1.58q-1.44.04-2.82-.18-.44-.06-.8-.26-.14-.06-.24-.16-.16-.16-.24-.4-.14-.4-.22-.8-.14-1.04-.14-2.04V77.56h-6.16l-2.54 4.54q-1.34-1.1-2.7-2.16-1.34-1.06-2.84-1.74-12.66-4.56-19.46 7-3.6 8.54-.64 17.26 2.56 6.94 9.74 8.84 5.06 1.26 9.86-.8 2.54-1.24 4.38-3.44v10.14q.04.76-.1 1.54-.06.46-.24.82-.14.34-.44.5-.26.16-.6.28-.56.14-1.2.16-2.2.04-4.36.04v5.42zm-7.16-32.72q.04-3.26 1.3-6.3.8-1.74 2.32-2.88 4.94-2.86 8.8 1.38.54.86.88 1.8.44 1.06.62 2.2.46 2.56.44 5.16 0 3.14-.74 6.16-.54 2.1-2.22 3.58-5.04 3.44-9.3-.88-1.26-1.6-1.68-3.6-.64-3.26-.42-6.62zM426.875 77.46v5.28h1q1.46-.06 2.86.12.5.06.98.3.34.16.5.5.26.46.26.94.06.96.06 1.96v12.5q0 2.96 1.08 5.78.76 1.96 2.5 3.3 2.54 1.84 5.66 2.12 7.9.54 13.76-4.72V110h15.8v-5.44h-1.1q-1.24.04-2.42-.06-.66-.06-1.28-.44-.54-.34-.62-1-.1-.74-.1-1.52V77.46h-15.4v5.28q1.34-.06 2.7 0 .56.06 1.1.22.94.3 1.16 1.28.16.56.16 1.16v12.86l-.4.6q-1.34 2.34-3.8 3.58-1.94 1.1-4.12 1.02-1.9-.1-3.18-1.56-.94-1.24-1.2-2.84-.26-1.74-.22-3.52V77.46h-15.74zM481.577 68.46q.06 1.14.52 2.24.66 1.5 2.1 2.24 3.56 1.56 7.24.2 1.14-.46 1.94-1.44 1.06-1.44 1.02-3.2-.06-3.26-2.9-4.84-3.54-1.46-7.02.08-1.04.44-1.78 1.22-1.2 1.54-1.12 3.5zm-3.14 36.1V110h20.76v-5.44h-1.1q-1.14.06-2.2-.1-.4-.06-.8-.2-.34-.14-.52-.46-.2-.34-.2-.74-.1-.66-.1-1.36V77.66h-15.84v5.1h2.2q1.4 0 2.7.48.14.04.24.1.26.2.4.52.14.4.12.8v16.7q0 .74-.06 1.54 0 .3-.14.56-.1.34-.4.54-.26.2-.6.3-.74.2-1.52.24-1.46.06-2.94.02zM535.363 83.74q-.36.06-.74.12-.4.06-.76.2-.76.4-1.4 1-1.14 1.14-1.5 2.6-.46 3.26 2.22 5.14 4.6 2.54 8.5-1.04 3.04-3.96.48-8.22-1.34-1.94-3.3-3.28-6.56-4.26-14.38-3.22-5.14.5-9.2 3.7-11.26 11-2.56 24.12 3.04 3.54 7.54 4.74 6.96 2.14 13.96.14 7.94-2.7 9.26-10.94h-7.72q-.16.8-.4 1.6-.5 1.86-1.94 3.06-5.34 3.66-10.44-.32-1.14-1.14-1.62-2.6-1.14-3.16-1.14-6.5-.1-4.16 1.74-7.98 1.34-2.64 4.12-3.56 3.3-.94 6.6.06 1.36.46 2.68 1.18zM545.234 104.5v5.5h21.96v-5.5l-2.96-.04q-.66 0-1.34-.2-.36-.14-.7-.32-.44-.34-.56-.88-.14-.54-.14-1.12l-.02-3.48 5.3-3.6 6.72 7.6q.36.46.54 1v.28l-.06.1q-.1.14-.24.22-.3.14-.56.24-.6.14-1.2.16l-2.3.04v5.5h22.06v-5.5q-1.64.1-3.24-.24-.5-.14-.92-.4-.46-.34-.88-.72l-2.72-3-9.44-10.6 7.96-5.4.08-.08q1.86-1.34 4.2-1.4h3v-5h-23.38v5h5.68q.26 0 .46.08.24.06.4.2.1.1.14.22.04.1 0 .2-.04.2-.18.4-.46.56-1.06 1l-10.36 7.44V63.56h-15.94v5.38h1.16q1.36-.06 2.74.12.46.06.86.2.46.16.68.6.14.34.16.68.1 1.2.1 2.42v28.7q0 .46-.06.88-.06.64-.34 1.16-.1.24-.26.36-.24.2-.54.28-.34.06-.74.12l-4.06.04zM205.684 173.6v5.34h2.66q.8 0 1.58.12.46.06.86.28.24.14.4.32.24.34.34.74.2.96.2 1.96V220h6.46l2.46-5.2.18.34q1.04 2.2 3 3.62.56.4 1.16.74 12.16 5.5 19.8-5.44 4.14-8.34 1.6-17.26-.56-2.06-1.74-3.9-8.06-10.4-19.72-4.44-1.66 1.16-3 2.7V173.6h-16.24zm16.14 28.64q.14-2.34.72-4.68.36-1.46 1.1-2.72.9-1.3 2.38-2 .34-.16.62-.3 5.66-1.66 8.34 3.6.7 1.54.96 3.2.4 2.26.28 4.52-.14 2.96-.88 5.88-.36 1.4-1.3 2.52-1.3 1.46-3.2 2.08-6.04 1.16-8.3-4.54-.34-.94-.46-1.94-.4-2.8-.26-5.62zM253.34 187.64v5.22h1.7q1.14-.04 2.3.14.4.06.76.16.14.04.28.1.34.26.5.68.2.54.2 1.1v16.42q0 .7-.04 1.4-.04.34-.16.64-.4.64-1.18.84-.56.14-1.16.16h-3.2v5.5h23.26v-5.5h-2.7q-1.44.06-2.82-.06-.34-.04-.68-.18-.26-.1-.5-.3-.44-.46-.5-1.12-.06-.96-.06-1.98V204q-.06-2.46.54-4.86.86-3.54 3.62-5.88 1.16-.9 2.58-1.46-.54.66-1.08 1.44-1.86 2.96.08 5.82 3.46 3.46 7.72 1 2.46-2 2.54-5.2-.04-.46-.06-.92-1.56-6.74-8.5-6.48-2.86.34-4.9 2.4-1.44 1.36-2.54 3v-5.22h-16zM292.052 203.56q0 1.56.12 3.18.74 7.54 7.24 11.4 6.3 3.34 13.44 2.66 5.26-.36 9.7-3.34 2.5-1.8 4.1-4.42 3.3-6.64 1.9-13.9-1.16-6.14-6.48-9.48-7.8-4.26-16.52-2.46-4.46.8-8 3.6-5.54 5.16-5.5 12.76zm10.76-1.62q.04-1.74.4-3.44.46-2.1 1.7-3.76 2.76-3 6.76-2.44 4.14.66 5.6 4.64.86 2.6.88 5.32l.02 1.74q0 2.54-.46 4.96-.3 1.64-1.1 3.08-1.16 1.8-3.2 2.46-3.34 1.14-6.56-.2-2.7-1.36-3.44-4.34-.34-1.36-.46-2.72-.24-2.7-.14-5.3zM335.176 187.56v5.3h.34q.56-.04 1.16 0 .46.06.86.24.3.16.58.5l.12.2q.46 1.14.9 2.34l8.54 23.9h9.84l6.92-19.04 6.7 19.04h9.84l8.7-23.9q.26-.74.6-1.48.16-.46.44-.92.34-.54.96-.74.54-.14 1.14-.14h1.32v-5.3h-15v5.3h2.6q.76 0 1.58.04.14.04.3.06.26.1.32.38.06.24.04.42l-.06.28q-.46 1.64-1.08 3.2l-4.72 13.3-5-13.84-.48-1.4q-.24-.64-.36-1.26-.06-.24-.04-.5.06-.3.34-.44.14-.06.34-.1.46-.14.96-.14h2.44v-5.3h-19.98v5.3h1.7q.76 0 1.5.08.16.04.38.12.2.06.32.28.06.26.08.52l-.08.4-.92 2.98-4.58 13.3-4.86-14.4-.36-1-.28-1.2q-.04-.24 0-.48.06-.26.3-.4.14-.06.3-.1.46-.1 1-.1h2.48v-5.3h-18.14zM402.363 192.8h.46q1.4-.06 2.8.06.64.06 1.24.24.56.16.76.74.2.46.2.92v17.28q-.04.34-.02.62-.1.5-.3.94-.1.26-.3.36-.26.14-.58.24-.74.2-1.42.26-1.4.16-2.84.1V220h20.74v-5.44h-.44q-1 0-1.96-.02-.8-.06-1.58-.34-.74-.34-.96-1.14-.14-.54-.14-1.02V199.8l.1-.26q1.26-3.06 4.24-4.58 2.8-1.34 5.74-.36 1.26.46 2.02 1.54.64 1.04.78 2.26.14 1.34.12 2.74v11.72q0 .64-.46 1.1-.34.34-.8.44-.54.14-1.06.14-1.34.04-2.6.02V220h20.42v-5.44h-1.5q-1.14.04-2.22-.1-.64-.06-1.1-.46-.54-.44-.6-1.14v-16.72q-.34-4.7-4.34-7.14-4.74-2.56-9.94-1.34-4.9 1.16-8.8 4.4v-4.52h-15.66v5.26zM476.777 214.46V220h24.24v-5.54l-5.98-.02q-.34-.04-.72-.1-.34-.06-.6-.38-.26-.34-.38-.72-.14-.7-.12-1.44v-19.34h9.2v-4.8h-9.2v-5q.06-1.66.66-3.22.24-.54.6-.98 1.6-1.6 3.84-1.26.7.16 1.32.44-.34.04-.62.02-.34.04-.64.14-.4.24-.74.56-.76.84-.96 2-.46 2.4 1.36 4.08 3.14 2.16 5.88-.5 2.4-3.14.72-6.6-1.2-2.06-3.4-3-5.86-2.46-11.76-.08-2.7 1.04-4.44 3.3-1.74 2.56-1.8 5.68v4.42h-6v4.8h5.7V212.2q0 .56-.12 1.14-.1.34-.44.56-.3.2-.66.3-.8.26-1.6.26h-3.34zM508.85 203.56q0 1.56.12 3.18.74 7.54 7.24 11.4 6.3 3.34 13.44 2.66 5.26-.36 9.7-3.34 2.5-1.8 4.1-4.42 3.3-6.64 1.9-13.9-1.16-6.14-6.48-9.48-7.8-4.26-16.52-2.46-4.46.8-8 3.6-5.54 5.16-5.5 12.76zm10.76-1.62q.04-1.74.4-3.44.46-2.1 1.7-3.76 2.76-3 6.76-2.44 4.14.66 5.6 4.64.86 2.6.88 5.32l.02 1.74q0 2.54-.46 4.96-.3 1.64-1.1 3.08-1.16 1.8-3.2 2.46-3.34 1.14-6.56-.2-2.7-1.36-3.44-4.34-.34-1.36-.46-2.72-.24-2.7-.14-5.3zM551.777 214.54V220h17.26v-5.46h-.92q-1.06.04-2.1-.04-.44-.04-.88-.2-.14-.06-.22-.16-.06-.06-.08-.14-.06-.06-.02-.16l.02-.1q.06-.06.08-.14.16-.24.4-.4l5.72-5.16.58.5 4.1 4q.46.46.8 1 .06.14.12.26.06.24-.02.44-.16.26-.5.26l-.28.04h-3.92V220h22.36v-5.46h-1.54q-1.54 0-2.86-.78-1.04-.66-1.9-1.5l-10.64-9.82 9.64-8.3q.3-.26.64-.48 1.44-.76 3.02-.82.94-.04 1.88-.04v-5.34h-17.28v5.34h.94q1.16-.04 2.34.04.2.04.4.06.16.06.3.16.06.06.1.18.04.04 0 .1 0 .06-.04.12-.06.14-.14.2-.46.54-.96 1.04l-4.66 4.06-3.94-3.7q-.64-.54-1.14-1.16-.14-.16-.22-.36-.06-.06-.08-.18-.04-.1.04-.2.06-.1.14-.16.14-.1.36-.14.24-.06.44-.02l3.16-.04v-5.34h-20.5v5.34l1.46.04q1.04-.04 1.98.3 1.44.6 2.5 1.72l9.32 9.3-9.32 8.1q-.6.54-1.28 1-1.56 1.16-3.52 1.28h-1.14zM191.09 302.66l5.16.08q.4 0 .8.06.26.04.44.16.44.34.64.84.24.54.22 1.14v23.16l.24 5.06q.14 1.76.14 3.5-.26 3.44-3.68 4.14-.66.14-1.32-.1-.54-.16-1.04-.44h.24q.26-.06.6-.2 1.26-.66 1.8-2 .8-2.46-.88-4.42-1.7-1.7-4.12-1.7-4.06.14-5.24 4.1-.5 2.66.96 5 1.64 2.46 4.44 3.42 6.86 2.14 13-1.62 4.56-2.94 4.96-8.34.14-2.44.08-4.86v-32.08h-17.44v5.1zm5.24-14.96q-.14 1.9.76 3.64.74 1.26 2.14 1.82 3.66 1.36 7.22-.12 2.34-1.1 2.7-3.7.36-3.54-2.6-5.44-3.94-1.8-7.76.06-2.24 1.24-2.46 3.74zM216.23 297.46v5.28h1q1.46-.06 2.86.12.5.06.98.3.34.16.5.5.26.46.26.94.06.96.06 1.96v12.5q0 2.96 1.08 5.78.76 1.96 2.5 3.3 2.54 1.84 5.66 2.12 7.9.54 13.76-4.72V330h15.8v-5.44h-1.1q-1.24.04-2.42-.06-.66-.06-1.28-.44-.54-.34-.62-1-.1-.74-.1-1.52v-24.08h-15.4v5.28q1.34-.06 2.7 0 .56.06 1.1.22.94.3 1.16 1.28.16.56.16 1.16v12.86l-.4.6q-1.34 2.34-3.8 3.58-1.94 1.1-4.12 1.02-1.9-.1-3.18-1.56-.94-1.24-1.2-2.84-.26-1.74-.22-3.52v-18.08h-15.74zM269.355 324.56V330h20.66v-5.44h-2.16q-.84-.06-1.6-.3-.36-.06-.56-.3-.46-.44-.6-1.02-.06-.46-.08-.88v-5.92q-.06-2.66.08-5.4.06-.94.42-1.84 1.36-2.74 4.18-4.04 2.04-.94 4.22-.56 2.56.54 3.48 3 .34 1.14.32 2.3l.04 11.56q.04.76-.04 1.5-.14 1.24-1.26 1.68-.7.2-1.44.22h-2.16V330h20.16v-5.44h-1.92q-.96.04-1.9-.22-.26-.06-.5-.2t-.38-.4q-.14-.34-.2-.68-.14-.8-.16-1.62v-11.98l.74-1.22q2.14-3.34 6.02-3.94 2-.3 3.74.7 1.16.74 1.56 1.94.44 1.34.48 2.72v12.2q-.04.76-.24 1.5-.1.16-.16.38-.06.1-.1.16-.1.1-.2.16-.96.54-2.1.5h-2.08V330h20.5v-5.44q-1.34.04-2.62-.02-.74-.04-1.4-.24-.56-.2-.98-.66-.24-.34-.3-.7-.06-.46-.06-.9v-9.9q.04-3.06-.06-6.14-.34-4.96-4.74-7.36-6.8-3.14-13.54.22-2.96 1.66-5.46 4l-.26-.6q-.26-.6-.6-1.2-.94-1.36-2.48-2.2-6.54-3.26-13.2-.32-2.94 1.46-5.4 3.52v-4.6h-15.66v5.4h2.6q.84 0 1.64.1.24.04.42.14.1.06.2.1.14.14.2.26.14.26.2.58.2.9.2 1.8v15q0 .8-.06 1.6-.14 1.44-1.46 1.96-.46.14-.94.14-1.5.06-3 .02zM341.426 340.54v5.5h22.26v-5.5h-2.76q-1.2.04-2.4-.08-.2-.04-.4-.06-.24-.06-.36-.16-.2-.16-.3-.44-.16-.4-.24-.8-.06-.74-.06-1.46v-11.2l.4.72q.6 1.06 1.6 1.8 1.94 1.46 4.32 2.2 12.66 2.66 17.6-9.3 1.86-6.5.8-13.16-.46-3.26-2.4-5.94-8.14-9.44-18.9-3.2-1.74 1.4-3.22 3.08v-4.98h-15.94v4.98h2.86q.56-.04 1.18.1.54.06.92.42.44.46.5 1.08.06.54.04 1.12v33.3q0 .26-.06.5-.14.6-.64 1-.2.14-.44.2-.5.14-.96.2-.36.06-.74.08h-2.66zm15.84-26.08q.06-2.46.62-4.86.46-1.94 1.5-3.64 1.04-1.6 2.78-2.32 5.46-1.8 8.3 3.22.94 2.06 1.02 4.34.1 1.36.1 2.74-.04 2.54-.52 5.02-.4 1.86-1.3 3.6-.64 1.06-1.64 1.8-4.94 3.04-8.9-1.22-.7-.94-1.06-2.04-.36-1.04-.58-2.1-.44-2.26-.32-4.54zM392.16 330H398l1-2.46q1.9 1.26 4.06 2 8.26 2.8 16.26-.64 6.8-3.56 5.68-11.2-.54-3.06-3-4.96-1.96-1.34-4.2-2.08-5.14-1.54-10.48-1.92-1.5-.06-3-.28-1.06-.14-2.02-.6-.66-.34-1-1.02-.34-.7-.18-1.48.34-1.04 1.24-1.6.66-.4 1.4-.6 2.5-.66 5.06-.2 3.36.5 5.94 2.78 1.1 1.16 2.04 2.52h5.72v-10.5h-5.72l-1.1 2.7-.9-.52q-1.36-.94-2.94-1.48-5.9-1.86-11.94-.42-.54.14-1.1.3-8.76 3.94-6.52 13.3 1.26 3.5 4.72 4.9 1.9.74 3.9 1l9.6 1.4q1.74.26 3.34.9 1 .4 1.56 1.26.36.66.24 1.36-.34 1.34-1.5 2-1.3.74-2.76.88-4.54.4-8.6-1.6-1.94-.94-3.4-2.54-.8-1-1.4-2.14h-5.84V330zM453.966 313.56q0 1.56.12 3.18.74 7.54 7.24 11.4 6.3 3.34 13.44 2.66 5.26-.36 9.7-3.34 2.5-1.8 4.1-4.42 3.3-6.64 1.9-13.9-1.16-6.14-6.48-9.48-7.8-4.26-16.52-2.46-4.46.8-8 3.6-5.54 5.16-5.5 12.76zm10.76-1.62q.04-1.74.4-3.44.46-2.1 1.7-3.76 2.76-3 6.76-2.44 4.14.66 5.6 4.64.86 2.6.88 5.32l.02 1.74q0 2.54-.46 4.96-.3 1.64-1.1 3.08-1.16 1.8-3.2 2.46-3.34 1.14-6.56-.2-2.7-1.36-3.44-4.34-.34-1.36-.46-2.72-.24-2.7-.14-5.3zM496.7 302.74h.94q.94-.04 1.92.1.3.04.58.12.34.14.5.4.24.3.32.68l9.8 25.92h10.08l9.72-24.12q.2-.46.4-.9.3-.66.68-1.28.4-.56 1.06-.72.54-.14 1.14-.18 1.26-.04 2.6-.02v-5.18H519.5v5.18q1.7 0 3.4.06.34 0 .66.06.4.06.6.4.2.46.08.98-.14.44-.28.82L518 320.74l-5.5-14.9q-.26-.66-.44-1.3-.06-.24-.1-.48-.04-.2.04-.4.1-.34.36-.52.26-.2.6-.28.34-.06.68-.06 1.34-.06 2.7-.06v-5.18H496.7v5.18zM554.152 314.86h23.8q.14-4.04-1.08-7.82-1.56-4.96-6.06-7.7-6.04-3.24-12.8-2.3-7.74.96-12.34 7.22-3.66 6.14-2.52 13.2 1.46 8.74 9.72 11.88 5.84 1.84 11.9 1.22 5.16-.44 9.1-3.82 3.14-2.94 4.4-7.1h-7.96q-.16.46-.36.92-.44 1.14-1.28 2-5.54 4.7-11.36.38-1.5-1.46-2.16-3.48-.74-2.24-1-4.6zm0-4.52q.16-1.7.6-3.34.54-2 1.96-3.5 1.7-1.54 4.04-1.56 2-.1 3.8.76 1.4.76 2.16 2.16.94 1.64 1.16 3.5.14.96.24 1.98h-13.96zM583.418 297.64v5.22h1.7q1.14-.04 2.3.14.4.06.76.16.14.04.28.1.34.26.5.68.2.54.2 1.1v16.42q0 .7-.04 1.4-.04.34-.16.64-.4.64-1.18.84-.56.14-1.16.16h-3.2v5.5h23.26v-5.5h-2.7q-1.44.06-2.82-.06-.34-.04-.68-.18-.26-.1-.5-.3-.44-.46-.5-1.12-.06-.96-.06-1.98V314q-.06-2.46.54-4.86.86-3.54 3.62-5.88 1.16-.9 2.58-1.46-.54.66-1.08 1.44-1.86 2.96.08 5.82 3.46 3.46 7.72 1 2.46-2 2.54-5.2-.04-.46-.06-.92-1.56-6.74-8.5-6.48-2.86.34-4.9 2.4-1.44 1.36-2.54 3v-5.22h-16zM151.582 407.64v4.82h5.26v15.98q-.04 2.44.2 4.82.16 1.94 1.18 3.68.26.54.66 1 1.16 1.24 2.74 1.86 3.96 1.44 8.1.64 2.66-.5 4.72-2.2 2.34-2.24 3-5.38.56-2.86.44-5.76h-5.46l-.1 3.24q-.06 1.34-.5 2.62-.14.4-.44.78-.6.66-1.46.86-1.46.26-2.4-.86-.36-.6-.48-1.3-.16-1.74-.12-3.5v-16.48h9.12v-4.82h-9.12v-10.68h-5.9q-.04 1.74-.2 3.5-.26 2.54-1.34 4.84-.66 1.26-1.96 1.76-1.36.46-2.84.54l-3.1.04zM184.59 393.64V399h1.86q1.16-.04 2.38.14.34.06.66.2.34.16.46.6.06.26.1.52.06 1.14.08 2.24v25.06l-.04 4.18q0 .46-.04.92-.06.6-.46 1.04-.4.34-.9.5-.76.16-1.56.2h-2.54v5.4h20.7v-5.4h-1.74q-.94.04-1.9-.2-.36-.06-.7-.26-.26-.16-.36-.48-.14-.3-.16-.62-.14-1.2-.14-2.48v-10.92l.3-.7q.14-.34.3-.6.4-.66.94-1.2 2.4-2.54 5.86-3 3.66-.24 5.16 3.1.4 1.16.4 2.4V430l-.02 2.2q-.04.54-.14 1.04-.26.94-1.2 1.2-.54.1-1.06.12-1.24.06-2.48.04v5.4h20.38v-5.4h-.98q-1.26.06-2.5-.1-.56-.1-1.02-.36-.74-.44-.84-1.28-.1-1.14-.1-2.3V417.6q0-.94-.06-1.9-.14-2.06-1.24-3.84-1.86-2.66-4.94-3.76-6.54-2.1-12.6 1.14-2.2 1.26-4.16 2.82v-18.42h-15.7zM246.73 424.86h23.8q.14-4.04-1.08-7.82-1.56-4.96-6.06-7.7-6.04-3.24-12.8-2.3-7.74.96-12.34 7.22-3.66 6.14-2.52 13.2 1.46 8.74 9.72 11.88 5.84 1.84 11.9 1.22 5.16-.44 9.1-3.82 3.14-2.94 4.4-7.1h-7.96q-.16.46-.36.92-.44 1.14-1.28 2-5.54 4.7-11.36.38-1.5-1.46-2.16-3.48-.74-2.24-1-4.6zm0-4.52q.16-1.7.6-3.34.54-2 1.96-3.5 1.7-1.54 4.04-1.56 2-.1 3.8.76 1.4.76 2.16 2.16.94 1.64 1.16 3.5.14.96.24 1.98h-13.96zM300.215 393.66v5.28h2.74q1.06 0 2.1.3.3.1.56.22.14.06.2.2.14.14.16.3.06.24.1.48.14 1.24.2 2.5v28.5q-.04.54-.02 1.1-.04.46-.18.9-.1.3-.32.5-.26.2-.6.32-.54.14-1 .18-1.96.16-3.94.1V440h22.06v-5.46q-1.74.06-3.42-.08-.64-.06-1.24-.3-.26-.1-.5-.3-.34-.4-.4-.92-.06-.76-.06-1.58l-.08-37.7h-16.36zM337.66 412.04l.32-.18q.54-.34 1.08-.52 2.1-.66 4.3-.58 2.74 0 5.22 1.14.84.4 1.44 1.1 1.54 1.94 1.36 4.4-.06.74-.46 1.34-.34.54-.94.9-1.54.9-3.32 1.3l-5.48 1.12q-3.06.5-5.96 1.5-1.94.66-3.44 2.04-2.66 2.74-2.32 6.54.34 4.94 4.7 7.12 5.84 2.56 11.86.54 2.5-.76 4.34-2.66.86-1.06 1.6-2.2.74 1.7 1.9 3.2 1.06 1.34 2.66 1.96 4.1 1.36 8.1-.3 1.64-.7 2.56-2.2 1.06-1.94 1.3-4.06.3-2.5.24-5h-4.06l-.08 2.16q0 1.14-.12 2.2-.14.66-.4 1.26-.36.7-1.18.84-.46.06-.82-.26-.34-.26-.5-.68-.46-1.06-.5-2.22V419.04q0-2.76-.98-5.38-.5-1.3-1.42-2.36-1.16-1.24-2.68-2-5.6-2.66-11.72-2.44-4.54-.04-8.6 1.88-2.7 1.34-4.2 3.92-1.74 3.66 1.26 6.4 2.8 1.86 5.94.68.34-.14.6-.28 3.1-2.26 1.46-5.72-.66-1.14-1.94-1.5-.56-.14-1.12-.2zm13.76 11.52l-.14 2.5q-.06 1.5-.3 2.98-.14 1.1-.5 2.12-.66 1.6-2.1 2.64-2.2 1.54-4.82 1.3-1.44-.14-2.38-1.24-.6-.76-.82-1.7-.34-1.44-.04-2.82.24-.7.7-1.28.16-.2.36-.32 1.06-.74 2.24-1.28 2.54-1.14 5.14-1.92 1.34-.46 2.66-.98zM375.8 433.44V440h35.24v-14.66h-5.78l-.02 3.12q-.04 1.46-.58 2.78-.36.9-1.2 1.5-1.6 1.06-3.5 1.12H389.7l21.34-20.02v-6.38h-33.58v13h5.58v-1q-.04-1.06 0-2.2.06-1.2.8-2.16.2-.26.5-.44.34-.14.62-.22 1.84-.5 3.78-.58l8.7-.02-21.64 19.6zM420.784 412.8h1.54q.8 0 1.56.16.56.14 1 .58.3.36.54.8l12.66 24.86-3.6 6.94q-.84 1.66-2.14 2.96-.46.46-.96.74-.66.3-1.36.36-1 .06-2 0 .9-.54 1.62-1.16 1.06-.96 1.28-2.44.3-2.74-1.8-4.46-4.46-2.54-7.88 1.32-3.06 5.3 1.2 9.7 2.4 2 5.48 2.34 3.8.5 7.12-1.36 2.46-1.66 4.04-4.2 2.34-3.86 4.44-7.88l13.36-25.36q.74-1.46 1.7-2.84.24-.34.5-.56.3-.26.66-.4.3-.06.64-.1h1.34v-5.24h-16.88v5.24h3.18q.94-.04 1.9.1.46.06.92.24l.28.12q.14.06.2.2t0 .34q-.04.34-.14.66-.24.5-.5 1l-7.16 13.6-6.48-13.6-.16-.32q-.24-.46-.36-.94-.1-.2-.08-.44 0-.24.1-.4.16-.2.4-.3l.4-.12q.64-.1 1.3-.1l3.1-.04v-5.24h-20.96v5.24zM510.714 398.5q1.54-.04 3.04.04.5 0 .96.12 1.16.36 1.44 1.58.1.54.1 1.06l.04 9.4-.08-.06q-1.5-2.14-3.82-3.1-.34-.14-.7-.28-13.44-3.24-19.1 9.3-2.34 7.86.32 15.64 2.54 6.76 9.54 8.44 5.06 1.16 9.7-1.14 2.26-1.34 4.14-3.2v3.7h15.9v-5.5h-2.2q-.96.04-1.94-.14-.36-.06-.74-.22-.4-.24-.52-.68-.06-.26-.08-.52-.06-1.06-.12-2.08v-37.6h-15.88v5.24zm-8.4 24.36q.06-2.3.6-4.56.4-1.7 1.28-3.24 1.1-1.6 2.9-2.4 4.14-1.66 7.4 1.44.44.46.7 1.1.54 1.14.72 2.36.46 2.44.4 4.9 0 3.26-.6 6.48-.4 2.06-1.92 3.52-4.74 3.8-9.38-.12-1.14-1.34-1.5-3-.74-3.2-.6-6.48zM536.974 423.56q0 1.56.12 3.18.74 7.54 7.24 11.4 6.3 3.34 13.44 2.66 5.26-.36 9.7-3.34 2.5-1.8 4.1-4.42 3.3-6.64 1.9-13.9-1.16-6.14-6.48-9.48-7.8-4.26-16.52-2.46-4.46.8-8 3.6-5.54 5.16-5.5 12.76zm10.76-1.62q.04-1.74.4-3.44.46-2.1 1.7-3.76 2.76-3 6.76-2.44 4.14.66 5.6 4.64.86 2.6.88 5.32l.02 1.74q0 2.54-.46 4.96-.3 1.64-1.1 3.08-1.16 1.8-3.2 2.46-3.34 1.14-6.56-.2-2.7-1.36-3.44-4.34-.34-1.36-.46-2.72-.24-2.7-.14-5.3zM586.993 441.86q-.9.2-1.76.48-2.6.86-3.68 3.36-1.26 4.74 2.9 7.36 1.7.86 3.58 1.34 5.74 1.36 11.66 1.3 5.44.3 10.76-.64 3.46-.6 6.48-2.4 2.44-1.46 3.62-4.06 2.86-8.06-4.52-12.4-3.54-1.6-7.48-1.74-5.54-.2-11.12-.12-2.44.06-4.84-.28-.9-.1-1.74-.42-.46-.16-.8-.58-.5-.74-.3-1.72.14-.46.4-.84.74-.96 1.68-1.76.9.34 1.86.6 6.34 1.36 12.76.5 3.06-.34 5.88-1.74 5.4-3.04 5.3-9.16-.16-1.5-.58-2.94-.4-1.4-.52-2.84-.1-.8.06-1.6.46-1.84 2.36-2.1.6-.06 1.2 0-.54.36-.92.84-.3.36-.4.76-.4 2.26 1.36 3.6 1.26.94 2.8.7 1.56-.34 2.44-1.66 1.04-1.7.8-3.64-.24-2.14-1.98-3.4-4.7-2.8-9.1.58-1.5 1.26-1.92 3.2-.06.5-.14 1-.86-1.26-2.06-2.2-1.16-.8-2.5-1.2-8.06-2.34-16.14-.04-6.66 2.4-8.4 9.26-.76 4.46 2.16 7.94 1.44 1.36 3.2 2.16-3.26.94-5.66 3.38-.74.74-1.2 1.7-2.14 5.7 3.06 8.86.7.36 1.44.56zm7.46-23.52q.04-2.26 1.14-4.2 1.56-2.2 4.16-2.58 3.46-.56 5.88 1.9 1.14 1.44 1.5 3.2.56 3.04-.7 5.84-1 1.96-3.18 2.64-3 .94-5.82-.4-1.66-.94-2.34-2.74-.66-1.76-.64-3.66zm-2.66 25.2q4.44.26 8.84.3l5.2-.04q2.24-.06 4.42.34.84.2 1.58.52.74.34 1.12 1 .96 2.1-.92 3.48-.66.4-1.48.6-2.94.76-6 .82-5.36.3-10.72-.5-1.34-.2-2.6-.8-.76-.34-1.34-1-.44-.54-.46-1.22-.06-.74.2-1.4.14-.34.4-.64.64-.66 1.4-1.2l.36-.26zM635.41 435.3q0 .34.06.7.14.56.3 1.16.14.36.34.78.14.34.4.66.34.4.72.7.46.34 1 .6.86.44 1.8.64.94.2 1.94.2 1.06.04 2.1-.24.96-.24 1.84-.74.54-.3 1-.7.46-.44.76-1 .34-.54.54-1.2.16-.74.16-1.52 0-.74-.16-1.44-.16-.66-.54-1.3-.34-.6-.84-1.06-.46-.46-1-.8-.84-.44-1.72-.64-1.06-.26-2.18-.26-1.1-.04-2.16.22t-2 .78q-.54.3-.96.7-.4.4-.7.9-.34.6-.54 1.3-.2.76-.16 1.56z"/></g></svg>