<svg xmlns="http://www.w3.org/2000/svg" viewBox="0 0 800 500"><path fill="#fff" d="M0 0h800v500H0z"/><g font-weight="400" font-size="100" font-family="Clarendon" letter-spacing="-.03em" text-anchor="middle" fill="#222"><path d="M204.142 51.9v45.2q0 2.6 1.2 3.7 1.2 1 4.2 1l6.4-.1v8.3h-40.3v-8.3h6.6q3 .1 4.2-.9 1.2-1.1 1.2-3.6V51.9q-9.7.1-12 4.3-2.3 4.1-2.8 13.4l-9.1-.1V43.3h64.1v26.2h-9.2q.1-.7.1-1.2v-.7q0-7.8-3-11.7-2.9-4-8.8-4H205.642q-.4.1-.8.1h-.7zM252.506 43.3v25.1q3.4-4 7.1-5.7 3.7-1.8 8.7-1.8 8.8 0 12.3 4.2 3.6 4.1 3.6 12.4v19.9q0 2.6.8 3.6t2.9 1l4.1-.1v8.1h-29.2v-8.1h3q2 .1 2.8-.9.8-1 .8-3.5V79.7q0-4.9-1.8-7.1-1.7-2.3-5.8-2.3-4.9 0-7.1 3-2.2 3-2.2 9.7v14.4q0 2.6.8 3.6t2.9 1l2.6-.1v8.1h-28.9v-8.1h4.2q2 .1 2.8-.9.8-1 .8-3.5V55.9q0-2.4-.8-3.3-.8-1-2.8-1l-4.2-.1v-8.2h22.6zM341.552 88h-34.4q.6 7.7 3.6 11.5 3 3.7 8.6 3.7 4.5 0 7.5-2.4 3.1-2.5 4.5-7.2l9.6-.1q-1 8.3-7.1 13.3-6.1 4.9-15.3 4.9-12.9 0-19.8-6.7-6.8-6.7-6.8-19.3 0-11.1 6.8-17.9 6.9-6.8 18.1-6.8 11.7 0 18.2 6.7 6.6 6.7 6.6 18.7v.6q-.1.2-.1.5v.6zm-15.2-7.6q0-4.3-2.4-7.8-2.3-3.6-7.2-3.6-4.3 0-6.8 3-2.4 2.9-2.7 8.5l19.1-.1zM404.734 62.3h22.3v8.1h-4q-2 .1-2.8 1.1-.7.9-.7 3.5v42.5q0 2.6.7 3.5.8 1 2.8 1h4v8.1h-30.7V122h4.8q2 0 2.8-1 .8-1 .8-3.5v-11.7q-2.5 3.1-5.8 4.4-3.2 1.4-7.8 1.4-10 0-15.6-6.5-5.5-6.5-5.5-18.4 0-11.6 5.7-18.7 5.8-7.1 15.3-7.1 4.5 0 7.9 1.8 3.5 1.7 6.1 5.3l-.3-5.7zm-18.9 24.3q0 8.3 2.5 12.3t7.5 4q4.4 0 6.8-4.4 2.4-4.4 2.4-12.2 0-7-2.5-11.3-2.5-4.3-6.6-4.3-4.9 0-7.5 4.2-2.6 4.1-2.6 11.8zM483.12 62.3v35.1q0 2.6.8 3.6t2.8 1l4.4-.1v8.1h-22.8v-6.6q-1.1 1.4-2.1 2.5-1 1-2 1.9-2.5 2.1-5.2 3-2.7.9-6.2.9-7.6 0-11.6-3.7-3.9-3.7-3.9-10.9V75q0-2.5-.8-3.4-.8-1-2.8-1l-3.9-.1v-8.2h22.3v29.5q0 6 1.6 8.2 1.6 2.2 5.9 2.2 4.4 0 6.5-3 2.2-3 2.2-9V75q0-2.5-.8-3.4-.8-1-2.8-1l-4.2-.1v-8.2h22.6zM516.513 62.3v35.1q0 2.6.8 3.6t2.8 1l4.2-.1v8.1h-30.5v-8.1h4.3q2 .1 2.8-.9.8-1 .8-3.5V74.9q0-2.4-.8-3.3-.8-1-2.8-1l-4.3-.1v-8.2h22.7zm-8-21.3q3.5.1 5.9 2.5 2.5 2.4 2.5 5.9 0 3.5-2.5 6-2.4 2.4-5.9 2.4-3.4 0-5.9-2.5-2.5-2.5-2.5-5.9 0-3.5 2.5-5.9 2.5-2.4 5.9-2.4zM564.955 91.4h9.8q-.7 9.2-7 14.8-6.3 5.5-15.8 5.5-11.9 0-18.5-6.7-6.6-6.8-6.6-18.9 0-11.5 7.1-18.3 7.1-6.8 19.1-6.8 8.9 0 14.4 4.2 5.6 4.2 5.6 10.9 0 3.7-2.2 6-2.2 2.2-5.8 2.2-3.4 0-5.6-2-2.1-2-2.1-5.1 0-.9.1-1.6.2-.8.5-1.4.4-.8 1.1-1.6.7-.8 1.8-1.8-1.3-.7-2.3-1.1-.9-.4-1.8-.6h-.8q-.4-.1-.9-.1-5.7 0-9.1 4.7-3.3 4.6-3.3 12.6t3 12.5q3.1 4.5 8.4 4.5 4.4 0 7.4-3.3 3.1-3.3 3.5-8.5zM600.747 43.3v40l13.3-9.8q.3-.2.5-.4l.5-.5.2-.4q.1-.3.1-.6 0-.7-.5-.8-.4-.2-1.9-.2l-4.6-.1v-8.2h30.7v8.2q-4.7.1-7.4.8-2.6.6-4.8 2-1.7 1-3.6 2.6-1.8 1.5-4.5 3.5l13.1 18.3q.1.2.1.3l.2.2q.2.2.3.4.2.2.3.4.8 1.2 1.8 2.2 1 .9 2.5.9l2-.1v8h-28.8v-8.1h2.5q1.4.1 2-.2.6-.3.6-1 0-.3-.1-.5-.1-.3-.3-.5-.1-.2-.2-.3 0-.2-.1-.3l-7.8-11.1-6.1 4.6v4.8q0 3.5 1.3 4.1 1.4.5 4 .5v8h-28v-8.1h4.2q2.1.1 2.9-.9.8-1 .8-3.5V55.9q0-2.4-.8-3.3-.8-1-2.9-1l-4.2-.1v-8.2h22.7zM183.134 153.4v24.5l1.9-1.9q1-.9 1.9-1.6 2.4-1.9 5-2.6 2.7-.8 6.3-.8 10.6 0 15 7.6 4.5 7.5 4.8 16.6v1.6q0 11.5-5.9 18.2-5.8 6.7-15.8 6.7-5.5 0-9.4-2.1-3.9-2.1-6.2-6.4l-2.6 6.8h-9.8v-54q0-2.5-.8-3.4-.8-1-2.8-1l-4.1-.1v-8.1h22.5zm-.2 43.4q0 7.8 2.5 11.9 2.5 4.1 7.1 4.1 4.7 0 7.2-4.3t2.5-12.2q0-7.3-2.4-11.5-2.4-4.3-6.5-4.3-5 0-7.7 4.3-2.7 4.2-2.7 12.1zM244.31 172.3l-.5 7.1q1.8-2.2 3.2-3.7 1.4-1.6 2.8-2.5 1.5-1.1 3.1-1.5 1.6-.4 3.6-.4 4.5 0 7.2 3.1 2.7 3 2.7 8.1 0 3.9-2.3 6.3-2.2 2.4-5.9 2.4-3.1 0-5.1-2-2-2.1-2-5.1v-.8q.1-.5.2-.9.2-.9.7-1.8.6-1 1.6-2.3-3.9 0-5.9 3.2-1.9 3.2-2.7 7-.4 1.9-.6 3.8-.1 1.9-.1 3.3v11.8q0 2.6.8 3.6t2.8 1l5.7-.1v8.1h-32.2v-8.1h4.5q2 .1 2.8-.9.8-1 .8-3.5v-22.6q0-2.4-.8-3.3-.8-1-2.8-1l-4.5-.1v-8.2h22.9zM267.538 195.9q.5-11.8 7.4-18.3 7-6.6 19.1-6.6 12.4 0 19.4 6.8 7 6.8 7 18.7 0 11.5-7.2 18.4-7.1 6.8-19.1 6.8-12.4 0-19.5-6.5-7.1-6.6-7.1-19.2zm15.8-.1q0 8.8 2.7 13.4t7.9 4.6q5.2 0 7.9-4.6 2.8-4.6 2.8-13.4 0-7.7-2.9-12.2-2.8-4.6-7.7-4.6-5 0-7.9 4.5-2.8 4.4-2.8 12.4zM362.946 193.1l-10 26.9h-12.4l-12.3-36.1q-.1-.1-.2-.3 0-.2-.1-.4-.6-1.6-1.3-2.2-.6-.6-1.7-.6l-4.3-.1v-8h28.3v8h-3.8q-1.3.1-1.8.5-.4.3-.4 1.1 0 .3.1.6l.2.6q0 .2.1.5.1.2.1.4l6.7 20.5 7.4-20.5q.3-.8.4-1.2.2-.4.2-.7v-.2q0-.8-.5-1-.5-.3-1.9-.3l-2.8-.1v-8.2h27.4v8.2h-3.4q-1.2.1-1.8.5-.6.3-.6 1.1v.1q0 .3.1.7l.4 1.2 6.7 20.4 7.2-20.5q.3-.7.4-1 .1-.3.1-.5v-.2q0-.9-.6-1.3t-2-.4l-2.7-.1v-8.2h20.8v8.2h-2.2q-2.4.1-3.5 1.8-1.1 1.6-1.9 3.6 0 .2-.1.4 0 .1-.1.2-.1.3-.3.7l-.2.6-11.9 32.2h-12.7l-9.1-26.9zM429.527 172.3l-.3 7.3q1.7-1.9 3.2-3.3 1.6-1.5 3.1-2.5 2.3-1.5 4.7-2.1 2.5-.7 5.6-.7 7.4 0 11.6 3.7 4.2 3.7 4.2 10.4v22.3q0 2.6.8 3.6t2.9 1l4.2-.1v8.1h-29v-8.1h2.7q2 .1 2.8-.9.8-1 .8-3.5v-17.6q0-5.1-1.7-7.3-1.6-2.2-5.5-2.2-4.9 0-7.2 2.9-2.2 2.9-2.2 9.1v15q0 2.6.8 3.6t2.8 1l2.5-.1v8.1h-28.5v-8.1h4q2 .1 2.8-.9.8-1 .8-3.5v-22.6q0-2.4-.8-3.3-.8-1-2.8-1l-4-.1v-8.2h21.7zM518.745 172.3h11.6v8.2h-11.1v26.9q0 2.6.8 3.6t2.8 1l5.9-.1v8.1h-32.1v-8.1h4.2q2 .1 2.8-.9.8-1 .8-3.5v-27h-7.8v-8.2h7.8v-.7q0-.4.1-.6.1-5.7.6-8.2.6-2.5 2.2-4.4l.4-.4q.2-.3.4-.5 2.3-2.5 5.4-3.7 3.2-1.3 6.5-1.6.5-.1 1-.1h1.1q5.5 0 8.7 2.7 3.3 2.7 3.3 7.2 0 2.9-1.8 4.8-1.7 1.8-4.5 1.8-2.1 0-3.5-1.5-1.4-1.6-1.4-4v-.7q0-.3.1-.6.1-.6.3-1.2.3-.7.8-1.7-.3-.3-.6-.4l-.4-.2h-.5q-2.1 0-3 2.1-.9 2-.9 6.7v5.2z"/><path d="M531.152 195.9q.5-11.8 7.4-18.3 7-6.6 19.1-6.6 12.4 0 19.4 6.8 7 6.8 7 18.7 0 11.5-7.2 18.4-7.1 6.8-19.1 6.8-12.4 0-19.5-6.5-7.1-6.6-7.1-19.2zm15.8-.1q0 8.8 2.7 13.4t7.9 4.6q5.2 0 7.9-4.6 2.8-4.6 2.8-13.4 0-7.7-2.9-12.2-2.8-4.6-7.7-4.6-5 0-7.9 4.5-2.8 4.4-2.8 12.4z"/><path d="M605.564 197l-11.2-12.9q-.9-1-1.6-1.6-.7-.7-1.3-1.1-.8-.5-1.7-.6-.9-.2-2.3-.2l-2.7-.1v-8.2h31.1v8.2h-3.4q-.9.1-1.3.3-.4.2-.4.7 0 .4.8 1.5.9 1 1.9 2.1l.2.2.2.2q.9 1 1.7 1.9.9.9 1.2 1.3l6.5-6q.4-.2.5-.5.2-.3.2-.6 0-.5-.4-.7-.4-.3-1.5-.3l-2.2-.1v-8.2h23.8v8.2h-2.7q-1.3.1-2.2.2-.8.1-1.3.3-.6.3-1.5 1t-2.6 2.2l-11.3 10 13.1 15q1.2 1.5 2.5 2.2 1.4.6 3.3.6l2.7-.1v8.1h-31.2v-8.1h3.4q1.1.1 1.5-.1.5-.3.5-.8 0-.2-1.1-1.5-1.1-1.4-2.4-2.9-.1-.1-.2-.1v-.2q-1.1-1.2-2-2.2-.9-1.1-1.4-1.6-.3.3-1.5 1.4-1.2 1-2.5 2.3-.2.1-.4.3-.1.2-.2.3-1.4 1.3-2.5 2.5-1 1.2-1 1.7 0 .4.5.7.6.3 1.3.3l3.5-.1v8.1h-24v-8.1q2.2.1 3.7-.2 1.5-.3 2.8-1.1.9-.4 1.7-1.1.9-.7 1.9-1.7l11.5-10.8zM160.157 282.3v51.2q0 8.4-4.5 13.2-4.5 4.8-12.5 4.8-6.4 0-10-3-3.6-3-3.6-8.3 0-3.1 2-5.2 1.9-2.1 4.7-2.1 2.6 0 4.3 1.7 1.7 1.8 1.7 4.6 0 1.6-.9 2.8-.8 1.3-2.2 1.9.1.1.1.2.1.1.1.2.4.6.8.8.5.2 1.3.2 2.2 0 3-1.9.8-1.8.8-7.1v-41.4q0-2.5-.8-3.4-.8-1-2.8-1l-5.7-.1v-8.1h24.2zm-8.4-21.3q3.5.1 5.9 2.5 2.5 2.4 2.5 5.9 0 3.4-2.5 5.9-2.4 2.4-5.9 2.4-3.4 0-5.9-2.4-2.4-2.5-2.4-5.9 0-3.5 2.4-5.9 2.5-2.4 5.9-2.4zM220.74 282.3v35.1q0 2.6.8 3.6t2.8 1l4.4-.1v8.1h-22.8v-6.6q-1.1 1.4-2.1 2.5-1 1-2 1.9-2.5 2.1-5.2 3-2.7.9-6.2.9-7.6 0-11.6-3.7-3.9-3.7-3.9-10.9V295q0-2.5-.8-3.4-.8-1-2.8-1l-3.9-.1v-8.2h22.3v29.5q0 6 1.6 8.2 1.6 2.2 5.9 2.2 4.4 0 6.5-3 2.2-3 2.2-9V295q0-2.5-.8-3.4-.8-1-2.8-1l-4.2-.1v-8.2h22.6zM253.134 282.3l-.3 5.9q2.2-1.9 4-3.3 1.9-1.4 3.7-2.2 1.9-.9 3.9-1.3t4.5-.4q5.1 0 8.6 1.9 3.5 1.8 5.9 5.9.5-.6.9-1.1.5-.5 1-.9 3.3-3.2 6.7-4.5 3.5-1.3 8.3-1.3 6.6 0 10.7 3.7 4.1 3.6 4.1 9.5v23.2q0 2.6.8 3.6t2.9 1l4.2-.1v8.1h-28.5v-8.1q3.1.1 4.4-.5 1.4-.7 1.4-3.9v-18.8q0-4.8-1.6-6.7-1.5-2-5.4-2-4.4 0-6.6 2.9-2.2 2.8-2.2 8.5v16q0 2.6.8 3.6t2.9 1l2.3-.1v8.1h-26.8v-8.1q3 .1 4.5-.4 1.5-.6 1.5-4v-18.8q0-4.6-1.6-6.6-1.6-2.1-5.2-2.1-4.5 0-6.7 2.8t-2.2 8.6v16q0 2.6.8 3.6t2.8 1l2.4-.1v8.1h-28.6v-8.1h4.2q2 .1 2.8-.9.8-1 .8-3.5v-22.6q0-2.4-.8-3.3-.8-1-2.8-1l-4.2-.1v-8.2h21.7zM348.2 282.3l-.3 5.8q3.2-3.7 6.7-5.4 3.6-1.8 8.5-1.8 9.5 0 14.6 6.5 5.1 6.4 5.1 18.4 0 11.9-5.4 18.9-5.4 6.9-14.7 6.9-4.9 0-8.2-1.3-3.3-1.3-6.3-4.4v11.6q0 2.5.8 3.5t2.8 1h4.8v8.1h-30.9V342h4q2.1 0 2.9-1 .8-.9.8-3.5v-42.6q0-2.5-.8-3.4-.8-1-2.9-1l-4-.1v-8.1h22.5zm-.2 23.5v2.8q.1 1.4.3 2.9.5 4.1 2.4 7.6 2 3.5 6.8 3.5 4.7 0 7.1-4.3 2.4-4.3 2.4-12.6 0-7.3-2.3-11.3-2.3-4.1-6.5-4.1-4.9 0-7.5 4-2.5 3.9-2.7 11.6zM429.376 282.4v16.8h-8q-1.8-5-5.5-7.6-3.7-2.7-9-2.7-3.2 0-5.3 1.2-2 1.1-2 3 0 2.6 2.8 3.8 2.9 1.1 7 1.9 1.4.3 2.9.6 1.6.3 3.1.7 5.9 1.4 10.8 4.7 5 3.3 5 11.4 0 7.3-5.2 11.4-5.1 4.1-14.3 4.1-4.8 0-8.2-.9-3.3-.9-6.4-3.1-.5-.4-1.1-.8-.5-.4-1-.9l-.9 4h-7.6v-18h7.6q2 6 5.7 8.9 3.8 2.9 10.2 2.9 3.5 0 5.6-1.2 2.1-1.3 2.1-3.4 0-2.7-3-3.9-3-1.3-7.2-2.2-1.3-.3-2.7-.6-1.3-.3-2.7-.6-5.8-1.4-10.7-4.5-4.9-3.1-4.9-10.6t5.1-11.6q5.1-4.2 14.3-4.2 4.9 0 8.5 1.2 3.7 1.2 7 3.9l.9-3.7h7.1zM459.577 305.9q.5-11.8 7.4-18.3 7-6.6 19.1-6.6 12.4 0 19.4 6.8 7 6.8 7 18.7 0 11.5-7.2 18.4-7.1 6.8-19.1 6.8-12.4 0-19.5-6.5-7.1-6.6-7.1-19.2zm15.8-.1q0 8.8 2.7 13.4t7.9 4.6q5.2 0 7.9-4.6 2.8-4.6 2.8-13.4 0-7.7-2.9-12.2-2.8-4.6-7.7-4.6-5 0-7.9 4.5-2.8 4.4-2.8 12.4zM543.97 315.4l8.7-21.2q.1-.1.1-.2l.2-.4q.2-.5.3-.9.2-.5.2-1 0-.7-.5-.9-.4-.2-1.8-.2l-3.8-.1v-8.2h22.3v8.2h-2.2q-1.6.1-2.6.5-.9.3-1.6 1.6-.3.4-.6 1t-.6 1.4l-14.7 35h-13.2l-14.2-35.8q-.3-.6-.6-1.1-.2-.6-.4-1-.6-.9-1.2-1.2-.6-.3-1.5-.3l-3.6-.1v-8.2h29.9v8.2h-3.8q-1.7.1-2.5.5-.7.4-.7 1.4 0 .4.1 1 .2.6.6 1.6l7.7 20.4zM619.584 308h-34.4q.6 7.7 3.6 11.5 3 3.7 8.6 3.7 4.5 0 7.5-2.4 3.1-2.5 4.5-7.2l9.6-.1q-1 8.3-7.1 13.3-6.1 4.9-15.3 4.9-12.9 0-19.8-6.7-6.8-6.7-6.8-19.3 0-11.1 6.8-17.9 6.9-6.8 18.1-6.8 11.7 0 18.2 6.7 6.6 6.7 6.6 18.7v.6q-.1.2-.1.5v.6zm-15.2-7.6q0-4.3-2.4-7.8-2.3-3.6-7.2-3.6-4.3 0-6.8 3-2.4 2.9-2.7 8.5l19.1-.1zM645.834 282.3l-.5 7.1q1.8-2.2 3.2-3.7 1.4-1.6 2.8-2.5 1.5-1.1 3.1-1.5 1.6-.4 3.6-.4 4.5 0 7.2 3.1 2.7 3 2.7 8.1 0 3.9-2.3 6.3-2.2 2.4-5.9 2.4-3.1 0-5.1-2-2-2.1-2-5.1v-.8q.1-.5.2-.9.2-.9.7-1.8.6-1 1.6-2.3-3.9 0-5.9 3.2-1.9 3.2-2.7 7-.4 1.9-.6 3.8-.1 1.9-.1 3.3v11.8q0 2.6.8 3.6t2.8 1l5.7-.1v8.1h-32.2v-8.1h4.5q2 .1 2.8-.9.8-1 .8-3.5v-22.6q0-2.4-.8-3.3-.8-1-2.8-1l-4.5-.1v-8.2h22.9zM122.63 375.4v17.2h12.1v8.2h-12.1v27.6q0 2.8.6 4 .7 1.1 2.3 1.1 1.7 0 2.4-1.3.8-1.3.8-4.3v-7.7h6.7v8.9q0 6.2-3.3 9.4t-9.7 3.2q-7.1 0-10.9-3.1-3.7-3.2-3.7-9.4v-28.4h-7.1v-7.4q7.2-1.7 10-6.2 2.9-4.5 2.9-11.7l9-.1zM161.987 373.3v25.1q3.4-4 7.1-5.7 3.7-1.8 8.7-1.8 8.8 0 12.3 4.2 3.6 4.1 3.6 12.4v19.9q0 2.6.8 3.6t2.9 1l4.1-.1v8.1h-29.2v-8.1h3q2 .1 2.8-.9.8-1 .8-3.5v-17.8q0-4.9-1.8-7.1-1.7-2.3-5.8-2.3-4.9 0-7.1 3-2.2 3-2.2 9.7v14.4q0 2.6.8 3.6t2.9 1l2.6-.1v8.1h-28.9v-8.1h4.2q2 .1 2.8-.9.8-1 .8-3.5v-41.6q0-2.4-.8-3.3-.8-1-2.8-1l-4.2-.1v-8.2h22.6zM251.033 418h-34.4q.6 7.7 3.6 11.5 3 3.7 8.6 3.7 4.5 0 7.5-2.4 3.1-2.5 4.5-7.2l9.6-.1q-1 8.3-7.1 13.3-6.1 4.9-15.3 4.9-12.9 0-19.8-6.7-6.8-6.7-6.8-19.3 0-11.1 6.8-17.9 6.9-6.8 18.1-6.8 11.7 0 18.2 6.7 6.6 6.7 6.6 18.7v.6q-.1.2-.1.5v.6zm-15.2-7.6q0-4.3-2.4-7.8-2.3-3.6-7.2-3.6-4.3 0-6.8 3-2.4 2.9-2.7 8.5l19.1-.1zM301.915 373.3v54.1q0 2.6.8 3.6t2.7 1l4.5-.1v8.1h-30.7v-8.1h4.2q2.1.1 2.9-.9.8-1 .8-3.5v-41.6q0-2.4-.8-3.3-.8-1-2.9-1l-4.2-.1v-8.2h22.7zM360.352 422.4h6.7v5.7q0 7.1-3.1 10.4-3 3.2-9.5 3.2-5.1 0-8.1-1.7t-4.6-5.4q-3 3.6-6.9 5.4-3.9 1.7-8.6 1.7-6.7 0-10.6-3.5-3.9-3.5-3.9-9.6 0-7.4 4.6-10.1 4.7-2.7 10.3-4l1.6-.4q.9-.2 1.7-.3 4.6-1 8-2.4 3.5-1.5 3.5-5.4 0-3.8-2.9-5.8-2.8-2-8.3-2-1.3 0-2.2.1-.8 0-1.5.2-.5.1-1.1.4-.5.2-1.2.5 2.4.9 3.5 2.3 1.2 1.3 1.2 3.3 0 3.2-2.1 5.2-2.1 1.9-5.5 1.9t-5.6-2.5q-2.2-2.5-2.2-6.3 0-5.9 5.2-9.1 5.3-3.3 14.7-3.3 12.2 0 17.4 3.8 5.2 3.8 5.2 12.5v22.1q0 1.9.4 2.7.5.7 1.6.7 1.3 0 1.8-1t.5-3.5v-5.8zm-19.1-4.7q-.6.3-1.2.5-.5.2-1.1.4l-1.2.4q-.5.2-1.1.4l-1.4.6q-.7.2-1.5.4-.1 0-.2.1h-.2q-2.6.7-4.7 1.9-2 1.2-2 4.5 0 2.5 1.5 4.1 1.6 1.5 4.2 1.5 3.5 0 6.2-2.2 2.7-2.3 2.7-5.1v-7.5zM416.437 392.3v6.5l-29.1 33.1h9q7.9.1 9.7-3.5 1.8-3.7 1.8-10.7l8.6-.1V440h-48.5v-7.6l28.4-31.9h-8.3q-6.4.1-8.2 2.3-1.8 2.2-2.2 10.5l-8.3-.1.5-20.9h46.6zM449.343 424.7l8.9-20.8q.2-.6.3-1 .2-.5.2-.9 0-.9-.5-1.2-.5-.3-1.9-.3l-3.8-.1v-8.1h21.9v8.1h-1.9q-1.4.1-2.2.4-.7.2-1.3 1.2-.4.5-.8 1.2-.3.7-.7 1.7l-18.9 42.5q-3.4 7.6-7.3 10.8-3.9 3.3-9.7 3.3-6.8 0-10.7-3.1-3.8-3.1-3.8-8.7 0-3.9 2.4-6.6 2.5-2.6 6.1-2.6 2.9 0 4.9 1.9 2.1 2 2.1 4.8 0 2.6-1.4 4-1.3 1.5-4.6 2.2.3.4.5.6.2.3.5.5.5.5 1.1.6.7.2 1.7.2 1.9 0 3.4-.8t2.9-2.7q1.1-1.4 2.2-3.6 1.2-2.2 2.5-5.3l-17-39-.4-.6-.2-.6q-.8-1.4-1.8-1.8-.9-.4-3-.4l-2.3-.1v-8.1h30.4v8.1h-4.1q-1.6.1-2.2.4-.6.3-.6 1.2 0 .2.1.6l.3.9 8.7 21.2zM549.376 373.4v54q0 2.6.8 3.6t2.8 1l4-.1v8.1h-21.6v-5.5q-3.1 3.9-6.9 5.5-3.7 1.7-8.9 1.7-9.1 0-14.6-6.7-5.5-6.8-5.5-17.9 0-11.3 5.9-18.7 5.9-7.4 15-7.4 2.9 0 5.1.7 2.2.6 4.3 2.1 1.1.7 2.2 1.7t2.2 2.3V386q0-2.5-.8-3.4-.8-1-2.8-1l-4.3-.1v-8.1h23.1zm-34.1 43.9q0 7.9 2.4 12 2.5 4 7.2 4 4.6 0 7.4-4.5 2.9-4.5 2.9-11.7 0-8-2.6-12.2-2.5-4.2-7.2-4.2t-7.4 4.5q-2.7 4.4-2.7 12.2zM560.148 415.9q.5-11.8 7.4-18.3 7-6.6 19.1-6.6 12.4 0 19.4 6.8 7 6.8 7 18.7 0 11.5-7.2 18.4-7.1 6.8-19.1 6.8-12.4 0-19.5-6.5-7.1-6.6-7.1-19.2zm15.8-.1q0 8.8 2.7 13.4t7.9 4.6q5.2 0 7.9-4.6 2.8-4.6 2.8-13.4 0-7.7-2.9-12.2-2.8-4.6-7.7-4.6-5 0-7.9 4.5-2.8 4.4-2.8 12.4zM655.718 395.1l.6-.6.6-.8q2.2-2.3 4.4-3.3 2.3-1 5.3-1 3.8 0 6.3 2.2t2.5 5.7q0 3-1.8 5t-4.6 2q-2.3 0-3.9-1.4-1.6-1.5-1.6-3.5v-1.1q.1-.5.3-1 .2-.5.5-1 .4-.5.9-1.1-.4-.2-.7-.2-.2-.1-.5-.1h-.1-.1q-1.3 0-2.6.8t-2.4 2.3q2.2 2.4 3.1 5.1.9 2.6.9 6.5 0 8.5-6.1 13.5t-16.7 5q-3.1 0-6-.4-2.8-.5-5.1-1.4-1.4.7-2 1.5-.6.8-.6 2 0 1.9 1.4 2.8 1.4.8 4.3.8h.5q.1-.1.2-.1l20.3-.6q.2.1.4.1.3 0 .5-.1h.8q6.3 0 11.5 2.1t5.2 9.7q0 8-6 11.1-5.9 3.2-13 4-3.2.4-6.3.4-3.1.1-5.7.1-13.4 0-19.1-2.1-5.6-2-5.6-7 0-2.6 1.5-4.3 1.6-1.7 5.2-3.1-3.3-1-4.9-3-1.6-2-1.6-5.4 0-3.9 2-6t4.9-3.9q.4-.3.8-.5l1-.6q-3.7-2.1-5.5-5.6-1.7-3.6-1.7-8.8 0-8.9 6.2-13.9t17.1-5q3.1 0 5.5.4 2.5.4 4.8 1.4 1.1.4 2.3 1.1 1.2.6 2.4 1.4zm-26.1 49.5q-1.4.8-2.1 1.8-.7 1-.7 2.3 0 2.7 3.3 3.9 3.4 1.3 10.5 1.3 9.4 0 13.3-1.1 3.9-1.1 3.9-4 0-2.5-2.4-3.4-2.4-.8-9.7-.8h-16.1zm2.2-35.4q0 5.9 2.2 9.3 2.3 3.4 6 3.4 3.6 0 5.8-3.4 2.3-3.5 2.3-9 0-5.6-2.3-9-2.2-3.4-5.9-3.4t-5.9 3.3q-2.2 3.3-2.2 8.9zM686.223 423.7q3.5.1 6 2.6t2.5 6q0 3.5-2.5 6-2.5 2.4-6 2.4t-6-2.4q-2.5-2.5-2.5-6t2.5-6q2.5-2.5 6-2.5z"/></g></svg>