<svg xmlns="http://www.w3.org/2000/svg" viewBox="0 0 800 500"><path fill="#fff" d="M0 0h800v500H0z"/><g font-weight="400" font-size="100" font-family="Cooper Black" letter-spacing="-.03em" text-anchor="middle" fill="#222"><path d="M181.518 43.35h25.732q4.15-.147 7.568-1.123 1.465-.39 2.588-.39 3.955 0 7.666 5.858 3.76 5.86 3.76 12.06 0 4.25-2.588 6.202-1.953 1.465-4.687 1.465-2.588 0-4.493-1.416-1.904-1.465-3.76-4.785-1.61-3.027-2.538-3.954-.928-.928-2.246-.928-1.807 0-2.588 1.514-.782 1.513-.782 4.98v27.344q0 4.2.88 6.103.878 1.904 3.32 2.93 2.636 1.122 3.564 2.147.977.977.977 2.735 0 3.515-4.785 5.224-4.736 1.71-14.6 1.71-12.11 0-17.968-2.003-4.932-1.66-4.932-5.37 0-2.003 1.758-3.126.44-.244 3.467-1.172 1.856-.537 2.54-2.05.732-1.514 1.17-5.81.392-3.81.733-12.306.342-8.545.342-14.795 0-4.395-.683-6.25-.684-1.856-2.246-1.856-1.905 0-3.71 2.733-3.273 4.98-5.372 6.592-2.49 1.905-4.834 1.905-2.637 0-4.346-1.954-1.71-2.002-1.71-5.078 0-3.027 1.368-6.64 1.367-3.662 3.662-6.74 3.71-4.98 7.324-4.98.977 0 2.246.294 2.637.537 4.297.732 1.71.196 3.908.196z"/><path d="M254.836 45.742l-.635 20.46q-.096 3.66 2.247 3.66 1.172 0 2.295-1.61 4.737-6.885 12.647-6.885 7.762 0 12.352 4.737 2.05 2.1 2.88 4.98.88 2.88.978 8.252l.44 17.627q.048 2.295.585 3.37.586 1.073 2.637 2.685 1.416 1.123 1.416 2.685 0 5.274-15.918 5.274-14.16 0-14.16-4.932 0-.83.244-1.27.244-.44 1.71-2.343 2.05-2.686 2.05-13.428 0-6.494-1.22-9.473-1.613-4.05-5.763-4.05-2.977 0-4.393 2.147-1.026 1.562-1.026 5.86v9.423q.343 6.25.587 7.08.244.83 2.246 3.076.928 1.026.928 2.393 0 5.517-14.355 5.517-16.796 0-16.796-5.713 0-1.32.536-2.002.537-.733 2.636-2.198 1.856-1.318 2.54-7.08.732-5.81.732-19.19 0-10.497-.586-14.55-.195-1.514-.732-2.197-.49-.733-1.905-1.465-3.026-1.562-3.026-3.613 0-2.443 2.295-3.956 2.294-1.514 8.788-3.272 8.79-2.44 14.014-2.44 2.832 0 2.734 2.44zM337.773 88.125h-22.95q-1.512 0-1.512 1.318 0 3.174 3.42 6.006 3.465 2.782 7.42 2.782 2.344 0 5.176-.878 2.88-.928 4.736-2.247 1.66-1.17 2.637-1.17 1.27 0 2.49 1.56 1.22 1.564 1.22 3.224 0 3.516-4.394 6.788-7.764 5.81-17.92 5.81-10.254 0-17.188-5.957-3.37-2.928-5.566-7.08-2.88-5.516-2.88-11.62 0-8.203 4.98-14.746 4.296-5.664 10.937-8.447 4.98-2.1 10.79-2.1 9.277 0 15.77 5.274 3.273 2.637 5.275 6.25 2.295 4.102 2.295 8.008 0 3.174-1.32 5.225-1.317 2.002-3.417 2.002zm-21.68-9.13h4.932q3.125 0 3.125-2.882 0-2.636-1.513-4.297-1.514-1.66-3.955-1.66-2.735 0-4.297 2.15-1.465 2-1.465 4.05 0 1.466.684 2.052.732.586 2.49.586zM393.15 61.367q3.223 0 5.176.293 2.002.293 7.764 1.66 1.562.342 3.027.342 1.758 0 5.176-1.22 2.978-1.075 4.883-1.075 4.297 0 4.297 3.467 0 1.807-.342 4.346-.634 4.54-1.122 14.062-.488 9.522-.488 17.334 0 9.668.537 13.672.293 1.807.683 2.54.44.732 1.953 1.855 2.05 1.562 2.05 3.857 0 6.25-12.89 6.25-9.765 0-16.26-2.734-2.245-.928-3.66-2.49-1.37-1.563-1.37-3.174 0-1.416.636-2.1.683-.684 3.222-1.904 2.88-1.416 2.88-5.762 0-2.49-1.318-2.49-.683 0-4.004 1.66-3.173 1.562-7.91 1.562-9.57 0-15.332-6.884-6.152-7.422-6.152-18.41 0-11.18 7.91-17.92 7.86-6.688 20.654-6.737zm1.465 10.694q-2.1 0-3.906 2.295-2.345 3.028-2.345 9.23 0 7.52 2.588 11.864 2.1 3.564 4.98 3.564 2.442 0 3.32-2.442.88-2.392.88-9.62 0-6.688-.488-9.472-.49-2.832-1.807-4.1-1.416-1.27-3.223-1.32zM452.602 64.15v26.465q0 8.496 5.615 8.496 1.416 0 2.783-.78 1.367-.83 1.904-2.002 1.075-2.344 1.075-10.45 0-8.007-.54-10.937-.194-1.22-.682-1.756-.488-.586-1.856-1.32-2.783-1.464-2.783-3.71 0-3.027 4.784-4.2 9.082-2.245 17.92-2.245 4.932 0 4.932 5.224 0 .537-.05 2.197-.097 2.345-.145 5.714v21.533q0 1.66 2.833 3.027 2.392 1.172 2.392 3.418 0 4.395-10.4 6.787-6.104 1.415-11.817 1.415-2.343 0-3.222-.537-.83-.537-.977-2.1-.245-3.027-1.856-3.027-.586 0-1.075.294-.49.244-2.98 1.953-4.93 3.37-10.595 3.37-9.375 0-13.232-5.42-3.272-4.54-3.272-15.284 0-4.003.05-6.835V81.19q0-4.198-.78-6.15-.734-2.003-2.735-3.126-1.905-.977-2.442-1.562-.488-.586-.488-1.612 0-3.71 5.615-4.93 9.57-2.1 19.14-2.1 2.882 0 2.882 2.44z"/><path d="M517.766 64.736v28.37q0 3.37.586 4.93.634 1.564 2.49 2.882 1.513 1.074 2.002 1.855.537.733.537 1.905 0 6.3-15.966 6.3-8.594 0-13.623-1.37-1.708-.487-2.782-1.708-1.026-1.22-1.026-2.783 0-1.318.538-2.05.537-.733 2.734-2.344 1.514-1.123 2.148-3.662.635-2.54.635-7.568 0-1.61-.244-6.006-.195-4.443-.293-5.175-.293-2-2.734-3.076-3.028-1.318-3.028-3.906 0-3.076 3.955-4.59 5.47-2.1 11.72-3.564 6.25-1.465 9.667-1.465 2.686 0 2.686 3.026zm-9.668-21.386q4.248 0 6.738 1.61 2.49 1.563 2.49 4.25 0 3.76-3.76 5.956-5.957 3.467-14.404 3.467-3.564 0-5.664-1.367-2.832-1.758-2.832-4.883 0-4.2 6.006-6.592 6.103-2.44 11.426-2.44zM551.19 61.367q8.693 0 15.333 4.346 6.3 4.15 6.3 10.303 0 4.248-2.93 6.884-2.735 2.49-6.592 2.49-4.052 0-6.103-2.93-.635-.927-1.855-4.735-1.32-4.102-5.03-4.102-2.685 0-4.54 2.344-1.807 2.344-1.807 5.762 0 5.858 4.2 10.4 3.417 3.66 8.593 3.66 2.44 0 4.1-.39 1.662-.44 4.347-1.71.684-.34 1.514-.34 1.66 0 2.928 1.562 1.27 1.563 1.27 3.662 0 2.197-1.807 4.64-1.805 2.39-4.735 4.198-6.348 3.906-14.99 3.906-10.06 0-17.14-5.86-9.08-7.42-9.08-18.896 0-11.035 8.446-18.26 8.058-6.935 19.58-6.935z"/><path d="M600.877 45.742l-.44 15.283q-.048 2.295-.048 6.74 0 4.93.145 5.81.342 2 2.05 2 1.466 0 4.493-1.854 3.027-1.904 3.027-2.83 0-.538-1.074-1.954-.78-1.026-.78-1.954 0-5.273 12.988-5.273 6.74 0 10.645 1.366 1.562.537 2.588 1.856 1.026 1.318 1.026 2.832 0 2.197-2.1 3.076-.44.195-2.832.635-2.148.39-5.566 2.685-3.418 2.246-3.418 3.272 0 .683 4.102 6.445 4.15 5.713 7.715 9.96 2.294 2.784 3.564 3.907 1.32 1.123 3.614 2.393 3.516 1.904 3.516 4.345 0 2.588-2.246 4.053Q639.646 110 635.79 110h-15.82q-2.98-.05-4.64-2.197l-8.105-10.4q-3.223-4.102-3.955-4.883-.684-.782-1.172-.782-.586 0-.782.88-.195.878-.195 3.32 0 2.197.49 3.222.488.977 2.245 2.393 1.27 1.025 1.27 3.027 0 3.418-3.613 4.932-3.614 1.513-11.914 1.513-9.766 0-12.696-.83-1.66-.488-2.832-1.953-1.172-1.513-1.172-3.174 0-1.855 2.05-3.222 1.76-1.123 2.247-1.71.49-.585.782-1.855 1.123-6.835 1.074-21.092V66.494q0-5.47-.585-6.982-.537-1.514-2.735-1.807-4.003-.537-4.003-3.32 0-1.856 1.757-3.32 1.758-1.514 5.762-2.98 12.793-4.735 18.945-4.735 2.785 0 2.687 2.392zM179.906 156.28l-.635 19.042v1.074q0 .977.636.977.342 0 1.953-1.318 5.712-4.688 12.597-4.688 6.836 0 12.06 4.932 6.544 6.2 6.544 16.16 0 14.21-10.595 22.706-7.617 6.152-17.87 6.152-5.08 0-9.18-1.318-4.054-1.27-8.888-4.395-.732-.44-1.172-.44-.537 0-3.027.93-1.27.487-2.978.487-3.028 0-3.028-1.953 0-.636.244-1.466.977-3.174 1.32-7.86.34-4.69.34-14.845V176.98q0-5.03-.39-6.298-.39-1.27-2.197-2.002-2.54-1.075-3.517-2.1-.977-1.074-.977-2.686 0-3.27 6.983-6.396 3.807-1.66 9.472-2.88 5.712-1.27 9.765-1.27 2.588 0 2.54 2.93zm4.2 29.784q-2.637 0-3.81 1.807-.927 1.368-.927 5.568 0 11.474.78 15.478.684 3.71 4.15 3.71 3.565 0 5.42-3.026 1.856-3.028 1.856-8.79 0-8.496-3.125-12.402-1.805-2.246-4.345-2.344z"/><path d="M236.428 171.66q2.588 0 3.125.733.586.732 1.025 4.687.244 2.15 1.514 2.15.976 0 1.855-1.418 3.907-6.103 10.205-6.103 4.444 0 7.276 2.88 1.367 1.416 2.246 3.662.88 2.197.88 4.248 0 2.295-1.075 4.736-1.076 2.393-2.785 3.955-3.125 2.98-7.666 2.98-2.49 0-4.2-.88-1.66-.878-4.394-3.563-1.026-1.026-1.905-1.026-1.366 0-1.805 1.564-.39 1.513-.39 6.445 0 7.372.536 10.058.343 1.464.93 2.05.634.537 2.636 1.123 4.394 1.32 4.394 4.59 0 2.003-1.416 3.517-1.416 1.465-3.76 1.953-4.687.977-13.77.977-8.642 0-13.134-1.514-4.004-1.367-4.004-4.736 0-2.54 2.93-4.54 1.416-.93 1.953-1.662.536-.78.73-2.1.783-4.443.783-16.454 0-2.197-.49-3.124-.487-.977-1.952-1.563-3.466-1.367-3.466-3.955 0-2.344 2.393-4.004 2.393-1.71 8.008-3.37 7.52-2.245 12.793-2.294z"/><path d="M293.193 171.318q8.936 0 15.674 4.64 4.834 3.32 7.764 8.642 3.028 5.566 3.028 11.62 0 10.596-9.717 18.018-9.276 7.08-21.24 7.08-11.67 0-18.895-6.64-7.032-6.446-7.032-16.797 0-11.523 8.594-18.847 8.985-7.715 21.826-7.715zm-3.906 11.28q-2.148 0-3.467 1.61-1.27 1.563-1.27 4.2 0 2.93 1.075 8.008 1.123 5.03 2.637 8.936 1.513 4.003 4.93 4.003 4.347 0 4.347-5.517 0-4.102-1.124-9.326-1.074-5.225-2.637-8.496-1.612-3.32-4.493-3.418zM374.715 211.553l-5.03-8.057q-1.757-2.734-2.294-3.27-.488-.538-1.318-.538-1.758 0-3.613 3.222l-8.155 14.063q-2.344 4.052-5.274 4.052-1.805 0-3.32-1.22-1.513-1.27-3.27-4.248l-14.65-24.366q-3.66-5.907-5.712-7.713-.976-.782-3.564-1.514-1.075-.342-1.807-1.318-.684-1.026-.684-2.247 0-3.76 5.81-5.273 5.86-1.465 12.794-1.465 15.576 0 15.576 5.81 0 1.075-1.514 3.272-.294.44-.294.928 0 1.074 2.295 5.322 2.54 4.834 4.396 4.834 1.074 0 2.734-2.44 1.66-2.443 1.66-3.956 0-1.514-.732-2.393-.732-.928-3.467-2.88-1.66-1.173-1.66-2.784 0-3.81 7.814-4.98 4.736-.733 11.132-.733 7.373 0 10.645 1.27 3.272 1.22 3.272 4.004 0 1.123-.39 1.806-.39.684-2.1 2.442-.537.586-.537 1.513 0 1.32 2.246 5.567 1.954 3.71 3.566 3.71 1.757 0 4.443-4.736 1.952-3.564 1.952-4.736 0-.928-1.562-2.88-1.123-1.368-1.123-2.98 0-2.538 2.294-3.515 3.224-1.416 9.376-1.416 4.15 0 7.374.634 1.855.39 3.027 1.61 1.172 1.173 1.172 2.735 0 1.562-1.368 2.636-.245.244-3.418 1.367-1.807.684-2.98 1.953-1.17 1.27-2.83 4.54l-12.208 23.634q-5.37 10.352-9.473 10.352-1.757 0-3.906-2.197-2.1-2.246-5.322-7.422z"/><path d="M473.62 189.385l.683 17.187q.097 1.953.586 2.88.536.93 3.026 3.566.732.78.732 2.197 0 3.223-3.857 4.492-3.856 1.27-13.77 1.27-6.737 0-9.52-1.172-2.88-1.22-2.88-3.955 0-.977.292-1.416.293-.49 1.953-2.295 1.953-2.052 1.953-13.673 0-6.738-1.562-9.96-1.27-2.59-4.688-2.59-3.27 0-4.492 2.1-1.22 2.1-1.22 7.618v9.668q0 2.88.34 3.955.392 1.074 2.443 4.15.536.88.536 2.002 0 2.88-4.004 4.248-4.004 1.367-12.5 1.367-13.574 0-13.574-5.615 0-1.172.39-1.758.44-.634 2.002-1.757 1.27-.928 1.612-2.1.34-1.22.634-5.908.342-5.567.342-11.67 0-3.37-.537-4.395-.487-1.074-2.93-2.588-2.098-1.318-2.098-3.222 0-1.953 1.71-3.174 1.708-1.27 7.03-3.174 4.687-1.66 9.033-2.783 4.346-1.17 5.957-1.17 1.465 0 2.442 1.073 1.025 1.074 1.025 2.54 0 .146-.05 1.22-.05.39-.05.684 0 2.343 1.954 2.343 1.172 0 2.49-1.855 4.2-6.055 12.208-6.055 6.152 0 10.547 3.223 3.075 2.295 4.296 5.42 1.22 3.076 1.513 9.082zM529.338 180.45h6.055q1.513 0 2.148.488.685.44.587 1.513l-.39 5.812q-.098 1.758-.538 2.246-.44.44-1.954.44-.342 0-1.61-.098-.88-.05-1.466-.05-2.05 0-2.783 1.368-.733 1.318-.733 5.078 0 5.127 1.123 8.643.44 1.512 1.27 2.245.83.683 2.734 1.22 4.298 1.27 4.298 4.737 0 3.662-5.03 5.273-4.98 1.612-16.405 1.612-16.944 0-16.944-6.74 0-1.66.683-2.44.732-.78 3.125-1.807 2.588-1.172 3.125-4.345.83-4.786.83-10.254 0-2.44-.88-3.37-.83-.975-3.075-.926-2.637 0-3.37-.244-.732-.293-.683-1.32l.39-6.15q.098-1.515.49-1.857.438-.39 2.343-.488 1.806-.098 1.806-1.758 0-.683-1.318-3.125-2.246-4.052-2.246-8.105 0-5.957 4.1-9.717 6.007-5.518 17.238-5.518 9.228 0 14.746 4.346 4.248 3.37 4.248 7.764 0 3.174-2.1 5.37-2.1 2.15-5.224 2.15-3.516 0-6.74-2.442-.78-.635-3.71-3.857-2.1-2.247-4.2-2.247-1.366 0-2.342.977-.977.977-.977 2.393 0 3.857 7.323 8.252 2.246 1.367 3.028 2.148.83.78 1.465 2.197.342.586 1.563.586z"/><path d="M568.623 171.318q8.936 0 15.674 4.64 4.834 3.32 7.764 8.642 3.028 5.566 3.028 11.62 0 10.596-9.717 18.018-9.276 7.08-21.24 7.08-11.67 0-18.896-6.64-7.03-6.446-7.03-16.797 0-11.523 8.593-18.847 8.984-7.715 21.826-7.715zm-3.906 11.28q-2.15 0-3.467 1.61-1.27 1.563-1.27 4.2 0 2.93 1.075 8.008 1.123 5.03 2.636 8.936 1.515 4.003 4.933 4.003 4.346 0 4.346-5.517 0-4.102-1.124-9.326-1.075-5.225-2.637-8.496-1.612-3.32-4.493-3.418z"/><path d="M608.494 192.656l-4.15-5.176q-2.686-3.37-4.2-4.54-1.513-1.172-3.808-1.66-3.857-.83-3.857-3.712 0-2.978 4.93-4.394 4.98-1.465 15.332-1.465 7.52 0 11.182.83 4.053.976 4.053 3.905 0 1.123-1.612 3.662-.293.49-.293 1.026 0 1.025 1.514 2.978 1.562 1.954 2.344 1.954.88 0 2.588-2.148 1.71-2.197 1.71-3.27 0-.783-1.076-2.345-.927-1.366-.927-2.148 0-1.074.78-2.1.83-1.025 2.052-1.513 2.197-.88 7.422-.88 4.54 0 6.297.88 2.442 1.27 2.442 3.612 0 1.27-.685 1.905-.683.634-3.467 1.953-1.513.732-2.295 1.66-.78.88-5.42 7.13l-3.37 5.077q-.585.83-.585 1.123 0 .195.538 1.074l2.93 4.444q4.687 7.08 6.933 9.228 1.073 1.025 3.466 2.1 2.246.976 2.246 3.32 0 3.32-4.102 4.59-4.1 1.22-14.99 1.22-8.35 0-11.67-.78-4.395-1.075-4.395-4.542 0-2.05 2.54-3.222 1.416-.635 1.416-2.15 0-1.61-2-4.393-2.003-2.833-3.126-2.785-1.172.05-3.467 3.516-2.295 3.468-2.295 5.226 0 .83 1.172 2.246 1.025 1.172 1.025 2.637 0 4.247-10.01 4.247-5.47 0-7.862-1.075-2.393-1.074-2.393-3.515 0-1.563.733-2.246.78-.732 2.832-1.122 2.148-.39 3.27-1.758 1.124-1.367 6.935-10.547l3.516-5.81q.49-.782.49-1.124 0-.294-.636-1.124zM162.852 285.566v43.262q0 6.592-1.026 10.156-1.025 3.565-3.515 5.664-2.54 2.1-6.64 3.37-4.053 1.318-8.252 1.318-4.785 0-8.008-1.904-3.174-1.905-3.174-4.737 0-1.27.88-2.197.927-.928 2.196-.928.586 0 1.563.147.977.146 1.22.146.88 0 1.563-.83.733-.83.733-1.855 0-.49-.146-1.367-.342-1.806-.342-3.37v-31.004q0-2.198-.78-3.418-.733-1.22-2.59-1.954-2.782-1.123-2.782-3.37 0-2.587 2.246-4.442 2.246-1.904 7.324-3.516 3.614-1.123 8.79-2.1 5.175-.976 7.665-.976 1.71 0 2.393.88.684.878.684 3.026zM152.5 263.35q4.248 0 6.738 1.61 2.49 1.563 2.49 4.25 0 3.76-3.76 5.956-5.956 3.467-14.404 3.467-3.515 0-5.664-1.367-2.832-1.807-2.832-4.883 0-4.2 6.006-6.592 6.104-2.44 11.426-2.44zM195.105 284.15v26.465q0 8.496 5.616 8.496 1.417 0 2.784-.78 1.367-.83 1.904-2.002 1.074-2.344 1.074-10.45 0-8.007-.537-10.937-.195-1.22-.683-1.756-.49-.586-1.856-1.32-2.783-1.464-2.783-3.71 0-3.027 4.785-4.2 9.082-2.245 17.92-2.245 4.932 0 4.932 5.224 0 .537-.05 2.197-.097 2.345-.146 5.714v21.533q0 1.66 2.833 3.027 2.392 1.172 2.392 3.418 0 4.395-10.4 6.787-6.105 1.415-11.818 1.415-2.343 0-3.222-.537-.83-.537-.977-2.1-.244-3.027-1.855-3.027-.586 0-1.075.294-.488.244-2.978 1.953-4.932 3.37-10.596 3.37-9.376 0-13.233-5.42-3.272-4.54-3.272-15.284 0-4.003.05-6.835v-2.247q0-4.198-.782-6.15-.733-2.003-2.735-3.126-1.904-.976-2.44-1.562-.49-.586-.49-1.612 0-3.71 5.616-4.93 9.57-2.1 19.14-2.1 2.88 0 2.88 2.44z"/><path d="M256.803 281.71q2.783 0 2.783 3.954v.83q-.05.78-.05 1.27 0 2.636 1.564 2.636.83 0 2.588-2.1 2.636-3.027 6.64-4.784 4.004-1.807 8.203-1.807 8.156 0 11.33 5.956 1.22 2.197 2 2.197.538 0 2.54-1.953 6.348-6.2 14.405-6.2 6.3 0 10.302 3.466 4.2 3.613 4.2 10.84 0 1.562-.098 5.273-.1 1.27-.1 7.665 0 4.102-.047 5.762-.05 1.025-.05 1.465 0 3.125 1.954 5.468 1.172 1.416 1.416 1.905.293.44.293 1.22 0 6.25-14.697 6.25-6.496 0-10.5-1.562-3.955-1.563-3.955-4.102 0-.975.245-1.464.293-.537 1.904-2.734 1.514-2.002 1.514-13.33 0-6.592-.928-9.18-1.074-3.076-4.297-3.076-1.61 0-2.88 1.026-1.222.976-1.612 2.49-.44 1.758-.487 9.375.146 8.203.488 9.96.39 1.76 2.49 4.884.49.733.49 1.856 0 5.81-15.186 5.81-9.13 0-12.305-1.367-2.54-1.075-2.54-3.81 0-1.22.293-1.708.342-.488 2.197-2.246 1.074-1.026 1.367-1.905.342-.926.49-3.32.34-5.37.34-10.84 0-9.57-4.882-9.57-3.662 0-4.346 4.103-.587 3.857-.587 11.035 0 5.37.195 7.03.245 1.66 1.22 3.468 1.173 2.1 1.173 3.418 0 3.174-4.442 4.394-4.834 1.32-10.645 1.32-7.52 0-11.035-1.173-3.516-1.22-3.516-3.81 0-.975.44-1.66.488-.683 2.148-2.147 2.197-2.002 2.54-5.518.536-6.055.536-12.55 0-4.638-.488-6.444-.44-1.856-1.953-2.98-1.465-1.122-1.904-1.708-.39-.586-.39-1.61 0-3.273 5.127-5.177 12.353-4.442 18.506-4.49z"/><path d="M350.434 281.61q2.978 0 3.71.538.733.49.733 2.54 0 1.806 1.172 1.806.487 0 3.27-1.855 2.1-1.417 5.323-2.345 3.27-.977 5.908-.977 6.202 0 11.085 4.297 3.71 3.272 5.76 8.252 2.15 5.225 2.15 10.987 0 12.304-8.3 20.263-6.397 6.2-14.552 6.2-4.15 0-8.545-1.952-.878-.39-1.416-.39-1.464 0-1.464 2.93 0 3.857 2.587 5.566 2.393 1.612 2.833 2.15.488.585.488 1.903 0 2.93-3.272 4.493-3.27 1.61-9.228 1.61-10.596 0-18.555-4.247-4.052-2.15-4.052-5.323 0-1.465.586-2.246.635-.732 2.393-1.562 2.54-1.172 3.076-4.248.586-3.076.88-17.676-.343-12.01-.88-13.476-.195-.49-.586-.635-.342-.147-2.392-.537-1.563-.293-2.54-1.416-.976-1.172-.976-2.783 0-1.954 1.366-3.418 1.367-1.515 4.443-2.93 11.962-5.42 18.994-5.52zm4.834 18.458l-.733 13.428q-.05.83-.05 1.61 0 1.515 1.32 2.443 1.318.927 3.515.927 6.74 0 6.74-11.084 0-7.178-2.833-10.108-1.758-1.806-4.2-1.806-3.466 0-3.76 4.588zM409.738 281.367q2.442 0 7.96 1.074 1.122.197 1.855.197.83 0 3.222-.88 1.123-.44 1.905-.44 2.246 0 4.54 2.882 1.856 2.294 3.028 5.03 1.172 2.733 1.172 4.735 0 1.953-1.367 3.27-1.367 1.27-3.418 1.27-1.71 0-3.076-.83-1.32-.83-4.298-3.66-3.125-3.03-5.176-3.03-1.367 0-2.393 1.027-.976.976-.976 2.343 0 2.393 4.59 4.493 8.252 3.71 12.646 8.105 3.71 3.71 3.71 9.082 0 6.787-5.956 11.328-5.127 3.955-12.55 3.955-1.903 0-6.932-.634-4.737-.538-5.323-.538-.634 0-1.465.147-1.416.195-2.05.195-2.295 0-3.614-1.172-2.002-1.806-3.71-5.664-1.71-3.906-1.71-6.69 0-4.49 3.516-4.49 1.366 0 2.49.926 1.17.88 4.833 4.786 2.002 2.148 3.32 2.978 1.32.78 2.833.78 1.61 0 2.588-.83.976-.878.976-2.294 0-2.197-3.76-4.004-7.86-3.857-11.377-7.96-3.466-4.1-3.466-9.47 0-5.812 3.564-10.01 5.08-6.007 13.868-6.007zM487.088 281.318q8.935 0 15.674 4.64 4.834 3.32 7.763 8.642 3.028 5.566 3.028 11.62 0 10.596-9.717 18.018-9.277 7.08-21.24 7.08-11.67 0-18.897-6.64-7.032-6.446-7.032-16.797 0-11.523 8.594-18.847 8.984-7.715 21.826-7.715zm-3.906 11.28q-2.15 0-3.467 1.61-1.27 1.563-1.27 4.2 0 2.93 1.075 8.008 1.123 5.03 2.636 8.936 1.514 4.003 4.932 4.003 4.346 0 4.346-5.517 0-4.102-1.123-9.326-1.074-5.225-2.636-8.496-1.61-3.32-4.492-3.418zM563.043 296.65l-12.647 24.61q-2.93 5.713-4.98 7.96-2.05 2.196-4.395 2.196-2.293 0-3.71-1.66-2.978-3.32-5.224-7.52l-13.867-26.318q-1.124-2.148-2.2-3.076-1.024-.977-2.88-1.465-3.71-1.074-3.71-4.004 0-2.978 4.59-4.346 4.59-1.367 14.5-1.367 8.302 0 12.21 1.22 3.954 1.173 3.954 3.663 0 1.758-1.856 3.37-1.172 1.073-1.514 1.61-.34.538-.34 1.368 0 1.66 2.147 5.518 2.15 3.76 4.005 3.76 1.22 0 2.002-.928.78-.927 2.832-4.785 1.513-2.832 1.513-4.297 0-1.172-1.563-2.783-1.66-1.758-1.66-3.27 0-2.345 3.076-3.37 3.125-1.026 10.205-1.026 9.962 0 9.962 4.296 0 2.49-3.564 3.613-2.783.878-3.81 1.903-.975 1.026-3.075 5.127zM613.754 308.125h-22.95q-1.513 0-1.513 1.318 0 3.174 3.42 6.006 3.466 2.782 7.42 2.782 2.345 0 5.177-.878 2.88-.928 4.736-2.247 1.66-1.17 2.637-1.17 1.27 0 2.49 1.56 1.22 1.564 1.22 3.224 0 3.516-4.394 6.788-7.764 5.81-17.92 5.81-10.254 0-17.187-5.957-3.37-2.928-5.568-7.08-2.88-5.516-2.88-11.62 0-8.203 4.98-14.746 4.297-5.664 10.937-8.447 4.98-2.1 10.79-2.1 9.278 0 15.772 5.274 3.27 2.637 5.273 6.25 2.295 4.102 2.295 8.008 0 3.174-1.318 5.225-1.318 2.002-3.418 2.002zm-21.68-9.13h4.932q3.125 0 3.125-2.882 0-2.636-1.513-4.297-1.513-1.66-3.955-1.66-2.734 0-4.297 2.15-1.465 2-1.465 4.05 0 1.466.684 2.052.732.586 2.49.586z"/><path d="M641.564 281.66q2.588 0 3.125.733.585.732 1.025 4.687.244 2.15 1.514 2.15.975 0 1.854-1.418 3.906-6.103 10.205-6.103 4.442 0 7.274 2.88 1.368 1.416 2.247 3.662.88 2.197.88 4.248 0 2.295-1.075 4.736-1.074 2.393-2.783 3.955-3.125 2.98-7.666 2.98-2.49 0-4.2-.88-1.66-.878-4.394-3.563-1.025-1.026-1.904-1.026-1.367 0-1.807 1.564-.39 1.513-.39 6.445 0 7.372.538 10.058.342 1.464.928 2.05.634.537 2.636 1.123 4.395 1.32 4.395 4.59 0 2.003-1.416 3.517-1.415 1.465-3.76 1.953-4.686.977-13.77.977-8.64 0-13.133-1.514-4.004-1.367-4.004-4.736 0-2.54 2.93-4.54 1.416-.93 1.953-1.662.537-.78.732-2.1.78-4.443.78-16.454 0-2.197-.487-3.124-.487-.977-1.952-1.563-3.467-1.367-3.467-3.955 0-2.344 2.394-4.004 2.392-1.71 8.007-3.37 7.52-2.245 12.794-2.294zM130.207 404.16v16.504q0 2.93 1.416 4.785 1.465 1.855 3.71 1.855 1.905 0 5.03-1.758.733-.44 1.465-.44 1.172 0 2.15 1.416.975 1.416.975 3.077 0 3.027-3.32 5.81-6.934 5.908-16.797 5.908-7.813 0-12.55-4.394-4.735-4.444-4.735-11.67v-22.56q0-1.122-.292-1.366-.244-.293-1.367-.293h-5.03q-1.415 0-1.805-.44-.39-.488-.39-2.197v-2.148q.048-1.465 1.122-2.148l22.363-14.063q.83-.44 2.05-.44h3.956q1.22 0 1.612.586.44.537.44 2.197v6.592q0 1.464.438 1.904.49.438 2.002.438h9.034q1.806 0 2.343.684.538.635.538 2.783v2.88q0 2.345-.684 3.272-.685.88-2.49.88h-8.84q-1.366 0-1.855.488-.488.488-.488 1.855z"/><path d="M172.03 375.742l-.634 20.46q-.097 3.66 2.247 3.66 1.17 0 2.295-1.61 4.736-6.885 12.646-6.885 7.764 0 12.353 4.737 2.05 2.1 2.88 4.98.88 2.88.978 8.252l.44 17.627q.048 2.295.585 3.37.586 1.073 2.637 2.685 1.416 1.123 1.416 2.685 0 5.274-15.918 5.274-14.16 0-14.16-4.932 0-.83.244-1.27.243-.44 1.708-2.343 2.05-2.686 2.05-13.428 0-6.494-1.22-9.473-1.61-4.05-5.762-4.05-2.978 0-4.394 2.147-1.026 1.562-1.026 5.86v9.423q.342 6.25.586 7.08.245.83 2.247 3.076.926 1.026.926 2.393 0 5.517-14.355 5.517-16.796 0-16.796-5.713 0-1.32.537-2.002.538-.733 2.638-2.198 1.855-1.318 2.54-7.08.73-5.81.73-19.19 0-10.497-.585-14.55-.195-1.514-.732-2.197-.487-.733-1.903-1.465-3.028-1.562-3.028-3.613 0-2.443 2.294-3.956 2.295-1.514 8.79-3.272 8.788-2.44 14.013-2.44 2.832 0 2.734 2.44zM254.97 418.125h-22.95q-1.514 0-1.514 1.318 0 3.174 3.418 6.006 3.467 2.782 7.422 2.782 2.343 0 5.175-.878 2.882-.928 4.738-2.247 1.66-1.17 2.637-1.17 1.27 0 2.49 1.56 1.22 1.564 1.22 3.224 0 3.516-4.394 6.788-7.763 5.81-17.92 5.81-10.253 0-17.186-5.957-3.37-2.928-5.567-7.08-2.88-5.516-2.88-11.62 0-8.203 4.98-14.746 4.297-5.664 10.937-8.447 4.98-2.1 10.79-2.1 9.28 0 15.773 5.274 3.27 2.637 5.273 6.25 2.295 4.102 2.295 8.008 0 3.174-1.318 5.225-1.32 2.002-3.418 2.002zm-21.68-9.13h4.93q3.126 0 3.126-2.882 0-2.636-1.514-4.297-1.514-1.66-3.955-1.66-2.734 0-4.297 2.15-1.465 2-1.465 4.05 0 1.466.684 2.052.73.586 2.49.586zM309.857 401.28v15.673q0 10.4.293 12.11.342 1.708 2.442 2.636 1.806.78 2.392 1.464.635.684.635 1.953 0 1.612-1.173 2.93-1.123 1.318-3.027 1.855-3.516 1.075-11.865 1.075-9.424 0-13.233-1.416-1.758-.634-2.88-1.953-1.124-1.367-1.124-2.832 0-1.17.586-1.806.635-.636 2.686-1.515 1.904-.83 2.344-4.54.78-6.35.78-18.067 0-11.914-.683-15.332-.682-3.418-3.417-5.078-2.05-1.172-2.832-2.198-.73-1.074-.73-2.588 0-2.392 2.294-4.15 2.295-1.807 7.324-3.32 3.37-1.026 8.74-1.953 5.37-.93 7.813-.93 3.858 0 3.858 4.786 0 1.562-.488 7.178-.635 8.74-.733 16.015z"/><path d="M343.38 391.318q8.497 0 14.405 4.297 3.125 2.295 4.346 5.274 1.27 2.928 1.27 8.104l-.097 7.276q0 7.568 1.074 9.814.537 1.074 1.025 1.367.49.294 2.05.538 1.564.244 1.564 2.05 0 2.345-1.905 4.884-1.854 2.54-4.833 4.248-3.662 2.148-7.666 2.148-5.126 0-8.104-3.515-1.026-1.27-1.904-1.27-.977 0-2.588 1.22-4.883 3.565-11.084 3.565-6.397 0-10.352-2.734-2.588-1.807-4.1-4.688-1.515-2.93-1.515-6.103 0-5.078 4.1-8.984 6.398-6.154 19.142-6.203 2.832 0 3.564-.537.732-.586.732-2.636 0-5.176-1.074-7.47-1.075-2.345-3.516-2.345-1.465 0-2.637.878-1.123.88-2.832 3.223-4.345 6.202-9.082 6.202-2.39 0-3.905-1.416-1.514-1.416-1.514-3.71 0-2.345 1.857-4.69 1.904-2.342 5.127-4.1 8.838-4.688 18.457-4.688zm-3.27 28.272q-2.15 0-3.76 1.758-1.563 1.757-1.563 4.2 0 2.343 1.123 3.807 1.123 1.416 2.98 1.416 3.905 0 3.905-6.59 0-2.686-.586-3.614-.538-.927-2.1-.976z"/><path d="M394.092 392.588h12.94q4.49 0 5.712.195 1.27.147 1.904.83.83.83.83 2.198 0 1.807-1.61 4.64l-12.94 22.997q-1.612 2.88-1.612 4.053 0 2.295 3.467 2.295 2.49 0 3.955-.977 1.514-1.025 2.832-3.515 1.123-2.246 1.856-2.98.732-.78 1.758-.78 2.148 0 3.515 1.71 1.366 1.708 1.366 4.393 0 3.028-1.66 6.495-1.66 3.42-4.2 5.714-1.903 1.708-3.612 1.708-.733 0-1.905-.488-2.393-1.025-5.665-1.074H375.44q-6.495 0-6.495-3.76 0-.83.49-1.758.487-.927 3.417-5.81l11.18-17.97q3.126-4.98 3.126-6.298 0-1.953-4.1-1.953-2.1 0-3.37.83-1.22.783-2.637 2.98-1.61 2.636-2.49 3.418-.83.732-2.246.732-1.904 0-3.125-1.465-1.22-1.513-1.22-3.808 0-4.395 2.977-9.473 2.832-4.834 5.42-4.834.586 0 1.563.342 2.685.928 4.248 1.074 1.61.147 11.914.342z"/><path d="M464.04 415.39l-6.444 17.725q-2.393 6.592-4.834 10.742-2.393 4.2-5.47 7.13-6.347 6.054-15.282 6.054-7.227 0-11.72-3.808-3.466-2.93-3.466-7.47 0-3.76 2.393-6.3 2.44-2.587 5.957-2.587 3.515 0 5.664 2.344 1.025 1.073 1.367 1.903.342.83 1.025 3.662.538 2.15 2.442 2.15 1.514 0 2.54-1.32 1.024-1.318 1.024-3.27 0-2.296-2.54-7.667l-11.766-25.05q-1.856-3.905-2.784-4.882-.927-.976-4.1-2.392-.978-.39-1.71-1.514-.684-1.172-.684-2.246 0-4.346 8.643-5.908 5.762-1.026 13.135-1.026 5.175 0 8.154 1.074 4.004 1.416 4.004 4.834 0 1.22-1.123 2.88-1.074 1.564-1.074 2.784 0 1.172.49 2.442.536 1.27 2.196 4.297 1.856 3.42 3.272 3.42 1.513 0 3.125-2.98 1.61-3.027 1.61-5.81 0-2.246-1.22-3.662-1.855-2.198-1.855-3.76 0-2.49 3.32-3.955 3.32-1.514 8.887-1.514 10.35 0 10.35 4.98 0 1.806-1.073 2.93-1.025 1.073-3.808 2.05-2.344.88-3.71 2.93-2.15 3.27-4.933 10.79zM555.502 377.256v44.58q0 3.81.293 4.883.342 1.073 1.807 2.098 1.757 1.22 2.343 2.15.635.927.635 2.245 0 3.906-7.86 5.957-7.08 1.807-14.16 1.807-1.564 0-2.052-.49-.44-.438-.586-2.196-.244-2.49-1.758-2.49-.83 0-2.588 1.466-4.98 4.052-11.084 4.052-7.568 0-13.623-5.615-3.565-3.37-5.763-7.764-2.93-5.713-2.93-11.573 0-6.885 3.81-13.28 3.515-5.91 9.57-9.083 5.078-2.637 10.01-2.637 5.663 0 10.156 2.54.732.39 1.172.39 1.562 0 1.562-4.2 0-1.806-.88-2.734-.83-.976-3.026-1.66-3.075-.976-3.075-3.418 0-3.564 7.08-5.566 12.5-3.468 16.748-3.468 4.2 0 4.2 4.004zm-26.514 24.56q-3.174 0-5.03 3.37-2.49 4.492-2.49 11.816 0 6.64 2.393 10.01 1.71 2.44 4.64 2.44 3.174 0 4.59-3.66 1.465-3.712 1.465-11.915 0-7.52-1.71-10.01-1.318-1.953-3.857-2.05zM590.686 391.318q8.935 0 15.673 4.64 4.833 3.32 7.763 8.642 3.027 5.566 3.027 11.62 0 10.596-9.716 18.018-9.278 7.08-21.24 7.08-11.67 0-18.897-6.64-7.03-6.446-7.03-16.797 0-11.523 8.592-18.847 8.984-7.715 21.826-7.715zm-3.907 11.28q-2.15 0-3.467 1.61-1.27 1.563-1.27 4.2 0 2.93 1.074 8.008 1.123 5.03 2.637 8.936 1.514 4.003 4.932 4.003 4.345 0 4.345-5.517 0-4.102-1.122-9.326-1.074-5.225-2.637-8.496-1.61-3.32-4.49-3.418zM669.52 388.73q1.222 0 2.15 1.416.928 1.368.928 3.223 0 2-1.27 4.54-1.22 2.54-2.978 4.053-1.123.976-1.123 1.562 0 .147.097 1.172.147 1.026.147 1.856 0 5.81-3.906 9.765-3.515 3.516-9.082 5.47-5.517 1.952-12.158 1.952-1.61 0-3.174-.195-1.27-.147-1.953-.147-2.588 0-2.588 2.588 0 1.66 1.66 2.637 1.71.928 4.59.928 1.953 0 5.76-.536 8.01-1.123 11.818-1.123 5.76 0 8.935 1.905 2.54 1.465 4.004 4.1 1.514 2.638 1.514 5.666 0 4.932-3.613 9.57-4.296 5.47-12.646 8.106-6.542 2.05-15.136 2.05-10.84 0-17.578-3.32-3.125-1.562-4.98-4.1-1.856-2.54-1.856-5.274 0-1.904 1.026-3.516 1.074-1.61 2.685-2.295 1.466-.585 1.466-1.268 0-.537-1.22-1.563-3.907-3.272-3.907-6.788 0-2.344 1.854-4.834 1.905-2.49 4.688-3.857 1.172-.585 1.172-1.17 0-.685-1.465-2.052-5.03-4.64-5.03-10.84 0-3.27 1.757-6.25 1.807-2.978 4.98-5.078 7.862-5.127 17.433-5.127 3.808 0 8.496.977 4.443.88 6.103.88 5.32 0 10.595-4.2 1.172-.88 1.807-.88zm-26.512 10.108q-2.442 0-3.955 1.855-1.465 1.856-1.465 4.932 0 5.273 1.61 8.447 1.613 3.174 4.25 3.174 2.587 0 4.1-1.953 1.514-2.002 1.514-5.322 0-5.224-1.61-8.105-1.563-2.93-4.444-3.027zm-10.645 44.433q-1.22 0-1.22 1.418 0 2.88 3.125 4.638 3.125 1.807 8.105 1.807 4.785 0 7.47-1.27 2.735-1.27 2.735-3.564 0-1.222-1.025-2.1-1.026-.83-2.54-.83-.78 0-2.245.194-2.735.44-6.104.44-2.49 0-4.785-.244-1.71-.147-2.784-.39-.49-.1-.733-.1zM685.613 418.27q4.64 0 8.057 3.224 3.467 3.272 3.467 8.447 0 4.835-3.467 8.156-3.418 3.222-8.057 3.222-4.638 0-8.056-3.222-3.467-3.32-3.467-8.3 0-5.08 3.467-8.302 3.418-3.174 8.056-3.223z"/></g></svg>