<svg xmlns="http://www.w3.org/2000/svg" viewBox="0 0 1600 1000" height="1000" width="1600"><path fill="#fff" d="M0 0h1600v1000H0z"/><g font-weight="400" font-size="200" font-family="Cooper Black" letter-spacing="-.03em" text-anchor="middle" fill="#222"><path d="M363.035 86.7H414.5q8.3-.294 15.137-2.247 2.93-.78 5.176-.78 7.91 0 15.332 11.718 7.52 11.72 7.52 24.122 0 8.496-5.177 12.402-3.906 2.93-9.375 2.93-5.176 0-8.984-2.832-3.81-2.93-7.52-9.57-3.223-6.055-5.08-7.91-1.854-1.856-4.49-1.856-3.614 0-5.177 3.027-1.562 3.027-1.562 9.96v54.69q0 8.397 1.76 12.206 1.756 3.807 6.64 5.858 5.273 2.246 7.128 4.297 1.953 1.953 1.953 5.47 0 7.03-9.57 10.448-9.472 3.418-29.198 3.418-24.22 0-35.938-4.003-9.863-3.32-9.863-10.742 0-4.004 3.517-6.25.878-.49 6.933-2.344 3.71-1.073 5.078-4.1 1.465-3.028 2.344-11.622.78-7.617 1.465-24.61.683-17.09.683-29.59 0-8.788-1.367-12.5-1.367-3.71-4.492-3.71-3.808 0-7.42 5.47-6.544 9.96-10.743 13.182-4.98 3.81-9.668 3.81-5.274 0-8.692-3.907-3.418-4.004-3.418-10.156 0-6.055 2.734-13.282 2.734-7.324 7.324-13.476 7.422-9.962 14.65-9.962 1.952 0 4.49.586 5.274 1.074 8.595 1.465 3.418.39 7.812.39z"/><path d="M509.672 91.484l-1.27 40.918q-.195 7.325 4.493 7.325 2.343 0 4.59-3.223 9.472-13.77 25.292-13.77 15.528 0 24.707 9.473 4.102 4.2 5.762 9.96 1.758 5.763 1.953 16.505l.878 35.254q.098 4.59 1.172 6.738 1.172 2.15 5.273 5.37 2.832 2.247 2.832 5.372 0 10.547-31.835 10.547-28.32 0-28.32-9.863 0-1.66.488-2.54.488-.878 3.417-4.687 4.102-5.37 4.102-26.855 0-12.988-2.44-18.945-3.224-8.106-11.525-8.106-5.957 0-8.79 4.297-2.05 3.125-2.05 11.72v18.846q.684 12.5 1.172 14.16.49 1.66 4.492 6.153 1.856 2.05 1.856 4.785 0 11.035-28.71 11.035-33.595 0-33.595-11.426 0-2.636 1.074-4.004 1.076-1.464 5.275-4.394 3.71-2.638 5.078-14.16 1.465-11.622 1.465-38.38 0-20.996-1.172-29.102-.39-3.027-1.465-4.394-.975-1.465-3.807-2.93-6.055-3.125-6.055-7.226 0-4.883 4.59-7.91 4.59-3.028 17.578-6.544 17.578-4.882 28.027-4.882 5.664 0 5.47 4.882zM675.547 176.25h-45.9q-3.026 0-3.026 2.637 0 6.347 6.837 12.01 6.934 5.568 14.844 5.568 4.688 0 10.352-1.758 5.762-1.855 9.473-4.492 3.32-2.344 5.273-2.344 2.54 0 4.98 3.126 2.442 3.125 2.442 6.445 0 7.033-8.79 13.576-15.526 11.62-35.84 11.62-20.506 0-34.374-11.913-6.738-5.86-11.132-14.16-5.762-11.036-5.762-23.243 0-16.406 9.96-29.492 8.595-11.328 21.876-16.894 9.96-4.2 21.582-4.2 18.555 0 31.543 10.547 6.543 5.275 10.547 12.5 4.59 8.204 4.59 16.017 0 6.348-2.637 10.45-2.637 4.003-6.836 4.003zm-43.36-18.262h9.864q6.25 0 6.25-5.76 0-5.275-3.027-8.595-3.027-3.32-7.91-3.32-5.468 0-8.593 4.296-2.93 4.003-2.93 8.105 0 2.93 1.367 4.1 1.465 1.173 4.98 1.173zM786.3 122.734q6.446 0 10.352.586 4.004.586 15.528 3.32 3.125.684 6.054.684 3.516 0 10.352-2.44 5.957-2.15 9.766-2.15 8.593 0 8.593 6.934 0 3.613-.683 8.69-1.27 9.083-2.246 28.126-.977 19.043-.977 34.668 0 19.336 1.073 27.344.586 3.613 1.367 5.078.88 1.465 3.907 3.71 4.1 3.126 4.1 7.716 0 12.5-25.78 12.5-19.53 0-32.52-5.47-4.492-1.854-7.324-4.98-2.734-3.124-2.734-6.347 0-2.832 1.268-4.2 1.368-1.366 6.446-3.808 5.76-2.832 5.76-11.523 0-4.98-2.635-4.98-1.368 0-8.01 3.32-6.347 3.125-15.82 3.125-19.14 0-30.663-13.77-12.305-14.844-12.305-36.816 0-22.362 15.82-35.84 15.723-13.378 41.31-13.476zm2.93 21.387q-4.2 0-7.812 4.59-4.688 6.056-4.688 18.458 0 15.04 5.176 23.73 4.2 7.13 9.96 7.13 4.884 0 6.642-4.883 1.758-4.786 1.758-19.24 0-13.378-.977-18.944-.977-5.663-3.614-8.202-2.832-2.54-6.446-2.637zM905.203 128.3v52.93q0 16.993 11.23 16.993 2.833 0 5.567-1.563 2.734-1.66 3.81-4.004 2.147-4.687 2.147-20.898 0-16.016-1.074-21.875-.39-2.442-1.367-3.516-.977-1.172-3.71-2.637-5.568-2.93-5.568-7.42 0-6.056 9.57-8.4 18.165-4.492 35.84-4.492 9.864 0 9.864 10.45 0 1.073-.098 4.394-.195 4.687-.293 11.426v43.066q0 3.32 5.665 6.055 4.785 2.342 4.785 6.835 0 8.79-20.8 13.574-12.208 2.83-23.633 2.83-4.688 0-6.446-1.073-1.66-1.075-1.952-4.2-.488-6.054-3.71-6.054-1.173 0-2.15.586-.976.487-5.956 3.905-9.863 6.738-21.192 6.738-18.75 0-26.464-10.84-6.543-9.082-6.543-30.566 0-8.008.097-13.672v-4.492q0-8.4-1.562-12.305-1.465-4.004-5.47-6.25-3.808-1.953-4.882-3.125-.976-1.172-.976-3.223 0-7.42 11.23-9.863 19.14-4.2 38.28-4.2 5.763 0 5.763 4.884z"/><path d="M1035.53 129.473v56.738q0 6.74 1.173 9.864 1.27 3.125 4.98 5.762 3.028 2.148 4.005 3.71 1.074 1.466 1.074 3.81 0 12.597-31.934 12.597-17.187 0-27.246-2.734-3.418-.978-5.566-3.42-2.05-2.44-2.05-5.566 0-2.636 1.073-4.1 1.073-1.466 5.468-4.69 3.027-2.245 4.297-7.323 1.27-5.077 1.27-15.136 0-3.222-.49-12.01-.39-8.888-.585-10.353-.586-4.003-5.47-6.15-6.053-2.638-6.053-7.814 0-6.152 7.91-9.18 10.937-4.2 23.437-7.128 12.5-2.93 19.336-2.93 5.37 0 5.37 6.055zM1016.196 86.7q8.496 0 13.477 3.222 4.98 3.125 4.98 8.496 0 7.52-7.52 11.914-11.913 6.934-28.808 6.934-7.13 0-11.328-2.735-5.664-3.514-5.664-9.764 0-8.4 12.012-13.184 12.207-4.883 22.85-4.883zM1102.383 122.734q17.383 0 30.664 8.692 12.598 8.3 12.598 20.605 0 8.497-5.86 13.77-5.47 4.98-13.183 4.98-8.106 0-12.208-5.858-1.27-1.856-3.71-9.473-2.637-8.204-10.06-8.204-5.37 0-9.08 4.688-3.614 4.687-3.614 11.523 0 11.72 8.398 20.8 6.836 7.325 17.188 7.325 4.882 0 8.203-.78 3.32-.88 8.69-3.42 1.367-.683 3.027-.683 3.32 0 5.86 3.124 2.54 3.125 2.54 7.324 0 4.395-3.614 9.278-3.614 4.785-9.473 8.398-12.695 7.813-29.98 7.813-20.118 0-34.278-11.72-18.164-14.843-18.164-37.792 0-22.07 16.895-36.523 16.113-13.868 39.16-13.868z"/><path d="M1201.754 91.484l-.88 30.567q-.097 4.59-.097 13.477 0 9.864.293 11.62.684 4.005 4.102 4.005 2.93 0 8.984-3.71 6.055-3.81 6.055-5.665 0-1.074-2.148-3.906-1.562-2.05-1.562-3.905 0-10.547 25.976-10.547 13.477 0 21.29 2.734 3.124 1.075 5.175 3.71 2.052 2.638 2.052 5.665 0 4.395-4.2 6.153-.878.39-5.663 1.27-4.298.78-11.134 5.37-6.836 4.493-6.836 6.543 0 1.367 8.203 12.89 8.3 11.427 15.43 19.923 4.59 5.566 7.13 7.812 2.635 2.246 7.225 4.785 7.03 3.81 7.03 8.692 0 5.176-4.49 8.105-4.395 2.93-12.11 2.93h-31.64q-5.958-.098-9.278-4.395l-16.21-20.8q-6.446-8.203-7.91-9.766-1.368-1.563-2.345-1.563-1.172 0-1.562 1.757-.39 1.758-.39 6.64 0 4.396.976 6.446.975 1.953 4.49 4.785 2.54 2.05 2.54 6.055 0 6.836-7.227 9.863-7.226 3.028-23.828 3.028-19.53 0-25.39-1.66-3.32-.976-5.664-3.906-2.343-3.027-2.343-6.347 0-3.71 4.1-6.446 3.517-2.245 4.494-3.417.977-1.17 1.563-3.71 2.246-13.672 2.15-42.188v-21.387q0-10.937-1.173-13.965-1.075-3.027-5.47-3.613-8.007-1.074-8.007-6.64 0-3.71 3.516-6.64 3.514-3.028 11.522-5.958 25.586-9.473 37.89-9.473 5.567 0 5.372 4.784zM359.813 312.56l-1.27 38.085v2.148q0 1.953 1.27 1.953.683 0 3.906-2.637 11.425-9.376 25.194-9.376 13.672 0 24.12 9.864 13.087 12.402 13.087 32.324 0 28.418-21.19 45.41-15.235 12.305-35.742 12.305-10.157 0-18.36-2.637-8.105-2.54-17.773-8.79-1.465-.878-2.344-.878-1.073 0-6.054 1.855-2.54.977-5.957.977-6.055 0-6.055-3.906 0-1.27.488-2.93 1.953-6.348 2.637-15.723.683-9.375.683-29.687v-26.953q0-10.06-.78-12.598-.782-2.54-4.396-4.004-5.078-2.148-7.03-4.2-1.954-2.147-1.954-5.37 0-6.543 13.965-12.793 7.617-3.32 18.945-5.762 11.426-2.54 19.53-2.54 5.177 0 5.08 5.86zm8.398 59.57q-5.272 0-7.616 3.612-1.856 2.735-1.856 11.133 0 22.95 1.563 30.957 1.368 7.422 8.302 7.422 7.128 0 10.84-6.055 3.71-6.055 3.71-17.58 0-16.99-6.25-24.804-3.613-4.492-8.69-4.687z"/><path d="M472.855 343.32q5.176 0 6.25 1.465 1.172 1.465 2.05 9.375.49 4.297 3.03 4.297 1.952 0 3.71-2.832 7.812-12.207 20.41-12.207 8.886 0 14.55 5.762 2.735 2.832 4.493 7.324 1.757 4.394 1.757 8.496 0 4.59-2.148 9.473-2.148 4.785-5.566 7.91-6.25 5.957-15.33 5.957-4.982 0-8.4-1.758-3.32-1.758-8.79-7.13-2.05-2.05-3.808-2.05-2.734 0-3.613 3.125-.782 3.028-.782 12.89 0 14.747 1.074 20.118.684 2.93 1.856 4.102 1.27 1.074 5.273 2.246 8.79 2.637 8.79 9.18 0 4.003-2.832 7.03-2.832 2.93-7.52 3.907-9.374 1.953-27.538 1.953-17.286 0-26.27-3.027-8.008-2.735-8.008-9.473 0-5.078 5.86-9.082 2.832-1.854 3.906-3.32 1.074-1.562 1.465-4.198 1.562-8.887 1.562-32.91 0-4.395-.976-6.25-.978-1.954-3.908-3.126-6.933-2.734-6.933-7.91 0-4.687 4.784-8.008 4.785-3.418 16.016-6.738 15.04-4.492 25.585-4.59z"/><path d="M586.387 342.637q17.87 0 31.347 9.277 9.668 6.64 15.528 17.285 6.054 11.132 6.054 23.24 0 21.193-19.433 36.037-18.555 14.16-42.48 14.16-23.34 0-37.794-13.282-14.063-12.89-14.063-33.593 0-23.047 17.187-37.696 17.97-15.43 43.653-15.43zm-7.813 22.558q-4.297 0-6.933 3.223-2.538 3.125-2.538 8.398 0 5.86 2.148 16.016 2.246 10.06 5.273 17.87 3.028 8.01 9.864 8.01 8.69 0 8.69-11.036 0-8.203-2.245-18.653-2.148-10.45-5.273-16.992-3.224-6.64-8.986-6.835zM749.43 423.105l-10.06-16.113q-3.515-5.47-4.59-6.543-.975-1.075-2.635-1.075-3.516 0-7.227 6.445l-16.31 28.125q-4.686 8.106-10.545 8.106-3.614 0-6.64-2.44-3.028-2.54-6.544-8.497l-29.298-48.73q-7.324-11.817-11.426-15.43-1.953-1.562-7.13-3.027-2.147-.684-3.612-2.637-1.367-2.052-1.367-4.493 0-7.52 11.62-10.547 11.72-2.93 25.587-2.93 31.152 0 31.152 11.62 0 2.15-3.027 6.544-.587.88-.587 1.856 0 2.148 4.59 10.644 5.078 9.668 8.79 9.668 2.147 0 5.468-4.882 3.32-4.883 3.32-7.91 0-3.028-1.464-4.786-1.465-1.855-6.933-5.76-3.32-2.345-3.32-5.568 0-7.617 15.624-9.96 9.473-1.466 22.266-1.466 14.746 0 21.29 2.54 6.542 2.44 6.542 8.007 0 2.246-.78 3.613-.783 1.368-4.2 4.883-1.075 1.172-1.075 3.028 0 2.637 4.492 11.133 3.907 7.422 7.13 7.422 3.515 0 8.886-9.472 3.906-7.13 3.906-9.473 0-1.855-3.125-5.762-2.247-2.734-2.247-5.957 0-5.077 4.59-7.03 6.445-2.832 18.75-2.832 8.3 0 14.746 1.27 3.71.78 6.054 3.222 2.344 2.344 2.344 5.47 0 3.124-2.735 5.272-.488.49-6.836 2.735-3.613 1.367-5.957 3.906-2.344 2.54-5.664 9.082l-24.414 47.266q-10.742 20.704-18.945 20.704-3.516 0-7.813-4.395-4.2-4.493-10.644-14.845z"/><path d="M947.238 378.77l1.367 34.375q.196 3.906 1.172 5.76 1.075 1.857 6.055 7.13 1.465 1.563 1.465 4.395 0 6.445-7.715 8.984-7.715 2.54-27.54 2.54-13.476 0-19.042-2.345-5.762-2.442-5.762-7.91 0-1.954.586-2.833.586-.976 3.906-4.59 3.907-4.1 3.907-27.343 0-13.477-3.125-19.922-2.54-5.176-9.375-5.176-6.543 0-8.985 4.2-2.44 4.198-2.44 15.234v19.335q0 5.762.683 7.91.78 2.15 4.882 8.3 1.075 1.76 1.075 4.005 0 5.762-8.008 8.496-8.008 2.735-25 2.735-27.15 0-27.15-11.23 0-2.343.783-3.515.878-1.27 4.003-3.516 2.54-1.856 3.223-4.2.684-2.442 1.27-11.817.683-11.132.683-23.34 0-6.738-1.074-8.788-.977-2.15-5.86-5.176-4.2-2.638-4.2-6.447 0-3.906 3.42-6.347 3.417-2.54 14.062-6.348 9.375-3.32 18.066-5.566 8.692-2.344 11.914-2.344 2.93 0 4.883 2.148 2.05 2.15 2.05 5.08 0 .292-.097 2.44-.097.78-.097 1.367 0 4.688 3.906 4.688 2.343 0 4.98-3.71 8.398-12.11 24.413-12.11 12.305 0 21.094 6.446 6.153 4.59 8.594 10.84 2.442 6.152 3.028 18.164zM1058.676 360.898h12.11q3.026 0 4.296.977 1.367.88 1.172 3.027l-.78 11.62q-.197 3.517-1.076 4.494-.878.88-3.906.88-.683 0-3.222-.197-1.758-.098-2.93-.098-4.102 0-5.567 2.734-1.464 2.637-1.464 10.156 0 10.254 2.245 17.285.88 3.028 2.54 4.492 1.66 1.367 5.468 2.44 8.593 2.54 8.593 9.474 0 7.324-10.058 10.546-9.96 3.223-32.813 3.223-33.887 0-33.887-13.476 0-3.32 1.368-4.883 1.465-1.563 6.25-3.614 5.175-2.343 6.25-8.69 1.66-9.57 1.66-20.51 0-4.882-1.758-6.737-1.66-1.953-6.152-1.856-5.274 0-6.74-.488-1.463-.587-1.366-2.638l.78-12.304q.197-3.028.978-3.71.88-.782 4.688-.978 3.613-.195 3.613-3.515 0-1.368-2.638-6.25-4.492-8.106-4.492-16.21 0-11.915 8.203-19.435 12.012-11.035 34.473-11.035 18.457 0 29.492 8.69 8.496 6.74 8.496 15.53 0 6.346-4.2 10.74-4.198 4.298-10.448 4.298-7.032 0-13.477-4.883-1.564-1.27-7.423-7.715-4.2-4.492-8.398-4.492-2.736 0-4.69 1.953-1.952 1.953-1.952 4.785 0 7.716 14.648 16.505 4.493 2.734 6.055 4.297 1.66 1.562 2.93 4.395.684 1.17 3.126 1.17z"/><path d="M1137.246 342.637q17.87 0 31.348 9.277 9.668 6.64 15.527 17.285 6.056 11.132 6.056 23.24 0 21.193-19.434 36.037-18.555 14.16-42.48 14.16-23.34 0-37.793-13.282-14.064-12.89-14.064-33.593 0-23.047 17.188-37.696 17.97-15.43 43.652-15.43zm-7.812 22.558q-4.297 0-6.934 3.223-2.54 3.125-2.54 8.398 0 5.86 2.15 16.016 2.246 10.06 5.273 17.87 3.027 8.01 9.863 8.01 8.69 0 8.69-11.036.002-8.203-2.245-18.653-2.147-10.45-5.272-16.992-3.223-6.64-8.984-6.835z"/><path d="M1216.988 385.313l-8.3-10.352q-5.372-6.737-8.4-9.08-3.026-2.345-7.616-3.32-7.715-1.662-7.715-7.423 0-5.957 9.863-8.79 9.96-2.93 30.664-2.93 15.04 0 22.364 1.66 8.105 1.954 8.105 7.814 0 2.247-3.223 7.325-.586.976-.586 2.05 0 2.05 3.028 5.958 3.125 3.906 4.687 3.906 1.757 0 5.175-4.298 3.418-4.394 3.418-6.543 0-1.563-2.148-4.688-1.856-2.735-1.856-4.297 0-2.15 1.562-4.2 1.66-2.05 4.1-3.027 4.396-1.758 14.845-1.758 9.082 0 12.598 1.758 4.882 2.54 4.882 7.227 0 2.54-1.367 3.808-1.367 1.27-6.933 3.907-3.028 1.464-4.59 3.32-1.563 1.758-10.84 14.258l-6.738 10.156q-1.173 1.66-1.173 2.246 0 .39 1.074 2.148l5.86 8.887q9.375 14.16 13.868 18.457 2.148 2.05 6.933 4.2 4.493 1.953 4.493 6.64 0 6.64-8.203 9.18-8.203 2.44-29.98 2.44-16.7 0-23.34-1.56-8.79-2.15-8.79-9.083 0-4.103 5.08-6.447 2.83-1.27 2.83-4.297 0-3.222-4.003-8.79-4.004-5.663-6.25-5.565-2.344.1-6.933 7.032-4.59 6.934-4.59 10.45 0 1.66 2.344 4.492 2.05 2.343 2.05 5.273 0 8.496-20.02 8.496-10.937 0-15.722-2.148-4.785-2.15-4.785-7.032 0-3.125 1.466-4.492 1.562-1.464 5.664-2.245 4.297-.78 6.543-3.515 2.246-2.735 13.867-21.094l7.03-11.62q.978-1.564.978-2.247 0-.587-1.27-2.248zM325.703 571.133v86.523q0 13.184-2.05 20.313-2.05 7.128-7.032 11.327-5.077 4.2-13.28 6.738-8.106 2.637-16.504 2.637-9.57 0-16.016-3.81-6.347-3.807-6.347-9.47 0-2.54 1.757-4.396 1.856-1.855 4.395-1.855 1.172 0 3.125.294 1.953.293 2.44.293 1.76 0 3.126-1.66 1.465-1.66 1.465-3.712 0-.976-.292-2.734-.683-3.612-.683-6.737V602.87q0-4.393-1.563-6.835-1.465-2.44-5.176-3.906-5.566-2.247-5.566-6.74 0-5.175 4.492-8.886 4.492-3.81 14.65-7.03 7.225-2.247 17.577-4.2 10.35-1.954 15.33-1.954 3.42 0 4.786 1.758 1.367 1.758 1.367 6.055zM305 526.7q8.496 0 13.477 3.222 4.98 3.125 4.98 8.496 0 7.52-7.52 11.914-11.914 6.934-28.808 6.934-7.032 0-11.33-2.735-5.663-3.612-5.663-9.764 0-8.4 12.01-13.184Q294.356 526.7 305 526.7zM390.21 568.3v52.93q0 16.993 11.23 16.993 2.833 0 5.568-1.563 2.734-1.66 3.808-4.004 2.15-4.687 2.15-20.898 0-16.016-1.075-21.875-.39-2.442-1.367-3.516-.976-1.172-3.71-2.637-5.567-2.93-5.567-7.42 0-6.056 9.57-8.4 18.164-4.492 35.84-4.492 9.864 0 9.864 10.45 0 1.073-.098 4.394-.195 4.687-.293 11.426v43.066q0 3.32 5.663 6.055 4.785 2.342 4.785 6.835 0 8.79-20.8 13.574-12.208 2.83-23.634 2.83-4.687 0-6.445-1.073-1.66-1.075-1.954-4.2-.488-6.054-3.71-6.054-1.173 0-2.15.586-.976.487-5.956 3.905-9.864 6.738-21.192 6.738-18.75 0-26.465-10.84-6.543-9.082-6.543-30.566 0-8.008.098-13.672v-4.492q0-8.4-1.562-12.305-1.465-4.004-5.47-6.25-3.808-1.953-4.882-3.125-.977-1.172-.977-3.223 0-7.42 11.23-9.863 19.14-4.2 38.282-4.2 5.76 0 5.76 4.884z"/><path d="M513.605 563.418q5.567 0 5.567 7.91v1.66q-.098 1.563-.098 2.54 0 5.273 3.125 5.273 1.66 0 5.175-4.198 5.273-6.055 13.28-9.57 8.01-3.614 16.407-3.614 16.31 0 22.657 11.914 2.44 4.395 4.003 4.395 1.074 0 5.078-3.907 12.696-12.402 28.81-12.402 12.597 0 20.605 6.934 8.398 7.226 8.398 21.68 0 3.124-.195 10.546-.195 2.54-.195 15.332 0 8.203-.098 11.524-.098 2.05-.098 2.93 0 6.25 3.906 10.937 2.344 2.833 2.832 3.81.586.878.586 2.44 0 12.5-29.393 12.5-12.988 0-20.996-3.124-7.91-3.125-7.91-8.203 0-1.953.49-2.93.585-1.074 3.808-5.47 3.027-4.003 3.027-26.66 0-13.183-1.856-18.358-2.15-6.153-8.594-6.153-3.223 0-5.762 2.05-2.44 1.954-3.223 4.982-.878 3.515-.975 18.75.293 16.406.976 19.92.783 3.517 4.982 9.767.976 1.466.976 3.712 0 11.62-30.37 11.62-18.263 0-24.61-2.733-5.078-2.15-5.078-7.618 0-2.442.586-3.418.683-.977 4.394-4.493 2.15-2.05 2.735-3.807.683-1.856.976-6.64.685-10.743.685-21.68 0-19.14-9.766-19.14-7.325 0-8.692 8.202-1.172 7.715-1.172 22.07 0 10.743.39 14.063.49 3.32 2.442 6.933 2.344 4.2 2.344 6.837 0 6.348-8.887 8.79-9.668 2.636-21.29 2.636-15.038 0-22.07-2.344-7.03-2.442-7.03-7.618 0-1.953.878-3.32.977-1.367 4.297-4.297 4.395-4.004 5.078-11.035 1.074-12.11 1.074-25.098 0-9.277-.976-12.89-.88-3.71-3.906-5.957-2.93-2.247-3.81-3.418-.78-1.172-.78-3.223 0-6.543 10.254-10.352 24.707-8.886 37.01-8.984z"/><path d="M700.867 563.223q5.957 0 7.422 1.074 1.464.976 1.464 5.078 0 3.613 2.344 3.613.976 0 6.543-3.71 4.2-2.833 10.645-4.688 6.543-1.953 11.817-1.953 12.402 0 22.168 8.593 7.42 6.543 11.523 16.504 4.297 10.45 4.297 21.973 0 24.61-16.602 40.527-12.793 12.403-29.1 12.403-8.302 0-17.09-3.907-1.76-.78-2.833-.78-2.93 0-2.93 5.86 0 7.713 5.176 11.13 4.786 3.224 5.665 4.298.977 1.172.977 3.81 0 5.858-6.543 8.983-6.544 3.224-18.458 3.224-21.192 0-37.11-8.496-8.105-4.297-8.105-10.645 0-2.93 1.172-4.492 1.268-1.464 4.784-3.124 5.078-2.344 6.152-8.496 1.172-6.152 1.758-35.352-.684-24.023-1.758-26.953-.39-.976-1.172-1.27-.683-.292-4.785-1.073-3.126-.586-5.08-2.832-1.952-2.344-1.952-5.567 0-3.906 2.734-6.836 2.735-3.027 8.887-5.86 23.925-10.84 37.987-11.034zm9.668 36.914l-1.465 26.855q-.097 1.66-.097 3.223 0 3.027 2.636 4.883 2.636 1.855 7.03 1.855 13.477 0 13.477-22.168 0-14.355-5.664-20.215-3.515-3.613-8.398-3.613-6.934 0-7.52 9.18zM819.477 562.734q4.882 0 15.918 2.15 2.246.39 3.71.39 1.66 0 6.446-1.758 2.247-.88 3.81-.88 4.492 0 9.08 5.762 3.712 4.59 6.056 10.06 2.344 5.468 2.344 9.472 0 3.906-2.735 6.543-2.734 2.54-6.835 2.54-3.418 0-6.153-1.66-2.637-1.662-8.594-7.326-6.25-6.054-10.35-6.054-2.736 0-4.786 2.05-1.953 1.954-1.953 4.688 0 4.786 9.18 8.985 16.503 7.422 25.292 16.21 7.422 7.423 7.422 18.165 0 13.575-11.914 22.657-10.254 7.91-25.098 7.91-3.808 0-13.867-1.27-9.473-1.074-10.645-1.074-1.27 0-2.93.293-2.832.39-4.102.39-4.59 0-7.226-2.343-4.004-3.613-7.422-11.328-3.418-7.813-3.418-13.38 0-8.984 7.03-8.984 2.736 0 4.982 1.857 2.342 1.758 9.667 9.57 4.004 4.297 6.64 5.957 2.637 1.563 5.664 1.563 3.224 0 5.177-1.66 1.953-1.758 1.953-4.59 0-4.395-7.52-8.008-15.722-7.716-22.753-15.92-6.934-8.202-6.934-18.944 0-11.62 7.13-20.02 10.155-12.012 27.734-12.012zM974.176 562.637q17.87 0 31.347 9.277 9.668 6.64 15.528 17.285 6.056 11.132 6.056 23.24 0 21.193-19.434 36.037-18.555 14.16-42.48 14.16-23.34 0-37.794-13.282-14.062-12.89-14.062-33.593 0-23.047 17.187-37.696 17.97-15.43 43.653-15.43zm-7.813 22.558q-4.297 0-6.933 3.223-2.54 3.125-2.54 8.398 0 5.86 2.15 16.016 2.245 10.06 5.273 17.87 3.027 8.01 9.863 8.01 8.69 0 8.69-11.036 0-8.203-2.245-18.653-2.147-10.45-5.272-16.992-3.223-6.64-8.985-6.835zM1126.086 593.3l-25.293 49.22q-5.86 11.425-9.96 15.918-4.102 4.394-8.79 4.394-4.59 0-7.422-3.32-5.956-6.64-10.448-15.04l-27.734-52.636q-2.247-4.297-4.395-6.152-2.05-1.954-5.762-2.93-7.42-2.15-7.42-8.008 0-5.957 9.18-8.69 9.18-2.736 29.003-2.736 16.6 0 24.414 2.442 7.91 2.343 7.91 7.324 0 3.516-3.71 6.738-2.345 2.15-3.028 3.223-.685 1.074-.685 2.734 0 3.322 4.297 11.036 4.297 7.52 8.008 7.52 2.44 0 4.004-1.856 1.562-1.855 5.664-9.57 3.027-5.664 3.027-8.594 0-2.343-3.125-5.566-3.32-3.516-3.32-6.543 0-4.687 6.152-6.738 6.25-2.052 20.41-2.052 19.922 0 19.922 8.594 0 4.98-7.13 7.226-5.565 1.758-7.616 3.81-1.953 2.05-6.152 10.253zM1227.508 616.25h-45.9q-3.026 0-3.026 2.637 0 6.347 6.836 12.01 6.934 5.568 14.844 5.568 4.687 0 10.35-1.758 5.763-1.855 9.474-4.492 3.32-2.344 5.273-2.344 2.538 0 4.98 3.126 2.44 3.125 2.44 6.445 0 7.033-8.788 13.576-15.527 11.62-35.84 11.62-20.508 0-34.375-11.913-6.738-5.86-11.133-14.16-5.76-11.036-5.76-23.243 0-16.406 9.96-29.492 8.593-11.328 21.875-16.894 9.96-4.2 21.58-4.2 18.556 0 31.544 10.547 6.543 5.275 10.547 12.5 4.59 8.204 4.59 16.017 0 6.348-2.636 10.45-2.637 4.003-6.836 4.003zm-43.36-18.262h9.864q6.25 0 6.25-5.76 0-5.275-3.028-8.595-3.027-3.32-7.91-3.32-5.47 0-8.594 4.296-2.93 4.003-2.93 8.105 0 2.93 1.368 4.1 1.465 1.173 4.98 1.173z"/><path d="M1283.13 563.32q5.175 0 6.25 1.465 1.17 1.465 2.05 9.375.488 4.297 3.027 4.297 1.953 0 3.71-2.832 7.813-12.207 20.41-12.207 8.888 0 14.552 5.762 2.733 2.832 4.49 7.324 1.76 4.394 1.76 8.496 0 4.59-2.15 9.473-2.148 4.785-5.566 7.91-6.25 5.957-15.332 5.957-4.98 0-8.398-1.758-3.32-1.758-8.79-7.13-2.05-2.05-3.808-2.05-2.734 0-3.613 3.125-.782 3.028-.782 12.89 0 14.747 1.076 20.118.683 2.93 1.855 4.102 1.27 1.074 5.274 2.246 8.79 2.637 8.79 9.18 0 4.003-2.832 7.03-2.833 2.93-7.52 3.907-9.375 1.953-27.54 1.953-17.284 0-26.27-3.027-8.006-2.735-8.006-9.473 0-5.078 5.86-9.082 2.83-1.854 3.905-3.32 1.075-1.562 1.466-4.198 1.563-8.887 1.563-32.91 0-4.395-.978-6.25-.977-1.954-3.906-3.126-6.934-2.734-6.934-7.91 0-4.687 4.785-8.008 4.785-3.418 16.016-6.738 15.04-4.492 25.586-4.59zM260.414 808.32v33.008q0 5.86 2.832 9.57 2.93 3.71 7.422 3.71 3.81 0 10.06-3.514 1.463-.88 2.928-.88 2.344 0 4.297 2.833 1.953 2.832 1.953 6.152 0 6.054-6.64 11.62-13.868 11.817-33.594 11.817-15.625 0-25.098-8.79-9.472-8.886-9.472-23.34v-45.116q0-2.245-.586-2.734-.49-.586-2.735-.586h-10.057q-2.832 0-3.614-.88-.782-.975-.782-4.393V792.5q.098-2.93 2.246-4.297l44.727-28.125q1.66-.88 4.102-.88h7.91q2.442 0 3.223 1.173.88 1.075.88 4.396v13.183q0 2.93.878 3.808.977.88 4.004.88h18.066q3.614 0 4.688 1.366 1.075 1.27 1.075 5.566v5.762q0 4.688-1.367 6.543-1.367 1.758-4.98 1.758H265.1q-2.735 0-3.71.976-.978.976-.978 3.71z"/><path d="M344.063 751.484l-1.27 40.918q-.195 7.325 4.492 7.325 2.344 0 4.59-3.223 9.473-13.77 25.293-13.77 15.527 0 24.707 9.473 4.102 4.2 5.762 9.96 1.758 5.763 1.953 16.505l.88 35.254q.096 4.59 1.17 6.738 1.173 2.15 5.274 5.37 2.832 2.247 2.832 5.372 0 10.547-31.836 10.547-28.32 0-28.32-9.863 0-1.66.488-2.54.488-.878 3.418-4.687 4.102-5.37 4.102-26.855 0-12.988-2.442-18.945-3.222-8.106-11.523-8.106-5.957 0-8.79 4.297-2.05 3.125-2.05 11.72v18.846q.684 12.5 1.172 14.16.488 1.66 4.492 6.153 1.856 2.05 1.856 4.785 0 11.035-28.71 11.035-33.595 0-33.595-11.426 0-2.636 1.074-4.004 1.074-1.464 5.273-4.394 3.71-2.638 5.08-14.16 1.463-11.622 1.463-38.38 0-20.996-1.17-29.102-.392-3.027-1.466-4.394-.977-1.465-3.81-2.93-6.054-3.125-6.054-7.226 0-4.883 4.59-7.91 4.59-3.028 17.578-6.544 17.58-4.882 28.028-4.882 5.664 0 5.47 4.882zM509.938 836.25h-45.9q-3.026 0-3.026 2.637 0 6.347 6.836 12.01 6.933 5.568 14.843 5.568 4.69 0 10.353-1.758 5.762-1.855 9.473-4.492 3.32-2.344 5.273-2.344 2.538 0 4.98 3.126 2.44 3.125 2.44 6.445 0 7.033-8.788 13.576-15.527 11.62-35.84 11.62-20.508 0-34.375-11.913-6.738-5.86-11.133-14.16-5.76-11.036-5.76-23.243 0-16.406 9.96-29.492 8.593-11.328 21.874-16.894 9.96-4.2 21.582-4.2 18.555 0 31.543 10.547 6.543 5.275 10.547 12.5 4.59 8.204 4.59 16.017 0 6.348-2.637 10.45-2.636 4.003-6.835 4.003zm-43.36-18.262h9.863q6.25 0 6.25-5.76 0-5.275-3.026-8.595-3.027-3.32-7.91-3.32-5.47 0-8.594 4.296-2.93 4.003-2.93 8.105 0 2.93 1.368 4.1 1.465 1.173 4.98 1.173zM619.715 802.56v31.346q0 20.8.586 24.22.684 3.417 4.884 5.272 3.613 1.563 4.785 2.93 1.268 1.367 1.268 3.906 0 3.223-2.343 5.86-2.247 2.636-6.055 3.71-7.03 2.15-23.73 2.15-18.848 0-26.465-2.833-3.516-1.268-5.762-3.905-2.246-2.735-2.246-5.664 0-2.343 1.172-3.612 1.268-1.27 5.37-3.028 3.808-1.66 4.687-9.082 1.563-12.695 1.563-36.133 0-23.828-1.367-30.664-1.368-6.835-6.836-10.155-4.102-2.344-5.665-4.395-1.464-2.148-1.464-5.175 0-4.785 4.59-8.3 4.59-3.614 14.648-6.642 6.738-2.05 17.48-3.906 10.743-1.855 15.625-1.855 7.716 0 7.716 9.57 0 3.125-.976 14.355-1.27 17.48-1.465 32.032z"/><path d="M686.762 782.637q16.992 0 28.808 8.593 6.25 4.59 8.692 10.547 2.54 5.86 2.54 16.21l-.197 14.552q0 15.136 2.15 19.628 1.073 2.148 2.05 2.734.976.586 4.1 1.075 3.126.488 3.126 4.1 0 4.69-3.807 9.767-3.71 5.078-9.668 8.496-7.325 4.297-15.332 4.297-10.254 0-16.21-7.032-2.052-2.54-3.81-2.54-1.953 0-5.176 2.443-9.765 7.13-22.168 7.13-12.794 0-20.704-5.47-5.176-3.613-8.203-9.375-3.027-5.86-3.027-12.207 0-10.156 8.203-17.97 12.792-12.303 38.28-12.4 5.664 0 7.13-1.075 1.464-1.17 1.464-5.273 0-10.35-2.15-14.94-2.147-4.69-7.03-4.69-2.93 0-5.273 1.76-2.245 1.757-5.663 6.444-8.692 12.404-18.164 12.404-4.785 0-7.813-2.832-3.027-2.832-3.027-7.422 0-4.688 3.71-9.375 3.81-4.688 10.255-8.203 17.675-9.375 36.914-9.375zm-6.543 56.543q-4.298 0-7.52 3.515-3.126 3.516-3.126 8.4 0 4.686 2.246 7.616 2.246 2.833 5.957 2.833 7.813 0 7.813-13.184 0-5.372-1.172-7.227-1.074-1.856-4.2-1.953z"/><path d="M788.184 785.176h25.88q8.983 0 11.424.39 2.54.293 3.81 1.66 1.66 1.66 1.66 4.395 0 3.614-3.224 9.278l-25.88 45.997q-3.22 5.76-3.22 8.105 0 4.59 6.932 4.59 4.98 0 7.91-1.953 3.028-2.05 5.665-7.032 2.247-4.492 3.712-5.957 1.464-1.562 3.515-1.562 4.297 0 7.03 3.418 2.736 3.418 2.736 8.79 0 6.054-3.32 12.987-3.32 6.837-8.4 11.427-3.808 3.418-7.226 3.418-1.464 0-3.808-.977-4.786-2.05-11.33-2.148h-51.17q-12.99 0-12.99-7.52 0-1.66.977-3.515.977-1.856 6.836-11.62l22.363-35.94q6.25-9.96 6.25-12.596 0-3.908-8.203-3.908-4.2 0-6.738 1.66-2.44 1.563-5.273 5.958-3.223 5.273-4.98 6.835-1.66 1.465-4.493 1.465-3.81 0-6.25-2.93-2.442-3.027-2.442-7.617 0-8.79 5.957-18.945 5.664-9.668 10.84-9.668 1.17 0 3.124.684 5.37 1.855 8.495 2.148 3.223.293 23.83.684z"/><path d="M928.082 830.78l-12.89 35.45q-4.786 13.184-9.67 21.485-4.784 8.398-10.936 14.258-12.695 12.11-30.566 12.11-14.454 0-23.438-7.618-6.934-5.86-6.934-14.942 0-7.52 4.786-12.597 4.882-5.176 11.914-5.176 7.03 0 11.328 4.687 2.05 2.15 2.734 3.81.684 1.66 2.05 7.323 1.075 4.297 4.884 4.297 3.027 0 5.078-2.637 2.05-2.636 2.05-6.543 0-4.59-5.077-15.332l-23.536-50.097q-3.712-7.813-5.567-9.766-1.855-1.953-8.203-4.785-1.953-.78-3.418-3.027-1.367-2.344-1.367-4.493 0-8.69 17.285-11.816 11.523-2.05 26.27-2.05 10.35 0 16.308 2.15 8.008 2.83 8.008 9.667 0 2.44-2.246 5.76-2.15 3.126-2.15 5.568 0 2.344.978 4.883 1.074 2.54 4.394 8.593 3.71 6.837 6.543 6.837 3.028 0 6.25-5.957 3.223-6.054 3.223-11.62 0-4.493-2.44-7.325-3.712-4.395-3.712-7.52 0-4.98 6.64-7.91 6.64-3.027 17.774-3.027 20.703 0 20.703 9.96 0 3.614-2.15 5.86-2.05 2.15-7.616 4.102-4.687 1.758-7.422 5.86-4.297 6.542-9.863 21.58zM1111.004 754.512v89.16q0 7.617.586 9.765.683 2.15 3.613 4.2 3.516 2.44 4.688 4.297 1.27 1.855 1.27 4.492 0 7.812-15.723 11.914-14.16 3.613-28.32 3.613-3.125 0-4.1-.976-.88-.88-1.173-4.395-.49-4.98-3.516-4.98-1.66 0-5.176 2.93-9.96 8.105-22.168 8.105-15.136 0-27.246-11.23-7.13-6.74-11.523-15.528-5.86-11.427-5.86-23.146 0-13.77 7.618-26.562 7.03-11.817 19.14-18.164 10.156-5.274 20.02-5.274 11.328 0 20.312 5.08 1.465.78 2.344.78 3.124 0 3.124-8.4 0-3.612-1.758-5.467-1.66-1.954-6.054-3.32-6.153-1.954-6.153-6.837 0-7.13 14.16-11.132 25-6.934 33.496-6.934 8.398 0 8.398 8.008zm-53.027 49.12q-6.348 0-10.06 6.74-4.98 8.983-4.98 23.632 0 13.28 4.786 20.02 3.418 4.882 9.277 4.882 6.348 0 9.18-7.324 2.93-7.422 2.93-23.828 0-15.04-3.42-20.02-2.635-3.906-7.713-4.1zM1181.37 782.637q17.872 0 31.35 9.277 9.667 6.64 15.526 17.285 6.055 11.132 6.055 23.24 0 21.193-19.433 36.037-18.555 14.16-42.48 14.16-23.34 0-37.793-13.282-14.063-12.89-14.063-33.593 0-23.047 17.19-37.696 17.968-15.43 43.65-15.43zm-7.81 22.558q-4.298 0-6.935 3.223-2.54 3.125-2.54 8.398 0 5.86 2.15 16.016 2.246 10.06 5.273 17.87 3.027 8.01 9.863 8.01 8.693 0 8.693-11.036 0-8.203-2.247-18.653-2.148-10.45-5.273-16.992-3.223-6.64-8.984-6.835zM1339.043 777.46q2.44 0 4.297 2.833 1.855 2.734 1.855 6.445 0 4.004-2.54 9.082-2.44 5.078-5.956 8.106-2.247 1.953-2.247 3.125 0 .294.195 2.345.293 2.05.293 3.71 0 11.622-7.81 19.532-7.032 7.03-18.165 10.937-11.035 3.906-24.317 3.906-3.222 0-6.347-.39-2.538-.293-3.906-.293-5.175 0-5.175 5.176 0 3.32 3.32 5.273 3.417 1.856 9.18 1.856 3.905 0 11.522-1.075 16.016-2.246 23.633-2.246 11.523 0 17.87 3.81 5.08 2.93 8.01 8.203 3.026 5.273 3.026 11.328 0 9.864-7.225 19.142-8.594 10.937-25.293 16.21-13.086 4.102-30.274 4.102-21.68 0-35.156-6.64-6.25-3.125-9.96-8.204-3.712-5.078-3.712-10.546 0-3.81 2.05-7.032 2.15-3.222 5.372-4.59 2.93-1.17 2.93-2.54 0-1.073-2.442-3.124-7.812-6.543-7.812-13.574 0-4.687 3.71-9.668 3.81-4.98 9.376-7.715 2.343-1.17 2.343-2.342 0-1.368-2.93-4.102-10.058-9.277-10.058-21.68 0-6.543 3.515-12.5 3.613-5.957 9.96-10.156 15.723-10.254 34.864-10.254 7.616 0 16.99 1.953 8.888 1.757 12.208 1.757 10.645 0 21.192-8.398 2.343-1.76 3.613-1.76zm-53.027 20.216q-4.883 0-7.91 3.71-2.93 3.712-2.93 9.864 0 10.547 3.222 16.895 3.223 6.347 8.497 6.347 5.175 0 8.203-3.906 3.027-4.004 3.027-10.645 0-10.448-3.223-16.21-3.125-5.86-8.886-6.054zm-21.29 88.867q-2.44 0-2.44 2.832 0 5.762 6.25 9.277 6.25 3.614 16.21 3.614 9.57 0 14.94-2.54 5.47-2.538 5.47-7.128 0-2.442-2.05-4.2-2.05-1.66-5.08-1.66-1.56 0-4.49.39-5.47.88-12.208.88-4.98 0-9.57-.488-3.418-.293-5.567-.782-.975-.195-1.463-.195zM1371.227 836.543q9.277 0 16.113 6.445 6.933 6.543 6.933 16.895 0 9.668-6.933 16.308-6.836 6.447-16.113 6.447-9.278 0-16.114-6.446-6.933-6.64-6.933-16.6 0-10.156 6.933-16.602 6.836-6.347 16.114-6.445z"/></g></svg>