<svg xmlns="http://www.w3.org/2000/svg" viewBox="0 0 1000 1000"><path fill="#fff" d="M0 0h1000v1000H0z"/><g font-weight="400" font-size="128" font-family="Cooper Black" text-anchor="middle" fill="#111"><path d="M203.063 55.488H236q5.313-.188 9.688-1.438 1.875-.5 3.312-.5 5.063 0 9.813 7.5 4.812 7.5 4.812 15.438 0 5.437-3.313 7.937-2.5 1.875-6 1.875-3.312 0-5.75-1.812-2.437-1.875-4.812-6.125-2.063-3.875-3.25-5.063-1.188-1.187-2.875-1.187-2.313 0-3.313 1.937-1 1.938-1 6.375v35q0 5.375 1.125 7.813 1.125 2.437 4.25 3.75 3.375 1.437 4.563 2.75 1.25 1.25 1.25 3.5 0 4.5-6.125 6.687-6.063 2.188-18.688 2.188-15.5 0-23-2.563-6.312-2.125-6.312-6.875 0-2.563 2.25-4 .563-.313 4.438-1.5 2.375-.687 3.25-2.625.937-1.937 1.5-7.437.5-4.875.937-15.75.438-10.938.438-18.938 0-5.625-.875-8t-2.875-2.375q-2.438 0-4.75 3.5-4.188 6.375-6.875 8.438-3.188 2.437-6.188 2.437-3.375 0-5.563-2.5-2.187-2.562-2.187-6.5 0-3.875 1.75-8.5 1.75-4.687 4.688-8.625 4.75-6.375 9.375-6.375 1.25 0 2.875.375 3.375.688 5.5.938 2.187.25 5 .25zM300.75 58.55l-.813 26.188q-.125 4.687 2.875 4.687 1.5 0 2.938-2.062 6.063-8.813 16.188-8.813 9.937 0 15.812 6.063 2.625 2.687 3.688 6.375 1.125 3.687 1.25 10.562l.562 22.563q.063 2.937.75 4.312.75 1.375 3.375 3.438 1.813 1.437 1.813 3.437 0 6.75-20.375 6.75-18.125 0-18.125-6.313 0-1.062.312-1.624.313-.563 2.188-3 2.625-3.438 2.625-17.188 0-8.312-1.563-12.125-2.063-5.187-7.375-5.187-3.813 0-5.625 2.75-1.313 2-1.313 7.5v12.062q.438 8 .75 9.063.313 1.062 2.875 3.937 1.188 1.313 1.188 3.063 0 7.062-18.375 7.062-21.5 0-21.5-7.313 0-1.687.688-2.562.687-.938 3.375-2.813 2.375-1.687 3.25-9.062.937-7.437.937-24.562 0-13.438-.75-18.625-.25-1.938-.938-2.813-.625-.937-2.437-1.875-3.875-2-3.875-4.625 0-3.125 2.938-5.062Q271 60.8 279.313 58.55q11.25-3.125 17.937-3.125 3.625 0 3.5 3.125zM410.75 112.8h-29.375q-1.938 0-1.938 1.688 0 4.062 4.375 7.687 4.438 3.563 9.5 3.563 3 0 6.625-1.126 3.688-1.187 6.063-2.874 2.125-1.5 3.375-1.5 1.625 0 3.188 2 1.562 2 1.562 4.124 0 4.5-5.625 8.688-9.938 7.438-22.938 7.438-13.125 0-22-7.625-4.312-3.75-7.125-9.063-3.687-7.062-3.687-14.875 0-10.5 6.375-18.875 5.5-7.25 14-10.812 6.375-2.688 13.813-2.688 11.875 0 20.187 6.75 4.188 3.375 6.75 8 2.938 5.25 2.938 10.25 0 4.063-1.688 6.688-1.688 2.562-4.375 2.562zM383 101.112h6.313q4 0 4-3.687 0-3.375-1.938-5.5t-5.063-2.125q-3.5 0-5.5 2.75-1.875 2.563-1.875 5.188 0 1.875.875 2.625.938.75 3.188.75zM489.313 78.55q4.125 0 6.625.375 2.562.375 9.937 2.125 2 .438 3.875.438 2.25 0 6.625-1.563 3.813-1.375 6.25-1.375 5.5 0 5.5 4.438 0 2.312-.438 5.562-.812 5.813-1.437 18-.625 12.188-.625 22.188 0 12.375.688 17.5.375 2.312.875 3.25.562.937 2.5 2.375 2.625 2 2.625 4.937 0 8-16.5 8-12.5 0-20.813-3.5-2.875-1.188-4.688-3.188-1.75-2-1.75-4.062 0-1.813.813-2.688.875-.874 4.125-2.437 3.688-1.813 3.688-7.375 0-3.188-1.688-3.188-.875 0-5.125 2.126-4.063 2-10.125 2-12.25 0-19.625-8.813-7.875-9.5-7.875-23.563 0-14.312 10.125-22.937 10.063-8.562 26.438-8.625zm1.875 13.688q-2.688 0-5 2.937-3 3.875-3 11.813 0 9.625 3.312 15.187 2.688 4.563 6.375 4.563 3.125 0 4.25-3.125 1.125-3.063 1.125-12.313 0-8.562-.625-12.125-.625-3.625-2.313-5.25-1.812-1.625-4.125-1.687zM569.25 82.113v33.874q0 10.876 7.188 10.876 1.812 0 3.562-1 1.75-1.063 2.438-2.563 1.375-3 1.375-13.375 0-10.25-.688-14-.25-1.562-.875-2.25-.625-.75-2.375-1.687-3.563-1.875-3.563-4.75 0-3.875 6.125-5.375 11.625-2.875 22.938-2.875 6.313 0 6.313 6.687 0 .688-.063 2.813-.125 3-.188 7.312v27.563q0 2.124 3.625 3.874 3.063 1.5 3.063 4.376 0 5.625-13.313 8.687-7.812 1.813-15.125 1.813-3 0-4.125-.688-1.062-.688-1.25-2.688-.312-3.874-2.375-3.874-.75 0-1.375.375-.625.312-3.812 2.5-6.313 4.312-13.563 4.312-12 0-16.937-6.938-4.188-5.812-4.188-19.562 0-5.125.063-8.75v-2.875q0-5.375-1-7.875-.938-2.562-3.5-4-2.438-1.25-3.125-2-.625-.75-.625-2.062 0-4.75 7.188-6.313 12.25-2.687 24.5-2.687 3.687 0 3.687 3.125zM656.5 82.863v36.312q0 4.313.75 6.313.813 2 3.188 3.687 1.937 1.375 2.562 2.375.688.938.688 2.438 0 8.062-20.438 8.062-11 0-17.438-1.75-2.187-.625-3.562-2.188-1.313-1.562-1.313-3.562 0-1.688.688-2.625.688-.938 3.5-3 1.938-1.438 2.75-4.688.813-3.25.813-9.687 0-2.062-.313-7.687-.25-5.688-.375-6.625-.375-2.563-3.5-3.938-3.875-1.687-3.875-5 0-3.937 5.063-5.875 7-2.687 15-4.562 8-1.875 12.375-1.875 3.437 0 3.437 3.875zm-12.375-27.375q5.438 0 8.625 2.062 3.188 2 3.188 5.438 0 4.812-4.813 7.625-7.625 4.437-18.438 4.437-4.562 0-7.25-1.75-3.625-2.25-3.625-6.25 0-5.375 7.688-8.437 7.813-3.125 14.625-3.125zM703.125 78.55q11.125 0 19.625 5.563 8.063 5.312 8.063 13.187 0 5.438-3.75 8.813-3.5 3.187-8.438 3.187-5.188 0-7.813-3.75-.812-1.187-2.375-6.062-1.687-5.25-6.437-5.25-3.438 0-5.813 3-2.312 3-2.312 7.375 0 7.5 5.375 13.312 4.375 4.688 11 4.688 3.125 0 5.25-.5 2.125-.563 5.563-2.188.875-.437 1.937-.437 2.125 0 3.75 2t1.625 4.687q0 2.813-2.313 5.938-2.312 3.062-6.062 5.375-8.125 5-19.188 5-12.875 0-21.937-7.5-11.625-9.5-11.625-24.188 0-14.125 10.813-23.375 10.312-8.875 25.062-8.875zM770.563 58.55L770 78.113q-.063 2.937-.063 8.625 0 6.312.188 7.437.438 2.563 2.625 2.563 1.875 0 5.75-2.375 3.875-2.438 3.875-3.625 0-.688-1.375-2.5-1-1.313-1-2.5 0-6.75 16.625-6.75 8.625 0 13.625 1.75 2 .687 3.313 2.375 1.312 1.687 1.312 3.625 0 2.812-2.688 3.937-.562.25-3.625.813-2.75.5-7.125 3.437-4.375 2.875-4.375 4.188 0 .875 5.25 8.25 5.313 7.312 9.875 12.75 2.938 3.562 4.563 5 1.688 1.437 4.625 3.062 4.5 2.438 4.5 5.563 0 3.312-2.875 5.187-2.813 1.875-7.75 1.875H795q-3.813-.063-5.938-2.813l-10.375-13.312q-4.125-5.25-5.062-6.25-.875-1-1.5-1-.75 0-1 1.125t-.25 4.25q0 2.813.625 4.125.625 1.25 2.875 3.063Q776 131.3 776 133.863q0 4.375-4.625 6.312-4.625 1.938-15.25 1.938-12.5 0-16.25-1.063-2.125-.625-3.625-2.5-1.5-1.938-1.5-4.063 0-2.374 2.625-4.124 2.25-1.438 2.875-2.188.625-.75 1-2.375 1.438-8.75 1.375-27V85.113q0-7-.75-8.938-.688-1.937-3.5-2.312-5.125-.688-5.125-4.25 0-2.375 2.25-4.25 2.25-1.938 7.375-3.813 16.375-6.062 24.25-6.062 3.563 0 3.438 3.062zM201 200.038l-.813 24.375v1.375q0 1.25.813 1.25.438 0 2.5-1.688 7.313-6 16.125-6 8.75 0 15.438 6.313 8.375 7.937 8.375 20.687 0 18.188-13.563 29.063-9.75 7.875-22.875 7.875-6.5 0-11.75-1.688-5.188-1.625-11.375-5.625-.938-.562-1.5-.562-.688 0-3.875 1.187-1.625.625-3.813.625-3.875 0-3.875-2.5 0-.812.313-1.875 1.25-4.062 1.688-10.062.437-6 .437-19v-17.25q0-6.438-.5-8.063-.5-1.625-2.813-2.562-3.25-1.375-4.5-2.688-1.25-1.375-1.25-3.437 0-4.188 8.938-8.188 4.875-2.125 12.125-3.687 7.313-1.625 12.5-1.625 3.313 0 3.25 3.75zm5.375 38.125q-3.375 0-4.875 2.312-1.188 1.75-1.188 7.125 0 14.688 1 19.813.875 4.75 5.313 4.75 4.563 0 6.938-3.875t2.375-11.25q0-10.875-4-15.875-2.313-2.875-5.563-3zM277.188 219.725q3.312 0 4 .938.75.937 1.312 6 .313 2.75 1.938 2.75 1.25 0 2.375-1.813 5-7.812 13.062-7.812 5.688 0 9.313 3.687 1.75 1.813 2.875 4.688 1.125 2.812 1.125 5.437 0 2.938-1.375 6.063-1.375 3.062-3.563 5.062-4 3.813-9.813 3.813-3.187 0-5.375-1.125-2.125-1.125-5.625-4.563-1.312-1.312-2.437-1.312-1.75 0-2.313 2-.5 1.937-.5 8.25 0 9.437.688 12.875.438 1.875 1.188 2.625.812.687 3.375 1.437 5.625 1.688 5.625 5.875 0 2.563-1.813 4.5-1.813 1.875-4.813 2.5-6 1.25-17.625 1.25-11.062 0-16.812-1.937-5.125-1.75-5.125-6.063 0-3.25 3.75-5.812 1.813-1.188 2.5-2.125.688-1 .938-2.688 1-5.687 1-21.062 0-2.813-.625-4-.625-1.25-2.5-2-4.438-1.75-4.438-5.063 0-3 3.063-5.125 3.062-2.187 10.25-4.312 9.625-2.875 16.375-2.938zM353.688 219.288q11.437 0 20.062 5.937 6.188 4.25 9.938 11.063 3.875 7.125 3.875 14.875 0 13.562-12.438 23.062-11.875 9.063-27.188 9.063-14.937 0-24.187-8.5-9-8.25-9-21.5 0-14.75 11-24.125 11.5-9.875 27.938-9.875zm-5 14.437q-2.75 0-4.438 2.063-1.625 2-1.625 5.375 0 3.75 1.375 10.25 1.438 6.437 3.375 11.437 1.938 5.125 6.313 5.125 5.562 0 5.562-7.062 0-5.25-1.438-11.938-1.375-6.687-3.375-10.875-2.062-4.25-5.75-4.375zM461.875 270.788l-6.438-10.313q-2.25-3.5-2.937-4.187-.625-.688-1.688-.688-2.25 0-4.625 4.125l-10.437 18q-3 5.188-6.75 5.188-2.313 0-4.25-1.563-1.938-1.625-4.188-5.437l-18.75-31.188q-4.687-7.562-7.312-9.875-1.25-1-4.563-1.937-1.375-.438-2.312-1.688-.875-1.312-.875-2.875 0-4.812 7.438-6.75 7.5-1.875 16.375-1.875 19.937 0 19.937 7.438 0 1.375-1.938 4.187-.375.563-.375 1.188 0 1.375 2.938 6.812 3.25 6.188 5.625 6.188 1.375 0 3.5-3.125t2.125-5.063q0-1.937-.938-3.062Q440.5 233.1 437 230.6q-2.125-1.5-2.125-3.562 0-4.875 10-6.375 6.063-.938 14.25-.938 9.438 0 13.625 1.625 4.188 1.563 4.188 5.125 0 1.438-.5 2.313-.5.875-2.688 3.125-.688.75-.688 1.937 0 1.688 2.875 7.125 2.5 4.75 4.563 4.75 2.25 0 5.688-6.062 2.5-4.563 2.5-6.063 0-1.187-2-3.687-1.438-1.75-1.438-3.813 0-3.25 2.938-4.5 4.125-1.812 12-1.812 5.312 0 9.437.812 2.375.5 3.875 2.063 1.5 1.5 1.5 3.5t-1.75 3.375q-.313.312-4.375 1.75-2.313.875-3.813 2.5t-3.625 5.812l-15.625 30.25q-6.875 13.25-12.125 13.25-2.25 0-5-2.812-2.687-2.875-6.812-9.5zM592.313 242.413l.875 22q.125 2.5.75 3.687.687 1.188 3.875 4.563.937 1 .937 2.812 0 4.125-4.938 5.75-4.937 1.625-17.625 1.625-8.625 0-12.187-1.5-3.688-1.562-3.688-5.062 0-1.25.375-1.813.375-.625 2.5-2.937 2.5-2.625 2.5-17.5 0-8.625-2-12.75-1.625-3.313-6-3.313-4.187 0-5.75 2.688-1.562 2.687-1.562 9.75v12.375q0 3.687.438 5.062.5 1.375 3.125 5.313.687 1.125.687 2.562 0 3.688-5.125 5.438-5.125 1.75-16 1.75-17.375 0-17.375-7.188 0-1.5.5-2.25.563-.812 2.563-2.25 1.625-1.187 2.062-2.687.438-1.563.813-7.563.437-7.125.437-14.937 0-4.313-.688-5.625-.625-1.375-3.75-3.313-2.687-1.687-2.687-4.125 0-2.5 2.188-4.062 2.187-1.625 9-4.063 6-2.125 11.562-3.562 5.563-1.5 7.625-1.5 1.875 0 3.125 1.375 1.313 1.375 1.313 3.25 0 .187-.063 1.562-.063.5-.063.875 0 3 2.5 3 1.5 0 3.188-2.375 5.375-7.75 15.625-7.75 7.875 0 13.5 4.125 3.938 2.938 5.5 6.938 1.563 3.937 1.938 11.625zM671.313 230.975h7.75q1.937 0 2.75.625.875.563.75 1.938l-.5 7.437q-.125 2.25-.688 2.875-.563.563-2.5.563-.438 0-2.063-.125-1.125-.063-1.875-.063-2.625 0-3.562 1.75-.938 1.688-.938 6.5 0 6.563 1.438 11.063.563 1.937 1.625 2.875 1.063.875 3.5 1.562 5.5 1.625 5.5 6.063 0 4.687-6.438 6.75-6.375 2.062-21 2.062-21.687 0-21.687-8.625 0-2.125.875-3.125.938-1 4-2.312 3.313-1.5 4-5.563 1.063-6.125 1.063-13.125 0-3.125-1.125-4.312-1.063-1.25-3.938-1.188-3.375 0-4.313-.312-.937-.375-.875-1.688l.5-7.875q.125-1.937.625-2.375.563-.5 3-.625 2.313-.125 2.313-2.25 0-.875-1.688-4-2.875-5.187-2.875-10.375 0-7.625 5.25-12.437 7.688-7.063 22.063-7.063 11.813 0 18.875 5.563 5.438 4.312 5.438 9.937 0 4.063-2.688 6.875-2.688 2.75-6.688 2.75-4.5 0-8.625-3.125-1-.812-4.75-4.937-2.687-2.875-5.375-2.875-1.75 0-3 1.25t-1.25 3.062q0 4.938 9.375 10.563 2.875 1.75 3.875 2.75 1.063 1 1.875 2.812.438.75 2 .75zM725.438 219.288q11.437 0 20.062 5.937 6.188 4.25 9.938 11.063 3.875 7.125 3.875 14.875 0 13.562-12.438 23.062-11.875 9.063-27.188 9.063-14.937 0-24.187-8.5-9-8.25-9-21.5 0-14.75 11-24.125 11.5-9.875 27.938-9.875zm-5 14.437q-2.75 0-4.438 2.063-1.625 2-1.625 5.375 0 3.75 1.375 10.25 1.438 6.437 3.375 11.437 1.938 5.125 6.313 5.125 5.562 0 5.562-7.062 0-5.25-1.438-11.938-1.375-6.687-3.375-10.875-2.062-4.25-5.75-4.375z"/><path d="M780.313 246.6L775 239.975q-3.438-4.312-5.375-5.812-1.938-1.5-4.875-2.125-4.938-1.063-4.938-4.75 0-3.813 6.313-5.625 6.375-1.875 19.625-1.875 9.625 0 14.313 1.062 5.187 1.25 5.187 5 0 1.438-2.063 4.688-.375.625-.375 1.312 0 1.313 1.938 3.813 2 2.5 3 2.5 1.125 0 3.313-2.75 2.187-2.813 2.187-4.188 0-1-1.375-3-1.188-1.75-1.188-2.75 0-1.375 1-2.687 1.063-1.313 2.625-1.938 2.813-1.125 9.5-1.125 5.813 0 8.063 1.125 3.125 1.625 3.125 4.625 0 1.625-.875 2.438-.875.812-4.438 2.5-1.937.937-2.937 2.125-1 1.125-6.938 9.125l-4.312 6.5q-.75 1.062-.75 1.437 0 .25.688 1.375l3.75 5.688q6 9.062 8.875 11.812 1.375 1.313 4.437 2.688 2.875 1.25 2.875 4.25 0 4.25-5.25 5.875-5.25 1.562-19.188 1.562-10.687 0-14.937-1-5.625-1.375-5.625-5.812 0-2.625 3.25-4.125 1.813-.813 1.813-2.75 0-2.063-2.563-5.625-2.563-3.625-4-3.563-1.5.063-4.438 4.5-2.937 4.438-2.937 6.688 0 1.062 1.5 2.875 1.313 1.5 1.313 3.375 0 5.437-12.813 5.437-7 0-10.063-1.375-3.062-1.375-3.062-4.5 0-2 .938-2.875 1-.937 3.625-1.437 2.75-.5 4.187-2.25 1.438-1.75 8.875-13.5l4.5-7.438q.625-1 .625-1.437 0-.375-.813-1.438zM177.25 365.525V420.9q0 8.438-1.313 13-1.312 4.563-4.5 7.25-3.25 2.688-8.5 4.313-5.187 1.687-10.562 1.687-6.125 0-10.25-2.437-4.063-2.438-4.063-6.063 0-1.625 1.125-2.812 1.188-1.188 2.813-1.188.75 0 2 .188 1.25.187 1.563.187 1.125 0 2-1.062.937-1.063.937-2.375 0-.625-.188-1.75-.437-2.313-.437-4.313v-39.687q0-2.813-1-4.375-.938-1.563-3.313-2.5Q140 377.525 140 374.65q0-3.312 2.875-5.687 2.875-2.438 9.375-4.5 4.625-1.438 11.25-2.688 6.625-1.25 9.813-1.25 2.187 0 3.062 1.125t.875 3.875zM164 337.088q5.438 0 8.625 2.062 3.188 2 3.188 5.438 0 4.812-4.813 7.625-7.625 4.437-18.438 4.437-4.5 0-7.25-1.75-3.625-2.312-3.625-6.25 0-5.375 7.688-8.437 7.813-3.125 14.625-3.125zM222.375 363.713v33.875q0 10.875 7.188 10.875 1.812 0 3.562-1 1.75-1.063 2.438-2.563 1.375-3 1.375-13.375 0-10.25-.688-14-.25-1.562-.875-2.25-.625-.75-2.375-1.687-3.563-1.875-3.563-4.75 0-3.875 6.125-5.375 11.625-2.875 22.938-2.875 6.313 0 6.313 6.687 0 .688-.063 2.813-.125 3-.188 7.312v27.563q0 2.125 3.625 3.875 3.063 1.5 3.063 4.375 0 5.625-13.313 8.687-7.812 1.813-15.125 1.813-3 0-4.125-.688-1.062-.687-1.25-2.687-.312-3.875-2.375-3.875-.75 0-1.375.375-.625.312-3.812 2.5-6.313 4.312-13.563 4.312-12 0-16.937-6.937-4.188-5.813-4.188-19.563 0-5.125.063-8.75v-2.875q0-5.375-1-7.875-.938-2.562-3.5-4-2.438-1.25-3.125-2-.625-.75-.625-2.062 0-4.75 7.188-6.313 12.25-2.687 24.5-2.687 3.687 0 3.687 3.125zM305.188 360.588q3.562 0 3.562 5.062v1.063q-.063 1-.063 1.625 0 3.375 2 3.375 1.063 0 3.313-2.688 3.375-3.875 8.5-6.125 5.125-2.312 10.5-2.312 10.438 0 14.5 7.625 1.563 2.812 2.563 2.812.687 0 3.25-2.5 8.125-7.937 18.437-7.937 8.063 0 13.188 4.437 5.375 4.625 5.375 13.875 0 2-.125 6.75-.125 1.625-.125 9.813 0 5.25-.063 7.375-.063 1.312-.063 1.875 0 4 2.5 7 1.5 1.812 1.813 2.437.375.563.375 1.563 0 8-18.813 8-8.312 0-13.437-2-5.063-2-5.063-5.25 0-1.25.313-1.875.375-.688 2.438-3.5Q362 408.525 362 394.025q0-8.437-1.188-11.75-1.375-3.937-5.5-3.937-2.062 0-3.687 1.312-1.563 1.25-2.063 3.188-.562 2.25-.625 12 .188 10.5.625 12.75.5 2.25 3.188 6.25.625.937.625 2.375 0 7.437-19.438 7.437-11.687 0-15.75-1.75-3.25-1.375-3.25-4.875 0-1.562.375-2.187.438-.625 2.813-2.875 1.375-1.313 1.75-2.438.438-1.187.625-4.25.438-6.875.438-13.875 0-12.25-6.25-12.25-4.688 0-5.563 5.25-.75 4.938-.75 14.125 0 6.875.25 9 .313 2.125 1.563 4.438 1.5 2.687 1.5 4.375 0 4.062-5.688 5.625-6.188 1.687-13.625 1.687-9.625 0-14.125-1.5-4.5-1.562-4.5-4.875 0-1.25.563-2.125.625-.875 2.75-2.75 2.812-2.562 3.25-7.062.687-7.75.687-16.063 0-5.937-.625-8.25-.563-2.375-2.5-3.812-1.875-1.438-2.438-2.188-.5-.75-.5-2.062 0-4.188 6.563-6.625 15.813-5.688 23.688-5.75zM428.875 360.463q3.813 0 4.75.687.938.625.938 3.25 0 2.313 1.5 2.313.625 0 4.187-2.375 2.688-1.813 6.813-3 4.187-1.25 7.562-1.25 7.938 0 14.188 5.5 4.75 4.187 7.375 10.562 2.75 6.688 2.75 14.063 0 15.75-10.625 25.937-8.188 7.938-18.625 7.938-5.313 0-10.938-2.5-1.125-.5-1.813-.5-1.875 0-1.875 3.75 0 4.937 3.313 7.125 3.063 2.062 3.625 2.75.625.75.625 2.437 0 3.75-4.188 5.75-4.187 2.063-11.812 2.063-13.563 0-23.75-5.438-5.188-2.75-5.188-6.812 0-1.875.75-2.875.813-.938 3.063-2 3.25-1.5 3.938-5.438.75-3.937 1.125-22.625-.438-15.375-1.125-17.25-.25-.625-.75-.812-.438-.188-3.063-.688-2-.375-3.25-1.812-1.25-1.5-1.25-3.563 0-2.5 1.75-4.375 1.75-1.937 5.688-3.75 15.312-6.937 24.312-7.062zm6.188 23.625l-.938 17.187q-.063 1.063-.063 2.063 0 1.937 1.688 3.125 1.688 1.187 4.5 1.187 8.625 0 8.625-14.187 0-9.188-3.625-12.938-2.25-2.312-5.375-2.312-4.438 0-4.813 5.875zM508.625 360.15q3.125 0 10.188 1.375 1.437.25 2.375.25 1.062 0 4.125-1.125 1.437-.562 2.437-.562 2.875 0 5.813 3.687 2.375 2.938 3.875 6.438 1.5 3.5 1.5 6.062 0 2.5-1.75 4.188-1.75 1.625-4.375 1.625-2.188 0-3.938-1.063-1.688-1.062-5.5-4.687-4-3.875-6.625-3.875-1.75 0-3.063 1.312-1.25 1.25-1.25 3 0 3.063 5.875 5.75 10.563 4.75 16.188 10.375 4.75 4.75 4.75 11.625 0 8.688-7.625 14.5-6.563 5.063-16.063 5.063-2.437 0-8.875-.813-6.062-.687-6.812-.687-.813 0-1.875.187-1.813.25-2.625.25-2.938 0-4.625-1.5-2.563-2.312-4.75-7.25-2.188-5-2.188-8.562 0-5.75 4.5-5.75 1.75 0 3.188 1.187 1.5 1.125 6.188 6.125 2.562 2.75 4.25 3.813 1.687 1 3.625 1 2.062 0 3.312-1.063 1.25-1.125 1.25-2.937 0-2.813-4.813-5.125-10.062-4.938-14.562-10.188-4.438-5.25-4.438-12.125 0-7.437 4.563-12.812 6.5-7.688 17.75-7.688zM615.313 360.088q11.437 0 20.062 5.937 6.188 4.25 9.938 11.063 3.875 7.125 3.875 14.875 0 13.562-12.438 23.062-11.875 9.063-27.188 9.063-14.937 0-24.187-8.5-9-8.25-9-21.5 0-14.75 11-24.125 11.5-9.875 27.938-9.875zm-5 14.437q-2.75 0-4.438 2.063-1.625 2-1.625 5.375 0 3.75 1.375 10.25 1.438 6.437 3.375 11.437 1.938 5.125 6.313 5.125 5.562 0 5.562-7.062 0-5.25-1.438-11.938-1.375-6.687-3.375-10.875-2.062-4.25-5.75-4.375zM716.375 379.713l-16.188 31.5q-3.75 7.312-6.375 10.187-2.625 2.813-5.625 2.813-2.937 0-4.75-2.125-3.812-4.25-6.687-9.625L659 378.775q-1.438-2.75-2.813-3.937-1.312-1.25-3.687-1.875-4.75-1.375-4.75-5.125 0-3.813 5.875-5.563 5.875-1.75 18.563-1.75 10.625 0 15.625 1.563 5.062 1.5 5.062 4.687 0 2.25-2.375 4.313-1.5 1.375-1.938 2.062-.437.688-.437 1.75 0 2.125 2.75 7.063 2.75 4.812 5.125 4.812 1.563 0 2.563-1.187 1-1.188 3.625-6.125 1.937-3.625 1.937-5.5 0-1.5-2-3.563-2.125-2.25-2.125-4.187 0-3 3.938-4.313 4-1.312 13.062-1.312 12.75 0 12.75 5.5 0 3.187-4.563 4.625-3.562 1.125-4.875 2.437-1.25 1.313-3.937 6.563zM785.125 394.4H755.75q-1.938 0-1.938 1.688 0 4.062 4.375 7.687 4.438 3.563 9.5 3.563 3 0 6.625-1.125 3.688-1.188 6.063-2.875 2.125-1.5 3.375-1.5 1.625 0 3.188 2 1.562 2 1.562 4.125 0 4.5-5.625 8.687-9.938 7.438-22.938 7.438-13.125 0-22-7.625-4.312-3.75-7.125-9.063-3.687-7.062-3.687-14.875 0-10.5 6.375-18.875 5.5-7.25 14-10.812 6.375-2.688 13.813-2.688 11.875 0 20.187 6.75 4.188 3.375 6.75 8 2.938 5.25 2.938 10.25 0 4.063-1.688 6.688-1.688 2.562-4.375 2.562zm-27.75-11.687h6.313q4 0 4-3.688 0-3.375-1.938-5.5t-5.063-2.125q-3.5 0-5.5 2.75-1.875 2.563-1.875 5.188 0 1.875.875 2.625.938.75 3.188.75zM824.563 360.525q3.312 0 4 .938.75.937 1.312 6 .313 2.75 1.938 2.75 1.25 0 2.375-1.813 5-7.812 13.062-7.812 5.688 0 9.313 3.687 1.75 1.813 2.875 4.688 1.125 2.812 1.125 5.437 0 2.938-1.375 6.063-1.375 3.062-3.563 5.062-4 3.813-9.813 3.813-3.187 0-5.375-1.125-2.125-1.125-5.625-4.563-1.312-1.312-2.437-1.312-1.75 0-2.313 2-.5 1.937-.5 8.25 0 9.437.688 12.875.438 1.875 1.188 2.625.812.687 3.375 1.437 5.625 1.688 5.625 5.875 0 2.563-1.813 4.5-1.813 1.875-4.813 2.5-6 1.25-17.625 1.25-11.062 0-16.812-1.937-5.125-1.75-5.125-6.063 0-3.25 3.75-5.812 1.813-1.188 2.5-2.125.688-1 .938-2.688 1-5.687 1-21.062 0-2.813-.625-4-.625-1.25-2.5-2-4.438-1.75-4.438-5.063 0-3 3.063-5.125 3.062-2.187 10.25-4.312 9.625-2.875 16.375-2.938zM131.625 517.325v21.125q0 3.75 1.813 6.125 1.875 2.375 4.75 2.375 2.437 0 6.437-2.25.938-.562 1.875-.562 1.5 0 2.75 1.812 1.25 1.813 1.25 3.938 0 3.875-4.25 7.437-8.875 7.563-21.5 7.563-10 0-16.063-5.625-6.062-5.688-6.062-14.938V515.45q0-1.437-.375-1.75-.313-.375-1.75-.375h-6.438q-1.812 0-2.312-.562-.5-.625-.5-2.813v-2.75q.063-1.875 1.438-2.75l28.624-18q1.063-.562 2.626-.562H129q1.563 0 2.063.75.562.687.562 2.812v8.438q0 1.875.563 2.437.625.563 2.562.563h11.563q2.312 0 3 .875.687.812.687 3.562v3.688q0 3-.875 4.187-.875 1.125-3.188 1.125h-11.312q-1.75 0-2.375.625t-.625 2.375zM189 480.95l-.813 26.188q-.125 4.687 2.875 4.687 1.5 0 2.938-2.062 6.063-8.813 16.188-8.813 9.937 0 15.812 6.063 2.625 2.687 3.688 6.375 1.125 3.687 1.25 10.562l.562 22.563q.063 2.937.75 4.312.75 1.375 3.375 3.438 1.813 1.437 1.813 3.437 0 6.75-20.375 6.75-18.125 0-18.125-6.312 0-1.063.312-1.625.313-.563 2.188-3 2.625-3.438 2.625-17.188 0-8.312-1.563-12.125-2.063-5.187-7.375-5.187-3.813 0-5.625 2.75-1.313 2-1.313 7.5v12.062q.438 8 .75 9.063.313 1.062 2.875 3.937 1.188 1.313 1.188 3.063 0 7.062-18.375 7.062-21.5 0-21.5-7.312 0-1.688.688-2.563.687-.937 3.375-2.812 2.375-1.688 3.25-9.063.937-7.437.937-24.562 0-13.438-.75-18.625-.25-1.938-.938-2.813-.625-.937-2.437-1.875-3.875-2-3.875-4.625 0-3.125 2.938-5.062 2.937-1.938 11.25-4.188 11.25-3.125 17.937-3.125 3.625 0 3.5 3.125zM299 535.2h-29.375q-1.938 0-1.938 1.688 0 4.062 4.375 7.687 4.438 3.563 9.5 3.563 3 0 6.625-1.125 3.688-1.188 6.063-2.875 2.125-1.5 3.375-1.5 1.625 0 3.188 2 1.562 2 1.562 4.125 0 4.5-5.625 8.687-9.938 7.438-22.938 7.438-13.125 0-22-7.625-4.312-3.75-7.125-9.063Q241 541.138 241 533.325q0-10.5 6.375-18.875 5.5-7.25 14-10.812 6.375-2.688 13.813-2.688 11.875 0 20.187 6.75 4.188 3.375 6.75 8 2.938 5.25 2.938 10.25 0 4.063-1.688 6.688-1.688 2.562-4.375 2.562zm-27.75-11.687h6.313q4 0 4-3.688 0-3.375-1.938-5.5t-5.063-2.125q-3.5 0-5.5 2.75-1.875 2.563-1.875 5.188 0 1.875.875 2.625.938.75 3.188.75zM376.938 513.638V533.7q0 13.313.375 15.5.437 2.188 3.125 3.375 2.312 1 3.062 1.875.813.875.813 2.5 0 2.063-1.5 3.75-1.438 1.688-3.875 2.375-4.5 1.375-15.188 1.375-12.063 0-16.938-1.812-2.25-.813-3.687-2.5-1.438-1.75-1.438-3.625 0-1.5.75-2.313.813-.812 3.438-1.937 2.438-1.063 3-5.813 1-8.125 1-23.125 0-15.25-.875-19.625t-4.375-6.5Q342 495.7 341 494.388q-.938-1.375-.938-3.313 0-3.062 2.938-5.312 2.938-2.313 9.375-4.25 4.313-1.313 11.188-2.5 6.875-1.188 10-1.188 4.937 0 4.937 6.125 0 2-.625 9.188-.813 11.187-.938 20.5zM423.688 500.888q10.875 0 18.437 5.5 4 2.937 5.563 6.75 1.625 3.75 1.625 10.375l-.125 9.312q0 9.688 1.375 12.563.687 1.375 1.312 1.75t2.625.687q2 .313 2 2.625 0 3-2.438 6.25-2.375 3.25-6.187 5.438-4.688 2.75-9.813 2.75-6.562 0-10.375-4.5-1.312-1.625-2.437-1.625-1.25 0-3.313 1.562-6.25 4.563-14.187 4.563-8.188 0-13.25-3.5-3.313-2.313-5.25-6-1.938-3.75-1.938-7.813 0-6.5 5.25-11.5 8.188-7.875 24.5-7.937 3.625 0 4.563-.688.938-.75.938-3.375 0-6.625-1.375-9.562-1.375-3-4.5-3-1.875 0-3.375 1.125-1.438 1.125-3.625 4.125-5.563 7.937-11.625 7.937-3.063 0-5-1.812-1.938-1.813-1.938-4.75 0-3 2.375-6 2.438-3 6.563-5.25 11.312-6 23.625-6zm-4.188 36.187q-2.75 0-4.813 2.25-2 2.25-2 5.375 0 3 1.438 4.875 1.438 1.813 3.813 1.813 5 0 5-8.438 0-3.437-.75-4.625-.688-1.187-2.688-1.25zM492.438 502.513H509q5.75 0 7.313.25 1.625.187 2.437 1.062 1.063 1.063 1.063 2.813 0 2.312-2.063 5.937l-16.563 29.438q-2.062 3.687-2.062 5.187 0 2.938 4.438 2.938 3.187 0 5.062-1.25 1.938-1.313 3.625-4.5 1.438-2.875 2.375-3.813.938-1 2.25-1 2.75 0 4.5 2.188 1.75 2.187 1.75 5.625 0 3.875-2.125 8.312-2.125 4.375-5.375 7.313-2.438 2.187-4.625 2.187-.938 0-2.438-.625-3.062-1.312-7.25-1.375h-32.75q-8.312 0-8.312-4.812 0-1.063.625-2.25.625-1.188 4.375-7.438l14.313-23q4-6.375 4-8.062 0-2.5-5.25-2.5-2.688 0-4.313 1.062-1.563 1-3.375 3.813-2.063 3.375-3.188 4.375-1.062.937-2.875.937-2.437 0-4-1.875-1.562-1.937-1.562-4.875 0-5.625 3.813-12.125 3.625-6.187 6.937-6.187.75 0 2 .437 3.438 1.188 5.438 1.375 2.062.188 15.25.438zM585.813 531.7l-8.25 22.688q-3.063 8.437-6.188 13.75-3.063 5.375-7 9.125-8.125 7.75-19.563 7.75-9.25 0-15-4.875-4.437-3.75-4.437-9.563 0-4.812 3.063-8.062 3.125-3.313 7.625-3.313t7.25 3q1.312 1.375 1.75 2.438.437 1.062 1.312 4.687.688 2.75 3.125 2.75 1.938 0 3.25-1.687 1.313-1.688 1.313-4.188 0-2.937-3.25-9.812l-15.063-32.063q-2.375-5-3.563-6.25-1.187-1.25-5.25-3.062-1.25-.5-2.187-1.938-.875-1.5-.875-2.875 0-5.562 11.063-7.562 7.375-1.313 16.812-1.313 6.625 0 10.438 1.375 5.125 1.813 5.125 6.188 0 1.562-1.438 3.687-1.375 2-1.375 3.563 0 1.5.625 3.125.688 1.625 2.813 5.5 2.375 4.375 4.187 4.375 1.938 0 4-3.813 2.063-3.875 2.063-7.437 0-2.875-1.563-4.688-2.375-2.812-2.375-4.812 0-3.188 4.25-5.063 4.25-1.937 11.375-1.937 13.25 0 13.25 6.375 0 2.312-1.375 3.75-1.313 1.375-4.875 2.625-3 1.125-4.75 3.75-2.75 4.187-6.313 13.812zM710.563 482.888v57.062q0 4.875.375 6.25.437 1.375 2.312 2.688 2.25 1.562 3 2.75.813 1.187.813 2.875 0 5-10.063 7.625-9.063 2.312-18.125 2.312-2 0-2.625-.625-.563-.562-.75-2.812-.313-3.188-2.25-3.188-1.063 0-3.313 1.875-6.375 5.188-14.187 5.188-9.688 0-17.438-7.188-4.562-4.312-7.375-9.937-3.75-7.313-3.75-14.813 0-8.812 4.875-17 4.5-7.562 12.25-11.625 6.5-3.375 12.813-3.375 7.25 0 13 3.25.938.5 1.5.5 2 0 2-5.375 0-2.312-1.125-3.5-1.063-1.25-3.875-2.125-3.938-1.25-3.938-4.375 0-4.562 9.063-7.125 16-4.437 21.438-4.437 5.375 0 5.375 5.125zm-33.938 31.437q-4.063 0-6.438 4.313-3.187 5.75-3.187 15.125 0 8.5 3.063 12.812Q672.25 549.7 676 549.7q4.063 0 5.875-4.687 1.875-4.75 1.875-15.25 0-9.625-2.188-12.813-1.687-2.5-4.937-2.625zM759.438 500.888q11.437 0 20.062 5.937 6.188 4.25 9.938 11.063 3.875 7.125 3.875 14.875 0 13.562-12.438 23.062-11.875 9.063-27.188 9.063-14.937 0-24.187-8.5-9-8.25-9-21.5 0-14.75 11-24.125 11.5-9.875 27.938-9.875zm-5 14.437q-2.75 0-4.438 2.063-1.625 2-1.625 5.375 0 3.75 1.375 10.25 1.438 6.437 3.375 11.437 1.938 5.125 6.313 5.125 5.562 0 5.562-7.062 0-5.25-1.438-11.938-1.375-6.687-3.375-10.875-2.062-4.25-5.75-4.375zM864.188 497.575q1.562 0 2.75 1.813 1.187 1.75 1.187 4.125 0 2.562-1.625 5.812-1.563 3.25-3.813 5.188-1.437 1.25-1.437 2 0 .187.125 1.5.188 1.312.188 2.375 0 7.437-5 12.5-4.5 4.5-11.625 7-7.063 2.5-15.563 2.5-2.063 0-4.063-.25-1.625-.188-2.5-.188-3.312 0-3.312 3.313 0 2.125 2.125 3.375 2.188 1.187 5.875 1.187 2.5 0 7.375-.687Q845.125 547.7 850 547.7q7.375 0 11.438 2.438 3.25 1.875 5.125 5.25 1.937 3.375 1.937 7.25 0 6.312-4.625 12.25-5.5 7-16.188 10.375-8.375 2.625-19.375 2.625-13.875 0-22.5-4.25-4-2-6.375-5.25t-2.375-6.75q0-2.438 1.313-4.5 1.375-2.063 3.438-2.938 1.875-.75 1.875-1.625 0-.687-1.563-2-5-4.187-5-8.687 0-3 2.375-6.188 2.438-3.187 6-4.937 1.5-.75 1.5-1.5 0-.875-1.875-2.625-6.438-5.938-6.438-13.875 0-4.188 2.25-8 2.313-3.813 6.375-6.5 10.063-6.563 22.313-6.563 4.875 0 10.875 1.25 5.688 1.125 7.813 1.125 6.812 0 13.562-5.375 1.5-1.125 2.313-1.125zm-33.938 12.938q-3.125 0-5.063 2.375-1.875 2.375-1.875 6.312 0 6.75 2.063 10.813 2.063 4.062 5.438 4.062 3.312 0 5.25-2.5 1.937-2.562 1.937-6.812 0-6.688-2.063-10.375-2-3.75-5.687-3.875zm-13.625 56.875q-1.563 0-1.563 1.812 0 3.688 4 5.938 4 2.312 10.375 2.312 6.125 0 9.563-1.625 3.5-1.625 3.5-4.562 0-1.563-1.313-2.688-1.312-1.062-3.25-1.062-1 0-2.875.25-3.5.562-7.812.562-3.188 0-6.125-.312-2.188-.188-3.563-.5-.625-.125-.937-.125zM888.625 535.388q5.938 0 10.313 4.125 4.437 4.187 4.437 10.812 0 6.188-4.438 10.438-4.375 4.125-10.312 4.125-5.938 0-10.313-4.125-4.437-4.25-4.437-10.625 0-6.5 4.438-10.625 4.375-4.063 10.312-4.125z"/></g></svg>