<svg xmlns="http://www.w3.org/2000/svg" viewBox="0 0 1600 1000" height="1000" width="1600"><path fill="#fff" d="M0 0h1600v1000H0z"/><g font-weight="100" font-size="200" font-family="Copperplate Gothic" letter-spacing="-.03em" text-anchor="middle" fill="#222"><path d="M386.668 99.395v109.082q0 4.003 1.27 5.76 1.27 1.66 4.98 2.638V220h-27.832v-3.125q3.71-.977 4.98-2.637 1.27-1.66 1.27-5.76V99.394H326.22q-4.103 0-5.86 1.27-1.66 1.17-2.54 4.882h-3.125V80.352h3.125q.88 3.808 2.54 5.078 1.757 1.27 5.86 1.27h105.565q4.102 0 5.762-1.27 1.758-1.27 2.637-5.078h3.125v25.195h-3.126q-.88-3.71-2.637-4.883-1.66-1.27-5.762-1.27zM543.56 169.023h-72.072v39.942q0 4.004 1.27 5.762 1.27 1.66 4.98 2.636V220h-26.465v-2.637q3.71-.976 4.98-2.636 1.27-1.758 1.27-5.762V121.66q0-4.1-1.27-5.762-1.27-1.66-4.98-2.636v-2.637h26.465v2.637q-3.71.976-4.98 2.636-1.27 1.66-1.27 5.762v36.72h72.07v-36.72q0-4.1-1.27-5.762-1.268-1.66-4.98-2.636v-2.637h26.465v2.637q-3.71.976-4.98 2.734-1.27 1.66-1.27 5.664v87.305q0 4.004 1.27 5.762 1.27 1.66 4.98 2.636V220H537.31v-2.637q3.71-.976 4.98-2.636 1.27-1.758 1.27-5.762zM601.426 168.828v40.527h67.578q4.1 0 5.762-1.27 1.757-1.27 2.636-5.077h2.735v23.242h-2.735q-.88-3.71-2.54-4.98-1.66-1.27-5.76-1.27h-87.89v-2.637q3.808-.976 4.98-2.636 1.27-1.758 1.27-5.762V121.66q0-4.1-1.27-5.762-1.27-1.66-4.98-2.636v-2.637h87.206q4.102 0 5.762-1.27 1.66-1.27 2.636-4.98h2.637v23.242h-2.637q-.976-3.808-2.636-5.078-1.66-1.27-5.762-1.27h-66.992v36.914h42.676q4.1 0 5.76-1.27 1.66-1.27 2.638-4.98h2.637v23.242H652.5q-.977-3.81-2.734-5.078-1.66-1.27-5.664-1.27zM830.637 217.56q-13.672 4.784-29.297 4.784-28.71 0-46.582-15.235-19.043-16.212-19.043-41.797 0-25.586 19.043-41.797 17.87-15.235 46.875-15.235 29.004 0 46.875 15.236 19.043 16.21 19.043 41.796 0 29.786-25.585 46.583l10.156 7.714q2.247 1.66 4.2 1.66 1.27 0 3.907-3.125l2.148 1.464-14.648 19.238-2.05-1.66q1.366-3.32 1.366-4.493 0-2.148-3.027-4.59zm-11.328-8.986q-6.935-4.98-10.45-6.64-3.516-1.66-6.934-1.66-3.223 0-6.836 2.54l-1.66-2.15q7.812-5.273 15.722-5.273 5.47 0 10.06 1.758 4.686 1.758 11.815 6.446 21.875-14.063 21.875-38.28 0-18.36-12.695-31.056-14.55-14.65-38.574-14.65-24.024 0-38.574 14.65-12.697 12.695-12.697 31.055t12.696 31.054q14.55 14.65 38.475 14.65 8.203 0 17.774-2.443zM900.027 121.66v56.153q0 12.988 1.27 17.968 1.27 4.884 5.566 8.204 8.79 7.032 30.078 7.032 23.537 0 31.837-8.594 3.028-3.223 4.004-7.91.978-4.785.978-16.7V121.66q0-4.004-1.27-5.664-1.27-1.758-4.98-2.734v-2.637h24.12v2.637q-3.71.976-4.98 2.636-1.27 1.66-1.27 5.762v58.985q0 15.04-2.538 21.19-4.297 10.548-15.723 15.528-11.426 4.98-31.445 4.98-28.71 0-40.235-10.644-5.566-5.08-7.52-11.427-1.855-6.347-1.855-19.628V121.66q0-4.1-1.27-5.762-1.27-1.66-4.98-2.636v-2.637h26.465v2.637q-3.71.976-4.98 2.734-1.27 1.66-1.27 5.664zM1013.46 208.965V121.66q0-4.1-1.27-5.762-1.268-1.66-4.98-2.636v-2.637h26.466v2.637q-3.71.976-4.98 2.636-1.27 1.66-1.27 5.762v87.305q0 4.004 1.27 5.762 1.27 1.66 4.98 2.636V220h-26.465v-2.637q3.712-.976 4.98-2.636 1.27-1.758 1.27-5.762zM1168.105 118.73l-12.207 20.997-2.246-1.465q.684-2.54.684-3.907 0-2.05-3.906-4.59-15.723-10.156-36.914-10.156-20.704 0-34.668 11.425-15.625 12.793-15.625 33.496 0 22.462 17.285 35.84 13.574 10.646 32.422 10.646 21.29 0 37.01-12.403 6.154-4.883 6.154-7.13 0-1.66-1.66-4.98l2.246-1.464 15.234 19.53-2.05 1.758q-3.42-3.027-4.883-3.027-.78 0-2.343 1.27-12.012 9.375-24.12 13.575-12.013 4.2-26.955 4.2-26.074 0-42.968-14.064-8.496-7.03-13.574-16.698-6.446-12.305-6.446-26.465 0-26.855 20.996-43.262 17.48-13.574 43.946-13.574 23.437 0 44.824 11.525 1.855.976 2.832.976 2.05 0 4.59-3.32zM1201.754 177.715v31.25q0 4.004 1.27 5.762 1.27 1.66 4.98 2.636V220h-26.465v-2.637q3.71-.976 4.98-2.636 1.27-1.758 1.27-5.762V121.66q0-4.1-1.27-5.762-1.27-1.66-4.98-2.636v-2.637h26.464v2.637q-3.71.976-4.98 2.636-1.27 1.66-1.27 5.762v43.164l52.344-40.722q5.37-4.2 6.64-5.47 1.27-1.366 1.27-2.636 0-2.05-3.516-2.734v-2.637h30.762v2.637q-3.906.78-5.37 1.465-1.466.683-4.59 3.125l-43.653 34.082 48.34 61.425q1.954 2.44 3.32 3.222 1.466.684 4.2.78V220h-29.102v-2.637q4.297-1.074 4.297-2.636 0-1.075-3.418-5.664l-37.988-49.122zM358.836 382.676q19.238 7.812 19.238 26.855 0 13.868-9.765 22.17-5.47 4.59-12.6 6.445Q348.583 440 336.67 440h-67.676v-2.637q3.71-.976 4.98-2.636 1.27-1.758 1.27-5.762V341.66q0-4.1-1.27-5.762-1.27-1.66-4.98-2.636v-2.637h65.625q10.254 0 16.602 1.367 6.346 1.27 11.034 4.395 5.664 3.613 8.887 9.96 3.32 6.348 3.32 13.477 0 15.04-15.624 22.852zm-69.63-5.176h41.505q9.864 0 14.454-.684 4.688-.78 8.4-2.93 7.518-4.198 7.518-13.573 0-10.45-8.69-15.43-3.81-2.15-8.595-2.832-4.688-.78-14.258-.78h-40.333zm0 51.855h43.556q10.35 0 15.234-.78 4.883-.88 8.79-3.32 7.91-4.982 7.91-15.528 0-11.817-9.18-17.383-3.907-2.442-8.985-3.32-4.98-.88-15.038-.88h-42.285zM412.504 390.488v38.477q0 4.004 1.27 5.762 1.27 1.66 4.98 2.636V440H392.29v-2.637q3.808-.976 4.98-2.636 1.27-1.758 1.27-5.762V341.66q0-4.1-1.27-5.762-1.27-1.66-4.98-2.636v-2.637h64.94q11.036 0 17.97 1.563 7.03 1.562 12.206 5.273 11.328 8.01 11.328 23.438 0 12.598-7.91 19.922-7.91 7.227-23.242 8.692l27.44 43.554q1.466 2.344 2.833 3.223 1.465.78 5.08 1.27V440h-27.052v-2.637q3.808-.78 3.808-2.44 0-1.173-2.245-4.69L452.25 390.49zm0-10.644h41.6q10.06 0 15.04-.684 5.08-.78 8.594-2.734 7.715-4.297 7.715-14.942 0-10.254-7.226-15.43-6.64-4.784-22.56-4.784h-43.163zM575.547 328.28q29.2 0 47.07 15.236 19.043 16.113 19.043 42.578 0 16.504-9.375 30.273-17.676 25.977-56.543 25.977-29.004 0-46.875-15.235-19.043-16.212-19.043-41.797 0-17.286 9.278-31.055 9.863-14.55 27.636-21.192 12.207-4.59 28.81-4.785zm0 11.33q-23.828 0-38.38 14.648-12.694 12.695-12.694 31.055t12.695 31.054q14.55 14.65 38.574 14.65 24.024 0 38.574-14.65 12.696-12.695 12.696-30.47 0-19.237-12.696-31.64-14.648-14.452-38.77-14.648zM729.508 350.254l-26.66 74.512q-1.953 5.468-1.953 6.933 0 4.198 5.664 5.663V440h-30.47v-2.637q5.37-.88 5.37-5.078 0-2.637-1.757-7.52l-29.98-80.86q-1.953-5.468-3.81-7.42-1.757-1.954-5.956-3.223v-2.637h28.613v2.637q-5.566 1.367-5.566 5.273 0 1.27 1.465 5.37l27.928 77.247 27.344-77.246q1.367-3.808 1.367-5.273 0-3.906-5.274-5.37v-2.638h29.492v2.637q-5.664 1.465-5.664 5.176 0 1.953 1.27 5.468l27.93 78.223 27.148-78.224q.976-2.734.976-4.785 0-4.49-6.152-5.858v-2.637h28.223v2.637q-4.2.976-6.544 3.32-2.246 2.246-4.102 7.324l-29.297 82.422q-1.367 3.71-1.367 5.664 0 4.883 5.47 5.37V440h-30.177v-2.637q5.176-.88 5.176-5.176 0-2.246-1.857-7.42zM842.16 347.715v81.25q0 4.004 1.172 5.762 1.27 1.66 5.078 2.636V440h-24.12v-2.637q3.808-.976 4.98-2.636 1.27-1.758 1.27-5.762V341.66q0-4.1-1.27-5.762-1.27-1.66-4.98-2.636v-2.637h35.546v2.637q-5.078 1.66-5.078 5.078 0 2.93 3.71 7.03l64.552 72.267V341.66q0-4.1-1.27-5.762-1.27-1.66-4.98-2.636v-2.637h24.12v2.637q-3.71.976-4.98 2.636-1.27 1.66-1.27 5.762v87.305q0 4.004 1.173 5.762 1.27 1.66 5.078 2.636V440h-28.613v-2.637q5.078-1.27 5.078-4.004 0-2.05-4.687-7.325zM1022.738 388.73v40.235q0 4.004 1.27 5.762 1.27 1.66 4.98 2.636V440h-26.465v-2.637q3.71-.976 4.98-2.636 1.27-1.758 1.27-5.762V341.66q0-4.1-1.27-5.762-1.27-1.66-4.98-2.636v-2.637h88.868q4.004 0 5.665-1.27 1.757-1.27 2.734-4.98h2.636v23.242h-2.637q-.978-3.808-2.735-5.078-1.66-1.27-5.664-1.27h-68.652v36.816h44.63q4.1 0 5.76-1.27 1.66-1.27 2.638-5.078h2.636v23.242h-2.636q-.977-3.71-2.637-4.98-1.66-1.27-5.763-1.27zM1173.28 328.28q29.2 0 47.072 15.236 19.043 16.113 19.043 42.578 0 16.504-9.375 30.273-17.676 25.977-56.543 25.977-29.004 0-46.875-15.235-19.043-16.212-19.043-41.797 0-17.286 9.276-31.055 9.863-14.55 27.637-21.192 12.207-4.59 28.808-4.785zm0 11.33q-23.827 0-38.378 14.648-12.695 12.695-12.695 31.055t12.695 31.054q14.55 14.65 38.575 14.65 24.023 0 38.574-14.65 12.696-12.695 12.696-30.47 0-19.237-12.695-31.64-14.648-14.452-38.77-14.648z"/><path d="M1299.996 381.21l34.082 44.435q5.274 6.933 7.91 9.082 2.637 2.148 6.25 2.636V440h-30.566v-2.637q4.785-.488 4.785-3.125 0-1.562-3.32-6.054l-27.637-36.33-28.223 36.427q-2.734 3.517-2.734 5.763 0 2.44 4.395 3.32V440h-28.614v-2.637q4.004-.976 6.836-3.222 2.93-2.343 7.813-8.495l33.984-42.872-29.1-37.5q-5.373-7.128-7.716-9.082-2.245-1.952-6.152-2.928v-2.637h31.25v2.637q-4.492 1.172-4.492 4.297 0 2.44 2.246 5.467l21.973 29.004 23.242-29.59q2.344-3.124 2.344-4.98 0-3.417-4.59-4.198v-2.637h27.93v2.637q-4.2 1.465-6.542 3.515-2.344 1.953-7.422 8.594zM234.785 656.484l10.938-23.144 2.54 1.074q-.783 3.223-.783 4.59 0 1.562 1.856 3.027 4.883 3.907 13.184 6.447 8.398 2.54 16.308 2.54 7.422 0 12.988-2.54 5.664-2.637 8.106-7.227 2.637-4.785 2.637-18.457V561.66q0-4.1-1.27-5.762-1.27-1.66-4.98-2.636v-2.637h26.463v2.637q-3.71.976-4.98 2.636-1.27 1.66-1.27 5.762v63.867q0 9.278-1.562 15.04-1.464 5.76-4.882 9.96-4.59 5.47-12.598 8.692-7.91 3.124-17.187 3.124-7.91 0-18.164-2.15-10.255-2.147-17.872-5.467-1.563-.684-2.637-.684-2.343 0-4.393 3.516zM356.13 561.66v56.153q0 12.988 1.268 17.968 1.27 4.884 5.567 8.204 8.79 7.032 30.078 7.032 23.535 0 31.836-8.594 3.026-3.223 4.003-7.91.976-4.785.976-16.7V561.66q0-4.004-1.27-5.664-1.27-1.758-4.98-2.734v-2.637h24.12v2.637q-3.71.976-4.98 2.636-1.27 1.66-1.27 5.762v58.985q0 15.04-2.54 21.19-4.295 10.548-15.72 15.528-11.427 4.98-31.447 4.98-28.71 0-40.234-10.644-5.567-5.08-7.52-11.427-1.856-6.347-1.856-19.628V561.66q0-4.1-1.27-5.762-1.27-1.66-4.98-2.636v-2.637h26.465v2.637q-3.712.976-4.982 2.734-1.27 1.66-1.27 5.664zM527.668 660l-46.484-92.188v81.153q0 4.004 1.27 5.762 1.27 1.66 4.98 2.636V660h-24.122v-2.637q3.71-.976 4.98-2.636 1.27-1.758 1.27-5.762V561.66q0-4.1-1.27-5.762-1.27-1.66-4.98-2.636v-2.637h33.204v2.637q-4.883 1.465-4.883 4.297 0 1.17 2.44 6.15l34.572 69.923 34.765-69.922q2.344-4.687 2.344-6.15 0-2.833-4.883-4.298v-2.637h33.497v2.637q-3.71.976-4.98 2.734-1.27 1.66-1.27 5.664v87.305q0 4.004 1.27 5.762 1.27 1.66 4.98 2.636V660h-26.465v-2.637q3.71-.976 4.98-2.636 1.27-1.758 1.27-5.762v-81.153zM632.215 610.88v38.964q0 2.93 1.27 4.492 1.367 1.562 4.687 2.54V660H612v-3.125q3.516-.977 4.883-2.54 1.367-1.562 1.367-4.49v-89.747q0-2.832-1.465-4.2-1.367-1.464-4.785-2.343v-2.93h60.547q12.11 0 18.262 1.074 6.25 1.073 11.23 4.1 5.956 3.516 9.374 10.255 3.418 6.64 3.418 14.746 0 8.106-3.418 14.65-3.32 6.542-9.473 10.155-5.077 3.125-11.23 4.2-6.15 1.074-18.163 1.074zm0-10.646h38.476q10.45 0 15.43-.78 4.982-.88 8.497-3.224 6.836-4.492 6.836-15.527 0-10.84-6.836-15.43-3.515-2.343-8.496-3.125-4.882-.878-15.43-.878h-38.475zM829.926 556.29l-10.742 21.288-2.344-1.172q.488-2.832.488-3.906 0-2.344-6.348-5.664-13.476-7.227-32.812-7.227-15.527 0-26.367 5.76-10.84 5.86-10.84 16.31 0 4.687 2.735 8.496 2.735 3.71 7.325 5.273 4.59 1.562 9.96 2.05 5.372.488 23.047 1.172 14.746.488 22.266 1.855 7.617 1.368 12.988 4.395 5.763 3.223 9.083 9.375 3.32 6.055 3.32 13.28 0 15.138-12.402 24.122-14.842 10.644-39.452 10.644-12.11 0-25.488-3.71-13.28-3.712-24.707-10.157-1.563-.977-2.344-.977-1.466 0-4.395 3.418l-2.247-1.465 12.403-20.8 2.345 1.367-.39 1.562q-.49 1.563-.49 2.54 0 2.733 9.962 8.007 16.796 8.886 34.863 8.886 16.504 0 27.44-5.664 5.275-2.735 8.4-7.325 3.125-4.687 3.125-9.765 0-4.688-2.637-8.4-2.637-3.71-6.934-5.272-4.004-1.367-8.984-1.953-4.883-.586-18.555-1.075-16.113-.683-23.047-1.562-6.933-.977-13.085-3.223-7.813-2.832-12.598-9.18-4.785-6.542-4.785-15.43 0-15.722 14.257-24.706 14.55-9.18 37.012-9.18 20.507 0 41.21 9.18 3.125 1.27 3.613 1.27 1.563 0 3.71-3.613zM950.836 548.28q29.2 0 47.07 15.236 19.043 16.113 19.043 42.578 0 16.504-9.376 30.273-17.676 25.977-56.543 25.977-29.003 0-46.874-15.235-19.043-16.212-19.043-41.797 0-17.286 9.278-31.055 9.864-14.55 27.637-21.192 12.207-4.59 28.81-4.785zm0 11.33q-23.828 0-38.38 14.648-12.694 12.695-12.694 31.055t12.695 31.054q14.55 14.65 38.574 14.65 24.025 0 38.575-14.65 12.696-12.695 12.696-30.47 0-19.237-12.695-31.64-14.648-14.452-38.77-14.648zM1075.5 644.473l35.06-80.176q1.463-3.223 1.463-5.567 0-4.59-5.76-5.468v-2.637h27.147v2.637q-4.2 1.172-6.152 3.515-1.856 2.344-5.664 11.035l-33.4 76.075q-2.342 5.37-2.342 8.105 0 4.297 5.468 5.37V660h-33.79v-2.637q5.47-1.172 5.47-5.468 0-2.637-2.44-8.008l-34.376-76.074q-4.004-8.887-5.86-11.133-1.855-2.246-6.054-3.418v-2.637h30.273v2.637q-5.762.976-5.762 5.273 0 2.442 1.466 5.762zM1162.762 608.828v40.527h67.578q4.1 0 5.762-1.27 1.757-1.27 2.636-5.077h2.735v23.242h-2.735q-.88-3.71-2.54-4.98-1.66-1.27-5.76-1.27h-87.89v-2.637q3.808-.976 4.98-2.636 1.27-1.758 1.27-5.762V561.66q0-4.1-1.27-5.762-1.27-1.66-4.98-2.636v-2.637h87.206q4.102 0 5.762-1.27 1.66-1.27 2.636-4.98h2.637v23.242h-2.638q-.976-3.808-2.636-5.078-1.66-1.27-5.762-1.27h-66.992v36.914h42.676q4.1 0 5.76-1.27 1.66-1.27 2.638-4.98h2.637v23.242h-2.637q-.977-3.81-2.734-5.078-1.66-1.27-5.664-1.27zM1275.902 610.488v38.477q0 4.004 1.27 5.762 1.27 1.66 4.98 2.636V660h-26.465v-2.637q3.81-.976 4.98-2.636 1.27-1.758 1.27-5.762V561.66q0-4.1-1.27-5.762-1.27-1.66-4.98-2.636v-2.637h64.942q11.034 0 17.968 1.563 7.03 1.562 12.207 5.273 11.328 8.01 11.328 23.438 0 12.598-7.91 19.922-7.91 7.227-23.242 8.692l27.442 43.554q1.465 2.344 2.832 3.223 1.465.78 5.078 1.27V660h-27.05v-2.637q3.808-.78 3.808-2.44 0-1.173-2.246-4.69l-25.196-39.745zm0-10.644h41.602q10.06 0 15.04-.684 5.077-.78 8.593-2.734 7.715-4.297 7.715-14.942 0-10.254-7.227-15.43-6.64-4.784-22.56-4.784h-43.163zM197.23 781.855v87.11q0 4.004 1.172 5.762 1.27 1.66 5.078 2.636V880h-26.464v-2.637q3.71-.976 4.98-2.636 1.27-1.758 1.27-5.762v-87.11H147.62q-4.1 0-5.76 1.27-1.66 1.27-2.637 5.078h-2.637V764.96h2.637q.976 3.712 2.636 4.98 1.66 1.27 5.76 1.27h85.255q4.102 0 5.762-1.27 1.66-1.268 2.636-4.98h2.637v23.243h-2.637q-.976-3.808-2.734-5.078-1.66-1.27-5.665-1.27zM345.527 829.023h-72.07v39.942q0 4.004 1.27 5.762 1.27 1.66 4.98 2.636V880h-26.465v-2.637q3.71-.976 4.98-2.636 1.27-1.758 1.27-5.762V781.66q0-4.1-1.27-5.762-1.27-1.66-4.98-2.636v-2.637h26.465v2.637q-3.71.976-4.98 2.636-1.27 1.66-1.27 5.762v36.72h72.07v-36.72q0-4.1-1.27-5.762-1.27-1.66-4.98-2.636v-2.637h26.465v2.637q-3.71.976-4.98 2.734-1.27 1.66-1.27 5.664v87.305q0 4.004 1.27 5.762 1.27 1.66 4.98 2.636V880h-26.465v-2.637q3.71-.976 4.98-2.636 1.27-1.758 1.27-5.762zM403.395 828.828v40.527h67.578q4.1 0 5.76-1.27 1.76-1.27 2.638-5.077h2.735v23.242h-2.734q-.878-3.71-2.538-4.98-1.66-1.27-5.762-1.27h-87.89v-2.637q3.808-.976 4.98-2.636 1.27-1.758 1.27-5.762V781.66q0-4.1-1.27-5.762-1.27-1.66-4.98-2.636v-2.637h87.207q4.1 0 5.76-1.27 1.662-1.27 2.638-4.98h2.637v23.242h-2.637q-.976-3.808-2.637-5.078-1.66-1.27-5.76-1.27h-66.993v36.914h42.675q4.102 0 5.762-1.27 1.66-1.27 2.637-4.98h2.635v23.242h-2.636q-.978-3.81-2.736-5.078-1.66-1.27-5.664-1.27zM560.535 869.355h66.7q4.1 0 5.76-1.27 1.76-1.27 2.735-5.077h2.637v23.242h-2.637q-.976-3.71-2.734-4.98-1.66-1.27-5.762-1.27H540.32v-2.637q3.71-.976 4.98-2.636 1.27-1.758 1.27-5.762V781.66q0-4.1-1.27-5.762-1.27-1.66-4.98-2.636v-2.637h26.465v2.637q-3.71.976-4.98 2.636-1.27 1.66-1.27 5.762z"/><path d="M724.262 849.238h-57.324l-8.3 18.36q-1.564 3.418-1.564 5.078 0 3.32 5.078 4.687V880H635.2v-2.637q3.905-.683 6.054-3.027 2.246-2.44 5.273-9.18l36.23-78.71q3.028-6.544 3.028-8.985 0-3.417-4.883-4.198v-2.637h31.74v2.637q-4.884 1.074-4.884 4.2 0 1.854 3.906 10.448l34.766 75.684q3.515 7.52 6.054 10.35 2.54 2.833 6.446 3.42V880h-28.516v-2.637q4.59-.976 4.59-3.32 0-1.172-2.344-6.445zm-4.59-10.644l-23.926-53.516-24.12 53.516z"/><path d="M854.59 770.625v1.66l-74.22 97.07h63.38q4.102 0 5.762-1.27 1.758-1.27 2.734-5.077h2.637v23.242h-2.637q-.976-3.71-2.734-4.98-1.66-1.27-5.762-1.27h-86.914v-2.148l74.902-96.582h-62.793q-4.1 0-5.76 1.27-1.662 1.27-2.638 5.077h-2.637v-23.242h2.637q.976 3.71 2.637 4.98 1.66 1.27 5.76 1.27z"/><path d="M915.68 831.758v37.207q0 4.004 1.172 5.762 1.27 1.66 5.078 2.636V880h-26.465v-2.637q3.71-.976 4.98-2.636 1.27-1.758 1.27-5.762v-37.207l-33.692-43.945q-6.152-8.106-9.082-10.743-2.928-2.636-6.932-3.808v-2.637h30.86v2.637q-4.298.683-4.298 3.71 0 2.735 2.637 6.153l28.81 37.793 26.073-37.695q2.734-4.004 2.734-6.055 0-3.32-4.394-3.906v-2.637h28.515v2.637q-4.394 1.465-8.105 5.078-3.71 3.515-10.156 12.5zM1018.133 868.965V781.66q0-4.004-1.27-5.664-1.172-1.758-4.98-2.734v-2.637h55.273q22.168 0 33.008 5.176 13.477 6.544 21.094 21.68 6.64 13.086 6.64 27.833 0 17.285-8.79 31.738-7.616 12.598-19.335 17.774-11.62 5.176-32.617 5.176h-55.273v-2.637q3.808-.976 4.98-2.636 1.27-1.758 1.27-5.762zm13.965.39h34.277q19.434 0 28.418-5.273 9.96-5.762 14.844-18.164 3.613-9.375 3.613-20.606 0-20.02-10.254-32.03-5.664-6.544-14.062-9.278-8.3-2.734-22.56-2.734H1032.1zM1205.688 768.28q29.2 0 47.07 15.236 19.043 16.113 19.043 42.578 0 16.504-9.374 30.273-17.676 25.977-56.543 25.977-29.004 0-46.875-15.235-19.043-16.212-19.043-41.797 0-17.286 9.277-31.055 9.864-14.55 27.637-21.192 12.206-4.59 28.808-4.785zm0 11.33q-23.83 0-38.38 14.648-12.695 12.695-12.695 31.055t12.696 31.054q14.55 14.65 38.573 14.65t38.574-14.65q12.695-12.695 12.695-30.47 0-19.237-12.695-31.64-14.648-14.452-38.77-14.648zM1404.082 780.88l-13.38 21.483-2.245-1.367q.977-3.418.977-4.59 0-2.54-9.278-7.91-15.04-8.496-31.933-8.496-20.703 0-34.375 11.914-15.235 13.184-15.235 34.082 0 19.824 13.965 32.422 13.77 12.598 36.328 12.598 11.328 0 21.582-3.32 10.254-3.42 17.383-9.376v-20.117h-24.608q-4.102 0-5.86 1.27-1.66 1.27-2.54 4.98h-2.635V821.21h2.636q.88 3.81 2.54 5.08 1.757 1.27 5.86 1.27h43.163v2.635q-3.81.88-5.078 2.637-1.27 1.66-1.27 5.762v11.328q0 4.1 1.27 5.86 1.27 1.66 5.078 2.538v2.246q-25.39 21.778-59.082 21.778-26.563 0-43.555-14.258-9.083-7.715-14.26-18.555-5.565-11.522-5.565-23.925 0-18.36 11.133-33.105 9.96-13.086 26.465-19.238 12.304-4.59 26.367-4.59 12.11 0 22.07 2.93 10.06 2.93 24.023 10.45 2.247 1.17 3.223 1.17 1.172 0 4.59-3.906zM1437.047 861.055q4.492 0 7.52 3.125 3.124 3.125 3.124 7.617 0 4.297-3.22 7.422-3.126 3.124-7.423 3.124-4.395 0-7.52-3.125-3.125-3.224-3.125-7.52 0-4.395 3.028-7.423 3.125-3.125 7.617-3.222z"/></g></svg>