<svg xmlns="http://www.w3.org/2000/svg" viewBox="0 0 800 500"><path fill="#fff" d="M0 0h800v500H0z"/><g font-weight="100" font-size="100" font-family="Copperplate Gothic" text-anchor="middle" fill="#111"><path d="M179.834 49.697v54.54q0 2.003.635 2.882.634.83 2.49 1.317V110h-13.917v-1.563q1.855-.488 2.49-1.318.635-.83.635-2.882v-54.54h-22.56q-2.05 0-2.928.634-.83.586-1.27 2.44h-1.562V40.177h1.562q.44 1.904 1.27 2.54.88.634 2.93.634h52.783q2.05 0 2.88-.635.88-.635 1.32-2.54h1.56v12.598h-1.56q-.44-1.855-1.32-2.44-.83-.636-2.88-.636zM261.28 84.512h-36.036v19.97q0 2.002.635 2.88.634.83 2.49 1.32V110h-13.233v-1.318q1.855-.49 2.49-1.32.635-.878.635-2.88V60.83q0-2.05-.635-2.88-.635-.83-2.49-1.32v-1.318h13.232v1.32q-1.856.487-2.49 1.317-.636.83-.636 2.88v18.36h36.035V60.83q0-2.05-.635-2.88-.635-.83-2.49-1.32v-1.318h13.232v1.32q-1.856.487-2.49 1.366-.635.83-.635 2.832v43.652q0 2.002.634 2.88.635.83 2.49 1.32V110h-13.232v-1.318q1.856-.49 2.49-1.32.635-.878.635-2.88zM293.213 84.414v20.264h33.79q2.05 0 2.88-.635.88-.635 1.318-2.54h1.368v11.622H331.2q-.438-1.855-1.268-2.49-.83-.635-2.88-.635h-43.947v-1.318q1.905-.49 2.49-1.32.635-.878.635-2.88V60.83q0-2.05-.634-2.88-.635-.83-2.49-1.32v-1.318h43.603q2.05 0 2.88-.634.83-.635 1.318-2.49h1.32v11.62h-1.32q-.488-1.904-1.318-2.538-.83-.635-2.88-.635h-33.497v18.457h21.338q2.052 0 2.882-.635.83-.635 1.318-2.49h1.318v11.62h-1.318q-.488-1.903-1.367-2.538-.83-.636-2.832-.636zM413.818 108.78q-6.836 2.392-14.648 2.392-14.356 0-23.29-7.617-9.523-8.106-9.523-20.9 0-12.792 9.522-20.897 8.934-7.617 23.436-7.617t23.438 7.618q9.52 8.105 9.52 20.898 0 14.893-12.792 23.29l5.08 3.86q1.122.83 2.098.83.635 0 1.953-1.564l1.074.733-7.324 9.62-1.025-.83q.683-1.66.683-2.247 0-1.075-1.512-2.295zm-5.664-4.493q-3.467-2.49-5.224-3.32-1.758-.83-3.467-.83-1.61 0-3.418 1.27l-.83-1.075q3.906-2.637 7.86-2.637 2.736 0 5.03.88 2.344.878 5.91 3.222 10.936-7.03 10.936-19.14 0-9.18-6.346-15.528-7.276-7.325-19.288-7.325-12.01 0-19.287 7.324-6.348 6.347-6.348 15.526 0 9.18 6.347 15.528 7.275 7.324 19.238 7.324 4.1 0 8.886-1.22zM451.514 60.83v28.076q0 6.494.634 8.985.635 2.442 2.784 4.102 4.394 3.516 15.04 3.516 11.766 0 15.917-4.297 1.512-1.61 2-3.954.49-2.393.49-8.35V60.83q0-2.002-.636-2.832-.635-.88-2.49-1.367v-1.318h12.06v1.32q-1.855.487-2.49 1.317-.635.83-.635 2.88v29.492q0 7.52-1.27 10.596-2.15 5.273-7.86 7.764-5.714 2.49-15.724 2.49-14.356 0-20.117-5.322-2.784-2.54-3.76-5.713-.93-3.174-.93-9.815V60.83q0-2.05-.634-2.88-.634-.83-2.49-1.32v-1.318h13.233v1.32q-1.857.487-2.492 1.366-.634.83-.634 2.832zM511.23 104.482V60.83q0-2.05-.634-2.88-.635-.83-2.49-1.32v-1.318h13.232v1.32q-1.856.487-2.49 1.317-.635.83-.635 2.88v43.652q0 2.002.635 2.88.634.83 2.49 1.32V110h-13.233v-1.318q1.856-.49 2.49-1.32.635-.878.635-2.88zM591.553 59.365l-6.104 10.498-1.124-.732q.342-1.27.342-1.952 0-1.026-1.953-2.295-7.86-5.078-18.457-5.078-10.352 0-17.334 5.713-7.813 6.396-7.813 16.748 0 11.23 8.644 17.92 6.787 5.322 16.21 5.322 10.645 0 18.507-6.2 3.077-2.443 3.077-3.566 0-.83-.83-2.49l1.123-.732 7.617 9.765-1.025.88q-1.71-1.515-2.442-1.515-.39 0-1.172.635-6.006 4.688-12.06 6.787-6.006 2.1-13.477 2.1-13.036 0-21.483-7.03-4.248-3.517-6.787-8.35-3.223-6.153-3.223-13.233 0-13.43 10.498-21.632 8.74-6.787 21.973-6.787 11.72 0 22.412 5.762.928.49 1.416.49 1.025 0 2.295-1.662zM611.377 88.857v15.625q0 2.002.635 2.88.634.83 2.49 1.32V110H601.27v-1.318q1.855-.49 2.49-1.32.635-.878.635-2.88V60.83q0-2.05-.635-2.88-.635-.83-2.49-1.32v-1.318h13.232v1.32q-1.856.487-2.49 1.317-.635.83-.635 2.88v21.582l26.172-20.36q2.684-2.1 3.32-2.736.634-.683.634-1.318 0-1.025-1.758-1.367v-1.318h15.38v1.32q-1.952.39-2.685.73-.73.343-2.294 1.564l-21.826 17.04 24.17 30.714q.977 1.22 1.66 1.61.733.343 2.1.392V110H641.7v-1.318q2.148-.537 2.148-1.32 0-.536-1.71-2.83l-18.993-24.56zM165.918 191.338q9.62 3.906 9.62 13.428 0 6.933-4.884 11.084-2.734 2.295-6.3 3.222-3.563.928-9.52.928h-33.838v-1.318q1.856-.49 2.49-1.32.635-.878.635-2.88V170.83q0-2.05-.634-2.88-.634-.83-2.49-1.32v-1.318h32.813q5.126 0 8.3.684 3.173.635 5.517 2.197 2.832 1.807 4.443 4.98 1.66 3.175 1.66 6.74 0 7.52-7.812 11.425zm-34.814-2.588h20.75q4.933 0 7.228-.342 2.344-.39 4.2-1.465 3.76-2.1 3.76-6.787 0-5.224-4.347-7.715-1.904-1.073-4.297-1.415-2.343-.39-7.128-.39h-20.166zm0 25.928h21.777q5.177 0 7.618-.39 2.44-.44 4.395-1.66 3.955-2.49 3.955-7.765 0-5.908-4.59-8.69-1.953-1.222-4.492-1.66-2.49-.44-7.52-.44h-21.142zM195.752 195.244v19.238q0 2.002.635 2.88.634.83 2.49 1.32V220h-13.232v-1.318q1.904-.49 2.49-1.32.635-.878.635-2.88V170.83q0-2.05-.635-2.88-.635-.83-2.49-1.32v-1.318h32.47q5.518 0 8.985.782 3.515.78 6.103 2.636 5.664 4.004 5.664 11.72 0 6.298-3.955 9.96-3.955 3.613-11.62 4.346l13.72 21.777q.732 1.172 1.416 1.612.732.39 2.54.634V220H227.44v-1.318q1.906-.39 1.906-1.22 0-.587-1.123-2.345l-12.598-19.873zm0-5.322h20.8q5.03 0 7.52-.342 2.54-.39 4.297-1.367 3.857-2.15 3.857-7.47 0-5.128-3.614-7.716-3.32-2.392-11.28-2.392h-21.58zM280.273 164.14q14.6 0 23.536 7.618 9.52 8.056 9.52 21.29 0 8.25-4.687 15.136-8.838 12.988-28.272 12.988-14.5 0-23.436-7.617-9.522-8.106-9.522-20.9 0-8.64 4.64-15.526 4.93-7.276 13.817-10.597 6.103-2.295 14.403-2.392zm0 5.665q-11.914 0-19.19 7.324-6.347 6.347-6.347 15.526 0 9.18 6.348 15.528 7.275 7.324 19.287 7.324 12.013 0 19.288-7.324 6.348-6.348 6.348-15.235 0-9.62-6.348-15.82-7.324-7.228-19.385-7.325zM360.254 175.127l-13.33 37.256q-.977 2.734-.977 3.467 0 2.1 2.832 2.832V220h-15.235v-1.318q2.685-.44 2.685-2.54 0-1.318-.878-3.76l-14.99-40.43q-.977-2.733-1.905-3.71-.88-.976-2.978-1.61v-1.32h14.305v1.32q-2.783.682-2.783 2.636 0 .634.732 2.685l13.965 38.623 13.67-38.623q.685-1.904.685-2.637 0-1.953-2.637-2.685v-1.318h14.746v1.32q-2.832.73-2.832 2.587 0 .975.635 2.733l13.965 39.11 13.574-39.11q.488-1.367.488-2.392 0-2.246-3.076-2.93v-1.318h14.11v1.32q-2.098.487-3.27 1.66-1.123 1.122-2.05 3.66l-14.65 41.212q-.683 1.856-.683 2.832 0 2.44 2.734 2.686V220h-15.09v-1.318q2.59-.44 2.59-2.588 0-1.123-.928-3.71zM419.58 173.857v40.625q0 2.002.586 2.88.635.83 2.54 1.32V220h-12.06v-1.318q1.903-.49 2.49-1.32.634-.878.634-2.88V170.83q0-2.05-.635-2.88-.635-.83-2.49-1.32v-1.318h17.773v1.32q-2.54.83-2.54 2.538 0 1.465 1.856 3.516l32.276 36.132V170.83q0-2.05-.635-2.88-.635-.83-2.49-1.32v-1.318h12.06v1.32q-1.855.487-2.49 1.317-.635.83-.635 2.88v43.652q0 2.002.586 2.88.635.83 2.54 1.32V220h-14.307v-1.318q2.538-.635 2.538-2.002 0-1.026-2.344-3.662zM515.87 194.365v20.117q0 2.002.634 2.88.635.83 2.49 1.32V220h-13.232v-1.318q1.855-.49 2.49-1.32.635-.878.635-2.88V170.83q0-2.05-.635-2.88-.635-.83-2.49-1.32v-1.318h44.433q2.002 0 2.832-.634.88-.635 1.368-2.49h1.318v11.62h-1.318q-.49-1.904-1.368-2.538-.83-.635-2.832-.635H515.87v18.408h22.314q2.05 0 2.88-.635.83-.635 1.32-2.54h1.317v11.622h-1.317q-.488-1.855-1.32-2.49-.83-.635-2.88-.635zM594.14 164.14q14.6 0 23.536 7.618 9.52 8.056 9.52 21.29 0 8.25-4.686 15.136-8.838 12.988-28.272 12.988-14.502 0-23.437-7.617-9.52-8.106-9.52-20.9 0-8.64 4.638-15.526 4.932-7.276 13.818-10.597 6.104-2.295 14.405-2.392zm0 5.665q-11.913 0-19.19 7.324-6.346 6.347-6.346 15.526 0 9.18 6.347 15.528 7.277 7.324 19.288 7.324 12.012 0 19.287-7.324 6.348-6.348 6.348-15.235 0-9.62-6.348-15.82-7.324-7.228-19.384-7.325zM660.498 190.605l17.04 22.217q2.638 3.467 3.956 4.54 1.318 1.076 3.125 1.32V220h-15.284v-1.318q2.393-.245 2.393-1.563 0-.782-1.662-3.028l-13.818-18.164-14.11 18.213q-1.37 1.758-1.37 2.88 0 1.222 2.2 1.662V220H628.66v-1.318q2.002-.49 3.418-1.612 1.465-1.172 3.906-4.248l16.993-21.435-14.552-18.75q-2.686-3.565-3.858-4.54-1.123-.978-3.076-1.466v-1.318h15.625v1.32q-2.247.585-2.247 2.147 0 1.22 1.123 2.734l10.986 14.502 11.622-14.795q1.17-1.562 1.17-2.49 0-1.71-2.294-2.1v-1.318h13.965v1.32q-2.1.73-3.27 1.757-1.173.975-3.712 4.296zM102.393 328.242l5.468-11.572 1.27.537q-.39 1.61-.39 2.295 0 .78.928 1.514 2.44 1.953 6.592 3.222 4.2 1.27 8.154 1.27 3.71 0 6.494-1.27 2.832-1.318 4.053-3.613 1.32-2.393 1.32-9.23V280.83q0-2.05-.635-2.88-.635-.83-2.49-1.32v-1.317h13.232v1.318q-1.856.49-2.49 1.32-.635.83-.635 2.88v31.934q0 4.638-.782 7.52-.732 2.88-2.44 4.98-2.296 2.734-6.3 4.345-3.955 1.562-8.594 1.562-3.955 0-9.082-1.074-5.126-1.075-8.935-2.735-.782-.342-1.32-.342-1.17 0-2.197 1.76zM166.064 280.83v28.076q0 6.494.635 8.985.634 2.442 2.782 4.102 4.395 3.516 15.04 3.516 11.767 0 15.917-4.297 1.513-1.61 2-3.954.49-2.393.49-8.35V280.83q0-2.002-.635-2.832-.635-.88-2.49-1.367v-1.317h12.06v1.318q-1.855.49-2.49 1.32-.635.83-.635 2.88v29.492q0 7.52-1.27 10.596-2.148 5.273-7.86 7.764-5.714 2.49-15.723 2.49-14.356 0-20.117-5.322-2.784-2.54-3.76-5.713-.928-3.174-.928-9.815V280.83q0-2.05-.635-2.88-.634-.83-2.49-1.32v-1.318h13.232v1.32q-1.856.487-2.49 1.366-.636.83-.636 2.832zM254.834 330l-23.242-46.094v40.576q0 2.002.635 2.88.634.83 2.49 1.32V330h-12.06v-1.318q1.855-.49 2.49-1.32.634-.878.634-2.88V280.83q0-2.05-.634-2.88-.634-.83-2.49-1.32v-1.317h16.602v1.318q-2.442.733-2.442 2.15 0 .585 1.22 3.075l17.286 34.96 17.383-34.96q1.172-2.343 1.172-3.076 0-1.417-2.44-2.15v-1.317h16.747v1.318q-1.856.49-2.49 1.368-.635.83-.635 2.832v43.652q0 2.002.633 2.88.635.83 2.49 1.32V330h-13.232v-1.318q1.857-.49 2.49-1.32.636-.878.636-2.88v-40.576zM310.107 305.44v19.482q0 1.465.635 2.246.684.78 2.344 1.27V330H300v-1.563q1.758-.488 2.44-1.27.685-.78.685-2.245V280.05q0-1.417-.732-2.1-.684-.733-2.393-1.173v-1.464h30.273q6.055 0 9.13.537 3.126.537 5.617 2.05 2.978 1.758 4.687 5.127 1.71 3.32 1.71 7.373 0 4.053-1.71 7.325-1.66 3.27-4.736 5.078-2.538 1.562-5.615 2.1-3.076.536-9.082.536zm0-5.323h19.24q5.223 0 7.714-.39 2.49-.44 4.25-1.612 3.417-2.246 3.417-7.763 0-5.42-3.418-7.715-1.76-1.172-4.25-1.563-2.44-.44-7.714-.44h-19.24zM411.963 278.145l-5.37 10.644-1.173-.587q.244-1.416.244-1.953 0-1.172-3.174-2.832-6.738-3.613-16.406-3.613-7.764 0-13.184 2.88-5.42 2.93-5.42 8.155 0 2.344 1.368 4.248 1.367 1.855 3.662 2.637 2.295.78 4.98 1.025 2.686.244 11.524.586 7.373.244 11.132.928 3.81.683 6.495 2.197 2.88 1.612 4.542 4.688 1.66 3.028 1.66 6.64 0 7.57-6.2 12.062-7.423 5.322-19.728 5.322-6.055 0-12.744-1.856-6.64-1.855-12.354-5.078-.78-.488-1.17-.488-.734 0-2.2 1.71l-1.122-.733 6.2-10.4 1.173.683-.195.78q-.244.782-.244 1.27 0 1.368 4.98 4.004 8.4 4.444 17.432 4.444 8.252 0 13.72-2.832 2.637-1.367 4.2-3.662 1.562-2.344 1.562-4.883 0-2.343-1.318-4.198-1.318-1.856-3.467-2.637-2.002-.684-4.492-.977-2.44-.293-9.277-.537-8.057-.34-11.524-.78-3.467-.488-6.543-1.61-3.905-1.417-6.298-4.59-2.392-3.273-2.392-7.716 0-7.86 7.13-12.354 7.274-4.59 18.505-4.59 10.254 0 20.605 4.59 1.563.635 1.807.635.78 0 1.855-1.806zM478.418 274.14q14.6 0 23.535 7.618 9.522 8.056 9.522 21.29 0 8.25-4.688 15.136-8.838 12.988-28.27 12.988-14.503 0-23.44-7.617-9.52-8.106-9.52-20.9 0-8.64 4.638-15.526 4.932-7.276 13.82-10.597 6.102-2.295 14.403-2.392zm0 5.665q-11.914 0-19.19 7.324-6.347 6.347-6.347 15.526 0 9.18 6.35 15.528 7.274 7.324 19.286 7.324 12.01 0 19.287-7.324 6.347-6.348 6.347-15.235 0-9.62-6.347-15.82-7.324-7.228-19.385-7.325zM543.75 322.236l17.53-40.088q.732-1.61.732-2.783 0-2.295-2.88-2.734v-1.318h13.573v1.32q-2.1.585-3.076 1.757-.93 1.17-2.833 5.516l-16.7 38.037q-1.17 2.686-1.17 4.053 0 2.15 2.733 2.686V330h-16.894v-1.318q2.734-.586 2.734-2.735 0-1.318-1.22-4.004l-17.188-38.037q-2.002-4.443-2.93-5.566-.928-1.123-3.027-1.71v-1.318h15.136v1.32q-2.88.487-2.88 2.636 0 1.22.733 2.88zM590.38 304.414v20.264h33.79q2.05 0 2.88-.635.88-.635 1.32-2.54h1.366v11.622h-1.367q-.44-1.855-1.27-2.49-.83-.635-2.88-.635h-43.947v-1.318q1.905-.49 2.49-1.32.635-.878.635-2.88V280.83q0-2.05-.634-2.88-.635-.83-2.49-1.32v-1.317h43.603q2.05 0 2.88-.635.83-.635 1.32-2.49h1.318v11.62h-1.32q-.487-1.904-1.317-2.538-.83-.635-2.88-.635H590.38v18.457h21.34q2.05 0 2.88-.635.83-.635 1.318-2.49h1.318v11.62h-1.318q-.488-1.903-1.367-2.538-.83-.636-2.83-.636zM649.95 305.244v19.238q0 2.002.636 2.88.635.83 2.49 1.32V330h-13.232v-1.318q1.904-.49 2.49-1.32.635-.878.635-2.88V280.83q0-2.05-.636-2.88-.635-.83-2.49-1.32v-1.317h32.47q5.518 0 8.985.78 3.514.782 6.102 2.637 5.664 4.004 5.664 11.72 0 6.298-3.955 9.96-3.954 3.613-11.62 4.346l13.72 21.777q.733 1.172 1.417 1.612.732.39 2.54.634V330H681.64v-1.318q1.905-.39 1.905-1.22 0-.587-1.123-2.345l-12.598-19.873zm0-5.322h20.802q5.03 0 7.52-.342 2.54-.39 4.296-1.367 3.858-2.15 3.858-7.47 0-5.128-3.613-7.716-3.32-2.392-11.28-2.392H649.95zM80.615 390.928v43.554q0 2.002.586 2.88.636.83 2.54 1.32V440H70.508v-1.318q1.855-.49 2.49-1.32.635-.878.635-2.88v-43.554H55.81q-2.05 0-2.88.634-.83.635-1.32 2.54h-1.317V382.48h1.318q.49 1.856 1.32 2.49.83.635 2.88.635h42.627q2.05 0 2.88-.634.83-.634 1.32-2.49h1.318v11.622h-1.318q-.49-1.905-1.367-2.54-.83-.634-2.832-.634zM157.764 414.512H121.73v19.97q0 2.002.633 2.88.635.83 2.49 1.32V440h-13.232v-1.318q1.857-.49 2.49-1.32.636-.878.636-2.88V390.83q0-2.05-.635-2.88-.633-.83-2.49-1.32v-1.317h13.234v1.318q-1.856.49-2.49 1.32-.635.83-.635 2.88v18.36h36.034v-18.36q0-2.05-.635-2.88-.636-.83-2.49-1.32v-1.317h13.23v1.318q-1.854.49-2.49 1.368-.634.83-.634 2.832v43.652q0 2.002.635 2.88.636.83 2.49 1.32V440h-13.23v-1.318q1.854-.49 2.49-1.32.634-.878.634-2.88zM189.697 414.414v20.264h33.79q2.05 0 2.88-.635.88-.635 1.32-2.54h1.366v11.622h-1.367q-.44-1.855-1.27-2.49-.83-.635-2.88-.635H179.59v-1.318q1.904-.49 2.49-1.32.635-.878.635-2.88V390.83q0-2.05-.635-2.88-.635-.83-2.49-1.32v-1.317h43.603q2.05 0 2.88-.635.83-.635 1.32-2.49h1.318v11.62h-1.317q-.49-1.904-1.32-2.538-.83-.635-2.88-.635h-33.496v18.457h21.338q2.05 0 2.88-.635.83-.635 1.32-2.49h1.318v11.62h-1.32q-.487-1.903-1.366-2.538-.83-.636-2.832-.636zM274.268 434.678h33.35q2.05 0 2.88-.635.88-.635 1.367-2.54h1.32v11.622h-1.32q-.488-1.855-1.367-2.49-.83-.635-2.88-.635H264.16v-1.318q1.856-.49 2.49-1.32.635-.878.635-2.88V390.83q0-2.05-.635-2.88-.634-.83-2.49-1.32v-1.317h13.233v1.318q-1.856.49-2.49 1.32-.635.83-.635 2.88zM359.13 424.62h-28.66l-4.152 9.18q-.78 1.708-.78 2.538 0 1.66 2.538 2.344V440H314.6v-1.318q1.953-.342 3.027-1.514 1.123-1.22 2.637-4.59l18.115-39.355q1.513-3.272 1.513-4.493 0-1.71-2.442-2.1v-1.317h15.87v1.318q-2.44.538-2.44 2.1 0 .928 1.952 5.225l17.383 37.842q1.758 3.76 3.027 5.176 1.27 1.416 3.223 1.71V440h-14.258v-1.318q2.295-.49 2.295-1.66 0-.586-1.172-3.223zm-2.294-5.323l-11.963-26.758-12.06 26.757zM427.295 385.313v.83l-37.11 48.535h31.69q2.05 0 2.88-.635.88-.635 1.368-2.54h1.318v11.622h-1.317q-.488-1.855-1.367-2.49-.83-.635-2.88-.635h-43.458v-1.074l37.45-48.29h-31.395q-2.05 0-2.88.634-.83.634-1.32 2.54h-1.318v-11.623h1.318q.49 1.856 1.32 2.49.83.635 2.88.635zM460.84 415.88v18.602q0 2.002.586 2.88.635.83 2.54 1.32V440H450.73v-1.318q1.856-.49 2.49-1.32.635-.878.635-2.88V415.88l-16.845-21.974q-3.076-4.052-4.54-5.37-1.466-1.32-3.468-1.905v-1.317h15.43v1.318q-2.15.343-2.15 1.856 0 1.368 1.32 3.077l14.404 18.896 13.037-18.85q1.367-2 1.367-3.026 0-1.66-2.197-1.953v-1.317h14.258v1.318q-2.198.733-4.053 2.54-1.856 1.758-5.078 6.25zM518.066 434.482V390.83q0-2.002-.634-2.832-.586-.88-2.49-1.367v-1.317h27.636q11.084 0 16.504 2.587 6.738 3.272 10.547 10.84 3.32 6.543 3.32 13.916 0 8.643-4.395 15.87-3.81 6.298-9.668 8.886-5.81 2.588-16.31 2.588h-27.636v-1.318q1.906-.49 2.492-1.32.634-.878.634-2.88zm6.983.196h17.138q9.716 0 14.208-2.637 4.98-2.88 7.422-9.08 1.807-4.69 1.807-10.304 0-10.01-5.127-16.015-2.832-3.27-7.03-4.638-4.152-1.367-11.28-1.367h-17.14zM614.844 384.14q14.6 0 23.535 7.618 9.52 8.056 9.52 21.29 0 8.25-4.687 15.136-8.838 12.988-28.272 12.988-14.5 0-23.436-7.617-9.522-8.106-9.522-20.9 0-8.64 4.64-15.526 4.93-7.276 13.817-10.597 6.103-2.295 14.404-2.392zm0 5.665q-11.914 0-19.19 7.324-6.347 6.347-6.347 15.526 0 9.18 6.347 15.528 7.276 7.324 19.287 7.324 12.013 0 19.29-7.324 6.346-6.348 6.346-15.235 0-9.62-6.347-15.82-7.326-7.228-19.386-7.325zM717.04 390.44l-6.688 10.742-1.123-.684q.487-1.71.487-2.295 0-1.27-4.64-3.955Q697.56 390 689.112 390q-10.35 0-17.186 5.957-7.617 6.592-7.617 17.04 0 9.913 6.982 16.212 6.884 6.298 18.163 6.298 5.664 0 10.79-1.66 5.128-1.71 8.693-4.688v-10.058H696.63q-2.05 0-2.93.634-.83.635-1.268 2.49h-1.32v-11.62h1.32q.44 1.904 1.27 2.54.878.633 2.93.633h21.58v1.318q-1.903.44-2.538 1.318-.635.83-.635 2.88v5.665q0 2.052.634 2.93.635.83 2.54 1.27v1.123q-12.696 10.89-29.542 10.89-13.28 0-21.777-7.13-4.54-3.857-7.13-9.277-2.783-5.762-2.783-11.963 0-9.18 5.567-16.553 4.98-6.543 13.23-9.62 6.154-2.294 13.185-2.294 6.055 0 11.035 1.465 5.03 1.466 12.012 5.225 1.123.586 1.61.586.587 0 2.296-1.952zM736.523 430.527q2.247 0 3.76 1.563 1.563 1.562 1.563 3.808 0 2.15-1.612 3.71-1.562 1.564-3.71 1.564-2.198 0-3.76-1.563-1.563-1.612-1.563-3.76 0-2.198 1.515-3.71 1.562-1.564 3.808-1.613z"/></g></svg>