<svg xmlns="http://www.w3.org/2000/svg" viewBox="0 0 1600 1000" height="1000" width="1600"><path fill="#fff" d="M0 0h1600v1000H0z"/><g font-weight="400" font-size="200" font-family="Copperplate Gothic" letter-spacing="-.03em" text-anchor="middle" fill="#222"><path d="M388.034 220h26v-2.4c-3.8-1-4.6-2-4.6-5.8v-83.6h34.6c3.8 0 4.8.8 5.8 4.6h2.2v-22.6h-2.4c-1 3.8-2 4.8-5.8 4.8h-84.8c-3.8 0-4.8-1-5.8-4.8h-2.4v22.6h2.2c1-3.8 2-4.6 5.8-4.6h33.8v83.6c0 3.8-.8 4.8-4.6 5.8zM493.384 182.4h54.8v29.4c0 3.8-.8 4.8-4.6 5.8v2.4h25v-2.4c-3.8-1-4.8-2-4.8-5.8V142c0-3.8 1-4.8 4.8-5.8v-2.4h-25v2.4c3.8 1 4.6 2 4.6 5.8v27.4h-54.8V142c0-3.8.8-4.8 4.6-5.8v-2.4h-25v2.4c3.8 1 4.6 2 4.6 5.8v69.8c0 3.8-.8 4.8-4.6 5.8v2.4h25v-2.4c-3.8-1-4.6-2-4.6-5.8zM598.625 220h73.8c3.8 0 4.8.8 5.8 4.6h2.4v-22.4h-2.6c-1 3.8-2 4.6-5.8 4.6h-53.2v-24.2h31.8c3.8 0 4.8.8 5.8 4.6h2.4v-22.4h-2.6c-1 3.8-2.2 4.8-5.8 4.8h-31.6v-22.8h50c3.8 0 4.8.8 5.8 4.6h2.4V129h-2.6c-1 3.8-2.2 4.8-5.8 4.8h-70.2v2.4c3.8 1 4.6 2 4.6 5.8v69.8c0 3.8-.8 4.8-4.6 5.8zM824.97 219l8 9.8c1 1.4 1.6 2.4 1.6 2.8 0 1-.6 2-1.6 3.4l1.4 1.6 14.6-11.8-1.4-1.6c-1.4.6-2.2.8-2.8.8-1 0-2-.8-3.2-2.2l-6.6-7.6c13.6-8.8 21.2-22.4 21.2-37.4 0-25-20-45-50-45s-50 19.8-50 45 20 45 50.4 45c6.2 0 12.2-1 18.4-2.8zm-8.4-10.6c-4 .8-7.8 1.4-11.2 1.4-19 0-32.8-13.2-32.8-32.8 0-19.4 13.2-33.2 33.8-33.2 20.6 0 33.6 13.8 33.6 33.2 0 12.8-5 21-13.2 27-5-7-12.2-10.6-20.6-10.6-3.6 0-7.2.8-10.8 2.4l.4 2c.8 0 1.4-.2 2.2-.2 7.2 0 13.4 3.8 18.6 10.8zM882.68 187.6c0 24 11.6 34.2 42 34.2 30.2 0 41.8-10.4 41.8-34.2V142c0-3.8.8-4.8 4.6-5.8v-2.4h-25v2.4c3.8 1 4.8 2 4.8 5.8v45c0 15-7.6 22-26.2 22-18.4 0-26.2-7-26.2-22v-45c0-3.8.8-4.8 4.6-5.8v-2.4h-25v2.4c4 1 4.6 2.2 4.6 5.8zM1021.788 211.8V142c0-3.8.8-4.8 4.6-5.8v-2.4h-25v2.4c3.8 1 4.6 2 4.6 5.8v69.8c0 3.8-.8 4.8-4.6 5.8v2.4h25v-2.4c-3.8-1-4.6-2-4.6-5.8zM1131.716 160l11.6-19.4-1.8-1c-1.4 1.4-2.4 2.2-3 2.2-3.6 0-17.6-10-39.8-10-29.8 0-50 19.8-50 45 0 25.4 20.2 45 51 45 26.6 0 39.8-14.2 42-14.2.8 0 2 .4 3.4 1.4l1.6-1.2-14.2-17.6-2.2 1.6c.6 1.4 1 2.6 1 3 0 2.4-13.2 14.2-31.2 14.2-21.4 0-35.8-12.8-35.8-32 0-19 13.8-32.4 35.8-32.4 14.6 0 30.4 7.4 30.4 12.8 0 .6-.2 1.2-.4 1.6zM1183.025 172v-30c0-3.8.8-4.8 4.6-5.8v-2.4h-25v2.4c3.8 1 4.6 2 4.6 5.8v69.8c0 3.8-.8 4.8-4.6 5.8v2.4h25v-2.4c-3.8-1-4.6-2-4.6-5.8v-26.4l18.4-13.8 29.4 37.4c2.2 2.6 3.4 4.4 3.4 6.4 0 1-.6 1.6-2.2 2.2v2.4h25.6v-2.4c-3.6-1.4-6.2-5-10-9.8l-34.8-44.6 23.6-17c5.2-3.8 10.6-7.2 16.6-10v-2.4h-29.2v2.4c1.8.6 2.4 1.4 2.4 2.8 0 1-1.2 2.4-3.8 4.2zM374.233 353.8h-55.4v2.4c3.8 1 4.6 2 4.6 5.8v69.8c0 3.8-.8 4.8-4.6 5.8v2.4h53.4c23.6 0 36.4-9.8 36.4-25 0-9.8-4.8-16.2-14.8-21.2 8.4-4.4 12-10 12-18.8 0-11.8-10.6-21.2-31.6-21.2zm-4.6 13.8c14.6 0 21.2 2.4 21.2 10.4 0 7-6 10.2-18.4 10.2h-33.2v-20.6zm-2.2 34.2c17.4 0 26 3.2 26 12.4 0 10-8.8 12-27 12h-27.2v-24.4zM488.908 367.2c11.2 0 16.8 3.6 16.8 11.2 0 8-5.4 11.4-16.8 11.4h-34v-22.6zm-4.8-13.4h-49.6v2.4c3.8 1 4.6 2 4.6 5.8v69.8c0 3.8-.8 4.8-4.6 5.8v2.4h25v-2.4c-3.8-1-4.6-2-4.6-5.8v-29h28.8l20.2 31.6c.4.8.8 1.2.8 1.8 0 1-.8 1.8-2.4 1.8h-.6v2h25.2v-2c-3 0-5.2-2.4-8.4-7.4l-18.4-29c13-2.8 20.2-11 20.2-22.8 0-15.4-12.4-25-36.2-25zM555.658 396.6c0-19.4 13.2-33 33.8-33 20.6 0 33.8 13.6 33.8 33s-13.4 33.2-33.6 33.2c-21 0-34-13.8-34-33.2zm33.8 45.2c29.6 0 50-19.8 50-45 0-25-20-45-50-45s-50 19.8-50 45 20.4 45 50 45zM704.77 428.8l21.2-58 20.2 58c.8 2.2 1.2 3.6 1.2 4.2 0 2.8-1.4 4.2-4.4 4.6v2.4h29.4v-2.4c-3-.4-4.4-1.8-4.4-4.6 0-.8.2-2.2 1-4.2l22-61.2c2-5.8 3.8-9.4 9.8-11.6v-2.4h-27.6v2.4c3 .6 4.6 2.4 4.6 4.4 0 .4-.2 1.6-1 3.8l-19 56.6-19.6-56c-.8-2.2-1-3.4-1-4.2 0-2.8 1.4-4.2 4.4-4.6v-2.4h-30.6v2.4c1.8.4 4.4 1 4.4 4.6 0 1-.4 2.4-1 4.2l-20.8 56-19.8-56.6c-.8-2-1-3.4-1-3.8 0-2 1.8-3.8 4.8-4.4v-2.4h-27.4v2.4c4.6 1.2 7.2 5 9.6 11.8l22.2 61c.6 1.8 1.2 3.2 1.2 4.2 0 2.8-1.4 4.2-4.4 4.6v2.4h29.2v-2.4c-3-.4-4.4-1.8-4.4-4.6 0-1 .6-2.4 1.2-4.2zM898.842 415l-50.4-52c-.8-.8-1.2-2-1.2-3 0-2 1.2-3 3.8-3.8v-2.4h-31.8v2.4c3.8 1 4.6 2 4.6 5.8v69.8c0 3.8-.8 4.8-4.6 5.8v2.4h21.4v-2.4c-3.8-1-4.6-2-4.6-5.8v-58.6l55.6 57.6c.8.8 1.2 2 1.2 3 0 2-1.2 3-3.8 3.8v2.4h26.4v-2.4c-3.8-1-4.6-2-4.6-5.8V362c0-3.8.8-4.8 4.6-5.8v-2.4h-21.2v2.4c3.8 1 4.6 2 4.6 5.8zM1002.555 440h25v-2.4c-3.8-1-4.6-2-4.6-5.8v-29.2h31.8c3.8 0 4.8.8 5.8 4.6h2.4v-22.4h-2.6c-1 3.8-2.2 4.8-5.8 4.8h-31.6v-22.8h50c3.8 0 4.8.8 5.8 4.6h2.4V349h-2.6c-1 3.8-2.2 4.8-5.8 4.8h-70.2v2.4c3.8 1 4.6 2 4.6 5.8v69.8c0 3.8-.8 4.8-4.6 5.8zM1112.767 396.6c0-19.4 13.2-33 33.8-33 20.6 0 33.8 13.6 33.8 33s-13.4 33.2-33.6 33.2c-21 0-34-13.8-34-33.2zm33.8 45.2c29.6 0 50-19.8 50-45 0-25-20-45-50-45s-50 19.8-50 45 20.4 45 50 45zM1236.08 429.4l17-22.2 16.4 22.2c1.8 2.4 2.6 4.2 2.6 5.2 0 1.2-1 2-3 3v2.4h29.4v-2.4c-4.2-2-7-3.4-9.8-7.2l-26-36 20.2-26.2c3.6-4.8 7-9.2 13.4-12v-2.4h-29.4v2.4c2.2.2 3.4 1.2 3.4 3 0 1.2-1.2 2.8-3 5.4l-13.6 18-13.4-18c-1.8-2.4-2.6-4.4-2.6-5.4 0-1.2 1-2 3-3v-2.4h-29.4v2.4c4.4 2 6.8 3.4 9.6 7.2l23.2 31.6-27.2 35.4c-1.4 1.8-3.2 4.4-9.8 7.2v2.4h29.4v-2.4c-2-1-3-1.8-3-3 0-.8.8-2.8 2.6-5.2zM340.547 626.8V582c0-3.8.8-4.8 4.6-5.8v-2.4h-25v2.4c3.8 1 4.6 2 4.6 5.8v39.4c0 18.2-1.8 27.4-19.6 27.4-10.4 0-22.4-6.4-22.4-11.2 0-.4 0-.8.2-1.2l-2.2-.8-7.8 21.6 2.4.6c1.2-1.6 2.2-2.6 3.4-2.6 4 0 13.4 6.8 28.4 6.8 22.4 0 33.4-11.6 33.4-35.2zM379.994 627.6c0 24 11.6 34.2 42 34.2 30.2 0 41.8-10.4 41.8-34.2V582c0-3.8.8-4.8 4.6-5.8v-2.4h-25v2.4c3.8 1 4.8 2 4.8 5.8v45c0 15-7.6 22-26.2 22-18.4 0-26.2-7-26.2-22v-45c0-3.8.8-4.8 4.6-5.8v-2.4h-25v2.4c4 1 4.6 2.2 4.6 5.8zM515.3 651.8v-62.4l36.2 66 36-66v62.4c0 3.8-.8 4.8-4.6 5.8v2.4h25v-2.4c-3.8-1-4.6-2-4.6-5.8V582c0-3.8.8-4.8 4.6-5.8v-2.4h-33.8v2.4c2.6.8 3.8 1.8 3.8 3.8 0 .6-.4 1.6-1.2 3l-24.6 45.6-24.4-45.6c-.8-1.4-1.2-2.4-1.2-3 0-2 1.2-3 3.8-3.8v-2.4h-31.8v2.4c3.8 1 4.6 2 4.6 5.8v69.8c0 3.8-.8 4.8-4.6 5.8v2.4h21.4v-2.4c-3.8-1-4.6-2-4.6-5.8zM658.603 651.8V623h24.8c25.6 0 38.8-7 38.8-24.2 0-15.4-12.6-25-36.4-25h-47.6v2.4c3.8 1 4.6 2 4.6 5.8v69.8c0 3.8-.8 4.8-4.6 5.8v2.4h25v-2.4c-3.8-1-4.6-2-4.6-5.8zm32-64.6c11.2 0 16.6 3.6 16.6 11.2 0 8-5.2 11.4-16.6 11.4h-32v-22.6zM750.503 630.6l-12.4 19 2.4 1.2c1.4-1.2 2.4-1.8 3.2-1.8 2.2 0 16.6 13 40.8 13 26 0 44.4-13 44.4-30 0-16.4-11.4-22.2-35-23.8-21.4-1.4-34-.2-34-10.2 0-6.8 10.2-13.4 26.4-13.4 15.6 0 28.2 6.2 28.2 11.4 0 .6 0 1.2-.4 1.8l2.4 1 10.6-20.2-2.2-1c-1.4 1.4-2.6 2.2-3.6 2.2-3.6 0-15-7.8-34-7.8-26.4 0-42 12.4-42 27.8 0 17 13.4 22.2 40.6 23 20.2.6 29 2 29 11 0 8.4-10.6 15.2-28.6 15.2-19.4 0-34-11.2-34-14.4 0-.4 0-1.4.6-3zM921.962 616.6c0-19.4 13.2-33 33.8-33 20.6 0 33.8 13.6 33.8 33s-13.4 33.2-33.6 33.2c-21 0-34-13.8-34-33.2zm33.8 45.2c29.6 0 50-19.8 50-45 0-25-20-45-50-45s-50 19.8-50 45 20.4 45 50 45zM1077.675 648.8l27.4-64.4c1.8-4 3.4-6.4 8.2-8.2v-2.4h-27.6v2.4c3 .6 4.6 2.4 4.6 4.6 0 .6-.2 2-1 3.6l-24.2 56.6-25.8-56.6c-.6-1.6-1-2.8-1-3.6 0-2.2 1.8-4 4.8-4.6v-2.4h-27.6v2.4c4.4 1.8 6.2 4.2 8 8l28.8 64.6c.8 1.8 1.2 3.2 1.2 4.2 0 2.8-1.4 4.2-4.4 4.6v2.4h32v-2.4c-3-.4-4.4-1.8-4.4-4.6 0-1.4.4-2.6 1-4.2zM1131.25 660h73.8c3.8 0 4.8.8 5.8 4.6h2.4v-22.4h-2.6c-1 3.8-2 4.6-5.8 4.6h-53.2v-24.2h31.8c3.8 0 4.8.8 5.8 4.6h2.4v-22.4h-2.6c-1 3.8-2.2 4.8-5.8 4.8h-31.6v-22.8h50c3.8 0 4.8.8 5.8 4.6h2.4V569h-2.6c-1 3.8-2.2 4.8-5.8 4.8h-70.2v2.4c3.8 1 4.6 2 4.6 5.8v69.8c0 3.8-.8 4.8-4.6 5.8zM1294.103 587.2c11.2 0 16.8 3.6 16.8 11.2 0 8-5.4 11.4-16.8 11.4h-34v-22.6zm-4.8-13.4h-49.6v2.4c3.8 1 4.6 2 4.6 5.8v69.8c0 3.8-.8 4.8-4.6 5.8v2.4h25v-2.4c-3.8-1-4.6-2-4.6-5.8v-29h28.8l20.2 31.6c.4.8.8 1.2.8 1.8 0 1-.8 1.8-2.4 1.8h-.6v2h25.2v-2c-3 0-5.2-2.4-8.4-7.4l-18.4-29c13-2.8 20.2-11 20.2-22.8 0-15.4-12.4-25-36.2-25zM187.46 807h26.4v64.8c0 3.8-.8 4.8-4.6 5.8v2.4h25v-2.4c-3.8-1-4.6-2-4.6-5.8V807h27c3.8 0 4.8.8 5.8 4.6h2.4v-22.4h-2.6c-1 3.8-2 4.6-5.8 4.6h-68.8c-3.8 0-4.8-.8-5.8-4.6h-2.4v22.4h2.2c1-3.8 2-4.6 5.8-4.6zM309.806 842.4h54.8v29.4c0 3.8-.8 4.8-4.6 5.8v2.4h25v-2.4c-3.8-1-4.8-2-4.8-5.8V802c0-3.8 1-4.8 4.8-5.8v-2.4h-25v2.4c3.8 1 4.6 2 4.6 5.8v27.4h-54.8V802c0-3.8.8-4.8 4.6-5.8v-2.4h-25v2.4c3.8 1 4.6 2 4.6 5.8v69.8c0 3.8-.8 4.8-4.6 5.8v2.4h25v-2.4c-3.8-1-4.6-2-4.6-5.8zM415.047 880h73.8c3.8 0 4.8.8 5.8 4.6h2.4v-22.4h-2.6c-1 3.8-2 4.6-5.8 4.6h-53.2v-24.2h31.8c3.8 0 4.8.8 5.8 4.6h2.4v-22.4h-2.6c-1 3.8-2.2 4.8-5.8 4.8h-31.6v-22.8h50c3.8 0 4.8.8 5.8 4.6h2.4V789h-2.6c-1 3.8-2.2 4.8-5.8 4.8h-70.2v2.4c3.8 1 4.6 2 4.6 5.8v69.8c0 3.8-.8 4.8-4.6 5.8zM600.79 866.8V802c0-3.8.8-4.8 4.6-5.8v-2.4h-25v2.4c3.8 1 4.6 2 4.6 5.8v69.8c0 3.8-.8 4.8-4.6 5.8v2.4h75.8c3.8 0 4.8.8 5.8 4.6h2.2v-22.4h-2.4c-1 3.8-2 4.6-5.8 4.6zM711.32 804.8l-29 64.6c-1.8 3.8-3.4 6.4-8.4 8.2v2.4h24v-2.4c-1.8-.8-2.4-1.4-2.4-3.2 0-1.8.4-3.8 1.2-5.4l5.2-11.4h44.2l5.4 11.4c1 2 1.8 3.8 1.8 5.4 0 1.6-.8 2.4-2.6 3.2v2.4h25.8v-2.4c-4-1.6-6.8-4.6-9.2-9.6l-29.6-63.2c-1-2.2-1.8-3.8-1.8-5.2 0-1.4.8-2.6 2.6-3.4v-2.4h-28v2.4c1.8.8 2.6 2 2.6 3.4 0 1.6-.8 3-1.8 5.2zm-4 39.8l16.2-35.8 17 35.8zM796.753 807h44.6l-52.4 69.2v3.8h71.2c3.8 0 4.8.8 5.8 4.6h2.4v-22.4h-2.6c-1 3.8-2 4.6-5.8 4.6h-44.8l54-70.8v-2.2h-72.6c-3.8 0-4.8-.8-5.8-4.6h-2.2v22.4h2.2c1-3.8 2.2-4.6 6-4.6zM914.906 844.4v27.4c0 3.8-.8 4.8-4.6 5.8v2.4h25v-2.4c-3.8-1-4.8-2-4.8-5.8v-27.4l27.2-36.2c3.8-5.2 7.4-9.4 13.4-12v-2.4h-29.6v2.4c2.4.4 3.2 1 3.2 2.8 0 1.2-1 3.8-2.4 5.6l-19.4 25.8-18.8-25.8c-1.4-2-2.2-4.4-2.2-5.6 0-1.8.8-2.4 3-2.8v-2.4h-29.4v2.4c5.4 2.4 9.4 6.4 13.4 12zM1042.97 880h42c35.8 0 54-13 54-43.2 0-30.2-18.2-43-54-43h-42v2.4c3.8 1 4.6 2 4.6 5.8v69.8c0 3.8-.8 4.8-4.6 5.8zm20.4-72.8h23.8c23 0 35 10.8 35 30s-12 30-35 30h-23.8zM1169.588 836.6c0-19.4 13.2-33 33.8-33 20.6 0 33.8 13.6 33.8 33s-13.4 33.2-33.6 33.2c-21 0-34-13.8-34-33.2zm33.8 45.2c29.6 0 50-19.8 50-45 0-25-20-45-50-45s-50 19.8-50 45 20.4 45 50 45zM1350.9 820.2l11.8-19.6-2-1c-1.4 1.4-2.6 2.2-3.2 2.2-3.4 0-17.6-10-39.8-10-30 0-49.8 19.8-49.8 45 0 25 19.8 45 50.8 45 17.4 0 33.6-6 47-18v-3l-4.4-1.4v-15.6c0-3.8.8-4.8 4.6-5.8v-2.4h-39.8c-3.8 0-4.8-.8-5.8-4.6h-2.2v22.6h2.4c1-3.8 2-4.6 5.8-4.6h22.4v10.8c-10.6 5.4-19.6 9-29.6 9-21 0-35.4-12.6-35.4-31.8 0-19 13.6-31.8 35.6-31.8 15 0 29.8 7.2 29.8 12.6 0 .6 0 1-.4 1.6zM1391.85 872.2c0 5.2 4.6 9.6 9.8 9.6 5.2 0 9.6-4.2 9.6-9.6 0-5.6-4.2-9.6-9.6-9.6-5.4 0-9.8 4.4-9.8 9.6z"/></g></svg>