<svg xmlns="http://www.w3.org/2000/svg" viewBox="0 0 1600 1000" height="1000" width="1600"><path fill="#fff" d="M0 0h1600v1000H0z"/><g font-weight="400" font-size="200" font-family="Courier New" letter-spacing="-.03em" text-anchor="middle" fill="#222"><path d="M351.414 113.945v97.852h21.29q2.93 0 4.198 1.172 1.27 1.073 1.27 2.928 0 1.758-1.27 2.93-1.27 1.172-4.2 1.172h-50.878q-2.93 0-4.2-1.172t-1.27-2.93q0-1.855 1.27-2.93 1.27-1.17 4.2-1.17h21.29v-97.853H309.52v28.418q0 3.028-1.172 4.297-1.075 1.27-2.93 1.27-1.758 0-2.93-1.27-1.172-1.27-1.172-4.297v-36.62h91.895v36.62q0 3.028-1.17 4.297-1.075 1.27-2.93 1.27-1.856 0-3.028-1.27-1.074-1.27-1.074-4.297v-28.418zM434.28 97.44v50.49q7.814-8.496 14.943-11.914 7.226-3.516 16.113-3.516 9.57 0 16.21 3.418 6.74 3.32 11.23 10.352 4.494 6.933 4.494 14.648v50.88h9.18q3.027 0 4.198 1.17 1.27 1.075 1.27 2.93 0 1.758-1.27 2.93-1.17 1.172-4.2 1.172h-26.66q-3.026 0-4.296-1.172-1.27-1.172-1.27-2.93 0-1.855 1.27-2.93 1.27-1.17 4.297-1.17h9.18v-50.294q0-8.887-6.447-14.844-6.347-5.957-17.773-5.957-8.984 0-15.332 4.395-4.59 3.125-15.137 14.746v51.953h9.28q2.928 0 4.198 1.172 1.27 1.073 1.27 2.928 0 1.758-1.27 2.93-1.27 1.172-4.2 1.172h-26.757q-2.93 0-4.198-1.172-1.27-1.172-1.27-2.93 0-1.855 1.27-2.93 1.27-1.17 4.2-1.17h9.276V105.74h-11.035q-2.93 0-4.2-1.172t-1.27-3.027q0-1.758 1.27-2.93 1.27-1.172 4.2-1.172zM619.59 179.668h-83.594q2.15 15.918 13.28 25.684 11.232 9.668 27.736 9.668 9.18 0 19.238-3.028 10.06-3.027 16.406-8.008 1.856-1.464 3.223-1.464 1.56 0 2.733 1.27 1.172 1.17 1.172 2.83 0 1.66-1.562 3.224-4.688 4.883-16.7 9.18-11.914 4.2-24.51 4.2-21.095 0-35.255-13.77-14.063-13.868-14.063-33.497 0-17.87 13.184-30.664 13.28-12.793 32.81-12.793 20.12 0 33.107 13.184 12.988 13.086 12.793 33.984zm-8.3-8.3q-2.442-13.575-12.892-22.07-10.35-8.497-24.707-8.497-14.354 0-24.706 8.4-10.35 8.398-12.89 22.167zM834.836 150.37v-14.94h19.238q3.028 0 4.297 1.172 1.27 1.17 1.27 3.027 0 1.757-1.27 2.93-1.268 1.17-4.296 1.17h-10.937v105.762h10.937q3.028 0 4.297 1.074 1.27 1.172 1.27 3.028 0 1.758-1.27 2.93-1.268 1.17-4.296 1.17h-39.062q-2.93 0-4.2-1.17-1.27-1.075-1.27-2.93 0-1.856 1.27-3.028 1.27-1.074 4.2-1.074h19.824v-49.414q-13.574 17.87-35.645 17.87-18.358 0-31.053-12.5-12.598-12.596-12.598-30.272 0-17.774 12.597-30.176 12.695-12.5 31.25-12.5 21.875 0 35.45 17.87zm0 24.806q0-14.16-10.352-24.22-10.35-10.155-25.195-10.155t-25.196 10.157q-10.352 10.06-10.352 24.22 0 14.16 10.352 24.315 10.35 10.156 25.195 10.156 14.843 0 25.194-10.156 10.352-10.156 10.352-24.316zM945.047 220v-12.012q-16.797 15.235-36.328 15.235-12.013 0-18.263-6.543-8.105-8.594-8.105-20.02v-52.93h-11.036q-2.93 0-4.2-1.17-1.268-1.173-1.268-3.03 0-1.757 1.27-2.928 1.27-1.172 4.198-1.172h19.24v61.23q0 8.008 5.077 13.184 5.078 5.176 12.695 5.176 20.02 0 36.72-18.36v-52.93H929.91q-2.93 0-4.2-1.17-1.27-1.173-1.27-3.03 0-1.757 1.27-2.928 1.27-1.172 4.2-1.172h23.34v76.367h6.934q2.93 0 4.2 1.172 1.268 1.073 1.268 2.928 0 1.758-1.27 2.93-1.27 1.172-4.198 1.172zM1034.945 93.34v21.19h-12.11V93.34zm.293 42.09v76.367h32.227q3.027 0 4.297 1.172 1.27 1.073 1.27 2.928 0 1.758-1.27 2.93-1.27 1.172-4.297 1.172H994.81q-2.93 0-4.2-1.172t-1.27-2.93q0-1.855 1.27-2.93 1.27-1.17 4.2-1.17h32.225V143.73h-23.926q-2.93 0-4.297-1.17-1.27-1.173-1.27-2.93 0-1.857 1.27-3.028 1.27-1.172 4.296-1.172zM1179.043 143.73v-2.734q0-3.027 1.172-4.297 1.172-1.27 2.93-1.27 1.855 0 3.027 1.27 1.172 1.27 1.172 4.296v18.555q-.098 3.028-1.27 4.298-1.074 1.27-2.93 1.27-1.66 0-2.832-1.075-1.074-1.172-1.27-3.81-.585-6.932-9.18-13.182-8.495-6.25-22.948-6.25-18.262 0-27.734 11.427-9.473 11.425-9.473 26.17 0 15.92 10.45 26.27 10.448 10.353 27.05 10.353 9.57 0 19.434-3.516 9.962-3.516 17.97-11.328 2.05-1.953 3.613-1.953 1.66 0 2.734 1.172 1.172 1.074 1.172 2.734 0 4.198-9.864 10.643-15.918 10.45-35.45 10.45-19.824 0-32.617-12.598-12.696-12.695-12.696-32.13 0-19.823 12.988-32.91 13.086-13.085 32.91-13.085 18.848 0 31.64 11.23zM1242.086 183.477V220h-19.238q-2.93 0-4.2-1.172t-1.27-2.93q0-1.855 1.27-2.93 1.27-1.17 4.2-1.17h11.035V105.74h-11.035q-2.93 0-4.2-1.172t-1.27-3.027q0-1.758 1.27-2.93 1.27-1.172 4.2-1.172h19.238v75.587l34.863-29.297h-4.2q-2.93 0-4.2-1.17-1.27-1.173-1.27-2.93 0-1.857 1.27-3.028 1.27-1.172 4.2-1.172h26.27q3.027 0 4.296 1.172 1.27 1.17 1.27 3.027 0 1.757-1.27 2.93-1.27 1.17-4.296 1.17h-9.473l-32.03 26.758 40.526 41.31h9.473q3.027 0 4.296 1.17 1.27 1.075 1.27 2.93 0 1.758-1.27 2.93-1.27 1.172-4.296 1.172h-26.563q-2.93 0-4.2-1.172t-1.27-2.93q0-1.855 1.27-2.93 1.27-1.17 4.2-1.17h5.762l-35.254-36.232zM316.453 317.44v54.396q14.844-19.336 35.84-19.336 17.97 0 30.762 13.086 12.793 12.988 12.793 31.934 0 19.14-12.99 32.42-12.89 13.283-30.565 13.283-21.484 0-35.84-19.336V440h-19.238q-2.93 0-4.2-1.172t-1.27-2.93q0-1.855 1.27-2.93 1.27-1.17 4.2-1.17h11.035V325.74h-11.035q-2.93 0-4.2-1.172t-1.27-3.027q0-1.758 1.27-2.93 1.27-1.172 4.2-1.172zm71.192 80.47q0-15.527-10.645-26.27-10.645-10.84-24.902-10.84-14.258 0-24.903 10.84-10.644 10.743-10.644 26.27t10.645 26.367q10.645 10.743 24.903 10.743 14.257 0 24.902-10.743 10.645-10.84 10.645-26.367zM451.47 355.43v20.703q16.014-14.453 23.925-18.555 8.007-4.2 14.746-4.2 7.325 0 13.575 4.98 6.348 4.884 6.348 7.423 0 1.857-1.27 3.126-1.172 1.172-3.027 1.172-.977 0-1.66-.293-.684-.39-2.54-2.246-3.418-3.42-5.957-4.688-2.54-1.27-4.98-1.27-5.372 0-12.99 4.297-7.52 4.296-26.17 20.995v44.922h36.327q3.027 0 4.297 1.172 1.27 1.073 1.27 2.928 0 1.758-1.27 2.93-1.27 1.172-4.297 1.172H423.44q-2.928 0-4.198-1.074-1.27-1.172-1.27-2.93 0-1.66 1.173-2.734 1.27-1.172 4.296-1.172h19.826v-68.36H428.13q-2.93 0-4.2-1.17-1.27-1.173-1.27-3.03 0-1.757 1.172-2.928 1.27-1.172 4.297-1.172zM621.055 397.91q0 18.75-13.477 32.03-13.38 13.283-32.324 13.283-19.14 0-32.52-13.282-13.38-13.377-13.38-32.03 0-18.75 13.38-32.03 13.38-13.38 32.52-13.38 18.945 0 32.324 13.28 13.477 13.283 13.477 32.13zm-8.3 0q0-15.43-11.036-26.27-10.94-10.84-26.564-10.84-15.625 0-26.66 10.938-10.937 10.84-10.937 26.172 0 15.235 10.936 26.172 11.035 10.938 26.66 10.938t26.563-10.84q11.034-10.938 11.034-26.27zM717.398 440l-10.156.098-18.066-52.735-17.97 52.735-10.155-.098-16.99-76.27h-4.005q-2.93 0-4.2-1.17-1.27-1.173-1.27-3.03 0-1.757 1.27-2.928 1.27-1.172 4.2-1.172h22.558q2.93 0 4.2 1.172 1.27 1.17 1.27 3.027 0 1.757-1.27 2.93-1.27 1.17-4.2 1.17h-10.45l14.552 65.04 17.48-51.954h9.766l17.97 51.954 13.965-65.04h-10.352q-2.93 0-4.297-1.17-1.27-1.173-1.27-3.03 0-1.757 1.27-2.928 1.27-1.172 4.297-1.172h22.46q3.028 0 4.298 1.172 1.27 1.17 1.27 3.027 0 1.757-1.27 2.93-1.27 1.17-4.296 1.17h-3.906zM776.535 355.43v12.402q8.594-8.69 15.528-12.012 6.933-3.32 15.625-3.32 9.375 0 17.09 4.004 5.468 2.93 9.863 9.766 4.493 6.738 4.493 13.867v51.66h6.933q2.93 0 4.2 1.172 1.27 1.073 1.27 2.928 0 1.758-1.27 2.93-1.27 1.172-4.2 1.172h-21.972q-3.028 0-4.297-1.172-1.27-1.172-1.27-2.93 0-1.855 1.27-2.93 1.27-1.17 4.297-1.17h6.836v-50.294q0-8.691-6.348-14.65-6.348-6.053-16.992-6.053-8.106 0-14.063 3.32-5.957 3.224-16.992 16.212v51.465h9.278q2.93 0 4.2 1.172 1.268 1.073 1.268 2.928 0 1.758-1.268 2.93-1.27 1.172-4.2 1.172h-26.757q-2.93 0-4.2-1.172t-1.27-2.93q0-1.855 1.27-2.93 1.27-1.17 4.2-1.17h9.277V363.73h-6.934q-2.93 0-4.2-1.17-1.268-1.173-1.268-3.03 0-1.757 1.27-2.928 1.27-1.172 4.198-1.172zM1025.473 363.73v68.067h36.035q2.93 0 4.2 1.172 1.27 1.073 1.27 2.928 0 1.758-1.27 2.93-1.27 1.172-4.2 1.172h-64.16q-2.93 0-4.2-1.172t-1.27-2.93q0-1.855 1.27-2.93 1.27-1.17 4.2-1.17h19.824V363.73h-17.774q-2.93 0-4.2-1.17-1.268-1.173-1.268-3.03 0-1.757 1.27-2.928 1.27-1.172 4.198-1.172h17.774v-12.403q0-10.35 8.398-17.968 8.4-7.62 22.266-7.62 11.62 0 24.805 2.15 4.98.78 5.958 1.855 1.074 1.075 1.074 2.832 0 1.758-1.172 2.93-1.172 1.074-3.125 1.074-.78 0-2.637-.292-14.746-2.246-24.902-2.246-10.742 0-16.602 5.274-5.76 5.273-5.76 12.01v12.404h38.378q2.93 0 4.2 1.172 1.268 1.17 1.268 3.027 0 1.757-1.27 2.93-1.27 1.17-4.198 1.17zM1190.664 397.91q0 18.75-13.477 32.03-13.378 13.283-32.324 13.283-19.14 0-32.52-13.282-13.378-13.377-13.378-32.03 0-18.75 13.38-32.03 13.378-13.38 32.518-13.38 18.946 0 32.324 13.28 13.477 13.283 13.477 32.13zm-8.3 0q0-15.43-11.036-26.27-10.937-10.84-26.562-10.84-15.625 0-26.66 10.938-10.938 10.84-10.938 26.172 0 15.235 10.938 26.172 11.035 10.938 26.66 10.938t26.562-10.84q11.035-10.938 11.035-26.27zM1264.352 395.762l37.597 36.035q3.71 0 4.687.39.976.293 1.66 1.368.78 1.074.78 2.343 0 1.758-1.268 2.93-1.27 1.172-4.298 1.172h-26.367q-3.028 0-4.297-1.172-1.27-1.172-1.27-2.93 0-1.855 1.27-2.93 1.27-1.17 4.297-1.17h13.574l-31.935-30.568-31.738 30.567h13.672q2.928 0 4.198 1.172 1.27 1.073 1.27 2.928 0 1.758-1.27 2.93-1.27 1.172-4.2 1.172h-26.66q-2.93 0-4.2-1.172-1.268-1.172-1.268-2.93 0-1.27.683-2.343.782-1.075 1.66-1.368.977-.39 4.688-.39l37.6-36.035-33.4-32.032q-3.515 0-4.492-.39-.88-.39-1.66-1.465-.684-1.074-.684-2.344 0-1.757 1.27-2.928 1.27-1.172 4.297-1.172h22.364q3.027 0 4.2 1.172 1.27 1.17 1.27 3.027 0 1.757-1.27 2.93-1.173 1.17-4.2 1.17h-9.766l27.637 26.66 27.832-26.66h-9.765q-2.93 0-4.297-1.17-1.27-1.173-1.27-3.03 0-1.757 1.27-2.928 1.27-1.172 4.297-1.172h22.363q2.93 0 4.2 1.172 1.27 1.17 1.27 3.027 0 1.17-.783 2.245-.683 1.074-1.66 1.465-.88.39-4.394.39zM302.168 533.34v21.19h-12.11v-21.19zm.488 50.39h-48.73q-2.93 0-4.2-1.17-1.27-1.173-1.27-3.03 0-1.757 1.173-2.928 1.268-1.172 4.296-1.172h56.933v90.332q0 10.45-4.298 17.48-4.296 7.03-12.89 11.426-5.957 3.027-14.16 3.027h-26.075q-2.93 0-4.2-1.172-1.268-1.074-1.268-2.93 0-1.855 1.268-3.027 1.27-1.17 4.2-1.17l25.878.096q10.45 0 16.895-6.836 6.446-6.836 6.446-16.894zM432.398 660v-12.012q-16.796 15.235-36.328 15.235-12.01 0-18.26-6.543-8.107-8.594-8.107-20.02v-52.93h-11.035q-2.93 0-4.2-1.17-1.27-1.173-1.27-3.03 0-1.757 1.27-2.928 1.27-1.172 4.2-1.172h19.238v61.23q0 8.008 5.078 13.184t12.696 5.176q20.02 0 36.718-18.36v-52.93h-15.136q-2.93 0-4.2-1.17-1.27-1.173-1.27-3.03 0-1.757 1.27-2.928 1.27-1.172 4.2-1.172h23.34v76.367h6.933q2.93 0 4.2 1.172 1.27 1.073 1.27 2.928 0 1.758-1.27 2.93-1.27 1.172-4.2 1.172zM480.89 575.43v8.3q10.45-11.23 20.997-11.23 6.347 0 11.133 3.418 4.785 3.32 8.007 10.156 5.47-6.836 11.035-10.156 5.665-3.418 11.33-3.418 8.885 0 14.16 5.762 6.932 7.422 6.932 16.21v57.325h6.934q2.93 0 4.2 1.172 1.27 1.073 1.27 2.928 0 1.758-1.27 2.93-1.27 1.172-4.2 1.172H556.28v-64.746q0-6.25-3.807-10.352-3.81-4.1-8.79-4.1-4.492 0-9.472 3.417-4.98 3.32-11.327 13.182v54.395h6.836q2.928 0 4.198 1.172 1.27 1.073 1.27 2.928 0 1.758-1.27 2.93-1.27 1.172-4.2 1.172h-15.136v-64.16q0-6.543-3.906-10.742-3.81-4.297-8.594-4.297-4.394 0-8.69 2.833-5.958 4.004-12.5 13.77v54.394h6.932q2.93 0 4.2 1.172 1.27 1.073 1.27 2.928 0 1.758-1.27 2.93-1.27 1.172-4.2 1.172h-22.07q-2.93 0-4.2-1.172t-1.27-2.93q0-1.855 1.27-2.93 1.27-1.17 4.2-1.17h6.933V583.73h-6.933q-2.93 0-4.2-1.17-1.27-1.173-1.27-3.03 0-1.757 1.27-2.928 1.27-1.172 4.2-1.172z"/><path d="M601.258 575.43v14.94q7.324-8.886 15.722-13.378 8.4-4.492 19.825-4.492 12.11 0 22.363 5.664 10.254 5.664 15.82 15.82 5.664 10.06 5.664 21.192 0 17.676-12.695 30.273-12.598 12.5-31.055 12.5-21.972 0-35.644-17.872v49.414h19.922q2.93 0 4.2 1.074 1.268 1.172 1.268 3.028 0 1.758-1.27 2.93-1.27 1.17-4.198 1.17h-39.16q-2.93 0-4.2-1.17-1.27-1.075-1.27-2.93 0-1.856 1.27-3.028 1.27-1.074 4.2-1.074h11.035V583.73H582.02q-2.93 0-4.2-1.17-1.27-1.173-1.27-3.03 0-1.757 1.27-2.928 1.27-1.172 4.2-1.172zm71.094 39.746q0-14.16-10.352-24.22-10.254-10.155-25.098-10.155-14.94 0-25.293 10.157-10.352 10.156-10.352 24.22 0 14.16 10.35 24.315 10.353 10.156 25.294 10.156 14.746 0 25.098-10.058 10.352-10.156 10.352-24.414zM773.188 580.8q0-2.83 1.17-4.1 1.173-1.27 2.93-1.27 1.857 0 3.028 1.27 1.172 1.27 1.172 4.296v14.063q0 2.928-1.172 4.198-1.17 1.27-3.027 1.27-1.66 0-2.833-1.075-1.074-1.074-1.27-3.515-.585-5.86-6.054-9.668-8.008-5.47-21.192-5.47-13.768 0-21.385 5.567-5.762 4.2-5.762 9.375 0 5.86 6.836 9.766 4.686 2.734 17.772 4.2 17.09 1.855 23.73 4.198 9.473 3.418 14.063 9.473 4.688 6.054 4.688 13.085 0 10.45-10.06 18.652-10.057 8.106-29.49 8.106-19.435 0-31.837-9.864 0 3.32-.39 4.296-.39.977-1.465 1.66-.976.684-2.245.684-1.758 0-2.93-1.27-1.172-1.27-1.172-4.2v-16.893q0-2.93 1.074-4.2 1.172-1.27 3.028-1.27 1.757 0 2.93 1.27 1.27 1.172 1.27 3.223 0 4.492 2.245 7.52 3.418 4.687 10.84 7.812 7.52 3.028 18.36 3.028 16.015 0 23.827-5.957 7.813-5.958 7.813-12.598 0-7.617-7.91-12.207-8.008-4.59-23.34-6.153-15.235-1.562-21.875-4.1-6.64-2.54-10.352-7.618-3.71-5.078-3.71-10.938 0-10.548 10.35-16.7 10.352-6.25 24.708-6.25 16.993 0 27.637 8.3zM1019.78 617.91q0 18.75-13.475 32.03-13.38 13.283-32.325 13.283-19.14 0-32.52-13.282-13.378-13.378-13.378-32.03 0-18.75 13.38-32.03 13.378-13.38 32.518-13.38 18.946 0 32.325 13.28 13.476 13.283 13.476 32.13zm-8.3 0q0-15.43-11.035-26.27-10.937-10.84-26.562-10.84-15.625 0-26.66 10.938-10.938 10.84-10.938 26.172 0 15.235 10.938 26.172 11.035 10.938 26.66 10.938t26.562-10.84q11.035-10.938 11.035-26.27zM1095.03 660h-13.866l-33.69-76.27h-8.4q-2.93 0-4.2-1.17-1.268-1.173-1.268-3.03 0-1.757 1.27-2.928 1.27-1.172 4.198-1.172h30.762q2.93 0 4.2 1.172 1.27 1.17 1.27 3.027 0 1.757-1.27 2.93-1.27 1.17-4.2 1.17h-13.574l30.078 68.067h3.613l29.492-68.067h-13.672q-2.93 0-4.2-1.17-1.268-1.173-1.268-3.03 0-1.757 1.27-2.928 1.27-1.172 4.198-1.172h30.86q3.027 0 4.2 1.172 1.27 1.17 1.27 3.027 0 1.757-1.27 2.93-1.173 1.17-4.2 1.17h-8.3zM1246.16 619.668h-83.594q2.15 15.918 13.282 25.684 11.23 9.668 27.734 9.668 9.18 0 19.238-3.028 10.06-3.027 16.407-8.008 1.855-1.464 3.222-1.464 1.562 0 2.734 1.27 1.172 1.17 1.172 2.83 0 1.66-1.563 3.224-4.687 4.883-16.7 9.18-11.913 4.2-24.51 4.2-21.095 0-35.255-13.77-14.062-13.868-14.062-33.497 0-17.87 13.183-30.664 13.28-12.793 32.812-12.793 20.117 0 33.105 13.184 12.99 13.086 12.793 33.984zm-8.3-8.3q-2.442-13.575-12.89-22.07-10.353-8.497-24.708-8.497-14.356 0-24.707 8.4-10.352 8.398-12.89 22.167zM1305.883 575.43v20.703q16.015-14.453 23.926-18.555 8.006-4.2 14.745-4.2 7.324 0 13.574 4.98 6.347 4.884 6.347 7.423 0 1.857-1.27 3.126-1.172 1.172-3.027 1.172-.977 0-1.66-.293-.684-.39-2.54-2.246-3.417-3.42-5.957-4.688-2.54-1.27-4.98-1.27-5.37 0-12.988 4.297-7.52 4.296-26.172 20.995v44.922h36.328q3.028 0 4.298 1.172 1.27 1.073 1.27 2.928 0 1.758-1.27 2.93-1.27 1.172-4.297 1.172h-64.355q-2.93 0-4.2-1.074-1.268-1.172-1.268-2.93 0-1.66 1.172-2.734 1.268-1.172 4.296-1.172h19.824v-68.36h-15.137q-2.93 0-4.2-1.17-1.27-1.173-1.27-3.03 0-1.757 1.173-2.928 1.27-1.172 4.297-1.172zM99.672 795.43h44.53q2.93 0 4.2 1.172 1.27 1.17 1.27 3.027 0 1.757-1.27 2.93-1.27 1.17-4.2 1.17h-44.53v54.59q0 7.13 5.664 11.914 5.762 4.786 16.797 4.786 8.3 0 17.97-2.442 9.667-2.54 15.038-5.664 1.954-1.27 3.223-1.27 1.563 0 2.735 1.27 1.172 1.172 1.172 2.832 0 1.465-1.27 2.734-3.125 3.223-15.234 7.032-12.012 3.71-23.047 3.71-14.357 0-22.853-6.738-8.496-6.738-8.496-18.164v-54.59H76.235q-2.93 0-4.2-1.17-1.268-1.173-1.268-3.03 0-1.757 1.27-2.928 1.27-1.172 4.198-1.172H91.37v-24.22q0-2.93 1.173-4.198 1.172-1.27 2.93-1.27 1.855 0 3.027 1.27 1.172 1.27 1.172 4.2zM203.438 757.44v50.49q7.812-8.496 14.94-11.914 7.227-3.516 16.114-3.516 9.57 0 16.21 3.418 6.74 3.32 11.232 10.352 4.492 6.933 4.492 14.648v50.88h9.18q3.027 0 4.2 1.17 1.268 1.075 1.268 2.93 0 1.758-1.27 2.93-1.17 1.172-4.2 1.172h-26.66q-3.026 0-4.296-1.172-1.27-1.172-1.27-2.93 0-1.855 1.27-2.93 1.27-1.17 4.297-1.17h9.18v-50.294q0-8.887-6.445-14.844-6.348-5.957-17.774-5.957-8.984 0-15.332 4.395-4.59 3.125-15.136 14.746v51.953h9.277q2.93 0 4.2 1.172 1.27 1.073 1.27 2.928 0 1.758-1.27 2.93-1.27 1.172-4.2 1.172h-26.758q-2.93 0-4.2-1.172t-1.27-2.93q0-1.855 1.27-2.93 1.27-1.17 4.2-1.17h9.277V765.74H184.2q-2.93 0-4.2-1.172t-1.27-3.027q0-1.758 1.27-2.93 1.27-1.172 4.2-1.172zM388.746 839.668h-83.594q2.15 15.918 13.282 25.684 11.23 9.668 27.734 9.668 9.18 0 19.238-3.028 10.06-3.027 16.406-8.008 1.856-1.464 3.223-1.464 1.563 0 2.735 1.27 1.17 1.17 1.17 2.83 0 1.66-1.56 3.224-4.69 4.883-16.7 9.18-11.914 4.2-24.512 4.2-21.094 0-35.254-13.77-14.062-13.868-14.062-33.497 0-17.87 13.183-30.664 13.28-12.793 32.813-12.793 20.117 0 33.105 13.184 12.988 13.086 12.793 33.984zm-8.3-8.3q-2.442-13.575-12.89-22.07-10.353-8.497-24.708-8.497-14.356 0-24.707 8.4-10.35 8.398-12.89 22.167zM576.355 757.44v114.357h32.227q3.027 0 4.297 1.172 1.268 1.073 1.268 2.928 0 1.758-1.27 2.93-1.27 1.172-4.296 1.172h-72.656q-2.93 0-4.2-1.172t-1.27-2.93q0-1.855 1.27-2.93 1.27-1.17 4.2-1.17h32.226V765.74H544.52q-2.93 0-4.297-1.172-1.27-1.172-1.27-3.027 0-1.758 1.27-2.93 1.27-1.172 4.297-1.172zM709.71 880v-11.816q-17.87 15.04-38.183 15.04-14.746 0-23.047-7.423-8.3-7.52-8.3-18.36 0-11.913 10.937-20.8 10.938-8.886 31.934-8.886 5.665 0 12.305.78 6.64.685 14.356 2.247V817.5q0-6.738-6.25-11.72-6.25-4.98-18.75-4.98-9.57 0-26.855 5.567-3.125.977-4.003.977-1.563 0-2.735-1.172-1.074-1.172-1.074-2.93 0-1.66.977-2.637 1.367-1.464 11.035-4.003 15.234-4.102 23.047-4.102 15.527 0 24.218 7.715 8.692 7.617 8.692 17.285v54.297h10.937q3.027 0 4.296 1.172 1.27 1.073 1.27 2.928 0 1.758-1.27 2.93-1.27 1.172-4.297 1.172zm0-40.82q-5.76-1.66-12.206-2.442-6.445-.78-13.574-.78-17.87 0-27.93 7.714-7.617 5.762-7.617 13.77 0 7.42 5.762 12.5 5.86 5.078 16.992 5.078 10.644 0 19.726-4.2 9.18-4.297 18.848-13.574zM835.938 795.43v7.324l-61.426 69.043h55.468V860.47q0-2.93 1.075-4.2 1.172-1.27 3.027-1.27 1.856 0 3.027 1.27 1.17 1.27 1.17 4.2l-.096 19.53h-75v-7.324l61.132-68.946H773.34v11.133q0 2.93-1.172 4.2t-2.93 1.27q-1.855 0-3.027-1.27-1.17-1.27-1.17-4.2V795.43zM914.508 880l-38.086-76.27h-2.442q-2.93 0-4.2-1.17-1.268-1.173-1.268-2.93 0-1.27.586-2.247.683-1.074 1.66-1.465 1.074-.488 3.222-.488h22.46q2.93 0 4.2 1.172 1.27 1.17 1.27 3.027 0 1.757-1.27 2.93-1.27 1.17-4.2 1.17h-11.034l33.496 67.286 33.008-67.286h-11.035q-2.93 0-4.2-1.17-1.27-1.173-1.27-3.03 0-1.757 1.27-2.928 1.27-1.172 4.2-1.172h22.363q3.028 0 4.297 1.172 1.27 1.17 1.27 3.027 0 1.268-.782 2.343-.78 1.074-1.757 1.464-.977.293-5.47.293l-51.952 105.762h12.793q2.93 0 4.2 1.074 1.268 1.172 1.268 3.028 0 1.758-1.27 2.93-1.27 1.17-4.198 1.17H874.37q-2.93 0-4.198-1.17-1.27-1.075-1.27-2.93 0-1.856 1.27-3.028 1.27-1.074 4.2-1.074h25.683zM1182 757.44v114.357h10.938q3.027 0 4.296 1.172 1.27 1.073 1.27 2.928 0 1.758-1.27 2.93-1.27 1.172-4.296 1.172h-19.24v-16.31q-14.257 19.533-36.23 19.533-11.132 0-21.386-5.86-10.156-5.957-16.113-16.894-5.86-10.94-5.86-22.56 0-11.72 5.86-22.558 5.956-10.938 16.112-16.895 10.254-5.957 21.484-5.957 21.485 0 36.133 19.53v-46.288h-10.938q-3.028 0-4.297-1.172-1.27-1.172-1.27-3.027 0-1.758 1.27-2.93 1.27-1.172 4.297-1.172zm-8.3 80.47q0-15.625-10.548-26.367-10.547-10.742-25.097-10.742-14.65 0-25.196 10.743-10.548 10.742-10.548 26.367 0 15.528 10.547 26.367 10.546 10.743 25.195 10.743 14.55 0 25.097-10.743 10.547-10.84 10.547-26.367zM1301.586 837.91q0 18.75-13.477 32.03-13.38 13.283-32.325 13.283-19.14 0-32.52-13.282-13.378-13.378-13.378-32.03 0-18.75 13.38-32.03 13.377-13.38 32.518-13.38 18.945 0 32.324 13.28 13.476 13.283 13.476 32.13zm-8.3 0q0-15.43-11.036-26.27-10.938-10.84-26.563-10.84-15.624 0-26.66 10.938-10.937 10.84-10.937 26.172 0 15.235 10.937 26.172 11.035 10.938 26.66 10.938 15.626 0 26.563-10.84 11.035-10.938 11.035-26.27zM1397.246 810.47v-15.04h19.238q2.93 0 4.2 1.172 1.27 1.17 1.27 3.027 0 1.757-1.27 2.93-1.27 1.17-4.2 1.17h-11.035v81.934q0 8.203-3.516 14.648-2.344 4.297-7.813 8.887-5.468 4.59-9.96 6.542-4.492 1.953-12.012 1.953h-23.242q-2.93 0-4.2-1.172-1.268-1.074-1.268-2.93 0-1.855 1.27-3.027 1.27-1.17 4.198-1.17l23.535.096q7.228 0 12.99-3.71 5.86-3.712 9.668-10.84 2.148-4.102 2.148-10.45v-24.61q-13.184 18.067-33.984 18.067-16.895 0-29.2-12.5-12.206-12.598-12.206-30.274 0-17.676 12.206-30.176 12.305-12.5 29.2-12.5 20.8 0 33.984 17.97zm0 24.706q0-14.453-9.96-24.414-9.864-9.96-23.634-9.96t-23.633 10.057q-9.864 9.96-9.864 24.316 0 14.453 9.863 24.51 9.863 9.962 23.632 9.962 13.77 0 23.633-9.96 9.96-10.06 9.96-24.512zM1481.87 856.465h3.517q5.47 0 9.375 3.906 3.906 3.81 3.906 9.278 0 5.664-4.004 9.473-3.906 3.81-9.277 3.81h-3.516q-5.468 0-9.374-3.81-3.906-3.905-3.906-9.374 0-5.664 3.906-9.473 4.004-3.808 9.375-3.808z"/></g></svg>