<svg xmlns="http://www.w3.org/2000/svg" viewBox="0 0 800 500"><path fill="#fff" d="M0 0h800v500H0z"/><g font-weight="400" font-size="100" font-family="Courier New" letter-spacing="-.03em" text-anchor="middle" fill="#222"><path d="M175.707 56.973v48.925h10.645q1.464 0 2.1.586.634.537.634 1.465 0 .878-.635 1.464-.634.586-2.098.586h-25.44q-1.465 0-2.1-.586-.634-.586-.634-1.465 0-.93.634-1.466.635-.586 2.1-.586h10.645V56.973H154.76v14.21q0 1.512-.586 2.147-.537.635-1.465.635-.88 0-1.466-.635t-.586-2.148v-18.31h45.947v18.31q0 1.513-.585 2.148-.538.635-1.465.635-.928 0-1.514-.635-.536-.635-.536-2.148v-14.21zM217.14 48.72v25.245q3.907-4.248 7.47-5.957 3.615-1.758 8.058-1.758 4.785 0 8.105 1.71 3.37 1.66 5.616 5.175 2.245 3.467 2.245 7.324v25.438h4.59q1.513 0 2.1.586.634.537.634 1.465 0 .878-.636 1.464-.586.586-2.1.586h-13.33q-1.513 0-2.148-.586-.635-.586-.635-1.465 0-.93.636-1.466.635-.586 2.15-.586h4.588V80.752q0-4.443-3.222-7.422-3.174-2.978-8.887-2.978-4.492 0-7.666 2.197-2.296 1.56-7.57 7.372v25.976h4.64q1.464 0 2.1.586.634.537.634 1.465 0 .878-.635 1.464-.636.586-2.1.586H208.4q-1.464 0-2.1-.586-.634-.586-.634-1.465 0-.93.635-1.466.636-.586 2.1-.586h4.64V52.87h-5.52q-1.463 0-2.098-.585-.635-.586-.635-1.514 0-.877.635-1.463.635-.586 2.1-.586zM309.795 89.834h-41.797q1.074 7.96 6.64 12.842 5.616 4.834 13.868 4.834 4.59 0 9.62-1.514 5.028-1.514 8.202-4.004.928-.732 1.61-.732.783 0 1.37.635.585.585.585 1.416 0 .83-.782 1.612-2.342 2.44-8.348 4.59-5.957 2.1-12.256 2.1-10.547 0-17.627-6.885-7.032-6.934-7.032-16.748 0-8.937 6.59-15.334 6.642-6.396 16.408-6.396 10.058 0 16.552 6.592 6.495 6.543 6.397 16.992zm-4.15-4.15q-1.22-6.788-6.446-11.036-5.177-4.248-12.354-4.248-7.178 0-12.354 4.2-5.176 4.2-6.445 11.084zM417.418 75.186v-7.47h9.62q1.513 0 2.148.585.634.587.634 1.514 0 .88-.634 1.465-.635.585-2.15.585h-5.468v52.88h5.47q1.513 0 2.148.538.634.586.634 1.514 0 .88-.634 1.465-.635.586-2.15.586h-19.53q-1.465 0-2.1-.586-.635-.537-.635-1.465t.636-1.514q.635-.537 2.1-.537h9.912V100.04q-6.787 8.935-17.822 8.935-9.18 0-15.528-6.25-6.298-6.3-6.298-15.137 0-8.887 6.298-15.088 6.348-6.25 15.625-6.25 10.938 0 17.725 8.936zm0 12.402q0-7.08-5.176-12.11-5.176-5.078-12.597-5.078-7.422 0-12.598 5.08-5.176 5.028-5.176 12.108 0 7.08 5.177 12.158 5.176 5.078 12.598 5.078 7.42 0 12.597-5.078 5.176-5.078 5.176-12.158zM472.523 110v-6.006q-8.398 7.617-18.164 7.617-6.006 0-9.13-3.27-4.054-4.297-4.054-10.01V71.865h-5.518q-1.465 0-2.1-.586-.634-.587-.634-1.514 0-.88.635-1.465.633-.585 2.098-.585h9.62V98.33q0 4.004 2.538 6.592 2.54 2.588 6.348 2.588 10.01 0 18.36-9.18V71.865h-7.57q-1.464 0-2.1-.586-.633-.587-.633-1.514 0-.88.635-1.465.635-.585 2.1-.585h11.67v38.183h3.467q1.465 0 2.1.586.634.537.634 1.465 0 .878-.635 1.464-.633.586-2.098.586zM517.473 46.67v10.596h-6.055V46.67zm.146 21.045v38.183h16.112q1.514 0 2.15.586.634.537.634 1.465 0 .878-.635 1.464-.634.586-2.148.586h-36.328q-1.465 0-2.1-.586-.634-.586-.634-1.465 0-.93.635-1.466.634-.586 2.1-.586h16.113V71.865h-11.963q-1.465 0-2.15-.586-.634-.587-.634-1.466 0-.927.636-1.513.635-.585 2.15-.585zM589.52 71.865v-1.367q0-1.514.587-2.148.586-.635 1.465-.635.928 0 1.514.635.586.634.586 2.148v9.277q-.05 1.514-.635 2.15-.537.634-1.465.634-.83 0-1.416-.54-.537-.584-.635-1.903-.29-3.467-4.588-6.592-4.248-3.125-11.475-3.125-9.13 0-13.867 5.713-4.736 5.713-4.736 13.086 0 7.958 5.224 13.134 5.225 5.176 13.526 5.176 4.785 0 9.716-1.758 4.98-1.758 8.985-5.664 1.025-.977 1.806-.977.83 0 1.37.587.584.537.584 1.367 0 2.1-4.93 5.323-7.96 5.224-17.726 5.224-9.912 0-16.308-6.298-6.348-6.347-6.348-16.064 0-9.912 6.494-16.455 6.543-6.543 16.455-6.543 9.425 0 15.82 5.615zM621.043 91.738V110h-9.62q-1.464 0-2.1-.586-.634-.586-.634-1.465 0-.93.634-1.466.635-.586 2.1-.586h5.517V52.87h-5.516q-1.465 0-2.1-.585-.635-.586-.635-1.514 0-.877.634-1.463.635-.586 2.1-.586h9.62v37.794l17.43-14.65h-2.1q-1.464 0-2.1-.585-.633-.587-.633-1.466 0-.927.635-1.513.635-.585 2.1-.585h13.135q1.513 0 2.148.586.635.587.635 1.514 0 .88-.635 1.465-.635.585-2.148.585h-4.737l-16.015 13.38 20.263 20.653h4.738q1.513 0 2.148.586.635.537.635 1.465 0 .878-.634 1.464-.635.586-2.148.586h-13.28q-1.466 0-2.1-.586-.636-.586-.636-1.465 0-.93.635-1.466.635-.586 2.1-.586h2.88L625.73 87.783zM158.227 158.72v27.198q7.42-9.668 17.92-9.668 8.984 0 15.38 6.543 6.397 6.494 6.397 15.967 0 9.57-6.494 16.21-6.446 6.64-15.284 6.64-10.742 0-17.92-9.667V220h-9.62q-1.463 0-2.098-.586-.635-.586-.635-1.465 0-.93.635-1.466.635-.586 2.1-.586h5.517V162.87h-5.518q-1.464 0-2.1-.585-.634-.586-.634-1.514 0-.877.635-1.463.635-.586 2.1-.586zm35.595 40.235q0-7.764-5.322-13.135-5.322-5.42-12.45-5.42-7.13 0-12.452 5.42-5.323 5.37-5.323 13.135 0 7.764 5.323 13.184 5.322 5.37 12.45 5.37 7.13 0 12.452-5.37 5.322-5.42 5.322-13.185zM225.734 177.715v10.35q8.008-7.225 11.963-9.276 4.004-2.1 7.373-2.1 3.662 0 6.787 2.49 3.174 2.44 3.174 3.71 0 .928-.634 1.563-.585.586-1.513.586-.488 0-.83-.147-.342-.196-1.27-1.123-1.71-1.71-2.978-2.344-1.27-.635-2.49-.635-2.686 0-6.495 2.15-3.76 2.148-13.086 10.497v22.46h18.164q1.514 0 2.15.587.634.537.634 1.465 0 .878-.635 1.464t-2.15.586h-32.176q-1.464 0-2.1-.537-.634-.586-.634-1.465 0-.83.586-1.367.635-.585 2.15-.585h9.91v-34.18h-7.568q-1.464 0-2.1-.586-.634-.587-.634-1.514 0-.88.586-1.465.635-.585 2.148-.585zM310.527 198.955q0 9.375-6.738 16.016-6.69 6.64-16.163 6.64-9.57 0-16.26-6.64-6.69-6.69-6.69-16.015 0-9.375 6.69-16.016 6.69-6.69 16.26-6.69 9.473 0 16.162 6.64 6.737 6.64 6.737 16.065zm-4.15 0q0-7.715-5.518-13.135-5.47-5.42-13.282-5.42t-13.33 5.47q-5.47 5.42-5.47 13.085 0 7.617 5.47 13.086 5.518 5.47 13.33 5.47 7.813 0 13.28-5.42 5.52-5.47 5.52-13.135zM358.7 220l-5.08.05-9.032-26.368-8.984 26.367-5.08-.05-8.495-38.135h-2.003q-1.465 0-2.1-.586-.634-.587-.634-1.514 0-.88.635-1.465.634-.585 2.1-.585h11.28q1.463 0 2.098.586.635.587.635 1.514 0 .88-.634 1.465-.635.585-2.1.585h-5.224l7.275 32.52 8.74-25.977h4.883l8.985 25.977 6.982-32.52h-5.176q-1.463 0-2.147-.586-.635-.587-.635-1.514 0-.88.635-1.465.635-.585 2.148-.585h11.232q1.514 0 2.148.586.635.587.635 1.514 0 .88-.635 1.465-.634.585-2.148.585h-1.953zM388.268 177.715v6.2q4.296-4.345 7.763-6.005 3.468-1.66 7.814-1.66 4.687 0 8.545 2.002 2.733 1.465 4.93 4.883 2.246 3.37 2.246 6.933v25.83h3.467q1.465 0 2.1.586.635.537.635 1.465 0 .878-.635 1.464t-2.1.586h-10.986q-1.514 0-2.15-.586-.633-.586-.633-1.465 0-.93.634-1.466.635-.586 2.15-.586h3.417v-25.146q0-4.346-3.174-7.324-3.173-3.028-8.495-3.028-4.053 0-7.03 1.66-2.98 1.612-8.497 8.106v25.732h4.638q1.465 0 2.1.586.635.537.635 1.465 0 .878-.634 1.464-.635.586-2.1.586h-13.38q-1.464 0-2.098-.586-.635-.586-.635-1.465 0-.93.635-1.466.634-.586 2.1-.586h4.638v-34.033H380.7q-1.466 0-2.1-.586-.635-.587-.635-1.514 0-.88.635-1.465.634-.585 2.1-.585zM512.736 181.865v34.033h18.018q1.465 0 2.1.586.634.537.634 1.465 0 .878-.634 1.464-.635.586-2.1.586h-32.08q-1.465 0-2.1-.586t-.635-1.465q0-.93.634-1.466.635-.586 2.1-.586h9.912v-34.033H499.7q-1.466 0-2.1-.586-.635-.587-.635-1.514 0-.88.635-1.465.634-.585 2.1-.585h8.886v-6.2q0-5.177 4.2-8.986 4.198-3.81 11.132-3.81 5.81 0 12.402 1.075 2.49.39 2.98.928.536.537.536 1.416 0 .878-.586 1.464-.586.537-1.563.537-.39 0-1.318-.146-7.374-1.123-12.452-1.123-5.37 0-8.3 2.638-2.882 2.637-2.882 6.006v6.2h19.19q1.465 0 2.1.587.634.587.634 1.514 0 .88-.635 1.465-.634.585-2.1.585zM595.332 198.955q0 9.375-6.738 16.016-6.69 6.64-16.162 6.64-9.57 0-16.26-6.64-6.69-6.69-6.69-16.015 0-9.375 6.69-16.016 6.69-6.69 16.26-6.69 9.472 0 16.162 6.64 6.738 6.64 6.738 16.065zm-4.15 0q0-7.715-5.518-13.135-5.47-5.42-13.28-5.42-7.814 0-13.33 5.47-5.47 5.42-5.47 13.085 0 7.617 5.47 13.086 5.516 5.47 13.33 5.47 7.81 0 13.28-5.42 5.518-5.47 5.518-13.135zM632.176 197.88l18.8 18.018q1.854 0 2.342.196.49.146.83.683.39.537.39 1.172 0 .878-.634 1.464t-2.148.586h-13.184q-1.513 0-2.148-.586-.635-.586-.635-1.465 0-.93.634-1.466.635-.586 2.148-.586h6.787l-15.967-15.283-15.87 15.283h6.836q1.464 0 2.1.586.634.537.634 1.465 0 .878-.635 1.464-.636.586-2.1.586h-13.33q-1.466 0-2.1-.586-.635-.586-.635-1.465 0-.636.342-1.173.39-.537.83-.683.488-.196 2.344-.196l18.8-18.017-16.7-16.015q-1.758 0-2.246-.195-.44-.195-.83-.732-.342-.538-.342-1.172 0-.88.635-1.465.635-.585 2.148-.585h11.182q1.514 0 2.1.586.634.587.634 1.514 0 .88-.633 1.465-.586.585-2.1.585h-4.883l13.82 13.33 13.915-13.33h-4.884q-1.465 0-2.15-.586-.633-.587-.633-1.514 0-.88.634-1.465.635-.585 2.15-.585h11.18q1.465 0 2.1.586.635.587.635 1.514 0 .586-.39 1.124-.343.537-.83.732-.44.195-2.198.195zM151.084 266.67v10.596h-6.055V266.67zm.244 25.195h-24.365q-1.465 0-2.1-.586-.634-.587-.634-1.514 0-.88.584-1.465.635-.585 2.15-.585h28.466v45.166q0 5.225-2.15 8.74-2.147 3.517-6.444 5.714-2.98 1.514-7.08 1.514H126.72q-1.466 0-2.1-.586-.636-.537-.636-1.465t.635-1.514q.634-.586 2.1-.586l12.938.05q5.225 0 8.447-3.42 3.223-3.417 3.223-8.446zM216.2 330v-6.006q-8.4 7.617-18.165 7.617-6.006 0-9.13-3.27-4.053-4.297-4.053-10.01v-26.465h-5.518q-1.465 0-2.1-.586-.634-.587-.634-1.514 0-.88.634-1.465.635-.585 2.1-.585h9.62v30.615q0 4.004 2.538 6.592 2.54 2.588 6.348 2.588 10.01 0 18.36-9.18v-26.465h-7.57q-1.464 0-2.1-.586-.634-.587-.634-1.514 0-.88.635-1.465.636-.585 2.1-.585h11.67v38.183h3.468q1.464 0 2.1.586.634.537.634 1.465 0 .878-.635 1.464t-2.1.586zM240.445 287.715v4.15q5.225-5.615 10.498-5.615 3.174 0 5.567 1.71 2.392 1.66 4.004 5.077 2.734-3.418 5.517-5.078 2.833-1.71 5.665-1.71 4.444 0 7.08 2.88 3.467 3.712 3.467 8.106v28.662h3.467q1.464 0 2.1.586.633.537.633 1.465 0 .878-.634 1.464-.636.586-2.1.586h-7.57v-32.373q0-3.125-1.904-5.176-1.904-2.05-4.394-2.05-2.246 0-4.737 1.71-2.49 1.66-5.664 6.59V325.9h3.42q1.464 0 2.1.586.634.537.634 1.465 0 .878-.635 1.464-.636.586-2.1.586h-7.57v-32.08q0-3.272-1.952-5.37-1.904-2.15-4.297-2.15-2.196 0-4.345 1.416-2.978 2.002-6.25 6.885V325.9h3.467q1.465 0 2.1.586.634.537.634 1.465 0 .878-.634 1.464-.635.586-2.1.586h-11.035q-1.465 0-2.1-.586-.634-.586-.634-1.465 0-.93.634-1.466.635-.586 2.1-.586h3.467v-34.033h-3.467q-1.465 0-2.1-.586-.634-.587-.634-1.514 0-.88.634-1.465.635-.585 2.1-.585z"/><path d="M300.63 287.715v7.47q3.66-4.443 7.86-6.69 4.2-2.245 9.912-2.245 6.055 0 11.182 2.832 5.127 2.832 7.91 7.91 2.832 5.03 2.832 10.596 0 8.838-6.347 15.137-6.3 6.25-15.53 6.25-10.985 0-17.82-8.936v24.706h9.96q1.465 0 2.1.537.634.586.634 1.514 0 .88-.635 1.465-.635.586-2.1.586h-19.58q-1.465 0-2.1-.586-.635-.537-.635-1.465t.635-1.514q.635-.537 2.1-.537h5.517v-52.88h-5.517q-1.465 0-2.1-.587t-.635-1.514q0-.88.635-1.465.635-.585 2.1-.585zm35.546 19.873q0-7.08-5.176-12.11-5.127-5.078-12.55-5.078-7.47 0-12.645 5.08-5.176 5.077-5.176 12.108 0 7.08 5.175 12.158 5.175 5.078 12.646 5.078 7.374 0 12.55-5.03 5.176-5.077 5.176-12.206zM386.594 290.4q0-1.416.586-2.05.586-.635 1.465-.635.927 0 1.513.635.586.634.586 2.148v7.03q0 1.466-.586 2.1-.586.636-1.513.636-.83 0-1.416-.537-.54-.538-.636-1.758-.293-2.93-3.028-4.835-4.003-2.735-10.595-2.735-6.884 0-10.693 2.784-2.88 2.1-2.88 4.687 0 2.93 3.417 4.884 2.344 1.367 8.887 2.1 8.546.927 11.866 2.1 4.737 1.708 7.032 4.735 2.343 3.027 2.343 6.542 0 5.225-5.028 9.327-5.03 4.05-14.746 4.05-9.717 0-15.918-4.93 0 1.66-.195 2.148-.196.488-.733.83-.488.342-1.123.342-.88 0-1.465-.635-.586-.635-.586-2.1v-8.447q0-1.464.538-2.1.586-.634 1.513-.634.88 0 1.465.635.635.585.635 1.61 0 2.246 1.123 3.76 1.71 2.344 5.42 3.906 3.76 1.514 9.18 1.514 8.007 0 11.914-2.98 3.906-2.977 3.906-6.298 0-3.808-3.955-6.103-4.004-2.296-11.67-3.077-7.617-.782-10.938-2.05-3.32-1.27-5.175-3.81-1.856-2.54-1.856-5.468 0-5.274 5.176-8.35 5.176-3.125 12.353-3.125 8.496 0 13.82 4.15zM509.89 308.955q0 9.375-6.738 16.016-6.69 6.64-16.162 6.64-9.57 0-16.26-6.64-6.69-6.69-6.69-16.015 0-9.375 6.69-16.016 6.69-6.69 16.26-6.69 9.473 0 16.162 6.64 6.74 6.64 6.74 16.065zm-4.15 0q0-7.715-5.517-13.135-5.47-5.42-13.282-5.42-7.81 0-13.33 5.47-5.467 5.42-5.467 13.085 0 7.617 5.468 13.086 5.52 5.47 13.33 5.47 7.814 0 13.283-5.42 5.517-5.47 5.517-13.135zM547.516 330h-6.934l-16.846-38.135h-4.2q-1.464 0-2.098-.586-.635-.587-.635-1.514 0-.88.635-1.465.634-.585 2.1-.585h15.38q1.465 0 2.1.586.634.587.634 1.514 0 .88-.634 1.465-.635.585-2.1.585h-6.787l15.04 34.033h1.807l14.746-34.033h-6.836q-1.465 0-2.1-.586-.635-.587-.635-1.514 0-.88.635-1.465.635-.585 2.1-.585h15.43q1.513 0 2.1.586.634.587.634 1.514 0 .88-.634 1.465-.586.585-2.1.585h-4.15zM623.08 309.834h-41.797q1.074 7.96 6.64 12.842 5.616 4.834 13.868 4.834 4.59 0 9.62-1.514 5.03-1.514 8.203-4.004.928-.732 1.612-.732.78 0 1.367.635.586.585.586 1.416 0 .83-.782 1.612-2.343 2.44-8.35 4.59-5.956 2.1-12.255 2.1-10.546 0-17.626-6.885-7.03-6.934-7.03-16.748 0-8.937 6.59-15.334 6.64-6.396 16.407-6.396 10.06 0 16.554 6.592 6.494 6.543 6.396 16.992zm-4.15-4.15q-1.22-6.788-6.446-11.036-5.175-4.248-12.353-4.248-7.177 0-12.353 4.2-5.175 4.2-6.445 11.084zM652.94 287.715v10.35q8.01-7.225 11.964-9.276 4.004-2.1 7.373-2.1 3.662 0 6.787 2.49 3.174 2.44 3.174 3.71 0 .928-.634 1.563-.586.586-1.514.586-.488 0-.83-.147-.342-.196-1.27-1.123-1.71-1.71-2.978-2.344-1.27-.635-2.49-.635-2.686 0-6.495 2.15-3.76 2.148-13.086 10.498v22.46h18.165q1.514 0 2.15.586.634.537.634 1.465 0 .878-.636 1.464-.635.586-2.15.586H638.93q-1.465 0-2.1-.537-.635-.586-.635-1.465 0-.83.586-1.367.634-.585 2.148-.585h9.912v-34.18h-7.57q-1.463 0-2.098-.586-.635-.587-.635-1.514 0-.88.586-1.465.635-.585 2.148-.585zM49.836 397.715h22.266q1.464 0 2.1.586.634.587.634 1.514 0 .88-.635 1.465-.634.585-2.098.585H49.836v27.295q0 3.565 2.832 5.957 2.88 2.393 8.398 2.393 4.15 0 8.985-1.22 4.835-1.27 7.52-2.833.977-.635 1.612-.635.78 0 1.367.635.585.586.585 1.416 0 .732-.635 1.367-1.563 1.612-7.617 3.516-6.006 1.855-11.524 1.855-7.178 0-11.426-3.368-4.248-3.37-4.248-9.082v-27.295h-7.57q-1.464 0-2.098-.586-.635-.587-.635-1.514 0-.88.635-1.465.634-.585 2.1-.585h7.568v-12.11q0-1.464.585-2.1.587-.634 1.466-.634.928 0 1.514.636.586.635.586 2.1zM101.72 378.72v25.245q3.905-4.248 7.47-5.957 3.613-1.758 8.056-1.758 4.785 0 8.106 1.71 3.37 1.66 5.615 5.175 2.246 3.467 2.246 7.324v25.438h4.59q1.513 0 2.1.586.634.537.634 1.465 0 .878-.635 1.464-.586.586-2.1.586h-13.33q-1.513 0-2.148-.586-.635-.586-.635-1.465 0-.93.634-1.466.635-.586 2.15-.586h4.588v-25.146q0-4.443-3.222-7.422-3.174-2.978-8.887-2.978-4.492 0-7.666 2.197-2.295 1.56-7.568 7.372v25.976h4.637q1.465 0 2.1.586.635.537.635 1.465 0 .878-.635 1.464t-2.1.586H92.98q-1.466 0-2.1-.586-.636-.586-.636-1.465 0-.93.635-1.466.634-.586 2.1-.586h4.637V382.87H92.1q-1.465 0-2.1-.585-.635-.586-.635-1.514 0-.877.635-1.463.635-.586 2.1-.586zM194.373 419.834h-41.797q1.074 7.96 6.64 12.842 5.616 4.834 13.868 4.834 4.59 0 9.62-1.514 5.028-1.514 8.202-4.004.928-.732 1.612-.732.78 0 1.367.635.586.585.586 1.416 0 .83-.78 1.612-2.344 2.44-8.35 4.59-5.957 2.1-12.256 2.1-10.547 0-17.627-6.885-7.03-6.934-7.03-16.748 0-8.937 6.59-15.334 6.64-6.396 16.407-6.396 10.058 0 16.553 6.592 6.494 6.543 6.396 16.992zm-4.15-4.15q-1.22-6.788-6.446-11.036-5.175-4.248-12.353-4.248t-12.354 4.2q-5.175 4.2-6.445 11.084zM288.178 378.72V435.9h16.113q1.515 0 2.15.586.634.537.634 1.465 0 .878-.635 1.464t-2.15.586h-36.327q-1.465 0-2.1-.586-.634-.586-.634-1.465 0-.93.633-1.466.635-.586 2.1-.586h16.113V382.87H272.26q-1.465 0-2.15-.585-.633-.586-.633-1.514 0-.877.634-1.463.636-.586 2.15-.586zM354.855 440v-5.908q-8.935 7.52-19.09 7.52-7.374 0-11.525-3.712-4.15-3.76-4.15-9.18 0-5.956 5.47-10.4 5.467-4.443 15.965-4.443 2.832 0 6.153.39 3.32.342 7.177 1.124v-6.64q0-3.37-3.125-5.86t-9.375-2.49q-4.785 0-13.427 2.784-1.563.488-2.002.488-.78 0-1.367-.586-.54-.586-.54-1.465 0-.83.49-1.317.683-.733 5.517-2.002 7.618-2.05 11.524-2.05 7.764 0 12.11 3.857 4.346 3.81 4.346 8.643v27.148h5.47q1.512 0 2.147.586.635.537.635 1.465 0 .878-.635 1.464t-2.148.586zm0-20.41q-2.88-.83-6.103-1.22t-6.787-.39q-8.936 0-13.965 3.856-3.81 2.88-3.81 6.885 0 3.712 2.882 6.25 2.93 2.54 8.496 2.54 5.323 0 9.864-2.1 4.59-2.148 9.423-6.787zM417.97 397.715v3.662l-30.714 34.52h27.734v-5.663q0-1.464.537-2.1.586-.634 1.514-.634.93 0 1.515.635.586.635.586 2.1l-.048 9.765h-37.5v-3.662l30.566-34.473H386.67v5.567q0 1.464-.586 2.1-.586.634-1.465.634-.93 0-1.515-.635-.585-.634-.585-2.098v-9.717zM457.254 440l-19.043-38.135h-1.22q-1.465 0-2.1-.586-.634-.587-.634-1.466 0-.634.293-1.123.34-.536.83-.73.536-.245 1.61-.245h11.23q1.466 0 2.1.586.635.587.635 1.514 0 .88-.635 1.465-.634.585-2.1.585h-5.517l16.748 33.643 16.505-33.643h-5.517q-1.465 0-2.1-.586-.635-.587-.635-1.514 0-.88.635-1.465.635-.585 2.1-.585h11.18q1.515 0 2.15.586.634.587.634 1.514 0 .635-.39 1.172-.39.537-.88.733-.487.145-2.734.145l-25.976 52.88h6.396q1.465 0 2.1.538.635.586.635 1.514 0 .88-.635 1.465-.635.586-2.1.586h-23.632q-1.465 0-2.1-.586-.635-.537-.635-1.465t.636-1.514q.635-.537 2.1-.537h12.84zM591 378.72V435.9h5.47q1.512 0 2.147.586.635.537.635 1.465 0 .878-.635 1.464t-2.148.586h-9.62v-8.154q-7.13 9.765-18.116 9.765-5.566 0-10.693-2.928-5.077-2.98-8.056-8.448-2.93-5.468-2.93-11.28 0-5.858 2.93-11.278 2.98-5.47 8.057-8.447 5.128-2.98 10.743-2.98 10.742 0 18.067 9.766V382.87h-5.47q-1.513 0-2.148-.585-.634-.586-.634-1.514 0-.877.634-1.463.635-.586 2.15-.586zm-4.15 40.235q0-7.812-5.274-13.184-5.273-5.37-12.55-5.37-7.323 0-12.596 5.37-5.274 5.373-5.274 13.185 0 7.764 5.274 13.184 5.273 5.37 12.597 5.37 7.276 0 12.55-5.37 5.273-5.42 5.273-13.185zM650.793 418.955q0 9.375-6.738 16.016-6.69 6.64-16.162 6.64-9.57 0-16.26-6.64-6.69-6.69-6.69-16.015 0-9.375 6.69-16.016 6.69-6.69 16.26-6.69 9.472 0 16.162 6.64 6.738 6.64 6.738 16.065zm-4.15 0q0-7.715-5.518-13.135-5.47-5.42-13.28-5.42-7.814 0-13.33 5.47-5.47 5.42-5.47 13.085 0 7.617 5.47 13.086 5.516 5.47 13.33 5.47 7.81 0 13.28-5.42 5.518-5.47 5.518-13.135zM698.623 405.234v-7.52h9.62q1.464 0 2.1.587.634.587.634 1.514 0 .88-.635 1.465-.635.585-2.1.585h-5.517v40.967q0 4.102-1.758 7.324-1.172 2.15-3.906 4.444-2.734 2.295-4.98 3.27-2.246.978-6.006.978h-11.62q-1.466 0-2.1-.586-.635-.537-.635-1.465t.634-1.514q.634-.586 2.1-.586l11.767.05q3.614 0 6.495-1.856 2.93-1.855 4.834-5.42 1.073-2.05 1.073-5.224V429.94q-6.592 9.035-16.992 9.035-8.446 0-14.6-6.25-6.102-6.3-6.102-15.137 0-8.838 6.103-15.088 6.154-6.25 14.6-6.25 10.4 0 16.993 8.984zm0 12.354q0-7.227-4.98-12.207-4.932-4.98-11.817-4.98t-11.816 5.03q-4.932 4.98-4.932 12.158 0 7.226 4.932 12.256 4.93 4.98 11.816 4.98 6.885 0 11.817-4.98 4.98-5.03 4.98-12.256zM740.936 428.232h1.757q2.735 0 4.688 1.954 1.954 1.904 1.954 4.638 0 2.832-2.002 4.737-1.953 1.905-4.64 1.905h-1.756q-2.735 0-4.688-1.904-1.953-1.953-1.953-4.687 0-2.832 1.953-4.736 2.002-1.905 4.688-1.905z"/></g></svg>