<svg xmlns="http://www.w3.org/2000/svg" viewBox="0 0 800 500" height="500" width="800"><path fill="#fff" d="M0 0h800v500H0z"/><g font-weight="400" font-size="100" font-family="Didot" letter-spacing="-.03em" text-anchor="middle" fill="#222"><path d="M203.377 108.6v1.4h32.2v-1.4h-11.1V40.2h5.8c1.3 0 2.8.2 4.5.4 1.6.2 3.3.9 5 1.9 1.7 1.1 3.3 2.8 4.9 5.1 1.6 2.3 2.9 5.5 4.1 9.5h1.1V38.8h-60.8v18.3h1.1c1.1-4 2.4-7.2 4-9.5s3.2-4 4.9-5.1c1.7-1 3.4-1.7 5.1-1.9 1.6-.2 3.1-.4 4.5-.4h5.8v68.4zM253.137 108.6v1.4h24v-1.4h-7.7V86c0-2.6.4-5.1 1.2-7.4.8-2.2 2-4.2 3.5-5.9 1.4-1.6 3.1-2.9 5.1-3.9 1.9-.9 3.9-1.4 6.1-1.4 2.6 0 4.5.9 5.7 2.5 1.2 1.7 1.9 3.8 1.9 6.4v32.3h-7.7v1.4h24v-1.4h-7.7V79.4c0-4.6-1.4-8-4.2-10.2-2.8-2.1-6.3-3.2-10.7-3.2-2.8 0-5.1.5-7.1 1.3s-3.6 1.8-5 3-2.4 2.4-3.2 3.7c-.8 1.3-1.4 2.4-1.7 3.2h-.2V37.9h-16.3v1.4h7.7v69.3zM343.97 83.8h-20.5c.1-2.2.4-4.3.8-6.3s1.1-3.7 2-5.3c.8-1.5 2-2.7 3.5-3.6 1.4-.9 3.3-1.4 5.6-1.4 1.2 0 2.4.2 3.5.6 1.1.4 2 1 2.8 1.8.8.9 1.4 2.1 1.8 3.5.4 1.5.7 3.4.7 5.6v2.5c0 .8-.1 1.7-.2 2.6zm-20.6 1.4h30.8c0-3.6-.7-6.7-1.9-9.2-1.2-2.4-2.8-4.4-4.6-5.9-1.8-1.5-3.8-2.6-5.9-3.3-2.2-.6-4.2-1-6-1-3.2 0-6.1.7-8.8 2-2.8 1.3-5.2 3-7.2 5.1-2 2.2-3.6 4.6-4.8 7.4-1.2 2.8-1.7 5.6-1.7 8.5 0 3.4.5 6.5 1.7 9.3 1.1 2.8 2.7 5.1 4.8 7.1 2 2 4.5 3.6 7.3 4.6 2.8 1.1 5.9 1.6 9.3 1.6 3.3 0 6-.5 8.1-1.5 2.1-1 3.8-2.2 5-3.6 1.2-1.4 2.1-2.7 2.7-4.1.6-1.4 1-2.4 1.2-3.2l-1.5-.3c-.3.8-.7 1.9-1.2 3.1-.6 1.3-1.4 2.6-2.5 3.8-1.1 1.2-2.6 2.3-4.5 3.1-1.9.9-4.3 1.3-7.2 1.3-3 0-5.3-.6-7.1-1.9-1.8-1.2-3.1-2.8-4-4.8-.9-1.9-1.5-4.1-1.7-6.5-.3-2.4-.4-4.7-.4-6.9v-2.6c0-.7.1-1.4.1-2.1zM395.704 87.1c0-3 .1-5.8.5-8.2.3-2.4.9-4.5 1.7-6.3.8-1.7 2-3 3.5-4 1.5-.9 3.4-1.4 5.8-1.4s4.5.5 6.1 1.3c1.6.9 2.9 2 3.9 3.3.6 1 1.2 2 1.7 3 .4 1.1.8 2.4 1.1 3.8.2 1.5.4 3.2.5 5.1.1 1.9.2 4.1.2 6.7 0 2.2-.2 4.5-.5 6.8-.4 2.4-1 4.5-1.9 6.4-1 1.9-2.3 3.4-4 4.6-1.7 1.2-3.9 1.8-6.7 1.8-2.8 0-4.9-.5-6.5-1.6-1.6-1-2.8-2.6-3.6-4.6-.8-2-1.3-4.4-1.5-7.2-.2-2.8-.3-6-.3-9.5zm17.3 49.5v1.4h24v-1.4h-7.7V68.5h7.7v-1.4h-16.1v8.4h-.2c-1-2.8-2.7-5.2-5-7-2.3-1.8-5.3-2.7-8.9-2.7-2.9 0-5.6.7-8.1 1.9-2.6 1.2-4.8 2.9-6.7 4.9-2 2-3.5 4.4-4.6 7.1-1.2 2.8-1.7 5.6-1.7 8.6 0 3.1.5 6 1.7 8.8 1.2 2.8 2.8 5.2 4.8 7.3 2 2.2 4.3 3.9 6.9 5.1 2.6 1.3 5.4 1.9 8.4 1.9 2.2 0 4.1-.3 5.7-1.1 1.6-.8 2.9-1.7 3.9-2.7 1-1 1.7-2.1 2.3-3.2.5-1.1.9-2 1.1-2.7h.2v34.9zM493.78 110v-1.4h-7.7V67.1h-16.2v1.4h7.6v23.2c0 2.8-.5 5.4-1.3 7.6-.9 2.2-2 4.1-3.3 5.7-1.3 1.6-2.7 2.9-4.3 3.7-1.6.9-3.1 1.3-4.5 1.3-1.8 0-3.2-.3-4.2-.9-1.1-.6-2-1.5-2.6-2.6-.7-1.1-1.2-2.4-1.4-3.9-.2-1.4-.3-3-.3-4.8V67.1h-16.3v1.4h7.7v28.4c0 2 .1 3.7.5 5.1.3 1.4.7 2.5 1.2 3.3.4.9.9 1.6 1.5 2.1s1.1.9 1.6 1.2c.9.7 2.2 1.3 3.9 1.9 1.6.6 3.8.9 6.5.9 2.2 0 4.1-.3 5.7-1 1.6-.7 3.1-1.6 4.3-2.7 1.2-1.1 2.3-2.3 3.1-3.7.8-1.4 1.6-2.7 2.2-4.1h.2V110zM502.554 43.8c0 1.5.5 2.8 1.5 3.8s2.3 1.5 3.8 1.5c1.4 0 2.7-.5 3.7-1.5s1.6-2.3 1.6-3.8c0-1.4-.6-2.7-1.6-3.7s-2.3-1.6-3.7-1.6c-1.5 0-2.8.6-3.8 1.6s-1.5 2.3-1.5 3.7zm-6.5 64.8v1.4h24v-1.4h-7.7V67.1h-16.3v1.4h7.7v40.1zM564.54 99l-1.5-.3c-.3.8-.7 1.9-1.2 3.1-.6 1.3-1.4 2.6-2.5 3.8-1.1 1.2-2.6 2.3-4.5 3.1-1.9.9-4.3 1.3-7.2 1.3-2.8 0-5-.5-6.7-1.6-1.7-1.1-3-2.6-4-4.5s-1.6-4.1-2-6.7c-.4-2.5-.5-5.2-.5-8.1 0-5 .4-9 1.2-12 .8-2.9 1.9-5.1 3.2-6.6 1.3-1.4 2.7-2.3 4.3-2.7 1.6-.4 3.1-.6 4.6-.6 2 0 3.7.5 5.3 1.3 1.5.8 2.3 2 2.3 3.5 0 .9-.3 2-.7 3.3-.5 1.4-.7 2.5-.7 3.4 0 1.2.5 2.1 1.5 2.6s2.1.7 3.3.7c1.6 0 2.9-.4 3.8-1.3.9-.9 1.4-2.1 1.4-3.5 0-2-.6-3.8-1.6-5.2-1-1.4-2.3-2.6-3.9-3.5-1.6-.9-3.3-1.6-5.2-2-1.9-.4-3.7-.7-5.5-.7-3.2 0-6.3.6-9.1 1.8-2.8 1.2-5.3 2.8-7.4 4.8-2.1 2.1-3.8 4.5-5 7.3-1.2 2.8-1.8 5.9-1.8 9.1 0 4.2.7 7.8 2.1 10.6 1.4 2.9 3.3 5.2 5.6 7 2.2 1.8 4.7 3 7.5 3.8 2.7.8 5.3 1.2 7.9 1.2 3.3 0 6-.5 8.1-1.5 2.1-1 3.8-2.2 5-3.6 1.2-1.4 2.1-2.7 2.7-4.1.6-1.4 1-2.4 1.2-3.2zM566.812 108.6v1.4h21.8v-1.4h-5.5V87.1h1.1l17.7 21.5h-7.1v1.4h22.5v-1.4h-4.3l-22.1-26.7 15.6-13.4h6v-1.4h-15.5v1.4h7.1l-19.9 17.2h-1.1V37.9h-16.3v1.4h7.7v69.3zM231.233 197.1c0 3.5-.1 6.7-.3 9.5-.2 2.8-.7 5.2-1.5 7.2s-2 3.6-3.6 4.6c-1.6 1.1-3.8 1.6-6.5 1.6-2.8 0-5.1-.6-6.8-1.8-1.7-1.2-3-2.7-3.9-4.6-1-1.9-1.6-4-1.9-6.4-.4-2.3-.5-4.6-.5-6.8 0-2.6 0-4.8.1-6.7.1-1.9.3-3.6.6-5.1.2-1.4.6-2.7 1-3.8.4-1 1-2 1.8-3 1-1.3 2.3-2.4 3.9-3.3 1.6-.8 3.6-1.3 6.1-1.3 2.3 0 4.2.5 5.7 1.4 1.5 1 2.7 2.3 3.5 4 .8 1.8 1.4 3.9 1.8 6.3.3 2.4.5 5.2.5 8.2zm-41.3 21.5v1.4h16.1v-8.7h.2c.2.8.6 1.8 1.2 2.9.5 1.2 1.3 2.3 2.3 3.3 1 1.1 2.3 2 3.9 2.8 1.6.8 3.5 1.1 5.8 1.1 2.9 0 5.7-.6 8.3-1.9 2.6-1.2 5-2.9 7-5.1 2-2.1 3.5-4.5 4.7-7.3 1.2-2.8 1.8-5.7 1.8-8.8 0-3-.6-5.8-1.7-8.6-1.2-2.7-2.7-5.1-4.6-7.1-2-2-4.2-3.7-6.7-4.9-2.6-1.2-5.3-1.9-8.1-1.9-3.7 0-6.7.9-8.9 2.7-2.3 1.8-3.9 4-4.8 6.6h-.2v-37.2h-16.3v1.4h7.7v69.3zM246.208 218.6v1.4h25v-1.4h-8.7v-22.9c0-2.8.3-5.2 1-7.4s1.6-4 2.6-5.6c1-1.5 2.2-2.7 3.4-3.5 1.2-.8 2.3-1.2 3.4-1.2 2.3 0 3.5 1.1 3.5 3.2 0 .9-.1 1.6-.2 2-.2.5-.3.9-.5 1.3s-.3.7-.4 1.1c-.2.4-.2.8-.2 1.4 0 1.9 1.4 2.8 4.4 2.8 1.3 0 2.5-.3 3.5-1.1 1-.7 1.5-2.2 1.5-4.4 0-1-.2-2-.5-3-.4-1-.9-1.8-1.6-2.6-.8-.8-1.7-1.4-2.8-1.9-1.2-.5-2.5-.8-4-.8-2.2 0-4 .4-5.5 1.2-1.5.8-2.8 1.8-3.8 3-1.1 1.2-1.9 2.4-2.5 3.6-.6 1.3-1.1 2.4-1.3 3.4h-.2v-10.1h-16.1v1.4h7.7v40.1zM295.633 198.6c0-4 .2-7.3.8-10 .5-2.7 1.3-4.9 2.4-6.6 1.1-1.7 2.5-2.9 4.2-3.7 1.6-.7 3.6-1.1 5.9-1.1 2.2 0 4.2.4 5.9 1.1 1.6.8 3 2 4.1 3.7 1.1 1.7 1.9 3.9 2.5 6.6.5 2.7.8 6 .8 10 0 4.8-.4 8.5-1.1 11.3-.8 2.8-1.7 5-2.9 6.5s-2.6 2.5-4.2 2.9c-1.6.5-3.3.7-5.1.7-1.8 0-3.5-.2-5.1-.7-1.6-.4-3-1.4-4.2-2.9-1.2-1.5-2.2-3.7-2.9-6.5-.8-2.8-1.1-6.5-1.1-11.3zm-10 0c0 3.2.6 6.1 2 8.9 1.3 2.8 3 5.2 5.2 7.2 2.2 2.1 4.7 3.7 7.5 4.9 2.8 1.2 5.6 1.8 8.6 1.8 2.9 0 5.8-.6 8.6-1.8 2.8-1.2 5.2-2.8 7.4-4.9 2.2-2 3.9-4.4 5.3-7.2 1.3-2.8 2-5.7 2-8.9s-.8-6.3-2.2-9.1c-1.4-2.8-3.3-5.2-5.5-7.2s-4.7-3.6-7.5-4.8c-2.8-1.1-5.5-1.7-8.1-1.7-2.7 0-5.4.6-8.2 1.7-2.8 1.2-5.3 2.8-7.5 4.8s-4.1 4.4-5.5 7.2c-1.4 2.8-2.1 5.9-2.1 9.1zM332.42 177.1v1.4h6.8l16.1 44.8 15.2-36.3 13.6 36.3 17.9-44.8h5.3v-1.4h-16.3v1.4h9.4l-12.5 31-11.6-31h6.7v-1.4h-19.9v1.4h4.2l2.5 6.5-10.4 24.7-11.2-31.2h8.3v-1.4z"/><path d="M406.344 218.6v1.4h24v-1.4h-7.7V196c0-2.6.4-5.1 1.2-7.4.8-2.2 2-4.2 3.5-5.9 1.4-1.6 3.1-2.9 5.1-3.9 1.9-.9 3.9-1.4 6.1-1.4 2.6 0 4.5.9 5.7 2.5 1.2 1.7 1.9 3.8 1.9 6.4v32.3h-7.7v1.4h24v-1.4h-7.7v-29.2c0-4.6-1.4-8-4.2-10.2-2.8-2.1-6.3-3.2-10.7-3.2-2.9 0-5.3.5-7.3 1.4-2 .9-3.7 2-5 3.2-1.4 1.3-2.4 2.6-3.2 3.9-.8 1.4-1.3 2.5-1.7 3.3h-.2v-10.7h-16.1v1.4h7.7v40.1zM489.51 218.6v1.4h25.4v-1.4h-9.1v-40.1h12.4v-1.4h-12.4v-13.9c0-5 1-8.8 3-11.2 2-2.4 4.3-3.6 7.1-3.6 1.2 0 2.5.3 3.7.8 1.2.5 1.8 1.5 1.8 2.9 0 1.2-.4 2.2-1 3.1-.6.9-.9 1.9-.9 3 0 1.4.5 2.2 1.6 2.6 1.1.4 2.1.6 3 .6 1.7 0 2.9-.5 3.7-1.6.7-1 1.1-2.2 1.1-3.5 0-.8-.3-1.8-.7-2.9-.5-1.1-1.2-2.1-2.2-3.1-1-.9-2.3-1.7-3.9-2.3-1.6-.6-3.4-1-5.6-1-3 0-5.7.9-8.3 2.5-2.6 1.6-4.8 3.5-6.5 5.7-.7.8-1.3 1.7-1.8 2.7-.6 1-1 2.1-1.4 3.4-.4 1.3-.8 2.8-1 4.5-.2 1.7-.3 3.7-.3 6v5.3h-7.7v1.4h7.7v40.1zM530.633 198.6c0-4 .2-7.3.8-10 .5-2.7 1.3-4.9 2.4-6.6 1.1-1.7 2.5-2.9 4.2-3.7 1.6-.7 3.6-1.1 5.9-1.1 2.2 0 4.2.4 5.9 1.1 1.6.8 3 2 4.1 3.7 1.1 1.7 1.9 3.9 2.5 6.6.5 2.7.8 6 .8 10 0 4.8-.4 8.5-1.1 11.3-.8 2.8-1.7 5-2.9 6.5s-2.6 2.5-4.2 2.9c-1.6.5-3.3.7-5.1.7-1.8 0-3.5-.2-5.1-.7-1.6-.4-3-1.4-4.2-2.9-1.2-1.5-2.2-3.7-2.9-6.5-.8-2.8-1.1-6.5-1.1-11.3zm-10 0c0 3.2.6 6.1 2 8.9 1.3 2.8 3 5.2 5.2 7.2 2.2 2.1 4.7 3.7 7.5 4.9 2.8 1.2 5.6 1.8 8.6 1.8 2.9 0 5.8-.6 8.6-1.8 2.8-1.2 5.2-2.8 7.4-4.9 2.2-2 3.9-4.4 5.3-7.2 1.3-2.8 2-5.7 2-8.9s-.8-6.3-2.2-9.1c-1.4-2.8-3.3-5.2-5.5-7.2s-4.7-3.6-7.5-4.8c-2.8-1.1-5.5-1.7-8.1-1.7-2.7 0-5.4.6-8.2 1.7-2.8 1.2-5.3 2.8-7.5 4.8s-4.1 4.4-5.5 7.2c-1.4 2.8-2.1 5.9-2.1 9.1zM569.32 218.6v1.4h14.7v-1.4h-7.4l12.6-17 11.7 17h-7.9v1.4h23.4v-1.4h-5.5l-16.3-23.7 11.9-16.4h5.3v-1.4h-14.7v1.4h7.4l-10.8 15-10.3-15h7.9v-1.4h-23.5v1.4h5.6l14.9 21.7-13.7 18.4zM175.277 263.8c0 1.5.5 2.8 1.5 3.8s2.3 1.5 3.8 1.5c1.4 0 2.7-.5 3.7-1.5s1.6-2.3 1.6-3.8c0-1.4-.6-2.7-1.6-3.7s-2.3-1.6-3.7-1.6c-1.5 0-2.8.6-3.8 1.6s-1.5 2.3-1.5 3.7zm-6.5 23.3v1.4h7.7v58.8c0 3.5-.6 6-1.6 7.6-1 1.6-2.5 2.3-4.4 2.3-1.1 0-2.1-.3-2.9-.9-.9-.6-1.3-1.6-1.3-3 0-1.1.1-2 .3-2.8.2-.7.4-1.5.4-2.3 0-1-.3-1.9-.9-2.5-.6-.6-1.5-1-2.7-1-1.3 0-2.4.4-3.2 1.2-.9.8-1.3 2-1.3 3.6s.3 2.9 1.1 4.1c.8 1.2 1.7 2.1 2.8 2.8 1.1.8 2.3 1.3 3.6 1.7 1.2.4 2.4.5 3.5.5.9 0 1.9-.1 3.1-.3 1.1-.2 2.2-.7 3.3-1.3 1.1-.6 2.2-1.5 3.2-2.6 1-1 2-2.4 2.8-4 .3-.6.6-1.3 1-2.1.3-.8.6-1.8.9-3.2.2-1.3.4-3 .6-5.1.2-2.1.3-4.8.3-8v-44.9zM249.564 330v-1.4h-7.7v-41.5h-16.2v1.4h7.6v23.2c0 2.8-.5 5.4-1.3 7.6-.9 2.2-2 4.1-3.3 5.7-1.3 1.6-2.7 2.9-4.3 3.7-1.6.9-3.1 1.3-4.5 1.3-1.8 0-3.2-.3-4.2-.9-1.1-.6-2-1.5-2.6-2.6-.7-1.1-1.2-2.4-1.4-3.9-.2-1.4-.3-3-.3-4.8v-30.7h-16.3v1.4h7.7v28.4c0 2 .1 3.7.5 5.1.3 1.4.7 2.5 1.2 3.3.4.9.9 1.6 1.5 2.1s1.1.9 1.6 1.2c.9.7 2.2 1.3 3.9 1.9 1.6.6 3.8.9 6.5.9 2.2 0 4.1-.3 5.7-1 1.6-.7 3.1-1.6 4.3-2.7 1.2-1.1 2.3-2.3 3.1-3.7.8-1.4 1.6-2.7 2.2-4.1h.2V330zM251.04 328.6v1.4h24v-1.4h-7.7v-22.2c0-3.4.4-6.4 1.4-8.8 1-2.4 2.2-4.3 3.6-5.8s3-2.6 4.7-3.3c1.6-.7 3.2-1.1 4.6-1.1 2 0 3.6.7 4.8 2.1 1.2 1.4 1.8 3.6 1.8 6.5v32.6h-7.7v1.4h24v-1.4h-7.7v-25.5c0-2.6.4-5 1.2-7 .8-2 1.9-3.6 3.3-4.9 1.3-1.2 2.8-2.2 4.5-2.8 1.6-.6 3.3-1 5-1 2.1 0 3.8.7 5 1.9 1.2 1.3 1.9 3.1 1.9 5.3v34h-7.7v1.4h24v-1.4h-7.7v-27.7c0-9.9-4.9-14.9-14.6-14.9-2.1 0-4 .3-5.6.8-1.6.6-3 1.3-4.2 2.2-1.2.9-2.2 1.9-3 3-.8 1.2-1.5 2.3-1.9 3.5h-.2c-.8-3.4-2.5-5.8-5.1-7.3-2.6-1.4-5.5-2.2-8.8-2.2-3.8 0-7 1-9.6 2.8-2.6 1.9-4.6 4.8-6 8.8h-.2v-10.5h-16.1v1.4h7.7v40.1zM377.053 307.1c0 3.5-.1 6.7-.3 9.5-.2 2.8-.7 5.2-1.5 7.2s-2 3.6-3.6 4.6c-1.6 1.1-3.8 1.6-6.5 1.6-2.8 0-5.1-.6-6.8-1.8-1.7-1.2-3-2.7-3.9-4.6-1-1.9-1.6-4-1.9-6.4-.4-2.3-.5-4.6-.5-6.8 0-2.6 0-4.8.1-6.7.1-1.9.3-3.6.6-5.1.2-1.4.6-2.7 1-3.8.4-1 1-2 1.8-3 1-1.3 2.3-2.4 3.9-3.3 1.6-.8 3.6-1.3 6.1-1.3 2.3 0 4.2.5 5.7 1.4 1.5 1 2.7 2.3 3.5 4 .8 1.8 1.4 3.9 1.8 6.3.3 2.4.5 5.2.5 8.2zm-41.3 49.5v1.4h24v-1.4h-7.7v-34.9h.2c.2.7.5 1.6 1.1 2.7.5 1.1 1.3 2.2 2.3 3.2 1 1 2.2 1.9 3.8 2.7 1.6.8 3.5 1.1 5.8 1.1 2.9 0 5.7-.6 8.3-1.9 2.6-1.2 5-2.9 7-5.1 2-2.1 3.5-4.5 4.7-7.3 1.2-2.8 1.8-5.7 1.8-8.8 0-3-.6-5.8-1.7-8.6-1.2-2.7-2.7-5.1-4.6-7.1-2-2-4.2-3.7-6.7-4.9-2.6-1.2-5.3-1.9-8.1-1.9-3.7 0-6.7 1-9 2.8-2.3 1.8-3.9 4.1-4.9 6.9h-.2v-8.4h-16.1v1.4h7.7v68.1zM394.928 316v14h1.1c.2-.3.4-.6.8-.9.3-.3.8-.5 1.6-.5.7 0 1.5.2 2.4.5.8.3 1.8.6 2.8.9 1 .4 2.2.7 3.4 1 1.2.3 2.6.4 4.1.4 2.5 0 4.7-.4 6.7-1.2 2-.8 3.6-1.8 5-3.1s2.4-2.8 3.1-4.6c.7-1.7 1.1-3.5 1.1-5.3 0-3-1-5.5-3-7.4-2-1.8-4.6-3.3-7.7-4.4l-7.3-2.4c-3-.9-5.2-1.9-6.7-3s-2.2-2.7-2.2-4.9c0-2.4.8-4.3 2.6-5.7 1.8-1.4 4.3-2.2 7.5-2.2 1.6 0 3.1.3 4.3.9 1.2.6 2.3 1.5 3.1 2.5.8 1.1 1.6 2.3 2.2 3.7.6 1.4 1.1 2.8 1.6 4.2h1.1v-11.4h-1.1c-.4.6-.9.8-1.6.8-.8 0-1.4-.1-1.9-.3-.6-.2-1.2-.5-1.8-.7-.7-.2-1.5-.5-2.4-.7-.9-.2-2.1-.4-3.5-.4-2.1 0-4 .4-5.8 1-1.8.7-3.3 1.6-4.5 2.8-1.3 1.2-2.3 2.6-3 4.2-.8 1.6-1.1 3.4-1.1 5.2 0 2.2.3 4 .9 5.4.6 1.4 1.5 2.6 2.5 3.5 1 .9 2 1.6 3.2 2.1 1.2.5 2.3.9 3.3 1.2l7.8 2.7c1.7.6 3.2 1.5 4.5 2.5 1.3 1 2 2.8 2 5.3 0 3-.9 5.1-2.5 6.4-1.7 1.3-3.6 1.9-5.7 1.9-2.6 0-4.7-.4-6.5-1.3-1.8-.8-3.4-1.9-4.6-3.3-1.2-1.4-2.2-2.9-2.9-4.5-.8-1.6-1.4-3.3-1.8-4.9zM468.14 308.6c0-4 .2-7.3.8-10 .5-2.7 1.3-4.9 2.4-6.6 1.1-1.7 2.5-2.9 4.2-3.7 1.6-.7 3.6-1.1 5.9-1.1 2.2 0 4.2.4 5.9 1.1 1.6.8 3 2 4.1 3.7 1.1 1.7 1.9 3.9 2.5 6.6.5 2.7.8 6 .8 10 0 4.8-.4 8.5-1.1 11.3-.8 2.8-1.7 5-2.9 6.5s-2.6 2.5-4.2 2.9c-1.6.5-3.3.7-5.1.7-1.8 0-3.5-.2-5.1-.7-1.6-.4-3-1.4-4.2-2.9-1.2-1.5-2.2-3.7-2.9-6.5-.8-2.8-1.1-6.5-1.1-11.3zm-10 0c0 3.2.6 6.1 2 8.9 1.3 2.8 3 5.2 5.2 7.2 2.2 2.1 4.7 3.7 7.5 4.9 2.8 1.2 5.6 1.8 8.6 1.8 2.9 0 5.8-.6 8.6-1.8 2.8-1.2 5.2-2.8 7.4-4.9 2.2-2 3.9-4.4 5.3-7.2 1.3-2.8 2-5.7 2-8.9s-.8-6.3-2.2-9.1c-1.4-2.8-3.3-5.2-5.5-7.2s-4.7-3.6-7.5-4.8c-2.8-1.1-5.5-1.7-8.1-1.7-2.7 0-5.4.6-8.2 1.7-2.8 1.2-5.3 2.8-7.5 4.8s-4.1 4.4-5.5 7.2c-1.4 2.8-2.1 5.9-2.1 9.1zM503.528 287.1v1.4h6.8l18.2 44.8 18.9-44.8h5.4v-1.4h-15.2v1.4h8.2l-13.4 31.4-12.9-31.4h8.2v-1.4zM584.598 303.8h-20.5c.1-2.2.4-4.3.8-6.3s1.1-3.7 2-5.3c.8-1.5 2-2.7 3.5-3.6 1.4-.9 3.3-1.4 5.6-1.4 1.2 0 2.4.2 3.5.6 1.1.4 2 1 2.8 1.8.8.9 1.4 2.1 1.8 3.5.4 1.5.7 3.4.7 5.6v2.5c0 .8-.1 1.7-.2 2.6zm-20.6 1.4h30.8c0-3.6-.7-6.7-1.9-9.2-1.2-2.4-2.8-4.4-4.6-5.9-1.8-1.5-3.8-2.6-5.9-3.3-2.2-.6-4.2-1-6-1-3.2 0-6.1.7-8.8 2-2.8 1.3-5.2 3-7.2 5.1-2 2.2-3.6 4.6-4.8 7.4-1.2 2.8-1.7 5.6-1.7 8.5 0 3.4.5 6.5 1.7 9.3 1.1 2.8 2.7 5.1 4.8 7.1 2 2 4.5 3.6 7.3 4.6 2.8 1.1 5.9 1.6 9.3 1.6 3.3 0 6-.5 8.1-1.5 2.1-1 3.8-2.2 5-3.6 1.2-1.4 2.1-2.7 2.7-4.1.6-1.4 1-2.4 1.2-3.2l-1.5-.3c-.3.8-.7 1.9-1.2 3.1-.6 1.3-1.4 2.6-2.5 3.8-1.1 1.2-2.6 2.3-4.5 3.1-1.9.9-4.3 1.3-7.2 1.3-3 0-5.3-.6-7.1-1.9-1.8-1.2-3.1-2.8-4-4.8-.9-1.9-1.5-4.1-1.7-6.5-.3-2.4-.4-4.7-.4-6.9v-2.6c0-.7.1-1.4.1-2.1zM599.098 328.6v1.4h25v-1.4h-8.7v-22.9c0-2.8.3-5.2 1-7.4s1.6-4 2.6-5.6c1-1.5 2.2-2.7 3.4-3.5 1.2-.8 2.3-1.2 3.4-1.2 2.3 0 3.5 1.1 3.5 3.2 0 .9-.1 1.6-.2 2-.2.5-.3.9-.5 1.3s-.3.7-.4 1.1c-.2.4-.2.8-.2 1.4 0 1.9 1.4 2.8 4.4 2.8 1.3 0 2.5-.3 3.5-1.1 1-.7 1.5-2.2 1.5-4.4 0-1-.2-2-.5-3-.4-1-.9-1.8-1.6-2.6-.8-.8-1.7-1.4-2.8-1.9-1.2-.5-2.5-.8-4-.8-2.2 0-4 .4-5.5 1.2-1.5.8-2.8 1.8-3.8 3-1.1 1.2-1.9 2.4-2.5 3.6-.6 1.3-1.1 2.4-1.3 3.4h-.2v-10.1h-16.1v1.4h7.7v40.1zM139.427 397.1v1.4h7.7v31.8c0 3.6.9 6.3 2.9 8.2 2 2 5.5 2.9 10.5 2.9 2 0 3.6-.3 5-.9 1.3-.6 2.4-1.4 3.2-2.4.8-1 1.5-2 1.9-3.1.4-1 .7-2 .9-2.9l-1.4-.5c-.4 2.2-1.4 4.2-2.8 5.9-1.4 1.7-3.3 2.5-5.6 2.5-.7 0-1.4-.1-2.1-.3-.7-.2-1.3-.6-1.9-1.2-.6-.6-1.1-1.5-1.5-2.7-.4-1.2-.5-2.7-.5-4.6v-32.7h14.2v-1.4h-14.2v-13.7c-.7.6-1.4 1-2.1 1.2-.8.2-1.6.3-2.6.3-1.2 0-2 0-2.4-.2-.5-.1-1-.3-1.5-.5v12.9z"/><path d="M170.625 438.6v1.4h24v-1.4h-7.7V416c0-2.6.4-5.1 1.2-7.4.8-2.2 2-4.2 3.5-5.9 1.4-1.6 3.1-2.9 5.1-3.9 1.9-.9 3.9-1.4 6.1-1.4 2.6 0 4.5.9 5.7 2.5 1.2 1.7 1.9 3.8 1.9 6.4v32.3h-7.7v1.4h24v-1.4h-7.7v-29.2c0-4.6-1.4-8-4.2-10.2-2.8-2.1-6.3-3.2-10.7-3.2-2.8 0-5.1.5-7.1 1.3s-3.6 1.8-5 3-2.4 2.4-3.2 3.7c-.8 1.3-1.4 2.4-1.7 3.2h-.2v-39.3h-16.3v1.4h7.7v69.3zM261.458 413.8h-20.5c.1-2.2.4-4.3.8-6.3s1.1-3.7 2-5.3c.8-1.5 2-2.7 3.5-3.6 1.4-.9 3.3-1.4 5.6-1.4 1.2 0 2.4.2 3.5.6 1.1.4 2 1 2.8 1.8.8.9 1.4 2.1 1.8 3.5.4 1.5.7 3.4.7 5.6v2.5c0 .8-.1 1.7-.2 2.6zm-20.6 1.4h30.8c0-3.6-.7-6.7-1.9-9.2-1.2-2.4-2.8-4.4-4.6-5.9-1.8-1.5-3.8-2.6-5.9-3.3-2.2-.6-4.2-1-6-1-3.2 0-6.1.7-8.8 2-2.8 1.3-5.2 3-7.2 5.1-2 2.2-3.6 4.6-4.8 7.4-1.2 2.8-1.7 5.6-1.7 8.5 0 3.4.5 6.5 1.7 9.3 1.1 2.8 2.7 5.1 4.8 7.1 2 2 4.5 3.6 7.3 4.6 2.8 1.1 5.9 1.6 9.3 1.6 3.3 0 6-.5 8.1-1.5 2.1-1 3.8-2.2 5-3.6 1.2-1.4 2.1-2.7 2.7-4.1.6-1.4 1-2.4 1.2-3.2l-1.5-.3c-.3.8-.7 1.9-1.2 3.1-.6 1.3-1.4 2.6-2.5 3.8-1.1 1.2-2.6 2.3-4.5 3.1-1.9.9-4.3 1.3-7.2 1.3-3 0-5.3-.6-7.1-1.9-1.8-1.2-3.1-2.8-4-4.8-.9-1.9-1.5-4.1-1.7-6.5-.3-2.4-.4-4.7-.4-6.9v-2.6c0-.7.1-1.4.1-2.1zM300.792 438.6v1.4h24v-1.4h-7.7v-70.7h-16.3v1.4h7.7v69.3zM354.98 415.5v10c0 1.4-.2 2.9-.4 4.5s-.7 3.1-1.4 4.5-1.7 2.6-3.1 3.5c-1.4 1-3.1 1.4-5.3 1.4-1.6 0-2.8-.2-3.8-.8-1-.5-1.7-1.2-2.2-2-.6-.8-.9-1.8-1.1-2.9-.2-1-.3-2.1-.3-3.1 0-2.3.5-4.2 1.7-5.8 1.1-1.6 2.7-2.8 4.9-3.7l7.5-3c2-.8 3.1-1.7 3.3-2.6zm17.5 23.4l-.8-1.1c-.8.6-1.5 1-2.3 1.2-.8.3-1.6.4-2.3.4-1.2 0-2-.3-2.6-1-.6-.6-.9-1.9-.9-3.9v-24.9c0-1.8-.3-3.5-.8-5.1-.6-1.6-1.5-3.1-2.7-4.4-1.3-1.3-3-2.3-5-3.1-2.1-.8-4.7-1.2-7.7-1.2-2.6 0-4.8.3-6.8.9-2 .6-3.6 1.5-4.9 2.5-1.3 1-2.3 2.2-2.9 3.5-.7 1.4-1 2.8-1 4.2 0 1.3.2 2.3.8 3.1.5.8 1.9 1.2 4.1 1.2 1.2 0 2.2-.3 2.9-.9.6-.6 1-1.4 1-2.4 0-.5-.1-1.3-.3-2.4-.2-1.1-.3-2.2-.3-3.4 0-1.7.7-2.9 2.1-3.7 1.4-.8 3.3-1.2 5.5-1.2 1.6 0 3 .3 4 .7 1 .5 1.7 1.2 2.3 2.1.5.9.9 2 1.1 3.2.2 1.3.3 2.7.3 4.3 0 2-.2 3.6-.5 4.8-.3 1.2-.8 2.1-1.6 2.9-.8.8-2 1.4-3.4 1.9-1.4.6-3.2 1.2-5.4 1.9-1.9.6-3.8 1.2-5.6 1.7-1.8.6-3.5 1.3-5 2.1s-2.7 1.9-3.6 3.3c-1 1.4-1.4 3.3-1.4 5.6 0 1 .1 2.1.4 3.3.3 1.2.9 2.2 1.9 3.1.9 1 2.2 1.8 3.9 2.4 1.6.6 3.9.9 6.7.9 2.4 0 4.5-.2 6.1-.8 1.6-.6 2.8-1.3 3.8-2.1s1.7-1.7 2.2-2.6c.4-.9.8-1.7 1.1-2.3h.2c.5 2.5 1.5 4.4 2.9 5.8 1.4 1.4 3.8 2 7 2 1.7 0 3.2-.2 4.4-.7 1.2-.5 2.2-1.1 3.1-1.8zM376.927 397.1l-1.4 11.2h.8c1-2.4 1.9-4.3 2.8-5.7.8-1.3 1.8-2.3 2.8-2.9 1-.6 2.1-.9 3.3-1 1.2-.1 2.7-.2 4.4-.2h8.6l-24.9 41.5h34.8l1.3-13h-.8c-.4 1.2-.9 2.5-1.3 3.8-.4 1.4-1 2.6-1.8 3.8-.8 1.2-1.8 2.1-3 2.9-1.2.8-2.8 1.1-4.7 1.1h-14.1l24.9-41.5z"/><path d="M408.805 397.1v1.4h6.9l17.3 42.8-4.4 11.2c-1.1 2.7-2.1 5-2.9 6.8-.9 1.8-1.8 3.3-2.6 4.4-.9 1.2-1.8 2-2.7 2.5-.9.5-1.9.7-2.9.7-.8 0-1.5-.1-1.9-.4-.5-.2-.7-.8-.7-1.7 0-1 .2-1.9.8-2.7.6-.8.9-1.7.9-2.7 0-.6-.2-1.2-.5-1.7-.4-.4-.8-.8-1.2-1.1-.5-.2-1-.4-1.5-.5-.6-.1-1.1-.2-1.5-.2-1.4 0-2.5.5-3.4 1.3-1 .8-1.4 2.1-1.4 3.7 0 .6.1 1.4.3 2.2.2.9.6 1.7 1.3 2.5.6.8 1.5 1.5 2.7 2.1 1.2.6 2.7.9 4.7.9 1.6 0 3-.2 4.2-.8 1.2-.6 2.3-1.4 3.3-2.6 1-1.1 2-2.6 3-4.4.9-1.8 1.8-3.9 2.8-6.3 1.1-2.9 2.2-5.8 3.4-8.7 1.1-2.9 2.3-5.8 3.6-8.7l16.5-38.6h5.4v-1.4h-15.3v1.4h8.3l-13.5 31.4-12.9-31.4h8.4v-1.4zM494.286 417.1c0-3 .1-5.8.5-8.2.3-2.4.9-4.5 1.7-6.3.8-1.7 2-3 3.5-4 1.5-.9 3.4-1.4 5.8-1.4s4.5.5 6.1 1.3c1.6.9 2.9 2 3.9 3.3.6 1 1.2 2 1.7 3 .4 1.1.8 2.4 1.1 3.8.2 1.5.4 3.2.5 5.1.1 1.9.2 4.1.2 6.7 0 2.2-.2 4.5-.5 6.8-.4 2.4-1 4.5-1.9 6.4-1 1.9-2.3 3.4-4 4.6-1.7 1.2-3.9 1.8-6.7 1.8-2.8 0-4.9-.5-6.5-1.6-1.6-1-2.8-2.6-3.6-4.6-.8-2-1.3-4.4-1.5-7.2-.2-2.8-.3-6-.3-9.5zm17.3-49.2v1.4h7.7v35.8h-.2c-1-2.6-2.6-4.8-4.8-6.6-2.3-1.8-5.3-2.7-8.9-2.7-2.9 0-5.6.7-8.1 1.9-2.6 1.2-4.8 2.9-6.7 4.9-2 2-3.5 4.4-4.6 7.1-1.2 2.8-1.7 5.6-1.7 8.6 0 3.1.5 6 1.7 8.8 1.2 2.8 2.8 5.2 4.8 7.3 2 2.2 4.3 3.9 6.9 5.1 2.6 1.3 5.4 1.9 8.4 1.9 2.2 0 4.1-.3 5.7-1.1 1.6-.8 2.9-1.7 3.9-2.8 1-1 1.8-2.1 2.4-3.3.5-1.1.9-2.1 1.2-2.9h.2v8.7h16.1v-1.4h-7.7v-70.7zM549.96 418.6c0-4 .2-7.3.8-10 .5-2.7 1.3-4.9 2.4-6.6 1.1-1.7 2.5-2.9 4.2-3.7 1.6-.7 3.6-1.1 5.9-1.1 2.2 0 4.2.4 5.9 1.1 1.6.8 3 2 4.1 3.7 1.1 1.7 1.9 3.9 2.5 6.6.5 2.7.8 6 .8 10 0 4.8-.4 8.5-1.1 11.3-.8 2.8-1.7 5-2.9 6.5s-2.6 2.5-4.2 2.9c-1.6.5-3.3.7-5.1.7-1.8 0-3.5-.2-5.1-.7-1.6-.4-3-1.4-4.2-2.9-1.2-1.5-2.2-3.7-2.9-6.5-.8-2.8-1.1-6.5-1.1-11.3zm-10 0c0 3.2.6 6.1 2 8.9 1.3 2.8 3 5.2 5.2 7.2 2.2 2.1 4.7 3.7 7.5 4.9 2.8 1.2 5.6 1.8 8.6 1.8 2.9 0 5.8-.6 8.6-1.8 2.8-1.2 5.2-2.8 7.4-4.9 2.2-2 3.9-4.4 5.3-7.2 1.3-2.8 2-5.7 2-8.9s-.8-6.3-2.2-9.1c-1.4-2.8-3.3-5.2-5.5-7.2s-4.7-3.6-7.5-4.8c-2.8-1.1-5.5-1.7-8.1-1.7-2.7 0-5.4.6-8.2 1.7-2.8 1.2-5.3 2.8-7.5 4.8s-4.1 4.4-5.5 7.2c-1.4 2.8-2.1 5.9-2.1 9.1zM607.525 443h10.8c3.5 0 6.3.8 8.3 2.4 2 1.6 3.1 4.2 3.1 7.9 0 1.8-.4 3.4-1.2 5-.8 1.6-1.9 3.1-3.3 4.3-1.4 1.2-3.1 2.2-5.1 2.9-2 .8-4.1 1.1-6.5 1.1-1.6 0-3.1-.2-4.7-.6-1.6-.4-3.1-1-4.4-2-1.3-1-2.4-2.2-3.2-3.8-.8-1.6-1.2-3.6-1.2-6 0-1.7.2-3.1.6-4.3.4-1.2 1-2.2 1.7-3.1.7-.8 1.5-1.5 2.4-2.1.9-.6 1.8-1.1 2.7-1.7zm16.2-32.5c0 4.4-.8 7.7-2.2 9.9-1.5 2.2-4 3.2-7.4 3.2-2.1 0-3.8-.3-5.1-.9-1.4-.6-2.4-1.4-3.2-2.6-.8-1.2-1.4-2.6-1.7-4.2-.3-1.6-.4-3.4-.4-5.4 0-4.7.8-8.1 2.6-10.2 1.7-2 4.3-3.1 7.7-3.1 2.2 0 3.9.4 5.2 1.2 1.3.8 2.3 1.9 2.9 3.2.6 1.3 1.1 2.7 1.3 4.3.2 1.6.3 3.1.3 4.6zm-31.2 23c0 3.5 1 6 3.1 7.4 2.1 1.4 5.4 2.1 9.8 2.1v.2c-1.4.6-2.8 1.2-4.2 2-1.4.8-2.7 1.8-3.8 2.9-1.1 1.1-2 2.4-2.7 3.8-.7 1.4-1 3-1 4.7 0 1.8.4 3.5 1.3 4.9.9 1.5 2.2 2.8 3.8 3.8 1.6 1 3.4 1.8 5.6 2.4 2.2.6 4.6.9 7.2.9 2.8 0 5.6-.4 8.4-1.4 2.7-1 5.1-2.3 7.2-4.1 2.1-1.8 3.8-3.9 5.1-6.3 1.2-2.4 1.9-5 1.9-8 0-4.8-1.4-8.3-4.2-10.5-2.8-2.2-6.5-3.4-11.1-3.4h-15.8c-.9 0-1.7 0-2.5-.2-.8-.1-1.6-.3-2.2-.7-.6-.3-1.1-.8-1.5-1.5-.4-.6-.6-1.5-.6-2.5s.2-2 .7-2.8c.4-.8 1-1.6 1.7-2.2.7-.6 1.5-1.1 2.3-1.5.8-.4 1.6-.7 2.4-1.1.9.5 2.2 1.1 4 1.7 1.7.6 3.7.9 6.1.9 2.2 0 4.4-.3 6.6-1 2.2-.7 4.1-1.7 5.7-3 1.6-1.2 3-2.7 4-4.4 1-1.6 1.5-3.5 1.5-5.5 0-2.4-.5-4.4-1.4-6-1-1.6-1.7-2.7-2.3-3.4.5-.7 1.1-1.3 1.8-1.9.7-.6 1.4-.9 2.1-.9.6 0 1.1.3 1.5.8.3.6.6 1.1.9 1.7.3.6.7 1.2 1.1 1.7.4.6 1 .8 2 .8.8 0 1.5-.3 2.3-.9.8-.6 1.2-1.5 1.2-2.7 0-1.8-.6-3-1.7-3.6-1.2-.6-2.4-.9-3.7-.9-2.2 0-4 .6-5.4 1.6-1.4 1.1-2.5 2.3-3.2 3.5-1-1-2.6-2.1-4.8-3.3-2.2-1.2-4.7-1.8-7.7-1.8-2 0-4 .4-6.1 1-2.1.7-4 1.7-5.7 3-1.8 1.3-3.2 2.9-4.3 4.7-1.2 1.9-1.7 4-1.7 6.3 0 4.6 1.9 8.2 5.8 10.8-.9.4-1.9.9-3 1.5s-2.1 1.4-3.1 2.4-1.8 2.1-2.4 3.4c-.7 1.3-1 2.8-1 4.6zM643.14 435.8c0 1.5.5 2.8 1.5 3.8s2.3 1.5 3.8 1.5c1.4 0 2.7-.5 3.7-1.5s1.6-2.3 1.6-3.8c0-1.4-.6-2.7-1.6-3.7s-2.3-1.6-3.7-1.6c-1.5 0-2.8.6-3.8 1.6s-1.5 2.3-1.5 3.7z"/></g></svg>