<svg xmlns="http://www.w3.org/2000/svg" viewBox="0 0 1000 1000"><path fill="#fff" d="M0 0h1000v1000H0z"/><g font-weight="400" font-size="128" font-family="Didot" text-anchor="middle" fill="#111"><path d="M231.043 139.008v1.792h41.216v-1.792h-14.21V51.456h7.425c1.664 0 3.584.256 5.76.512 2.048.256 4.224 1.152 6.4 2.432 2.176 1.408 4.224 3.584 6.272 6.528 2.048 2.944 3.712 7.04 5.248 12.16h1.408V49.664H212.74v23.424h1.407c1.408-5.12 3.072-9.216 5.12-12.16 2.048-2.944 4.096-5.12 6.272-6.528 2.175-1.28 4.35-2.176 6.527-2.432 2.048-.256 3.968-.512 5.76-.512h7.424v87.552zM298.575 139.008v1.792h30.72v-1.792h-9.856V110.08c0-3.328.51-6.528 1.535-9.472a23.63 23.63 0 0 1 4.48-7.552c1.792-2.048 3.968-3.712 6.528-4.992 2.432-1.152 4.992-1.792 7.808-1.792 3.33 0 5.76 1.152 7.297 3.2 1.536 2.176 2.432 4.864 2.432 8.192v41.344h-9.857v1.792h30.72v-1.792h-9.856v-37.376c0-5.888-1.792-10.24-5.376-13.056-3.583-2.688-8.063-4.096-13.695-4.096-3.584 0-6.528.64-9.088 1.664-2.56 1.024-4.608 2.304-6.4 3.84-1.792 1.536-3.072 3.072-4.096 4.736-1.023 1.664-1.79 3.072-2.175 4.096h-.256V48.512h-20.865v1.792h9.856v88.704zM418.68 107.264h-26.24c.13-2.816.513-5.504 1.025-8.064.512-2.56 1.408-4.736 2.56-6.784 1.024-1.92 2.56-3.456 4.48-4.608 1.792-1.152 4.224-1.792 7.168-1.792 1.536 0 3.072.256 4.48.768 1.408.512 2.56 1.28 3.584 2.304 1.024 1.152 1.792 2.688 2.304 4.48.513 1.92.897 4.352.897 7.168v3.2c0 1.024-.128 2.176-.256 3.328zm-26.367 1.792h39.424c0-4.608-.896-8.576-2.432-11.776-1.536-3.072-3.584-5.632-5.888-7.552a23.283 23.283 0 0 0-7.552-4.224c-2.816-.768-5.376-1.28-7.68-1.28-4.096 0-7.808.896-11.264 2.56-3.583 1.664-6.655 3.84-9.215 6.528-2.56 2.816-4.608 5.888-6.144 9.472-1.535 3.584-2.175 7.168-2.175 10.88 0 4.352.64 8.32 2.176 11.904 1.41 3.584 3.457 6.528 6.145 9.088a25.264 25.264 0 0 0 9.344 5.888c3.583 1.408 7.55 2.048 11.903 2.048 4.224 0 7.68-.64 10.368-1.92 2.69-1.28 4.865-2.816 6.4-4.608 1.537-1.792 2.69-3.456 3.457-5.248.768-1.792 1.28-3.072 1.536-4.096l-1.92-.384c-.384 1.024-.896 2.432-1.536 3.968-.768 1.664-1.792 3.328-3.2 4.864-1.408 1.536-3.328 2.944-5.76 3.968-2.432 1.152-5.504 1.664-9.216 1.664-3.84 0-6.783-.768-9.087-2.432-2.304-1.536-3.968-3.584-5.12-6.144-1.152-2.432-1.92-5.248-2.176-8.32-.384-3.072-.512-6.016-.512-8.832v-3.328c0-.896.128-1.792.128-2.688zM492.58 111.488c0-3.84.13-7.424.64-10.496.385-3.072 1.153-5.76 2.177-8.064 1.024-2.176 2.56-3.84 4.48-5.12 1.92-1.152 4.352-1.792 7.424-1.792 3.073 0 5.76.64 7.81 1.664 2.047 1.152 3.71 2.56 4.99 4.224.77 1.28 1.537 2.56 2.177 3.84a37.158 37.158 0 0 1 1.408 4.864c.256 1.92.512 4.096.64 6.528.128 2.432.256 5.248.256 8.576 0 2.816-.255 5.76-.64 8.704-.51 3.072-1.28 5.76-2.43 8.192-1.28 2.432-2.945 4.352-5.12 5.888-2.177 1.536-4.993 2.304-8.577 2.304-3.584 0-6.272-.64-8.32-2.048-2.048-1.28-3.584-3.328-4.608-5.888-1.024-2.56-1.664-5.632-1.92-9.216-.256-3.584-.384-7.68-.384-12.16zm22.145 63.36v1.792h30.72v-1.792h-9.856V87.68h9.855v-1.792h-20.608V96.64h-.256c-1.28-3.584-3.455-6.656-6.4-8.96-2.943-2.304-6.783-3.456-11.39-3.456-3.713 0-7.17.896-10.37 2.432-3.327 1.536-6.143 3.712-8.575 6.272-2.56 2.56-4.48 5.632-5.888 9.088-1.536 3.584-2.176 7.168-2.176 11.008 0 3.968.64 7.68 2.177 11.264 1.536 3.584 3.584 6.656 6.144 9.344 2.56 2.816 5.505 4.992 8.833 6.528 3.328 1.664 6.912 2.432 10.752 2.432 2.816 0 5.248-.384 7.296-1.408 2.05-1.024 3.713-2.176 4.993-3.456 1.28-1.28 2.176-2.688 2.944-4.096.64-1.408 1.152-2.56 1.408-3.456h.256v44.672zM621.957 140.8v-1.792H612.1v-53.12h-20.735v1.792h9.728v29.696c0 3.584-.64 6.912-1.664 9.728-1.153 2.816-2.56 5.248-4.225 7.296-1.664 2.048-3.456 3.712-5.504 4.736-2.047 1.152-3.967 1.664-5.76 1.664-2.303 0-4.095-.384-5.375-1.152a8.328 8.328 0 0 1-3.328-3.328c-.896-1.408-1.536-3.072-1.792-4.992-.256-1.792-.384-3.84-.384-6.144V85.888h-20.863v1.792h9.856v36.352c0 2.56.128 4.736.64 6.528.384 1.792.896 3.2 1.536 4.224.51 1.152 1.15 2.048 1.92 2.688.767.64 1.407 1.152 2.047 1.536 1.152.896 2.816 1.664 4.992 2.432 2.047.768 4.863 1.152 8.32 1.152 2.815 0 5.247-.384 7.295-1.28s3.968-2.048 5.504-3.456c1.535-1.408 2.943-2.944 3.967-4.736 1.024-1.792 2.048-3.456 2.816-5.248h.256V140.8zM637.03 56.064c0 1.92.64 3.584 1.92 4.864 1.28 1.28 2.943 1.92 4.863 1.92 1.792 0 3.456-.64 4.736-1.92 1.28-1.28 2.047-2.944 2.047-4.864 0-1.792-.768-3.456-2.048-4.736-1.28-1.28-2.945-2.048-4.737-2.048-1.92 0-3.584.768-4.864 2.048-1.28 1.28-1.92 2.944-1.92 4.736zm-8.32 82.944v1.792h30.72v-1.792h-9.857v-53.12H628.71v1.792h9.855v51.328zM720.213 126.72l-1.92-.384c-.384 1.024-.896 2.432-1.536 3.968-.768 1.664-1.792 3.328-3.2 4.864-1.408 1.536-3.328 2.944-5.76 3.968-2.432 1.152-5.504 1.664-9.216 1.664-3.583 0-6.4-.64-8.575-2.048-2.176-1.408-3.84-3.328-5.12-5.76-1.28-2.432-2.048-5.248-2.56-8.576-.512-3.2-.64-6.656-.64-10.368 0-6.4.512-11.52 1.536-15.36 1.025-3.712 2.433-6.528 4.097-8.448 1.664-1.792 3.456-2.944 5.504-3.456 2.05-.512 3.97-.768 5.89-.768 2.56 0 4.735.64 6.783 1.664 1.92 1.024 2.944 2.56 2.944 4.48 0 1.152-.384 2.56-.896 4.224-.64 1.792-.895 3.2-.895 4.352 0 1.536.64 2.688 1.92 3.328 1.28.64 2.688.896 4.224.896 2.047 0 3.71-.512 4.863-1.664 1.152-1.152 1.792-2.688 1.792-4.48 0-2.56-.768-4.864-2.048-6.656a15.34 15.34 0 0 0-4.992-4.48c-2.048-1.152-4.224-2.048-6.656-2.56-2.433-.512-4.737-.896-7.04-.896-4.097 0-8.065.768-11.65 2.304-3.583 1.536-6.783 3.584-9.47 6.144-2.69 2.688-4.865 5.76-6.4 9.344-1.537 3.584-2.305 7.552-2.305 11.648 0 5.376.896 9.984 2.688 13.568 1.792 3.712 4.224 6.656 7.168 8.96 2.817 2.304 6.017 3.84 9.6 4.864 3.457 1.024 6.785 1.536 10.113 1.536 4.224 0 7.68-.64 10.368-1.92 2.69-1.28 4.865-2.816 6.4-4.608 1.537-1.792 2.69-3.456 3.457-5.248.768-1.792 1.28-3.072 1.536-4.096zM726.96 139.008v1.792h27.903v-1.792h-7.04v-27.52h1.408l22.657 27.52H762.8v1.792h28.8v-1.792h-5.505l-28.288-34.176 19.968-17.152h7.68v-1.792h-19.84v1.792h9.088l-25.472 22.016h-1.407V48.512H726.96v1.792h9.855v88.704zM266.698 252.288c0 4.48-.128 8.576-.384 12.16-.256 3.584-.896 6.656-1.92 9.216-1.024 2.56-2.56 4.608-4.608 5.888-2.048 1.408-4.864 2.048-8.32 2.048-3.584 0-6.528-.768-8.704-2.304-2.176-1.536-3.84-3.456-4.992-5.888-1.28-2.432-2.048-5.12-2.432-8.192-.512-2.944-.64-5.888-.64-8.704 0-3.328 0-6.144.128-8.576.128-2.432.384-4.608.768-6.528.256-1.792.768-3.456 1.28-4.864.512-1.28 1.28-2.56 2.304-3.84 1.28-1.664 2.944-3.072 4.992-4.224 2.048-1.024 4.608-1.664 7.808-1.664 2.944 0 5.376.64 7.296 1.792 1.92 1.28 3.456 2.944 4.48 5.12 1.024 2.304 1.792 4.992 2.304 8.064.384 3.072.64 6.656.64 10.496zm-52.864 27.52v1.792h20.608v-11.136h.256c.256 1.024.768 2.304 1.536 3.712.64 1.536 1.664 2.944 2.944 4.224 1.28 1.408 2.944 2.56 4.992 3.584s4.48 1.408 7.424 1.408c3.712 0 7.296-.768 10.624-2.432 3.328-1.536 6.4-3.712 8.96-6.528 2.56-2.688 4.48-5.76 6.016-9.344 1.536-3.584 2.304-7.296 2.304-11.264 0-3.84-.768-7.424-2.176-11.008-1.536-3.456-3.456-6.528-5.888-9.088-2.56-2.56-5.376-4.736-8.576-6.272-3.328-1.536-6.784-2.432-10.368-2.432-4.736 0-8.576 1.152-11.392 3.456-2.944 2.304-4.992 5.12-6.144 8.448h-.256v-47.616h-20.864v1.792h9.856v88.704zM289.706 279.808v1.792h32v-1.792H310.57v-29.312c0-3.584.384-6.656 1.28-9.472a31.04 31.04 0 0 1 3.328-7.168c1.28-1.92 2.816-3.456 4.352-4.48 1.536-1.024 2.944-1.536 4.352-1.536 2.944 0 4.48 1.408 4.48 4.096 0 1.152-.128 2.048-.256 2.56-.256.64-.384 1.152-.64 1.664a6.24 6.24 0 0 0-.512 1.408c-.256.512-.256 1.024-.256 1.792 0 2.432 1.792 3.584 5.632 3.584 1.664 0 3.2-.384 4.48-1.408 1.28-.896 1.92-2.816 1.92-5.632 0-1.28-.256-2.56-.64-3.84a11.123 11.123 0 0 0-2.048-3.328c-1.024-1.024-2.176-1.792-3.584-2.432a13.044 13.044 0 0 0-5.12-1.024c-2.816 0-5.12.512-7.04 1.536s-3.584 2.304-4.864 3.84c-1.408 1.536-2.432 3.072-3.2 4.608-.768 1.664-1.408 3.072-1.664 4.352h-.256v-12.928h-20.608v1.792h9.856v51.328zM356.81 254.208c0-5.12.256-9.344 1.024-12.8.64-3.456 1.664-6.272 3.072-8.448 1.408-2.176 3.2-3.712 5.376-4.736 2.048-.896 4.608-1.408 7.552-1.408 2.816 0 5.376.512 7.552 1.408 2.048 1.024 3.84 2.56 5.248 4.736 1.408 2.176 2.432 4.992 3.2 8.448.64 3.456 1.024 7.68 1.024 12.8 0 6.144-.512 10.88-1.408 14.464-1.024 3.584-2.176 6.4-3.712 8.32s-3.328 3.2-5.376 3.712c-2.048.64-4.224.896-6.528.896-2.304 0-4.48-.256-6.528-.896-2.048-.512-3.84-1.792-5.376-3.712-1.536-1.92-2.816-4.736-3.712-8.32-1.024-3.584-1.408-8.32-1.408-14.464zm-12.8 0c0 4.096.768 7.808 2.56 11.392 1.664 3.584 3.84 6.656 6.656 9.216 2.816 2.688 6.016 4.736 9.6 6.272 3.584 1.536 7.168 2.304 11.008 2.304 3.712 0 7.424-.768 11.008-2.304 3.584-1.536 6.656-3.584 9.472-6.272 2.816-2.56 4.992-5.632 6.784-9.216 1.664-3.584 2.56-7.296 2.56-11.392 0-4.096-1.024-8.064-2.816-11.648-1.792-3.584-4.224-6.656-7.04-9.216-2.816-2.56-6.016-4.608-9.6-6.144-3.584-1.408-7.04-2.176-10.368-2.176-3.456 0-6.912.768-10.496 2.176-3.584 1.536-6.784 3.584-9.6 6.144s-5.248 5.632-7.04 9.216c-1.792 3.584-2.688 7.552-2.688 11.648zM407.738 226.688v1.792h8.704l20.608 57.344 19.456-46.464 17.408 46.464 22.912-57.344h6.784v-1.792h-20.864v1.792h12.032l-16 39.68-14.848-39.68h8.576v-1.792h-25.472v1.792h5.376l3.2 8.32-13.312 31.616-14.336-39.936h10.624v-1.792zM506.2 279.808v1.792h30.72v-1.792h-9.856V250.88c0-3.328.512-6.528 1.536-9.472a23.63 23.63 0 0 1 4.48-7.552c1.792-2.048 3.968-3.712 6.528-4.992 2.432-1.152 4.992-1.792 7.808-1.792 3.328 0 5.76 1.152 7.296 3.2 1.536 2.176 2.432 4.864 2.432 8.192v41.344h-9.856v1.792h30.72v-1.792h-9.856v-37.376c0-5.888-1.792-10.24-5.376-13.056-3.584-2.688-8.064-4.096-13.696-4.096-3.712 0-6.784.64-9.344 1.792-2.56 1.152-4.736 2.56-6.4 4.096a23.447 23.447 0 0 0-4.096 4.992c-1.024 1.792-1.664 3.2-2.176 4.224h-.256v-13.696H506.2v1.792h9.856v51.328zM620.334 279.808v1.792h32.512v-1.792h-11.648V228.48h15.872v-1.792h-15.872v-17.792c0-6.4 1.28-11.264 3.84-14.336 2.56-3.072 5.504-4.608 9.088-4.608 1.536 0 3.2.384 4.736 1.024 1.536.64 2.304 1.92 2.304 3.712 0 1.536-.512 2.816-1.28 3.968a6.773 6.773 0 0 0-1.152 3.84c0 1.792.64 2.816 2.048 3.328s2.688.768 3.84.768c2.176 0 3.712-.64 4.736-2.048a7.76 7.76 0 0 0 1.408-4.48c0-1.024-.384-2.304-.896-3.712-.64-1.408-1.536-2.688-2.816-3.968-1.28-1.152-2.944-2.176-4.992-2.944-2.048-.768-4.352-1.28-7.168-1.28-3.84 0-7.296 1.152-10.624 3.2-3.328 2.048-6.144 4.48-8.32 7.296a16.263 16.263 0 0 0-2.304 3.456c-.768 1.28-1.28 2.688-1.792 4.352-.512 1.664-1.024 3.584-1.28 5.76-.256 2.176-.384 4.736-.384 7.68v6.784h-9.856v1.792h9.856v51.328zM676.81 254.208c0-5.12.256-9.344 1.024-12.8.64-3.456 1.664-6.272 3.072-8.448 1.408-2.176 3.2-3.712 5.376-4.736 2.048-.896 4.608-1.408 7.552-1.408 2.816 0 5.376.512 7.552 1.408 2.048 1.024 3.84 2.56 5.248 4.736 1.408 2.176 2.432 4.992 3.2 8.448.64 3.456 1.024 7.68 1.024 12.8 0 6.144-.512 10.88-1.408 14.464-1.024 3.584-2.176 6.4-3.712 8.32s-3.328 3.2-5.376 3.712c-2.048.64-4.224.896-6.528.896-2.304 0-4.48-.256-6.528-.896-2.048-.512-3.84-1.792-5.376-3.712-1.536-1.92-2.816-4.736-3.712-8.32-1.024-3.584-1.408-8.32-1.408-14.464zm-12.8 0c0 4.096.768 7.808 2.56 11.392 1.664 3.584 3.84 6.656 6.656 9.216 2.816 2.688 6.016 4.736 9.6 6.272 3.584 1.536 7.168 2.304 11.008 2.304 3.712 0 7.424-.768 11.008-2.304 3.584-1.536 6.656-3.584 9.472-6.272 2.816-2.56 4.992-5.632 6.784-9.216 1.664-3.584 2.56-7.296 2.56-11.392 0-4.096-1.024-8.064-2.816-11.648-1.792-3.584-4.224-6.656-7.04-9.216-2.816-2.56-6.016-4.608-9.6-6.144-3.584-1.408-7.04-2.176-10.368-2.176-3.456 0-6.912.768-10.496 2.176-3.584 1.536-6.784 3.584-9.6 6.144s-5.248 5.632-7.04 9.216c-1.792 3.584-2.688 7.552-2.688 11.648zM730.17 279.808v1.792h18.816v-1.792h-9.472l16.128-21.76 14.976 21.76h-10.112v1.792h29.952v-1.792h-7.04l-20.864-30.336 15.232-20.992h6.784v-1.792h-18.816v1.792h9.472l-13.824 19.2-13.184-19.2h10.112v-1.792h-30.08v1.792h7.168l19.072 27.776-17.536 23.552zM193.154 337.664c0 1.92.64 3.584 1.92 4.864 1.28 1.28 2.944 1.92 4.864 1.92 1.792 0 3.456-.64 4.736-1.92 1.28-1.28 2.048-2.944 2.048-4.864 0-1.792-.768-3.456-2.048-4.736-1.28-1.28-2.944-2.048-4.736-2.048-1.92 0-3.584.768-4.864 2.048-1.28 1.28-1.92 2.944-1.92 4.736zm-8.32 29.824v1.792h9.856v75.264c0 4.48-.768 7.68-2.048 9.728s-3.2 2.944-5.632 2.944c-1.408 0-2.688-.384-3.712-1.152-1.152-.768-1.664-2.048-1.664-3.84 0-1.408.128-2.56.384-3.584.256-.896.512-1.92.512-2.944 0-1.28-.384-2.432-1.152-3.2-.768-.768-1.92-1.28-3.456-1.28-1.664 0-3.072.512-4.096 1.536-1.152 1.024-1.664 2.56-1.664 4.608 0 2.048.384 3.712 1.408 5.248s2.176 2.688 3.584 3.584c1.408 1.024 2.944 1.664 4.608 2.176 1.536.512 3.072.64 4.48.64 1.152 0 2.432-.128 3.968-.384 1.408-.256 2.816-.896 4.224-1.664 1.408-.768 2.816-1.92 4.096-3.328 1.28-1.28 2.56-3.072 3.584-5.12.384-.768.768-1.664 1.28-2.688.384-1.024.768-2.304 1.152-4.096.256-1.664.512-3.84.768-6.528.256-2.688.384-6.144.384-10.24v-57.472zM292.082 422.4v-1.792h-9.856v-53.12H261.49v1.792h9.728v29.696c0 3.584-.64 6.912-1.664 9.728-1.152 2.816-2.56 5.248-4.224 7.296-1.664 2.048-3.456 3.712-5.504 4.736-2.048 1.152-3.968 1.664-5.76 1.664-2.304 0-4.096-.384-5.376-1.152a8.328 8.328 0 0 1-3.328-3.328c-.896-1.408-1.536-3.072-1.792-4.992-.256-1.792-.384-3.84-.384-6.144v-39.296h-20.864v1.792h9.856v36.352c0 2.56.128 4.736.64 6.528.384 1.792.896 3.2 1.536 4.224.512 1.152 1.152 2.048 1.92 2.688.768.64 1.408 1.152 2.048 1.536 1.152.896 2.816 1.664 4.992 2.432 2.048.768 4.864 1.152 8.32 1.152 2.816 0 5.248-.384 7.296-1.28s3.968-2.048 5.504-3.456c1.536-1.408 2.944-2.944 3.968-4.736 1.024-1.792 2.048-3.456 2.816-5.248h.256V422.4zM297.81 420.608v1.792h30.72v-1.792h-9.856v-28.416c0-4.352.512-8.192 1.792-11.264 1.28-3.072 2.816-5.504 4.608-7.424 1.792-1.92 3.84-3.328 6.016-4.224 2.048-.896 4.096-1.408 5.888-1.408 2.56 0 4.608.896 6.144 2.688 1.536 1.792 2.304 4.608 2.304 8.32v41.728h-9.856v1.792h30.72v-1.792h-9.856v-32.64c0-3.328.512-6.4 1.536-8.96 1.024-2.56 2.432-4.608 4.224-6.272 1.664-1.536 3.584-2.816 5.76-3.584 2.048-.768 4.224-1.28 6.4-1.28 2.688 0 4.864.896 6.4 2.432 1.536 1.664 2.432 3.968 2.432 6.784v43.52h-9.856v1.792h30.72v-1.792h-9.856v-35.456c0-12.672-6.272-19.072-18.688-19.072-2.688 0-5.12.384-7.168 1.024-2.048.768-3.84 1.664-5.376 2.816-1.536 1.152-2.816 2.432-3.84 3.84-1.024 1.536-1.92 2.944-2.432 4.48h-.256c-1.024-4.352-3.2-7.424-6.528-9.344-3.328-1.792-7.04-2.816-11.264-2.816-4.864 0-8.96 1.28-12.288 3.584-3.328 2.432-5.888 6.144-7.68 11.264h-.256v-13.44H297.81v1.792h9.856v51.328zM462.948 393.088c0 4.48-.128 8.576-.384 12.16-.256 3.584-.896 6.656-1.92 9.216-1.024 2.56-2.56 4.608-4.608 5.888-2.048 1.408-4.864 2.048-8.32 2.048-3.584 0-6.528-.768-8.704-2.304-2.176-1.536-3.84-3.456-4.992-5.888-1.28-2.432-2.048-5.12-2.432-8.192-.512-2.944-.64-5.888-.64-8.704 0-3.328 0-6.144.128-8.576.128-2.432.384-4.608.768-6.528.256-1.792.768-3.456 1.28-4.864.512-1.28 1.28-2.56 2.304-3.84 1.28-1.664 2.944-3.072 4.992-4.224 2.048-1.024 4.608-1.664 7.808-1.664 2.944 0 5.376.64 7.296 1.792 1.92 1.28 3.456 2.944 4.48 5.12 1.024 2.304 1.792 4.992 2.304 8.064.384 3.072.64 6.656.64 10.496zm-52.864 63.36v1.792h30.72v-1.792h-9.856v-44.672h.256c.256.896.64 2.048 1.408 3.456.64 1.408 1.664 2.816 2.944 4.096 1.28 1.28 2.816 2.432 4.864 3.456s4.48 1.408 7.424 1.408c3.712 0 7.296-.768 10.624-2.432 3.328-1.536 6.4-3.712 8.96-6.528 2.56-2.688 4.48-5.76 6.016-9.344 1.536-3.584 2.304-7.296 2.304-11.264 0-3.84-.768-7.424-2.176-11.008-1.536-3.456-3.456-6.528-5.888-9.088-2.56-2.56-5.376-4.736-8.576-6.272-3.328-1.536-6.784-2.432-10.368-2.432-4.736 0-8.576 1.28-11.52 3.584-2.944 2.304-4.992 5.248-6.272 8.832h-.256v-10.752h-20.608v1.792h9.856v87.168zM489.668 404.48v17.92h1.408c.256-.384.512-.768 1.024-1.152.384-.384 1.024-.64 2.048-.64.896 0 1.92.256 3.072.64 1.024.384 2.304.768 3.584 1.152 1.28.512 2.816.896 4.352 1.28 1.536.384 3.328.512 5.248.512 3.2 0 6.016-.512 8.576-1.536 2.56-1.024 4.608-2.304 6.4-3.968 1.792-1.664 3.072-3.584 3.968-5.888.896-2.176 1.408-4.48 1.408-6.784 0-3.84-1.28-7.04-3.84-9.472-2.56-2.304-5.888-4.224-9.856-5.632l-9.344-3.072c-3.84-1.152-6.656-2.432-8.576-3.84-1.92-1.408-2.816-3.456-2.816-6.272 0-3.072 1.024-5.504 3.328-7.296 2.304-1.792 5.504-2.816 9.6-2.816 2.048 0 3.968.384 5.504 1.152a12.164 12.164 0 0 1 3.968 3.2c1.024 1.408 2.048 2.944 2.816 4.736.768 1.792 1.408 3.584 2.048 5.376h1.408v-14.592h-1.408c-.512.768-1.152 1.024-2.048 1.024-1.024 0-1.792-.128-2.432-.384-.768-.256-1.536-.64-2.304-.896-.896-.256-1.92-.64-3.072-.896a20.577 20.577 0 0 0-4.48-.512c-2.688 0-5.12.512-7.424 1.28-2.304.896-4.224 2.048-5.76 3.584a15.943 15.943 0 0 0-3.84 5.376c-1.024 2.048-1.408 4.352-1.408 6.656 0 2.816.384 5.12 1.152 6.912a12.948 12.948 0 0 0 3.2 4.48c1.28 1.152 2.56 2.048 4.096 2.688a43.88 43.88 0 0 0 4.224 1.536l9.984 3.456c2.176.768 4.096 1.92 5.76 3.2 1.664 1.28 2.56 3.584 2.56 6.784 0 3.84-1.152 6.528-3.2 8.192-2.176 1.664-4.608 2.432-7.296 2.432-3.328 0-6.016-.512-8.32-1.664-2.304-1.024-4.352-2.432-5.888-4.224-1.536-1.792-2.816-3.712-3.712-5.76a31.044 31.044 0 0 1-2.304-6.272zM591.06 395.008c0-5.12.256-9.344 1.024-12.8.64-3.456 1.664-6.272 3.072-8.448 1.408-2.176 3.2-3.712 5.376-4.736 2.048-.896 4.608-1.408 7.552-1.408 2.816 0 5.376.512 7.552 1.408 2.048 1.024 3.84 2.56 5.248 4.736 1.408 2.176 2.432 4.992 3.2 8.448.64 3.456 1.024 7.68 1.024 12.8 0 6.144-.512 10.88-1.408 14.464-1.024 3.584-2.176 6.4-3.712 8.32s-3.328 3.2-5.376 3.712c-2.048.64-4.224.896-6.528.896-2.304 0-4.48-.256-6.528-.896-2.048-.512-3.84-1.792-5.376-3.712-1.536-1.92-2.816-4.736-3.712-8.32-1.024-3.584-1.408-8.32-1.408-14.464zm-12.8 0c0 4.096.768 7.808 2.56 11.392 1.664 3.584 3.84 6.656 6.656 9.216 2.816 2.688 6.016 4.736 9.6 6.272 3.584 1.536 7.168 2.304 11.008 2.304 3.712 0 7.424-.768 11.008-2.304 3.584-1.536 6.656-3.584 9.472-6.272 2.816-2.56 4.992-5.632 6.784-9.216 1.664-3.584 2.56-7.296 2.56-11.392 0-4.096-1.024-8.064-2.816-11.648-1.792-3.584-4.224-6.656-7.04-9.216-2.816-2.56-6.016-4.608-9.6-6.144-3.584-1.408-7.04-2.176-10.368-2.176-3.456 0-6.912.768-10.496 2.176-3.584 1.536-6.784 3.584-9.6 6.144s-5.248 5.632-7.04 9.216c-1.792 3.584-2.688 7.552-2.688 11.648zM640.196 367.488v1.792h8.704l23.296 57.344 24.192-57.344h6.912v-1.792h-19.456v1.792h10.496l-17.152 40.192-16.512-40.192h10.496v-1.792zM747.806 388.864h-26.24c.128-2.816.512-5.504 1.024-8.064.512-2.56 1.408-4.736 2.56-6.784 1.024-1.92 2.56-3.456 4.48-4.608 1.792-1.152 4.224-1.792 7.168-1.792 1.536 0 3.072.256 4.48.768 1.408.512 2.56 1.28 3.584 2.304 1.024 1.152 1.792 2.688 2.304 4.48.512 1.92.896 4.352.896 7.168v3.2c0 1.024-.128 2.176-.256 3.328zm-26.368 1.792h39.424c0-4.608-.896-8.576-2.432-11.776-1.536-3.072-3.584-5.632-5.888-7.552a23.283 23.283 0 0 0-7.552-4.224c-2.816-.768-5.376-1.28-7.68-1.28-4.096 0-7.808.896-11.264 2.56-3.584 1.664-6.656 3.84-9.216 6.528-2.56 2.816-4.608 5.888-6.144 9.472-1.536 3.584-2.176 7.168-2.176 10.88 0 4.352.64 8.32 2.176 11.904 1.408 3.584 3.456 6.528 6.144 9.088a25.264 25.264 0 0 0 9.344 5.888c3.584 1.408 7.552 2.048 11.904 2.048 4.224 0 7.68-.64 10.368-1.92 2.688-1.28 4.864-2.816 6.4-4.608 1.536-1.792 2.688-3.456 3.456-5.248.768-1.792 1.28-3.072 1.536-4.096l-1.92-.384c-.384 1.024-.896 2.432-1.536 3.968-.768 1.664-1.792 3.328-3.2 4.864-1.408 1.536-3.328 2.944-5.76 3.968-2.432 1.152-5.504 1.664-9.216 1.664-3.84 0-6.784-.768-9.088-2.432-2.304-1.536-3.968-3.584-5.12-6.144-1.152-2.432-1.92-5.248-2.176-8.32-.384-3.072-.512-6.016-.512-8.832v-3.328c0-.896.128-1.792.128-2.688zM770.206 420.608v1.792h32v-1.792H791.07v-29.312c0-3.584.384-6.656 1.28-9.472a31.04 31.04 0 0 1 3.328-7.168c1.28-1.92 2.816-3.456 4.352-4.48 1.536-1.024 2.944-1.536 4.352-1.536 2.944 0 4.48 1.408 4.48 4.096 0 1.152-.128 2.048-.256 2.56-.256.64-.384 1.152-.64 1.664a6.24 6.24 0 0 0-.512 1.408c-.256.512-.256 1.024-.256 1.792 0 2.432 1.792 3.584 5.632 3.584 1.664 0 3.2-.384 4.48-1.408 1.28-.896 1.92-2.816 1.92-5.632 0-1.28-.256-2.56-.64-3.84a11.123 11.123 0 0 0-2.048-3.328c-1.024-1.024-2.176-1.792-3.584-2.432a13.044 13.044 0 0 0-5.12-1.024c-2.816 0-5.12.512-7.04 1.536s-3.584 2.304-4.864 3.84c-1.408 1.536-2.432 3.072-3.2 4.608-.768 1.664-1.408 3.072-1.664 4.352h-.256v-12.928h-20.608v1.792h9.856v51.328zM143.426 508.288v1.792h9.856v40.704c0 4.608 1.152 8.064 3.712 10.496 2.56 2.56 7.04 3.712 13.44 3.712 2.56 0 4.608-.384 6.4-1.152 1.664-.768 3.072-1.792 4.096-3.072s1.92-2.56 2.432-3.968a24.38 24.38 0 0 0 1.152-3.712l-1.792-.64c-.512 2.816-1.792 5.376-3.584 7.552-1.792 2.176-4.224 3.2-7.168 3.2a9.744 9.744 0 0 1-2.688-.384c-.896-.256-1.664-.768-2.432-1.536s-1.408-1.92-1.92-3.456-.64-3.456-.64-5.888V510.08h18.176v-1.792H164.29v-17.536c-.896.768-1.792 1.28-2.688 1.536-1.024.256-2.048.384-3.328.384-1.536 0-2.56 0-3.072-.256-.64-.128-1.28-.384-1.92-.64v16.512zM187.2 561.408v1.792h30.72v-1.792h-9.856V532.48c0-3.328.512-6.528 1.536-9.472a23.63 23.63 0 0 1 4.48-7.552c1.792-2.048 3.968-3.712 6.528-4.992 2.432-1.152 4.992-1.792 7.808-1.792 3.328 0 5.76 1.152 7.296 3.2 1.536 2.176 2.432 4.864 2.432 8.192v41.344h-9.856v1.792h30.72v-1.792h-9.856v-37.376c0-5.888-1.792-10.24-5.376-13.056-3.584-2.688-8.064-4.096-13.696-4.096-3.584 0-6.528.64-9.088 1.664-2.56 1.024-4.608 2.304-6.4 3.84-1.792 1.536-3.072 3.072-4.096 4.736-1.024 1.664-1.792 3.072-2.176 4.096h-.256v-50.304H187.2v1.792h9.856v88.704zM307.306 529.664h-26.24c.128-2.816.512-5.504 1.024-8.064.512-2.56 1.408-4.736 2.56-6.784 1.024-1.92 2.56-3.456 4.48-4.608 1.792-1.152 4.224-1.792 7.168-1.792 1.536 0 3.072.256 4.48.768 1.408.512 2.56 1.28 3.584 2.304 1.024 1.152 1.792 2.688 2.304 4.48.512 1.92.896 4.352.896 7.168v3.2c0 1.024-.128 2.176-.256 3.328zm-26.368 1.792h39.424c0-4.608-.896-8.576-2.432-11.776-1.536-3.072-3.584-5.632-5.888-7.552a23.283 23.283 0 0 0-7.552-4.224c-2.816-.768-5.376-1.28-7.68-1.28-4.096 0-7.808.896-11.264 2.56-3.584 1.664-6.656 3.84-9.216 6.528-2.56 2.816-4.608 5.888-6.144 9.472-1.536 3.584-2.176 7.168-2.176 10.88 0 4.352.64 8.32 2.176 11.904 1.408 3.584 3.456 6.528 6.144 9.088a25.264 25.264 0 0 0 9.344 5.888c3.584 1.408 7.552 2.048 11.904 2.048 4.224 0 7.68-.64 10.368-1.92 2.688-1.28 4.864-2.816 6.4-4.608 1.536-1.792 2.688-3.456 3.456-5.248.768-1.792 1.28-3.072 1.536-4.096l-1.92-.384c-.384 1.024-.896 2.432-1.536 3.968-.768 1.664-1.792 3.328-3.2 4.864-1.408 1.536-3.328 2.944-5.76 3.968-2.432 1.152-5.504 1.664-9.216 1.664-3.84 0-6.784-.768-9.088-2.432-2.304-1.536-3.968-3.584-5.12-6.144-1.152-2.432-1.92-5.248-2.176-8.32-.384-3.072-.512-6.016-.512-8.832v-3.328c0-.896.128-1.792.128-2.688zM365.334 561.408v1.792h30.72v-1.792h-9.856v-90.496h-20.864v1.792h9.856v88.704zM438.534 531.84v12.8c0 1.792-.256 3.712-.512 5.76-.256 2.048-.896 3.968-1.792 5.76-.896 1.792-2.176 3.328-3.968 4.48-1.792 1.28-3.968 1.792-6.784 1.792-2.048 0-3.584-.256-4.864-1.024a6.878 6.878 0 0 1-2.816-2.56c-.768-1.024-1.152-2.304-1.408-3.712a20.837 20.837 0 0 1-.384-3.968c0-2.944.64-5.376 2.176-7.424 1.408-2.048 3.456-3.584 6.272-4.736l9.6-3.84c2.56-1.024 3.968-2.176 4.224-3.328zm22.4 29.952l-1.024-1.408c-1.024.768-1.92 1.28-2.944 1.536a8.4 8.4 0 0 1-2.944.512c-1.536 0-2.56-.384-3.328-1.28-.768-.768-1.152-2.432-1.152-4.992v-31.872c0-2.304-.384-4.48-1.024-6.528a17.174 17.174 0 0 0-3.456-5.632c-1.664-1.664-3.84-2.944-6.4-3.968-2.688-1.024-6.016-1.536-9.856-1.536-3.328 0-6.144.384-8.704 1.152a19.237 19.237 0 0 0-6.272 3.2c-1.664 1.28-2.944 2.816-3.712 4.48a11.834 11.834 0 0 0-1.28 5.376c0 1.664.256 2.944 1.024 3.968.64 1.024 2.432 1.536 5.248 1.536 1.536 0 2.816-.384 3.712-1.152.768-.768 1.28-1.792 1.28-3.072 0-.64-.128-1.664-.384-3.072a23.938 23.938 0 0 1-.384-4.352c0-2.176.896-3.712 2.688-4.736 1.792-1.024 4.224-1.536 7.04-1.536 2.048 0 3.84.384 5.12.896 1.28.64 2.176 1.536 2.944 2.688a12.885 12.885 0 0 1 1.408 4.096c.256 1.664.384 3.456.384 5.504 0 2.56-.256 4.608-.64 6.144-.384 1.536-1.024 2.688-2.048 3.712s-2.56 1.792-4.352 2.432c-1.792.768-4.096 1.536-6.912 2.432-2.432.768-4.864 1.536-7.168 2.176-2.304.768-4.48 1.664-6.4 2.688-1.92 1.024-3.456 2.432-4.608 4.224-1.28 1.792-1.792 4.224-1.792 7.168 0 1.28.128 2.688.512 4.224s1.152 2.816 2.432 3.968c1.152 1.28 2.816 2.304 4.992 3.072 2.048.768 4.992 1.152 8.576 1.152 3.072 0 5.76-.256 7.808-1.024s3.584-1.664 4.864-2.688a11.165 11.165 0 0 0 2.816-3.328 70.114 70.114 0 0 1 1.408-2.944h.256c.64 3.2 1.92 5.632 3.712 7.424 1.792 1.792 4.864 2.56 8.96 2.56 2.176 0 4.096-.256 5.632-.896a17.002 17.002 0 0 0 3.968-2.304zM470.466 508.288l-1.792 14.336h1.024c1.28-3.072 2.432-5.504 3.584-7.296 1.024-1.664 2.304-2.944 3.584-3.712 1.28-.768 2.688-1.152 4.224-1.28a67.065 67.065 0 0 1 5.632-.256h11.008l-31.872 53.12h44.544l1.664-16.64h-1.024c-.512 1.536-1.152 3.2-1.664 4.864-.512 1.792-1.28 3.328-2.304 4.864-1.024 1.536-2.304 2.688-3.84 3.712s-3.584 1.408-6.016 1.408H479.17l31.872-53.12zM515.11 508.288v1.792h8.832l22.144 54.784-5.632 14.336a299.648 299.648 0 0 1-3.712 8.704c-1.152 2.304-2.304 4.224-3.328 5.632-1.152 1.536-2.304 2.56-3.456 3.2-1.152.64-2.432.896-3.712.896-1.024 0-1.92-.128-2.432-.512-.64-.256-.896-1.024-.896-2.176 0-1.28.256-2.432 1.024-3.456a5.616 5.616 0 0 0 1.152-3.456c0-.768-.256-1.536-.64-2.176-.512-.512-1.024-1.024-1.536-1.408-.64-.256-1.28-.512-1.92-.64-.768-.128-1.408-.256-1.92-.256-1.792 0-3.2.64-4.352 1.664-1.28 1.024-1.792 2.688-1.792 4.736 0 .768.128 1.792.384 2.816.256 1.152.768 2.176 1.664 3.2.768 1.024 1.92 1.92 3.456 2.688 1.536.768 3.456 1.152 6.016 1.152 2.048 0 3.84-.256 5.376-1.024 1.536-.768 2.944-1.792 4.224-3.328 1.28-1.408 2.56-3.328 3.84-5.632 1.152-2.304 2.304-4.992 3.584-8.064 1.408-3.712 2.816-7.424 4.352-11.136a204.708 204.708 0 0 1 4.608-11.136l21.12-49.408h6.912v-1.792h-19.584v1.792h10.624l-17.28 40.192-16.512-40.192h10.752v-1.792zM632.206 533.888c0-3.84.128-7.424.64-10.496.384-3.072 1.152-5.76 2.176-8.064 1.024-2.176 2.56-3.84 4.48-5.12 1.92-1.152 4.352-1.792 7.424-1.792s5.76.64 7.808 1.664c2.048 1.152 3.712 2.56 4.992 4.224.768 1.28 1.536 2.56 2.176 3.84a37.158 37.158 0 0 1 1.408 4.864c.256 1.92.512 4.096.64 6.528.128 2.432.256 5.248.256 8.576 0 2.816-.256 5.76-.64 8.704-.512 3.072-1.28 5.76-2.432 8.192-1.28 2.432-2.944 4.352-5.12 5.888-2.176 1.536-4.992 2.304-8.576 2.304-3.584 0-6.272-.64-8.32-2.048-2.048-1.28-3.584-3.328-4.608-5.888-1.024-2.56-1.664-5.632-1.92-9.216-.256-3.584-.384-7.68-.384-12.16zm22.144-62.976v1.792h9.856v45.824h-.256c-1.28-3.328-3.328-6.144-6.144-8.448-2.944-2.304-6.784-3.456-11.392-3.456-3.712 0-7.168.896-10.368 2.432-3.328 1.536-6.144 3.712-8.576 6.272-2.56 2.56-4.48 5.632-5.888 9.088-1.536 3.584-2.176 7.168-2.176 11.008 0 3.968.64 7.68 2.176 11.264 1.536 3.584 3.584 6.656 6.144 9.344 2.56 2.816 5.504 4.992 8.832 6.528 3.328 1.664 6.912 2.432 10.752 2.432 2.816 0 5.248-.384 7.296-1.408s3.712-2.176 4.992-3.584a16.207 16.207 0 0 0 3.072-4.224 59.543 59.543 0 0 0 1.536-3.712h.256V563.2h20.608v-1.792h-9.856v-90.496zM707.31 535.808c0-5.12.256-9.344 1.024-12.8.64-3.456 1.664-6.272 3.072-8.448 1.408-2.176 3.2-3.712 5.376-4.736 2.048-.896 4.608-1.408 7.552-1.408 2.816 0 5.376.512 7.552 1.408 2.048 1.024 3.84 2.56 5.248 4.736 1.408 2.176 2.432 4.992 3.2 8.448.64 3.456 1.024 7.68 1.024 12.8 0 6.144-.512 10.88-1.408 14.464-1.024 3.584-2.176 6.4-3.712 8.32s-3.328 3.2-5.376 3.712c-2.048.64-4.224.896-6.528.896-2.304 0-4.48-.256-6.528-.896-2.048-.512-3.84-1.792-5.376-3.712-1.536-1.92-2.816-4.736-3.712-8.32-1.024-3.584-1.408-8.32-1.408-14.464zm-12.8 0c0 4.096.768 7.808 2.56 11.392 1.664 3.584 3.84 6.656 6.656 9.216 2.816 2.688 6.016 4.736 9.6 6.272 3.584 1.536 7.168 2.304 11.008 2.304 3.712 0 7.424-.768 11.008-2.304 3.584-1.536 6.656-3.584 9.472-6.272 2.816-2.56 4.992-5.632 6.784-9.216 1.664-3.584 2.56-7.296 2.56-11.392 0-4.096-1.024-8.064-2.816-11.648-1.792-3.584-4.224-6.656-7.04-9.216-2.816-2.56-6.016-4.608-9.6-6.144-3.584-1.408-7.04-2.176-10.368-2.176-3.456 0-6.912.768-10.496 2.176-3.584 1.536-6.784 3.584-9.6 6.144s-5.248 5.632-7.04 9.216c-1.792 3.584-2.688 7.552-2.688 11.648zM784.832 567.04h13.824c4.48 0 8.064 1.024 10.624 3.072 2.56 2.048 3.968 5.376 3.968 10.112 0 2.304-.512 4.352-1.536 6.4s-2.432 3.968-4.224 5.504c-1.792 1.536-3.968 2.816-6.528 3.712-2.56 1.024-5.248 1.408-8.32 1.408-2.048 0-3.968-.256-6.016-.768s-3.968-1.28-5.632-2.56c-1.664-1.28-3.072-2.816-4.096-4.864s-1.536-4.608-1.536-7.68c0-2.176.256-3.968.768-5.504.512-1.536 1.28-2.816 2.176-3.968a15.443 15.443 0 0 1 3.072-2.688c1.152-.768 2.304-1.408 3.456-2.176zm20.736-41.6c0 5.632-1.024 9.856-2.816 12.672-1.92 2.816-5.12 4.096-9.472 4.096-2.688 0-4.864-.384-6.528-1.152-1.792-.768-3.072-1.792-4.096-3.328a14.41 14.41 0 0 1-2.176-5.376c-.384-2.048-.512-4.352-.512-6.912 0-6.016 1.024-10.368 3.328-13.056 2.176-2.56 5.504-3.968 9.856-3.968 2.816 0 4.992.512 6.656 1.536 1.664 1.024 2.944 2.432 3.712 4.096.768 1.664 1.408 3.456 1.664 5.504.256 2.048.384 3.968.384 5.888zm-39.936 29.44c0 4.48 1.28 7.68 3.968 9.472 2.688 1.792 6.912 2.688 12.544 2.688v.256c-1.792.768-3.584 1.536-5.376 2.56a23.285 23.285 0 0 0-4.864 3.712c-1.408 1.408-2.56 3.072-3.456 4.864-.896 1.792-1.28 3.84-1.28 6.016 0 2.304.512 4.48 1.664 6.272 1.152 1.92 2.816 3.584 4.864 4.864 2.048 1.28 4.352 2.304 7.168 3.072 2.816.768 5.888 1.152 9.216 1.152 3.584 0 7.168-.512 10.752-1.792 3.456-1.28 6.528-2.944 9.216-5.248a28.29 28.29 0 0 0 6.528-8.064c1.536-3.072 2.432-6.4 2.432-10.24 0-6.144-1.792-10.624-5.376-13.44-3.584-2.816-8.32-4.352-14.208-4.352H779.2c-1.152 0-2.176 0-3.2-.256-1.024-.128-2.048-.384-2.816-.896-.768-.384-1.408-1.024-1.92-1.92-.512-.768-.768-1.92-.768-3.2 0-1.28.256-2.56.896-3.584.512-1.024 1.28-2.048 2.176-2.816.896-.768 1.92-1.408 2.944-1.92s2.048-.896 3.072-1.408c1.152.64 2.816 1.408 5.12 2.176 2.176.768 4.736 1.152 7.808 1.152 2.816 0 5.632-.384 8.448-1.28 2.816-.896 5.248-2.176 7.296-3.84 2.048-1.536 3.84-3.456 5.12-5.632 1.28-2.048 1.92-4.48 1.92-7.04 0-3.072-.64-5.632-1.792-7.68-1.28-2.048-2.176-3.456-2.944-4.352.64-.896 1.408-1.664 2.304-2.432.896-.768 1.792-1.152 2.688-1.152.768 0 1.408.384 1.92 1.024.384.768.768 1.408 1.152 2.176.384.768.896 1.536 1.408 2.176.512.768 1.28 1.024 2.56 1.024 1.024 0 1.92-.384 2.944-1.152 1.024-.768 1.536-1.92 1.536-3.456 0-2.304-.768-3.84-2.176-4.608-1.536-.768-3.072-1.152-4.736-1.152-2.816 0-5.12.768-6.912 2.048-1.792 1.408-3.2 2.944-4.096 4.48-1.28-1.28-3.328-2.688-6.144-4.224-2.816-1.536-6.016-2.304-9.856-2.304-2.56 0-5.12.512-7.808 1.28-2.688.896-5.12 2.176-7.296 3.84-2.304 1.664-4.096 3.712-5.504 6.016-1.536 2.432-2.176 5.12-2.176 8.064 0 5.888 2.432 10.496 7.424 13.824a53.494 53.494 0 0 0-3.84 1.92c-1.408.768-2.688 1.792-3.968 3.072-1.28 1.28-2.304 2.688-3.072 4.352-.896 1.664-1.28 3.584-1.28 5.888zM834.258 557.824c0 1.92.64 3.584 1.92 4.864 1.28 1.28 2.944 1.92 4.864 1.92 1.792 0 3.456-.64 4.736-1.92 1.28-1.28 2.048-2.944 2.048-4.864 0-1.792-.768-3.456-2.048-4.736-1.28-1.28-2.944-2.048-4.736-2.048-1.92 0-3.584.768-4.864 2.048-1.28 1.28-1.92 2.944-1.92 4.736z"/></g></svg>