<svg xmlns="http://www.w3.org/2000/svg" viewBox="0 0 1600 1000" height="1000" width="1600"><path fill="#fff" d="M0 0h1600v1000H0z"/><g font-weight="400" font-size="200" font-family="Didot" letter-spacing="-.03em" text-anchor="middle" fill="#222"><path d="M406.755 217.2v2.8h64.4v-2.8h-22.2V80.4h11.6c2.6 0 5.6.4 9 .8 3.2.4 6.6 1.8 10 3.8 3.4 2.2 6.6 5.6 9.8 10.2 3.2 4.6 5.8 11 8.2 19h2.2V77.6h-121.6v36.6h2.2c2.2-8 4.8-14.4 8-19s6.4-8 9.8-10.2c3.4-2 6.8-3.4 10.2-3.8 3.2-.4 6.2-.8 9-.8h11.6v136.8zM506.273 217.2v2.8h48v-2.8h-15.4V172c0-5.2.8-10.2 2.4-14.8 1.6-4.4 4-8.4 7-11.8 2.8-3.2 6.2-5.8 10.2-7.8 3.8-1.8 7.8-2.8 12.2-2.8 5.2 0 9 1.8 11.4 5 2.4 3.4 3.8 7.6 3.8 12.8v64.6h-15.4v2.8h48v-2.8h-15.4v-58.4c0-9.2-2.8-16-8.4-20.4-5.6-4.2-12.6-6.4-21.4-6.4-5.6 0-10.2 1-14.2 2.6s-7.2 3.6-10 6-4.8 4.8-6.4 7.4c-1.6 2.6-2.8 4.8-3.4 6.4h-.4V75.8h-32.6v2.8h15.4v138.6zM687.94 167.6h-41c.2-4.4.8-8.6 1.6-12.6s2.2-7.4 4-10.6c1.6-3 4-5.4 7-7.2 2.8-1.8 6.6-2.8 11.2-2.8 2.4 0 4.8.4 7 1.2 2.2.8 4 2 5.6 3.6 1.6 1.8 2.8 4.2 3.6 7 .8 3 1.4 6.8 1.4 11.2v5c0 1.6-.2 3.4-.4 5.2zm-41.2 2.8h61.6c0-7.2-1.4-13.4-3.8-18.4-2.4-4.8-5.6-8.8-9.2-11.8-3.6-3-7.6-5.2-11.8-6.6-4.4-1.2-8.4-2-12-2-6.4 0-12.2 1.4-17.6 4-5.6 2.6-10.4 6-14.4 10.2-4 4.4-7.2 9.2-9.6 14.8-2.4 5.6-3.4 11.2-3.4 17 0 6.8 1 13 3.4 18.6 2.2 5.6 5.4 10.2 9.6 14.2 4 4 9 7.2 14.6 9.2 5.6 2.2 11.8 3.2 18.6 3.2 6.6 0 12-1 16.2-3 4.2-2 7.6-4.4 10-7.2 2.4-2.8 4.2-5.4 5.4-8.2 1.2-2.8 2-4.8 2.4-6.4l-3-.6c-.6 1.6-1.4 3.8-2.4 6.2-1.2 2.6-2.8 5.2-5 7.6-2.2 2.4-5.2 4.6-9 6.2-3.8 1.8-8.6 2.6-14.4 2.6-6 0-10.6-1.2-14.2-3.8-3.6-2.4-6.2-5.6-8-9.6-1.8-3.8-3-8.2-3.4-13-.6-4.8-.8-9.4-.8-13.8v-5.2c0-1.4.2-2.8.2-4.2zM791.408 174.2c0-6 .2-11.6 1-16.4.6-4.8 1.8-9 3.4-12.6 1.6-3.4 4-6 7-8 3-1.8 6.8-2.8 11.6-2.8s9 1 12.2 2.6c3.2 1.8 5.8 4 7.8 6.6 1.2 2 2.4 4 3.4 6 .8 2.2 1.6 4.8 2.2 7.6.4 3 .8 6.4 1 10.2.2 3.8.4 8.2.4 13.4 0 4.4-.4 9-1 13.6-.8 4.8-2 9-3.8 12.8-2 3.8-4.6 6.8-8 9.2-3.4 2.4-7.8 3.6-13.4 3.6-5.6 0-9.8-1-13-3.2-3.2-2-5.6-5.2-7.2-9.2-1.6-4-2.6-8.8-3-14.4-.4-5.6-.6-12-.6-19zm34.6 99v2.8h48v-2.8h-15.4V137h15.4v-2.8h-32.2V151h-.4c-2-5.6-5.4-10.4-10-14-4.6-3.6-10.6-5.4-17.8-5.4-5.8 0-11.2 1.4-16.2 3.8-5.2 2.4-9.6 5.8-13.4 9.8-4 4-7 8.8-9.2 14.2-2.4 5.6-3.4 11.2-3.4 17.2 0 6.2 1 12 3.4 17.6 2.4 5.6 5.6 10.4 9.6 14.6 4 4.4 8.6 7.8 13.8 10.2 5.2 2.6 10.8 3.8 16.8 3.8 4.4 0 8.2-.6 11.4-2.2 3.2-1.6 5.8-3.4 7.8-5.4 2-2 3.4-4.2 4.6-6.4 1-2.2 1.8-4 2.2-5.4h.4v69.8zM987.558 220v-2.8h-15.4v-83h-32.4v2.8h15.2v46.4c0 5.6-1 10.8-2.6 15.2-1.8 4.4-4 8.2-6.6 11.4-2.6 3.2-5.4 5.8-8.6 7.4-3.2 1.8-6.2 2.6-9 2.6-3.6 0-6.4-.6-8.4-1.8-2.2-1.2-4-3-5.2-5.2-1.4-2.2-2.4-4.8-2.8-7.8-.4-2.8-.6-6-.6-9.6v-61.4h-32.6v2.8h15.4v56.8c0 4 .2 7.4 1 10.2.6 2.8 1.4 5 2.4 6.6.8 1.8 1.8 3.2 3 4.2s2.2 1.8 3.2 2.4c1.8 1.4 4.4 2.6 7.8 3.8 3.2 1.2 7.6 1.8 13 1.8 4.4 0 8.2-.6 11.4-2 3.2-1.4 6.2-3.2 8.6-5.4 2.4-2.2 4.6-4.6 6.2-7.4 1.6-2.8 3.2-5.4 4.4-8.2h.4V220zM1005.108 87.6c0 3 1 5.6 3 7.6s4.6 3 7.6 3c2.8 0 5.4-1 7.4-3s3.2-4.6 3.2-7.6c0-2.8-1.2-5.4-3.2-7.4s-4.6-3.2-7.4-3.2c-3 0-5.6 1.2-7.6 3.2s-3 4.6-3 7.4zm-13 129.6v2.8h48v-2.8h-15.4v-83h-32.6v2.8h15.4v80.2zM1129.083 198l-3-.6c-.6 1.6-1.4 3.8-2.4 6.2-1.2 2.6-2.8 5.2-5 7.6-2.2 2.4-5.2 4.6-9 6.2-3.8 1.8-8.6 2.6-14.4 2.6-5.6 0-10-1-13.4-3.2-3.4-2.2-6-5.2-8-9s-3.2-8.2-4-13.4c-.8-5-1-10.4-1-16.2 0-10 .8-18 2.4-24 1.6-5.8 3.8-10.2 6.4-13.2 2.6-2.8 5.4-4.6 8.6-5.4 3.2-.8 6.2-1.2 9.2-1.2 4 0 7.4 1 10.6 2.6 3 1.6 4.6 4 4.6 7 0 1.8-.6 4-1.4 6.6-1 2.8-1.4 5-1.4 6.8 0 2.4 1 4.2 3 5.2s4.2 1.4 6.6 1.4c3.2 0 5.8-.8 7.6-2.6 1.8-1.8 2.8-4.2 2.8-7 0-4-1.2-7.6-3.2-10.4-2-2.8-4.6-5.2-7.8-7-3.2-1.8-6.6-3.2-10.4-4-3.8-.8-7.4-1.4-11-1.4-6.4 0-12.6 1.2-18.2 3.6-5.6 2.4-10.6 5.6-14.8 9.6-4.2 4.2-7.6 9-10 14.6-2.4 5.6-3.6 11.8-3.6 18.2 0 8.4 1.4 15.6 4.2 21.2 2.8 5.8 6.6 10.4 11.2 14 4.4 3.6 9.4 6 15 7.6 5.4 1.6 10.6 2.4 15.8 2.4 6.6 0 12-1 16.2-3 4.2-2 7.6-4.4 10-7.2 2.4-2.8 4.2-5.4 5.4-8.2 1.2-2.8 2-4.8 2.4-6.4zM1133.623 217.2v2.8h43.6v-2.8h-11v-43h2.2l35.4 43h-14.2v2.8h45v-2.8h-8.6l-44.2-53.4 31.2-26.8h12v-2.8h-31v2.8h14.2l-39.8 34.4h-2.2V75.8h-32.6v2.8h15.4v138.6zM462.466 394.2c0 7-.2 13.4-.6 19-.4 5.6-1.4 10.4-3 14.4s-4 7.2-7.2 9.2c-3.2 2.2-7.6 3.2-13 3.2-5.6 0-10.2-1.2-13.6-3.6-3.4-2.4-6-5.4-7.8-9.2-2-3.8-3.2-8-3.8-12.8-.8-4.6-1-9.2-1-13.6 0-5.2 0-9.6.2-13.4.2-3.8.6-7.2 1.2-10.2.4-2.8 1.2-5.4 2-7.6.8-2 2-4 3.6-6 2-2.6 4.6-4.8 7.8-6.6 3.2-1.6 7.2-2.6 12.2-2.6 4.6 0 8.4 1 11.4 2.8 3 2 5.4 4.6 7 8 1.6 3.6 2.8 7.8 3.6 12.6.6 4.8 1 10.4 1 16.4zm-82.6 43v2.8h32.2v-17.4h.4c.4 1.6 1.2 3.6 2.4 5.8 1 2.4 2.6 4.6 4.6 6.6 2 2.2 4.6 4 7.8 5.6 3.2 1.6 7 2.2 11.6 2.2 5.8 0 11.4-1.2 16.6-3.8 5.2-2.4 10-5.8 14-10.2 4-4.2 7-9 9.4-14.6 2.4-5.6 3.6-11.4 3.6-17.6 0-6-1.2-11.6-3.4-17.2-2.4-5.4-5.4-10.2-9.2-14.2-4-4-8.4-7.4-13.4-9.8-5.2-2.4-10.6-3.8-16.2-3.8-7.4 0-13.4 1.8-17.8 5.4-4.6 3.6-7.8 8-9.6 13.2h-.4v-74.4h-32.6v2.8h15.4v138.6zM492.416 437.2v2.8h50v-2.8h-17.4v-45.8c0-5.6.6-10.4 2-14.8s3.2-8 5.2-11.2c2-3 4.4-5.4 6.8-7 2.4-1.6 4.6-2.4 6.8-2.4 4.6 0 7 2.2 7 6.4 0 1.8-.2 3.2-.4 4-.4 1-.6 1.8-1 2.6s-.6 1.4-.8 2.2c-.4.8-.4 1.6-.4 2.8 0 3.8 2.8 5.6 8.8 5.6 2.6 0 5-.6 7-2.2 2-1.4 3-4.4 3-8.8 0-2-.4-4-1-6-.8-2-1.8-3.6-3.2-5.2-1.6-1.6-3.4-2.8-5.6-3.8-2.4-1-5-1.6-8-1.6-4.4 0-8 .8-11 2.4-3 1.6-5.6 3.6-7.6 6-2.2 2.4-3.8 4.8-5 7.2-1.2 2.6-2.2 4.8-2.6 6.8h-.4v-20.2h-32.2v2.8h15.4v80.2zM591.266 397.2c0-8 .4-14.6 1.6-20 1-5.4 2.6-9.8 4.8-13.2 2.2-3.4 5-5.8 8.4-7.4 3.2-1.4 7.2-2.2 11.8-2.2 4.4 0 8.4.8 11.8 2.2 3.2 1.6 6 4 8.2 7.4 2.2 3.4 3.8 7.8 5 13.2 1 5.4 1.6 12 1.6 20 0 9.6-.8 17-2.2 22.6-1.6 5.6-3.4 10-5.8 13s-5.2 5-8.4 5.8c-3.2 1-6.6 1.4-10.2 1.4-3.6 0-7-.4-10.2-1.4-3.2-.8-6-2.8-8.4-5.8-2.4-3-4.4-7.4-5.8-13-1.6-5.6-2.2-13-2.2-22.6zm-20 0c0 6.4 1.2 12.2 4 17.8 2.6 5.6 6 10.4 10.4 14.4 4.4 4.2 9.4 7.4 15 9.8 5.6 2.4 11.2 3.6 17.2 3.6 5.8 0 11.6-1.2 17.2-3.6 5.6-2.4 10.4-5.6 14.8-9.8 4.4-4 7.8-8.8 10.6-14.4 2.6-5.6 4-11.4 4-17.8s-1.6-12.6-4.4-18.2c-2.8-5.6-6.6-10.4-11-14.4s-9.4-7.2-15-9.6c-5.6-2.2-11-3.4-16.2-3.4-5.4 0-10.8 1.2-16.4 3.4-5.6 2.4-10.6 5.6-15 9.6s-8.2 8.8-11 14.4c-2.8 5.6-4.2 11.8-4.2 18.2zM664.84 354.2v2.8h13.6l32.2 89.6 30.4-72.6 27.2 72.6 35.8-89.6h10.6v-2.8h-32.6v2.8h18.8l-25 62-23.2-62h13.4v-2.8h-39.8v2.8h8.4l5 13-20.8 49.4-22.4-62.4h16.6v-2.8z"/><path d="M812.688 437.2v2.8h48v-2.8h-15.4V392c0-5.2.8-10.2 2.4-14.8 1.6-4.4 4-8.4 7-11.8 2.8-3.2 6.2-5.8 10.2-7.8 3.8-1.8 7.8-2.8 12.2-2.8 5.2 0 9 1.8 11.4 5 2.4 3.4 3.8 7.6 3.8 12.8v64.6h-15.4v2.8h48v-2.8h-15.4v-58.4c0-9.2-2.8-16-8.4-20.4-5.6-4.2-12.6-6.4-21.4-6.4-5.8 0-10.6 1-14.6 2.8-4 1.8-7.4 4-10 6.4-2.8 2.6-4.8 5.2-6.4 7.8-1.6 2.8-2.6 5-3.4 6.6h-.4v-21.4h-32.2v2.8h15.4v80.2zM979.022 437.2v2.8h50.8v-2.8h-18.2V357h24.8v-2.8h-24.8v-27.8c0-10 2-17.6 6-22.4 4-4.8 8.6-7.2 14.2-7.2 2.4 0 5 .6 7.4 1.6 2.4 1 3.6 3 3.6 5.8 0 2.4-.8 4.4-2 6.2-1.2 1.8-1.8 3.8-1.8 6 0 2.8 1 4.4 3.2 5.2 2.2.8 4.2 1.2 6 1.2 3.4 0 5.8-1 7.4-3.2 1.4-2 2.2-4.4 2.2-7 0-1.6-.6-3.6-1.4-5.8-1-2.2-2.4-4.2-4.4-6.2-2-1.8-4.6-3.4-7.8-4.6-3.2-1.2-6.8-2-11.2-2-6 0-11.4 1.8-16.6 5-5.2 3.2-9.6 7-13 11.4-1.4 1.6-2.6 3.4-3.6 5.4-1.2 2-2 4.2-2.8 6.8-.8 2.6-1.6 5.6-2 9-.4 3.4-.6 7.4-.6 12v10.6h-15.4v2.8h15.4v80.2zM1061.266 397.2c0-8 .4-14.6 1.6-20 1-5.4 2.6-9.8 4.8-13.2 2.2-3.4 5-5.8 8.4-7.4 3.2-1.4 7.2-2.2 11.8-2.2 4.4 0 8.4.8 11.8 2.2 3.2 1.6 6 4 8.2 7.4 2.2 3.4 3.8 7.8 5 13.2 1 5.4 1.6 12 1.6 20 0 9.6-.8 17-2.2 22.6-1.6 5.6-3.4 10-5.8 13s-5.2 5-8.4 5.8c-3.2 1-6.6 1.4-10.2 1.4-3.6 0-7-.4-10.2-1.4-3.2-.8-6-2.8-8.4-5.8-2.4-3-4.4-7.4-5.8-13-1.6-5.6-2.2-13-2.2-22.6zm-20 0c0 6.4 1.2 12.2 4 17.8 2.6 5.6 6 10.4 10.4 14.4 4.4 4.2 9.4 7.4 15 9.8 5.6 2.4 11.2 3.6 17.2 3.6 5.8 0 11.6-1.2 17.2-3.6 5.6-2.4 10.4-5.6 14.8-9.8 4.4-4 7.8-8.8 10.6-14.4 2.6-5.6 4-11.4 4-17.8s-1.6-12.6-4.4-18.2c-2.8-5.6-6.6-10.4-11-14.4s-9.4-7.2-15-9.6c-5.6-2.2-11-3.4-16.2-3.4-5.4 0-10.8 1.2-16.4 3.4-5.6 2.4-10.6 5.6-15 9.6s-8.2 8.8-11 14.4c-2.8 5.6-4.2 11.8-4.2 18.2zM1138.64 437.2v2.8h29.4v-2.8h-14.8l25.2-34 23.4 34h-15.8v2.8h46.8v-2.8h-11l-32.6-47.4 23.8-32.8h10.6v-2.8h-29.4v2.8h14.8l-21.6 30-20.6-30h15.8v-2.8h-47v2.8h11.2l29.8 43.4-27.4 36.8zM350.553 527.6c0 3 1 5.6 3 7.6s4.6 3 7.6 3c2.8 0 5.4-1 7.4-3s3.2-4.6 3.2-7.6c0-2.8-1.2-5.4-3.2-7.4s-4.6-3.2-7.4-3.2c-3 0-5.6 1.2-7.6 3.2s-3 4.6-3 7.4zm-13 46.6v2.8h15.4v117.6c0 7-1.2 12-3.2 15.2-2 3.2-5 4.6-8.8 4.6-2.2 0-4.2-.6-5.8-1.8-1.8-1.2-2.6-3.2-2.6-6 0-2.2.2-4 .6-5.6.4-1.4.8-3 .8-4.6 0-2-.6-3.8-1.8-5-1.2-1.2-3-2-5.4-2-2.6 0-4.8.8-6.4 2.4-1.8 1.6-2.6 4-2.6 7.2s.6 5.8 2.2 8.2c1.6 2.4 3.4 4.2 5.6 5.6 2.2 1.6 4.6 2.6 7.2 3.4 2.4.8 4.8 1 7 1 1.8 0 3.8-.2 6.2-.6 2.2-.4 4.4-1.4 6.6-2.6 2.2-1.2 4.4-3 6.4-5.2 2-2 4-4.8 5.6-8 .6-1.2 1.2-2.6 2-4.2.6-1.6 1.2-3.6 1.8-6.4.4-2.6.8-6 1.2-10.2.4-4.2.6-9.6.6-16v-89.8zM499.128 660v-2.8h-15.4v-83h-32.4v2.8h15.2v46.4c0 5.6-1 10.8-2.6 15.2-1.8 4.4-4 8.2-6.6 11.4-2.6 3.2-5.4 5.8-8.6 7.4-3.2 1.8-6.2 2.6-9 2.6-3.6 0-6.4-.6-8.4-1.8-2.2-1.2-4-3-5.2-5.2-1.4-2.2-2.4-4.8-2.8-7.8-.4-2.8-.6-6-.6-9.6v-61.4h-32.6v2.8h15.4v56.8c0 4 .2 7.4 1 10.2.6 2.8 1.4 5 2.4 6.6.8 1.8 1.8 3.2 3 4.2s2.2 1.8 3.2 2.4c1.8 1.4 4.4 2.6 7.8 3.8 3.2 1.2 7.6 1.8 13 1.8 4.4 0 8.2-.6 11.4-2 3.2-1.4 6.2-3.2 8.6-5.4 2.4-2.2 4.6-4.6 6.2-7.4 1.6-2.8 3.2-5.4 4.4-8.2h.4V660zM502.078 657.2v2.8h48v-2.8h-15.4v-44.4c0-6.8.8-12.8 2.8-17.6 2-4.8 4.4-8.6 7.2-11.6s6-5.2 9.4-6.6c3.2-1.4 6.4-2.2 9.2-2.2 4 0 7.2 1.4 9.6 4.2 2.4 2.8 3.6 7.2 3.6 13v65.2h-15.4v2.8h48v-2.8h-15.4v-51c0-5.2.8-10 2.4-14 1.6-4 3.8-7.2 6.6-9.8 2.6-2.4 5.6-4.4 9-5.6 3.2-1.2 6.6-2 10-2 4.2 0 7.6 1.4 10 3.8 2.4 2.6 3.8 6.2 3.8 10.6v68h-15.4v2.8h48v-2.8h-15.4v-55.4c0-19.8-9.8-29.8-29.2-29.8-4.2 0-8 .6-11.2 1.6-3.2 1.2-6 2.6-8.4 4.4-2.4 1.8-4.4 3.8-6 6-1.6 2.4-3 4.6-3.8 7h-.4c-1.6-6.8-5-11.6-10.2-14.6-5.2-2.8-11-4.4-17.6-4.4-7.6 0-14 2-19.2 5.6-5.2 3.8-9.2 9.6-12 17.6h-.4v-21h-32.2v2.8h15.4v80.2zM754.106 614.2c0 7-.2 13.4-.6 19-.4 5.6-1.4 10.4-3 14.4s-4 7.2-7.2 9.2c-3.2 2.2-7.6 3.2-13 3.2-5.6 0-10.2-1.2-13.6-3.6-3.4-2.4-6-5.4-7.8-9.2-2-3.8-3.2-8-3.8-12.8-.8-4.6-1-9.2-1-13.6 0-5.2 0-9.6.2-13.4.2-3.8.6-7.2 1.2-10.2.4-2.8 1.2-5.4 2-7.6.8-2 2-4 3.6-6 2-2.6 4.6-4.8 7.8-6.6 3.2-1.6 7.2-2.6 12.2-2.6 4.6 0 8.4 1 11.4 2.8 3 2 5.4 4.6 7 8 1.6 3.6 2.8 7.8 3.6 12.6.6 4.8 1 10.4 1 16.4zm-82.6 99v2.8h48v-2.8h-15.4v-69.8h.4c.4 1.4 1 3.2 2.2 5.4 1 2.2 2.6 4.4 4.6 6.4 2 2 4.4 3.8 7.6 5.4 3.2 1.6 7 2.2 11.6 2.2 5.8 0 11.4-1.2 16.6-3.8 5.2-2.4 10-5.8 14-10.2 4-4.2 7-9 9.4-14.6 2.4-5.6 3.6-11.4 3.6-17.6 0-6-1.2-11.6-3.4-17.2-2.4-5.4-5.4-10.2-9.2-14.2-4-4-8.4-7.4-13.4-9.8-5.2-2.4-10.6-3.8-16.2-3.8-7.4 0-13.4 2-18 5.6-4.6 3.6-7.8 8.2-9.8 13.8h-.4v-16.8h-32.2v2.8h15.4v136.2zM789.856 632v28h2.2c.4-.6.8-1.2 1.6-1.8.6-.6 1.6-1 3.2-1 1.4 0 3 .4 4.8 1 1.6.6 3.6 1.2 5.6 1.8 2 .8 4.4 1.4 6.8 2 2.4.6 5.2.8 8.2.8 5 0 9.4-.8 13.4-2.4 4-1.6 7.2-3.6 10-6.2s4.8-5.6 6.2-9.2c1.4-3.4 2.2-7 2.2-10.6 0-6-2-11-6-14.8-4-3.6-9.2-6.6-15.4-8.8l-14.6-4.8c-6-1.8-10.4-3.8-13.4-6s-4.4-5.4-4.4-9.8c0-4.8 1.6-8.6 5.2-11.4 3.6-2.8 8.6-4.4 15-4.4 3.2 0 6.2.6 8.6 1.8 2.4 1.2 4.6 3 6.2 5 1.6 2.2 3.2 4.6 4.4 7.4 1.2 2.8 2.2 5.6 3.2 8.4h2.2v-22.8h-2.2c-.8 1.2-1.8 1.6-3.2 1.6-1.6 0-2.8-.2-3.8-.6-1.2-.4-2.4-1-3.6-1.4-1.4-.4-3-1-4.8-1.4-1.8-.4-4.2-.8-7-.8-4.2 0-8 .8-11.6 2-3.6 1.4-6.6 3.2-9 5.6-2.6 2.4-4.6 5.2-6 8.4-1.6 3.2-2.2 6.8-2.2 10.4 0 4.4.6 8 1.8 10.8 1.2 2.8 3 5.2 5 7 2 1.8 4 3.2 6.4 4.2 2.4 1 4.6 1.8 6.6 2.4l15.6 5.4c3.4 1.2 6.4 3 9 5 2.6 2 4 5.6 4 10.6 0 6-1.8 10.2-5 12.8-3.4 2.6-7.2 3.8-11.4 3.8-5.2 0-9.4-.8-13-2.6-3.6-1.6-6.8-3.8-9.2-6.6-2.4-2.8-4.4-5.8-5.8-9-1.6-3.2-2.8-6.6-3.6-9.8zM936.28 617.2c0-8 .4-14.6 1.6-20 1-5.4 2.6-9.8 4.8-13.2 2.2-3.4 5-5.8 8.4-7.4 3.2-1.4 7.2-2.2 11.8-2.2 4.4 0 8.4.8 11.8 2.2 3.2 1.6 6 4 8.2 7.4 2.2 3.4 3.8 7.8 5 13.2 1 5.4 1.6 12 1.6 20 0 9.6-.8 17-2.2 22.6-1.6 5.6-3.4 10-5.8 13s-5.2 5-8.4 5.8c-3.2 1-6.6 1.4-10.2 1.4-3.6 0-7-.4-10.2-1.4-3.2-.8-6-2.8-8.4-5.8-2.4-3-4.4-7.4-5.8-13-1.6-5.6-2.2-13-2.2-22.6zm-20 0c0 6.4 1.2 12.2 4 17.8 2.6 5.6 6 10.4 10.4 14.4 4.4 4.2 9.4 7.4 15 9.8 5.6 2.4 11.2 3.6 17.2 3.6 5.8 0 11.6-1.2 17.2-3.6 5.6-2.4 10.4-5.6 14.8-9.8 4.4-4 7.8-8.8 10.6-14.4 2.6-5.6 4-11.4 4-17.8s-1.6-12.6-4.4-18.2c-2.8-5.6-6.6-10.4-11-14.4s-9.4-7.2-15-9.6c-5.6-2.2-11-3.4-16.2-3.4-5.4 0-10.8 1.2-16.4 3.4-5.6 2.4-10.6 5.6-15 9.6s-8.2 8.8-11 14.4c-2.8 5.6-4.2 11.8-4.2 18.2zM1007.056 574.2v2.8h13.6l36.4 89.6 37.8-89.6h10.8v-2.8h-30.4v2.8h16.4l-26.8 62.8-25.8-62.8h16.4v-2.8zM1169.197 607.6h-41c.2-4.4.8-8.6 1.6-12.6s2.2-7.4 4-10.6c1.6-3 4-5.4 7-7.2 2.8-1.8 6.6-2.8 11.2-2.8 2.4 0 4.8.4 7 1.2 2.2.8 4 2 5.6 3.6 1.6 1.8 2.8 4.2 3.6 7 .8 3 1.4 6.8 1.4 11.2v5c0 1.6-.2 3.4-.4 5.2zm-41.2 2.8h61.6c0-7.2-1.4-13.4-3.8-18.4-2.4-4.8-5.6-8.8-9.2-11.8-3.6-3-7.6-5.2-11.8-6.6-4.4-1.2-8.4-2-12-2-6.4 0-12.2 1.4-17.6 4-5.6 2.6-10.4 6-14.4 10.2-4 4.4-7.2 9.2-9.6 14.8-2.4 5.6-3.4 11.2-3.4 17 0 6.8 1 13 3.4 18.6 2.2 5.6 5.4 10.2 9.6 14.2 4 4 9 7.2 14.6 9.2 5.6 2.2 11.8 3.2 18.6 3.2 6.6 0 12-1 16.2-3 4.2-2 7.6-4.4 10-7.2 2.4-2.8 4.2-5.4 5.4-8.2 1.2-2.8 2-4.8 2.4-6.4l-3-.6c-.6 1.6-1.4 3.8-2.4 6.2-1.2 2.6-2.8 5.2-5 7.6-2.2 2.4-5.2 4.6-9 6.2-3.8 1.8-8.6 2.6-14.4 2.6-6 0-10.6-1.2-14.2-3.8-3.6-2.4-6.2-5.6-8-9.6-1.8-3.8-3-8.2-3.4-13-.6-4.8-.8-9.4-.8-13.8v-5.2c0-1.4.2-2.8.2-4.2zM1198.197 657.2v2.8h50v-2.8h-17.4v-45.8c0-5.6.6-10.4 2-14.8s3.2-8 5.2-11.2c2-3 4.4-5.4 6.8-7 2.4-1.6 4.6-2.4 6.8-2.4 4.6 0 7 2.2 7 6.4 0 1.8-.2 3.2-.4 4-.4 1-.6 1.8-1 2.6s-.6 1.4-.8 2.2c-.4.8-.4 1.6-.4 2.8 0 3.8 2.8 5.6 8.8 5.6 2.6 0 5-.6 7-2.2 2-1.4 3-4.4 3-8.8 0-2-.4-4-1-6-.8-2-1.8-3.6-3.2-5.2-1.6-1.6-3.4-2.8-5.6-3.8-2.4-1-5-1.6-8-1.6-4.4 0-8 .8-11 2.4-3 1.6-5.6 3.6-7.6 6-2.2 2.4-3.8 4.8-5 7.2-1.2 2.6-2.2 4.8-2.6 6.8h-.4v-20.2h-32.2v2.8h15.4v80.2zM278.853 794.2v2.8h15.4v63.6c0 7.2 1.8 12.6 5.8 16.4 4 4 11 5.8 21 5.8 4 0 7.2-.6 10-1.8 2.6-1.2 4.8-2.8 6.4-4.8 1.6-2 3-4 3.8-6.2.8-2 1.4-4 1.8-5.8l-2.8-1c-.8 4.4-2.8 8.4-5.6 11.8-2.8 3.4-6.6 5-11.2 5-1.4 0-2.8-.2-4.2-.6-1.4-.4-2.6-1.2-3.8-2.4-1.2-1.2-2.2-3-3-5.4-.8-2.4-1-5.4-1-9.2V797h28.4v-2.8h-28.4v-27.4c-1.4 1.2-2.8 2-4.2 2.4-1.6.4-3.2.6-5.2.6-2.4 0-4 0-4.8-.4-1-.2-2-.6-3-1v25.8z"/><path d="M341.25 877.2v2.8h48v-2.8h-15.4V832c0-5.2.8-10.2 2.4-14.8 1.6-4.4 4-8.4 7-11.8 2.8-3.2 6.2-5.8 10.2-7.8 3.8-1.8 7.8-2.8 12.2-2.8 5.2 0 9 1.8 11.4 5 2.4 3.4 3.8 7.6 3.8 12.8v64.6h-15.4v2.8h48v-2.8h-15.4v-58.4c0-9.2-2.8-16-8.4-20.4-5.6-4.2-12.6-6.4-21.4-6.4-5.6 0-10.2 1-14.2 2.6s-7.2 3.6-10 6-4.8 4.8-6.4 7.4c-1.6 2.6-2.8 4.8-3.4 6.4h-.4v-78.6h-32.6v2.8h15.4v138.6zM522.916 827.6h-41c.2-4.4.8-8.6 1.6-12.6s2.2-7.4 4-10.6c1.6-3 4-5.4 7-7.2 2.8-1.8 6.6-2.8 11.2-2.8 2.4 0 4.8.4 7 1.2 2.2.8 4 2 5.6 3.6 1.6 1.8 2.8 4.2 3.6 7 .8 3 1.4 6.8 1.4 11.2v5c0 1.6-.2 3.4-.4 5.2zm-41.2 2.8h61.6c0-7.2-1.4-13.4-3.8-18.4-2.4-4.8-5.6-8.8-9.2-11.8-3.6-3-7.6-5.2-11.8-6.6-4.4-1.2-8.4-2-12-2-6.4 0-12.2 1.4-17.6 4-5.6 2.6-10.4 6-14.4 10.2-4 4.4-7.2 9.2-9.6 14.8-2.4 5.6-3.4 11.2-3.4 17 0 6.8 1 13 3.4 18.6 2.2 5.6 5.4 10.2 9.6 14.2 4 4 9 7.2 14.6 9.2 5.6 2.2 11.8 3.2 18.6 3.2 6.6 0 12-1 16.2-3 4.2-2 7.6-4.4 10-7.2 2.4-2.8 4.2-5.4 5.4-8.2 1.2-2.8 2-4.8 2.4-6.4l-3-.6c-.6 1.6-1.4 3.8-2.4 6.2-1.2 2.6-2.8 5.2-5 7.6-2.2 2.4-5.2 4.6-9 6.2-3.8 1.8-8.6 2.6-14.4 2.6-6 0-10.6-1.2-14.2-3.8-3.6-2.4-6.2-5.6-8-9.6-1.8-3.8-3-8.2-3.4-13-.6-4.8-.8-9.4-.8-13.8v-5.2c0-1.4.2-2.8.2-4.2zM601.584 877.2v2.8h48v-2.8h-15.4V735.8h-32.6v2.8h15.4v138.6zM709.96 831v20c0 2.8-.4 5.8-.8 9s-1.4 6.2-2.8 9-3.4 5.2-6.2 7c-2.8 2-6.2 2.8-10.6 2.8-3.2 0-5.6-.4-7.6-1.6-2-1-3.4-2.4-4.4-4-1.2-1.6-1.8-3.6-2.2-5.8-.4-2-.6-4.2-.6-6.2 0-4.6 1-8.4 3.4-11.6 2.2-3.2 5.4-5.6 9.8-7.4l15-6c4-1.6 6.2-3.4 6.6-5.2zm35 46.8l-1.6-2.2c-1.6 1.2-3 2-4.6 2.4-1.6.6-3.2.8-4.6.8-2.4 0-4-.6-5.2-2-1.2-1.2-1.8-3.8-1.8-7.8v-49.8c0-3.6-.6-7-1.6-10.2-1.2-3.2-3-6.2-5.4-8.8-2.6-2.6-6-4.6-10-6.2-4.2-1.6-9.4-2.4-15.4-2.4-5.2 0-9.6.6-13.6 1.8-4 1.2-7.2 3-9.8 5-2.6 2-4.6 4.4-5.8 7-1.4 2.8-2 5.6-2 8.4 0 2.6.4 4.6 1.6 6.2 1 1.6 3.8 2.4 8.2 2.4 2.4 0 4.4-.6 5.8-1.8 1.2-1.2 2-2.8 2-4.8 0-1-.2-2.6-.6-4.8-.4-2.2-.6-4.4-.6-6.8 0-3.4 1.4-5.8 4.2-7.4 2.8-1.6 6.6-2.4 11-2.4 3.2 0 6 .6 8 1.4 2 1 3.4 2.4 4.6 4.2 1 1.8 1.8 4 2.2 6.4.4 2.6.6 5.4.6 8.6 0 4-.4 7.2-1 9.6-.6 2.4-1.6 4.2-3.2 5.8-1.6 1.6-4 2.8-6.8 3.8-2.8 1.2-6.4 2.4-10.8 3.8-3.8 1.2-7.6 2.4-11.2 3.4-3.6 1.2-7 2.6-10 4.2s-5.4 3.8-7.2 6.6c-2 2.8-2.8 6.6-2.8 11.2 0 2 .2 4.2.8 6.6.6 2.4 1.8 4.4 3.8 6.2 1.8 2 4.4 3.6 7.8 4.8 3.2 1.2 7.8 1.8 13.4 1.8 4.8 0 9-.4 12.2-1.6 3.2-1.2 5.6-2.6 7.6-4.2s3.4-3.4 4.4-5.2c.8-1.8 1.6-3.4 2.2-4.6h.4c1 5 3 8.8 5.8 11.6 2.8 2.8 7.6 4 14 4 3.4 0 6.4-.4 8.8-1.4 2.4-1 4.4-2.2 6.2-3.6zM753.853 794.2l-2.8 22.4h1.6c2-4.8 3.8-8.6 5.6-11.4 1.6-2.6 3.6-4.6 5.6-5.8 2-1.2 4.2-1.8 6.6-2 2.4-.2 5.4-.4 8.8-.4h17.2l-49.8 83h69.6l2.6-26h-1.6c-.8 2.4-1.8 5-2.6 7.6-.8 2.8-2 5.2-3.6 7.6-1.6 2.4-3.6 4.2-6 5.8-2.4 1.6-5.6 2.2-9.4 2.2h-28.2l49.8-83z"/><path d="M817.61 794.2v2.8h13.8l34.6 85.6-8.8 22.4c-2.2 5.4-4.2 10-5.8 13.6-1.8 3.6-3.6 6.6-5.2 8.8-1.8 2.4-3.6 4-5.4 5-1.8 1-3.8 1.4-5.8 1.4-1.6 0-3-.2-3.8-.8-1-.4-1.4-1.6-1.4-3.4 0-2 .4-3.8 1.6-5.4 1.2-1.6 1.8-3.4 1.8-5.4 0-1.2-.4-2.4-1-3.4-.8-.8-1.6-1.6-2.4-2.2-1-.4-2-.8-3-1-1.2-.2-2.2-.4-3-.4-2.8 0-5 1-6.8 2.6-2 1.6-2.8 4.2-2.8 7.4 0 1.2.2 2.8.6 4.4.4 1.8 1.2 3.4 2.6 5 1.2 1.6 3 3 5.4 4.2 2.4 1.2 5.4 1.8 9.4 1.8 3.2 0 6-.4 8.4-1.6 2.4-1.2 4.6-2.8 6.6-5.2 2-2.2 4-5.2 6-8.8 1.8-3.6 3.6-7.8 5.6-12.6 2.2-5.8 4.4-11.6 6.8-17.4 2.2-5.8 4.6-11.6 7.2-17.4l33-77.2h10.8v-2.8h-30.6v2.8h16.6l-27 62.8-25.8-62.8h16.8v-2.8zM988.572 834.2c0-6 .2-11.6 1-16.4.6-4.8 1.8-9 3.4-12.6 1.6-3.4 4-6 7-8 3-1.8 6.8-2.8 11.6-2.8s9 1 12.2 2.6c3.2 1.8 5.8 4 7.8 6.6 1.2 2 2.4 4 3.4 6 .8 2.2 1.6 4.8 2.2 7.6.4 3 .8 6.4 1 10.2.2 3.8.4 8.2.4 13.4 0 4.4-.4 9-1 13.6-.8 4.8-2 9-3.8 12.8-2 3.8-4.6 6.8-8 9.2-3.4 2.4-7.8 3.6-13.4 3.6-5.6 0-9.8-1-13-3.2-3.2-2-5.6-5.2-7.2-9.2-1.6-4-2.6-8.8-3-14.4-.4-5.6-.6-12-.6-19zm34.6-98.4v2.8h15.4v71.6h-.4c-2-5.2-5.2-9.6-9.6-13.2-4.6-3.6-10.6-5.4-17.8-5.4-5.8 0-11.2 1.4-16.2 3.8-5.2 2.4-9.6 5.8-13.4 9.8-4 4-7 8.8-9.2 14.2-2.4 5.6-3.4 11.2-3.4 17.2 0 6.2 1 12 3.4 17.6 2.4 5.6 5.6 10.4 9.6 14.6 4 4.4 8.6 7.8 13.8 10.2 5.2 2.6 10.8 3.8 16.8 3.8 4.4 0 8.2-.6 11.4-2.2 3.2-1.6 5.8-3.4 7.8-5.6 2-2 3.6-4.2 4.8-6.6 1-2.2 1.8-4.2 2.4-5.8h.4V880h32.2v-2.8h-15.4V735.8zM1099.922 837.2c0-8 .4-14.6 1.6-20 1-5.4 2.6-9.8 4.8-13.2 2.2-3.4 5-5.8 8.4-7.4 3.2-1.4 7.2-2.2 11.8-2.2 4.4 0 8.4.8 11.8 2.2 3.2 1.6 6 4 8.2 7.4 2.2 3.4 3.8 7.8 5 13.2 1 5.4 1.6 12 1.6 20 0 9.6-.8 17-2.2 22.6-1.6 5.6-3.4 10-5.8 13s-5.2 5-8.4 5.8c-3.2 1-6.6 1.4-10.2 1.4-3.6 0-7-.4-10.2-1.4-3.2-.8-6-2.8-8.4-5.8-2.4-3-4.4-7.4-5.8-13-1.6-5.6-2.2-13-2.2-22.6zm-20 0c0 6.4 1.2 12.2 4 17.8 2.6 5.6 6 10.4 10.4 14.4 4.4 4.2 9.4 7.4 15 9.8 5.6 2.4 11.2 3.6 17.2 3.6 5.8 0 11.6-1.2 17.2-3.6 5.6-2.4 10.4-5.6 14.8-9.8 4.4-4 7.8-8.8 10.6-14.4 2.6-5.6 4-11.4 4-17.8s-1.6-12.6-4.4-18.2c-2.8-5.6-6.6-10.4-11-14.4s-9.4-7.2-15-9.6c-5.6-2.2-11-3.4-16.2-3.4-5.4 0-10.8 1.2-16.4 3.4-5.6 2.4-10.6 5.6-15 9.6s-8.2 8.8-11 14.4c-2.8 5.6-4.2 11.8-4.2 18.2zM1215.05 886h21.6c7 0 12.6 1.6 16.6 4.8 4 3.2 6.2 8.4 6.2 15.8 0 3.6-.8 6.8-2.4 10-1.6 3.2-3.8 6.2-6.6 8.6-2.8 2.4-6.2 4.4-10.2 5.8-4 1.6-8.2 2.2-13 2.2-3.2 0-6.2-.4-9.4-1.2-3.2-.8-6.2-2-8.8-4-2.6-2-4.8-4.4-6.4-7.6-1.6-3.2-2.4-7.2-2.4-12 0-3.4.4-6.2 1.2-8.6.8-2.4 2-4.4 3.4-6.2 1.4-1.6 3-3 4.8-4.2 1.8-1.2 3.6-2.2 5.4-3.4zm32.4-65c0 8.8-1.6 15.4-4.4 19.8-3 4.4-8 6.4-14.8 6.4-4.2 0-7.6-.6-10.2-1.8-2.8-1.2-4.8-2.8-6.4-5.2-1.6-2.4-2.8-5.2-3.4-8.4-.6-3.2-.8-6.8-.8-10.8 0-9.4 1.6-16.2 5.2-20.4 3.4-4 8.6-6.2 15.4-6.2 4.4 0 7.8.8 10.4 2.4 2.6 1.6 4.6 3.8 5.8 6.4 1.2 2.6 2.2 5.4 2.6 8.6.4 3.2.6 6.2.6 9.2zm-62.4 46c0 7 2 12 6.2 14.8 4.2 2.8 10.8 4.2 19.6 4.2v.4c-2.8 1.2-5.6 2.4-8.4 4-2.8 1.6-5.4 3.6-7.6 5.8-2.2 2.2-4 4.8-5.4 7.6-1.4 2.8-2 6-2 9.4 0 3.6.8 7 2.6 9.8 1.8 3 4.4 5.6 7.6 7.6 3.2 2 6.8 3.6 11.2 4.8 4.4 1.2 9.2 1.8 14.4 1.8 5.6 0 11.2-.8 16.8-2.8 5.4-2 10.2-4.6 14.4-8.2 4.2-3.6 7.6-7.8 10.2-12.6 2.4-4.8 3.8-10 3.8-16 0-9.6-2.8-16.6-8.4-21-5.6-4.4-13-6.8-22.2-6.8h-31.6c-1.8 0-3.4 0-5-.4-1.6-.2-3.2-.6-4.4-1.4-1.2-.6-2.2-1.6-3-3-.8-1.2-1.2-3-1.2-5s.4-4 1.4-5.6c.8-1.6 2-3.2 3.4-4.4 1.4-1.2 3-2.2 4.6-3 1.6-.8 3.2-1.4 4.8-2.2 1.8 1 4.4 2.2 8 3.4 3.4 1.2 7.4 1.8 12.2 1.8 4.4 0 8.8-.6 13.2-2 4.4-1.4 8.2-3.4 11.4-6 3.2-2.4 6-5.4 8-8.8 2-3.2 3-7 3-11 0-4.8-1-8.8-2.8-12-2-3.2-3.4-5.4-4.6-6.8 1-1.4 2.2-2.6 3.6-3.8 1.4-1.2 2.8-1.8 4.2-1.8 1.2 0 2.2.6 3 1.6.6 1.2 1.2 2.2 1.8 3.4.6 1.2 1.4 2.4 2.2 3.4.8 1.2 2 1.6 4 1.6 1.6 0 3-.6 4.6-1.8 1.6-1.2 2.4-3 2.4-5.4 0-3.6-1.2-6-3.4-7.2-2.4-1.2-4.8-1.8-7.4-1.8-4.4 0-8 1.2-10.8 3.2-2.8 2.2-5 4.6-6.4 7-2-2-5.2-4.2-9.6-6.6-4.4-2.4-9.4-3.6-15.4-3.6-4 0-8 .8-12.2 2-4.2 1.4-8 3.4-11.4 6-3.6 2.6-6.4 5.8-8.6 9.4-2.4 3.8-3.4 8-3.4 12.6 0 9.2 3.8 16.4 11.6 21.6-1.8.8-3.8 1.8-6 3s-4.2 2.8-6.2 4.8-3.6 4.2-4.8 6.8c-1.4 2.6-2 5.6-2 9.2zM1286.278 871.6c0 3 1 5.6 3 7.6s4.6 3 7.6 3c2.8 0 5.4-1 7.4-3s3.2-4.6 3.2-7.6c0-2.8-1.2-5.4-3.2-7.4s-4.6-3.2-7.4-3.2c-3 0-5.6 1.2-7.6 3.2s-3 4.6-3 7.4z"/></g></svg>