<svg xmlns="http://www.w3.org/2000/svg" viewBox="0 0 1600 1000" height="1000" width="1600"><path fill="#fff" d="M0 0h1600v1000H0z"/><g font-weight="400" font-size="200" font-family="DIN" letter-spacing="-.03em" text-anchor="middle" fill="#222"><path d="M503.06 91.2V77.6h-97.6v13.6h41.2V220h15.2V91.2zM598.627 220v-63.2q0-16.8-9.4-26.6-9.2-9.8-26-9.8-17 0-27.6 12V77.6h-14.4V220h14.4v-60.8q0-12.8 6.6-19.4 6.8-6.6 18-6.6t17.6 6.6q6.4 6.4 6.4 19.4V220zM703.127 174.6V168q0-22-10.6-34.8-10.6-12.8-29.8-12.8-18.8 0-29.6 13.2t-10.8 37.2q0 13 3 22.6 3.2 9.4 8.8 15.6 5.6 6.2 13.4 9.2 8 3 17.8 3 6.2 0 11.2-1 5.2-1 9.4-2.8 4.2-2 7.8-4.8 3.8-2.8 7.6-6.6l-9.8-8.6q-5.8 5.8-11.6 8.6-5.6 2.6-14.2 2.6-14.2 0-21.6-8.8-7.4-9-7.4-25.2zm-14.4-10.8h-52q.2-6 .8-9.2.6-3.2 2.2-7.2 2.8-6.8 9-10.8 6.2-4 14-4t14 4q6.2 4 9 10.8.8 2 1.2 3.8.6 1.6.8 3.4.4 1.8.6 4 .2 2.2.4 5.2zM844.195 264V121.6h-14.2v11.6q-6-7.8-13-10.2-6.8-2.6-15-2.6-7.6 0-13.8 2.4-6.2 2.2-10.2 6.2-3.8 3.8-6.2 8.6-2.2 4.8-3.6 10.4-1.2 5.4-1.8 11.2-.4 5.8-.4 11.6t.4 11.6q.6 5.8 1.8 11.4 1.4 5.4 3.6 10.2 2.4 4.8 6.2 8.6 4 4 10.2 6.4 6.2 2.2 13.8 2.2 8.2 0 15-2.6 6.8-2.6 12.8-10.2V264zm-14.4-93.2q0 7.2-.8 14t-3.4 12q-2.6 5.2-7.6 8.4-4.8 3.2-12.8 3.2t-13-3.2q-4.8-3.2-7.4-8.4-2.6-5.2-3.6-12-.8-6.8-.8-14t.8-14q1-6.8 3.6-12t7.4-8.4q5-3.2 13-3.2t12.8 3.2q5 3.2 7.6 8.4 2.6 5.2 3.4 12 .8 6.8.8 14zM950.58 220v-98.4h-14.4v60.6q0 13-6.8 19.6-6.6 6.6-17.8 6.6-11.2 0-17.6-6.4-6.4-6.6-6.4-19.8v-60.6h-14.4v62.8q0 8.6 2.4 15.6 2.4 6.8 7.6 12 9.2 9.2 25.4 9.2 8.4 0 15.4-3 7.2-3.2 12.4-9.2v11zM996.08 93.6V77.4h-16.2v16.2zm-1 126.4v-98.4h-14.4V220zM1096.06 206.6l-9.8-9.4q-5.6 6.2-10.6 8.8-5 2.4-12 2.4-7.2 0-13-2.8t-9.8-8.4q-3.4-4.8-5-10.8-1.4-6.2-1.4-15.6 0-9.4 1.4-15.4 1.6-6.2 5-11 4-5.6 9.8-8.4 5.8-2.8 13-2.8 7 0 12 2.4t10.6 8.6l9.8-9.2q-7.6-8.2-15-11.4-7.2-3.2-17.4-3.2-9.4 0-17.4 3.2-7.8 3.2-13.8 9.6-5.8 6.2-9.2 15.6-3.2 9.4-3.2 22t3.2 22.2q3.4 9.4 9.2 15.8 6 6.2 13.8 9.4 8 3 17.4 3 10.2 0 17.4-3.2 7.4-3.2 15-11.4zM1200.108 220l-39.2-60.8 33.4-37.6h-18l-44.4 51.2V77.6h-14.4V220h14.4v-28.4l19.2-22 31.2 50.4zM495.466 390.8q0-5.8-.6-11.6-.4-5.8-1.8-11.2-1.2-5.6-3.6-10.4-2.2-4.8-6-8.6-4-4-10.2-6.2-6.2-2.4-13.8-2.4-8.2 0-15 2.6-6.8 2.4-12.8 10v-55.4h-14.4V440h14.4v-11.8q6 7.8 12.8 10.4 6.8 2.6 15 2.6 7.6 0 13.8-2.2 6.2-2.4 10.2-6.4 3.8-3.8 6-8.6 2.4-4.8 3.6-10.2 1.4-5.6 1.8-11.4.6-5.8.6-11.6zm-14.4 0q0 7.2-.8 14t-3.4 12q-2.6 5.2-7.6 8.4-4.8 3.2-12.8 3.2t-13-3.2q-4.8-3.2-7.4-8.4-2.6-5.2-3.6-12-.8-6.8-.8-14t.8-14q1-6.8 3.6-12t7.4-8.4q5-3.2 13-3.2t12.8 3.2q5 3.2 7.6 8.4 2.6 5.2 3.4 12 .8 6.8.8 14zM585.85 349.6q-5.2-5.2-11-7.2-5.6-2-12.6-2-8.6 0-16.2 3.6-7.4 3.4-11.4 9.6v-12h-14.4V440h14.4v-60.4q0-5.6 1.6-10.4 1.8-4.8 4.8-8.4 3-3.6 7.4-5.6 4.4-2 9.8-2 5.8 0 9.4 1.6 3.6 1.6 7.6 5.6zM667.38 390.8q0-11.4-2.4-21.4-2.2-10.2-9.6-17.8-5.2-5.2-12.2-8.2-7-3-16-3t-16 3q-7 3-12.2 8.2-3.8 3.8-6.2 8.4-2.2 4.4-3.6 9.4-1.2 4.8-1.8 10.4-.4 5.4-.4 11 0 5.8.4 11.2.6 5.4 1.8 10.4 1.4 4.8 3.6 9.4 2.4 4.4 6.2 8.2 5.2 5.2 12.2 8.2 7 3 16 3t16-3q7-3 12.2-8.2 7.4-7.6 9.6-17.6 2.4-10.2 2.4-21.6zm-14.4 0q0 4.2-.2 8.4t-1 8.2q-.8 4-2.4 7.6-1.6 3.6-4.2 6.2-7.2 7.2-18 7.2-10.6 0-17.8-7.2-2.8-2.6-4.4-6.2-1.4-3.6-2.4-7.6-.8-4-1-8.2-.2-4.2-.2-8.4t.2-8.4q.2-4.2 1-8.2 1-4 2.4-7.4 1.6-3.6 4.4-6.4 7.2-7.2 17.8-7.2 10.8 0 18 7.2 2.6 2.8 4.2 6.4 1.6 3.4 2.4 7.4.8 4 1 8.2.2 4.2.2 8.4zM815.467 341.6h-15.6l-22.4 79-26-79h-12.4l-25.8 79-22.6-79h-15.6l31.2 98.4h13.4l25.6-76.4 25.8 76.4h13.4zM907.384 440v-63q0-17.4-10.2-27.4-9.2-9.2-25.2-9.2-8.4 0-15.4 3t-12.2 9v-10.8h-14.4V440h14.4v-60.6q0-13 6.6-19.6 6.6-6.6 17.8-6.6 11.2 0 17.6 6.6 6.6 6.4 6.6 19.6V440zM1018.694 353.2v-11h-21V324q0-6.8 3-10.6 3.2-3.8 10.2-3.8h7.8v-12.4h-10.4q-6.4 0-11 2.2-4.6 2-7.8 5.6-3.2 3.6-4.8 8.4-1.4 4.8-1.4 10.2v18.6h-12.6v11h12.6V440h14.4v-86.8zM1108.278 390.8q0-11.4-2.4-21.4-2.2-10.2-9.6-17.8-5.2-5.2-12.2-8.2-7-3-16-3t-16 3q-7 3-12.2 8.2-3.8 3.8-6.2 8.4-2.2 4.4-3.6 9.4-1.2 4.8-1.8 10.4-.4 5.4-.4 11 0 5.8.4 11.2.6 5.4 1.8 10.4 1.4 4.8 3.6 9.4 2.4 4.4 6.2 8.2 5.2 5.2 12.2 8.2 7 3 16 3t16-3q7-3 12.2-8.2 7.4-7.6 9.6-17.6 2.4-10.2 2.4-21.6zm-14.4 0q0 4.2-.2 8.4t-1 8.2q-.8 4-2.4 7.6-1.6 3.6-4.2 6.2-7.2 7.2-18 7.2-10.6 0-17.8-7.2-2.8-2.6-4.4-6.2-1.4-3.6-2.4-7.6-.8-4-1-8.2-.2-4.2-.2-8.4t.2-8.4q.2-4.2 1-8.2 1-4 2.4-7.4 1.6-3.6 4.4-6.4 7.2-7.2 17.8-7.2 10.8 0 18 7.2 2.6 2.8 4.2 6.4 1.6 3.4 2.4 7.4.8 4 1 8.2.2 4.2.2 8.4zM1200.03 440l-33.4-50.2 32-48.2h-17.4l-22.2 36.4-22.6-36.4h-17.4l32 48.2-33.4 50.2h17.4l24-38.2 23.6 38.2zM373.947 533.6v-16.2h-16.2v16.2zm-1 144.2V562.2h-14.4v115q0 7.2-2.8 10.8-2.8 3.6-10.4 3.6h-7.8v12.6h10.4q6.4 0 11-2 4.8-2 7.8-5.6 3.2-3.6 4.6-8.4 1.6-4.8 1.6-10.4zM479.728 660v-98.4h-14.4v60.6q0 13-6.8 19.6-6.6 6.6-17.8 6.6-11.2 0-17.6-6.4-6.4-6.6-6.4-19.8v-60.6h-14.4v62.8q0 8.6 2.4 15.6 2.4 6.8 7.6 12 9.2 9.2 25.4 9.2 8.4 0 15.4-3 7.2-3.2 12.4-9.2v11zM650.628 660v-63q0-17.2-10.6-27.4-4.6-4.4-11-6.8-6.4-2.4-14.4-2.4-20.8 0-32.4 16.4-4.6-8.2-12.4-12.2-7.6-4.2-17.8-4.2-8.4 0-15.6 3-7 3-12.2 9v-10.8h-14.4V660h14.4v-60.6q0-13 6.6-19.6 6.8-6.6 18-6.6t17.6 6.6q6.6 6.4 6.6 19.6V660h14.4v-62.2q0-11.8 6.8-18.2 7-6.4 17.8-6.4 11.2 0 17.6 6.6 6.6 6.4 6.6 19.6V660zM757.81 610.8q0-5.8-.6-11.6-.4-5.8-1.8-11.2-1.2-5.6-3.6-10.4-2.2-4.8-6-8.6-4-4-10.2-6.2-6.2-2.4-13.8-2.4-8.2 0-15 2.6-6.8 2.4-12.8 10.2v-11.6h-14.4V704h14.4v-55.6q6 7.6 12.8 10.2 6.8 2.6 15 2.6 7.6 0 13.8-2.2 6.2-2.4 10.2-6.4 3.8-3.8 6-8.6 2.4-4.8 3.6-10.2 1.4-5.6 1.8-11.4.6-5.8.6-11.6zm-14.4 0q0 7.2-.8 14t-3.4 12q-2.6 5.2-7.6 8.4-4.8 3.2-12.8 3.2t-13-3.2q-4.8-3.2-7.4-8.4-2.6-5.2-3.6-12-.8-6.8-.8-14t.8-14q1-6.8 3.6-12t7.4-8.4q5-3.2 13-3.2t12.8 3.2q5 3.2 7.6 8.4 2.6 5.2 3.4 12 .8 6.8.8 14zM853.594 631.2q0-6.8-2.2-11.6-2-4.8-5.8-8t-9.2-4.8q-5.4-1.6-11.8-2.2l-15.8-1.4q-9.4-.8-13.4-4.4-3.8-3.6-3.8-10 0-7.6 5.6-11.8 5.6-4.4 16.4-4.4 7.6 0 14.2 2 6.8 1.8 12 5.8l9.4-9.4q-6.6-5.4-15.8-8-9-2.6-19.6-2.6-7.8 0-14.6 2-6.6 2-11.4 5.8-4.8 3.6-7.6 9-2.6 5.2-2.6 12 0 12.2 7.4 18.8 7.6 6.4 22 7.6l16.2 1.4q8.6.8 12.4 4.4 4 3.6 4 10 0 8.8-7 13.2-7 4.2-19.2 4.2-9.2 0-17-2.6-7.8-2.6-13.6-8.8l-9.6 9.6q8.2 7.8 18 11t22.4 3.2q9 0 16.2-2 7.4-2 12.6-5.8 5.4-4 8.2-9.4 3-5.6 3-12.8zM994.622 610.8q0-11.4-2.4-21.4-2.2-10.2-9.6-17.8-5.2-5.2-12.2-8.2-7-3-16-3t-16 3q-7 3-12.2 8.2-3.8 3.8-6.2 8.4-2.2 4.4-3.6 9.4-1.2 4.8-1.8 10.4-.4 5.4-.4 11 0 5.8.4 11.2.6 5.4 1.8 10.4 1.4 4.8 3.6 9.4 2.4 4.4 6.2 8.2 5.2 5.2 12.2 8.2 7 3 16 3t16-3q7-3 12.2-8.2 7.4-7.6 9.6-17.6 2.4-10.2 2.4-21.6zm-14.4 0q0 4.2-.2 8.4t-1 8.2q-.8 4-2.4 7.6-1.6 3.6-4.2 6.2-7.2 7.2-18 7.2-10.6 0-17.8-7.2-2.8-2.6-4.4-6.2-1.4-3.6-2.4-7.6-.8-4-1-8.2-.2-4.2-.2-8.4t.2-8.4q.2-4.2 1-8.2 1-4 2.4-7.4 1.6-3.6 4.4-6.4 7.2-7.2 17.8-7.2 10.8 0 18 7.2 2.6 2.8 4.2 6.4 1.6 3.4 2.4 7.4.8 4 1 8.2.2 4.2.2 8.4zM1086.723 561.6h-15.6l-27 79-26.8-79h-15.6l36 98.4h12.8zM1174.423 614.6V608q0-22-10.6-34.8-10.6-12.8-29.8-12.8-18.8 0-29.6 13.2t-10.8 37.2q0 13 3 22.6 3.2 9.4 8.8 15.6 5.6 6.2 13.4 9.2 8 3 17.8 3 6.2 0 11.2-1 5.2-1 9.4-2.8 4.2-2 7.8-4.8 3.8-2.8 7.6-6.6l-9.8-8.6q-5.8 5.8-11.6 8.6-5.6 2.6-14.2 2.6-14.2 0-21.6-8.8-7.4-9-7.4-25.2zm-14.4-10.8h-52q.2-6 .8-9.2.6-3.2 2.2-7.2 2.8-6.8 9-10.8 6.2-4 14-4t14 4q6.2 4 9 10.8.8 2 1.2 3.8.6 1.6.8 3.4.4 1.8.6 4 .2 2.2.4 5.2zM1264.678 569.6q-5.2-5.2-11-7.2-5.6-2-12.6-2-8.6 0-16.2 3.6-7.4 3.4-11.4 9.6v-12h-14.4V660h14.4v-60.4q0-5.6 1.6-10.4 1.8-4.8 4.8-8.4 3-3.6 7.4-5.6 4.4-2 9.8-2 5.8 0 9.4 1.6 3.6 1.6 7.6 5.6zM338.284 880v-12.4h-7.6q-7 0-10.2-3.8-3.2-3.8-3.2-10.6v-60h21v-11h-21v-30.8h-14.4v30.8h-12.4v11h12.4v60.4q0 5.4 1.6 10.2 1.6 4.8 4.6 8.4 3.2 3.6 7.8 5.8 4.8 2 11.2 2zM438.29 880v-63.2q0-16.8-9.4-26.6-9.2-9.8-26-9.8-17 0-27.6 12v-54.8h-14.4V880h14.4v-60.8q0-12.8 6.6-19.4 6.8-6.6 18-6.6t17.6 6.6q6.4 6.4 6.4 19.4V880zM542.79 834.6V828q0-22-10.6-34.8-10.6-12.8-29.8-12.8-18.8 0-29.6 13.2t-10.8 37.2q0 13 3 22.6 3.2 9.4 8.8 15.6 5.6 6.2 13.4 9.2 8 3 17.8 3 6.2 0 11.2-1 5.2-1 9.4-2.8 4.2-2 7.8-4.8 3.8-2.8 7.6-6.6l-9.8-8.6q-5.8 5.8-11.6 8.6-5.6 2.6-14.2 2.6-14.2 0-21.6-8.8-7.4-9-7.4-25.2zm-14.4-10.8h-52q.2-6 .8-9.2.6-3.2 2.2-7.2 2.8-6.8 9-10.8 6.2-4 14-4t14 4q6.2 4 9 10.8.8 2 1.2 3.8.6 1.6.8 3.4.4 1.8.6 4 .2 2.2.4 5.2zM645.86 880v-12.4h-7.8q-7.6 0-10.4-3.6-2.8-3.6-2.8-10.8V737.6h-14.4v116.2q0 11.2 6 18.8 6 7.4 19 7.4zM734.434 880v-66.8q0-16.2-9.8-24.4-9.6-8.4-29.6-8.4-12 0-20.2 3-8 3-14.6 11.6l9.8 9q4.4-6.2 9.8-8.6 5.4-2.6 15-2.6 13.6 0 19.4 5.4 5.8 5.4 5.8 16.2v9.4h-29.6q-16.6 0-25.4 7.8-8.6 7.6-8.6 20.6 0 5.8 1.8 11.2 2 5.2 5.6 8.8 4.6 4.8 11 7 6.6 2 16.8 2 9.8 0 16-2.2 6.4-2.4 12.4-8.4v9.4zm-14.4-34.8q0 12.2-5 17-4.6 4.6-10.2 5.6-5.4 1-11.8 1-11.8 0-17.2-4-5.4-4.2-5.4-12.8 0-17.4 22-17.4h27.6zM826.712 880v-12.8h-55l55-73.4v-12.2h-68.4v12.8h51.8l-54.8 73.2V880zM918.31 781.6h-15.6l-26.8 79-27-79h-15.6l35.4 96.4-7 19.2q-2.4 6.8-5.6 9.4-3.2 2.8-10.6 2.8h-4.4v12.8h6.2q5.2 0 10.2-1.6 5-1.4 9-5.2 4.2-3.8 7-11.6zM1049.172 880V737.6h-14.4V793q-6-7.6-12.8-10-6.8-2.6-15-2.6-7.6 0-13.8 2.4-6.2 2.2-10.2 6.2-3.8 3.8-6.2 8.6-2.2 4.8-3.6 10.4-1.2 5.4-1.8 11.2-.4 5.8-.4 11.6t.4 11.6q.6 5.8 1.8 11.4 1.4 5.4 3.6 10.2 2.4 4.8 6.2 8.6 4 4 10.2 6.4 6.2 2.2 13.8 2.2 8.2 0 15-2.6 7-2.6 13-10.4V880zm-14.4-49.2q0 7.2-.8 14t-3.4 12q-2.6 5.2-7.6 8.4-4.8 3.2-12.8 3.2t-13-3.2q-4.8-3.2-7.4-8.4-2.6-5.2-3.6-12-.8-6.8-.8-14t.8-14q1-6.8 3.6-12t7.4-8.4q5-3.2 13-3.2t12.8 3.2q5 3.2 7.6 8.4 2.6 5.2 3.4 12 .8 6.8.8 14zM1154.356 830.8q0-11.4-2.4-21.4-2.2-10.2-9.6-17.8-5.2-5.2-12.2-8.2-7-3-16-3t-16 3q-7 3-12.2 8.2-3.8 3.8-6.2 8.4-2.2 4.4-3.6 9.4-1.2 4.8-1.8 10.4-.4 5.4-.4 11 0 5.8.4 11.2.6 5.4 1.8 10.4 1.4 4.8 3.6 9.4 2.4 4.4 6.2 8.2 5.2 5.2 12.2 8.2 7 3 16 3t16-3q7-3 12.2-8.2 7.4-7.6 9.6-17.6 2.4-10.2 2.4-21.6zm-14.4 0q0 4.2-.2 8.4t-1 8.2q-.8 4-2.4 7.6-1.6 3.6-4.2 6.2-7.2 7.2-18 7.2-10.6 0-17.8-7.2-2.8-2.6-4.4-6.2-1.4-3.6-2.4-7.6-.8-4-1-8.2-.2-4.2-.2-8.4t.2-8.4q.2-4.2 1-8.2 1-4 2.4-7.4 1.6-3.6 4.4-6.4 7.2-7.2 17.8-7.2 10.8 0 18 7.2 2.6 2.8 4.2 6.4 1.6 3.4 2.4 7.4.8 4 1 8.2.2 4.2.2 8.4zM1251.616 883V781.6h-14.2v11.6q-6-7.8-12.8-10.2-6.6-2.6-14.8-2.6-7.6 0-13.8 2.4-6.2 2.2-10.2 6.2-7.4 7.4-9.8 18.2-2.2 10.8-2.2 22.8t2.2 22.8q2.4 10.8 9.8 18.2 4 4 10 6.4 6.2 2.4 13.8 2.4 8 0 14.8-2.6 6.8-2.6 12.8-10.2v15.4q0 6.4-1.6 11.8-1.4 5.6-4.8 9.6-3.2 4-8.4 6.4-5 2.4-12.2 2.4-4.2 0-7.4-.6t-6-2q-2.6-1.2-5.2-3-2.4-1.8-5-4.2l-9.4 9.2q3.8 3.6 7.4 6 3.8 2.6 7.6 4.2 4 1.6 8.4 2.2 4.4.8 10 .8 9.6 0 17.2-3.2 7.8-3.2 13-8.8 5.2-5.6 8-13.4 2.8-7.6 2.8-16.8zm-14.4-53q0 7-.8 13.6t-3.4 11.8q-2.6 5-7.4 8.2-4.8 3.2-12.8 3.2t-13-3.2q-4.8-3.2-7.4-8.2-2.6-5.2-3.4-11.8-.8-6.6-.8-13.6 0-6.8.8-13.4.8-6.8 3.4-11.8 2.6-5.2 7.4-8.4 5-3.2 13-3.2t12.8 3.2q4.8 3.2 7.4 8.4 2.6 5 3.4 11.8.8 6.6.8 13.4zM1300.01 880v-18.8h-18.8V880z"/></g></svg>