<svg xmlns="http://www.w3.org/2000/svg" viewBox="0 0 800 500"><path fill="#fff" d="M0 0h800v500H0z"/><g font-weight="400" font-size="100" font-family="DIN Condensed" text-anchor="middle" fill="#111"><path d="M239.793 40h34.8v9.5h-12.4V110h-10V49.5h-12.4zM282.06 110V40h10v24.4q1.4-1.8 3.3-2.9 3.1-1.9 6.6-1.9 4.6 0 7.4 2.9 2.9 3 2.9 8.4V110h-10V74.9q0-2.6-1.3-4-1.4-1.5-3.5-1.5-2.2 0-3.8 1.6-1.6 1.7-1.6 5v34zM332.676 88.9v6.4q0 3 1.3 4.3 1.2 1.4 3.8 1.4 2.6 0 4-2.1.9-1.5.9-3.4h10v.4q0 8.1-5.6 12.1-3.9 2.8-9.3 2.8-7.2 0-11.5-4.8-3.6-4-3.6-12V75q0-7.8 4.9-12 3.9-3.4 9.9-3.4 6.3 0 10.4 3.6 5 4.3 5 12.7v13zm0-7.7h10.2v-6.5q0-2.5-1.4-3.9t-3.7-1.4q-2.5 0-3.9 1.7-1.2 1.4-1.2 4zM406.166 60.4h10v70h-10V106q-1.4 1.8-3.3 2.9-3.1 1.9-6.6 1.9-4.6 0-7.4-2.9-2.9-3-2.9-8.4V73.7q0-7.2 2.3-10.3 2.8-3.8 8.3-3.8 3.6 0 6.1 1.7 2.2 1.5 3.4 3.5h.1zm0 34V76q0-3.3-1.6-5-1.6-1.6-3.8-1.6-2.2 0-3.5 1.5-1.3 1.4-1.3 4.5v20.1q0 2.6 1.3 4 1.3 1.5 3.5 1.5t3.8-1.6q1.6-1.7 1.6-5zM457.182 60.4V110h-10v-5q-1.5 2.2-3.5 3.7-3 2.1-6.9 2.1-5.2 0-7.8-3.7-2-2.8-2-7.6V60.4h10v35.1q0 2.9 1.2 4.2 1.3 1.3 3.2 1.3 2.6 0 4.2-1.8 1.6-1.7 1.6-4.8v-34zM467.998 110V60.4h10V110zm0-68.6h10v9.8h-10zM518.896 75.4h-10v-.2q0-2.3-1.1-3.9-1.3-1.9-4-1.9-2.4 0-3.9 1.7-1.4 1.6-1.4 4.8v19.2q0 2.7 1.2 4.2 1.4 1.7 4.1 1.7 2.7 0 4-1.7 1.1-1.4 1.1-4v-.1h10v.9q0 7-5 11.3-4.2 3.4-10 3.4-7.4 0-11.5-4.3-1.9-1.9-2.8-4.4-.9-2.6-1-4.2-.1-1.6-.1-4.6V76.2q0-8.7 4.6-12.9 4.1-3.7 10.3-3.7 7.5 0 11.5 4.3 4 4.1 4 11.2zM527.373 110V40h10v42h.2l12-21.6h10l-11.9 20.2 14.3 29.4h-10.8l-9-21.4-4.8 7.5V110zM250.263 220h-10v-70h10v24.4q1.4-1.8 3.3-2.9 3.1-1.9 6.6-1.9 4.6 0 7.4 2.9 2.9 3 2.9 8.4v25.8q0 7.2-2.3 10.3-2.8 3.8-8.3 3.8-3.6 0-6.1-1.7-2.2-1.5-3.4-3.5h-.1zm0-34v18.4q0 3.3 1.6 5 1.6 1.6 3.8 1.6 2.1 0 3.5-1.5 1.3-1.4 1.3-4.5v-20.1q0-2.6-1.3-4-1.4-1.5-3.5-1.5-2.2 0-3.8 1.6-1.6 1.7-1.6 5zM281.28 170.4h10v5.3l.2.1q5-6.2 13.1-6.2v10.7q-1.8-.5-4.1-.1t-4.4 1.4q-2 .9-3.4 3.6-1.4 2.6-1.4 6.4V220h-10zM308.418 204v-17.6q0-9.1 4.9-13.3 4.1-3.5 10.2-3.5t10.2 3.5q4.9 4.2 4.9 13.3V204q0 9.1-4.9 13.3-4.1 3.5-10.2 3.5t-10.2-3.5q-4.9-4.2-4.9-13.3zm20.2.6v-18.8q0-3.3-1.5-5-1.4-1.4-3.6-1.4t-3.6 1.4q-1.5 1.7-1.5 5v18.8q0 3.3 1.5 5 1.4 1.4 3.6 1.4t3.6-1.4q1.5-1.7 1.5-5zM344.452 170.4h10.2l6.4 31.4 5.9-31.4h8.3l6.1 31.4 6.2-31.4h10l-11.8 49.6h-8.5l-6-30.4h-.5l-6 30.4h-8.5zM403.545 220v-49.6h10v4.5q4-5.3 9.9-5.3 4.7 0 7.4 2.9 2.9 3 2.9 8.4V220h-10v-35.1q0-2.6-1.3-4-1.4-1.5-3.5-1.5-2.2 0-3.8 1.6-1.6 1.7-1.6 5v34zM470.102 220v-41.6h-5.2v-8h5.2v-6.6q0-7.3 3.8-10.7 3.6-3.1 10.7-3.1h3.6v8.8h-2q-3.1 0-4.7 1.7-1.5 1.7-1.5 4.8v5.1h8.1v8h-8V220zM494.16 204v-17.6q0-9.1 4.9-13.3 4.1-3.5 10.2-3.5t10.2 3.5q4.9 4.2 4.9 13.3V204q0 9.1-4.9 13.3-4.1 3.5-10.2 3.5t-10.2-3.5q-4.9-4.2-4.9-13.3zm20.2.6v-18.8q0-3.3-1.5-5-1.4-1.4-3.6-1.4t-3.6 1.4q-1.5 1.7-1.5 5v18.8q0 3.3 1.5 5 1.4 1.4 3.6 1.4t3.6-1.4q1.5-1.7 1.5-5zM530.095 220l12.2-25.3-11.6-24.3h10.5l6.2 14.1 6.2-14.1h10.5l-11.8 24.3 12.4 25.3h-10.5l-6.8-15.2-6.8 15.2zM230.834 280.4V335.5q0 2.4-.1 3.8t-.9 3.6q-.7 2.2-2.2 3.8-3.4 3.7-10.7 3.7h-3.2v-9.8h1.8q2.7 0 4-1.5 1.3-1.4 1.3-4.4v-54.3zm-10-19h10v9.8h-10zM271.928 280.4V330h-10v-5q-1.5 2.2-3.5 3.7-3 2.1-6.9 2.1-5.2 0-7.8-3.7-2-2.8-2-7.6v-39.1h10v35.1q0 2.9 1.2 4.2 1.3 1.3 3.2 1.3 2.6 0 4.2-1.8 1.6-1.7 1.6-4.8v-34zM282.744 280.4h10v4.5q1.2-1.5 3.1-3.1 2.9-2.2 6.8-2.2 2.9 0 5.4 1.6 2.4 1.6 3.6 4.3 1.9-3.1 4.4-4.5 2.4-1.4 5.5-1.4 6.1 0 9 4 2.2 3.1 2.2 8.6V330h-10v-35.1q0-2.5-1.3-4-1.4-1.5-3.4-1.5-2.2 0-3.7 1.6-1.6 1.7-1.6 5v34h-10v-35.1q0-2.5-1.3-4t-3.4-1.5q-2.2 0-3.7 1.6-1.6 1.7-1.6 5v34h-10zM353.486 280.4v4.4h.1q1.2-2 3.4-3.5 2.5-1.7 6.1-1.7 5.5 0 8.3 3.8 2.3 3.1 2.3 10.3v25.8q0 5.4-2.9 8.4-2.8 2.9-7.4 2.9-3.5 0-6.6-1.9-1.9-1.1-3.3-2.9v24.4h-10v-70zm0 15.6v18.4q0 3.3 1.6 5 1.6 1.6 3.8 1.6 2.1 0 3.5-1.5 1.3-1.4 1.3-4v-20.1q0-3.1-1.3-4.5-1.4-1.5-3.5-1.5-2.2 0-3.8 1.6-1.6 1.7-1.6 5zM412.702 293.8h-9.8q-.2-2.2-1.5-3.6-1.3-1.3-3.6-1.3-2 0-3.5 1.3-1.4 1.3-1.4 3.7 0 1.8 1 3.2 1.1 1.5 3.9 2.6l6 2.5q3.9 1.5 6.4 4.8 2.5 3.2 2.5 9.1 0 5.8-3.2 9.7-4 5-12.1 5-7.6 0-11.6-4.4-3.7-4-3.7-10.3h10q0 2.4 1.3 3.8 1.4 1.6 4.1 1.6 2.5 0 3.9-1.7 1.3-1.4 1.3-4 0-2.1-1-3.5-1-1.5-4-2.8l-5.9-2.5q-4.1-1.7-6.2-4.2-2.7-3.2-2.7-8.4 0-6.9 3.7-10.8 4-4 10.7-4 7.8 0 11.6 4 3.8 3.8 3.8 10.2zM444.453 314v-17.6q0-9.1 4.9-13.3 4.1-3.5 10.2-3.5t10.2 3.5q4.9 4.2 4.9 13.3V314q0 9.1-4.9 13.3-4.1 3.5-10.2 3.5t-10.2-3.5q-4.9-4.2-4.9-13.3zm20.2.6v-18.8q0-3.3-1.5-5-1.4-1.4-3.6-1.4t-3.6 1.4q-1.5 1.7-1.5 5v18.8q0 3.3 1.5 5 1.4 1.4 3.6 1.4t3.6-1.4q1.5-1.7 1.5-5zM514.888 280.4l-13.2 49.6h-8l-13.2-49.6h10.5l6.7 31.5h.5l6.7-31.5zM530.43 308.9v6.4q0 3 1.3 4.3 1.2 1.4 3.8 1.4 2.6 0 4-2.1.9-1.5.9-3.4h10v.4q0 8.1-5.6 12.1-3.9 2.8-9.3 2.8-7.2 0-11.5-4.8-3.6-4-3.6-12v-19q0-7.8 4.9-12 3.9-3.4 9.9-3.4 6.3 0 10.4 3.6 5 4.3 5 12.7v13zm0-7.7h10.2v-6.5q0-2.5-1.4-3.9t-3.7-1.4q-2.5 0-3.9 1.7-1.2 1.4-1.2 4zM560.478 280.4h10v5.3l.2.1q5-6.2 13.1-6.2v10.7q-1.8-.5-4.1-.1t-4.4 1.4q-2 .9-3.4 3.6-1.4 2.6-1.4 6.4V330h-10zM190.975 375.3h10v15.1h6.4v8h-6.4v27.2q0 3 1.4 4.2 1.1.9 3.7.9h1.3v9.3h-2.7q-7.6 0-10.8-3.5-2.9-3.1-2.9-10v-28.1h-5.1v-8h5.1zM215.36 440v-70h10v24.4q1.4-1.8 3.3-2.9 3.1-1.9 6.6-1.9 4.6 0 7.4 2.9 2.9 3 2.9 8.4V440h-10v-35.1q0-2.6-1.3-4-1.4-1.5-3.5-1.5-2.2 0-3.8 1.6-1.6 1.7-1.6 5v34zM265.977 418.9v6.4q0 3 1.3 4.3 1.2 1.4 3.8 1.4 2.6 0 4-2.1.9-1.5.9-3.4h10v.4q0 8.1-5.6 12.1-3.9 2.8-9.3 2.8-7.2 0-11.5-4.8-3.6-4-3.6-12v-19q0-7.8 4.9-12 3.9-3.4 9.9-3.4 6.3 0 10.4 3.6 5 4.3 5 12.7v13zm0-7.7h10.2v-6.5q0-2.5-1.4-3.9t-3.7-1.4q-2.5 0-3.9 1.7-1.2 1.4-1.2 4zM319.267 370h10v55.9q0 2.5 1.4 3.8 1.1 1 3.2 1h1v9.3h-2.9q-6.9 0-10.2-4.2-2.5-3.1-2.5-9.4zM362.014 440v-4.9h-.2q-1.4 2.3-3.4 3.8-2.4 1.9-5.8 1.9-4.8 0-7.6-2.6-3.6-3.4-3.6-11.4 0-8.8 3.1-12.4 3.6-4.3 11.8-4.3 2.6 0 5.7.3v-5.2q0-2.8-1.3-4.2-1.5-1.6-4-1.6t-4 1.8q-1.2 1.3-1.3 3.2h-9.5q-.1-6.5 4.1-10.7 4.1-4.1 11.2-4.1 6.5 0 10.7 4 4.1 4.1 4.1 11.7V440zm0-14.6v-7q-1.8-.3-3.5-.3-3.8 0-5.6 2.1-1.5 1.7-1.5 5.2 0 2.5 1 4.1 1.4 2.3 4 2.3 2.4 0 4-1.6 1.6-1.7 1.6-4.8zM381.144 398.9v-8.5h27.6v7.2l-18.3 33.9h18.3v8.5h-28.9v-8.2l17.7-32.9zM412.328 390.4h10.8l8.1 30.8h.4l6.2-30.8h10l-13.6 56.3q-1.9 8-4.6 10.6-3.2 3.1-10 3.1h-2.6l-.2-9.3h1.9q3.2 0 4.7-2.1.9-1.1 1.8-4.8l1.6-6.5zM497.28 440v-4.4h-.1q-1.2 2-3.4 3.5-2.5 1.7-6.1 1.7-5.5 0-8.3-3.8-2.3-3.1-2.3-10.3v-25.8q0-5.4 2.9-8.4 2.8-2.9 7.4-2.9 3.5 0 6.6 1.9 1.9 1.1 3.3 2.9V370h10v70zm0-15.6V406q0-3.3-1.6-5-1.6-1.6-3.8-1.6-2.2 0-3.5 1.5-1.3 1.4-1.3 4V425q0 3.1 1.3 4.5 1.3 1.5 3.5 1.5t3.8-1.6q1.6-1.7 1.6-5zM517.695 424v-17.6q0-9.1 4.9-13.3 4.1-3.5 10.2-3.5t10.2 3.5q4.9 4.2 4.9 13.3V424q0 9.1-4.9 13.3-4.1 3.5-10.2 3.5t-10.2-3.5q-4.9-4.2-4.9-13.3zm20.2.6v-18.8q0-3.3-1.5-5-1.4-1.4-3.6-1.4t-3.6 1.4q-1.5 1.7-1.5 5v18.8q0 3.3 1.5 5 1.4 1.4 3.6 1.4t3.6-1.4q1.5-1.7 1.5-5zM578.13 390.4h10v54.2q0 7.8-3.8 11.8-4.1 4.5-11.5 4.5-7.1 0-11.1-4.6-3.5-4-3.8-10.3h10q-.1 2.1 1.3 3.7 1.3 1.4 3.7 1.4 2.8 0 4.1-1.9 1.1-1.6 1.1-5.3v-8.4q-1.4 1.8-3.3 2.9-3.1 1.9-6.6 1.9-4.6 0-7.4-2.9-2.9-3-2.9-8.4v-25.3q0-7.2 2.3-10.3 2.8-3.8 8.3-3.8 3.6 0 6.1 1.7 2.2 1.5 3.4 3.5h.1zm0 33.5V406q0-3.3-1.6-5-1.6-1.6-3.8-1.6-2.1 0-3.5 1.5-1.3 1.5-1.3 4.5V425q0 2.5 1.3 4 1.4 1.5 3.5 1.5 2.2 0 3.8-1.6 1.6-1.7 1.6-5zM598.555 429h11v11h-11z"/></g></svg>