<svg xmlns="http://www.w3.org/2000/svg" viewBox="0 0 1600 1000" height="1000" width="1600"><path fill="#fff" d="M0 0h1600v1000H0z"/><g font-weight="400" font-size="200" font-family="DIN Condensed" letter-spacing="-.03em" text-anchor="middle" fill="#222"><path d="M506.586 80h69.6v19h-24.8v121h-20V99h-24.8zM585.12 220V80h20v48.8q2.8-3.6 6.6-5.8 6.2-3.8 13.2-3.8 9.2 0 14.8 5.8 5.8 6 5.8 16.8V220h-20v-70.2q0-5.2-2.6-8-2.8-3-7-3-4.4 0-7.6 3.2-3.2 3.4-3.2 10v68zM680.352 177.8v12.8q0 6 2.6 8.6 2.4 2.8 7.6 2.8 5.2 0 8-4.2 1.8-3 1.8-6.8h20v.8q0 16.2-11.2 24.2-7.8 5.6-18.6 5.6-14.4 0-23-9.6-7.2-8-7.2-24v-38q0-15.6 9.8-24 7.8-6.8 19.8-6.8 12.6 0 20.8 7.2 10 8.6 10 25.4v26zm0-15.4h20.4v-13q0-5-2.8-7.8t-7.4-2.8q-5 0-7.8 3.4-2.4 2.8-2.4 8zM815.333 120.8h20v140h-20V212q-2.8 3.6-6.6 5.8-6.2 3.8-13.2 3.8-9.2 0-14.8-5.8-5.8-6-5.8-16.8v-51.6q0-14.4 4.6-20.6 5.6-7.6 16.6-7.6 7.2 0 12.2 3.4 4.4 3 6.8 7h.2zm0 68V152q0-6.6-3.2-10-3.2-3.2-7.6-3.2-4.4 0-7 3-2.6 2.8-2.6 9V191q0 5.2 2.6 8 2.6 3 7 3t7.6-3.2q3.2-3.4 3.2-10zM911.364 120.8V220h-20v-10q-3 4.4-7 7.4-6 4.2-13.8 4.2-10.4 0-15.6-7.4-4-5.6-4-15.2v-78.2h20V191q0 5.8 2.4 8.4 2.6 2.6 6.4 2.6 5.2 0 8.4-3.6 3.2-3.4 3.2-9.6v-68zM926.995 220v-99.2h20V220zm0-137.2h20v19.6h-20zM1022.792 150.8h-20v-.4q0-4.6-2.2-7.8-2.6-3.8-8-3.8-4.8 0-7.8 3.4-2.8 3.2-2.8 9.6v38.4q0 5.4 2.4 8.4 2.8 3.4 8.2 3.4 5.4 0 8-3.4 2.2-2.8 2.2-8v-.2h20v1.8q0 14-10 22.6-8.4 6.8-20 6.8-14.8 0-23-8.6-3.8-3.8-5.6-8.8-1.8-5.2-2-8.4-.2-3.2-.2-9.2v-34.2q0-17.4 9.2-25.8 8.2-7.4 20.6-7.4 15 0 23 8.6 8 8.2 8 22.4zM1033.745 220V80h20v84h.4l24-43.2h20l-23.8 40.4 28.6 58.8h-21.6l-18-42.8-9.6 15V220zM527.527 440h-20V300h20v48.8q2.8-3.6 6.6-5.8 6.2-3.8 13.2-3.8 9.2 0 14.8 5.8 5.8 6 5.8 16.8v51.6q0 14.4-4.6 20.6-5.6 7.6-16.6 7.6-7.2 0-12.2-3.4-4.4-3-6.8-7h-.2zm0-68v36.8q0 6.6 3.2 10 3.2 3.2 7.6 3.2 4.2 0 7-3 2.6-2.8 2.6-9v-40.2q0-5.2-2.6-8-2.8-3-7-3-4.4 0-7.6 3.2-3.2 3.4-3.2 10zM583.558 340.8h20v10.6l.4.2q10-12.4 26.2-12.4v21.4q-3.6-1-8.2-.2t-8.8 2.8q-4 1.8-6.8 7.2-2.8 5.2-2.8 12.8V440h-20zM631.836 408v-35.2q0-18.2 9.8-26.6 8.2-7 20.4-7t20.4 7q9.8 8.4 9.8 26.6V408q0 18.2-9.8 26.6-8.2 7-20.4 7t-20.4-7q-9.8-8.4-9.8-26.6zm40.4 1.2v-37.6q0-6.6-3-10-2.8-2.8-7.2-2.8t-7.2 2.8q-3 3.4-3 10v37.6q0 6.6 3 10 2.8 2.8 7.2 2.8t7.2-2.8q3-3.4 3-10zM697.905 340.8h20.4l12.8 62.8 11.8-62.8h16.6l12.2 62.8 12.4-62.8h20l-23.6 99.2h-17l-12-60.8h-1l-12 60.8h-17zM810.09 440v-99.2h20v9q8-10.6 19.8-10.6 9.4 0 14.8 5.8 5.8 6 5.8 16.8V440h-20v-70.2q0-5.2-2.6-8-2.8-3-7-3-4.4 0-7.6 3.2-3.2 3.4-3.2 10v68zM931.205 440v-83.2h-10.4v-16h10.4v-13.2q0-14.6 7.6-21.4 7.2-6.2 21.4-6.2h7.2v17.6h-4q-6.2 0-9.4 3.4-3 3.4-3 9.6v10.2h16.2v16h-16V440zM973.32 408v-35.2q0-18.2 9.8-26.6 8.2-7 20.4-7t20.4 7q9.8 8.4 9.8 26.6V408q0 18.2-9.8 26.6-8.2 7-20.4 7t-20.4-7q-9.8-8.4-9.8-26.6zm40.4 1.2v-37.6q0-6.6-3-10-2.8-2.8-7.2-2.8t-7.2 2.8q-3 3.4-3 10v37.6q0 6.6 3 10 2.8 2.8 7.2 2.8t7.2-2.8q3-3.4 3-10zM1039.19 440l24.4-50.6-23.2-48.6h21l12.4 28.2 12.4-28.2h21l-23.6 48.6 24.8 50.6h-21l-13.6-30.4-13.6 30.4zM491.67 560.8V671q0 4.8-.2 7.6t-1.8 7.2q-1.4 4.4-4.4 7.6-6.8 7.4-21.4 7.4h-6.4v-19.6h3.6q5.4 0 8-3 2.6-2.8 2.6-8.8V560.8zm-20-38h20v19.6h-20zM567.856 560.8V660h-20v-10q-3 4.4-7 7.4-6 4.2-13.8 4.2-10.4 0-15.6-7.4-4-5.6-4-15.2v-78.2h20V631q0 5.8 2.4 8.4 2.6 2.6 6.4 2.6 5.2 0 8.4-3.6 3.2-3.4 3.2-9.6v-68zM583.487 560.8h20v9q2.4-3 6.2-6.2 5.8-4.4 13.6-4.4 5.8 0 10.8 3.2 4.8 3.2 7.2 8.6 3.8-6.2 8.8-9 4.8-2.8 11-2.8 12.2 0 18 8 4.4 6.2 4.4 17.2V660h-20v-70.2q0-5-2.6-8-2.8-3-6.8-3-4.4 0-7.4 3.2-3.2 3.4-3.2 10v68h-20v-70.2q0-5-2.6-8t-6.8-3q-4.4 0-7.4 3.2-3.2 3.4-3.2 10v68h-20zM718.972 560.8v8.8h.2q2.4-4 6.8-7 5-3.4 12.2-3.4 11 0 16.6 7.6 4.6 6.2 4.6 20.6V639q0 10.8-5.8 16.8-5.6 5.8-14.8 5.8-7 0-13.2-3.8-3.8-2.2-6.6-5.8v48.8h-20v-140zm0 31.2v36.8q0 6.6 3.2 10 3.2 3.2 7.6 3.2 4.2 0 7-3 2.6-2.8 2.6-8v-40.2q0-6.2-2.6-9-2.8-3-7-3-4.4 0-7.6 3.2-3.2 3.4-3.2 10zM831.403 587.6h-19.6q-.4-4.4-3-7.2-2.6-2.6-7.2-2.6-4 0-7 2.6-2.8 2.6-2.8 7.4 0 3.6 2 6.4 2.2 3 7.8 5.2l12 5q7.8 3 12.8 9.6 5 6.4 5 18.2 0 11.6-6.4 19.4-8 10-24.2 10-15.2 0-23.2-8.8-7.4-8-7.4-20.6h20q0 4.8 2.6 7.6 2.8 3.2 8.2 3.2 5 0 7.8-3.4 2.6-2.8 2.6-8 0-4.2-2-7-2-3-8-5.6l-11.8-5q-8.2-3.4-12.4-8.4-5.4-6.4-5.4-16.8 0-13.8 7.4-21.6 8-8 21.4-8 15.6 0 23.2 8 7.6 7.6 7.6 20.4zM882.906 628v-35.2q0-18.2 9.8-26.6 8.2-7 20.4-7t20.4 7q9.8 8.4 9.8 26.6V628q0 18.2-9.8 26.6-8.2 7-20.4 7t-20.4-7q-9.8-8.4-9.8-26.6zm40.4 1.2v-37.6q0-6.6-3-10-2.8-2.8-7.2-2.8t-7.2 2.8q-3 3.4-3 10v37.6q0 6.6 3 10 2.8 2.8 7.2 2.8t7.2-2.8q3-3.4 3-10zM1017.775 560.8l-26.4 99.2h-16l-26.4-99.2h21l13.4 63h1l13.4-63zM1042.86 617.8v12.8q0 6 2.6 8.6 2.4 2.8 7.6 2.8 5.2 0 8-4.2 1.8-3 1.8-6.8h20v.8q0 16.2-11.2 24.2-7.8 5.6-18.6 5.6-14.4 0-23-9.6-7.2-8-7.2-24v-38q0-15.6 9.8-24 7.8-6.8 19.8-6.8 12.6 0 20.8 7.2 10 8.6 10 25.4v26zm0-15.4h20.4v-13q0-5-2.8-7.8t-7.4-2.8q-5 0-7.8 3.4-2.4 2.8-2.4 8zM1096.956 560.8h20v10.6l.4.2q10-12.4 26.2-12.4v21.4q-3.6-1-8.2-.2t-8.8 2.8q-4 1.8-6.8 7.2-2.8 5.2-2.8 12.8V660h-20zM417.95 750.6h20v30.2h12.8v16h-12.8v54.4q0 6 2.8 8.4 2.2 1.8 7.4 1.8h2.6V880h-5.4q-15.2 0-21.6-7-5.8-6.2-5.8-20v-56.2h-10.2v-16h10.2zM460.722 880V740h20v48.8q2.8-3.6 6.6-5.8 6.2-3.8 13.2-3.8 9.2 0 14.8 5.8 5.8 6 5.8 16.8V880h-20v-70.2q0-5.2-2.6-8-2.8-3-7-3-4.4 0-7.6 3.2-3.2 3.4-3.2 10v68zM555.953 837.8v12.8q0 6 2.6 8.6 2.4 2.8 7.6 2.8 5.2 0 8-4.2 1.8-3 1.8-6.8h20v.8q0 16.2-11.2 24.2-7.8 5.6-18.6 5.6-14.4 0-23-9.6-7.2-8-7.2-24v-38q0-15.6 9.8-24 7.8-6.8 19.8-6.8 12.6 0 20.8 7.2 10 8.6 10 25.4v26zm0-15.4h20.4v-13q0-5-2.8-7.8t-7.4-2.8q-5 0-7.8 3.4-2.4 2.8-2.4 8zM650.534 740h20v111.8q0 5 2.8 7.6 2.2 2 6.4 2h2V880h-5.8q-13.8 0-20.4-8.4-5-6.2-5-18.8zM730.028 880v-9.8h-.4q-2.8 4.6-6.8 7.6-4.8 3.8-11.6 3.8-9.6 0-15.2-5.2-7.2-6.8-7.2-22.8 0-17.6 6.2-24.8 7.2-8.6 23.6-8.6 5.2 0 11.4.6v-10.4q0-5.6-2.6-8.4-3-3.2-8-3.2t-8 3.6q-2.4 2.6-2.6 6.4h-19q-.2-13 8.2-21.4 8.2-8.2 22.4-8.2 13 0 21.4 8 8.2 8.2 8.2 23.4V880zm0-29.2v-14q-3.6-.6-7-.6-7.6 0-11.2 4.2-3 3.4-3 10.4 0 5 2 8.2 2.8 4.6 8 4.6 4.8 0 8-3.2 3.2-3.4 3.2-9.6zM762.288 797.8v-17h55.2v14.4l-36.6 67.8h36.6v17h-57.8v-16.4l35.4-65.8zM818.656 780.8h21.6l16.2 61.6h.8l12.4-61.6h20l-27.2 112.6q-3.8 16-9.2 21.2-6.4 6.2-20 6.2h-5.2l-.4-18.6h3.8q6.4 0 9.4-4.2 1.8-2.2 3.6-9.6l3.2-13zM976.56 880v-8.8h-.2q-2.4 4-6.8 7-5 3.4-12.2 3.4-11 0-16.6-7.6-4.6-6.2-4.6-20.6v-51.6q0-10.8 5.8-16.8 5.6-5.8 14.8-5.8 7 0 13.2 3.8 3.8 2.2 6.6 5.8V740h20v140zm0-31.2V812q0-6.6-3.2-10-3.2-3.2-7.6-3.2-4.4 0-7 3-2.6 2.8-2.6 8V850q0 6.2 2.6 9 2.6 3 7 3t7.6-3.2q3.2-3.4 3.2-10zM1011.39 848v-35.2q0-18.2 9.8-26.6 8.2-7 20.4-7t20.4 7q9.8 8.4 9.8 26.6V848q0 18.2-9.8 26.6-8.2 7-20.4 7t-20.4-7q-9.8-8.4-9.8-26.6zm40.4 1.2v-37.6q0-6.6-3-10-2.8-2.8-7.2-2.8t-7.2 2.8q-3 3.4-3 10v37.6q0 6.6 3 10 2.8 2.8 7.2 2.8t7.2-2.8q3-3.4 3-10zM1126.26 780.8h20v108.4q0 15.6-7.6 23.6-8.2 9-23 9-14.2 0-22.2-9.2-7-8-7.6-20.6h20q-.2 4.2 2.6 7.4 2.6 2.8 7.4 2.8 5.6 0 8.2-3.8 2.2-3.2 2.2-10.6V871q-2.8 3.6-6.6 5.8-6.2 3.8-13.2 3.8-9.2 0-14.8-5.8-5.8-6-5.8-16.8v-50.6q0-14.4 4.6-20.6 5.6-7.6 16.6-7.6 7.2 0 12.2 3.4 4.4 3 6.8 7h.2zm0 67V812q0-6.6-3.2-10-3.2-3.2-7.6-3.2-4.2 0-7 3-2.6 3-2.6 9V850q0 5 2.6 8 2.8 3 7 3 4.4 0 7.6-3.2 3.2-3.4 3.2-10zM1161.11 858h22v22h-22z"/></g></svg>