<svg xmlns="http://www.w3.org/2000/svg" viewBox="0 0 1600 1000" height="1000" width="1600"><path fill="#fff" d="M0 0h1600v1000H0z"/><g font-weight="400" font-size="200" font-family="Eurostile" letter-spacing="-.03em" text-anchor="middle" fill="#222"><path d="M496.14 100.664V220h-15.038V100.664h-43.457V86.7h101.562v13.964zM559.77 86.7v51.464l.293.195q5.175-13.087 28.906-13.087 35.155 0 35.155 31.25V220h-13.672v-62.305q0-21.093-21.582-21.093-17.382 0-23.24 6.25-5.86 6.152-5.86 24.61V220h-13.672V86.7zM707.773 191.777h13.965l.098 3.418q0 14.55-8.887 20.41-8.79 5.762-30.958 5.762-25.78 0-33.886-9.375-8.008-9.472-8.008-39.648 0-27.93 8.105-37.5 8.106-9.57 31.738-9.57 25.783 0 33.79 8.3 8.008 8.3 8.008 34.96v7.325H654.55q0 22.07 4.688 28.124 4.785 6.055 22.168 6.055 16.504 0 21.387-2.833 4.98-2.93 4.98-12.5zm0-26.562l-.097-4.395q0-15.136-4.98-19.63-4.98-4.588-21.485-4.588-16.6 0-21.58 5.37-4.884 5.274-4.884 23.243zM859.25 126.64v133.4h-13.672V208.67l-.293-.293q-6.152 12.987-30.664 12.987-20.214 0-28.124-10.547t-7.91-37.597q0-27.05 8.008-37.5t28.808-10.45q22.852 0 30.567 13.184l.292-.293-.684-11.523zm-41.7 9.962q-15.136 0-19.92 7.324-4.69 7.324-4.69 30.664 0 21.875 4.884 28.71 4.883 6.74 20.508 6.74 15.918 0 21.387-6.935 5.467-7.03 5.467-27.54 0-24.803-5.078-31.835-4.98-7.128-22.56-7.128zM953.348 126.64V220h-13.672l.976-12.207-.293-.293q-7.13 13.867-30.47 13.867-32.714 0-32.714-32.617v-62.11h13.672v62.11q0 12.695 4.2 16.992 4.198 4.297 16.503 4.297 16.114 0 22.07-6.35 6.056-6.444 6.056-23.534V126.64zM986.41 86.7v15.33h-13.672V86.7zm0 39.94V220h-13.672v-93.36zM1068.398 186.31h13.672l.098 5.077q0 29.98-39.257 29.98-25.195 0-33.3-9.472-8.106-9.473-8.106-39.063 0-27.734 8.203-37.598 8.3-9.96 31.446-9.96 22.754 0 31.054 6.738 8.3 6.64 8.3 25.097h-13.67v-2.442q0-10.84-5.372-14.453-5.37-3.613-21.387-3.613-15.43 0-19.824 6.836-4.394 6.835-4.394 30.664 0 23.242 4.98 29.59 5.078 6.347 23.535 6.347 15.625 0 19.824-4.102 4.2-4.2 4.2-19.63zM1108.785 86.7v77.44h6.25l33.008-37.5h17.188l-39.94 42.872L1172.456 220H1154l-39.648-45.215h-5.567V220h-13.672V86.7zM436.277 440V306.7h13.672v51.855l.292.293q4.688-13.575 30.664-13.575 20.508 0 28.32 10.645 7.813 10.645 7.813 38.574 0 26.465-8.302 36.72-8.203 10.155-29.785 10.155-21.973 0-29.297-12.988l-.39.097.683 11.523zm41.114-83.398q-16.113 0-21.58 6.933-5.47 6.836-5.47 27.344 0 25.292 4.883 32.225 4.98 6.934 22.754 6.934 15.04 0 19.824-7.032 4.884-7.13 4.884-29.102 0-23.144-4.786-30.176-4.785-7.128-20.507-7.128zM533.988 346.64h13.672l-1.367 10.743.293.293q8.105-13.184 26.758-13.184 25.78 0 25.78 26.563l-.097 6.445H585.55l.294-2.344q.293-3.71.293-4.98 0-14.356-15.625-14.356-22.852 0-22.852 28.223V440h-13.672zM644.883 345.273q25.88 0 33.594 8.985 7.714 8.984 7.714 39.062 0 30.078-7.713 39.063-7.715 8.984-33.594 8.984-25.78 0-33.496-8.984-7.715-8.985-7.715-39.063 0-30.078 7.715-39.062 7.715-8.985 33.496-8.985zm0 11.33q-18.164 0-22.56 5.956-4.296 5.858-4.296 30.76 0 24.903 4.297 30.86 4.395 5.86 22.56 5.86 18.26 0 22.557-5.86 4.396-5.957 4.396-30.86 0-24.902-4.395-30.76-4.295-5.958-22.557-5.958zM822.965 346.64L796.793 440H776.48l-12.5-51.855-3.808-15.82-1.758-7.91-1.855-7.91h-.294l-1.856 7.91-1.855 7.91-3.81 15.82L736.15 440h-20.703l-25.293-93.36h14.356l13.183 51.66 4.103 16.212 1.953 8.105 1.953 8.106h.39l1.855-8.106 1.953-8.105 3.907-16.114 12.793-51.757h19.922l12.695 51.856 3.906 16.113 1.857 8.007 1.855 8.106h.293l2.05-8.106 1.954-8.105 4.1-16.21 13.086-51.66zM829.465 346.64h13.183l-.39 12.696.39.293q6.25-14.357 31.055-14.357 20.02 0 27.05 7.032 7.13 7.03 7.13 26.953V440H894.21v-63.086q0-12.012-4.59-16.113-4.59-4.198-17.675-4.198-28.808 0-28.808 27.246V440h-13.672zM974.203 440v-82.03h-14.258v-11.33h14.258v-13.867q0-27.44 28.223-27.44 4.2 0 9.863.683v11.328q-6.642-.684-9.67-.684-14.745 0-14.745 14.844v15.137h24.414v11.33h-24.415V440zM1056.29 345.273q25.878 0 33.593 8.985 7.715 8.984 7.715 39.062 0 30.078-7.715 39.063-7.715 8.984-33.594 8.984-25.782 0-33.497-8.984-7.715-8.985-7.715-39.063 0-30.078 7.715-39.062 7.715-8.985 33.496-8.985zm0 11.33q-18.165 0-22.56 5.956-4.296 5.858-4.296 30.76 0 24.903 4.296 30.86 4.395 5.86 22.56 5.86 18.26 0 22.558-5.86 4.394-5.957 4.394-30.86 0-24.902-4.394-30.76-4.297-5.958-22.56-5.958zM1178.707 346.64l-30.273 43.946L1182.32 440h-16.308l-24.707-37.695L1116.5 440h-16.31l33.888-48.828-30.37-44.53h16.405l21.192 34.08 21.093-34.08zM398.555 526.7v15.33h-13.672V526.7zm0 39.94V672.6q0 23.144-19.24 23.144-2.83 0-6.542-.683v-9.67q1.172-.195 1.563-.195l1.758-.097 5.664-1.856q3.125-2.636 3.125-14.648V566.64zM493.043 566.64V660H479.37l.978-12.207-.293-.293q-7.13 13.867-30.47 13.867-32.714 0-32.714-32.617v-62.11h13.673v62.11q0 12.695 4.2 16.992 4.198 4.297 16.503 4.297 16.113 0 22.07-6.35 6.055-6.444 6.055-23.534V566.64zM512.434 566.64h13.67l-.292 14.063.293.293q7.91-15.723 30.47-15.723 23.73 0 28.808 15.723h.39q8.79-15.723 32.13-15.723 33.007 0 33.007 33.692V660h-13.672v-62.305q0-12.304-4.394-16.7-4.395-4.393-16.602-4.393-16.21 0-21.972 6.152-5.762 6.055-5.762 23.242V660h-13.672v-61.035l-.195-4.297q0-18.066-20.605-18.066-27.93 0-27.93 30.37V660h-13.67zM671.668 566.64h13.672l-.684 11.817.39.293q7.13-13.477 30.665-13.477 20.802 0 28.614 10.547 7.813 10.547 7.813 38.868 0 26.27-7.91 36.523-7.91 10.157-28.125 10.157-23.047 0-30.47-12.402h-.292v51.074h-13.672zm40.234 9.962q-16.406 0-21.386 7.128-4.98 7.032-4.98 30.372 0 21.582 5.37 28.808 5.37 7.13 21.582 7.13 15.43 0 20.313-6.935 4.98-6.933 4.98-28.613 0-23.828-4.784-30.86-4.785-7.03-21.094-7.03zM839.984 591.055h-13.672q0-9.766-4.003-12.11-3.908-2.343-20.314-2.343-15.234 0-19.336 2.54-4.1 2.44-4.1 11.913 0 14.355 13.768 15.04l11.035.585 13.965.683q25.39 1.27 25.39 26.563 0 15.722-8.398 21.582-8.398 5.86-30.76 5.86-22.95 0-31.642-5.567-8.594-5.566-8.594-20.41l.098-5.077h14.16l.098 4.394q0 9.18 4.687 12.305 4.688 3.027 18.457 3.027 16.895 0 22.168-3.224 5.37-3.222 5.37-13.476 0-14.746-13.378-14.746-31.152 0-41.015-5.274-9.767-5.273-9.767-21.875 0-15.722 7.715-20.898 7.813-5.274 30.957-5.274 37.11 0 37.11 22.364zM939.117 565.273q25.88 0 33.594 8.985 7.716 8.984 7.716 39.062 0 30.078-7.715 39.063-7.714 8.984-33.593 8.984-25.78 0-33.496-8.984-7.714-8.985-7.714-39.063 0-30.078 7.715-39.062 7.716-8.985 33.497-8.985zm0 11.33q-18.164 0-22.558 5.956-4.298 5.858-4.298 30.76 0 24.903 4.297 30.86 4.393 5.86 22.557 5.86 18.262 0 22.56-5.86 4.393-5.957 4.393-30.86 0-24.902-4.394-30.76-4.297-5.958-22.56-5.958zM1064.855 566.64l-31.25 93.36h-19.628l-30.957-93.36h14.062l16.504 50.782 5.176 15.918 2.44 8.008 2.54 8.007h.39l2.345-7.91 2.343-8.008 4.98-15.82 15.82-50.976zM1135.125 631.777h13.965l.098 3.418q0 14.55-8.887 20.41-8.788 5.762-30.956 5.762-25.78 0-33.887-9.375-8.008-9.472-8.008-39.648 0-27.93 8.105-37.5t31.738-9.57q25.78 0 33.79 8.3 8.007 8.3 8.007 34.96v7.325h-67.187q0 22.07 4.687 28.124 4.785 6.055 22.168 6.055 16.504 0 21.387-2.833 4.98-2.93 4.98-12.5zm0-26.562l-.098-4.395q0-15.136-4.98-19.63-4.98-4.588-21.485-4.588-16.6 0-21.582 5.37-4.883 5.274-4.883 23.243zM1165.94 566.64h13.673l-1.367 10.743.293.293q8.104-13.184 26.757-13.184 25.78 0 25.78 26.563l-.097 6.445h-13.477l.294-2.344q.292-3.71.292-4.98 0-14.356-15.626-14.356-22.85 0-22.85 28.223V660h-13.673zM392.055 786.64v11.33h-35.938v57.128q0 14.94 13.28 14.94 13.185 0 13.185-13.378l.098-4.59.195-5.175h12.695l.098 6.933q0 27.54-26.172 27.54-27.05 0-27.05-22.95v-60.45h-12.89v-11.327h12.89v-22.46h13.67v22.46zM415.45 746.7v51.464l.292.195q5.176-13.087 28.906-13.087 35.157 0 35.157 31.25V880h-13.672v-62.305q0-21.093-21.582-21.093-17.382 0-23.24 6.25-5.86 6.152-5.86 24.61V880h-13.673V746.7zM563.453 851.777h13.965l.098 3.418q0 14.55-8.887 20.41-8.79 5.762-30.958 5.762-25.78 0-33.887-9.375-8.008-9.472-8.008-39.648 0-27.93 8.106-37.5 8.105-9.57 31.738-9.57 25.782 0 33.79 8.3t8.008 34.96v7.325H510.23q0 22.07 4.688 28.124 4.785 6.055 22.168 6.055 16.504 0 21.387-2.833 4.98-2.93 4.98-12.5zm0-26.562l-.098-4.395q0-15.136-4.98-19.63-4.98-4.588-21.484-4.588-16.6 0-21.58 5.37-4.884 5.274-4.884 23.243zM650.574 746.7V880h-13.672V746.7zM683.05 812.813h-13.573q0-16.31 7.324-21.875 7.423-5.665 28.907-5.665 23.34 0 31.543 6.934 8.203 6.836 8.203 26.172V880H731.78l1.075-10.06-.293-.096q-7.812 11.523-31.738 11.523-35.35 0-35.35-28.418 0-16.895 7.91-23.34 7.91-6.446 28.612-6.446 24.61 0 29.492 9.668l.293-.098v-11.328q0-16.015-4.393-20.703-4.395-4.785-19.24-4.785-25.194 0-25.194 14.16 0 .684.098 2.734zm21.973 20.996q-15.722 0-20.507 3.32-4.688 3.32-4.688 14.257 0 11.328 4.688 15.04 4.687 3.612 19.043 3.612 28.905 0 28.905-17.58 0-11.034-5.664-14.843-5.566-3.808-21.777-3.808zM761.72 786.64h67.284v13.282l-55.664 68.75h55.664V880H757.03v-12.988l55.86-69.043h-51.17z"/><path d="M905.914 786.64l-26.465 98.73q-5.567 20.9-12.403 28.712-6.738 7.813-19.336 7.813-2.538 0-6.542-.684v-11.327q2.832.586 4.785.683 11.035.586 16.406-17.87l2.636-9.18q.098-.49.88-3.516h-5.177l-33.79-93.36h14.55l14.356 41.602 7.227 20.703 3.516 10.45 3.612 10.35h.39l2.54-10.35 2.44-10.45 5.274-20.703 10.547-41.6zM1033.367 746.7V880h-13.672l.684-12.11-.392-.097q-6.445 13.574-29.98 13.574-21.485 0-29.395-10.45-7.812-10.448-7.812-38.964 0-26.27 7.91-36.426 7.91-10.254 28.32-10.254 25.49 0 30.372 13.184l.293-.195V746.7zM992.254 796.6q-15.137 0-20.117 7.03-4.98 6.934-4.98 28.223 0 23.438 4.882 30.86 4.98 7.324 20.507 7.324 16.894 0 21.972-7.325 5.078-7.422 5.078-32.13 0-20.02-5.664-26.952-5.567-7.03-21.68-7.03zM1089.867 785.273q25.88 0 33.594 8.985 7.716 8.984 7.716 39.062 0 30.078-7.715 39.063-7.714 8.984-33.593 8.984-25.78 0-33.496-8.984-7.714-8.985-7.714-39.063 0-30.078 7.715-39.062 7.716-8.985 33.497-8.985zm0 11.33q-18.164 0-22.558 5.956-4.298 5.858-4.298 30.76 0 24.903 4.297 30.86 4.393 5.86 22.557 5.86 18.262 0 22.56-5.86 4.393-5.957 4.393-30.86 0-24.902-4.394-30.76-4.297-5.958-22.56-5.958zM1224.59 786.64v99.415q0 20.312-8.79 27.93-8.788 7.617-32.226 7.617-20.898 0-28.515-6.446-7.62-6.445-7.62-24.12h13.185q0 12.01 4.395 15.624 4.492 3.613 19.53 3.613 15.626 0 20.997-4.687 5.37-4.688 5.37-18.36v-18.75l-.292-.097q-5.273 12.987-30.47 12.987-20.702 0-28.514-10.156-7.812-10.253-7.812-37.304 0-28.027 7.91-38.28 8.008-10.353 29.59-10.353 22.95 0 29.98 14.063l.294-.098-.684-12.597zm-40.723 9.962q-16.113 0-20.898 6.836-4.786 6.738-4.786 29.687 0 23.145 4.785 30.078 4.784 6.836 20.897 6.836 16.31 0 21.485-7.52 5.175-7.618 5.175-31.543 0-21.094-5.175-27.735-5.176-6.64-21.485-6.64zM1257.457 862.03V880h-15.04v-17.97z"/></g></svg>