<svg xmlns="http://www.w3.org/2000/svg" viewBox="0 0 800 500" height="500" width="800"><path fill="#fff" d="M0 0h800v500H0z"/><g font-weight="400" font-size="100" font-family="Eurostile" letter-spacing="-.03em" text-anchor="middle" fill="#222"><path d="M248.07 50.332V110h-7.52V50.332h-21.728V43.35h50.782v6.982zM279.885 43.35v25.732l.146.098q2.59-6.543 14.454-6.543 17.58 0 17.58 15.625V110h-6.837V78.848q0-10.547-10.79-10.547-8.693 0-11.623 3.126-2.93 3.076-2.93 12.304V110h-6.835V43.35zM353.887 95.89h6.982l.048 1.708q0 7.275-4.443 10.205-4.395 2.88-15.48 2.88-12.89 0-16.942-4.687-4.004-4.736-4.004-19.824 0-13.965 4.052-18.75t15.87-4.785q12.89 0 16.893 4.15 4.004 4.15 4.004 17.48v3.663h-33.595q0 11.035 2.344 14.062 2.392 3.028 11.083 3.028 8.252 0 10.693-1.416 2.49-1.465 2.49-6.25zm0-13.283l-.05-2.197q0-7.568-2.49-9.814-2.49-2.295-10.74-2.295-8.302 0-10.793 2.686-2.44 2.637-2.44 11.62zM429.625 63.32v66.7h-6.836v-25.684l-.147-.147q-3.077 6.494-15.332 6.494-10.107 0-14.062-5.274-3.955-5.273-3.955-18.8 0-13.524 4.004-18.75 4.004-5.223 14.404-5.223 11.427 0 15.284 6.592l.147-.148-.34-5.762zm-20.85 4.98q-7.568 0-9.96 3.663-2.344 3.662-2.344 15.332 0 10.937 2.442 14.355 2.442 3.37 10.254 3.37 7.96 0 10.693-3.467 2.734-3.516 2.734-13.77 0-12.402-2.54-15.918-2.49-3.564-11.28-3.564zM476.674 63.32V110h-6.836l.488-6.104-.146-.146q-3.565 6.934-15.235 6.934-16.357 0-16.357-16.31V63.32h6.836v31.055q0 6.348 2.1 8.496 2.1 2.15 8.25 2.15 8.058 0 11.037-3.174 3.028-3.223 3.028-11.768V63.32zM493.205 43.35v7.666h-6.836V43.35zm0 19.97V110h-6.836V63.32zM534.2 93.154h6.835l.05 2.54q0 14.99-19.63 14.99-12.598 0-16.65-4.737-4.053-4.736-4.053-19.53 0-13.868 4.102-18.8 4.15-4.98 15.722-4.98 11.377 0 15.527 3.37 4.15 3.32 4.15 12.548h-6.835v-1.22q0-5.42-2.686-7.228-2.685-1.806-10.693-1.806-7.716 0-9.913 3.42-2.197 3.417-2.197 15.33 0 11.622 2.49 14.796 2.54 3.174 11.767 3.174 7.813 0 9.913-2.05 2.1-2.1 2.1-9.816zM554.393 43.35v38.72h3.125l16.503-18.75h8.595l-19.97 21.436L586.23 110H577l-19.824-22.607h-2.783V110h-6.836V43.35zM218.14 220v-66.65h6.835v25.927l.146.147q2.345-6.787 15.333-6.787 10.254 0 14.16 5.322 3.907 5.32 3.907 19.286 0 13.233-4.15 18.36-4.102 5.078-14.893 5.078-10.987 0-14.65-6.495l-.194.048.342 5.762zm20.555-41.7q-8.056 0-10.79 3.468-2.735 3.418-2.735 13.67 0 12.648 2.44 16.115 2.492 3.467 11.378 3.467 7.52 0 9.912-3.516 2.442-3.565 2.442-14.55 0-11.573-2.393-15.09-2.393-3.563-10.255-3.563zM266.994 173.32h6.836l-.684 5.37.147.148q4.053-6.592 13.38-6.592 12.89 0 12.89 13.28l-.05 3.224h-6.738l.147-1.172q.146-1.855.146-2.49 0-7.178-7.812-7.178-11.426 0-11.426 14.11V220h-6.836zM322.44 172.637q12.94 0 16.798 4.492 3.858 4.49 3.858 19.53 0 15.04-3.858 19.53-3.857 4.494-16.797 4.494-12.89 0-16.747-4.493-3.857-4.49-3.857-19.53 0-15.04 3.857-19.53 3.858-4.493 16.748-4.493zm0 5.664q-9.08 0-11.278 2.98-2.148 2.93-2.148 15.38 0 12.45 2.148 15.43 2.197 2.93 11.28 2.93 9.13 0 11.28-2.93 2.196-2.98 2.196-15.43t-2.197-15.38q-2.148-2.98-11.28-2.98zM411.482 173.32L398.396 220H388.24l-6.25-25.928-1.904-7.91-.88-3.955-.927-3.955h-.147l-.928 3.955-.928 3.955-1.904 7.91-6.3 25.928h-10.35l-12.647-46.68h7.178l6.592 25.83 2.05 8.106.977 4.053.977 4.05h.195l.928-4.05.976-4.054 1.952-8.057 6.397-25.88h9.96l6.347 25.928 1.954 8.057.928 4.004.928 4.05h.147l1.025-4.05.976-4.054 2.05-8.106 6.544-25.83zM414.732 173.32h6.592l-.195 6.348.194.146q3.125-7.177 15.528-7.177 10.01 0 13.525 3.515 3.564 3.516 3.564 13.477V220h-6.835v-31.543q0-6.006-2.294-8.057-2.294-2.1-8.837-2.1-14.405 0-14.405 13.624V220h-6.836zM487.102 220v-41.016h-7.13v-5.664h7.13v-6.933q0-13.72 14.11-13.72 2.1 0 4.933.34v5.665q-3.32-.342-4.834-.342-7.372 0-7.372 7.422v7.568h12.207v5.664h-12.207V220zM528.145 172.637q12.94 0 16.796 4.492 3.86 4.49 3.86 19.53 0 15.04-3.86 19.53-3.856 4.494-16.795 4.494-12.89 0-16.75-4.493-3.856-4.49-3.856-19.53 0-15.04 3.856-19.53 3.858-4.493 16.75-4.493zm0 5.664q-9.082 0-11.28 2.98-2.148 2.93-2.148 15.38 0 12.45 2.148 15.43 2.197 2.93 11.28 2.93 9.13 0 11.28-2.93 2.196-2.98 2.196-15.43t-2.196-15.38q-2.15-2.98-11.28-2.98zM589.354 173.32l-15.137 21.973L591.16 220h-8.154l-12.354-18.848L558.25 220h-8.154l16.943-24.414-15.186-22.266h8.203l10.595 17.04 10.547-17.04zM199.277 263.35v7.666h-6.836v-7.666zm0 19.97V336.3q0 11.57-9.62 11.57-1.415 0-3.27-.34v-4.835q.586-.097.78-.097l.88-.05 2.832-.927q1.56-1.317 1.56-7.323V283.32zM246.52 283.32V330h-6.834l.488-6.104-.147-.146q-3.564 6.934-15.234 6.934-16.357 0-16.357-16.31V283.32h6.835v31.055q0 6.348 2.1 8.496 2.1 2.15 8.253 2.15 8.057 0 11.035-3.174 3.028-3.223 3.028-11.768V283.32zM256.217 283.32h6.836l-.147 7.032.147.146q3.955-7.86 15.234-7.86 11.865 0 14.404 7.86h.197q4.394-7.86 16.064-7.86 16.505 0 16.505 16.844V330h-6.836v-31.152q0-6.153-2.198-8.35-2.197-2.197-8.3-2.197-8.106 0-10.987 3.077-2.88 3.027-2.88 11.62V330h-6.837v-30.518l-.098-2.148q0-9.033-10.302-9.033-13.965 0-13.965 15.186V330h-6.836zM335.834 283.32h6.836l-.342 5.91.195.145q3.565-6.738 15.332-6.738 10.4 0 14.307 5.273 3.906 5.274 3.906 19.434 0 13.135-3.955 18.26-3.955 5.08-14.062 5.08-11.523 0-15.234-6.202h-.146v25.538h-6.836zm20.117 4.98q-8.202 0-10.692 3.565-2.49 3.516-2.49 15.186 0 10.792 2.685 14.405 2.686 3.565 10.79 3.565 7.716 0 10.157-3.467 2.49-3.467 2.49-14.307 0-11.914-2.392-15.43-2.393-3.515-10.547-3.515zM419.992 295.527h-6.836q0-4.882-2.002-6.054-1.953-1.172-10.156-1.172-7.617 0-9.668 1.27-2.05 1.22-2.05 5.957 0 7.178 6.884 7.52l5.518.293 6.982.342q12.695.634 12.695 13.28 0 7.862-4.2 10.792-4.2 2.93-15.38 2.93-11.475 0-15.82-2.784-4.298-2.783-4.298-10.205l.05-2.54h7.08l.048 2.2q0 4.588 2.344 6.15 2.343 1.515 9.228 1.515 8.447 0 11.084-1.612 2.686-1.61 2.686-6.738 0-7.373-6.69-7.373-15.576 0-20.508-2.637-4.882-2.637-4.882-10.937 0-7.862 3.857-10.45 3.905-2.636 15.477-2.636 18.555 0 18.555 11.18zM469.56 282.637q12.938 0 16.795 4.492 3.858 4.49 3.858 19.53 0 15.04-3.858 19.53-3.857 4.494-16.796 4.494-12.892 0-16.75-4.493-3.857-4.49-3.857-19.53 0-15.04 3.858-19.53 3.858-4.493 16.75-4.493zm0 5.664q-9.083 0-11.28 2.98-2.15 2.93-2.15 15.38 0 12.45 2.15 15.43 2.197 2.93 11.28 2.93 9.13 0 11.278-2.93 2.197-2.98 2.197-15.43t-2.197-15.38q-2.15-2.98-11.28-2.98zM532.428 283.32L516.803 330h-9.815l-15.478-46.68h7.03l8.253 25.39 2.588 7.96 1.222 4.004 1.27 4.004h.194l1.172-3.955 1.172-4.004 2.49-7.91 7.91-25.49zM567.563 315.89h6.982l.05 1.708q0 7.275-4.445 10.205-4.394 2.88-15.478 2.88-12.89 0-16.944-4.687-4.003-4.736-4.003-19.824 0-13.965 4.052-18.75 4.053-4.785 15.87-4.785 12.89 0 16.894 4.15 4.005 4.15 4.005 17.48v3.663H540.95q0 11.035 2.345 14.062 2.392 3.028 11.084 3.028 8.25 0 10.692-1.416 2.49-1.465 2.49-6.25zm0-13.283l-.05-2.197q0-7.568-2.49-9.814-2.49-2.295-10.742-2.295-8.3 0-10.79 2.686-2.44 2.637-2.44 11.62zM582.97 283.32h6.837l-.684 5.37.147.148q4.052-6.592 13.378-6.592 12.89 0 12.89 13.28l-.048 3.224h-6.738l.146-1.172q.147-1.855.147-2.49 0-7.178-7.813-7.178-11.425 0-11.425 14.11V330h-6.836zM196.027 393.32v5.664H178.06v28.565q0 7.47 6.64 7.47 6.59 0 6.59-6.69l.05-2.295.098-2.588h6.347l.05 3.467q0 13.77-13.087 13.77-13.525 0-13.525-11.475v-30.226h-6.446v-5.664h6.446v-11.23h6.836v11.23zM207.725 373.35v25.732l.146.098q2.59-6.543 14.454-6.543 17.578 0 17.578 15.625V440h-6.836v-31.152q0-10.547-10.79-10.547-8.692 0-11.622 3.126-2.93 3.076-2.93 12.304V440h-6.835v-66.65zM281.727 425.89h6.982l.048 1.708q0 7.275-4.444 10.205-4.394 2.88-15.478 2.88-12.89 0-16.943-4.687-4.004-4.736-4.004-19.824 0-13.965 4.05-18.75 4.054-4.785 15.87-4.785 12.89 0 16.895 4.15 4.004 4.15 4.004 17.48v3.663h-33.595q0 11.035 2.344 14.062 2.392 3.028 11.083 3.028 8.252 0 10.693-1.416 2.49-1.465 2.49-6.25zm0-13.283l-.05-2.197q0-7.568-2.49-9.814-2.49-2.295-10.742-2.295-8.3 0-10.79 2.686-2.442 2.637-2.442 11.62zM325.287 373.35V440h-6.836v-66.65zM341.525 406.406h-6.787q0-8.154 3.662-10.937 3.71-2.833 14.454-2.833 11.67 0 15.77 3.467 4.103 3.417 4.103 13.085V440h-6.836l.538-5.03-.147-.048q-3.905 5.762-15.868 5.762-17.676 0-17.676-14.21 0-8.447 3.955-11.67 3.956-3.222 14.308-3.222 12.305 0 14.746 4.834l.147-.05v-5.663q0-8.008-2.197-10.35-2.197-2.394-9.62-2.394-12.596 0-12.596 7.08 0 .34.048 1.366zm10.987 10.498q-7.862 0-10.254 1.66-2.344 1.66-2.344 7.13 0 5.663 2.344 7.52 2.344 1.806 9.52 1.806 14.454 0 14.454-8.79 0-5.517-2.832-7.42-2.783-1.906-10.888-1.906zM380.86 393.32H414.5v6.64l-27.832 34.376h27.832V440h-35.986v-6.494l27.93-34.522h-25.587z"/><path d="M452.957 393.32l-13.232 49.366q-2.784 10.45-6.202 14.355-3.37 3.907-9.668 3.907-1.27 0-3.27-.342v-5.664q1.415.294 2.392.343 5.517.293 8.203-8.935l1.318-4.59q.05-.244.44-1.758h-2.588l-16.895-46.68h7.275l7.178 20.8 3.613 10.353 1.76 5.224 1.806 5.176h.195l1.27-5.176 1.22-5.224 2.638-10.352 5.274-20.8zM516.684 373.35V440h-6.836l.34-6.055-.194-.048q-3.223 6.787-14.99 6.787-10.742 0-14.697-5.225-3.907-5.226-3.907-19.483 0-13.135 3.955-18.213 3.956-5.127 14.16-5.127 12.745 0 15.186 6.592l.148-.1v-25.78zm-20.557 24.95q-7.568 0-10.06 3.516-2.49 3.467-2.49 14.112 0 11.718 2.443 15.43 2.49 3.662 10.253 3.662 8.448 0 10.987-3.663 2.54-3.71 2.54-16.064 0-10.01-2.833-13.477-2.783-3.515-10.84-3.515zM544.934 392.637q12.94 0 16.796 4.492 3.858 4.49 3.858 19.53 0 15.04-3.858 19.53-3.857 4.494-16.796 4.494-12.89 0-16.748-4.493-3.858-4.49-3.858-19.53 0-15.04 3.858-19.53 3.857-4.493 16.748-4.493zm0 5.664q-9.082 0-11.28 2.98-2.148 2.93-2.148 15.38 0 12.45 2.148 15.43 2.198 2.93 11.28 2.93 9.13 0 11.28-2.93 2.196-2.98 2.196-15.43t-2.197-15.38q-2.15-2.98-11.28-2.98zM612.295 393.32v49.707q0 10.157-4.395 13.965-4.394 3.81-16.113 3.81-10.45 0-14.258-3.224-3.81-3.223-3.81-12.06h6.593q0 6.005 2.197 7.812 2.246 1.807 9.765 1.807 7.813 0 10.498-2.344 2.686-2.344 2.686-9.18v-9.375l-.147-.05q-2.637 6.496-15.235 6.496-10.35 0-14.258-5.08-3.906-5.125-3.906-18.65 0-14.015 3.955-19.14 4.003-5.177 14.794-5.177 11.475 0 14.99 7.03l.147-.048-.34-6.3zm-20.36 4.98q-8.058 0-10.45 3.42-2.393 3.368-2.393 14.843 0 11.572 2.392 15.04 2.393 3.417 10.45 3.417 8.154 0 10.742-3.76 2.588-3.81 2.588-15.772 0-10.547-2.588-13.867-2.588-3.32-10.742-3.32zM628.73 431.016V440h-7.52v-8.984z"/></g></svg>