<svg xmlns="http://www.w3.org/2000/svg" viewBox="0 0 800 500"><path fill="#fff" d="M0 0h800v500H0z"/><g font-weight="400" font-size="100" font-family="Franklin Gothic" letter-spacing="-.03em" text-anchor="middle" fill="#222"><path d="M238.695 110h-8.3V50.674h-19.092V43.35h46.533v7.324h-19.14zM302.248 110h-7.666V80.068q0-5.273-.684-7.91-.634-2.637-3.125-4.54-2.44-1.954-5.664-1.954-5.91 0-9.913 4.834-3.955 4.834-3.955 12.94V110h-7.666V43.35h7.666v26.416q5.225-10.45 14.942-10.45 4.345 0 7.714 1.71 3.418 1.708 5.225 4.492 1.807 2.783 2.44 5.517.685 2.686.685 9.033zM347.246 95.303l7.13 1.465q-1.954 6.298-7.618 10.45-5.664 4.1-13.33 4.1-10.108 0-16.358-7.08-6.25-7.13-6.25-18.652 0-11.768 6.494-18.994 6.495-7.276 16.31-7.276 9.667 0 15.526 6.69 5.91 6.69 6.055 20.02h-35.84q0 11.18 4.688 15.087 4.687 3.907 9.912 3.907 9.424 0 13.28-9.717zm-.44-14.99q-.097-4.15-1.367-7.374-1.27-3.223-4.297-5.47-3.028-2.294-7.276-2.294-5.713 0-9.717 4.1-3.955 4.103-4.443 11.037zM424.06 60v66.65h-7.667v-25.634q-4.834 10.302-14.893 10.302-8.398 0-13.965-6.738-5.566-6.787-5.566-18.848 0-11.474 5.565-18.945 5.567-7.47 14.65-7.47 4.295 0 7.81 1.708 3.566 1.71 7.18 7.715L420.2 60zm-7.667 21.484q-.635-8.69-4.688-12.255-4.004-3.566-8.496-3.566-5.714 0-9.278 5.42-3.565 5.42-3.565 14.307 0 8.692 3.37 14.063 3.417 5.322 9.325 5.322 5.958 0 9.62-5.078 3.71-5.127 3.71-11.67zM474.184 110H467.3v-9.424q-5.275 10.742-15.724 10.742-7.568 0-11.914-4.98-4.297-4.98-4.297-14.16V60.684h7.666v31.494q0 7.324 3.03 10.107 3.075 2.735 6.737 2.735 3.71 0 6.69-2.1 3.027-2.1 5.03-5.957 2-3.906 2-8.496V60.684h7.667zM494.377 43.35v8.496h-8.252V43.35zm-.244 17.334V110h-7.666V60.684zM535.664 92.715l6.934 1.22q-1.465 8.155-6.494 12.794-5.03 4.588-12.55 4.588-10.204 0-15.575-7.52-5.324-7.52-5.324-18.36 0-11.23 5.615-18.65 5.666-7.472 15.382-7.472 8.057 0 12.89 4.834 4.884 4.786 6.056 12.403l-6.934 1.318q-1.953-12.206-11.816-12.206-6.348 0-9.766 5.42-3.418 5.37-3.418 13.965 0 9.47 3.37 14.745 3.417 5.225 9.57 5.225 9.52 0 12.06-12.305zM590.916 110h-7.96l-14.403-27.54-10.694 12.306V110h-7.667V43.35h7.666v42.675l22.9-25.34h8.203l-15.43 17.333zM223.9 220h-3.71v-66.65h7.665v25.537q5.274-9.57 14.55-9.57 8.497 0 14.21 6.69 5.762 6.688 5.762 19.432 0 10.986-5.664 18.456-5.615 7.422-14.65 7.422-10.057 0-15.428-9.472zm3.955-19.336q.538 7.568 4.64 10.986 4.15 3.418 8.74 3.418 5.86 0 9.423-5.078 3.613-5.078 3.613-13.916 0-9.52-3.465-14.94-3.467-5.47-9.62-5.47-4.833 0-8.74 3.906-3.857 3.858-4.59 10.01zM278.566 220H270.9v-49.316h6.74v11.523q3.563-8.154 7.128-10.547 3.613-2.44 7.373-2.44 1.173 0 3.028.194v7.324h-1.563q-6.347 0-10.546 4.737-4.2 4.736-4.494 12.45zM316.826 221.318q-10.156 0-15.87-7.52-5.663-7.52-5.663-18.652 0-11.767 6.396-18.798 6.396-7.032 15.917-7.032 10.205 0 16.065 7.422 5.908 7.373 5.908 18.457 0 11.524-6.348 18.848-6.347 7.275-16.406 7.275zm.586-6.298q5.86 0 9.815-4.834 3.955-4.834 3.955-15.04 0-10.253-4.15-14.843-4.15-4.64-9.718-4.64-5.712 0-9.668 4.69-3.955 4.637-3.955 14.745 0 10.693 3.956 15.332 3.956 4.59 9.766 4.59zM403.572 170.684L389.362 220h-6.2l-11.035-36.62L362.02 220h-6.3l-14.794-49.316h7.715l10.694 36.767 10.254-36.766h5.615l11.084 36.914 11.084-36.914zM449.01 220h-7.178v-31.69q0-6.835-2.978-9.62-2.98-2.782-7.227-2.782-5.86 0-9.863 4.688-3.955 4.687-3.955 12.353V220h-7.667v-49.316h7.128v9.082q6.007-10.45 15.578-10.45 5.517 0 9.375 2.88 3.906 2.833 5.322 6.398 1.465 3.564 1.465 12.89zM503.898 170.684v6.005H492.18V220h-7.666v-43.31h-8.4v-6.006h8.4q.195-11.866 4.54-15.284 4.395-3.418 10.694-3.418 3.076 0 7.03.684v6.104q-2.49-.635-4.735-.635-5.03 0-7.47 2.246-2.393 2.198-2.393 8.302v2.002zM525.85 221.318q-10.157 0-15.87-7.52-5.664-7.52-5.664-18.652 0-11.767 6.397-18.798 6.396-7.032 15.918-7.032 10.206 0 16.065 7.422 5.91 7.373 5.91 18.457 0 11.524-6.35 18.848-6.347 7.275-16.405 7.275zm.586-6.298q5.86 0 9.814-4.834 3.955-4.834 3.955-15.04 0-10.253-4.15-14.843-4.15-4.64-9.717-4.64-5.713 0-9.668 4.69-3.955 4.637-3.955 14.745 0 10.693 3.955 15.332 3.955 4.59 9.766 4.59zM590.135 220h-8.838l-12.55-20.02-12.84 20.02h-7.47l16.6-25.586-14.99-23.73h8.838l10.547 16.845 10.742-16.846h7.373l-14.356 22.07zM199.96 263.35v8.496h-8.69v-8.496zm-.39 16.796v51.368q0 8.69-4.15 12.11-4.102 3.417-10.06 3.417-2.928 0-7.176-1.024v-6.055q3.173.782 5.615.782 4.345 0 6.2-2.1 1.904-2.05 1.904-7.128v-51.368zM250.574 330h-6.885v-9.424q-5.274 10.742-15.723 10.742-7.57 0-11.914-4.98-4.297-4.98-4.297-14.16v-31.494h7.666v31.494q0 7.324 3.027 10.107 3.075 2.735 6.738 2.735 3.71 0 6.69-2.1 3.026-2.1 5.028-5.957 2.002-3.906 2.002-8.496v-27.783h7.666zM328.922 330h-7.47v-30.664q0-4.736-.684-7.08-.635-2.393-3.174-4.346-2.54-2.002-5.713-2.002-4.394 0-8.495 4.053-4.053 4.005-4.053 12.257V330h-7.422v-32.47q0-6.495-3.125-9.18-3.076-2.686-6.494-2.686-4.882 0-8.495 4.2-3.613 4.2-3.613 10.644V330h-7.325v-49.316h6.592v9.472q5.517-10.84 15.185-10.84 5.322 0 9.033 3.467 3.71 3.467 4.785 8.35 5.078-11.817 15.576-11.817 5.03 0 8.788 2.88 3.81 2.882 4.932 6.642 1.172 3.71 1.172 10.498zM348.188 346.65h-7.667v-65.966h6.886v9.57q5.225-10.938 15.576-10.938 8.74 0 14.112 7.325 5.37 7.276 5.37 18.458 0 12.06-5.517 19.14t-14.16 7.08q-9.277 0-14.6-8.838zm0-48.437v13.867q.732 5.615 4.736 9.277 4.004 3.663 8.35 3.663 5.03 0 8.886-4.395 3.906-4.395 3.906-15.186 0-9.327-3.515-14.356-3.515-5.078-9.325-5.078-4.59 0-8.252 3.564-3.614 3.565-4.785 8.643zM384.396 317.207l7.325-1.514q2.442 9.327 15.43 9.327 4.786 0 8.106-2.15 3.32-2.147 3.32-6.054 0-5.81-8.447-7.373l-10.4-1.953q-6.105-1.172-9.718-4.59-3.614-3.418-3.614-9.033 0-6.2 4.932-10.35 4.932-4.2 13.28-4.2 16.066 0 19.826 12.548l-7.032 1.514q-3.027-7.716-12.45-7.716-4.688 0-7.716 1.953-2.978 1.904-2.978 5.37 0 5.47 7.666 6.886l9.62 1.71q15.087 2.733 15.087 14.6 0 6.786-5.615 10.985-5.616 4.15-14.942 4.15-17.53 0-21.68-14.11zM474.197 331.318q-10.156 0-15.87-7.52-5.663-7.52-5.663-18.652 0-11.767 6.397-18.798 6.397-7.032 15.92-7.032 10.204 0 16.063 7.422 5.908 7.373 5.908 18.457 0 11.524-6.346 18.848-6.348 7.275-16.407 7.275zm.586-6.298q5.86 0 9.815-4.834 3.955-4.834 3.955-15.04 0-10.253-4.15-14.843-4.15-4.64-9.717-4.64-5.713 0-9.668 4.69-3.956 4.637-3.956 14.745 0 10.693 3.956 15.332 3.955 4.59 9.765 4.59zM539.85 280.684L522.81 330h-7.96l-17.627-49.316h8.496l13.72 40.087 13.574-40.086zM576.84 315.303l7.13 1.465q-1.954 6.298-7.618 10.45-5.665 4.1-13.33 4.1-10.108 0-16.358-7.08-6.25-7.13-6.25-18.652 0-11.768 6.494-18.994 6.494-7.276 16.31-7.276 9.667 0 15.526 6.69 5.908 6.69 6.055 20.02h-35.84q0 11.18 4.686 15.087 4.688 3.907 9.913 3.907 9.422 0 13.28-9.717zm-.44-14.99q-.097-4.15-1.367-7.374-1.27-3.223-4.297-5.47-3.027-2.294-7.275-2.294-5.712 0-9.716 4.1-3.955 4.103-4.443 11.037zM601.086 330h-7.666v-49.316h6.738v11.523q3.565-8.154 7.13-10.547 3.612-2.44 7.372-2.44 1.172 0 3.028.194v7.324h-1.563q-6.348 0-10.547 4.737-4.2 4.736-4.492 12.45zM184.455 434.727v6.054q-4.053.538-7.03.538-14.308 0-14.308-14.94v-29.69h-8.74v-6.004h8.74l.342-12.403 7.128-.682v13.086h11.035v6.005h-11.035v30.956q0 7.618 7.91 7.618 2.637 0 5.957-.537zM228.623 440h-7.666v-29.932q0-5.273-.684-7.91-.634-2.637-3.125-4.54-2.44-1.954-5.664-1.954-5.908 0-9.912 4.834-3.955 4.834-3.955 12.94V440h-7.666v-66.65h7.667v26.416q5.225-10.45 14.942-10.45 4.344 0 7.713 1.71 3.418 1.708 5.225 4.492 1.807 2.783 2.44 5.517.685 2.686.685 9.033zM273.62 425.303l7.13 1.465q-1.953 6.298-7.617 10.45-5.664 4.1-13.33 4.1-10.108 0-16.358-7.08-6.25-7.13-6.25-18.652 0-11.768 6.494-18.994 6.494-7.276 16.308-7.276 9.668 0 15.527 6.69 5.91 6.69 6.055 20.02h-35.84q0 11.18 4.688 15.087 4.687 3.907 9.912 3.907 9.424 0 13.28-9.717zm-.438-14.99q-.098-4.15-1.368-7.374-1.27-3.223-4.296-5.47-3.028-2.294-7.276-2.294-5.713 0-9.717 4.1-3.955 4.103-4.443 11.037zM319.867 440H312.2v-66.65h7.667zM370.87 440h-7.616q-.44-2.344-.88-8.887-5.077 10.205-17.284 10.205-8.3 0-12.744-4.394-4.444-4.395-4.444-10.547 0-7.47 6.348-12.256 6.348-4.833 21.582-4.833 2.05 0 6.543.195 0-5.86-.928-8.447-.88-2.637-3.808-4.2-2.93-1.562-7.716-1.562-11.67 0-13.574 8.887l-7.08-1.22q2.587-13.624 21.777-13.624 10.205 0 14.453 4.54 4.297 4.494 4.297 15.626v20.948q0 5.224 1.074 9.57zm-8.495-24.658q-4.688-.293-7.13-.293-9.08 0-14.11 2.977-5.03 2.98-5.03 8.692 0 3.612 2.686 6.15 2.735 2.54 7.862 2.54 6.934 0 11.377-5.03 4.49-5.028 4.49-11.816 0-1.367-.145-3.222zM414.16 434.092V440h-36.328v-5.908l26.22-37.403h-24.218v-6.006h34.326v4.15l-27.148 39.258zM455.398 390.684l-19.775 55.078q-4.297 11.914-13.72 11.914-2.98 0-6.592-1.026v-6.005q2.98.683 5.127.683 3.663 0 6.104-2.1 2.49-2.1 4.933-10.156l-17.04-48.388h7.81l13.185 37.06 13.525-37.06zM520.688 373.35V440h-6.983v-8.447q-5.176 9.765-15.576 9.765-8.644 0-14.21-7.226-5.566-7.276-5.566-18.36 0-11.328 5.517-18.847 5.52-7.57 14.65-7.57 8.886 0 14.5 8.107V373.35zm-7.667 36.377q0-6.495-3.954-10.4-3.955-3.907-9.228-3.907-5.713 0-9.424 5.078-3.662 5.078-3.662 14.258 0 9.912 3.37 15.088 3.417 5.176 9.325 5.176 5.37 0 9.473-4.493 4.1-4.492 4.1-10.547zM550.744 441.318q-10.156 0-15.87-7.52-5.663-7.52-5.663-18.652 0-11.767 6.397-18.798 6.397-7.032 15.918-7.032 10.205 0 16.065 7.422 5.908 7.373 5.908 18.457 0 11.524-6.348 18.848-6.347 7.275-16.406 7.275zm.586-6.298q5.86 0 9.815-4.834 3.955-4.834 3.955-15.04 0-10.253-4.15-14.843-4.15-4.64-9.718-4.64-5.712 0-9.668 4.69-3.955 4.637-3.955 14.745 0 10.693 3.954 15.332 3.956 4.59 9.766 4.59zM622.305 382.97v6.102q-5.274 0-7.08 1.22-1.758 1.222-2.344 4.396 4.737 5.468 4.737 11.914 0 6.738-5.176 11.572-5.126 4.834-13.817 4.834-1.953 0-3.37-.293-2.685-.537-3.368-.537-1.32 0-3.174 1.318-1.855 1.27-1.855 3.32 0 2.93 2.686 3.81 2.687.878 12.648 1.122 8.447.244 12.45 1.172 4.053.88 6.837 4.004 2.783 3.076 2.783 7.568 0 14.112-24.805 14.112-11.767 0-17.187-3.565-5.37-3.517-5.37-9.425 0-7.178 7.518-9.863-4.834-3.174-4.834-7.96 0-5.712 6.836-8.74-6.396-5.175-6.396-13.036 0-7.325 5.468-12.012 5.47-4.688 13.33-4.688 5.567 0 10.108 2.1.732-4.834 3.37-6.69 2.684-1.855 8.104-1.855.538 0 1.905.1zm-23.438 34.178q4.883 0 7.96-2.978 3.075-3.027 3.075-7.813 0-4.882-3.222-7.96-3.174-3.124-7.715-3.124-4.346 0-7.715 2.93-3.37 2.88-3.37 8.252 0 4.785 3.028 7.764 3.028 2.928 7.96 2.928zm-9.18 20.85q-5.37 2.344-5.37 6.787 0 3.76 4.394 5.81 4.444 2.1 11.28 2.1 6.348 0 11.62-1.806 5.275-1.76 5.275-6.007 0-2.295-1.563-3.76-1.562-1.465-4.297-1.855-2.685-.39-9.423-.586-8.057-.196-11.914-.684zM638.543 429.063V440h-10.89v-10.938z"/></g></svg>