<svg xmlns="http://www.w3.org/2000/svg" viewBox="0 0 1600 1000" height="1000" width="1600"><path fill="#fff" d="M0 0h1600v1000H0z"/><g font-weight="400" font-size="200" font-family="Franklin Gothic" letter-spacing="-.03em" text-anchor="middle" fill="#222"><path d="M477.39 220h-16.6V101.348h-38.185v-14.65h93.067v14.65h-38.28zM604.496 220h-15.332v-59.863q0-10.547-1.367-15.82-1.27-5.274-6.25-9.083-4.883-3.906-11.328-3.906-11.818 0-19.825 9.668-7.91 9.668-7.91 25.88V220H527.15V86.7h15.332v52.83q10.45-20.897 29.883-20.897 8.692 0 15.43 3.418 6.836 3.42 10.45 8.985 3.612 5.567 4.882 11.035 1.366 5.37 1.366 18.067zM694.492 190.605l14.258 2.93q-3.906 12.598-15.234 20.9-11.328 8.202-26.66 8.202-20.215 0-32.715-14.16-12.5-14.258-12.5-37.305 0-23.535 12.99-37.988 12.987-14.55 32.616-14.55 19.336 0 31.055 13.378 11.817 13.38 12.11 40.04h-71.68q0 22.362 9.375 30.175 9.375 7.812 19.825 7.812 18.847 0 26.562-19.435zm-.88-29.98q-.194-8.3-2.733-14.746-2.54-6.446-8.595-10.94-6.055-4.588-14.55-4.588-11.426 0-19.434 8.203-7.91 8.203-8.886 22.07zM848.117 120v133.3h-15.332v-51.27q-9.668 20.607-29.785 20.607-16.797 0-27.93-13.477-11.133-13.574-11.133-37.695 0-22.95 11.133-37.89 11.133-14.942 29.297-14.942 8.594 0 15.625 3.418 7.13 3.42 14.356 15.43l6.054-17.48zm-15.332 42.97q-1.27-17.384-9.375-24.513-8.008-7.13-16.992-7.13-11.426 0-18.555 10.84-7.13 10.84-7.13 28.614 0 17.384 6.74 28.126 6.836 10.645 18.652 10.645 11.914 0 19.238-10.155 7.422-10.254 7.422-23.34zM948.367 220h-13.77v-18.848q-10.546 21.485-31.445 21.485-15.136 0-23.828-9.96-8.594-9.962-8.594-28.322v-62.988h15.332v62.988q0 14.65 6.055 20.215 6.153 5.47 13.477 5.47 7.422 0 13.38-4.2 6.053-4.2 10.057-11.914 4.005-7.813 4.005-16.992v-55.567h15.332zM988.754 86.7v16.99H972.25V86.7zm-.488 34.667V220h-15.332v-98.633zM1071.328 185.43l13.867 2.44q-2.93 16.31-12.988 25.587-10.06 9.18-25.098 9.18-20.41 0-31.153-15.04-10.645-15.038-10.645-36.718 0-22.462 11.23-37.306 11.33-14.94 30.763-14.94 16.113 0 25.78 9.667 9.767 9.57 12.11 24.805l-13.867 2.637q-3.906-24.414-23.633-24.414-12.695 0-19.53 10.84-6.837 10.742-6.837 27.93 0 18.945 6.738 29.492 6.836 10.45 19.14 10.45 19.044 0 24.122-24.61zM1181.832 220h-15.918l-28.808-55.078-21.387 24.61V220h-15.333V86.7h15.332v85.35l45.8-50.683h16.406l-30.86 34.668zM447.8 440h-7.42V306.7h15.33v51.073q10.548-19.14 29.102-19.14 16.993 0 28.418 13.38 11.524 13.378 11.524 38.866 0 21.972-11.328 36.913-11.23 14.844-29.297 14.844-20.118 0-30.86-18.946zm7.91-38.672q1.075 15.137 9.278 21.973 8.3 6.837 17.48 6.837 11.72 0 18.848-10.157 7.227-10.156 7.227-27.832 0-19.043-6.934-29.882-6.934-10.938-19.24-10.938-9.667 0-17.48 7.813-7.714 7.715-9.18 20.02zM557.133 440H541.8v-98.633h13.477v23.047q7.13-16.31 14.258-21.094 7.227-4.882 14.746-4.882 2.345 0 6.056.39v14.65h-3.125q-12.694 0-21.093 9.47-8.398 9.474-8.984 24.904zM633.652 442.637q-20.312 0-31.738-15.04-11.328-15.038-11.328-37.304 0-23.535 12.793-37.598 12.792-14.062 31.835-14.062 20.41 0 32.13 14.844 11.815 14.746 11.815 36.914 0 23.048-12.695 37.696-12.695 14.55-32.813 14.55zm1.172-12.598q11.72 0 19.63-9.67 7.91-9.667 7.91-30.077 0-20.508-8.302-29.688-8.3-9.277-19.433-9.277-11.427 0-19.337 9.375-7.91 9.277-7.91 29.492 0 21.387 7.91 30.664 7.91 9.18 19.53 9.18zM807.145 341.367L778.727 440h-12.403l-22.07-73.242L724.04 440h-12.6l-29.588-98.633h15.43l21.386 73.535 20.508-73.535h11.23l22.168 73.828 22.168-73.828zM898.02 440h-14.356v-63.38q0-13.67-5.957-19.237-5.957-5.567-14.453-5.567-11.72 0-19.727 9.375-7.91 9.376-7.91 24.708V440h-15.332v-98.633h14.258v18.164q12.012-20.897 31.152-20.897 11.035 0 18.75 5.762 7.813 5.664 10.645 12.793 2.93 7.128 2.93 25.78zM1007.797 341.367v12.012H984.36V440h-15.333v-86.62H952.23v-12.013h16.797q.39-23.73 9.082-30.566 8.788-6.835 21.386-6.835 6.152 0 14.063 1.367v12.207q-4.982-1.27-9.474-1.27-10.06 0-14.94 4.492-4.787 4.394-4.787 16.6v4.005zM1051.7 442.637q-20.313 0-31.74-15.04-11.327-15.038-11.327-37.304 0-23.535 12.793-37.598 12.793-14.062 31.836-14.062 20.41 0 32.13 14.844 11.815 14.746 11.815 36.914 0 23.048-12.695 37.696-12.696 14.55-32.813 14.55zm1.17-12.598q11.72 0 19.63-9.67 7.91-9.667 7.91-30.077 0-20.508-8.3-29.688-8.3-9.277-19.434-9.277-11.426 0-19.336 9.375-7.91 9.277-7.91 29.492 0 21.387 7.91 30.664 7.91 9.18 19.53 9.18zM1180.27 440h-17.676l-25.098-40.04-25.684 40.04h-14.94l33.202-51.172-29.98-47.46h17.676l21.093 33.69 21.485-33.69h14.746l-28.71 44.14zM399.922 526.7v16.99H382.54V526.7zm-.78 33.593v102.734q0 17.383-8.302 24.22-8.203 6.835-20.117 6.835-5.86 0-14.356-2.05v-12.11q6.348 1.562 11.23 1.562 8.692 0 12.403-4.2 3.81-4.1 3.81-14.257V560.293zM501.148 660h-13.77v-18.848q-10.546 21.485-31.444 21.485-15.137 0-23.83-9.96-8.592-9.962-8.592-28.322v-62.988h15.332v62.988q0 14.65 6.054 20.215 6.153 5.47 13.477 5.47 7.422 0 13.38-4.2 6.054-4.2 10.058-11.914 4.003-7.813 4.003-16.992v-55.567h15.332zM657.844 660h-14.942v-61.328q0-9.473-1.367-14.16-1.27-4.785-6.347-8.692-5.08-4.004-11.426-4.004-8.79 0-16.992 8.106-8.106 8.008-8.106 24.512V660H583.82v-64.94q0-12.99-6.25-18.36-6.152-5.372-12.988-5.372-9.766 0-16.992 8.4-7.227 8.397-7.227 21.288V660h-14.648v-98.633h13.183v18.945q11.036-21.68 30.372-21.68 10.644 0 18.066 6.934 7.422 6.934 9.57 16.7 10.156-23.633 31.153-23.633 10.057 0 17.577 5.762 7.617 5.76 9.863 13.28 2.344 7.423 2.344 20.997zM696.375 693.3h-15.332V561.368h13.77v19.14q10.45-21.874 31.152-21.874 17.48 0 28.222 14.648 10.743 14.552 10.743 36.915 0 24.12-11.035 38.282-11.036 14.16-28.32 14.16-18.555 0-29.2-17.676zm0-96.874v27.734q1.465 11.23 9.473 18.555 8.007 7.324 16.7 7.324 10.057 0 17.772-8.79 7.813-8.79 7.813-30.37 0-18.653-7.03-28.712-7.033-10.156-18.654-10.156-9.18 0-16.505 7.13-7.226 7.128-9.57 17.284zM768.793 634.414l14.648-3.027q4.884 18.652 30.86 18.652 9.57 0 16.212-4.298 6.64-4.297 6.64-12.11 0-11.62-16.894-14.745l-20.8-3.907q-12.208-2.343-19.435-9.18-7.226-6.835-7.226-18.066 0-12.402 9.863-20.703 9.863-8.397 26.563-8.397 32.13 0 39.648 25.097l-14.06 3.028q-6.056-15.43-24.904-15.43-9.375 0-15.43 3.906-5.956 3.81-5.956 10.743 0 10.937 15.332 13.77l19.238 3.417q30.176 5.47 30.176 29.2 0 13.573-11.23 21.972-11.23 8.3-29.884 8.3-35.058 0-43.36-28.222zM948.395 662.637q-20.313 0-31.74-15.04-11.327-15.038-11.327-37.304 0-23.535 12.793-37.598 12.794-14.062 31.837-14.062 20.41 0 32.13 14.844Q993.9 588.223 993.9 610.39q0 23.047-12.695 37.696-12.695 14.55-32.812 14.55zm1.17-12.598q11.72 0 19.63-9.67 7.91-9.667 7.91-30.077 0-20.508-8.3-29.688-8.3-9.277-19.434-9.277-11.425 0-19.335 9.375-7.91 9.277-7.91 29.492 0 21.387 7.91 30.664 7.91 9.18 19.53 9.18zM1079.7 561.367L1045.616 660H1029.7l-35.255-98.633h16.993l27.44 80.176 27.15-80.176zM1153.68 630.605l14.257 2.93q-3.906 12.598-15.234 20.9-11.328 8.202-26.66 8.202-20.215 0-32.715-14.16-12.5-14.258-12.5-37.305 0-23.535 12.988-37.988 12.99-14.55 32.618-14.55 19.335 0 31.054 13.378 11.817 13.38 12.11 40.04h-71.68q0 22.362 9.375 30.175 9.375 7.812 19.824 7.812 18.848 0 26.563-19.435zm-.88-29.98q-.194-8.3-2.734-14.746t-8.593-10.94q-6.055-4.588-14.55-4.588-11.427 0-19.435 8.203-7.91 8.203-8.886 22.07zM1202.172 660h-15.332v-98.633h13.476v23.047q7.13-16.31 14.258-21.094 7.227-4.883 14.746-4.883 2.344 0 6.055.39v14.65h-3.125q-12.695 0-21.094 9.472-8.398 9.472-8.984 24.902zM368.91 869.453v12.11q-8.105 1.074-14.062 1.074-28.614 0-28.614-29.883V793.38h-17.48v-12.013h17.48l.684-24.804 14.258-1.368v26.172h22.07v12.012h-22.07v61.913q0 15.234 15.82 15.234 5.274 0 11.914-1.074zM457.246 880h-15.332v-59.863q0-10.547-1.367-15.82-1.27-5.274-6.25-9.083-4.883-3.906-11.328-3.906-11.818 0-19.825 9.668-7.91 9.668-7.91 25.88V880H379.9V746.7h15.332v52.83q10.45-20.897 29.883-20.897 8.692 0 15.43 3.418 6.836 3.42 10.45 8.985 3.612 5.567 4.882 11.035 1.366 5.37 1.366 18.067zM547.242 850.605l14.258 2.93q-3.906 12.598-15.234 20.9-11.328 8.202-26.66 8.202-20.215 0-32.715-14.16-12.5-14.258-12.5-37.305 0-23.535 12.99-37.988 12.987-14.55 32.616-14.55 19.336 0 31.055 13.378 11.817 13.38 12.11 40.04h-71.68q0 22.362 9.375 30.175 9.375 7.812 19.825 7.812 18.847 0 26.562-19.435zm-.88-29.98q-.194-8.3-2.733-14.746-2.54-6.446-8.595-10.94-6.055-4.588-14.55-4.588-11.426 0-19.434 8.203-7.91 8.203-8.886 22.07zM639.734 880h-15.332V746.7h15.332zM741.742 880h-15.234q-.88-4.688-1.758-17.773-10.156 20.41-34.57 20.41-16.602 0-25.49-8.79-8.885-8.788-8.885-21.093 0-14.941 12.695-24.512 12.695-9.668 43.164-9.668 4.102 0 13.086.39 0-11.718-1.855-16.894-1.758-5.273-7.618-8.398t-15.43-3.125q-23.34 0-27.148 17.773l-14.16-2.44q5.175-27.247 43.554-27.247 20.41 0 28.906 9.082 8.594 8.984 8.594 31.25v41.894q0 10.45 2.148 19.14zm-16.992-49.316q-9.375-.586-14.258-.586-18.164 0-28.222 5.957-10.06 5.957-10.06 17.383 0 7.226 5.372 12.304 5.47 5.078 15.723 5.078 13.867 0 22.754-10.058 8.983-10.06 8.983-23.633 0-2.735-.293-6.446zM828.32 868.184V880h-72.656v-11.816l52.44-74.805H759.67v-12.013h68.652v8.3l-54.297 78.517zM910.797 781.367l-39.55 110.156q-8.595 23.83-27.442 23.83-5.957 0-13.184-2.052v-12.01q5.958 1.366 10.255 1.366 7.324 0 12.207-4.2 4.98-4.198 9.863-20.31l-34.082-96.78h15.625l26.367 74.122 27.05-74.12zM1041.375 746.7V880h-13.965v-16.895q-10.35 19.532-31.152 19.532-17.285 0-28.418-14.453-11.133-14.55-11.133-36.72 0-22.655 11.035-37.694 11.035-15.137 29.297-15.137 17.773 0 29.003 16.21V746.7zm-15.332 72.753q0-12.988-7.91-20.8-7.91-7.813-18.457-7.813-11.426 0-18.848 10.156-7.324 10.156-7.324 28.516 0 19.824 6.738 30.176 6.836 10.35 18.653 10.35 10.742 0 18.945-8.983 8.203-8.985 8.203-21.094zM1101.488 882.637q-20.312 0-31.738-15.04-11.328-15.038-11.328-37.304 0-23.535 12.793-37.598 12.793-14.062 31.836-14.062 20.41 0 32.13 14.844 11.816 14.746 11.816 36.914 0 23.047-12.695 37.696-12.695 14.55-32.812 14.55zm1.172-12.598q11.72 0 19.63-9.67 7.91-9.667 7.91-30.077 0-20.508-8.302-29.688-8.3-9.277-19.433-9.277-11.426 0-19.336 9.375-7.91 9.277-7.91 29.492 0 21.387 7.91 30.664 7.91 9.18 19.53 9.18zM1244.61 765.938v12.207q-10.547 0-14.16 2.44-3.516 2.442-4.688 8.79 9.472 10.938 9.472 23.828 0 13.477-10.35 23.145-10.255 9.668-27.638 9.668-3.906 0-6.738-.586-5.37-1.075-6.738-1.075-2.637 0-6.348 2.637-3.71 2.54-3.71 6.64 0 5.86 5.37 7.618t25.293 2.246q16.895.488 24.902 2.344 8.106 1.758 13.672 8.008 5.566 6.152 5.566 15.136 0 28.223-49.61 28.223-23.535 0-34.375-7.13-10.74-7.03-10.74-18.847 0-14.355 15.038-19.726-9.668-6.348-9.668-15.918 0-11.426 13.672-17.48-12.793-10.352-12.793-26.075 0-14.647 10.937-24.022 10.937-9.375 26.66-9.375 11.133 0 20.215 4.2 1.464-9.67 6.738-13.38 5.37-3.71 16.21-3.71 1.075 0 3.81.195zm-46.876 68.36q9.766 0 15.918-5.958 6.153-6.055 6.153-15.625 0-9.766-6.446-15.918-6.348-6.25-15.43-6.25-8.692 0-15.43 5.86-6.738 5.76-6.738 16.503 0 9.57 6.054 15.528 6.055 5.86 15.918 5.86zm-18.36 41.698q-10.74 4.688-10.74 13.574 0 7.52 8.788 11.62 8.887 4.2 22.56 4.2 12.694 0 23.24-3.613 10.548-3.515 10.548-12.01 0-4.59-3.125-7.52-3.125-2.93-8.594-3.712-5.37-.78-18.847-1.172-16.113-.39-23.828-1.367zM1277.086 858.125V880h-21.777v-21.875z"/></g></svg>