<svg xmlns="http://www.w3.org/2000/svg" viewBox="0 0 800 500"><path fill="#fff" d="M0 0h800v500H0z"/><g font-weight="400" font-size="100" font-family="Frutiger" text-anchor="middle" fill="#111"><path d="M229.395 49.014h-21.68V110h-10.01V49.014h-21.68v-8.838h53.37zM283.643 110h-9.375V83.584q0-9.277-2.344-13.477-2.49-4.54-8.447-4.687-7.715-.244-11.768 5.713-3.76 5.517-3.76 15.283V110h-9.376V35h9.375v31.3h.195q5.37-8.497 16.406-8.497 19.093 0 19.093 21.875zM342.676 86.61H306.3q0 7.374 5.077 12.257 4.834 4.737 11.72 4.737 4.247 0 9.325-1.856 4.346-1.562 6.396-3.27v9.422q-9.18 3.32-16.113 3.32-13.184 0-19.97-7.616-6.446-7.13-6.446-20.02 0-11.377 6.59-18.555 6.593-7.227 17.335-7.227 22.46 0 22.46 28.808zm-9.96-7.03q0-6.055-3.32-10.01-3.517-4.15-9.376-4.15-6.348 0-10.06 4.59-3.026 3.808-3.66 9.57zM428.174 130.996H418.8V103.31h-.196q-2.198 3.614-6.788 5.762-4.59 2.15-10.205 2.15-10.84 0-16.747-8.595-5.175-7.52-5.175-19.043 0-10.938 5.468-18.018 5.957-7.763 16.553-7.763 11.815 0 17.284 8.496h.195v-7.277h8.984zM418.8 84.61q0-7.813-3.712-13.184-4.2-6.006-11.377-6.006-7.128 0-10.84 5.957-3.173 5.078-3.173 12.94 0 7.128 3.272 12.646 3.905 6.64 10.84 6.64 7.323 0 11.473-6.298 3.516-5.37 3.516-12.696zM489.307 110h-9.082v-8.105h-.196q-2.05 4.296-6.69 6.835-4.59 2.49-10.01 2.49-19.092 0-19.092-21.923V59.023h9.375V85.39q0 9.278 2.344 13.477 2.49 4.59 8.496 4.737 7.715.195 11.72-5.762 3.76-5.47 3.76-15.235V59.023h9.374zM516.553 47.598h-10.596V37.002h10.596zM515.967 110h-9.424V59.023h9.424zM566.7 109.12q-4.542 2.1-11.817 2.1-11.328 0-18.75-7.91-7.227-7.665-7.227-18.798 0-11.72 7.178-19.19 7.227-7.52 18.8-7.52 6.493 0 11.425 2.003l-.83 7.812q-5.275-2.197-10.207-2.197-7.47 0-12.11 5.908-4.247 5.42-4.247 13.184 0 7.666 3.955 12.94 4.59 6.152 13.038 6.152 5.664 0 10.108-2.88zM623.145 110H609.62l-22.804-26.22V110h-9.375V35h9.376v44.678l20.508-20.655h12.793l-23.68 22.56zM214.795 193.584q0 11.572-5.176 19.043-5.91 8.594-16.7 8.594-11.914 0-17.432-8.398h-.195V220h-8.984v-75h9.374v31.006h.195q5.077-8.203 16.942-8.203 10.547 0 16.553 7.763 5.42 7.08 5.42 18.018zm-10.01.732q0-7.812-3.174-12.94-3.71-5.956-10.79-5.956-7.226 0-11.377 6.006-3.76 5.37-3.76 13.183 0 7.324 3.565 12.695 4.15 6.3 11.475 6.3 6.884 0 10.84-6.642 3.222-5.518 3.222-12.647zM255.957 176.885q-2.197-.88-5.225-.88-6.347 0-10.156 5.616-3.76 5.616-3.76 15.187V220h-9.375v-50.977h8.79v7.862h.196q1.904-4.004 5.566-6.543 3.71-2.54 7.764-2.54 2.685 0 6.2.684zM314.795 194.512q0 11.133-7.227 18.8-7.373 7.91-18.652 7.91-11.377 0-18.8-7.91-7.225-7.667-7.225-18.8 0-11.72 7.178-19.19 7.227-7.52 18.848-7.52 11.523 0 18.7 7.52 7.18 7.47 7.18 19.19zm-10.01 0q0-7.715-4.2-13.184-4.49-5.908-11.67-5.908-7.274 0-11.815 5.908-4.2 5.47-4.2 13.184 0 7.617 3.858 12.94 4.394 6.152 12.158 6.152 7.666 0 12.06-6.153 3.81-5.32 3.81-12.938zM401.514 169.023L385.156 220H374.22l-13.185-42.822h-.195L347.95 220H337.01l-16.358-50.977h10.303l11.67 42.188h.195l12.99-42.187h11.13l12.794 42.188h.196l12.402-42.187zM455.908 220h-9.375v-26.416q0-9.277-2.344-13.477-2.49-4.54-8.448-4.687-7.715-.244-11.767 5.713-3.76 5.517-3.76 15.283V220h-9.375v-50.977h9.082v8.057h.195q2.1-4.248 6.69-6.738 4.59-2.54 10.01-2.54 19.09 0 19.09 21.876zM529.2 144.414l-.39 7.568q-1.662-.586-4.494-.586-5.664 0-7.666 3.614-1.464 2.54-1.464 8.496v5.517h13.525v7.57h-13.524V220h-9.375v-43.408H493.8v-7.57h12.01v-4.735q0-10.205 3.32-14.892 4.005-5.616 13.77-5.616 2.49 0 6.3.634zM587.06 194.512q0 11.133-7.226 18.8-7.373 7.91-18.652 7.91-11.377 0-18.8-7.91-7.226-7.667-7.226-18.8 0-11.72 7.178-19.19 7.227-7.52 18.848-7.52 11.523 0 18.7 7.52 7.18 7.47 7.18 19.19zm-10.01 0q0-7.715-4.198-13.184-4.493-5.908-11.67-5.908-7.276 0-11.817 5.908-4.2 5.47-4.2 13.184 0 7.617 3.858 12.94 4.395 6.152 12.16 6.152 7.665 0 12.06-6.153 3.808-5.32 3.808-12.938zM640.723 220h-11.62l-12.6-20.02L603.907 220h-11.23l18.408-26.71-16.602-24.267h11.72l11.083 18.164 11.328-18.164h10.498l-16.405 24.268zM163.623 267.598h-10.596v-10.596h10.596zm-.586 64.21q0 8.64-1.904 12.987-3.272 7.422-12.5 7.422-4.053 0-5.81-.44l.292-8.056q1.807.294 3.81.294 6.688 0 6.688-10.79v-54.2h9.424zM225.244 330h-9.082v-8.105h-.195q-2.05 4.296-6.69 6.835-4.59 2.49-10.01 2.49-19.09 0-19.09-21.923v-30.274h9.374v26.368q0 9.278 2.345 13.477 2.49 4.59 8.496 4.737 7.715.195 11.72-5.762 3.76-5.47 3.76-15.235v-23.584h9.374zM314.404 330h-9.424v-30.42q0-14.16-9.082-14.16-6.738 0-10.302 5.86-3.076 5.126-3.076 13.036V330h-9.424v-30.42q0-14.16-9.082-14.16-6.74 0-10.303 5.86-3.124 5.126-3.124 13.036V330h-9.375v-50.977H250v7.373h.195q5.274-8.593 16.21-8.593 10.646 0 14.503 9.912 2.393-4.98 7.47-7.715 4.15-2.197 8.302-2.197 17.724 0 17.724 19.482zM378.662 303.584q0 11.572-5.176 19.043-5.908 8.594-16.7 8.594-11.962 0-17.04-8.202h-.195v27.978h-9.374v-71.973h8.984v7.178h.195q5.518-8.397 17.334-8.397 10.546 0 16.552 7.763 5.42 7.08 5.42 18.018zm-10.01.732q0-7.812-3.173-12.94-3.712-5.956-10.793-5.956-7.226 0-11.376 6.006-3.76 5.37-3.76 13.183 0 7.324 3.565 12.695 4.15 6.3 11.475 6.3 6.885 0 10.84-6.642 3.222-5.518 3.222-12.647zM418.8 315.303q0 7.715-5.47 12.01-4.932 3.908-12.353 3.908-8.74 0-13.965-2.83l.488-8.4q5.566 3.614 11.72 3.614 3.807 0 6.395-1.612 3.174-1.904 3.174-5.713 0-3.712-5.714-6.837l-10.644-5.76q-5.713-4.103-5.713-10.206 0-7.618 5.175-11.817 4.834-3.857 12.792-3.857 4.98 0 11.72 2.002l-.782 8.203q-1.514-.928-4.932-1.807-3.222-.78-4.98-.78-3.858 0-6.3 1.514-2.733 1.66-2.733 4.687 0 4.15 5.76 7.13 5.324 2.734 10.646 5.47 5.713 4.1 5.713 11.083zM506.396 304.512q0 11.133-7.226 18.8-7.373 7.91-18.652 7.91-11.377 0-18.8-7.91-7.226-7.667-7.226-18.8 0-11.72 7.178-19.19 7.226-7.52 18.848-7.52 11.523 0 18.7 7.52 7.178 7.47 7.178 19.19zm-10.01 0q0-7.715-4.2-13.184-4.49-5.908-11.668-5.908-7.276 0-11.817 5.908-4.198 5.47-4.198 13.184 0 7.617 3.857 12.94 4.394 6.152 12.158 6.152 7.666 0 12.06-6.153 3.81-5.32 3.81-12.938zM559.912 279.023L541.65 330h-11.23l-18.262-50.977h10.254l13.818 41.553h.196l14.11-41.553zM612.012 306.61h-36.377q0 7.374 5.078 12.257 4.834 4.737 11.72 4.737 4.247 0 9.325-1.856 4.346-1.562 6.396-3.27v9.422q-9.18 3.32-16.113 3.32-13.183 0-19.97-7.616-6.445-7.13-6.445-20.02 0-11.377 6.592-18.555 6.592-7.227 17.334-7.227 22.462 0 22.462 28.808zm-9.96-7.03q0-6.055-3.322-10.01-3.515-4.15-9.375-4.15-6.347 0-10.058 4.59-3.027 3.808-3.662 9.57zM653.223 286.885q-2.198-.88-5.225-.88-6.348 0-10.156 5.616-3.76 5.616-3.76 15.187V330h-9.375v-50.977h8.79v7.862h.194q1.906-4.004 5.568-6.543 3.71-2.54 7.763-2.54 2.687 0 6.203.684zM133.057 439.805q-4.883 1.416-8.008 1.416-15.675 0-15.675-14.843v-29.785H97.852v-7.57h11.523v-11.815l9.375-3.027v14.843h13.525v7.57H118.75v27.928q0 4.25 2.344 6.74 2.197 2.344 5.566 2.344 3.613 0 6.397-1.807zM189.11 440h-9.374v-26.416q0-9.277-2.343-13.477-2.49-4.54-8.448-4.687-7.715-.244-11.767 5.713-3.76 5.517-3.76 15.283V440h-9.375v-75h9.375v31.3h.195q5.37-8.497 16.407-8.497 19.09 0 19.09 21.875zM248.145 416.61h-36.377q0 7.374 5.078 12.257 4.834 4.737 11.718 4.737 4.25 0 9.327-1.856 4.346-1.562 6.397-3.27v9.422q-9.18 3.32-16.113 3.32-13.184 0-19.97-7.616-6.446-7.13-6.446-20.02 0-11.377 6.592-18.555 6.59-7.227 17.334-7.227 22.46 0 22.46 28.808zm-9.96-7.03q0-6.055-3.322-10.01-3.515-4.15-9.375-4.15-6.347 0-10.058 4.59-3.028 3.808-3.662 9.57zM299.17 440h-9.424v-75h9.424zM356.396 440h-8.79v-6.592h-.194q-5.566 7.813-15.82 7.813-8.643 0-13.477-3.808-5.224-4.1-5.224-12.11 0-8.69 8.204-13.183 6.543-3.614 15.527-3.614 6.3 0 9.962.195 0-6.835-2.734-9.96-2.98-3.32-9.864-3.32-8.593 0-14.795 5.176l-.49-8.008q8.058-4.785 16.798-4.785 10.742 0 15.723 5.322 4.786 5.127 4.786 15.77v21.095q0 7.03.39 10.01zm-9.814-19.824v-4.492q-.977 0-2.978-.098-2.002-.098-2.98-.098-17.724 0-17.724 9.815 0 3.76 3.125 6.152 2.784 2.15 6.397 2.15 6.738 0 10.547-3.86 3.612-3.612 3.612-9.57zM409.668 440h-41.406v-8.203l29.394-35.205h-27.978v-7.57h38.867v8.156l-29.395 35.205h30.518zM462.354 389.023l-18.8 52.1q-3.76 10.45-6.445 14.21-4.98 6.884-13.135 6.884-2.442 0-6.397-.733l.586-7.666q2.393.782 4.395.782 5.32 0 8.74-5.91 2.49-4.247 2.49-6.688 0-.44-1.808-5.42l-17.334-47.56h10.303l13.722 42.19h.195l14.014-42.19zM544.775 440h-8.984v-7.178h-.194q-5.518 8.4-17.383 8.4-10.84 0-16.748-8.595-5.176-7.52-5.176-19.043 0-10.938 5.468-18.018 5.957-7.763 16.553-7.763 11.817 0 16.895 8.203h.195V365h9.375zm-9.375-25.39q0-7.813-3.71-13.184-4.2-6.006-11.378-6.006-7.128 0-10.84 5.957-3.173 5.078-3.173 12.94 0 7.128 3.27 12.646 3.907 6.64 10.84 6.64 7.324 0 11.475-6.298 3.515-5.37 3.515-12.696zM609.326 414.512q0 11.133-7.226 18.8-7.373 7.91-18.653 7.91-11.377 0-18.8-7.91-7.225-7.667-7.225-18.8 0-11.72 7.178-19.19 7.226-7.52 18.847-7.52 11.524 0 18.7 7.52 7.18 7.47 7.18 19.19zm-10.01 0q0-7.715-4.2-13.184-4.49-5.908-11.67-5.908-7.274 0-11.815 5.908-4.198 5.47-4.198 13.184 0 7.617 3.857 12.94 4.394 6.152 12.157 6.152 7.666 0 12.06-6.153 3.81-5.32 3.81-12.938zM667.04 437.803q0 24.414-26.27 24.414-8.055 0-18.31-3.516l1.026-8.69q10.01 4.59 18.36 4.59 7.422 0 11.62-4.688 4.2-4.687 4.2-12.793v-5.03h-.195q-5.956 7.91-17.09 7.91-10.448 0-16.405-7.617-5.42-6.885-5.42-17.48 0-10.792 5.615-18.458 6.348-8.642 17.187-8.642 12.305 0 16.797 8.79h.196v-7.57h8.69zm-9.374-22.705q0-8.448-3.71-13.82-4.054-5.858-11.183-5.858-6.64 0-10.693 6.2-3.516 5.52-3.516 12.794 0 7.47 3.81 12.598 4.003 5.37 10.4 5.37 6.494 0 10.742-5.077 4.15-4.932 4.15-12.207zM694.58 440h-11.182v-11.182h11.182z"/></g></svg>