<svg xmlns="http://www.w3.org/2000/svg" viewBox="0 0 1600 1000" height="1000" width="1600"><path fill="#fff" d="M0 0h1600v1000H0z"/><g font-weight="400" font-size="200" font-family="Frutiger" letter-spacing="-.03em" text-anchor="middle" fill="#222"><path d="M485.79 98.027h-43.36V220h-20.02V98.027h-43.36V80.352h106.74zM588.285 220h-18.75v-52.832q0-18.555-4.687-26.953-4.98-9.082-16.895-9.375-15.43-.488-23.535 11.426-7.52 11.035-7.52 30.566V220h-18.75V70h18.75v62.598h.39q10.743-16.993 32.814-16.993 38.183 0 38.183 43.75zM700.352 173.223h-72.754q0 14.746 10.156 24.51 9.668 9.474 23.437 9.474 8.497 0 18.654-3.71 8.69-3.126 12.793-6.544V215.8q-18.36 6.64-32.227 6.64-26.367 0-39.94-15.233-12.892-14.258-12.892-40.04 0-22.753 13.184-37.108 13.183-14.455 34.668-14.455 44.922 0 44.922 57.618zM680.43 159.16q0-12.11-6.64-20.02-7.032-8.3-18.75-8.3-12.696 0-20.118 9.18-6.055 7.617-7.324 19.14zM859.348 261.992h-18.75v-55.37h-.39q-4.395 7.226-13.575 11.523-9.18 4.296-20.41 4.296-21.68 0-33.496-17.186-10.352-15.04-10.352-38.086 0-21.875 10.938-36.035 11.914-15.528 33.105-15.528 23.633 0 34.57 16.993h.39v-14.55h17.97zm-18.75-92.773q0-15.626-7.422-26.368-8.4-12.012-22.754-12.012-14.258 0-21.68 11.914-6.347 10.156-6.347 25.88 0 14.257 6.543 25.292 7.812 13.28 21.68 13.28 14.648 0 22.948-12.597 7.032-10.743 7.032-25.39zM975.613 220H957.45v-16.21h-.39q-4.103 8.593-13.38 13.67-9.18 4.98-20.02 4.98-38.183 0-38.183-43.846v-60.547h18.75v52.734q0 18.556 4.687 26.954 4.98 9.18 16.992 9.473 15.43.39 23.438-11.523 7.52-10.938 7.52-30.47v-47.167h18.75zM1024.105 95.195h-21.19v-21.19h21.19zM1022.935 220h-18.85V118.047h18.85zM1118.398 218.242q-9.082 4.2-23.632 4.2-22.657 0-37.5-15.82-14.454-15.333-14.454-37.6 0-23.436 14.356-38.377 14.453-15.04 37.598-15.04 12.988 0 22.85 4.004l-1.66 15.624q-10.546-4.394-20.41-4.394-14.94 0-24.218 11.816-8.496 10.84-8.496 26.367 0 15.332 7.91 25.88 9.18 12.304 26.074 12.304 11.328 0 20.215-5.762zM1225.29 220h-27.052l-45.605-52.44V220h-18.75V70h18.75v89.355l41.015-41.308h25.586l-47.363 45.117zM456.59 387.168q0 23.145-10.352 38.086-11.816 17.187-33.398 17.187-23.828 0-34.863-16.795h-.39V440h-17.97V290h18.75v62.012h.39q10.157-16.407 33.888-16.407 21.093 0 33.105 15.528 10.84 14.16 10.84 36.035zm-20.02 1.465q0-15.625-6.347-25.88-7.422-11.913-21.582-11.913-14.452 0-22.753 12.012-7.52 10.742-7.52 26.367 0 14.647 7.13 25.39 8.3 12.597 22.948 12.597 13.77 0 21.68-13.28 6.445-11.036 6.445-25.294zM532.914 353.77q-4.394-1.758-10.45-1.758-12.694 0-20.312 11.23-7.52 11.23-7.52 30.37V440h-18.75V338.047h17.58v15.723h.39q3.808-8.008 11.132-13.086 7.422-5.08 15.528-5.08 5.37 0 12.402 1.37zM644.59 389.023q0 22.266-14.453 37.598-14.746 15.82-37.305 15.82-22.754 0-37.598-15.82-14.453-15.33-14.453-37.597 0-23.437 14.357-38.378 14.453-15.04 37.695-15.04 23.047 0 37.402 15.04 14.356 14.94 14.356 38.378zm-20.02 0q0-15.43-8.398-26.367-8.985-11.816-23.34-11.816-14.55 0-23.633 11.816-8.4 10.938-8.4 26.367 0 15.235 7.716 25.88 8.79 12.304 24.316 12.304 15.332 0 24.12-12.305 7.618-10.644 7.618-25.88zM812.027 338.047L779.312 440h-21.875l-26.367-85.645h-.39L704.898 440h-21.875L650.31 338.047h20.604l23.34 84.375h.39l25.977-84.375h22.267l25.586 84.375h.39l24.805-84.375zM914.816 440h-18.75v-52.832q0-18.555-4.687-26.953-4.982-9.082-16.896-9.375-15.43-.488-23.535 11.426-7.52 11.035-7.52 30.566V440h-18.75V338.047h18.164v16.113h.39q4.2-8.496 13.38-13.476 9.18-5.08 20.02-5.08 38.182 0 38.182 43.75zM1049.398 288.828l-.78 15.137q-3.32-1.172-8.985-1.172-11.328 0-15.332 7.227-2.93 5.078-2.93 16.992v11.035h27.052v15.137h-27.05V440h-18.75v-86.816h-24.024v-15.137h24.023v-9.473q0-20.41 6.642-29.785 8.008-11.23 27.54-11.23 4.98 0 12.596 1.268zM1159.12 389.023q0 22.266-14.452 37.598-14.746 15.82-37.305 15.82-22.754 0-37.597-15.82-14.453-15.33-14.453-37.597 0-23.437 14.355-38.378 14.453-15.04 37.695-15.04 23.047 0 37.403 15.04 14.355 14.94 14.355 38.378zm-20.018 0q0-15.43-8.4-26.367-8.983-11.816-23.34-11.816-14.55 0-23.632 11.816-8.398 10.938-8.398 26.367 0 15.235 7.715 25.88 8.79 12.304 24.316 12.304 15.332 0 24.12-12.305 7.62-10.644 7.62-25.88zM1260.445 440h-23.242l-25.195-40.04-25.196 40.04h-22.46l36.816-53.418-33.203-48.535h23.437l22.168 36.328 22.657-36.328h20.996l-32.813 48.535zM357.246 535.195h-21.19v-21.19h21.19zm-1.172 128.418q0 17.285-3.808 25.977-6.543 14.844-25 14.844-8.106 0-11.62-.88l.584-16.113q3.614.587 7.618.587 13.38 0 13.38-21.582V558.047h18.846zM474.488 660h-18.164v-16.21h-.39q-4.102 8.593-13.38 13.67-9.18 4.98-20.02 4.98-38.182 0-38.182-43.846v-60.547h18.75v52.734q0 18.556 4.687 26.954 4.98 9.18 16.99 9.473 15.43.39 23.44-11.523 7.518-10.938 7.518-30.47v-47.167h18.75zM646.81 660h-18.85v-60.84q0-28.32-18.163-28.32-13.477 0-20.606 11.72-6.15 10.253-6.15 26.073V660h-18.85v-60.84q0-28.32-18.163-28.32-13.476 0-20.605 11.72-6.25 10.253-6.25 26.073V660h-18.75V558.047H518v14.746h.39q10.548-17.188 32.423-17.188 21.29 0 29.003 19.825 4.786-9.96 14.942-15.43 8.3-4.395 16.6-4.395 35.45 0 35.45 38.965zM769.324 607.168q0 23.144-10.35 38.086-11.818 17.187-33.4 17.187-23.926 0-34.082-16.405h-.39v55.957h-18.75V558.047h17.968v14.355h.39q11.036-16.797 34.67-16.797 21.093 0 33.104 15.528 10.84 14.16 10.84 36.035zm-20.02 1.465q0-15.625-6.347-25.88-7.422-11.913-21.582-11.913-14.453 0-22.754 12.012-7.518 10.742-7.518 26.367 0 14.647 7.128 25.39 8.3 12.597 22.95 12.597 13.77 0 21.68-13.28 6.445-11.036 6.445-25.294zM843.598 630.605q0 15.43-10.938 24.024-9.863 7.81-24.707 7.81-17.48 0-27.93-5.663L781 639.98q11.133 7.227 23.438 7.227 7.617 0 12.792-3.223 6.348-3.808 6.348-11.425 0-7.423-11.426-13.673l-21.29-11.524q-11.424-8.203-11.424-20.41 0-15.234 10.35-23.633 9.67-7.715 25.587-7.715 9.96 0 23.438 4.004l-1.563 16.406q-3.027-1.856-9.863-3.614-6.446-1.562-9.96-1.562-7.716 0-12.6 3.027-5.468 3.32-5.468 9.375 0 8.3 11.523 14.258 10.644 5.47 21.29 10.937 11.425 8.204 11.425 22.168zM1006.793 609.023q0 22.266-14.453 37.598-14.746 15.82-37.305 15.82-22.754 0-37.597-15.82-14.454-15.33-14.454-37.597 0-23.437 14.356-38.378 14.453-15.04 37.695-15.04 23.047 0 37.403 15.04 14.355 14.94 14.355 38.378zm-20.02 0q0-15.43-8.398-26.367-8.984-11.816-23.34-11.816-14.55 0-23.633 11.816-8.398 10.938-8.398 26.367 0 15.235 7.715 25.88 8.788 12.304 24.315 12.304 15.332 0 24.12-12.305 7.618-10.644 7.618-25.88zM1107.824 558.047L1071.3 660h-22.46l-36.524-101.953h20.508l27.637 83.105h.392l28.222-83.105zM1206.023 613.223h-72.753q0 14.746 10.156 24.51 9.668 9.474 23.437 9.474 8.496 0 18.653-3.71 8.69-3.126 12.793-6.544V655.8q-18.36 6.64-32.228 6.64-26.367 0-39.94-15.233-12.892-14.258-12.892-40.04 0-22.753 13.184-37.108 13.183-14.455 34.668-14.455 44.92 0 44.92 57.618zm-19.92-14.063q0-12.11-6.642-20.02-7.03-8.3-18.75-8.3-12.694 0-20.116 9.18-6.055 7.617-7.324 19.14zM1282.445 573.77q-4.394-1.758-10.45-1.758-12.694 0-20.31 11.23-7.52 11.23-7.52 30.37V660h-18.75V558.047h17.577v15.723h.39q3.81-8.008 11.134-13.086 7.42-5.08 15.527-5.08 5.37 0 12.402 1.37zM302.113 879.61q-9.765 2.83-16.015 2.83-31.348 0-31.348-29.686v-59.57h-23.047v-15.137h23.047v-23.633l18.75-6.055v29.687h27.05v15.137H273.5v55.86q0 8.495 4.688 13.476 4.394 4.687 11.132 4.687 7.227 0 12.793-3.613zM408.223 880h-18.75v-52.832q0-18.555-4.688-26.953-4.98-9.082-16.894-9.375-15.43-.488-23.535 11.426-7.52 11.035-7.52 30.566V880h-18.75V730h18.75v62.598h.392q10.742-16.993 32.812-16.993 38.183 0 38.183 43.75zM520.29 833.223h-72.755q0 14.746 10.156 24.51 9.67 9.474 23.44 9.474 8.495 0 18.65-3.71 8.693-3.126 12.794-6.544V875.8q-18.36 6.64-32.226 6.64-26.368 0-39.942-15.233-12.89-14.258-12.89-40.04 0-22.753 13.183-37.108 13.183-14.455 34.667-14.455 44.922 0 44.922 57.618zm-19.923-14.063q0-12.11-6.64-20.02-7.032-8.3-18.75-8.3-12.696 0-20.118 9.18-6.055 7.617-7.325 19.14zM610.34 880h-18.848V730h18.848zM718.793 880h-17.578v-13.184h-.39q-11.134 15.625-31.64 15.625-17.287 0-26.955-7.616-10.45-8.203-10.45-24.22 0-17.38 16.408-26.366 13.085-7.226 31.054-7.226 12.598 0 19.922.39 0-13.672-5.47-19.922-5.956-6.64-19.725-6.64-17.19 0-29.59 10.35l-.978-16.014q16.114-9.57 33.594-9.57 21.484 0 31.445 10.644 9.572 10.254 9.572 31.543v42.187q0 14.063.78 20.02zm-19.63-39.648v-8.985q-1.952 0-5.956-.195-4.004-.195-5.957-.195-35.45 0-35.45 19.628 0 7.52 6.25 12.305 5.567 4.297 12.794 4.297 13.476 0 21.093-7.715 7.227-7.226 7.227-19.14zM819.336 880h-82.813v-16.406l58.79-70.41h-55.958v-15.137h77.735v16.308l-58.79 70.41h61.036zM918.707 778.047l-37.598 104.2q-7.52 20.898-12.89 28.417-9.962 13.77-26.27 13.77-4.884 0-12.794-1.465l1.172-15.333q4.785 1.562 8.79 1.562 10.644 0 17.48-11.817 4.98-8.496 4.98-13.38 0-.878-3.613-10.84l-34.668-95.116h20.605l27.442 84.375h.39l28.028-84.375zM1071.55 880h-17.968v-14.355h-.39q-11.036 16.796-34.766 16.796-21.68 0-33.496-17.186-10.352-15.04-10.352-38.086 0-21.875 10.938-36.035 11.914-15.528 33.105-15.528 23.634 0 33.79 16.407h.39V730h18.75zm-18.75-50.78q0-15.626-7.42-26.368-8.4-12.012-22.755-12.012-14.258 0-21.68 11.914-6.347 10.156-6.347 25.88 0 14.257 6.543 25.292 7.813 13.28 21.68 13.28 14.65 0 22.95-12.597 7.03-10.743 7.03-25.39zM1194.652 829.023q0 22.266-14.453 37.598-14.747 15.82-37.306 15.82-22.753 0-37.597-15.82-14.453-15.33-14.453-37.597 0-23.437 14.355-38.378 14.452-15.04 37.694-15.04 23.047 0 37.403 15.04 14.355 14.94 14.355 38.378zm-20.02 0q0-15.43-8.398-26.367-8.984-11.816-23.34-11.816-14.55 0-23.632 11.816-8.4 10.938-8.4 26.367 0 15.235 7.716 25.88 8.79 12.304 24.316 12.304 15.333 0 24.122-12.305 7.617-10.644 7.617-25.88zM1304.082 875.605q0 48.83-52.54 48.83-16.112 0-36.62-7.033l2.05-17.382q20.02 9.18 36.72 9.18 14.843 0 23.242-9.376 8.398-9.375 8.398-25.586V864.18h-.39Q1273.026 880 1250.76 880q-20.9 0-32.813-15.234-10.84-13.77-10.84-34.96 0-21.583 11.23-36.915 12.695-17.285 34.375-17.285 24.61 0 33.594 17.58h.39v-15.138h17.382zm-18.75-45.41q0-16.894-7.422-27.636-8.105-11.72-22.363-11.72-13.28 0-21.387 12.402-7.03 11.035-7.03 25.586 0 14.942 7.616 25.195 8.008 10.743 20.8 10.743 12.99 0 21.485-10.157 8.302-9.864 8.302-24.415zM1353.16 880h-22.363v-22.363h22.363z"/></g></svg>