<svg xmlns="http://www.w3.org/2000/svg" viewBox="0 0 1600 1000" height="1000" width="1600"><path fill="#fff" d="M0 0h1600v1000H0z"/><g font-weight="100" font-size="200" font-family="Futura" letter-spacing="-.03em" text-anchor="middle" fill="#222"><path d="M483.636 78.2h39v-9h-87.6v9h39V220h9.6zM533.08 55v165h9v-45.6c0-18.8 3.8-40.4 27-40.4 20.2 0 22.2 13.6 22.2 30.2V220h9v-55.8c0-23.8-6.6-38.6-30.4-38.6-12 0-22 6.2-27.4 16.4h-.4V55zM705.327 174.6c.2-26.6-16.4-49-44.4-49-27 0-44.8 22.2-44.8 48 0 26.2 17.4 48.4 44.8 48.4 18.2 0 33-9 41.4-25l-7.6-4.4c-6.6 12.4-18.2 21-32.6 21-21.4 0-37.6-15.6-37-39zm-80.2-8.4c1.6-17.4 17.2-32.2 36-32.2 19 0 33 15.2 35.2 32.2zM813.59 134c22.6 0 36.4 19.6 36.4 40.8 0 20.6-14.4 38.8-36 38.8-22.2 0-36.8-16.2-36.8-37.8 0-22.2 12.8-41.8 36.4-41.8zm44.8-6.4h-9v16.6h-.4c-6.8-11.8-21.6-18.6-35.2-18.6-28.2 0-45.6 22-45.6 49.2 0 26.8 17.4 47.2 45.2 47.2 14.2 0 28-6.2 35.6-18h.4v70h9zM939.298 127.6v52.2c0 17.8-2 33.8-24.2 33.8s-24.2-16-24.2-33.8v-52.2h-9V183c0 9.4-.2 18.8 5.6 26.6 6.4 8.4 17.2 12.4 27.6 12.4 10.4 0 21.2-4 27.6-12.4 5.8-7.8 5.6-17.2 5.6-26.6v-55.4zM984.23 127.6h-9V220h9zm-4.4-39c-4.6 0-8.2 3.8-8.2 8.2 0 4.6 3.6 8.2 8.2 8.2s8.2-3.6 8.2-8.2c0-4.4-3.6-8.2-8.2-8.2zM1083.505 137c-9.2-7.8-20.2-11.4-32.2-11.4-27.2 0-47.6 21.2-47.6 48 0 27 20 48.4 47.4 48.4 12.4 0 24.2-4.6 33.6-12.8V197c-8.4 10.2-20.8 16.6-34 16.6-21.8 0-38-19-38-40s16.4-39.6 38.2-39.6c13.2 0 23.8 5.4 32.6 15zM1111.017 55h-9v165h9v-41l5-5.2 45.8 46.2h11.8l-51.8-52.4 38.8-40h-11.6l-38 39.2zM470.403 433.6c-22.8 0-36.4-18.6-36.4-40.2 0-22 13.4-39.4 36.8-39.4 21.4 0 36 19 36 39.2 0 21.2-13.8 40.4-36.4 40.4zm-44.8 6.4h9v-16.6h.4c6.8 11.8 21.6 18.6 35.2 18.6 28 0 45.6-21.8 45.6-48.8 0-27-17.6-47.6-45.2-47.6-14.2 0-27.8 6.4-35.6 18h-.4V275h-9zM540.712 347.6h-9V440h9v-47.2c0-13.6-1.2-38.8 19-38.8 2.4 0 4.2.6 6.4 1.8l4.8-8c-3.2-1.4-6.2-2.2-9.8-2.2-9.8 0-16.4 5.6-20 14h-.4zM620.18 345.6c-26.8 0-48 21.8-48 48.4 0 26.2 21.4 48 48 48 27.2 0 48.6-20.8 48.6-48.2 0-27.4-21.4-48.2-48.6-48.2zm-.6 8.4c22.8 0 40.2 17.2 40.2 40 0 22.4-17.6 39.6-40.2 39.6-21.8 0-38.4-18.6-38.4-39.6 0-21.4 16.4-40 38.4-40zM679.356 347.6h-9.2l41.6 97.4 32.4-79.8 32.6 79.8 41.8-97.4h-9.2l-32 75.8-32.8-80.8-32.6 80.8zM837.947 347.6h-9V440h9v-45.6c0-18.8 3.8-40.4 27-40.4 20.2 0 22.2 13.6 22.2 30.2V440h9v-55.8c0-23.8-6.6-38.6-30.4-38.6-12 0-22 6.2-27.4 16.4h-.4zM986.103 356h23.2v-8.4h-23.2V308c0-11.6.2-27.2 15.8-27.2 2.6 0 5 .8 7.4 1.2v-8.2c-2.6-1-5.2-1.4-8-1.4-8.4 0-16.4 3.8-20.6 11.2-3.4 6-3.6 15.8-3.6 22.6v41.4h-10.2v8.4h10.2v84h9zM1058.15 345.6c-26.8 0-48 21.8-48 48.4 0 26.2 21.4 48 48 48 27.2 0 48.6-20.8 48.6-48.2 0-27.4-21.4-48.2-48.6-48.2zm-.6 8.4c22.8 0 40.2 17.2 40.2 40 0 22.4-17.6 39.6-40.2 39.6-21.8 0-38.4-18.6-38.4-39.6 0-21.4 16.4-40 38.4-40zM1145.525 391.2l-37.6 48.8h10.6l32.8-42.4 33 42.4h10.6l-37.6-48.8 34.4-43.6h-10.8l-29.6 37.4-29.4-37.4h-10.8zM413.27 567.6h-9V714h9zm-4.4-39c-4.6 0-8.2 3.8-8.2 8.2 0 4.6 3.6 8.2 8.2 8.2s8.2-3.6 8.2-8.2c0-4.4-3.6-8.2-8.2-8.2zM497.744 567.6v52.2c0 17.8-2 33.8-24.2 33.8s-24.2-16-24.2-33.8v-52.2h-9V623c0 9.4-.2 18.8 5.6 26.6 6.4 8.4 17.2 12.4 27.6 12.4 10.4 0 21.2-4 27.6-12.4 5.8-7.8 5.6-17.2 5.6-26.6v-55.4zM539.275 567.6h-9V660h9v-50.8c0-15 3.6-35.2 23-35.2 18 0 20.6 14.6 20.6 29v57h9v-53.2c0-16 4.6-32.8 23.8-32.8 17.6 0 19.8 12.6 19.8 26.8V660h9v-58c0-20.2-4.8-36.4-28.6-36.4-11.8 0-22 5.8-27 16.8-4.8-10.8-14.2-16.8-26-16.8-9.8 0-19 5-23.2 13.6h-.4zM713.997 574c22.6 0 36.4 19.6 36.4 40.8 0 20.6-14.4 38.8-36 38.8-22.2 0-36.8-16.2-36.8-37.8 0-22.2 12.8-41.8 36.4-41.8zm-35.8-6.4h-9V714h9v-70h.4c7.6 11.8 21.4 18 35.6 18 27.8 0 45.2-20.4 45.2-47.4s-17.4-49-45.6-49c-13.6 0-28.4 6.8-35.2 18.6h-.4zM821.906 580.4c-4-8.6-14.2-14.8-23.6-14.8-13.4 0-25.2 9.4-25.2 23.4 0 15.6 14.4 21 27 25.6 9.2 3.2 18 6.8 18 18.2 0 11.6-9.2 20.8-20.8 20.8-12.2 0-19.6-7.8-23-18.8l-8.8 2.8c3.8 15 16.4 24.4 31.8 24.4 16.6 0 29.8-11.8 29.8-28.8 0-33.4-45-22.6-45-44.8 0-8 8-14.4 15.8-14.4 7.2 0 13.2 4 16.2 10.4zM939.416 565.6c-26.8 0-48 21.8-48 48.4 0 26.2 21.4 48 48 48 27.2 0 48.6-20.8 48.6-48.2 0-27.4-21.4-48.2-48.6-48.2zm-.6 8.4c22.8 0 40.2 17.2 40.2 40 0 22.4-17.6 39.6-40.2 39.6-21.8 0-38.4-18.6-38.4-39.6 0-21.4 16.4-40 38.4-40zM998.59 567.6h-9.2l42.4 97.4 42.2-97.4h-9.2l-32.8 76.2zM1164.71 614.6c.2-26.6-16.4-49-44.4-49-27 0-44.8 22.2-44.8 48 0 26.2 17.4 48.4 44.8 48.4 18.2 0 33-9 41.4-25l-7.6-4.4c-6.6 12.4-18.2 21-32.6 21-21.4 0-37.6-15.6-37-39zm-80.2-8.4c1.6-17.4 17.2-32.2 36-32.2 19 0 33 15.2 35.2 32.2zM1189.463 567.6h-9V660h9v-47.2c0-13.6-1.2-38.8 19-38.8 2.4 0 4.2.6 6.4 1.8l4.8-8c-3.2-1.4-6.2-2.2-9.8-2.2-9.8 0-16.4 5.6-20 14h-.4zM309.837 796h16.2v-8.4h-16.2v-33h-9v33h-10.2v8.4h10.2v84h9zM335.634 715v165h9v-45.6c0-18.8 3.8-40.4 27-40.4 20.2 0 22.2 13.6 22.2 30.2V880h9v-55.8c0-23.8-6.6-38.6-30.4-38.6-12 0-22 6.2-27.4 16.4h-.4v-87zM507.88 834.6c.2-26.6-16.4-49-44.4-49-27 0-44.8 22.2-44.8 48 0 26.2 17.4 48.4 44.8 48.4 18.2 0 33-9 41.4-25l-7.6-4.4c-6.6 12.4-18.2 21-32.6 21-21.4 0-37.6-15.6-37-39zm-80.2-8.4c1.6-17.4 17.2-32.2 36-32.2 19 0 33 15.2 35.2 32.2zM588.744 715h-9v165h9zM649.388 794c22.4 0 37 16.8 37 38.2 0 22.2-12.8 41.4-36.4 41.4-22.4 0-36.4-19.2-36.4-40.4 0-20 14.6-39.2 35.8-39.2zm45.4-6.4h-9v16h-.4c-7.8-11.6-21.4-18-35.6-18-27.8 0-45.2 20.6-45.2 47.6s17.6 48.8 45.6 48.8c13.6 0 28.4-6.8 35.2-18.6h.4V880h9zM723.897 871.6l75.4-84h-82.2v8.4h63.4l-75.6 84h94v-8.4z"/><path d="M837.39 881.6l-22.2 52.4h9.2l62-146.4h-9.2l-35.4 83.6-39.4-83.6h-9.4zM988.487 873.6c-22.4 0-36.4-19.2-36.4-40.4 0-20 14.6-39.2 35.8-39.2 22.4 0 37 16.8 37 38.2 0 22.2-12.8 41.4-36.4 41.4zm35.8 6.4h9V715h-9v88.6h-.4c-7.8-11.6-21.4-18-35.6-18-27.8 0-45.2 20.6-45.2 47.6s17.6 48.8 45.6 48.8c13.6 0 28.4-6.8 35.2-18.6h.4zM1097.197 785.6c-26.8 0-48 21.8-48 48.4 0 26.2 21.4 48 48 48 27.2 0 48.6-20.8 48.6-48.2 0-27.4-21.4-48.2-48.6-48.2zm-.6 8.4c22.8 0 40.2 17.2 40.2 40 0 22.4-17.6 39.6-40.2 39.6-21.8 0-38.4-18.6-38.4-39.6 0-21.4 16.4-40 38.4-40zM1198.772 794c22.4 0 37 16.8 37 38.2 0 22.2-12.8 41.4-36.4 41.4-22.4 0-36.4-19.2-36.4-40.4 0-20 14.6-39.2 35.8-39.2zm45.4-6.4h-9v16h-.4c-8.6-11.6-19.8-18-34.8-18-27 0-46 21.4-46 48 0 25.8 18 48.4 44.8 48.4 14 0 27.8-7 36-18h.4v11.4c0 12.4-1 24.4-8.2 35-6.8 9.8-18 13.8-29.6 13.8-18.6 0-34.8-12-35.8-31.2h-9c1.4 25.4 21.4 39.6 45.6 39.6 14.6 0 28.2-6 36.8-17.8 8.8-12.2 9.2-25 9.2-39.2zM1284.453 865.6c-4.6 0-8.2 3.6-8.2 8.2s3.6 8.2 8.2 8.2 8.2-3.6 8.2-8.2-3.6-8.2-8.2-8.2z"/></g></svg>