<svg xmlns="http://www.w3.org/2000/svg" viewBox="0 0 800 500" height="500" width="800"><path fill="#fff" d="M0 0h800v500H0z"/><g font-weight="100" font-size="100" font-family="Futura" letter-spacing="-.03em" text-anchor="middle" fill="#222"><path d="M241.818 39.1h19.5v-4.5h-43.8v4.5h19.5V110h4.8zM266.54 27.5V110h4.5V87.2c0-9.4 1.9-20.2 13.5-20.2 10.1 0 11.1 6.8 11.1 15.1V110h4.5V82.1c0-11.9-3.3-19.3-15.2-19.3-6 0-11 3.1-13.7 8.2h-.2V27.5zM352.663 87.3c.1-13.3-8.2-24.5-22.2-24.5-13.5 0-22.4 11.1-22.4 24 0 13.1 8.7 24.2 22.4 24.2 9.1 0 16.5-4.5 20.7-12.5l-3.8-2.2c-3.3 6.2-9.1 10.5-16.3 10.5-10.7 0-18.8-7.8-18.5-19.5zm-40.1-4.2c.8-8.7 8.6-16.1 18-16.1 9.5 0 16.5 7.6 17.6 16.1zM406.795 67c11.3 0 18.2 9.8 18.2 20.4 0 10.3-7.2 19.4-18 19.4-11.1 0-18.4-8.1-18.4-18.9 0-11.1 6.4-20.9 18.2-20.9zm22.4-3.2h-4.5v8.3h-.2c-3.4-5.9-10.8-9.3-17.6-9.3-14.1 0-22.8 11-22.8 24.6 0 13.4 8.7 23.6 22.6 23.6 7.1 0 14-3.1 17.8-9h.2v35h4.5zM469.65 63.8v26.1c0 8.9-1 16.9-12.1 16.9s-12.1-8-12.1-16.9V63.8h-4.5v27.7c0 4.7-.1 9.4 2.8 13.3 3.2 4.2 8.6 6.2 13.8 6.2 5.2 0 10.6-2 13.8-6.2 2.9-3.9 2.8-8.6 2.8-13.3V63.8zM492.115 63.8h-4.5V110h4.5zm-2.2-19.5c-2.3 0-4.1 1.9-4.1 4.1 0 2.3 1.8 4.1 4.1 4.1s4.1-1.8 4.1-4.1c0-2.2-1.8-4.1-4.1-4.1zM541.752 68.5c-4.6-3.9-10.1-5.7-16.1-5.7-13.6 0-23.8 10.6-23.8 24 0 13.5 10 24.2 23.7 24.2 6.2 0 12.1-2.3 16.8-6.4v-6.1c-4.2 5.1-10.4 8.3-17 8.3-10.9 0-19-9.5-19-20s8.2-19.8 19.1-19.8c6.6 0 11.9 2.7 16.3 7.5zM555.51 27.5h-4.5V110h4.5V89.5l2.5-2.6 22.9 23.1h5.9l-25.9-26.2 19.4-20h-5.8l-19 19.6zM235.202 216.8c-11.4 0-18.2-9.3-18.2-20.1 0-11 6.7-19.7 18.4-19.7 10.7 0 18 9.5 18 19.6 0 10.6-6.9 20.2-18.2 20.2zm-22.4 3.2h4.5v-8.3h.2c3.4 5.9 10.8 9.3 17.6 9.3 14 0 22.8-10.9 22.8-24.4 0-13.5-8.8-23.8-22.6-23.8-7.1 0-13.9 3.2-17.8 9h-.2v-44.3h-4.5zM270.356 173.8h-4.5V220h4.5v-23.6c0-6.8-.6-19.4 9.5-19.4 1.2 0 2.1.3 3.2.9l2.4-4c-1.6-.7-3.1-1.1-4.9-1.1-4.9 0-8.2 2.8-10 7h-.2zM310.09 172.8c-13.4 0-24 10.9-24 24.2 0 13.1 10.7 24 24 24 13.6 0 24.3-10.4 24.3-24.1 0-13.7-10.7-24.1-24.3-24.1zm-.3 4.2c11.4 0 20.1 8.6 20.1 20 0 11.2-8.8 19.8-20.1 19.8-10.9 0-19.2-9.3-19.2-19.8 0-10.7 8.2-20 19.2-20zM339.678 173.8h-4.6l20.8 48.7 16.2-39.9 16.3 39.9 20.9-48.7h-4.6l-16 37.9-16.4-40.4-16.3 40.4zM418.973 173.8h-4.5V220h4.5v-22.8c0-9.4 1.9-20.2 13.5-20.2 10.1 0 11.1 6.8 11.1 15.1V220h4.5v-27.9c0-11.9-3.3-19.3-15.2-19.3-6 0-11 3.1-13.7 8.2h-.2zM493.052 178h11.6v-4.2h-11.6V154c0-5.8.1-13.6 7.9-13.6 1.3 0 2.5.4 3.7.6v-4.1c-1.3-.5-2.6-.7-4-.7-4.2 0-8.2 1.9-10.3 5.6-1.7 3-1.8 7.9-1.8 11.3v20.7h-5.1v4.2h5.1v42h4.5zM529.075 172.8c-13.4 0-24 10.9-24 24.2 0 13.1 10.7 24 24 24 13.6 0 24.3-10.4 24.3-24.1 0-13.7-10.7-24.1-24.3-24.1zm-.3 4.2c11.4 0 20.1 8.6 20.1 20 0 11.2-8.8 19.8-20.1 19.8-10.9 0-19.2-9.3-19.2-19.8 0-10.7 8.2-20 19.2-20zM572.763 195.6l-18.8 24.4h5.3l16.4-21.2 16.5 21.2h5.3l-18.8-24.4 17.2-21.8h-5.4l-14.8 18.7-14.7-18.7h-5.4zM206.634 283.8h-4.5V357h4.5zm-2.2-19.5c-2.3 0-4.1 1.9-4.1 4.1 0 2.3 1.8 4.1 4.1 4.1s4.1-1.8 4.1-4.1c0-2.2-1.8-4.1-4.1-4.1zM248.872 283.8v26.1c0 8.9-1 16.9-12.1 16.9s-12.1-8-12.1-16.9v-26.1h-4.5v27.7c0 4.7-.1 9.4 2.8 13.3 3.2 4.2 8.6 6.2 13.8 6.2 5.2 0 10.6-2 13.8-6.2 2.9-3.9 2.8-8.6 2.8-13.3v-27.7zM269.637 283.8h-4.5V330h4.5v-25.4c0-7.5 1.8-17.6 11.5-17.6 9 0 10.3 7.3 10.3 14.5V330h4.5v-26.6c0-8 2.3-16.4 11.9-16.4 8.8 0 9.9 6.3 9.9 13.4V330h4.5v-29c0-10.1-2.4-18.2-14.3-18.2-5.9 0-11 2.9-13.5 8.4-2.4-5.4-7.1-8.4-13-8.4-4.9 0-9.5 2.5-11.6 6.8h-.2zM356.998 287c11.3 0 18.2 9.8 18.2 20.4 0 10.3-7.2 19.4-18 19.4-11.1 0-18.4-8.1-18.4-18.9 0-11.1 6.4-20.9 18.2-20.9zm-17.9-3.2h-4.5V357h4.5v-35h.2c3.8 5.9 10.7 9 17.8 9 13.9 0 22.6-10.2 22.6-23.7s-8.7-24.5-22.8-24.5c-6.8 0-14.2 3.4-17.6 9.3h-.2zM410.953 290.2c-2-4.3-7.1-7.4-11.8-7.4-6.7 0-12.6 4.7-12.6 11.7 0 7.8 7.2 10.5 13.5 12.8 4.6 1.6 9 3.4 9 9.1 0 5.8-4.6 10.4-10.4 10.4-6.1 0-9.8-3.9-11.5-9.4l-4.4 1.4c1.9 7.5 8.2 12.2 15.9 12.2 8.3 0 14.9-5.9 14.9-14.4 0-16.7-22.5-11.3-22.5-22.4 0-4 4-7.2 7.9-7.2 3.6 0 6.6 2 8.1 5.2zM469.708 282.8c-13.4 0-24 10.9-24 24.2 0 13.1 10.7 24 24 24 13.6 0 24.3-10.4 24.3-24.1 0-13.7-10.7-24.1-24.3-24.1zm-.3 4.2c11.4 0 20.1 8.6 20.1 20 0 11.2-8.8 19.8-20.1 19.8-10.9 0-19.2-9.3-19.2-19.8 0-10.7 8.2-20 19.2-20zM499.295 283.8h-4.6l21.2 48.7 21.1-48.7h-4.6l-16.4 38.1zM582.355 307.3c.1-13.3-8.2-24.5-22.2-24.5-13.5 0-22.4 11.1-22.4 24 0 13.1 8.7 24.2 22.4 24.2 9.1 0 16.5-4.5 20.7-12.5l-3.8-2.2c-3.3 6.2-9.1 10.5-16.3 10.5-10.7 0-18.8-7.8-18.5-19.5zm-40.1-4.2c.8-8.7 8.6-16.1 18-16.1 9.5 0 16.5 7.6 17.6 16.1zM594.73 283.8h-4.5V330h4.5v-23.6c0-6.8-.6-19.4 9.5-19.4 1.2 0 2.1.3 3.2.9l2.4-4c-1.6-.7-3.1-1.1-4.9-1.1-4.9 0-8.2 2.8-10 7h-.2zM154.92 398h8.1v-4.2h-8.1v-16.5h-4.5v16.5h-5.1v4.2h5.1v42h4.5zM167.817 357.5V440h4.5v-22.8c0-9.4 1.9-20.2 13.5-20.2 10.1 0 11.1 6.8 11.1 15.1V440h4.5v-27.9c0-11.9-3.3-19.3-15.2-19.3-6 0-11 3.1-13.7 8.2h-.2v-43.5zM253.94 417.3c.1-13.3-8.2-24.5-22.2-24.5-13.5 0-22.4 11.1-22.4 24 0 13.1 8.7 24.2 22.4 24.2 9.1 0 16.5-4.5 20.7-12.5l-3.8-2.2c-3.3 6.2-9.1 10.5-16.3 10.5-10.7 0-18.8-7.8-18.5-19.5zm-40.1-4.2c.8-8.7 8.6-16.1 18-16.1 9.5 0 16.5 7.6 17.6 16.1zM294.372 357.5h-4.5V440h4.5zM324.694 397c11.2 0 18.5 8.4 18.5 19.1 0 11.1-6.4 20.7-18.2 20.7-11.2 0-18.2-9.6-18.2-20.2 0-10 7.3-19.6 17.9-19.6zm22.7-3.2h-4.5v8h-.2c-3.9-5.8-10.7-9-17.8-9-13.9 0-22.6 10.3-22.6 23.8s8.8 24.4 22.8 24.4c6.8 0 14.2-3.4 17.6-9.3h.2v8.3h4.5zM361.948 435.8l37.7-42h-41.1v4.2h31.7l-37.8 42h47v-4.2z"/><path d="M418.695 440.8l-11.1 26.2h4.6l31-73.2h-4.6l-17.7 41.8-19.7-41.8h-4.7zM494.244 436.8c-11.2 0-18.2-9.6-18.2-20.2 0-10 7.3-19.6 17.9-19.6 11.2 0 18.5 8.4 18.5 19.1 0 11.1-6.4 20.7-18.2 20.7zm17.9 3.2h4.5v-82.5h-4.5v44.3h-.2c-3.9-5.8-10.7-9-17.8-9-13.9 0-22.6 10.3-22.6 23.8s8.8 24.4 22.8 24.4c6.8 0 14.2-3.4 17.6-9.3h.2zM548.598 392.8c-13.4 0-24 10.9-24 24.2 0 13.1 10.7 24 24 24 13.6 0 24.3-10.4 24.3-24.1 0-13.7-10.7-24.1-24.3-24.1zm-.3 4.2c11.4 0 20.1 8.6 20.1 20 0 11.2-8.8 19.8-20.1 19.8-10.9 0-19.2-9.3-19.2-19.8 0-10.7 8.2-20 19.2-20zM599.386 397c11.2 0 18.5 8.4 18.5 19.1 0 11.1-6.4 20.7-18.2 20.7-11.2 0-18.2-9.6-18.2-20.2 0-10 7.3-19.6 17.9-19.6zm22.7-3.2h-4.5v8h-.2c-4.3-5.8-9.9-9-17.4-9-13.5 0-23 10.7-23 24 0 12.9 9 24.2 22.4 24.2 7 0 13.9-3.5 18-9h.2v5.7c0 6.2-.5 12.2-4.1 17.5-3.4 4.9-9 6.9-14.8 6.9-9.3 0-17.4-6-17.9-15.6h-4.5c.7 12.7 10.7 19.8 22.8 19.8 7.3 0 14.1-3 18.4-8.9 4.4-6.1 4.6-12.5 4.6-19.6zM642.227 432.8c-2.3 0-4.1 1.8-4.1 4.1s1.8 4.1 4.1 4.1 4.1-1.8 4.1-4.1-1.8-4.1-4.1-4.1z"/></g></svg>