<svg xmlns="http://www.w3.org/2000/svg" viewBox="0 0 800 500"><path fill="#fff" d="M0 0h800v500H0z"/><g font-weight="400" font-size="100" font-family="Garamond" letter-spacing="-.03em" text-anchor="middle" fill="#222"><path d="M229.51 55.3v44.3q0 5.4.7 6.5 1 1.8 5.8 1.8 2.6 0 2.6 1.2 0 1.3-1.7 1.3-1.9 0-5.6-.2-3.7-.2-5.6-.2-1.9 0-5.7.2-3.8.2-5.7.2-1.7 0-1.7-1.3 0-1.2 2.5-1.2 4.8 0 5.9-1.8.6-1.1.6-6.5V53.3q0-2.4-1-2.8-.3-.1-3.4-.1-7.3 0-10.4 1.4-3.8 1.8-7.2 7.5-1.4 2.4-2.2 2.4-1 0-1-1.2 0-.9.6-2.4l3.9-13q.4-1.4 1.3-1.4t.9 1.1q0 .7.8 2.1 1 .8 5 .8h36.3q3.2 0 3.6-.1 1.8-.4 2.4-2.1.7-1.8 1.6-1.8 1.1 0 .9 3.6l-.6 12.2q-.1 1.7-1.2 1.7-.6 0-1.2-1.5-.5-1.6-1-3.4-.8-2.1-1.8-3.3-2.1-2.6-8.1-2.6h-5.8q-3.4 0-4 .6-.5.5-.5 4.3zM267.818 41.5v29.3q.2 1 .8 1 .5 0 1.2-.7 6.3-6.3 14.6-6.3 8 0 11.5 4.8 2.9 4 2.9 14.3v15.9q0 4.8.2 5.5.8 2.4 4.3 2.7 2.8.3 2.8 1.3 0 1.1-1.2 1.1-1.6 0-4.8-.2-3.1-.2-4.6-.2-1.6 0-4.8.2-3.2.2-4.7.2-1.4 0-1.4-1 0-1.1 2.8-1.4 3.5-.3 4.3-2.7.2-.7.2-5.5V82.5q0-7.3-1.7-9.9-3-4.5-9.5-4.5-5.8 0-9.9 4.3-2 2.1-2.6 4.2-.4 1.5-.4 5v18.2q0 4.8.2 5.5.8 2.4 4.3 2.7 2.8.3 2.8 1.3 0 1.1-1.2 1.1-1.6 0-4.8-.2-3.1-.2-4.6-.2-1.6 0-4.8.2-3.2.2-4.7.2-1.4 0-1.4-1 0-1.1 2.8-1.4 3.5-.3 4.3-2.7.2-.7.2-5.5V54.3q0-4.8-.1-5.4-.7-2.7-3.8-2.7-2.6 0-2.6-1 0-.9 1.4-1.1 6.1-1.1 9-3.1 1.6-1.1 2.1-1.1.9 0 .9 1.6zM349.773 82.8h-30.3q-2.7 0-3.2.3-.9.5-.9 2.8 0 8.7 5.2 14.6 5.4 6.3 14.2 6.3 4.3 0 7.9-1.7 2.3-1.1 4.7-3.1 1.9-1.7 2.2-1.7.8 0 .8.8 0 1.2-3.9 4.5-6.6 5.6-15.8 5.6-9.7 0-16.3-6.7-6.5-6.8-6.5-16.3 0-10.4 7.2-16.7 7.7-6.7 18-6.7 9.4 0 14.4 6.2 3.5 4.3 3.5 10.1 0 1.7-1.2 1.7zm-30.2-2.4h8.1q8.2 0 11.7-.8 3.6-.9 3.6-4 0-3.2-2.6-5.9-2.9-3.1-8.7-3.1-8.1 0-13 6.7-2.5 3.4-2.5 5.8 0 1.3 3.4 1.3zM428.204 80.1v42.2q0 4.8.2 5.5.8 2.4 4.3 2.7 2.8.3 2.8 1.3 0 1.1-1.2 1.1-1.6 0-4.8-.2-3.1-.2-4.6-.2-1.6 0-4.8.2-3.2.2-4.7.2-1.4 0-1.4-1 0-1.1 2.8-1.4 3.5-.3 4.3-2.7.2-.7.2-5.5v-12.2q0-2.5-.7-2.5t-3.3 1.6q-2.6 1.5-5.2 1.8-1.3.2-5.6.2-9.8 0-16.2-6.8-6.3-6.8-6.3-17.3 0-9.4 7.5-15.8 7.6-6.5 18.2-6.5 4.3 0 10.1 1.9.5.2 2.4 1.6 2 1.3 2.5 1.3 1 0 2.2-2.4 1.3-2.4 2.2-2.4.8 0 .8.9 0-.1-.3 1.1-1.4 5.6-1.4 13.3zm-6.9 17.8V78.3q0-5.6-1.1-7.4-1-1.8-4-3-2.6-1.1-5.1-1.1-8.9 0-14.3 6.4-5.4 6.3-5.4 15.4 0 8 5.2 13.8 5.5 6.1 13.6 6.1 2.7 0 5.5-1.1 3.2-1.2 4.4-3.2 1.2-2 1.2-6.3zM479.86 68.6V98q0 4.3.2 4.9.6 1.9 3.8 1.7l1.3-.1q1.3-.1 1.3.8 0 .7-2.1 1.3-7.1 2.1-10 4.3-1.2.6-1.1.6-.5 0-.5-.8v-2.4q0-4.1-.8-4.1-.4 0-2.6 1.8-2.7 2.2-5 3.4-3.7 1.8-7.7 1.8-7.3 0-11.8-5.8-2.1-2.7-2.7-6.8-.3-2.1-.3-7.3V76.1q0-4.9-.2-5.6-.7-2.4-4.3-2.4-2.7 0-2.7-1.4 0-.6 1.3-.6h11.2q1.3 0 1.6 1.2v24q0 8.3 1.8 11.2 2.8 4.6 10 4.6 6.6 0 10.7-4.5 1.4-1.5 1.6-3.5.1-.5.1-3.9V76.1q0-5-.2-5.6-.7-2.4-4.2-2.4-2.8 0-2.8-1.3 0-.7 1.4-.7h11.6q1 0 1.2.8-.1-.3-.1 1.7zM503.813 66.4v33.4q0 4.8.2 5.5.8 2.4 4.3 2.7 2.8.3 2.8 1.3 0 1.1-1.2 1.1-1.6 0-4.8-.2-3.1-.2-4.6-.2-1.6 0-4.8.2-3.2.2-4.7.2-1.4 0-1.4-1 0-1.1 2.8-1.4 3.5-.3 4.3-2.7.2-.7.2-5.5V81q0-5.3-1-6.4-.8-.8-2.9-.8h-1.3q-1.2 0-1.2-.8 0-1 2.3-1.7 5.1-1.5 8.3-5.2 1.1-1.3 1.8-1.3.9 0 .9 1.6zm-3.5-10.3q-4.3 0-4.3-4.8 0-2 1.2-3.5 1.3-1.5 3.3-1.5 1.9 0 3 1.5 1.2 1.4 1.2 3.3 0 5-4.4 5zM552.19 72.5q0 4 .1 2.8-.2 2.3-1.3 2.3-1.2 0-3-2.9-2.6-4-3.8-5.2-2.8-2.9-6.3-2.9-5.3 0-10.1 4.1-7.2 6.2-7.2 16.2 0 8 5.2 14.1 5.4 6.5 13.5 6.5 7 0 11.5-4.4 1.2-1.2 1.5-1.2.7 0 .7.8 0 1.2-3 3.6-6 4.9-14.5 4.9-9.2 0-15.8-6.6-6.6-6.6-6.6-15.7 0-9.9 8-17.1 7.7-7 18-7 7.5 0 12.3 3.3.8.6.9 2-.1-1.9-.1 2.4zM568.984 94.1v5.7q0 4.8.2 5.5.8 2.4 4.3 2.7 2.8.3 2.8 1.3 0 1.1-1.2 1.1-1.6 0-4.8-.2-3.1-.2-4.6-.2-1.6 0-4.8.2-3.2.2-4.7.2-1.4 0-1.4-1 0-1.1 2.8-1.4 3.5-.3 4.3-2.7.2-.7.2-5.5V54.3q0-4.8-.1-5.4-.7-2.7-3.8-2.7-2.6 0-2.6-1 0-.9 1.4-1.1 6.1-1.1 9-3.1 1.6-1.1 2.1-1.1.9 0 .9 1.6V85q0 2.1.6 2.1.4 0 1.1-.7l14.8-11.7q4.1-3.2 4.1-4.7 0-1.6-3.2-1.6-1.2-.1-2.3-.1-1.5-.2-1.5-1.3 0-.9 2.2-.9h17.6q1.7 0 1.7.8 0 1.1-2 1.2-3.4.1-6.2 1.7-1.3.8-5.3 3.9l-7.6 6q-2.5 2-2.5 2.7 0 .6.7 1.3l15.1 19.2q2.3 2.9 3.1 3.6 1.8 1.5 4.2 1.5 2.1 0 2.1 1.5 0 .9-1.6.9t-4.9-.2-4.9-.2q-1.5 0-4.6.2-3.1.2-4.7.2t-1.6-.8q0-1.6 1.7-1.6 3.9 0 3.9-1.9 0-1.1-2.4-4.2l-9.3-12.2q-2.1-2.8-2.9-2.8-.5 0-2.3 1.4-2.4 1.8-2.7 2.3-.4.8-.4 3.5zM202.707 151.5v27.3q0 1.2.8 1.2-.1 0 1.3-.7 8.5-4.2 14.3-4.5 9.4-.5 15.7 6 6.4 6.4 6.4 15.8 0 10.8-7.9 17.7-7.8 6.9-18.8 6.9-4.8 0-9.5-2.2-4.6-2.2-4.7-2.2-1 0-2.2 2.5-1.3 2.8-2.3 2.8-1 0-1-1.2 0-.1.5-2.6t.5-7.4v-46.6q0-4.8-.1-5.4-.7-2.7-3.8-2.7-2.6 0-2.6-1 0-.9 1.4-1.1 6.1-1.1 9-3.1 1.6-1.1 2.1-1.1.9 0 .9 1.6zm0 36.2v20.7q0 5.9 2.2 8 3.2 3.1 9.6 3.1 8.8 0 14.1-6.5 5-6.1 5-15.1 0-8-4.8-13.7-5-6.1-12.9-6.1-6.8 0-11.4 3.8-1.4 1.2-1.7 2.6-.1.4-.1 3.2zM250.762 209.8V191q0-5.3-1-6.4-.8-.8-2.9-.8h-1.3q-1.2 0-1.2-.8 0-1 2.3-1.7 5.1-1.5 8.3-5.2 1.1-1.3 1.8-1.3.9 0 .9 1.6v4.9q0 2.1.5 2.1.3 0 2-2.1 2.1-2.5 3.9-3.8 2.9-2.1 5.9-2.1 2.4 0 4 1.3 1.7 1.3 1.7 3.5 0 4-4.2 4-1.8 0-3.5-1.9-1.6-1.9-2.9-1.9-2.5 0-5.1 3.6-1.6 2.2-2.1 4.8-.2 1.3-.2 5.2v15.8q0 4.8.2 5.5.8 2.4 4.3 2.7 2.8.3 2.8 1.3 0 1.1-1.2 1.1-1.6 0-4.8-.2-3.1-.2-4.6-.2-1.6 0-4.8.2-3.2.2-4.7.2-1.4 0-1.4-1 0-1.1 2.8-1.4 3.5-.3 4.3-2.7.2-.7.2-5.5zM300.84 221.2q-10.3 0-17.6-6.7-7.2-6.8-7.2-16.9 0-9.5 6.8-16.1 6.9-6.7 18-6.7 10.1 0 17 5.8 7.8 6.6 7.8 17 0 10.1-7.3 16.9-7.3 6.7-17.5 6.7zm.3-1.9q7.6 0 12.5-6.9 4.4-6.3 4.4-14.1 0-8.4-4.3-14.6-4.9-7-13-7-7.8 0-12.7 6.4-4.5 5.8-4.5 14t4.6 14.8q5.1 7.4 13 7.4zM364.79 191.4l-12.5 28q-.8 1.8-1.4 1.8-.6 0-1.4-1.8l-15.8-35.1q-1.5-3.4-2.2-4.2-1.5-2-4-2-2.4 0-2.4-.9 0-1.1 1.7-1.1h45.2q1.6 0 1.6 1.1 0 .9-2.3.9-3.5 0-3.5 2.4 0 1 1.5 4.3l11.8 25.8 10.1-23.4q1.7-3.9 1.7-5.8 0-3.3-3.2-3.3-3.1 0-3.1-.8 0-1.2 1.7-1.2h14.5q1.4 0 1.4 1.2 0 .4-2.8.8-3.1.4-5 3.4-.5.7-2.6 5.7l-13.7 32.2q-.8 1.8-1.3 1.8t-1.3-1.8zm-11.4 19.6l7.9-17.5q1.6-3.5 1.6-4.6 0-.8-.6-2.1l-1.1-2.4q-1.9-4.3-3-5.1-1.5-1.2-5.6-1.2h-7.3q-5 0-5 2.6 0 1.7 2.2 6.5zM410.12 209.8V191q0-5.3-1-6.4-.8-.8-2.9-.8h-1.3q-1.2 0-1.2-.8 0-1 2.3-1.7 5.1-1.5 8.3-5.2 1.1-1.3 1.8-1.3.9 0 .9 1.6v6.6q.5 0 3-2.1 3.1-2.7 5.5-4 3.9-2.1 7.9-2.1 7.6 0 11.8 5.4 2.1 2.7 2.7 6.6.3 2 .3 7.2v15.8q0 4.8.2 5.5.8 2.4 4.3 2.7 2.8.3 2.8 1.3 0 1.1-1.2 1.1-1.6 0-4.8-.2-3.1-.2-4.6-.2-1.6 0-4.8.2-3.2.2-4.7.2-1.4 0-1.4-1 0-1.1 2.8-1.4 3.5-.3 4.3-2.7.2-.7.2-5.5v-15.9q0-7.2-1.8-9.9-3-4.5-9.4-4.5-5.8 0-9.9 4.3-3.2 3.3-3.2 9.2v16.8q0 4.8.2 5.5.8 2.4 4.3 2.7 2.8.3 2.8 1.3 0 1.1-1.2 1.1-1.6 0-4.8-.2-3.1-.2-4.6-.2-1.6 0-4.8.2-3.2.2-4.7.2-1.4 0-1.4-1 0-1.1 2.8-1.4 3.5-.3 4.3-2.7.2-.7.2-5.5zM498.207 182.8v27q0 4.8.2 5.5.8 2.4 4.3 2.7 2.8.3 2.8 1.3 0 1.1-1.2 1.1-1.7 0-5-.2-3.2-.2-4.8-.2-1.5 0-4.6.2-3.1.2-4.6.2-1.3 0-1.3-1 0-1.1 2.7-1.4 3.6-.3 4.3-2.7.3-.8.3-5.5v-27q0-2.5-.4-3-.3-.6-2.5-.6-3.3 0-1.8.1-1.2-.1-1.2-.9 0-1 2.3-1.6 2.4-.6 3-2.6.1-.4.4-4.2.7-9.6 4.3-13.4 6.2-6.7 14.1-6.7 2.3 0 5 .8 3.7 1.1 3.7 2.9 0 1-.9 3.2-1 2.5-1.9 2.5-.9 0-2.9-2.2-3.8-4.3-6.7-4.3-7.6 0-7.6 13.8v5q0 3.4.4 4 .5.5 3.5.5h7.9q1.4 0 1.4 1.8 0 1.1-.9 1.3h-8.8q-2.7 0-3.1.4-.4.4-.4 3.2zM538.085 221.2q-10.3 0-17.6-6.7-7.2-6.8-7.2-16.9 0-9.5 6.8-16.1 6.9-6.7 18-6.7 10.1 0 17 5.8 7.8 6.6 7.8 17 0 10.1-7.3 16.9-7.3 6.7-17.5 6.7zm.3-1.9q7.6 0 12.5-6.9 4.4-6.3 4.4-14.1 0-8.4-4.3-14.6-4.9-7-13-7-7.8 0-12.7 6.4-4.5 5.8-4.5 14t4.6 14.8q5.1 7.4 13 7.4zM586.94 200.7l-6.5 8.2q-4.1 5.2-4.1 7.1 0 2 4.1 2 2.6 0 2.6 1.4 0 1-1.6 1-1.4 0-4.2-.2-2.8-.2-4.2-.2-1.5 0-4.5.2t-4.5.2q-1.2 0-1.2-.9 0-1.5 2.5-1.5 4.7 0 11-7.9l6.9-8.6q1.8-2.7 1.8-3 0-.5-.9-1.7l-9.9-12.9q-3.1-4-3.4-4.3-1.7-1.5-4.9-1.5-2.4 0-2.4-.9 0-1.1.7-1.1h21.6q1.6 0 1.6.9 0 1.1-1.9 1.1-4.7 0-4.7 1.9 0 1.1 2.7 4.7l6.3 8.5 5.5-6.9q3.4-4.3 3.4-5.7 0-2.5-3.7-2.5-2.5 0-2.5-1t1.4-1h18.1q1.7 0 1.7 1.1 0 .9-2.7.9-4.2 0-6.8 2-1.4 1.1-5.1 5.5l-5.1 6.2q-2.1 2.6-2.1 3.4 0 .6 1.9 3.1l10.3 13.8q1.6 2.2 4.8 5.3 1 .6 3.3.6t2.3 1.3q0 1.1-1.9 1.1t-5.8-.2-5.8-.2q-1.5 0-4.5.2t-4.4.2q-1.3 0-1.3-1.1 0-1.3 2.2-1.3 5 0 5-1.8 0-1.1-2.7-4.6zM190.463 286.4v45.3q0 8.6-3 12.9-2.9 4.4-9.2 8.7-2.1 1.4-2.6 1.4-.7 0-.7-.7 0-.8 1-1.6 4.3-3.5 5.9-6.5 1.7-2.9 1.7-8.1V301q0-5.3-1-6.4-.8-.8-2.9-.8h-1.3q-1.2 0-1.2-.8 0-1 2.3-1.7 5.1-1.5 8.3-5.2 1.1-1.3 1.8-1.3.9 0 .9 1.6zm-3.8-10.3q-1.8 0-2.9-1.4-1-1.5-1-3.4 0-5 4.3-5t4.3 4.8q0 5-4.7 5zM240.234 288.6V318q0 4.3.2 4.9.6 1.9 3.8 1.7l1.3-.1q1.3-.1 1.3.8 0 .7-2.1 1.3-7.1 2.1-10 4.3-1.2.6-1.1.6-.5 0-.5-.8v-2.4q0-4.1-.8-4.1-.4 0-2.6 1.8-2.7 2.2-5 3.4-3.7 1.8-7.7 1.8-7.3 0-11.8-5.8-2.1-2.7-2.7-6.8-.3-2.1-.3-7.3v-15.2q0-4.9-.2-5.6-.7-2.4-4.3-2.4-2.7 0-2.7-1.4 0-.6 1.3-.6h11.2q1.3 0 1.6 1.2v24q0 8.3 1.8 11.2 2.8 4.6 10 4.6 6.6 0 10.7-4.5 1.4-1.5 1.6-3.5.1-.5.1-3.9v-19.1q0-5-.2-5.6-.7-2.4-4.2-2.4-2.8 0-2.8-1.3 0-.7 1.4-.7h11.6q1 0 1.2.8-.1-.3-.1 1.7zM256.288 319.8V301q0-5.3-1-6.4-.8-.8-2.9-.8h-1.3q-1.2 0-1.2-.8 0-1 2.3-1.7 5.1-1.5 8.3-5.2 1.1-1.3 1.8-1.3.9 0 .9 1.6 0 6 .6 6 .4 0 2.7-2 2.8-2.4 5.2-3.6 3.7-2 7.6-2 4.4 0 7.4 2.3 2 1.4 3.6 4.1 1.3 2.3 1.6 2.3.3 0 2.5-2.3 2.8-2.7 5.3-4.1 3.8-2.3 7.9-2.3 6.7 0 10.6 4.6 2.1 2.5 2.7 6.3.3 1.9.3 7v17.1q0 4.8.2 5.5.8 2.4 4.3 2.7 2.8.3 2.8 1.3 0 1.1-1.2 1.1-1.6 0-4.8-.2-3.1-.2-4.6-.2-1.6 0-4.8.2-3.2.2-4.7.2-1.4 0-1.4-1 0-1.1 2.8-1.4 3.5-.3 4.3-2.7.2-.7.2-5.5v-17q0-6.9-1.3-9.5-1.2-2.3-3.8-3.6-2.6-1.3-5.1-1-5.3.7-8.7 3.9-2.2 2.1-2.8 4.3-.4 1.4-.4 5.1v17.8q0 4.8.2 5.5.8 2.4 4.3 2.7 2.8.3 2.8 1.3 0 1.1-1.2 1.1-1.6 0-4.8-.2-3.1-.2-4.6-.2-1.6 0-4.8.2-3.2.2-4.7.2-1.4 0-1.4-1 0-1.1 2.8-1.4 3.5-.3 4.3-2.7.2-.7.2-5.5v-17q0-6.9-1.3-9.5-1.2-2.3-3.8-3.6-2.6-1.3-5.1-1-5.3.7-8.7 3.9-2.2 2.1-2.8 4.3-.4 1.4-.4 5.1v17.8q0 4.8.2 5.5.8 2.4 4.3 2.7 2.8.3 2.8 1.3 0 1.1-1.2 1.1-1.6 0-4.8-.2-3.1-.2-4.6-.2-1.6 0-4.8.2-3.2.2-4.7.2-1.4 0-1.4-1 0-1.1 2.8-1.4 3.5-.3 4.3-2.7.2-.7.2-5.5zM335.52 342.3V301q0-5.3-1-6.4-.8-.8-2.9-.8h-1.3q-1.2 0-1.2-.8 0-1 2.3-1.7 5.1-1.5 8.3-5.2 1.1-1.3 1.8-1.3.9 0 .9 1.6v5.5q8.4-7 16.9-7.1 8.2-.1 15.1 7 6.1 6.3 6.1 15.8 0 10.3-7.2 17-7.2 6.7-17.8 6.6-3.9 0-10-2.1-3-.5-2.3-.5-.8 0-.8 3v10.7q0 4.8.2 5.5.8 2.4 4.3 2.7 2.8.3 2.8 1.3 0 1.1-1.2 1.1-1.6 0-4.8-.2-3.1-.2-4.6-.2-1.6 0-4.8.2-3.2.2-4.7.2-1.4 0-1.4-1 0-1.1 2.8-1.4 3.5-.3 4.3-2.7.2-.7.2-5.5zm37.4-33.4q0-9.1-5.3-14.6-5-5.2-12.2-5.2-7.8 0-11.3 5.2-1.7 1.9-1.7 6.9v15.5q0 7 3.3 9.9 3.3 2.8 8.6 2.8 8.3 0 13.6-6.4 5-5.9 5-14.1zM384.527 324.6l.3-6.7q.1-2.2 1.3-2.2t2 3.6q.9 4.6 2.5 6.5 2.7 3.6 8.6 3.6 4.8 0 8.3-2.5 3.9-2.8 3.9-7.3 0-6.5-9.6-9.6-7.4-2.4-10-4-5.3-3.3-5.3-8.6 0-5.5 5.3-9.3 4.6-3.3 11.8-3.3 6.4 0 10.3 1.7 1.1.5 1.2 2-.1-1.4-.1 2.5 0 6.9.1 2.7 0 2.2-1.1 2.2-.8 0-1.9-2.4-1.3-3.1-2.9-4.6-2.7-2.4-7.4-2.4-3.4 0-6.1 2-3.1 2.2-3.1 5.4 0 4.7 6.5 7.5 6 2.3 12 4.7 6.5 3.6 6.5 10.5 0 6.7-6.3 10.9-5.6 3.7-12.7 3.7-6.6 0-12.7-3-1.5-.7-1.4-3.6zM475.398 331.2q-10.3 0-17.6-6.7-7.2-6.8-7.2-16.9 0-9.5 6.8-16.1 6.9-6.7 18-6.7 10.1 0 17 5.8 7.8 6.6 7.8 17 0 10.1-7.3 16.9-7.3 6.7-17.5 6.7zm.3-1.9q7.6 0 12.5-6.9 4.4-6.3 4.4-14.1 0-8.4-4.3-14.6-4.9-7-13-7-7.8 0-12.7 6.4-4.5 5.8-4.5 14t4.6 14.8q5.1 7.4 13 7.4zM526.452 320.9l11.8-25.8q1.3-2.8 1.3-4.3 0-2.7-3.9-2.7-2.7 0-2.7-1.1 0-.9 1.5-.9h14.7q1.3 0 1.3.7 0 1-2.5 1.3-3 .4-5.2 3.7-.6 1-3 6.1l-14.3 31q-.3.6-.6 1.3-.6 1-1.1 1-.6 0-.9-1l-.6-1.3-14.5-35q-1.4-3.4-2.1-4.2-1.3-1.5-4.1-1.6-1.9-.1-1.9-1.1 0-.9 1.5-.9h18.1q1.9 0 1.9 1.1 0 .9-2.8.9-3.7 0-3.7 2.8 0 1.1 1.6 5zM592.452 302.8h-30.3q-2.7 0-3.2.3-.9.5-.9 2.8 0 8.7 5.2 14.6 5.4 6.3 14.2 6.3 4.3 0 7.9-1.7 2.3-1.1 4.7-3.1 1.9-1.7 2.2-1.7.8 0 .8.8 0 1.2-3.9 4.5-6.6 5.6-15.8 5.6-9.7 0-16.3-6.7-6.5-6.8-6.5-16.3 0-10.4 7.2-16.7 7.7-6.7 18-6.7 9.4 0 14.4 6.2 3.5 4.3 3.5 10.1 0 1.7-1.2 1.7zm-30.2-2.4h8.1q8.2 0 11.7-.8 3.6-.9 3.6-4 0-3.2-2.6-5.9-2.9-3.1-8.7-3.1-8.1 0-13 6.7-2.5 3.4-2.5 5.8 0 1.3 3.4 1.3zM603.652 319.8V301q0-5.3-1-6.4-.8-.8-2.9-.8h-1.3q-1.2 0-1.2-.8 0-1 2.3-1.7 5.1-1.5 8.3-5.2 1.1-1.3 1.8-1.3.9 0 .9 1.6v4.9q0 2.1.5 2.1.3 0 2-2.1 2.1-2.5 3.9-3.8 2.9-2.1 5.9-2.1 2.4 0 4 1.3 1.7 1.3 1.7 3.5 0 4-4.2 4-1.8 0-3.5-1.9-1.6-1.9-2.9-1.9-2.5 0-5.1 3.6-1.6 2.2-2.1 4.8-.2 1.3-.2 5.2v15.8q0 4.8.2 5.5.8 2.4 4.3 2.7 2.8.3 2.8 1.3 0 1.1-1.2 1.1-1.6 0-4.8-.2-3.1-.2-4.6-.2-1.6 0-4.8.2-3.2.2-4.7.2-1.4 0-1.4-1 0-1.1 2.8-1.4 3.5-.3 4.3-2.7.2-.7.2-5.5zM152.698 400.4v25.3q0 5.2.7 7.5 1.3 4.2 5.2 4.2 2.2 0 4.7-1.7l2.5-1.8q.7 0 .7.7 0 1.4-2 2.8-4.1 3.8-9.3 3.8-4.7 0-7.2-3.1-1.7-2.1-2.1-5.9-.1-1.2-.1-6.5V400q0-1.4-.4-1.6-.4-.2-2.1-.2-3.1 0-3.1-.8 0-.5 1.2-1.5 6.8-4.4 9.5-10.1.4-.9 1-.9.8 0 .8 1.2v7.1q0 2 1.6 2h9.9q.9 0 .9 1.4t-.7 1.6h-10.7q-1 .4-1 2.2z"/><path d="M180.228 371.5v29.3q.2 1 .8 1 .5 0 1.2-.7 6.3-6.3 14.6-6.3 8 0 11.5 4.8 2.9 4 2.9 14.3v15.9q0 4.8.2 5.5.8 2.4 4.3 2.7 2.8.3 2.8 1.3 0 1.1-1.2 1.1-1.6 0-4.8-.2-3.1-.2-4.6-.2-1.6 0-4.8.2-3.2.2-4.7.2-1.4 0-1.4-1 0-1.1 2.8-1.4 3.5-.3 4.3-2.7.2-.7.2-5.5v-17.3q0-7.3-1.7-9.9-3-4.5-9.5-4.5-5.8 0-9.9 4.3-2 2.1-2.6 4.2-.4 1.5-.4 5v18.2q0 4.8.2 5.5.8 2.4 4.3 2.7 2.8.3 2.8 1.3 0 1.1-1.2 1.1-1.6 0-4.8-.2-3.1-.2-4.6-.2-1.6 0-4.8.2-3.2.2-4.7.2-1.4 0-1.4-1 0-1.1 2.8-1.4 3.5-.3 4.3-2.7.2-.7.2-5.5v-45.5q0-4.8-.1-5.4-.7-2.7-3.8-2.7-2.6 0-2.6-1 0-.9 1.4-1.1 6.1-1.1 9-3.1 1.6-1.1 2.1-1.1.9 0 .9 1.6zM262.183 412.8h-30.3q-2.7 0-3.2.3-.9.5-.9 2.8 0 8.7 5.2 14.6 5.4 6.3 14.2 6.3 4.3 0 7.9-1.7 2.3-1.1 4.7-3.1 1.9-1.7 2.2-1.7.8 0 .8.8 0 1.2-3.9 4.5-6.6 5.6-15.8 5.6-9.7 0-16.3-6.7-6.5-6.8-6.5-16.3 0-10.4 7.2-16.7 7.7-6.7 18-6.7 9.4 0 14.4 6.2 3.5 4.3 3.5 10.1 0 1.7-1.2 1.7zm-30.2-2.4h8.1q8.2 0 11.7-.8 3.6-.9 3.6-4 0-3.2-2.6-5.9-2.9-3.1-8.7-3.1-8.1 0-13 6.7-2.5 3.4-2.5 5.8 0 1.3 3.4 1.3zM309.314 371.5v58.3q0 4.8.2 5.5.8 2.4 4.3 2.7 2.8.3 2.8 1.3 0 1.1-1.2 1.1-1.6 0-4.8-.2-3.1-.2-4.6-.2-1.6 0-4.8.2-3.2.2-4.7.2-1.4 0-1.4-1 0-1.1 2.8-1.4 3.5-.3 4.3-2.7.2-.7.2-5.5v-45.5q0-4.8-.1-5.4-.7-2.7-3.8-2.7-2.6 0-2.6-1 0-.9 1.4-1.1 6.1-1.1 9-3.1 1.6-1.1 2.1-1.1.9 0 .9 1.6zM334.29 419.3l7.7-3.6q2.7-1.3 3.2-2 .5-.8.5-3.6v-4.4q0-4.6-.9-6.3-1.3-2.7-5.5-2.7-7.7 0-11.5 8.4-.7 1.6-1.1 2.1-.6 1-1.7 1.5-2.8 1.3-4.3 1.3-1.3 0-1.3-1.2 0-3.4 4.2-7.1 7.9-6.9 17.9-6.9 6.1 0 9.1 2.6 1.5 1.3 1.9 3.4.1.7.1 3.9v23.6q0 8 3.5 8 1.5 0 2.9-1.2 1.4-1.3 1.6-1.3.7 0 .7.8 0 1-2.4 3.1-4.1 2.9-7.1 2.9-2.9 0-4.7-3.5-1.8-3.5-2.1-3.5-.2 0-2.6 2-3 2.3-5.7 3.6-4 2-7.8 2t-6.6-2.1q-2.8-2.2-2.8-5.8 0-4.6 5.3-8.7 3-2.3 9.5-5.3zm9.6-2.6l-9.1 4.6q-7.8 3.9-7.8 9.4 0 2.8 2 4.4 2 1.5 4.9 1.5 5.4 0 9.3-4 2.5-2.6 2.5-7.5v-6q0-2.8-.7-2.8.1 0-1.1.4zM402.038 399.7l-25.8 34.7q-1.6 1.6-1.6 2.5 0 .8 3.5.8h8.7q7.3 0 9.9-1.4 2.7-1.5 4.6-6.5.6-2 1.4-2 1.1 0 .9 3.8l-.2 4.9v2.3q-.2 1.3-1.5 1.2h-34q-2.9 0-2.1.1-1.5-.2-1.5-1.1 0-.4.7-1.3l.7-1 26.6-35.2q1.2-1.6 1.2-2.2 0-.7-1.7-.7h-10q-6.2 0-8 .8-3.2 1.4-5 4.1-1.1 1.6-1.7 1.6-.9 0-.9-.8 0-.3.7-2.3l2.6-7.6q1-2.8 1.8-2.8 1 0 1 1.6 0 2 1.6 2.6.8.3 3.5.3h24.4q1.8 0 1.8.7t-1.6 2.9z"/><path d="M430.93 432l11.2-26.1q1.4-3.3 1.4-4.2 0-3.6-5.3-3.6-2.3 0-2.3-.7 0-1.3 1.4-1.3h15.9q1.5 0 1.5 1.4 0 .4-2.2.6-2.7.3-4.3 2.3-2.1 2.6-5.5 10.7l-20.1 47.4q-.8 2.7-1.6 3.3-.7.7-3.3.7-2.7 0-3.7-.4-1.9-.6-1.9-2.8 0-3.9 3.3-3.9 3.4 0 4.3-.2 1.3-.3 2.7-3.6l3.4-7.9q.9-2.1.9-3 0-1-1.4-4.3l-13.2-31.2q-1.7-3.9-2.2-4.7-1.6-2.4-4.1-2.4-2.4 0-2.4-.7 0-1.3 1.9-1.3h19.3q1.4 0 1.4 1.3 0 .7-2.4.7-5.1 0-5.1 3 0 1.2 1.2 4.1zM527.962 371.5v59.2q0 5.1 1.5 5.1 1.2 0 2.8-1.7 1.6-1.8 1.9-1.8.8 0 .5 1.2l-.1 1.3q-.1 1.1-1.7 1.7l-8.1 3.1q-1.5.9-2.1.9-.6 0-1.1-2.8 0-3.2-1-3.2.1 0-5.2 3.4-5.3 3.3-10.2 3.3-9.3 0-15.6-7.1-6-6.7-6-16 0-9.4 7-16.1 8-7.7 17.1-7.2 6.2.3 10.7 2.1 1.5.6 1.9.6.8 0 .8-3.7v-9.5q0-4.8-.1-5.4-.7-2.7-3.8-2.7-2.6 0-2.6-1 0-.9 1.4-1.1 6.1-1.1 9-3.1 1.6-1.1 2.1-1.1.9 0 .9 1.6zm-6.9 55.7v-18.1q0-7-2.4-9.3-4-3.8-10.3-3.2-7.9.7-12.7 6.5-4.7 5.7-4.7 13.5 0 8.1 4.5 13.9 4.9 6.4 12.8 6.4t11.8-4.7q1-1.2 1-5zM561.417 441.2q-10.3 0-17.6-6.7-7.2-6.8-7.2-16.9 0-9.5 6.8-16.1 6.9-6.7 18-6.7 10.1 0 17 5.8 7.8 6.6 7.8 17 0 10.1-7.3 16.9-7.3 6.7-17.5 6.7zm.3-1.9q7.6 0 12.5-6.9 4.4-6.3 4.4-14.1 0-8.4-4.3-14.6-4.9-7-13-7-7.8 0-12.7 6.4-4.5 5.8-4.5 14t4.6 14.8q5.1 7.4 13 7.4zM627.972 398.5h5q2.3 0 2.5.1.9.3 1 2.1.1 1.4-.2 1.6-.3.2-3.7.2-4.1 0-4.1.8 0 .2.7 1.7 1.3 2.7 1.3 6.3 0 6.2-5 10.8-4.6 4.2-14.3 4.7-2.8.1-3.9.3-1.5.3-3.7 1.2-3.1 1.3-3.1 2.7 0 1.6 2.3 2.5 1.8.7 3.7.7h10.8q8.1 0 11.8 1.8 6.6 3.2 6.6 8.8 0 8.8-9.7 13.7-7.9 4-17.6 4-7.6 0-13.2-2.6-6.8-3.2-6.8-8.4 0-4.3 5.5-7.4l2.8-1.6q.9-.6 1.9-1.1 1.5-.9 1.5-1.5 0-.5-2-2.5-5.6-4.4-5.6-5.8 0-.8 1-1 10.2-3.6 10.2-4.6 0-.3-2.8-2.2-3.4-2.3-5.3-4.6-2.8-3.7-2.8-8.2 0-7.3 6.1-11.9 5.5-4.3 13-4.3 5.4 0 10.1 2.4 2.6 1.3 6 1.3zm-11.6 42h-12.6q-8.2 5-8.2 9.7 0 4.6 4.7 7.7 4 2.6 10.2 2.6 6.6 0 12-2.5 6.8-3.2 6.8-9 0-8.5-12.9-8.5zm-5.1-15.6q5.7 0 8.9-4.5 2.8-3.9 2.8-9.9 0-5.1-2.8-9.2-3.1-4.7-8.1-4.7-5.4 0-8.7 4.4-3.1 4-3.1 9.6 0 5.5 2.7 9.6 3.1 4.7 8.3 4.7zM648.225 441.2q-4.5 0-4.5-4.9t4.7-4.9q4 0 4 4.9t-4.2 4.9z"/></g></svg>