<svg xmlns="http://www.w3.org/2000/svg" viewBox="0 0 1600 1000" height="1000" width="1600"><path fill="#fff" d="M0 0h1600v1000H0z"/><g font-weight="400" font-size="200" font-family="Garamond" letter-spacing="-.03em" text-anchor="middle" fill="#222"><path d="M459.02 110.6v88.6q0 10.8 1.4 13 2 3.6 11.6 3.6 5.2 0 5.2 2.4 0 2.6-3.4 2.6-3.8 0-11.2-.4-7.4-.4-11.2-.4-3.8 0-11.4.4-7.6.4-11.4.4-3.4 0-3.4-2.6 0-2.4 5-2.4 9.6 0 11.8-3.6 1.2-2.2 1.2-13v-92.6q0-4.8-2-5.6-.6-.2-6.8-.2-14.6 0-20.8 2.8-7.6 3.6-14.4 15-2.8 4.8-4.4 4.8-2 0-2-2.4 0-1.8 1.2-4.8l7.8-26q.8-2.8 2.6-2.8t1.8 2.2q0 1.4 1.6 4.2 2 1.6 10 1.6h72.6q6.4 0 7.2-.2 3.6-.8 4.8-4.2 1.4-3.6 3.2-3.6 2.2 0 1.8 7.2l-1.2 24.4q-.2 3.4-2.4 3.4-1.2 0-2.4-3-1-3.2-2-6.8-1.6-4.2-3.6-6.6-4.2-5.2-16.2-5.2h-11.6q-6.8 0-8 1.2-1 1-1 8.6zM535.636 83v58.6q.4 2 1.6 2 1 0 2.4-1.4 12.6-12.6 29.2-12.6 16 0 23 9.6 5.8 8 5.8 28.6v31.8q0 9.6.4 11 1.6 4.8 8.6 5.4 5.6.6 5.6 2.6 0 2.2-2.4 2.2-3.2 0-9.6-.4-6.2-.4-9.2-.4-3.2 0-9.6.4-6.4.4-9.4.4-2.8 0-2.8-2 0-2.2 5.6-2.8 7-.6 8.6-5.4.4-1.4.4-11V165q0-14.6-3.4-19.8-6-9-19-9-11.6 0-19.8 8.6-4 4.2-5.2 8.4-.8 3-.8 10v36.4q0 9.6.4 11 1.6 4.8 8.6 5.4 5.6.6 5.6 2.6 0 2.2-2.4 2.2-3.2 0-9.6-.4-6.2-.4-9.2-.4-3.2 0-9.6.4-6.4.4-9.4.4-2.8 0-2.8-2 0-2.2 5.6-2.8 7-.6 8.6-5.4.4-1.4.4-11v-91q0-9.6-.2-10.8-1.4-5.4-7.6-5.4-5.2 0-5.2-2 0-1.8 2.8-2.2 12.2-2.2 18-6.2 3.2-2.2 4.2-2.2 1.8 0 1.8 3.2zM699.545 165.6h-60.6q-5.4 0-6.4.6-1.8 1-1.8 5.6 0 17.4 10.4 29.2 10.8 12.6 28.4 12.6 8.6 0 15.8-3.4 4.6-2.2 9.4-6.2 3.8-3.4 4.4-3.4 1.6 0 1.6 1.6 0 2.4-7.8 9-13.2 11.2-31.6 11.2-19.4 0-32.6-13.4-13-13.6-13-32.6 0-20.8 14.4-33.4 15.4-13.4 36-13.4 18.8 0 28.8 12.4 7 8.6 7 20.2 0 3.4-2.4 3.4zm-60.4-4.8h16.2q16.4 0 23.4-1.6 7.2-1.8 7.2-8 0-6.4-5.2-11.8-5.8-6.2-17.4-6.2-16.2 0-26 13.4-5 6.8-5 11.6 0 2.6 6.8 2.6zM856.408 160.2v84.4q0 9.6.4 11 1.6 4.8 8.6 5.4 5.6.6 5.6 2.6 0 2.2-2.4 2.2-3.2 0-9.6-.4-6.2-.4-9.2-.4-3.2 0-9.6.4-6.4.4-9.4.4-2.8 0-2.8-2 0-2.2 5.6-2.8 7-.6 8.6-5.4.4-1.4.4-11v-24.4q0-5-1.4-5t-6.6 3.2q-5.2 3-10.4 3.6-2.6.4-11.2.4-19.6 0-32.4-13.6-12.6-13.6-12.6-34.6 0-18.8 15-31.6 15.2-13 36.4-13 8.6 0 20.2 3.8 1 .4 4.8 3.2 4 2.6 5 2.6 2 0 4.4-4.8 2.6-4.8 4.4-4.8 1.6 0 1.6 1.8 0-.2-.6 2.2-2.8 11.2-2.8 26.6zm-13.8 35.6v-39.2q0-11.2-2.2-14.8-2-3.6-8-6-5.2-2.2-10.2-2.2-17.8 0-28.6 12.8-10.8 12.6-10.8 30.8 0 16 10.4 27.6 11 12.2 27.2 12.2 5.4 0 11-2.2 6.4-2.4 8.8-6.4 2.4-4 2.4-12.6zM959.717 137.2V196q0 8.6.4 9.8 1.2 3.8 7.6 3.4l2.6-.2q2.6-.2 2.6 1.6 0 1.4-4.2 2.6-14.2 4.2-20 8.6-2.4 1.2-2.2 1.2-1 0-1-1.6v-4.8q0-8.2-1.6-8.2-.8 0-5.2 3.6-5.4 4.4-10 6.8-7.4 3.6-15.4 3.6-14.6 0-23.6-11.6-4.2-5.4-5.4-13.6-.6-4.2-.6-14.6v-30.4q0-9.8-.4-11.2-1.4-4.8-8.6-4.8-5.4 0-5.4-2.8 0-1.2 2.6-1.2h22.4q2.6 0 3.2 2.4v48q0 16.6 3.6 22.4 5.6 9.2 20 9.2 13.2 0 21.4-9 2.8-3 3.2-7 .2-1 .2-7.8v-38.2q0-10-.4-11.2-1.4-4.8-8.4-4.8-5.6 0-5.6-2.6 0-1.4 2.8-1.4h23.2q2 0 2.4 1.6-.2-.6-.2 3.4zM1007.627 132.8v66.8q0 9.6.4 11 1.6 4.8 8.6 5.4 5.6.6 5.6 2.6 0 2.2-2.4 2.2-3.2 0-9.6-.4-6.2-.4-9.2-.4-3.2 0-9.6.4-6.4.4-9.4.4-2.8 0-2.8-2 0-2.2 5.6-2.8 7-.6 8.6-5.4.4-1.4.4-11V162q0-10.6-2-12.8-1.6-1.6-5.8-1.6h-2.6q-2.4 0-2.4-1.6 0-2 4.6-3.4 10.2-3 16.6-10.4 2.2-2.6 3.6-2.6 1.8 0 1.8 3.2zm-7-20.6q-8.6 0-8.6-9.6 0-4 2.4-7 2.6-3 6.6-3 3.8 0 6 3 2.4 2.8 2.4 6.6 0 10-8.8 10zM1104.38 145q0 8 .2 5.6-.4 4.6-2.6 4.6-2.4 0-6-5.8-5.2-8-7.6-10.4-5.6-5.8-12.6-5.8-10.6 0-20.2 8.2-14.4 12.4-14.4 32.4 0 16 10.4 28.2 10.8 13 27 13 14 0 23-8.8 2.4-2.4 3-2.4 1.4 0 1.4 1.6 0 2.4-6 7.2-12 9.8-29 9.8-18.4 0-31.6-13.2-13.2-13.2-13.2-31.4 0-19.8 16-34.2 15.4-14 36-14 15 0 24.6 6.6 1.6 1.2 1.8 4-.2-3.8-.2 4.8zM1137.967 188.2v11.4q0 9.6.4 11 1.6 4.8 8.6 5.4 5.6.6 5.6 2.6 0 2.2-2.4 2.2-3.2 0-9.6-.4-6.2-.4-9.2-.4-3.2 0-9.6.4-6.4.4-9.4.4-2.8 0-2.8-2 0-2.2 5.6-2.8 7-.6 8.6-5.4.4-1.4.4-11v-91q0-9.6-.2-10.8-1.4-5.4-7.6-5.4-5.2 0-5.2-2 0-1.8 2.8-2.2 12.2-2.2 18-6.2 3.2-2.2 4.2-2.2 1.8 0 1.8 3.2v87q0 4.2 1.2 4.2.8 0 2.2-1.4l29.6-23.4q8.2-6.4 8.2-9.4 0-3.2-6.4-3.2-2.4-.2-4.6-.2-3-.4-3-2.6 0-1.8 4.4-1.8h35.2q3.4 0 3.4 1.6 0 2.2-4 2.4-6.8.2-12.4 3.4-2.6 1.6-10.6 7.8l-15.2 12q-5 4-5 5.4 0 1.2 1.4 2.6l30.2 38.4q4.6 5.8 6.2 7.2 3.6 3 8.4 3 4.2 0 4.2 3 0 1.8-3.2 1.8t-9.8-.4-9.8-.4q-3 0-9.2.4-6.2.4-9.4.4t-3.2-1.6q0-3.2 3.4-3.2 7.8 0 7.8-3.8 0-2.2-4.8-8.4l-18.6-24.4q-4.2-5.6-5.8-5.6-1 0-4.6 2.8-4.8 3.6-5.4 4.6-.8 1.6-.8 7zM405.414 303v54.6q0 2.4 1.6 2.4-.2 0 2.6-1.4 17-8.4 28.6-9 18.8-1 31.4 12 12.8 12.8 12.8 31.6 0 21.6-15.8 35.4-15.6 13.8-37.6 13.8-9.6 0-19-4.4-9.2-4.4-9.4-4.4-2 0-4.4 5-2.6 5.6-4.6 5.6-2 0-2-2.4 0-.2 1-5.2t1-14.8v-93.2q0-9.6-.2-10.8-1.4-5.4-7.6-5.4-5.2 0-5.2-2 0-1.8 2.8-2.2 12.2-2.2 18-6.2 3.2-2.2 4.2-2.2 1.8 0 1.8 3.2zm0 72.4v41.4q0 11.8 4.4 16 6.4 6.2 19.2 6.2 17.6 0 28.2-13 10-12.2 10-30.2 0-16-9.6-27.4-10-12.2-25.8-12.2-13.6 0-22.8 7.6-2.8 2.4-3.4 5.2-.2.8-.2 6.4zM501.523 419.6V382q0-10.6-2-12.8-1.6-1.6-5.8-1.6h-2.6q-2.4 0-2.4-1.6 0-2 4.6-3.4 10.2-3 16.6-10.4 2.2-2.6 3.6-2.6 1.8 0 1.8 3.2v9.8q0 4.2 1 4.2.6 0 4-4.2 4.2-5 7.8-7.6 5.8-4.2 11.8-4.2 4.8 0 8 2.6 3.4 2.6 3.4 7 0 8-8.4 8-3.6 0-7-3.8-3.2-3.8-5.8-3.8-5 0-10.2 7.2-3.2 4.4-4.2 9.6-.4 2.6-.4 10.4v31.6q0 9.6.4 11 1.6 4.8 8.6 5.4 5.6.6 5.6 2.6 0 2.2-2.4 2.2-3.2 0-9.6-.4-6.2-.4-9.2-.4-3.2 0-9.6.4-6.4.4-9.4.4-2.8 0-2.8-2 0-2.2 5.6-2.8 7-.6 8.6-5.4.4-1.4.4-11zM601.678 442.4q-20.6 0-35.2-13.4-14.4-13.6-14.4-33.8 0-19 13.6-32.2 13.8-13.4 36-13.4 20.2 0 34 11.6 15.6 13.2 15.6 34 0 20.2-14.6 33.8-14.6 13.4-35 13.4zm.6-3.8q15.2 0 25-13.8 8.8-12.6 8.8-28.2 0-16.8-8.6-29.2-9.8-14-26-14-15.6 0-25.4 12.8-9 11.6-9 28t9.2 29.6q10.2 14.8 26 14.8zM729.583 382.8l-25 56q-1.6 3.6-2.8 3.6-1.2 0-2.8-3.6l-31.6-70.2q-3-6.8-4.4-8.4-3-4-8-4-4.8 0-4.8-1.8 0-2.2 3.4-2.2h90.4q3.2 0 3.2 2.2 0 1.8-4.6 1.8-7 0-7 4.8 0 2 3 8.6l23.6 51.6 20.2-46.8q3.4-7.8 3.4-11.6 0-6.6-6.4-6.6-6.2 0-6.2-1.6 0-2.4 3.4-2.4h29q2.8 0 2.8 2.4 0 .8-5.6 1.6-6.2.8-10 6.8-1 1.4-5.2 11.4l-27.4 64.4q-1.6 3.6-2.6 3.6t-2.6-3.6zm-22.8 39.2l15.8-35q3.2-7 3.2-9.2 0-1.6-1.2-4.2l-2.2-4.8q-3.8-8.6-6-10.2-3-2.4-11.2-2.4h-14.6q-10 0-10 5.2 0 3.4 4.4 13zM820.242 419.6V382q0-10.6-2-12.8-1.6-1.6-5.8-1.6h-2.6q-2.4 0-2.4-1.6 0-2 4.6-3.4 10.2-3 16.6-10.4 2.2-2.6 3.6-2.6 1.8 0 1.8 3.2V366q1 0 6-4.2 6.2-5.4 11-8 7.8-4.2 15.8-4.2 15.2 0 23.6 10.8 4.2 5.4 5.4 13.2.6 4 .6 14.4v31.6q0 9.6.4 11 1.6 4.8 8.6 5.4 5.6.6 5.6 2.6 0 2.2-2.4 2.2-3.2 0-9.6-.4-6.2-.4-9.2-.4-3.2 0-9.6.4-6.4.4-9.4.4-2.8 0-2.8-2 0-2.2 5.6-2.8 7-.6 8.6-5.4.4-1.4.4-11v-31.8q0-14.4-3.6-19.8-6-9-18.8-9-11.6 0-19.8 8.6-6.4 6.6-6.4 18.4v33.6q0 9.6.4 11 1.6 4.8 8.6 5.4 5.6.6 5.6 2.6 0 2.2-2.4 2.2-3.2 0-9.6-.4-6.2-.4-9.2-.4-3.2 0-9.6.4-6.4.4-9.4.4-2.8 0-2.8-2 0-2.2 5.6-2.8 7-.6 8.6-5.4.4-1.4.4-11zM996.414 365.6v54q0 9.6.4 11 1.6 4.8 8.6 5.4 5.6.6 5.6 2.6 0 2.2-2.4 2.2-3.4 0-10-.4-6.4-.4-9.6-.4-3 0-9.2.4-6.2.4-9.2.4-2.6 0-2.6-2 0-2.2 5.4-2.8 7.2-.6 8.6-5.4.6-1.6.6-11v-54q0-5-.8-6-.6-1.2-5-1.2-6.6 0-3.6.2-2.4-.2-2.4-1.8 0-2 4.6-3.2 4.8-1.2 6-5.2.2-.8.8-8.4 1.4-19.2 8.6-26.8 12.4-13.4 28.2-13.4 4.6 0 10 1.6 7.4 2.2 7.4 5.8 0 2-1.8 6.4-2 5-3.8 5-1.8 0-5.8-4.4-7.6-8.6-13.4-8.6-15.2 0-15.2 27.6v10q0 6.8.8 8 1 1 7 1h15.8q2.8 0 2.8 3.6 0 2.2-1.8 2.6h-17.6q-5.4 0-6.2.8-.8.8-.8 6.4zM1076.17 442.4q-20.6 0-35.2-13.4-14.4-13.6-14.4-33.8 0-19 13.6-32.2 13.8-13.4 36-13.4 20.2 0 34 11.6 15.6 13.2 15.6 34 0 20.2-14.6 33.8-14.6 13.4-35 13.4zm.6-3.8q15.2 0 25-13.8 8.8-12.6 8.8-28.2 0-16.8-8.6-29.2-9.8-14-26-14-15.6 0-25.4 12.8-9 11.6-9 28t9.2 29.6q10.2 14.8 26 14.8zM1173.88 401.4l-13 16.4q-8.2 10.4-8.2 14.2 0 4 8.2 4 5.2 0 5.2 2.8 0 2-3.2 2-2.8 0-8.4-.4-5.6-.4-8.4-.4-3 0-9 .4t-9 .4q-2.4 0-2.4-1.8 0-3 5-3 9.4 0 22-15.8l13.8-17.2q3.6-5.4 3.6-6 0-1-1.8-3.4l-19.8-25.8q-6.2-8-6.8-8.6-3.4-3-9.8-3-4.8 0-4.8-1.8 0-2.2 1.4-2.2h43.2q3.2 0 3.2 1.8 0 2.2-3.8 2.2-9.4 0-9.4 3.8 0 2.2 5.4 9.4l12.6 17 11-13.8q6.8-8.6 6.8-11.4 0-5-7.4-5-5 0-5-2t2.8-2h36.2q3.4 0 3.4 2.2 0 1.8-5.4 1.8-8.4 0-13.6 4-2.8 2.2-10.2 11l-10.2 12.4q-4.2 5.2-4.2 6.8 0 1.2 3.8 6.2l20.6 27.6q3.2 4.4 9.6 10.6 2 1.2 6.6 1.2t4.6 2.6q0 2.2-3.8 2.2t-11.6-.4-11.6-.4q-3 0-9 .4t-8.8.4q-2.6 0-2.6-2.2 0-2.6 4.4-2.6 10 0 10-3.6 0-2.2-5.4-9.2zM380.927 572.8v90.6q0 17.2-6 25.8-5.8 8.8-18.4 17.4-4.2 2.8-5.2 2.8-1.4 0-1.4-1.4 0-1.6 2-3.2 8.6-7 11.8-13 3.4-5.8 3.4-16.2V602q0-10.6-2-12.8-1.6-1.6-5.8-1.6h-2.6q-2.4 0-2.4-1.6 0-2 4.6-3.4 10.2-3 16.6-10.4 2.2-2.6 3.6-2.6 1.8 0 1.8 3.2zm-7.6-20.6q-3.6 0-5.8-2.8-2-3-2-6.8 0-10 8.6-10t8.6 9.6q0 10-9.4 10zM480.467 577.2V636q0 8.6.4 9.8 1.2 3.8 7.6 3.4l2.6-.2q2.6-.2 2.6 1.6 0 1.4-4.2 2.6-14.2 4.2-20 8.6-2.4 1.2-2.2 1.2-1 0-1-1.6v-4.8q0-8.2-1.6-8.2-.8 0-5.2 3.6-5.4 4.4-10 6.8-7.4 3.6-15.4 3.6-14.6 0-23.6-11.6-4.2-5.4-5.4-13.6-.6-4.2-.6-14.6v-30.4q0-9.8-.4-11.2-1.4-4.8-8.6-4.8-5.4 0-5.4-2.8 0-1.2 2.6-1.2h22.4q2.6 0 3.2 2.4v48q0 16.6 3.6 22.4 5.6 9.2 20 9.2 13.2 0 21.4-9 2.8-3 3.2-7 .2-1 .2-7.8v-38.2q0-10-.4-11.2-1.4-4.8-8.4-4.8-5.6 0-5.6-2.6 0-1.4 2.8-1.4h23.2q2 0 2.4 1.6-.2-.6-.2 3.4zM512.577 639.6V602q0-10.6-2-12.8-1.6-1.6-5.8-1.6h-2.6q-2.4 0-2.4-1.6 0-2 4.6-3.4 10.2-3 16.6-10.4 2.2-2.6 3.6-2.6 1.8 0 1.8 3.2 0 12 1.2 12 .8 0 5.4-4 5.6-4.8 10.4-7.2 7.4-4 15.2-4 8.8 0 14.8 4.6 4 2.8 7.2 8.2 2.6 4.6 3.2 4.6.6 0 5-4.6 5.6-5.4 10.6-8.2 7.6-4.6 15.8-4.6 13.4 0 21.2 9.2 4.2 5 5.4 12.6.6 3.8.6 14v34.2q0 9.6.4 11 1.6 4.8 8.6 5.4 5.6.6 5.6 2.6 0 2.2-2.4 2.2-3.2 0-9.6-.4-6.2-.4-9.2-.4-3.2 0-9.6.4-6.4.4-9.4.4-2.8 0-2.8-2 0-2.2 5.6-2.8 7-.6 8.6-5.4.4-1.4.4-11v-34q0-13.8-2.6-19-2.4-4.6-7.6-7.2-5.2-2.6-10.2-2-10.6 1.4-17.4 7.8-4.4 4.2-5.6 8.6-.8 2.8-.8 10.2v35.6q0 9.6.4 11 1.6 4.8 8.6 5.4 5.6.6 5.6 2.6 0 2.2-2.4 2.2-3.2 0-9.6-.4-6.2-.4-9.2-.4-3.2 0-9.6.4-6.4.4-9.4.4-2.8 0-2.8-2 0-2.2 5.6-2.8 7-.6 8.6-5.4.4-1.4.4-11v-34q0-13.8-2.6-19-2.4-4.6-7.6-7.2-5.2-2.6-10.2-2-10.6 1.4-17.4 7.8-4.4 4.2-5.6 8.6-.8 2.8-.8 10.2v35.6q0 9.6.4 11 1.6 4.8 8.6 5.4 5.6.6 5.6 2.6 0 2.2-2.4 2.2-3.2 0-9.6-.4-6.2-.4-9.2-.4-3.2 0-9.6.4-6.4.4-9.4.4-2.8 0-2.8-2 0-2.2 5.6-2.8 7-.6 8.6-5.4.4-1.4.4-11zM671.04 684.6V602q0-10.6-2-12.8-1.6-1.6-5.8-1.6h-2.6q-2.4 0-2.4-1.6 0-2 4.6-3.4 10.2-3 16.6-10.4 2.2-2.6 3.6-2.6 1.8 0 1.8 3.2v11q16.8-14 33.8-14.2 16.4-.2 30.2 14 12.2 12.6 12.2 31.6 0 20.6-14.4 34-14.4 13.4-35.6 13.2-7.8 0-20-4.2-6-1-4.6-1-1.6 0-1.6 6v21.4q0 9.6.4 11 1.6 4.8 8.6 5.4 5.6.6 5.6 2.6 0 2.2-2.4 2.2-3.2 0-9.6-.4-6.2-.4-9.2-.4-3.2 0-9.6.4-6.4.4-9.4.4-2.8 0-2.8-2 0-2.2 5.6-2.8 7-.6 8.6-5.4.4-1.4.4-11zm74.8-66.8q0-18.2-10.6-29.2-10-10.4-24.4-10.4-15.6 0-22.6 10.4-3.4 3.8-3.4 13.8v31q0 14 6.6 19.8 6.6 5.6 17.2 5.6 16.6 0 27.2-12.8 10-11.8 10-28.2zM769.055 649.2l.6-13.4q.2-4.4 2.6-4.4t4 7.2q1.8 9.2 5 13 5.4 7.2 17.2 7.2 9.6 0 16.6-5 7.8-5.6 7.8-14.6 0-13-19.2-19.2-14.8-4.8-20-8-10.6-6.6-10.6-17.2 0-11 10.6-18.6 9.2-6.6 23.6-6.6 12.8 0 20.6 3.4 2.2 1 2.4 4-.2-2.8-.2 5 0 13.8.2 5.4 0 4.4-2.2 4.4-1.6 0-3.8-4.8-2.6-6.2-5.8-9.2-5.4-4.8-14.8-4.8-6.8 0-12.2 4-6.2 4.4-6.2 10.8 0 9.4 13 15 12 4.6 24 9.4 13 7.2 13 21 0 13.4-12.6 21.8-11.2 7.4-25.4 7.4-13.2 0-25.4-6-3-1.4-2.8-7.2zM950.795 662.4q-20.6 0-35.2-13.4-14.4-13.6-14.4-33.8 0-19 13.6-32.2 13.8-13.4 36-13.4 20.2 0 34 11.6 15.6 13.2 15.6 34 0 20.2-14.6 33.8-14.6 13.4-35 13.4zm.6-3.8q15.2 0 25-13.8 8.8-12.6 8.8-28.2 0-16.8-8.6-29.2-9.8-14-26-14-15.6 0-25.4 12.8-9 11.6-9 28t9.2 29.6q10.2 14.8 26 14.8zM1052.905 641.8l23.6-51.6q2.6-5.6 2.6-8.6 0-5.4-7.8-5.4-5.4 0-5.4-2.2 0-1.8 3-1.8h29.4q2.6 0 2.6 1.4 0 2-5 2.6-6 .8-10.4 7.4-1.2 2-6 12.2l-28.6 62q-.6 1.2-1.2 2.6-1.2 2-2.2 2-1.2 0-1.8-2l-1.2-2.6-29-70q-2.8-6.8-4.2-8.4-2.6-3-8.2-3.2-3.8-.2-3.8-2.2 0-1.8 3-1.8h36.2q3.8 0 3.8 2.2 0 1.8-5.6 1.8-7.4 0-7.4 5.6 0 2.2 3.2 10zM1184.905 605.6h-60.6q-5.4 0-6.4.6-1.8 1-1.8 5.6 0 17.4 10.4 29.2 10.8 12.6 28.4 12.6 8.6 0 15.8-3.4 4.6-2.2 9.4-6.2 3.8-3.4 4.4-3.4 1.6 0 1.6 1.6 0 2.4-7.8 9-13.2 11.2-31.6 11.2-19.4 0-32.6-13.4-13-13.6-13-32.6 0-20.8 14.4-33.4 15.4-13.4 36-13.4 18.8 0 28.8 12.4 7 8.6 7 20.2 0 3.4-2.4 3.4zm-60.4-4.8h16.2q16.4 0 23.4-1.6 7.2-1.8 7.2-8 0-6.4-5.2-11.8-5.8-6.2-17.4-6.2-16.2 0-26 13.4-5 6.8-5 11.6 0 2.6 6.8 2.6zM1207.305 639.6V602q0-10.6-2-12.8-1.6-1.6-5.8-1.6h-2.6q-2.4 0-2.4-1.6 0-2 4.6-3.4 10.2-3 16.6-10.4 2.2-2.6 3.6-2.6 1.8 0 1.8 3.2v9.8q0 4.2 1 4.2.6 0 4-4.2 4.2-5 7.8-7.6 5.8-4.2 11.8-4.2 4.8 0 8 2.6 3.4 2.6 3.4 7 0 8-8.4 8-3.6 0-7-3.8-3.2-3.8-5.8-3.8-5 0-10.2 7.2-3.2 4.4-4.2 9.6-.4 2.6-.4 10.4v31.6q0 9.6.4 11 1.6 4.8 8.6 5.4 5.6.6 5.6 2.6 0 2.2-2.4 2.2-3.2 0-9.6-.4-6.2-.4-9.2-.4-3.2 0-9.6.4-6.4.4-9.4.4-2.8 0-2.8-2 0-2.2 5.6-2.8 7-.6 8.6-5.4.4-1.4.4-11zM305.397 800.8v50.6q0 10.4 1.4 15 2.6 8.4 10.4 8.4 4.4 0 9.4-3.4l5-3.6q1.4 0 1.4 1.4 0 2.8-4 5.6-8.2 7.6-18.6 7.6-9.4 0-14.4-6.2-3.4-4.2-4.2-11.8-.2-2.4-.2-13V800q0-2.8-.8-3.2-.8-.4-4.2-.4-6.2 0-6.2-1.6 0-1 2.4-3 13.6-8.8 19-20.2.8-1.8 2-1.8 1.6 0 1.6 2.4v14.2q0 4 3.2 4h19.8q1.8 0 1.8 2.8t-1.4 3.2h-21.4q-2 .8-2 4.4z"/><path d="M360.456 743v58.6q.4 2 1.6 2 1 0 2.4-1.4 12.6-12.6 29.2-12.6 16 0 23 9.6 5.8 8 5.8 28.6v31.8q0 9.6.4 11 1.6 4.8 8.6 5.4 5.6.6 5.6 2.6 0 2.2-2.4 2.2-3.2 0-9.6-.4-6.2-.4-9.2-.4-3.2 0-9.6.4-6.4.4-9.4.4-2.8 0-2.8-2 0-2.2 5.6-2.8 7-.6 8.6-5.4.4-1.4.4-11V825q0-14.6-3.4-19.8-6-9-19-9-11.6 0-19.8 8.6-4 4.2-5.2 8.4-.8 3-.8 10v36.4q0 9.6.4 11 1.6 4.8 8.6 5.4 5.6.6 5.6 2.6 0 2.2-2.4 2.2-3.2 0-9.6-.4-6.2-.4-9.2-.4-3.2 0-9.6.4-6.4.4-9.4.4-2.8 0-2.8-2 0-2.2 5.6-2.8 7-.6 8.6-5.4.4-1.4.4-11v-91q0-9.6-.2-10.8-1.4-5.4-7.6-5.4-5.2 0-5.2-2 0-1.8 2.8-2.2 12.2-2.2 18-6.2 3.2-2.2 4.2-2.2 1.8 0 1.8 3.2zM524.366 825.6h-60.6q-5.4 0-6.4.6-1.8 1-1.8 5.6 0 17.4 10.4 29.2 10.8 12.6 28.4 12.6 8.6 0 15.8-3.4 4.6-2.2 9.4-6.2 3.8-3.4 4.4-3.4 1.6 0 1.6 1.6 0 2.4-7.8 9-13.2 11.2-31.6 11.2-19.4 0-32.6-13.4-13-13.6-13-32.6 0-20.8 14.4-33.4 15.4-13.4 36-13.4 18.8 0 28.8 12.4 7 8.6 7 20.2 0 3.4-2.4 3.4zm-60.4-4.8h16.2q16.4 0 23.4-1.6 7.2-1.8 7.2-8 0-6.4-5.2-11.8-5.8-6.2-17.4-6.2-16.2 0-26 13.4-5 6.8-5 11.6 0 2.6 6.8 2.6zM618.628 743v116.6q0 9.6.4 11 1.6 4.8 8.6 5.4 5.6.6 5.6 2.6 0 2.2-2.4 2.2-3.2 0-9.6-.4-6.2-.4-9.2-.4-3.2 0-9.6.4-6.4.4-9.4.4-2.8 0-2.8-2 0-2.2 5.6-2.8 7-.6 8.6-5.4.4-1.4.4-11v-91q0-9.6-.2-10.8-1.4-5.4-7.6-5.4-5.2 0-5.2-2 0-1.8 2.8-2.2 12.2-2.2 18-6.2 3.2-2.2 4.2-2.2 1.8 0 1.8 3.2zM668.58 838.6l15.4-7.2q5.4-2.6 6.4-4 1-1.6 1-7.2v-8.8q0-9.2-1.8-12.6-2.6-5.4-11-5.4-15.4 0-23 16.8-1.4 3.2-2.2 4.2-1.2 2-3.4 3-5.6 2.6-8.6 2.6-2.6 0-2.6-2.4 0-6.8 8.4-14.2 15.8-13.8 35.8-13.8 12.2 0 18.2 5.2 3 2.6 3.8 6.8.2 1.4.2 7.8v47.2q0 16 7 16 3 0 5.8-2.4 2.8-2.6 3.2-2.6 1.4 0 1.4 1.6 0 2-4.8 6.2-8.2 5.8-14.2 5.8-5.8 0-9.4-7-3.6-7-4.2-7-.4 0-5.2 4-6 4.6-11.4 7.2-8 4-15.6 4t-13.2-4.2q-5.6-4.4-5.6-11.6 0-9.2 10.6-17.4 6-4.6 19-10.6zm19.2-5.2l-18.2 9.2q-15.6 7.8-15.6 18.8 0 5.6 4 8.8 4 3 9.8 3 10.8 0 18.6-8 5-5.2 5-15v-12q0-5.6-1.4-5.6.2 0-2.2.8zM804.075 799.4l-51.6 69.4q-3.2 3.2-3.2 5 0 1.6 7 1.6h17.4q14.6 0 19.8-2.8 5.4-3 9.2-13 1.2-4 2.8-4 2.2 0 1.8 7.6l-.4 9.8v4.6q-.4 2.6-3 2.4h-68q-5.8 0-4.2.2-3-.4-3-2.2 0-.8 1.4-2.6l1.4-2 53.2-70.4q2.4-3.2 2.4-4.4 0-1.4-3.4-1.4h-20q-12.4 0-16 1.6-6.4 2.8-10 8.2-2.2 3.2-3.4 3.2-1.8 0-1.8-1.6 0-.6 1.4-4.6l5.2-15.2q2-5.6 3.6-5.6 2 0 2 3.2 0 4 3.2 5.2 1.6.6 7 .6h48.8q3.6 0 3.6 1.4t-3.2 5.8z"/><path d="M861.862 864l22.4-52.2q2.8-6.6 2.8-8.4 0-7.2-10.6-7.2-4.6 0-4.6-1.4 0-2.6 2.8-2.6h31.8q3 0 3 2.8 0 .8-4.4 1.2-5.4.6-8.6 4.6-4.2 5.2-11 21.4l-40.2 94.8q-1.6 5.4-3.2 6.6-1.4 1.4-6.6 1.4-5.4 0-7.4-.8-3.8-1.2-3.8-5.6 0-7.8 6.6-7.8 6.8 0 8.6-.4 2.6-.6 5.4-7.2l6.8-15.8q1.8-4.2 1.8-6 0-2-2.8-8.6l-26.4-62.4q-3.4-7.8-4.4-9.4-3.2-4.8-8.2-4.8-4.8 0-4.8-1.4 0-2.6 3.8-2.6h38.6q2.8 0 2.8 2.6 0 1.4-4.8 1.4-10.2 0-10.2 6 0 2.4 2.4 8.2zM1055.925 743v118.4q0 10.2 3 10.2 2.4 0 5.6-3.4 3.2-3.6 3.8-3.6 1.6 0 1 2.4l-.2 2.6q-.2 2.2-3.4 3.4l-16.2 6.2q-3 1.8-4.2 1.8-1.2 0-2.2-5.6 0-6.4-2-6.4.2 0-10.4 6.8-10.6 6.6-20.4 6.6-18.6 0-31.2-14.2-12-13.4-12-32 0-18.8 14-32.2 16-15.4 34.2-14.4 12.4.6 21.4 4.2 3 1.2 3.8 1.2 1.6 0 1.6-7.4v-19q0-9.6-.2-10.8-1.4-5.4-7.6-5.4-5.2 0-5.2-2 0-1.8 2.8-2.2 12.2-2.2 18-6.2 3.2-2.2 4.2-2.2 1.8 0 1.8 3.2zm-13.8 111.4v-36.2q0-14-4.8-18.6-8-7.6-20.6-6.4-15.8 1.4-25.4 13-9.4 11.4-9.4 27 0 16.2 9 27.8 9.8 12.8 25.6 12.8t23.6-9.4q2-2.4 2-10zM1122.834 882.4q-20.6 0-35.2-13.4-14.4-13.6-14.4-33.8 0-19 13.6-32.2 13.8-13.4 36-13.4 20.2 0 34 11.6 15.6 13.2 15.6 34 0 20.2-14.6 33.8-14.6 13.4-35 13.4zm.6-3.8q15.2 0 25-13.8 8.8-12.6 8.8-28.2 0-16.8-8.6-29.2-9.8-14-26-14-15.6 0-25.4 12.8-9 11.6-9 28t9.2 29.6q10.2 14.8 26 14.8zM1255.944 797h10q4.6 0 5 .2 1.8.6 2 4.2.2 2.8-.4 3.2-.6.4-7.4.4-8.2 0-8.2 1.6 0 .4 1.4 3.4 2.6 5.4 2.6 12.6 0 12.4-10 21.6-9.2 8.4-28.6 9.4-5.6.2-7.8.6-3 .6-7.4 2.4-6.2 2.6-6.2 5.4 0 3.2 4.6 5 3.6 1.4 7.4 1.4h21.6q16.2 0 23.6 3.6 13.2 6.4 13.2 17.6 0 17.6-19.4 27.4-15.8 8-35.2 8-15.2 0-26.4-5.2-13.6-6.4-13.6-16.8 0-8.6 11-14.8l5.6-3.2q1.8-1.2 3.8-2.2 3-1.8 3-3 0-1-4-5-11.2-8.8-11.2-11.6 0-1.6 2-2 20.4-7.2 20.4-9.2 0-.6-5.6-4.4-6.8-4.6-10.6-9.2-5.6-7.4-5.6-16.4 0-14.6 12.2-23.8 11-8.6 26-8.6 10.8 0 20.2 4.8 5.2 2.6 12 2.6zm-23.2 84h-25.2q-16.4 10-16.4 19.4 0 9.2 9.4 15.4 8 5.2 20.4 5.2 13.2 0 24-5 13.6-6.4 13.6-18 0-17-25.8-17zm-10.2-31.2q11.4 0 17.8-9 5.6-7.8 5.6-19.8 0-10.2-5.6-18.4-6.2-9.4-16.2-9.4-10.8 0-17.4 8.8-6.2 8-6.2 19.2 0 11 5.4 19.2 6.2 9.4 16.6 9.4zM1296.45 882.4q-9 0-9-9.8t9.4-9.8q8 0 8 9.8t-8.4 9.8z"/></g></svg>