<svg xmlns="http://www.w3.org/2000/svg" viewBox="0 0 1600 1000" height="1000" width="1600"><path fill="#fff" d="M0 0h1600v1000H0z"/><g font-weight="400" font-size="200" font-family="Gill Sans" letter-spacing="-.03em" text-anchor="middle" fill="#222"><path d="M552.57 83.6v13.2h-49.2V220h-15V96.8h-49.2V83.6zM562.32 83.6h13.8v60.2q11.6-15.4 28.2-15.4 15 0 23.6 10.2 8.6 10.2 8.6 27.8V220h-13.8v-52.4q0-12.2-5.2-19.6-5.2-7.4-16.4-7.4-15.6 0-25 15.8V220h-13.8zM730.958 172.8v3.2h-66.6q0 15.6 9.2 24.6 9.4 9 23 9 17.6 0 33-12.6v14q-16 10.8-34.6 10.8-21.4 0-33.2-13.6-11.6-13.8-11.6-33.4 0-22 12.2-34.2 12.4-12.2 29-12.2 16.8 0 28.2 12.6 11.4 12.4 11.4 31.8zm-65.8-6.8h51.6q-1.4-13.2-8.8-19.2-7.4-6.2-16.2-6.2-9.2 0-16.8 6.4-7.4 6.2-9.8 19zM865.452 130.2v134h-13.8v-47.8q-12.8 5.4-22.8 5.4-20.8 0-32.8-13.4-11.8-13.6-11.8-33.4 0-21.6 13-33.2 13-11.6 36.6-11.6zm-13.8 12.2h-17.6q-16.2 0-26 8.6-9.6 8.6-9.6 24.4 0 14.6 8.4 24.4 8.4 9.8 24.2 9.8 10.2 0 20.6-5.8zM957.986 220h-13.8v-13.6q-11.6 15.4-28.2 15.4-15 0-23.6-10.2-8.6-10.2-8.6-27.8v-53.6h13.8v52.4q0 12.2 5.2 19.6 5.2 7.4 16.4 7.4 15.6 0 25-15.8v-63.6h13.8zM991.823 130.2V220h-13.8v-89.8zm-13.2-34q2.6-2.6 6.4-2.6 3.8 0 6.4 2.6 2.6 2.6 2.6 6.4 0 3.8-2.6 6.4-2.6 2.6-6.4 2.6-3.8 0-6.4-2.6-2.6-2.6-2.6-6.4 0-3.8 2.6-6.4zM1076.067 133.8v14.8q-12.8-7.4-24.6-7.4-11 0-18.2 6.4-7.2 6.4-9.6 13.6-2.2 7.2-2.2 14.2 0 13.2 7.8 23.4 8 10.2 24.6 10.2 11.2 0 24-5.8v13.6q-13.2 5-25.4 5-21.2 0-33.2-12.8-12-13-12-33.2 0-21.6 12.4-34.4 12.6-13 31.8-13 11.6 0 24.6 5.4zM1104.042 83.6V220h-13.8V83.6zm62.6 46.6l-43.6 43.2 51.6 46.6h-18.8l-50.8-46.6 44.6-43.2zM428.477 435V303.6h13.8v56.2q10.4-8 18.8-10.2 4.6-1.2 9.6-1.2 18 0 28.6 13.2 10.8 13.2 10.8 31.4 0 22.2-13.2 35.6-13 13.2-35.2 13.2-17.2 0-33.2-6.8zm13.8-61.2V426q10.2 3.6 20.6 3.6 14.2 0 23.6-10 9.4-10.2 9.4-25.4 0-14.4-8.2-24-8-9.6-19.8-9.6-13.4 0-25.6 13.2zM525.602 350.2h13.8V370q7.2-11.2 15-16.6 7.6-5 13.6-5 8.6 0 21.4 10.6l-7.4 12q-9.6-8.4-17.4-8.4-6 0-12.4 5-6.4 4.8-9.6 12-3.2 7.2-3.2 21.6V440h-13.8zM598.523 362q13.6-13.6 33-13.6t33 13.6q13.8 13.6 13.8 33t-13.8 33.2q-13.6 13.6-33 13.6t-33-13.6q-13.6-13.8-13.6-33.2 0-19.4 13.6-33zm56.4 8.6q-9.2-10-23.2-10t-23.4 10q-9.2 10-9.2 24.4 0 14.4 9.2 24.6 9.4 10 23.4 10 14 0 23.2-10 9.2-10.2 9.2-24.6 0-14.4-9.2-24.4zM821.536 350.2l-39.2 91.6h-5.2l-27-67.8-27 67.8h-5.2l-39.2-91.6h14.2l27.2 63.8 25.6-63.8h9l25.2 63.8 27.2-63.8zM829.086 350.2h13.8v13.6q11.6-15.4 28.2-15.4 15 0 23.6 10.2 8.6 10.2 8.6 27.8V440h-13.8v-52.4q0-12.2-5.2-19.6-5.2-7.4-16.4-7.4-15.6 0-25 15.8V440h-13.8zM1014.723 304.6v12.8q-6.4-2.4-12.4-2.4-10.4 0-15.2 6.4-4.8 6.4-4.8 20v8.8h16.8v12.2h-16.8V440h-13.8v-77.6h-14.4v-12.2h14.4v-8.4q0-20.4 9-30.2t22.4-9.8q5.4 0 14.8 2.8zM1019.305 362q13.6-13.6 33-13.6t33 13.6q13.8 13.6 13.8 33t-13.8 33.2q-13.6 13.6-33 13.6t-33-13.6q-13.6-13.8-13.6-33.2 0-19.4 13.6-33zm56.4 8.6q-9.2-10-23.2-10t-23.4 10q-9.2 10-9.2 24.4 0 14.4 9.2 24.6 9.4 10 23.4 10 14 0 23.2-10 9.2-10.2 9.2-24.6 0-14.4-9.2-24.4z"/><path d="M1142.392 404.4l-29.6 35.6h-16.6l37.6-45.6-37.6-44.2h17.4l28.8 33.8 28.2-33.8h16.8l-36.4 43.8 39.2 46h-17.4zM416.175 570.2v94.4q0 17.8-3.6 26-.8 2-2.4 4.4-1.6 2.6-6.2 6.2-4.4 3.6-10 4.8l-8-10.6q10.4-2 13.4-9.4 3-7.2 3-22.4v-93.4zm-13.2-34q2.6-2.6 6.4-2.6 3.8 0 6.4 2.6 2.6 2.6 2.6 6.4 0 3.8-2.6 6.4-2.6 2.6-6.4 2.6-3.8 0-6.4-2.6-2.6-2.6-2.6-6.4 0-3.8 2.6-6.4zM508.228 660h-13.8v-13.6q-11.6 15.4-28.2 15.4-15 0-23.6-10.2-8.6-10.2-8.6-27.8v-53.6h13.8v52.4q0 12.2 5.2 19.6 5.2 7.4 16.4 7.4 15.6 0 25-15.8v-63.6h13.8zM542.066 570.2V584q6.8-8 13-11.8 6.4-3.8 15-3.8 11.2 0 17.8 6 6.6 6 9.6 12.8 13.4-18.8 30.6-18.8 9 0 15.4 3.6t9.4 9.6q3.2 6 4.6 12 1.4 6 1.4 12.6V660h-13.8v-53.8q0-10-4.4-17.8-4.2-7.8-15-7.8-6.6 0-13.6 4.2-7 4-11.6 12V660h-13.8v-53.4q0-26-20.6-26-13 0-24 15.4v64h-13.8v-89.8zM676.953 570.2h31.6q23.6 0 36.6 11.6t13 33.2q0 19.8-12 33.4-11.8 13.4-32.6 13.4-10 0-22.8-5.4v47.8h-13.8zm13.8 12.2v61.4q10.4 5.8 20.6 5.8 15.8 0 24.2-9.8 8.4-9.8 8.4-24.4 0-15.8-9.8-24.4-9.6-8.6-25.8-8.6zM824.487 576v13.8q-15-9.2-25.4-9.2-6.8 0-11 3.4t-4.2 8.2q0 5 4.6 8.6 4.8 3.4 21 11.8 1.4.6 2 1 16.4 8.8 16.4 23 0 8.8-7.4 17-7.2 8.2-22.2 8.2-13.4 0-28.8-8.2v-14.2q16.8 10.2 29 10.2 5.8 0 10.4-3.2 4.8-3.4 4.8-8.8 0-5.8-4.8-9.6-4.6-3.8-15.2-8.8-5.4-2.6-8.6-4.4-3.2-1.8-7.2-5-4-3.4-6-7.6-1.8-4.2-1.8-9.6 0-9.4 7.4-16.8 7.6-7.4 21.4-7.4 12.2 0 25.6 7.6zM895.688 582q13.6-13.6 33-13.6t33 13.6q13.8 13.6 13.8 33t-13.8 33.2q-13.6 13.6-33 13.6t-33-13.6q-13.6-13.8-13.6-33.2 0-19.4 13.6-33zm56.4 8.6q-9.2-10-23.2-10t-23.4 10q-9.2 10-9.2 24.4 0 14.4 9.2 24.6 9.4 10 23.4 10 14 0 23.2-10 9.2-10.2 9.2-24.6 0-14.4-9.2-24.4zM1061.51 570.2l-39.2 91.6h-6l-40.8-91.6h14.6l29.2 65.4 27.8-65.4zM1143.075 612.8v3.2h-66.6q0 15.6 9.2 24.6 9.4 9 23 9 17.6 0 33-12.6v14q-16 10.8-34.6 10.8-21.4 0-33.2-13.6-11.6-13.8-11.6-33.4 0-22 12.2-34.2 12.4-12.2 29-12.2 16.8 0 28.2 12.6 11.4 12.4 11.4 31.8zm-65.8-6.8h51.6q-1.4-13.2-8.8-19.2-7.4-6.2-16.2-6.2-9.2 0-16.8 6.4-7.4 6.2-9.8 19zM1156.97 570.2h13.8V590q7.2-11.2 15-16.6 7.6-5 13.6-5 8.6 0 21.4 10.6l-7.4 12q-9.6-8.4-17.4-8.4-6 0-12.4 5-6.4 4.8-9.6 12-3.2 7.2-3.2 21.6V660h-13.8zM340.54 802.4v-2.2l29.2-31v21h27v12.2h-27v47q0 5.2.2 8.2.4 2.8 1.6 5.8 1.4 3 4.2 4.4 2.8 1.2 7.4 1.2 6.8 0 18.2-5.4v13q-11 5.2-21 5.2-12.6 0-18.6-7.4-5.8-7.6-5.8-19.4v-52.6zM408.04 743.6h13.8v60.2q11.6-15.4 28.2-15.4 15 0 23.6 10.2 8.6 10.2 8.6 27.8V880h-13.8v-52.4q0-12.2-5.2-19.6-5.2-7.4-16.4-7.4-15.6 0-25 15.8V880h-13.8zM576.677 832.8v3.2h-66.6q0 15.6 9.2 24.6 9.4 9 23 9 17.6 0 33-12.6v14q-16 10.8-34.6 10.8-21.4 0-33.2-13.6-11.6-13.8-11.6-33.4 0-22 12.2-34.2 12.4-12.2 29-12.2 16.8 0 28.2 12.6 11.4 12.4 11.4 31.8zm-65.8-6.8h51.6q-1.4-13.2-8.8-19.2-7.4-6.2-16.2-6.2-9.2 0-16.8 6.4-7.4 6.2-9.8 19zM648.37 743.6V880h-13.8V743.6zM740.814 864.2v9.4q-11.4 8.2-17.8 8.2-7.8 0-9.8-10.2-13.6 10.2-26.2 10.2-9.6 0-16.4-6.4-6.8-6.6-6.8-16.4 0-11.8 11.2-20 11.4-8.2 38-13v-8q0-17.4-17.8-17.4-13.8 0-28 13.2v-14.4q12.8-11 29.2-11 9 0 15.4 3 6.4 2.8 9.4 7.4 3.2 4.6 4.4 9 1.2 4.4 1.2 8.8v49.2q0 2.8.4 3.8.6 1 2 1 3.8 0 11.6-6.4zm-27.8-2V835q-35.4 6.4-35.4 23 0 7.2 5 10.6 5 3.2 10.2 3.2 10 0 20.2-9.6z"/><path d="M741.714 790.2h74.2v1.8l-53.2 75.2h53.2V880h-76.8v-1.6l53.2-75.4h-50.6z"/><path d="M898.164 790.2l-65.4 135.8h-14.8l31-64.4-36.4-71.4h15l28.6 56.6 27-56.6zM1026.092 880h-31.6q-23.6 0-36.6-11.6t-13-33.2q0-19.8 11.8-33.2 12-13.6 32.8-13.6 10 0 22.8 5.4v-50.2h13.8zm-13.8-12.2v-61.4q-10.4-5.8-20.6-5.8-15.8 0-24.2 9.8-8.4 9.8-8.4 24.4 0 15.8 9.6 24.4 9.8 8.6 26 8.6zM1055.227 802q13.6-13.6 33-13.6t33 13.6q13.8 13.6 13.8 33t-13.8 33.2q-13.6 13.6-33 13.6t-33-13.6q-13.6-13.8-13.6-33.2 0-19.4 13.6-33zm56.4 8.6q-9.2-10-23.2-10t-23.4 10q-9.2 10-9.2 24.4 0 14.4 9.2 24.6 9.4 10 23.4 10 14 0 23.2-10 9.2-10.2 9.2-24.6 0-14.4-9.2-24.4zM1221.573 790.2v11h-19.4q11 9.8 11 22 0 11.6-7.4 19.2-7.4 7.4-19 10.2-12.8 3-17.4 5-4.4 2-4.4 6 0 3.8 4.2 5.8 4.4 2 15.4 3.4 19.8 2.6 28.2 8.8 8.6 6.2 8.6 17.4 0 13.2-11.8 20-11.6 7-29 7-19.4 0-30.2-7.6-10.8-7.4-10.8-18.6 0-7.4 5.4-14 5.6-6.4 19-8.8-6-2.2-9-5.6-3-3.6-3-6.4 0-3 1.2-5.2t4-3.8q3-1.8 4.8-2.6 2-.8 6.4-2.4-4-1.6-7-3.4-3-1.8-6.8-5-3.8-3.4-6-8.6-2-5.4-2-12 0-5.8 1.6-10.8 1.8-5.2 6-10.2 4.2-5 12.6-7.8 8.6-3 20.6-3zm-26.6 46.2q5.6-5.8 5.6-14.2 0-8.4-6-14.2-6-6-14.6-6t-14.8 6q-6 5.8-6 14.2 0 7.4 5.6 13.8 5.8 6.2 15.2 6.2 9.4 0 15-5.8zm13.4 63.2q0-5.8-6.8-10.4-6.6-4.6-22.6-4.6-14.6 0-20.6 4.6-5.8 4.6-5.8 10.4 0 15.4 28.4 15.4 12.8 0 20-4.4 7.4-4.4 7.4-11zM1229.814 863.4q3.2-3.2 7.6-3.2 4.4 0 7.6 3.2 3.2 3 3.2 7.6t-3.2 7.8q-3.2 3-7.6 3-4.4 0-7.6-3-3.2-3.2-3.2-7.8t3.2-7.6z"/></g></svg>