<svg xmlns="http://www.w3.org/2000/svg" viewBox="0 0 1600 1000" height="1000" width="1600"><path fill="#fff" d="M0 0h1600v1000H0z"/><g font-weight="100" font-size="200" font-family="Gill Sans" letter-spacing="-.03em" text-anchor="middle" fill="#222"><path d="M441.648 84.063h113.77v8.79h-51.563V220H493.21V92.852H441.65zm57.813-9.96zM498.583 220zM441.648 81.914zM562.895 84.063h9.57v63.77q6.25-9.376 13.672-14.063 7.52-4.688 16.894-4.688 15.236 0 24.318 9.473 9.18 9.375 9.18 25.195V220h-9.57v-50.684q0-30.86-24.513-30.86-8.984 0-15.625 3.81-6.64 3.808-14.355 15.332V220h-9.57zM660.8 172.246q-.195 2.05-.195 3.906 0 15.625 10.352 25.977 10.45 10.35 25.39 10.35 9.083 0 16.016-2.832 7.032-2.93 16.992-10.546v10.742q-14.94 12.01-34.57 12.01-19.824 0-32.13-14.06-12.206-14.064-12.206-33.4 0-19.042 11.425-32.128 11.523-13.184 29.395-13.184 17.187 0 28.418 11.72 11.23 11.62 11.23 31.444zm1.173-7.812h57.52q-5.47-25.977-28.126-25.977-11.62 0-19.336 7.13-7.616 7.03-10.057 18.847zm29.297-47.852zM695.762 220zM860.91 137.09v-6.152h9.57v134.375h-9.57v-50.39q-15.43 6.932-28.906 6.932-17.87 0-30.47-11.914-12.5-11.913-12.5-32.616 0-21.094 12.892-34.668 12.89-13.574 30.957-13.574 5.078 0 10.742.977 5.762.878 17.285 7.03zm-61.72 40.43q0 14.55 8.693 24.804 8.69 10.156 25.586 10.156 6.737 0 12.596-1.27 5.86-1.366 14.844-5.858v-58.887q-13.77-8.008-25.78-8.008-16.212 0-26.075 11.426-9.864 11.328-9.864 27.637zM890.066 130.938h9.57v54.785q0 11.914 6.544 19.336 6.543 7.42 18.36 7.42 17.675 0 29.59-19.14v-62.403h9.57V220h-9.57v-15.332q-6.642 9.277-13.673 13.28-6.934 3.907-16.602 3.907-13.67 0-23.73-8.886-10.06-8.888-10.06-26.954zm37.11-14.356zM960.866 220zm-83.202-90.918zM983.676 130.938h9.57V220h-9.57zm0-46.094h9.57v16.406h-9.57zm4.2 135.156zM1079.238 207.207v10.06q-12.01 4.588-23.926 4.588-20.898 0-33.3-12.304-12.403-12.402-12.403-32.616 0-20.9 12.206-34.375 12.207-13.478 31.836-13.478 5.567 0 10.84 1.074 5.37.977 13.086 3.32v10.547q-13.476-5.566-23.535-5.566-15.723 0-25 10.547-9.277 10.45-9.277 26.758 0 16.7 9.375 26.758 9.473 9.96 25.977 9.96 10.742 0 24.12-5.273zm-26.074-90.625zM1051.016 220zM1090.62 84.063h9.57V220h-9.57zm10.94 88.964l50.096-42.09h12.598l-49.61 42.09L1171.872 220h-13.182zM1125.58 220zM508.348 392.93q0 22.558-13.965 35.742-13.965 13.183-35.938 13.183-13.183 0-31.543-7.03V304.062h9.57v59.082q14.844-14.063 32.032-14.063 17.578 0 28.71 12.012 11.134 12.01 11.134 31.836zm-10.157 1.074q0-15.234-8.69-25.39-8.594-10.157-22.168-10.157-16.31 0-30.86 15.625v54.297q10.45 4.1 20.997 4.1 18.846 0 29.784-10.45 10.937-10.546 10.937-28.026zM523.05 440v-89.063h9.57v24.024q16.505-25.878 32.13-25.878 8.496 0 20.996 10.547l-5.566 9.08q-11.23-10.253-18.067-10.253-13.867 0-29.492 25.488V440zm31.837-103.418zM528.715 440zM579.648 395.86q0-20.02 12.99-33.4 12.987-13.378 32.714-13.378 19.238 0 32.42 13.086 13.283 12.988 13.283 32.91 0 19.824-12.89 33.3-12.892 13.477-32.813 13.477-19.336 0-32.52-13.085-13.184-13.086-13.184-32.91zm10.157-.39q0 16.112 10.45 26.56 10.546 10.45 25.39 10.45 15.332 0 25.293-10.45 9.96-10.448 9.96-25.975 0-16.407-10.35-26.953-10.255-10.645-25.196-10.645-14.747 0-25.196 10.352-10.35 10.253-10.35 26.66zm35.937-58.888zM673.844 350.938h9.472l31.348 72.85 27.93-72.85h5.273l27.637 72.85 31.543-72.85h9.57l-39.062 90.917h-4.688l-27.832-72.46-27.44 72.46h-4.69zM822.043 440v-89.063h9.57v16.895q5.762-9.082 13.184-13.867 7.422-4.883 17.383-4.883 14.746 0 24.12 9.277 9.376 9.18 9.376 27.343V440h-9.57v-51.563q0-29.98-24.512-29.98-18.067 0-29.98 19.14V440zm38.574-103.418zM859.152 440zM952.72 350.938h17.186V335.8q0-15.234 8.79-24.316 8.788-9.18 21.777-9.18 7.42 0 16.504 3.81v8.984q-8.985-3.418-16.407-3.418-21.093 0-21.093 27.148v12.11h17.187v7.812h-17.187V440h-9.57v-81.25h-17.188zM1001.602 395.86q0-20.02 12.988-33.4 12.988-13.378 32.715-13.378 19.238 0 32.422 13.086 13.28 12.988 13.28 32.91 0 19.824-12.89 33.3-12.89 13.477-32.812 13.477-19.336 0-32.52-13.085-13.183-13.086-13.183-32.91zm10.156-.39q0 16.112 10.45 26.56 10.546 10.45 25.39 10.45 15.332 0 25.293-10.45 9.962-10.448 9.962-25.975 0-16.407-10.352-26.953-10.254-10.645-25.195-10.645-14.746 0-25.196 10.352-10.352 10.253-10.352 26.66zm35.937-58.888zM1096.97 440l41.112-45.605-41.113-43.457h12.4l35.255 36.523 35.254-36.522h12.4l-41.112 43.457L1192.28 440h-12.4l-35.255-38.965L1109.37 440zM415.938 541.25h-9.57v-16.406h9.57zm0 128.418q0 17.87-7.422 26.758-7.325 8.886-19.043 8.886v-8.007q9.277-.49 13.086-6.74 3.807-6.25 3.807-20.897v-98.73h9.57zM436.598 570.938h9.57v54.785q0 11.914 6.543 19.336 6.544 7.42 18.36 7.42 17.676 0 29.59-19.14v-62.403h9.57V660h-9.57v-15.332q-6.64 9.277-13.672 13.28-6.933 3.907-16.6 3.907-13.673 0-23.732-8.886-10.058-8.888-10.058-26.954zm37.11-14.356zM507.397 660zm-83.203-90.918zM528.254 570.938h9.57v16.894q6.446-10.254 13.477-14.453 7.032-4.298 15.137-4.298 21.29 0 30.08 21.875 7.323-11.62 15.038-16.7 7.715-5.175 16.797-5.175 13.28 0 22.265 9.668 9.082 9.57 9.082 26.172V660h-9.57v-50.977q0-14.355-6.544-22.46-6.543-8.106-17.578-8.106-7.422 0-13.672 4.59-6.25 4.492-13.574 16.113V660h-9.57v-51.27q0-15.234-6.64-22.753-6.642-7.52-17.872-7.52-15.137 0-26.856 19.14V660h-9.57zM686.707 575.332q12.11-6.25 27.246-6.25 18.652 0 31.64 12.695 12.99 12.696 12.99 33.008 0 21.387-13.38 34.278-13.38 12.792-31.543 12.792-12.89 0-26.953-6.25v49.707h-9.57V570.938h9.57zm0 9.277v61.62q12.11 6.25 25.098 6.25 16.015 0 26.27-9.765 10.35-9.863 10.35-27.246 0-14.845-10.35-25.88-10.255-11.133-27.052-11.133-12.402 0-24.316 6.152zM768.793 644.668q14.453 7.812 28.32 7.812 8.594 0 13.867-4.492 5.274-4.492 5.274-11.133 0-9.472-14.356-15.234l-10.937-4.59q-21.58-8.69-21.58-23.632 0-10.253 8.495-17.285 8.496-7.03 20.605-7.03 10.06 0 24.122 8.007v10.742q-14.942-9.96-24.805-9.96-8.692 0-13.965 4.59t-5.273 10.546q0 5.37 4.198 9.082 4.2 3.613 12.597 7.03l8.204 3.517q11.424 4.297 16.6 9.863 5.274 5.566 5.274 14.844 0 11.133-8.985 17.87-8.888 6.64-20.41 6.64-13.966 0-27.247-8.006zm30.566-88.086zM795.843 660zM883.063 615.86q0-20.02 12.988-33.4 12.99-13.378 32.716-13.378 19.238 0 32.422 13.086 13.28 12.988 13.28 32.91 0 19.824-12.89 33.3-12.89 13.477-32.812 13.477-19.336 0-32.52-13.085-13.184-13.086-13.184-32.91zm10.156-.39q0 16.112 10.448 26.56 10.547 10.45 25.39 10.45 15.333 0 25.294-10.45 9.96-10.448 9.96-25.975 0-16.407-10.35-26.953-10.255-10.645-25.196-10.645-14.746 0-25.196 10.352-10.35 10.253-10.35 26.66zm35.936-58.888zM1020.715 645.84l32.715-74.903h9.472l-39.062 90.918h-5.957l-40.625-90.918h9.765zM1075.066 612.246q-.195 2.05-.195 3.906 0 15.625 10.353 25.977 10.45 10.35 25.39 10.35 9.082 0 16.016-2.832 7.03-2.93 16.99-10.546v10.742q-14.94 12.01-34.57 12.01-19.823 0-32.128-14.06-12.207-14.064-12.207-33.4 0-19.042 11.426-32.128 11.524-13.184 29.395-13.184 17.188 0 28.418 11.72 11.23 11.62 11.23 31.444zm1.172-7.812h57.52q-5.47-25.977-28.125-25.977-11.62 0-19.336 7.13-7.617 7.03-10.06 18.847zm29.297-47.852zM1110.027 660zM1159.105 660v-89.063h9.57v24.024q16.505-25.878 32.13-25.878 8.496 0 20.996 10.547l-5.566 9.08q-11.23-10.253-18.066-10.253-13.867 0-29.492 25.488V660zm31.836-103.418zM1164.77 660zM340.883 798.75v-7.813h24.12v-21.29l6.544-8.397h3.027v29.688h25v7.812h-25V860.37q0 6.837 3.32 9.474 3.32 2.636 9.864 2.636 6.64 0 16.504-4.394v9.18q-8.203 4.59-18.555 4.59-9.57 0-15.137-4.883-5.566-4.98-5.566-13.868V798.75zM384.438 880zM411.543 744.063h9.57v63.77q6.25-9.376 13.672-14.063 7.52-4.688 16.895-4.688 15.234 0 24.316 9.473 9.18 9.375 9.18 25.195V880h-9.57v-50.684q0-30.86-24.512-30.86-8.985 0-15.625 3.81-6.642 3.808-14.357 15.332V880h-9.57zM509.45 832.246q-.196 2.05-.196 3.906 0 15.625 10.35 25.977 10.45 10.35 25.392 10.35 9.082 0 16.016-2.832 7.03-2.93 16.992-10.546v10.742q-14.941 12.01-34.57 12.01-19.825 0-32.13-14.06-12.206-14.064-12.206-33.4 0-19.042 11.425-32.128 11.524-13.184 29.395-13.184 17.187 0 28.418 11.72 11.23 11.62 11.23 31.444zm1.17-7.812h57.52q-5.468-25.977-28.124-25.977-11.62 0-19.336 7.13-7.617 7.03-10.06 18.847zm29.298-47.852zM544.41 880zM644.324 880V744.062h9.57V880zm5.176-143.75zM648.914 880zM722.21 826.68v-11.133q0-18.457-20.702-18.457-12.793 0-27.442 10.742v-9.375q16.31-9.375 28.907-9.375 13.38 0 21.093 6.055 7.715 6.054 7.715 17.383v55.078q0 4.882 1.857 4.882 3.32 0 13.183-7.812v8.008q-5.175 3.71-9.668 6.445-4.394 2.735-7.91 2.735h-.78q-5.665 0-6.25-10.937-12.99 10.937-28.81 10.937-9.765 0-17.09-6.445-7.226-6.445-7.226-16.21 0-15.04 14.746-23.536 14.844-8.594 38.38-8.984zm0 8.008q-2.93-.196-3.905-.196-16.504 0-28.125 6.64-11.524 6.64-11.524 17.97 0 6.738 5.37 10.742 5.47 4.004 13.673 4.004 11.913 0 24.51-11.328zm-17.284-58.106zM735.59 880z"/><path d="M743.36 876.875l59.277-77.148H747.07v-8.79h70.508l.78 3.126-58.788 77.148h58.79V880h-73.926zm39.94-100.293zm-41.894 12.5z"/><path d="M815.875 790.938h10.06l32.323 61.914 31.25-61.915h9.765l-67.187 134.375h-9.766l31.446-62.988zm40.723-14.356zm-41.895 12.5zM1021.844 796.895v-52.832h9.57V880h-9.57v-7.52q-12.012 9.375-26.074 9.375-19.727 0-32.813-13.378-12.988-13.477-12.988-33.4 0-19.53 12.792-32.714 12.89-13.28 32.715-13.28 11.914 0 26.367 7.812zm-61.72 37.695q0 16.894 10.938 27.44 10.938 10.45 26.954 10.45 11.523 0 23.828-8.79v-55.956q-13.282-9.277-25.782-9.277-16.6 0-26.27 10.742-9.667 10.644-9.667 25.39zM1046.117 835.86q0-20.02 12.988-33.4 12.99-13.378 32.715-13.378 19.24 0 32.422 13.086 13.28 12.988 13.28 32.91 0 19.824-12.89 33.3-12.89 13.477-32.812 13.477-19.336 0-32.52-13.085-13.183-13.086-13.183-32.91zm10.156-.39q0 16.112 10.45 26.56 10.546 10.45 25.39 10.45 15.332 0 25.293-10.45 9.96-10.448 9.96-25.975 0-16.407-10.35-26.953-10.254-10.645-25.196-10.645-14.746 0-25.195 10.352-10.352 10.253-10.352 26.66zm35.938-58.888zM1170.488 879.902q-15.04-3.515-15.04-12.695 0-4.883 4.298-8.594 4.297-3.71 12.89-6.347-8.788-1.563-16.015-9.668-7.128-8.203-7.128-20.313 0-13.77 9.57-22.558 9.57-8.79 28.223-8.79h35.547v7.813h-20.41q5.566 3.418 8.984 10.156 3.516 6.74 3.516 13.38 0 11.718-6.445 19.726-6.348 8.008-21.875 11.523l-10.84 3.028q-11.133 3.125-11.133 9.667 0 4.004 3.808 6.25 3.808 2.247 17.48 3.223l10.254.586q26.562 2.05 26.562 22.948 0 13.086-11.035 19.63-11.036 6.445-29.298 6.445-16.894 0-27.246-5.86-11.23-6.25-11.23-17.578 0-7.715 5.664-13.28 5.664-5.665 20.898-8.693zm-17.383 21.094q0 16.31 30.274 16.31 12.89 0 21.483-4.396 8.692-4.394 8.692-12.89 0-15.333-28.81-15.333-31.64 0-31.64 16.31zm5.567-79.004q0 9.96 6.445 17.09 6.445 7.03 16.895 7.03 10.254 0 16.992-6.053 6.738-6.154 6.738-17.677 0-10.06-7.422-16.7-7.324-6.738-16.504-6.738-10.058 0-16.6 6.74-6.544 6.737-6.544 16.307zm27.148-43.555zM1230.992 860.566h12.988V880h-12.988z"/></g></svg>