<svg xmlns="http://www.w3.org/2000/svg" viewBox="0 0 800 500" height="500" width="800"><path fill="#fff" d="M0 0h800v500H0z"/><g font-weight="100" font-size="100" font-family="Gill Sans" letter-spacing="-.03em" text-anchor="middle" fill="#222"><path d="M220.824 42.03h56.885v4.396h-25.782V110h-5.323V46.426h-25.78zm28.906-4.98zm-.44 72.95zm-28.466-69.043zM281.447 42.03h4.785v31.886q3.125-4.687 6.836-7.03 3.76-2.345 8.448-2.345 7.617 0 12.158 4.737 4.59 4.688 4.59 12.598V110h-4.785V84.658q0-15.43-12.257-15.43-4.493 0-7.813 1.905-3.32 1.904-7.178 7.666V110h-4.785zM330.4 86.123q-.097 1.025-.097 1.953 0 7.813 5.175 12.988 5.225 5.176 12.696 5.176 4.54 0 8.008-1.416 3.515-1.465 8.496-5.273v5.372q-7.47 6.006-17.285 6.006-9.913 0-16.065-7.032-6.103-7.03-6.103-16.7 0-9.52 5.712-16.063 5.762-6.592 14.698-6.592 8.593 0 14.21 5.86 5.614 5.81 5.614 15.723zm.586-3.906h28.76q-2.734-12.988-14.062-12.988-5.81 0-9.668 3.563-3.81 3.516-5.03 9.424zm14.65-23.926zM347.88 110zM430.455 68.545V65.47h4.785v67.186h-4.785V107.46q-7.715 3.468-14.453 3.468-8.936 0-15.234-5.957-6.25-5.956-6.25-16.308 0-10.547 6.445-17.334 6.445-6.787 15.478-6.787 2.54 0 5.373.49 2.88.44 8.642 3.515zm-30.86 20.215q0 7.275 4.346 12.402 4.347 5.078 12.794 5.078 3.37 0 6.3-.635 2.93-.683 7.42-2.93V73.233q-6.884-4.003-12.89-4.003-8.105 0-13.037 5.71-4.93 5.665-4.93 13.82zM445.033 65.47h4.785v27.39q0 5.958 3.272 9.67 3.27 3.71 9.18 3.71 8.837 0 14.794-9.57v-31.2h4.786V110h-4.786v-7.666q-3.32 4.64-6.835 6.64-3.468 1.954-8.302 1.954-6.836 0-11.866-4.444-5.03-4.443-5.03-13.476zm18.555-7.18zM480.434 110zm-41.602-45.46zM491.838 65.47h4.785V110h-4.785zm0-23.048h4.785v8.203h-4.785zm2.1 67.578zM539.62 103.604v5.03q-6.007 2.294-11.964 2.294-10.45 0-16.65-6.153-6.2-6.2-6.2-16.308 0-10.45 6.102-17.188 6.104-6.74 15.918-6.74 2.783 0 5.42.538 2.686.488 6.543 1.66v5.274q-6.74-2.783-11.77-2.783-7.86 0-12.5 5.272-4.637 5.225-4.637 13.38 0 8.348 4.687 13.378 4.737 4.98 12.99 4.98 5.37 0 12.06-2.636zM526.58 58.29zM525.508 110zM545.31 42.03h4.786V110h-4.785zm5.47 44.484l25.048-21.045h6.3L557.32 86.513 585.936 110h-6.592zM562.79 110zM254.174 196.465q0 11.28-6.983 17.87-6.98 6.593-17.967 6.593-6.592 0-15.772-3.516v-65.38h4.786v29.54q7.422-7.03 16.016-7.03 8.79 0 14.355 6.005 5.567 6.006 5.567 15.918zm-5.078.537q0-7.617-4.346-12.695-4.297-5.078-11.084-5.078-8.154 0-15.43 7.81v27.15q5.225 2.05 10.498 2.05 9.424 0 14.893-5.224 5.47-5.274 5.47-14.014zM261.525 220v-44.53h4.786v12.01q8.253-12.94 16.065-12.94 4.248 0 10.498 5.274l-2.783 4.54q-5.615-5.125-9.033-5.125-6.934 0-14.746 12.743V220zm15.918-51.71zM264.357 220zM289.824 197.93q0-10.01 6.494-16.7 6.495-6.69 16.358-6.69 9.62 0 16.21 6.544 6.64 6.494 6.64 16.455 0 9.91-6.444 16.65-6.445 6.738-16.406 6.738-9.668 0-16.26-6.543-6.592-6.543-6.592-16.455zm5.078-.196q0 8.057 5.225 13.282 5.273 5.224 12.695 5.224 7.666 0 12.647-5.224 4.98-5.225 4.98-12.99 0-8.202-5.177-13.475-5.127-5.32-12.597-5.32-7.373 0-12.598 5.174-5.176 5.127-5.176 13.33zm17.97-29.443zM336.922 175.47h4.736l15.674 36.425 13.965-36.426h2.637l13.818 36.425 15.77-36.426h4.787l-19.533 45.458h-2.343l-13.916-36.23-13.72 36.23h-2.345zM411.02 220v-44.53h4.787v8.446q2.88-4.54 6.59-6.934 3.712-2.44 8.693-2.44 7.373 0 12.06 4.638 4.688 4.59 4.688 13.672V220h-4.785v-25.78q0-14.99-12.256-14.99-9.033 0-14.99 9.57V220zm19.29-51.71zm-.734 51.71zM476.36 175.47h8.593v-7.57q0-7.617 4.395-12.158 4.394-4.59 10.888-4.59 3.71 0 8.252 1.905v4.492q-4.492-1.71-8.203-1.71-10.547 0-10.547 13.574v6.055h8.594v3.905h-8.594V220h-4.785v-40.625h-8.594zM500.8 197.93q0-10.01 6.495-16.7 6.494-6.69 16.357-6.69 9.62 0 16.21 6.544 6.642 6.494 6.642 16.455 0 9.91-6.445 16.65-6.447 6.738-16.408 6.738-9.668 0-16.26-6.543-6.59-6.543-6.59-16.455zm5.08-.196q0 8.057 5.224 13.282 5.273 5.224 12.695 5.224 7.665 0 12.645-5.224 4.98-5.225 4.98-12.99 0-8.202-5.175-13.475-5.127-5.32-12.598-5.32-7.373 0-12.597 5.174-5.176 5.127-5.176 13.33zm17.968-29.443zM548.484 220l20.557-22.803-20.556-21.728h6.202l17.627 18.26 17.626-18.26h6.2l-20.556 21.727L596.14 220h-6.2l-17.628-19.482L554.687 220zM207.97 270.625h-4.786v-8.203h4.785zm0 64.21q0 8.935-3.712 13.378-3.662 4.443-9.522 4.443v-4.004q4.64-.244 6.543-3.37 1.904-3.124 1.904-10.448V285.47h4.785zM218.3 285.47h4.784v27.39q0 5.958 3.27 9.67 3.273 3.71 9.18 3.71 8.84 0 14.796-9.57v-31.2h4.785V330h-4.785v-7.666q-3.32 4.64-6.836 6.64-3.467 1.954-8.3 1.954-6.837 0-11.866-4.444-5.03-4.443-5.03-13.476zm18.554-7.18zM253.7 330zm-41.602-45.46zM264.127 285.47h4.785v8.446q3.223-5.127 6.738-7.227 3.516-2.15 7.57-2.15 10.643 0 15.038 10.94 3.662-5.812 7.52-8.35 3.857-2.59 8.398-2.59 6.64 0 11.133 4.835 4.54 4.785 4.54 13.086V330h-4.786v-25.488q0-7.178-3.27-11.23-3.273-4.053-8.79-4.053-3.71 0-6.836 2.293-3.125 2.247-6.787 8.057V330h-4.784v-25.635q0-7.617-3.32-11.377-3.32-3.76-8.936-3.76-7.57 0-13.428 9.57V330h-4.785zM343.354 287.666q6.054-3.125 13.623-3.125 9.326 0 15.82 6.35 6.494 6.346 6.494 16.503 0 10.693-6.688 17.138-6.69 6.398-15.772 6.398-6.445 0-13.476-3.125v24.853h-4.786V285.47h4.786zm0 4.64v30.81q6.054 3.124 12.548 3.124 8.008 0 13.135-4.883 5.176-4.93 5.176-13.623 0-7.42-5.176-12.94-5.127-5.565-13.525-5.565-6.2 0-12.158 3.075zM384.396 322.334q7.227 3.906 14.16 3.906 4.298 0 6.934-2.246 2.637-2.246 2.637-5.566 0-4.737-7.178-7.617l-5.47-2.294q-10.79-4.346-10.79-11.817 0-5.128 4.248-8.643 4.248-3.516 10.302-3.516 5.03 0 12.06 4.005v5.37q-7.47-4.98-12.402-4.98-4.345 0-6.982 2.295-2.637 2.295-2.637 5.274 0 2.685 2.1 4.54 2.1 1.808 6.298 3.517l4.1 1.758q5.714 2.15 8.302 4.932 2.637 2.783 2.637 7.422 0 5.566-4.492 8.935-4.444 3.32-10.205 3.32-6.983 0-13.624-4.003zm15.284-44.043zM397.922 330zM441.53 307.93q0-10.01 6.495-16.7 6.495-6.69 16.358-6.69 9.62 0 16.21 6.544 6.64 6.494 6.64 16.455 0 9.91-6.444 16.65-6.446 6.738-16.407 6.738-9.668 0-16.26-6.543-6.592-6.543-6.592-16.455zm5.08-.196q0 8.057 5.224 13.282 5.273 5.224 12.695 5.224 7.665 0 12.646-5.224 4.98-5.225 4.98-12.99 0-8.202-5.176-13.475-5.126-5.32-12.597-5.32-7.373 0-12.598 5.174-5.176 5.127-5.176 13.33zm17.968-29.443zM510.357 322.92l16.358-37.45h4.736l-19.53 45.458h-2.98l-20.31-45.46h4.882zM537.533 306.123q-.097 1.025-.097 1.953 0 7.813 5.175 12.988 5.226 5.176 12.697 5.176 4.54 0 8.007-1.416 3.516-1.465 8.497-5.273v5.372q-7.47 6.006-17.285 6.006-9.912 0-16.064-7.032-6.103-7.03-6.103-16.7 0-9.52 5.713-16.063 5.762-6.592 14.698-6.592 8.593 0 14.21 5.86 5.614 5.81 5.614 15.723zm.586-3.906h28.76q-2.735-12.988-14.064-12.988-5.81 0-9.668 3.563-3.808 3.516-5.03 9.424zm14.648-23.926zm2.246 51.71zM579.553 330v-44.53h4.785v12.01q8.252-12.94 16.064-12.94 4.248 0 10.498 5.274l-2.783 4.54q-5.615-5.125-9.033-5.125-6.934 0-14.746 12.743V330zm15.918-51.71zM582.386 330zM170.44 399.375v-3.906h12.062v-10.646l3.27-4.2h1.515v14.845h12.5v3.905h-12.5V430.187q0 3.418 1.66 4.736 1.66 1.318 4.932 1.318 3.32 0 8.25-2.197v4.59q-4.1 2.295-9.276 2.295-4.786 0-7.57-2.442-2.782-2.49-2.782-6.933v-32.177zM192.22 440zM205.77 372.03h4.787v31.886q3.125-4.687 6.836-7.03 3.76-2.345 8.447-2.345 7.617 0 12.158 4.737 4.59 4.688 4.59 12.598V440h-4.785v-25.342q0-15.43-12.256-15.43-4.492 0-7.813 1.905-3.32 1.904-7.177 7.666V440h-4.786zM254.725 416.123q-.098 1.025-.098 1.953 0 7.813 5.176 12.988 5.224 5.176 12.695 5.176 4.54 0 8.008-1.416 3.515-1.465 8.496-5.273v5.372q-7.47 6.006-17.285 6.006-9.912 0-16.065-7.032-6.103-7.03-6.103-16.7 0-9.52 5.712-16.063 5.76-6.592 14.697-6.592 8.593 0 14.208 5.86 5.615 5.81 5.615 15.723zm.586-3.906h28.76q-2.734-12.988-14.062-12.988-5.81 0-9.668 3.563-3.81 3.516-5.03 9.424zm14.65-23.926zm2.245 51.71zM322.162 440v-67.97h4.785V440zm2.588-71.875zM324.457 440zM361.105 413.34v-5.567q0-9.228-10.35-9.228-6.398 0-13.722 5.37v-4.686q8.155-4.69 14.453-4.69 6.69 0 10.547 3.028 3.858 3.028 3.858 8.692v27.54q0 2.44.928 2.44 1.66 0 6.592-3.906v4.004q-2.588 1.855-4.834 3.223-2.197 1.368-3.955 1.368h-.39q-2.832 0-3.125-5.47-6.494 5.47-14.404 5.47-4.882 0-8.544-3.223-3.613-3.223-3.613-8.105 0-7.52 7.373-11.768 7.422-4.297 19.19-4.492zm0 4.004q-1.464-.098-1.953-.098-8.252 0-14.062 3.32-5.762 3.32-5.762 8.985 0 3.37 2.686 5.372 2.734 2.002 6.836 2.002 5.957 0 12.255-5.664zm-8.642-29.053zM367.795 440z"/><path d="M371.68 438.438l29.638-38.575h-27.783v-4.394h35.254l.39 1.56-29.395 38.575h29.395V440h-36.963zm19.97-50.147zm-20.947 6.25z"/><path d="M407.938 395.47h5.03l16.16 30.956 15.626-30.957h4.883l-33.594 67.186h-4.883l15.723-31.494zm20.36-7.18zm-20.946 6.25zM510.922 398.447V372.03h4.785V440h-4.785v-3.76q-6.006 4.688-13.037 4.688-9.864 0-16.406-6.69-6.496-6.738-6.496-16.7 0-9.765 6.397-16.356 6.446-6.64 16.358-6.64 5.957 0 13.184 3.905zm-30.86 18.848q0 8.447 5.47 13.72 5.468 5.225 13.476 5.225 5.762 0 11.914-4.394v-27.98q-6.64-4.637-12.89-4.637-8.302 0-13.136 5.37-4.834 5.322-4.834 12.695zM523.06 417.93q0-10.01 6.493-16.7 6.494-6.69 16.357-6.69 9.62 0 16.21 6.544 6.642 6.494 6.642 16.455 0 9.91-6.446 16.65-6.445 6.738-16.406 6.738-9.668 0-16.26-6.543-6.59-6.543-6.59-16.455zm5.077-.196q0 8.057 5.224 13.282 5.275 5.224 12.697 5.224 7.666 0 12.646-5.224 4.98-5.225 4.98-12.99 0-8.202-5.175-13.475-5.127-5.32-12.598-5.32-7.373 0-12.598 5.174-5.175 5.127-5.175 13.33zm17.968-29.443zM585.244 439.95q-7.52-1.757-7.52-6.346 0-2.442 2.15-4.297 2.147-1.856 6.444-3.174-4.394-.78-8.007-4.834-3.564-4.103-3.564-10.157 0-6.885 4.785-11.28 4.786-4.394 14.113-4.394h17.773v3.905H601.21q2.784 1.71 4.493 5.078 1.758 3.37 1.758 6.69 0 5.86-3.222 9.863-3.174 4.004-10.937 5.762l-5.42 1.513q-5.566 1.564-5.566 4.835 0 2.002 1.905 3.125 1.903 1.123 8.74 1.612l5.126.293q13.28 1.025 13.28 11.474 0 6.542-5.516 9.814-5.518 3.222-14.65 3.222-8.446 0-13.622-2.93-5.615-3.124-5.615-8.788 0-3.858 2.832-6.64 2.832-2.833 10.45-4.347zm-8.69 10.548q0 8.154 15.135 8.154 6.445 0 10.742-2.197 4.345-2.197 4.345-6.445 0-7.666-14.404-7.666-15.82 0-15.82 8.154zm2.782-39.502q0 4.98 3.223 8.545 3.22 3.517 8.446 3.517 5.127 0 8.496-3.028 3.37-3.077 3.37-8.84 0-5.028-3.712-8.348-3.662-3.37-8.252-3.37-5.03 0-8.3 3.37-3.272 3.37-3.272 8.154zm13.574-21.777zM615.496 430.283h6.494V440h-6.494z"/></g></svg>