<svg xmlns="http://www.w3.org/2000/svg" viewBox="0 0 1000 1000"><path fill="#fff" d="M0 0h1000v1000H0z"/><g font-weight="400" font-size="128" font-family="Gotham" text-anchor="middle" fill="#111"><path d="M236.158 65.792h28.416V51.2H191.87v14.592h28.416V140.8h15.872zM294.34 102.656q0-7.936 4.225-12.288 4.224-4.48 11.008-4.48 6.912 0 10.624 4.352 3.84 4.224 3.84 12.16v38.4h15.488V97.792q0-11.904-6.272-18.944-6.272-7.04-17.792-7.04-3.967 0-7.167 1.024-3.072.896-5.76 2.56-2.56 1.664-4.608 3.84-1.92 2.048-3.584 4.48V47.36h-15.487v93.44h15.488zM370.004 112.512h49.664q.128-1.152.128-2.176.128-1.024.128-2.048 0-7.296-2.048-13.952t-6.144-11.648q-3.968-4.992-10.112-7.936-6.016-2.944-14.08-2.944-7.296 0-13.312 2.816-6.016 2.816-10.496 7.68-4.352 4.736-6.784 11.136-2.432 6.4-2.432 13.696 0 7.936 2.688 14.464 2.688 6.4 7.296 11.008 4.736 4.608 11.008 7.168 6.4 2.56 13.696 2.56 9.344 0 16-3.456 6.784-3.456 11.648-9.216l-9.088-8.064q-4.096 3.968-8.32 6.016t-9.984 2.048q-7.552 0-12.8-4.352-5.248-4.48-6.656-12.8zm-.128-10.24q1.024-7.936 5.632-12.8 4.736-4.992 11.904-4.992 3.84 0 6.784 1.408 3.072 1.408 5.248 3.84 2.176 2.304 3.456 5.632 1.28 3.2 1.664 6.912zM540.41 161.28V73.216h-15.488v10.496q-3.712-4.736-9.216-8.32-5.504-3.584-13.824-3.584-6.016 0-11.776 2.304-5.632 2.304-9.984 6.912-4.352 4.48-7.04 11.008-2.56 6.528-2.56 14.976t2.688 14.976q2.688 6.528 7.04 11.136 4.352 4.48 9.984 6.784 5.632 2.304 11.648 2.304 8.192 0 13.696-3.712 5.632-3.712 9.344-8.96v31.744zm-15.232-54.272q0 4.992-1.664 8.96-1.536 3.968-4.224 6.912-2.688 2.816-6.272 4.352-3.584 1.536-7.424 1.536-3.968 0-7.552-1.536-3.456-1.536-6.144-4.352-2.688-2.816-4.224-6.784-1.536-4.096-1.536-9.088 0-5.12 1.536-9.088 1.536-4.096 4.224-6.912t6.144-4.224q3.584-1.536 7.552-1.536 3.84 0 7.424 1.536 3.584 1.536 6.272 4.48 2.688 2.816 4.224 6.784 1.664 3.968 1.664 8.96zM604.144 111.36q0 7.936-4.224 12.416-4.224 4.352-11.008 4.352-6.912 0-10.752-4.224-3.712-4.352-3.712-12.288v-38.4H558.96v43.008q0 11.904 6.272 18.944 6.272 7.04 17.792 7.04 7.808 0 12.8-3.456 4.992-3.584 8.32-8.448V140.8h15.488V73.216h-15.488zM655.874 62.848v-14.72h-16.64v14.72zm-.512 77.952V73.216h-15.488V140.8zM734.358 129.664l-9.344-9.216q-3.712 3.712-7.936 6.144-4.096 2.304-9.6 2.304-4.48 0-8.192-1.664-3.712-1.792-6.4-4.736t-4.224-6.912q-1.408-3.968-1.408-8.576 0-4.48 1.408-8.32 1.536-3.968 4.096-6.912t6.144-4.608q3.584-1.792 7.808-1.792 5.888 0 9.856 2.432 4.096 2.304 7.68 6.016l9.6-10.368q-4.736-5.248-11.136-8.448-6.272-3.2-15.872-3.2-7.552 0-14.08 2.816-6.4 2.816-11.136 7.68-4.608 4.864-7.296 11.264-2.56 6.4-2.56 13.696 0 7.296 2.56 13.696 2.688 6.272 7.296 11.136 4.736 4.736 11.136 7.552 6.4 2.688 13.952 2.688 9.856 0 16.256-3.456 6.4-3.584 11.392-9.216zM783.934 100.736l26.88-27.52h-18.816l-28.032 29.952V47.36h-15.488v93.44h15.488v-19.328l9.472-9.856L793.79 140.8h17.92zM256.49 247.808q0-8.448-2.687-14.976-2.688-6.528-7.168-11.008-4.352-4.608-9.984-6.912-5.63-2.304-11.647-2.304-8.192 0-13.696 3.712-5.504 3.584-9.216 8.96v-37.12h-15.487v93.44h15.488v-10.496q3.585 4.736 9.09 8.32 5.503 3.584 13.823 3.584 6.016 0 11.648-2.304 5.76-2.304 10.113-6.784 4.48-4.608 7.04-11.136 2.688-6.528 2.688-14.976zm-15.743 0q0 4.992-1.536 9.088-1.535 3.968-4.223 6.784-2.56 2.816-6.144 4.352-3.456 1.536-7.424 1.536-3.97 0-7.553-1.536-3.584-1.536-6.272-4.352-2.688-2.944-4.352-6.912-1.536-3.968-1.536-8.96 0-4.992 1.536-8.96 1.664-3.968 4.352-6.784 2.688-2.944 6.272-4.48 3.584-1.536 7.552-1.536 3.967 0 7.423 1.536 3.584 1.536 6.144 4.352 2.688 2.816 4.224 6.912 1.537 3.968 1.537 8.96zM287.84 255.872q0-6.656 1.665-11.648 1.664-5.12 4.736-8.448 3.073-3.328 7.297-4.992 4.224-1.664 9.344-1.664h.897v-16.384q-8.96-.384-14.848 4.224-5.89 4.608-9.09 12.288v-15.232h-15.487V281.6h15.488zM391.33 247.808q0-7.296-2.688-13.696-2.688-6.4-7.552-11.136-4.736-4.864-11.392-7.552-6.528-2.816-14.336-2.816-7.808 0-14.464 2.816-6.528 2.816-11.392 7.68-4.736 4.736-7.552 11.264-2.688 6.4-2.688 13.696 0 7.296 2.688 13.696 2.688 6.272 7.424 11.136 4.864 4.736 11.392 7.552 6.656 2.688 14.336 2.688 7.808 0 14.464-2.816 6.656-2.816 11.392-7.552 4.864-4.864 7.552-11.264 2.816-6.4 2.816-13.696zm-15.488.256q0 4.48-1.408 8.448-1.408 3.84-4.096 6.784t-6.528 4.736q-3.712 1.664-8.448 1.664-4.48 0-8.32-1.664-3.712-1.792-6.528-4.736-2.688-2.944-4.224-6.912-1.536-4.096-1.536-8.576t1.408-8.32q1.408-3.968 4.096-6.912t6.4-4.608q3.84-1.792 8.448-1.792 4.608 0 8.32 1.792 3.84 1.664 6.528 4.736 2.816 2.944 4.352 6.912 1.536 3.968 1.536 8.448zM455.696 213.76h-13.184l-14.976 46.592-13.568-46.336h-15.872l21.888 68.096h13.824l15.232-46.208 15.104 46.208h13.824l22.144-68.096h-15.488L470.8 260.352zM529.59 243.456q0-7.936 4.225-12.288 4.224-4.48 11.008-4.48 6.912 0 10.624 4.352 3.84 4.224 3.84 12.16v38.4h15.488v-43.008q0-11.904-6.272-18.944-6.272-7.04-17.792-7.04-3.967 0-7.167 1.024-3.072.896-5.76 2.56-2.56 1.664-4.608 3.84-1.92 2.048-3.584 4.48v-10.496h-15.487V281.6h15.488zM650.54 214.528v-3.712q0-10.24 8.96-10.24 2.56 0 4.61.512 2.175.384 4.48 1.152v-13.056q-2.56-.768-5.505-1.28-2.944-.512-7.04-.512-9.984 0-15.36 5.504-5.376 5.376-5.376 16.64v4.864h-8.577v12.928h8.576V281.6h15.487v-54.272h17.664v-12.8zM747.33 247.808q0-7.296-2.688-13.696-2.688-6.4-7.552-11.136-4.736-4.864-11.392-7.552-6.528-2.816-14.336-2.816-7.808 0-14.464 2.816-6.528 2.816-11.392 7.68-4.736 4.736-7.552 11.264-2.688 6.4-2.688 13.696 0 7.296 2.688 13.696 2.688 6.272 7.424 11.136 4.864 4.736 11.392 7.552 6.656 2.688 14.336 2.688 7.808 0 14.464-2.816 6.656-2.816 11.392-7.552 4.864-4.864 7.552-11.264 2.816-6.4 2.816-13.696zm-15.488.256q0 4.48-1.408 8.448-1.408 3.84-4.096 6.784t-6.528 4.736q-3.712 1.664-8.448 1.664-4.48 0-8.32-1.664-3.712-1.792-6.528-4.736-2.688-2.944-4.224-6.912-1.536-4.096-1.536-8.576t1.408-8.32q1.408-3.968 4.096-6.912t6.4-4.608q3.84-1.792 8.448-1.792 4.608 0 8.32 1.792 3.84 1.664 6.528 4.736 2.816 2.944 4.352 6.912 1.536 3.968 1.536 8.448zM794.315 246.912l23.936-32.896h-16.51l-15.617 22.272-15.616-22.272H753.61l23.937 33.28-24.832 34.304h16.512l16.512-23.68 16.64 23.68h16.895zM172.374 344.448v-14.72h-16.64v14.72zm-16 10.368V422.4q0 4.48-2.048 6.272-1.92 1.92-5.248 1.92-2.048 0-4.352-.384v12.416q1.792.256 3.456.384 1.792.256 3.968.256 9.6 0 14.592-4.864 5.12-4.736 5.12-15.104v-68.48zM236.394 392.96q0 7.936-4.224 12.416-4.224 4.352-11.008 4.352-6.912 0-10.752-4.224-3.712-4.352-3.712-12.288v-38.4H191.21v43.008q0 11.904 6.272 18.944 6.272 7.04 17.792 7.04 7.808 0 12.8-3.456 4.992-3.584 8.32-8.448V422.4h15.488v-67.584h-15.488zM327.42 365.312q-2.688-5.376-7.808-8.576-4.992-3.328-12.288-3.328-3.84 0-7.04 1.024-3.072.896-5.632 2.56-2.432 1.664-4.352 3.712-1.92 2.048-3.584 4.352v-10.24h-15.488V422.4h15.488v-38.016q0-7.936 3.968-12.416t10.496-4.48q6.528 0 10.112 4.224 3.584 4.224 3.584 12.16V422.4h15.488v-38.144q0-8.192 3.968-12.416 4.096-4.352 10.496-4.352 6.528 0 10.112 4.224 3.584 4.224 3.584 12.288v38.4h15.488v-43.136q0-12.416-6.272-19.072-6.272-6.784-17.408-6.784-7.68 0-13.312 3.328-5.504 3.2-9.6 8.576zM462.616 388.608q0-8.448-2.688-14.976-2.688-6.528-7.168-11.008-4.352-4.608-9.984-6.912-5.632-2.304-11.648-2.304-8.192 0-13.696 3.712-5.504 3.584-9.216 8.96v-11.264h-15.488v88.064h15.488v-30.976q3.584 4.736 9.088 8.32 5.504 3.584 13.824 3.584 6.016 0 11.648-2.304 5.76-2.304 10.112-6.784 4.48-4.608 7.04-11.136 2.688-6.528 2.688-14.976zm-15.744 0q0 4.992-1.536 9.088-1.536 3.968-4.224 6.784-2.56 2.816-6.144 4.352-3.456 1.536-7.424 1.536-3.968 0-7.552-1.536-3.584-1.536-6.272-4.352-2.688-2.944-4.352-6.912-1.536-3.968-1.536-8.96 0-4.992 1.536-8.96 1.664-3.968 4.352-6.784 2.688-2.944 6.272-4.48 3.584-1.536 7.552-1.536 3.968 0 7.424 1.536 3.584 1.536 6.144 4.352 2.688 2.816 4.224 6.912 1.536 3.968 1.536 8.96zM526.734 402.432v-.256q0-4.608-1.92-7.808t-4.992-5.376q-2.944-2.304-6.656-3.84-3.712-1.536-7.424-2.688-2.944-.896-5.76-1.792-2.688-1.024-4.864-2.048-2.048-1.152-3.328-2.432-1.28-1.408-1.28-3.2v-.256q0-2.944 2.432-4.864 2.56-1.92 7.04-1.92 4.224 0 9.216 1.792 4.992 1.664 9.856 4.608l6.144-11.008q-5.376-3.584-11.904-5.632-6.528-2.048-12.928-2.048-4.992 0-9.472 1.408-4.352 1.408-7.68 4.096-3.2 2.688-5.12 6.528-1.792 3.84-1.792 8.576v.256q0 4.864 1.92 8.192 1.92 3.2 4.864 5.504 3.072 2.176 6.784 3.584 3.84 1.408 7.552 2.56 2.944.896 5.632 1.792 2.816.768 4.864 1.92 2.176 1.024 3.328 2.432 1.28 1.408 1.28 3.328v.256q0 3.328-2.816 5.376-2.688 1.92-7.68 1.92-5.248 0-11.008-2.048-5.632-2.176-11.136-6.272l-6.912 10.496q6.4 4.992 13.824 7.552 7.552 2.56 14.848 2.56 5.248 0 9.856-1.28 4.608-1.408 7.936-3.968 3.456-2.688 5.376-6.656 1.92-3.968 1.92-9.344zM649.33 388.608q0-7.296-2.688-13.696-2.688-6.4-7.552-11.136-4.736-4.864-11.392-7.552-6.528-2.816-14.336-2.816-7.808 0-14.464 2.816-6.528 2.816-11.392 7.68-4.736 4.736-7.552 11.264-2.688 6.4-2.688 13.696 0 7.296 2.688 13.696 2.688 6.272 7.424 11.136 4.864 4.736 11.392 7.552 6.656 2.688 14.336 2.688 7.808 0 14.464-2.816 6.656-2.816 11.392-7.552 4.864-4.864 7.552-11.264 2.816-6.4 2.816-13.696zm-15.488.256q0 4.48-1.408 8.448-1.408 3.84-4.096 6.784t-6.528 4.736q-3.712 1.664-8.448 1.664-4.48 0-8.32-1.664-3.712-1.792-6.528-4.736-2.688-2.944-4.224-6.912-1.536-4.096-1.536-8.576t1.408-8.32q1.408-3.968 4.096-6.912t6.4-4.608q3.84-1.792 8.448-1.792 4.608 0 8.32 1.792 3.84 1.664 6.528 4.736 2.816 2.944 4.352 6.912 1.536 3.968 1.536 8.448zM689.77 404.48l-18.177-49.664h-16.64l27.776 68.096h13.95l27.65-68.096h-16.257zM745.63 394.112h49.663q.128-1.152.128-2.176.13-1.024.13-2.048 0-7.296-2.05-13.952-2.047-6.656-6.143-11.648-3.968-4.992-10.112-7.936-6.016-2.944-14.08-2.944-7.296 0-13.312 2.816-6.016 2.816-10.496 7.68-4.352 4.736-6.784 11.136-2.432 6.4-2.432 13.696 0 7.936 2.69 14.464 2.687 6.4 7.295 11.008 4.736 4.608 11.008 7.168 6.4 2.56 13.696 2.56 9.343 0 16-3.456 6.783-3.456 11.647-9.216l-9.088-8.064q-4.097 3.968-8.32 6.016-4.225 2.048-9.985 2.048-7.552 0-12.8-4.352-5.248-4.48-6.656-12.8zm-.13-10.24q1.025-7.936 5.633-12.8 4.736-4.992 11.904-4.992 3.84 0 6.784 1.408 3.073 1.408 5.25 3.84 2.175 2.304 3.455 5.632 1.28 3.2 1.664 6.912zM826.716 396.672q0-6.656 1.664-11.648 1.664-5.12 4.736-8.448 3.072-3.328 7.296-4.992 4.224-1.664 9.344-1.664h.896v-16.384q-8.96-.384-14.848 4.224-5.888 4.608-9.088 12.288v-15.232h-15.488V422.4h15.488zM110.54 508.928h18.177v-13.312H110.54v-18.56H95.054v18.56h-8.576v13.312h8.576v35.584q0 5.632 1.408 9.472 1.41 3.712 3.97 6.016 2.687 2.304 6.27 3.328 3.585 1.024 7.81 1.024 4.35 0 7.68-.896 3.327-.896 6.27-2.56v-12.672q-4.607 2.304-9.6 2.304-3.967 0-6.143-1.92-2.176-2.048-2.176-6.528zM159.84 525.056q0-7.936 4.225-12.288 4.224-4.48 11.008-4.48 6.912 0 10.624 4.352 3.84 4.224 3.84 12.16v38.4h15.488v-43.008q0-11.904-6.272-18.944-6.272-7.04-17.792-7.04-3.967 0-7.167 1.024-3.072.896-5.76 2.56-2.56 1.664-4.608 3.84-1.92 2.048-3.584 4.48V469.76h-15.487v93.44h15.488zM235.38 534.912h49.663q.128-1.152.128-2.176.13-1.024.13-2.048 0-7.296-2.05-13.952-2.047-6.656-6.143-11.648-3.968-4.992-10.112-7.936-6.016-2.944-14.08-2.944-7.296 0-13.312 2.816-6.016 2.816-10.496 7.68-4.352 4.736-6.784 11.136-2.432 6.4-2.432 13.696 0 7.936 2.69 14.464 2.687 6.4 7.295 11.008 4.736 4.608 11.008 7.168 6.4 2.56 13.696 2.56 9.343 0 16-3.456 6.783-3.456 11.647-9.216L273.14 544q-4.097 3.968-8.32 6.016-4.225 2.048-9.985 2.048-7.552 0-12.8-4.352-5.248-4.48-6.656-12.8zm-.13-10.24q1.025-7.936 5.633-12.8 4.736-4.992 11.904-4.992 3.84 0 6.784 1.408 3.073 1.408 5.25 3.84 2.175 2.304 3.455 5.632 1.28 3.2 1.664 6.912zM355.737 563.2v-93.44H340.25v93.44zM432.557 563.2v-40.064q0-13.568-7.296-20.992-7.295-7.552-22.4-7.552-8.32 0-14.207 1.536-5.888 1.536-11.52 4.096l4.224 12.416q4.608-1.92 9.088-3.072 4.48-1.152 10.24-1.152 8.064 0 12.288 3.712 4.352 3.712 4.352 10.752v1.664q-3.968-1.28-8.32-2.048-4.224-.768-10.368-.768-5.888 0-11.008 1.408-4.993 1.28-8.705 3.968-3.584 2.688-5.632 6.784-2.048 4.096-2.048 9.6v.256q0 5.12 1.92 9.088 2.048 3.84 5.248 6.528 3.328 2.56 7.68 3.84 4.352 1.408 9.216 1.408 7.68 0 13.055-2.816 5.376-2.816 8.832-6.912v8.32zm-14.976-24.448q0 3.2-1.407 5.888-1.28 2.56-3.712 4.48-2.43 1.792-5.76 2.816-3.2 1.024-7.04 1.024-5.503 0-9.343-2.56-3.712-2.56-3.712-7.424v-.256q0-5.248 4.096-8.064 4.097-2.816 11.393-2.816 4.48 0 8.448.768 4.097.768 7.04 1.92zM487.07 508.288l-39.04 44.288V563.2h58.753v-12.672h-39.04l39.04-44.288v-10.624H449.44v12.672zM585.83 495.616H569.7l-17.535 50.176-19.2-50.176h-16.512l28.16 67.584q-1.92 4.48-4.096 6.144-2.176 1.664-5.504 1.664-2.432 0-4.736-.768-2.176-.64-4.352-1.792l-5.248 11.52q3.584 1.92 7.296 2.944 3.84 1.152 8.704 1.152 4.096 0 7.296-1.024t5.888-3.328q2.69-2.176 4.865-5.76 2.176-3.584 4.224-8.832zM704.035 563.2v-93.44h-15.488v36.352q-3.712-4.736-9.216-8.32-5.503-3.584-13.823-3.584-6.016 0-11.776 2.304-5.63 2.304-9.983 6.912-4.352 4.48-7.04 11.008-2.56 6.528-2.56 14.976t2.688 14.976q2.688 6.528 7.04 11.136 4.352 4.48 9.984 6.784 5.63 2.304 11.647 2.304 8.192 0 13.696-3.712 5.632-3.712 9.344-8.96V563.2zm-15.232-33.792q0 4.992-1.664 8.96-1.537 3.968-4.225 6.912-2.688 2.816-6.272 4.352-3.584 1.536-7.424 1.536-3.97 0-7.553-1.536-3.456-1.536-6.144-4.352-2.688-2.816-4.224-6.784-1.537-4.096-1.537-9.088 0-5.12 1.536-9.088 1.535-4.096 4.223-6.912 2.688-2.816 6.144-4.224 3.584-1.536 7.552-1.536 3.84 0 7.423 1.536 3.584 1.536 6.272 4.48 2.688 2.816 4.224 6.784 1.663 3.968 1.663 8.96zM791.705 529.408q0-7.296-2.688-13.696-2.688-6.4-7.552-11.136-4.736-4.864-11.392-7.552-6.528-2.816-14.336-2.816-7.808 0-14.464 2.816-6.528 2.816-11.392 7.68-4.735 4.736-7.55 11.264-2.69 6.4-2.69 13.696 0 7.296 2.69 13.696 2.687 6.272 7.423 11.136 4.864 4.736 11.392 7.552 6.656 2.688 14.336 2.688 7.81 0 14.465-2.816 6.656-2.816 11.392-7.552 4.864-4.864 7.552-11.264 2.815-6.4 2.815-13.696zm-15.488.256q0 4.48-1.408 8.448-1.41 3.84-4.097 6.784-2.688 2.944-6.528 4.736-3.712 1.664-8.448 1.664-4.48 0-8.32-1.664-3.712-1.792-6.528-4.736-2.69-2.944-4.225-6.912-1.536-4.096-1.536-8.576t1.407-8.32q1.408-3.968 4.096-6.912t6.4-4.608q3.84-1.792 8.448-1.792 4.61 0 8.32 1.792 3.84 1.664 6.53 4.736 2.815 2.944 4.35 6.912 1.537 3.968 1.537 8.448zM873.785 549.376v-53.76h-15.488v10.112q-3.968-4.736-9.6-8.064-5.504-3.456-14.08-3.456-5.888 0-11.52 2.176-5.504 2.176-9.856 6.272-4.223 4.096-6.783 9.984-2.56 5.888-2.56 13.44t2.56 13.44q2.56 5.888 6.784 9.984 4.353 4.096 9.857 6.272 5.504 2.048 11.52 2.048 8.32 0 13.952-3.456 5.63-3.456 9.855-8.96v5.248q0 10.24-5.504 15.488-5.503 5.248-15.87 5.248-6.913 0-12.8-1.92-5.89-1.92-11.265-5.248l-5.76 11.648q13.312 8.064 30.208 8.064 17.408 0 26.88-8.32 9.472-8.32 9.472-26.24zm-15.232-23.296q0 4.224-1.664 7.68-1.537 3.328-4.225 5.888-2.688 2.432-6.4 3.84-3.584 1.28-7.552 1.28-3.968 0-7.552-1.28-3.455-1.408-6.015-3.84-2.56-2.56-4.096-6.016-1.537-3.456-1.537-7.68t1.408-7.68q1.537-3.456 4.097-5.888 2.688-2.432 6.144-3.712 3.457-1.408 7.553-1.408 3.968 0 7.552 1.408 3.712 1.28 6.4 3.712 2.688 2.432 4.224 6.016 1.663 3.456 1.663 7.68zM909.103 563.2v-17.536H892.08V563.2z"/></g></svg>