<svg xmlns="http://www.w3.org/2000/svg" viewBox="0 0 1600 1000" height="1000" width="1600"><path fill="#fff" d="M0 0h1600v1000H0z"/><g font-weight="400" font-size="200" font-family="Gotham" letter-spacing="-.03em" text-anchor="middle" fill="#222"><path d="M414.747 102.8h44.4V80h-113.6v22.8h44.4V220h24.8zM499.658 160.4q0-12.4 6.6-19.2 6.6-7 17.2-7 10.8 0 16.6 6.8 6 6.6 6 19v60h24.2v-67.2q0-18.6-9.8-29.6t-27.8-11q-6.2 0-11.2 1.6-4.8 1.4-9 4-4 2.6-7.2 6-3 3.2-5.6 7V74h-24.2v146h24.2zM611.88 175.8h77.6q.2-1.8.2-3.4.2-1.6.2-3.2 0-11.4-3.2-21.8t-9.6-18.2q-6.2-7.8-15.8-12.4-9.4-4.6-22-4.6-11.4 0-20.8 4.4t-16.4 12q-6.8 7.4-10.6 17.4-3.8 10-3.8 21.4 0 12.4 4.2 22.6 4.2 10 11.4 17.2 7.4 7.2 17.2 11.2 10 4 21.4 4 14.6 0 25-5.4 10.6-5.4 18.2-14.4l-14.2-12.6q-6.4 6.2-13 9.4t-15.6 3.2q-11.8 0-20-6.8-8.2-7-10.4-20zm-.2-16q1.6-12.4 8.8-20 7.4-7.8 18.6-7.8 6 0 10.6 2.2 4.8 2.2 8.2 6 3.4 3.6 5.4 8.8 2 5 2.6 10.8zM866.14 252V114.4h-24.2v16.4q-5.8-7.4-14.4-13-8.6-5.6-21.6-5.6-9.4 0-18.4 3.6-8.8 3.6-15.6 10.8-6.8 7-11 17.2-4 10.2-4 23.4t4.2 23.4q4.2 10.2 11 17.4 6.8 7 15.6 10.6 8.8 3.6 18.2 3.6 12.8 0 21.4-5.8 8.8-5.8 14.6-14V252zm-23.8-84.8q0 7.8-2.6 14-2.4 6.2-6.6 10.8-4.2 4.4-9.8 6.8-5.6 2.4-11.6 2.4-6.2 0-11.8-2.4-5.4-2.4-9.6-6.8-4.2-4.4-6.6-10.6-2.4-6.4-2.4-14.2 0-8 2.4-14.2 2.4-6.4 6.6-10.8 4.2-4.4 9.6-6.6 5.6-2.4 11.8-2.4 6 0 11.6 2.4t9.8 7q4.2 4.4 6.6 10.6 2.6 6.2 2.6 14zM959.725 174q0 12.4-6.6 19.4-6.6 6.8-17.2 6.8-10.8 0-16.8-6.6-5.8-6.8-5.8-19.2v-60h-24.2v67.2q0 18.6 9.8 29.6t27.8 11q12.2 0 20-5.4 7.8-5.6 13-13.2V220h24.2V114.4h-24.2zM1034.553 98.2v-23h-26v23zm-.8 121.8V114.4h-24.2V220zM1151.184 202.6l-14.6-14.4q-5.8 5.8-12.4 9.6-6.4 3.6-15 3.6-7 0-12.8-2.6-5.8-2.8-10-7.4-4.2-4.6-6.6-10.8-2.2-6.2-2.2-13.4 0-7 2.2-13 2.4-6.2 6.4-10.8 4-4.6 9.6-7.2 5.6-2.8 12.2-2.8 9.2 0 15.4 3.8 6.4 3.6 12 9.4l15-16.2q-7.4-8.2-17.4-13.2-9.8-5-24.8-5-11.8 0-22 4.4-10 4.4-17.4 12-7.2 7.6-11.4 17.6-4 10-4 21.4 0 11.4 4 21.4 4.2 9.8 11.4 17.4 7.4 7.4 17.4 11.8 10 4.2 21.8 4.2 15.4 0 25.4-5.4 10-5.6 17.8-14.4zM1222.647 157.4l42-43h-29.4l-43.8 46.8V74h-24.2v146h24.2v-30.2l14.8-15.4 31.8 45.6h28zM446.517 387.2q0-13.2-4.2-23.4t-11.2-17.2q-6.8-7.2-15.6-10.8-8.8-3.6-18.2-3.6-12.8 0-21.4 5.8-8.6 5.6-14.4 14v-58h-24.2v146h24.2v-16.4q5.6 7.4 14.2 13t21.6 5.6q9.4 0 18.2-3.6 9-3.6 15.8-10.6 7-7.2 11-17.4 4.2-10.2 4.2-23.4zm-24.6 0q0 7.8-2.4 14.2-2.4 6.2-6.6 10.6-4 4.4-9.6 6.8-5.4 2.4-11.6 2.4-6.2 0-11.8-2.4-5.6-2.4-9.8-6.8-4.2-4.6-6.8-10.8-2.4-6.2-2.4-14t2.4-14q2.6-6.2 6.8-10.6 4.2-4.6 9.8-7 5.6-2.4 11.8-2.4 6.2 0 11.6 2.4 5.6 2.4 9.6 6.8 4.2 4.4 6.6 10.8 2.4 6.2 2.4 14zM489.502 399.8q0-10.4 2.6-18.2 2.6-8 7.4-13.2 4.8-5.2 11.4-7.8 6.6-2.6 14.6-2.6h1.4v-25.6q-14-.6-23.2 6.6-9.2 7.2-14.2 19.2v-23.8h-24.2V440h24.2zM645.203 387.2q0-11.4-4.2-21.4-4.2-10-11.8-17.4-7.4-7.6-17.8-11.8-10.2-4.4-22.4-4.4t-22.6 4.4q-10.2 4.4-17.8 12-7.4 7.4-11.8 17.6-4.2 10-4.2 21.4 0 11.4 4.2 21.4 4.2 9.8 11.6 17.4 7.6 7.4 17.8 11.8 10.4 4.2 22.4 4.2 12.2 0 22.6-4.4 10.4-4.4 17.8-11.8 7.6-7.6 11.8-17.6 4.4-10 4.4-21.4zm-24.2.4q0 7-2.2 13.2-2.2 6-6.4 10.6t-10.2 7.4q-5.8 2.6-13.2 2.6-7 0-13-2.6-5.8-2.8-10.2-7.4-4.2-4.6-6.6-10.8-2.4-6.4-2.4-13.4t2.2-13q2.2-6.2 6.4-10.8 4.2-4.6 10-7.2 6-2.8 13.2-2.8 7.2 0 13 2.8 6 2.6 10.2 7.4 4.4 4.6 6.8 10.8 2.4 6.2 2.4 13.2zM739.775 334h-20.6l-23.4 72.8-21.2-72.4h-24.8l34.2 106.4h21.6l23.8-72.2 23.6 72.2h21.6l34.6-106.4h-24.2l-21.6 72.4zM849.236 380.4q0-12.4 6.6-19.2 6.6-7 17.2-7 10.8 0 16.6 6.8 6 6.6 6 19v60h24.2v-67.2q0-18.6-9.8-29.6t-27.8-11q-6.2 0-11.2 1.6-4.8 1.4-9 4-4 2.6-7.2 6-3 3.2-5.6 7v-16.4h-24.2V440h24.2zM1026.22 335.2v-5.8q0-16 14-16 4 0 7.2.8 3.4.6 7 1.8v-20.4q-4-1.2-8.6-2t-11-.8q-15.6 0-24 8.6-8.4 8.4-8.4 26v7.6h-13.4v20.2h13.4V440h24.2v-84.8h27.6v-20zM1171.453 387.2q0-11.4-4.2-21.4-4.2-10-11.8-17.4-7.4-7.6-17.8-11.8-10.2-4.4-22.4-4.4t-22.6 4.4q-10.2 4.4-17.8 12-7.4 7.4-11.8 17.6-4.2 10-4.2 21.4 0 11.4 4.2 21.4 4.2 9.8 11.6 17.4 7.6 7.4 17.8 11.8 10.4 4.2 22.4 4.2 12.2 0 22.6-4.4 10.4-4.4 17.8-11.8 7.6-7.6 11.8-17.6 4.4-10 4.4-21.4zm-24.2.4q0 7-2.2 13.2-2.2 6-6.4 10.6t-10.2 7.4q-5.8 2.6-13.2 2.6-7 0-13-2.6-5.8-2.8-10.2-7.4-4.2-4.6-6.6-10.8-2.4-6.4-2.4-13.4t2.2-13q2.2-6.2 6.4-10.8 4.2-4.6 10-7.2 6-2.8 13.2-2.8 7.2 0 13 2.8 6 2.6 10.2 7.4 4.4 4.6 6.8 10.8 2.4 6.2 2.4 13.2zM1238.867 385.8l37.4-51.4h-25.8l-24.4 34.8-24.4-34.8h-26.4l37.4 52-38.8 53.6h25.8l25.8-37 26 37h26.4zM318.084 538.2v-23h-26v23zm-25 16.2V660q0 7-3.2 9.8-3 3-8.2 3-3.2 0-6.8-.6v19.4q2.8.4 5.4.6 2.8.4 6.2.4 15 0 22.8-7.6 8-7.4 8-23.6v-107zM412.116 614q0 12.4-6.6 19.4-6.6 6.8-17.2 6.8-10.8 0-16.8-6.6-5.8-6.8-5.8-19.2v-60h-24.2v67.2q0 18.6 9.8 29.6t27.8 11q12.2 0 20-5.4 7.8-5.6 13-13.2V660h24.2V554.4h-24.2zM548.344 570.8q-4.2-8.4-12.2-13.4-7.8-5.2-19.2-5.2-6 0-11 1.6-4.8 1.4-8.8 4-3.8 2.6-6.8 5.8-3 3.2-5.6 6.8v-16h-24.2V660h24.2v-59.4q0-12.4 6.2-19.4 6.2-7 16.4-7t15.8 6.6q5.6 6.6 5.6 19V660h24.2v-59.6q0-12.8 6.2-19.4 6.4-6.8 16.4-6.8 10.2 0 15.8 6.6 5.6 6.6 5.6 19.2v60h24.2v-67.4q0-19.4-9.8-29.8-9.8-10.6-27.2-10.6-12 0-20.8 5.2-8.6 5-15 13.4zM753.587 607.2q0-13.2-4.2-23.4t-11.2-17.2q-6.8-7.2-15.6-10.8-8.8-3.6-18.2-3.6-12.8 0-21.4 5.8-8.6 5.6-14.4 14v-17.6h-24.2V692h24.2v-48.4q5.6 7.4 14.2 13t21.6 5.6q9.4 0 18.2-3.6 9-3.6 15.8-10.6 7-7.2 11-17.4 4.2-10.2 4.2-23.4zm-24.6 0q0 7.8-2.4 14.2-2.4 6.2-6.6 10.6-4 4.4-9.6 6.8-5.4 2.4-11.6 2.4-6.2 0-11.8-2.4-5.6-2.4-9.8-6.8-4.2-4.6-6.8-10.8-2.4-6.2-2.4-14t2.4-14q2.6-6.2 6.8-10.6 4.2-4.6 9.8-7 5.6-2.4 11.8-2.4 6.2 0 11.6 2.4 5.6 2.4 9.6 6.8 4.2 4.4 6.6 10.8 2.4 6.2 2.4 14zM847.772 628.8v-.4q0-7.2-3-12.2-3-5-7.8-8.4-4.6-3.6-10.4-6-5.8-2.4-11.6-4.2-4.6-1.4-9-2.8-4.2-1.6-7.6-3.2-3.2-1.8-5.2-3.8-2-2.2-2-5v-.4q0-4.6 3.8-7.6 4-3 11-3 6.6 0 14.4 2.8 7.8 2.6 15.4 7.2l9.6-17.2q-8.4-5.6-18.6-8.8-10.2-3.2-20.2-3.2-7.8 0-14.8 2.2-6.8 2.2-12 6.4-5 4.2-8 10.2-2.8 6-2.8 13.4v.4q0 7.6 3 12.8 3 5 7.6 8.6 4.8 3.4 10.6 5.6 6 2.2 11.8 4 4.6 1.4 8.8 2.8 4.4 1.2 7.6 3 3.4 1.6 5.2 3.8 2 2.2 2 5.2v.4q0 5.2-4.4 8.4-4.2 3-12 3-8.2 0-17.2-3.2-8.8-3.4-17.4-9.8l-10.8 16.4q10 7.8 21.6 11.8 11.8 4 23.2 4 8.2 0 15.4-2 7.2-2.2 12.4-6.2 5.4-4.2 8.4-10.4t3-14.6zM1027.328 607.2q0-11.4-4.2-21.4-4.2-10-11.8-17.4-7.4-7.6-17.8-11.8-10.2-4.4-22.4-4.4t-22.6 4.4q-10.2 4.4-17.8 12-7.4 7.4-11.8 17.6-4.2 10-4.2 21.4 0 11.4 4.2 21.4 4.2 9.8 11.6 17.4 7.6 7.4 17.8 11.8 10.4 4.2 22.4 4.2 12.2 0 22.6-4.4 10.4-4.4 17.8-11.8 7.6-7.6 11.8-17.6 4.4-10 4.4-21.4zm-24.2.4q0 7-2.2 13.2-2.2 6-6.4 10.6t-10.2 7.4q-5.8 2.6-13.2 2.6-7 0-13-2.6-5.8-2.8-10.2-7.4-4.2-4.6-6.6-10.8-2.4-6.4-2.4-13.4t2.2-13q2.2-6.2 6.4-10.8 4.2-4.6 10-7.2 6-2.8 13.2-2.8 7.2 0 13 2.8 6 2.6 10.2 7.4 4.4 4.6 6.8 10.8 2.4 6.2 2.4 13.2zM1084.514 632l-28.4-77.6h-26l43.4 106.4h21.8l43.2-106.4h-25.4zM1165.795 615.8h77.6q.2-1.8.2-3.4.2-1.6.2-3.2 0-11.4-3.2-21.8t-9.6-18.2q-6.2-7.8-15.8-12.4-9.4-4.6-22-4.6-11.4 0-20.8 4.4t-16.4 12q-6.8 7.4-10.6 17.4-3.8 10-3.8 21.4 0 12.4 4.2 22.6 4.2 10 11.4 17.2 7.4 7.2 17.2 11.2 10 4 21.4 4 14.6 0 25-5.4 10.6-5.4 18.2-14.4l-14.2-12.6q-6.4 6.2-13 9.4t-15.6 3.2q-11.8 0-20-6.8-8.2-7-10.4-20zm-.2-16q1.6-12.4 8.8-20 7.4-7.8 18.6-7.8 6 0 10.6 2.2 4.8 2.2 8.2 6 3.4 3.6 5.4 8.8 2 5 2.6 10.8zM1286.494 619.8q0-10.4 2.6-18.2 2.6-8 7.4-13.2 4.8-5.2 11.4-7.8 6.6-2.6 14.6-2.6h1.4v-25.6q-14-.6-23.2 6.6-9.2 7.2-14.2 19.2v-23.8h-24.2V660h24.2zM227.47 795.2h28.4v-20.8h-28.4v-29h-24.2v29h-13.4v20.8h13.4v55.6q0 8.8 2.2 14.8 2.2 5.8 6.2 9.4 4.2 3.6 9.8 5.2 5.6 1.6 12.2 1.6 6.8 0 12-1.4t9.8-4v-19.8q-7.2 3.6-15 3.6-6.2 0-9.6-3-3.4-3.2-3.4-10.2zM298.502 820.4q0-12.4 6.6-19.2 6.6-7 17.2-7 10.8 0 16.6 6.8 6 6.6 6 19v60h24.2v-67.2q0-18.6-9.8-29.6t-27.8-11q-6.2 0-11.2 1.6-4.8 1.4-9 4-4 2.6-7.2 6-3 3.2-5.6 7V734h-24.2v146h24.2zM410.53 835.8h77.6q.2-1.8.2-3.4.2-1.6.2-3.2 0-11.4-3.2-21.8t-9.6-18.2q-6.2-7.8-15.8-12.4-9.4-4.6-22-4.6-11.4 0-20.8 4.4t-16.4 12q-6.8 7.4-10.6 17.4-3.8 10-3.8 21.4 0 12.4 4.2 22.6 4.2 10 11.4 17.2 7.4 7.2 17.2 11.2 10 4 21.4 4 14.6 0 25-5.4 10.6-5.4 18.2-14.4l-14.2-12.6q-6.4 6.2-13 9.4t-15.6 3.2q-11.8 0-20-6.8-8.2-7-10.4-20zm-.2-16q1.6-12.4 8.8-20 7.4-7.8 18.6-7.8 6 0 10.6 2.2 4.8 2.2 8.2 6 3.4 3.6 5.4 8.8 2 5 2.6 10.8zM586.59 880V734h-24.2v146zM700.62 880v-62.6q0-21.2-11.4-32.8-11.4-11.8-35-11.8-13 0-22.2 2.4t-18 6.4l6.6 19.4q7.2-3 14.2-4.8 7-1.8 16-1.8 12.6 0 19.2 5.8 6.8 5.8 6.8 16.8v2.6q-6.2-2-13-3.2-6.6-1.2-16.2-1.2-9.2 0-17.2 2.2-7.8 2-13.6 6.2-5.6 4.2-8.8 10.6-3.2 6.4-3.2 15v.4q0 8 3 14.2 3.2 6 8.2 10.2 5.2 4 12 6 6.8 2.2 14.4 2.2 12 0 20.4-4.4 8.4-4.4 13.8-10.8v13zm-23.4-38.2q0 5-2.2 9.2-2 4-5.8 7-3.8 2.8-9 4.4-5 1.6-11 1.6-8.6 0-14.6-4-5.8-4-5.8-11.6v-.4q0-8.2 6.4-12.6t17.8-4.4q7 0 13.2 1.2 6.4 1.2 11 3zM779.798 794.2l-61 69.2V880h91.8v-19.8h-61l61-69.2v-16.6h-89.6v19.8zM928.108 774.4h-25.2l-27.4 78.4-30-78.4h-25.8l44 105.6q-3 7-6.4 9.6-3.4 2.6-8.6 2.6-3.8 0-7.4-1.2-3.4-1-6.8-2.8l-8.2 18q5.6 3 11.4 4.6 6 1.8 13.6 1.8 6.4 0 11.4-1.6t9.2-5.2q4.2-3.4 7.6-9 3.4-5.6 6.6-13.8zM1100.805 880V734h-24.2v56.8q-5.8-7.4-14.4-13-8.6-5.6-21.6-5.6-9.4 0-18.4 3.6-8.8 3.6-15.6 10.8-6.8 7-11 17.2-4 10.2-4 23.4t4.2 23.4q4.2 10.2 11 17.4 6.8 7 15.6 10.6 8.8 3.6 18.2 3.6 12.8 0 21.4-5.8 8.8-5.8 14.6-14V880zm-23.8-52.8q0 7.8-2.6 14-2.4 6.2-6.6 10.8-4.2 4.4-9.8 6.8-5.6 2.4-11.6 2.4-6.2 0-11.8-2.4-5.4-2.4-9.6-6.8-4.2-4.4-6.6-10.6-2.4-6.4-2.4-14.2 0-8 2.4-14.2 2.4-6.4 6.6-10.8 4.2-4.4 9.6-6.6 5.6-2.4 11.8-2.4 6 0 11.6 2.4t9.8 7q4.2 4.4 6.6 10.6 2.6 6.2 2.6 14zM1231.79 827.2q0-11.4-4.2-21.4-4.2-10-11.8-17.4-7.4-7.6-17.8-11.8-10.2-4.4-22.4-4.4t-22.6 4.4q-10.2 4.4-17.8 12-7.4 7.4-11.8 17.6-4.2 10-4.2 21.4 0 11.4 4.2 21.4 4.2 9.8 11.6 17.4 7.6 7.4 17.8 11.8 10.4 4.2 22.4 4.2 12.2 0 22.6-4.4 10.4-4.4 17.8-11.8 7.6-7.6 11.8-17.6 4.4-10 4.4-21.4zm-24.2.4q0 7-2.2 13.2-2.2 6-6.4 10.6t-10.2 7.4q-5.8 2.6-13.2 2.6-7 0-13-2.6-5.8-2.8-10.2-7.4-4.2-4.6-6.6-10.8-2.4-6.4-2.4-13.4t2.2-13q2.2-6.2 6.4-10.8 4.2-4.6 10-7.2 6-2.8 13.2-2.8 7.2 0 13 2.8 6 2.6 10.2 7.4 4.4 4.6 6.8 10.8 2.4 6.2 2.4 13.2zM1354.04 858.4v-84h-24.2v15.8q-6.2-7.4-15-12.6-8.6-5.4-22-5.4-9.2 0-18 3.4-8.6 3.4-15.4 9.8-6.6 6.4-10.6 15.6t-4 21q0 11.8 4 21t10.6 15.6q6.8 6.4 15.4 9.8 8.6 3.2 18 3.2 13 0 21.8-5.4t15.4-14v8.2q0 16-8.6 24.2t-24.8 8.2q-10.8 0-20-3t-17.6-8.2l-9 18.2q20.8 12.6 47.2 12.6 27.2 0 42-13t14.8-41zm-23.8-36.4q0 6.6-2.6 12-2.4 5.2-6.6 9.2-4.2 3.8-10 6-5.6 2-11.8 2-6.2 0-11.8-2-5.4-2.2-9.4-6-4-4-6.4-9.4-2.4-5.4-2.4-12t2.2-12q2.4-5.4 6.4-9.2 4.2-3.8 9.6-5.8 5.4-2.2 11.8-2.2 6.2 0 11.8 2.2 5.8 2 10 5.8t6.6 9.4q2.6 5.4 2.6 12zM1403.223 880v-27.4h-26.6V880z"/></g></svg>