<svg xmlns="http://www.w3.org/2000/svg" viewBox="0 0 800 500"><path fill="#fff" d="M0 0h800v500H0z"/><g font-weight="400" font-size="100" font-family="Gotham" text-anchor="middle" fill="#111"><path d="M193.873 51.4h22.2V40h-56.8v11.4h22.2V110h12.4zM239.33 80.2q0-6.2 3.3-9.6 3.3-3.5 8.6-3.5 5.4 0 8.3 3.4 3 3.3 3 9.5v30h12.1V76.4q0-9.3-4.9-14.8t-13.9-5.5q-3.1 0-5.6.8-2.4.7-4.5 2-2 1.3-3.6 3-1.5 1.6-2.8 3.5V37h-12.1v73h12.1zM298.44 87.9h38.8q.1-.9.1-1.7.1-.8.1-1.6 0-5.7-1.6-10.9t-4.8-9.1q-3.1-3.9-7.9-6.2-4.7-2.3-11-2.3-5.7 0-10.4 2.2t-8.2 6q-3.4 3.7-5.3 8.7-1.9 5-1.9 10.7 0 6.2 2.1 11.3 2.1 5 5.7 8.6 3.7 3.6 8.6 5.6 5 2 10.7 2 7.3 0 12.5-2.7 5.3-2.7 9.1-7.2l-7.1-6.3q-3.2 3.1-6.5 4.7t-7.8 1.6q-5.9 0-10-3.4-4.1-3.5-5.2-10zm-.1-8q.8-6.2 4.4-10 3.7-3.9 9.3-3.9 3 0 5.3 1.1 2.4 1.1 4.1 3 1.7 1.8 2.7 4.4 1 2.5 1.3 5.4zM431.57 126V57.2h-12.1v8.2q-2.9-3.7-7.2-6.5-4.3-2.8-10.8-2.8-4.7 0-9.2 1.8-4.4 1.8-7.8 5.4-3.4 3.5-5.5 8.6-2 5.1-2 11.7t2.1 11.7q2.1 5.1 5.5 8.7 3.4 3.5 7.8 5.3 4.4 1.8 9.1 1.8 6.4 0 10.7-2.9 4.4-2.9 7.3-7V126zm-11.9-42.4q0 3.9-1.3 7-1.2 3.1-3.3 5.4-2.1 2.2-4.9 3.4-2.8 1.2-5.8 1.2-3.1 0-5.9-1.2-2.7-1.2-4.8-3.4-2.1-2.2-3.3-5.3-1.2-3.2-1.2-7.1 0-4 1.2-7.1 1.2-3.2 3.3-5.4 2.1-2.2 4.8-3.3 2.8-1.2 5.9-1.2 3 0 5.8 1.2t4.9 3.5q2.1 2.2 3.3 5.3 1.3 3.1 1.3 7zM481.363 87q0 6.2-3.3 9.7-3.3 3.4-8.6 3.4-5.4 0-8.4-3.3-2.9-3.4-2.9-9.6v-30h-12.1v33.6q0 9.3 4.9 14.8t13.9 5.5q6.1 0 10-2.7 3.9-2.8 6.5-6.6v8.2h12.1V57.2h-12.1zM521.777 49.1V37.6h-13v11.5zm-.4 60.9V57.2h-12.1V110zM583.092 101.3l-7.3-7.2q-2.9 2.9-6.2 4.8-3.2 1.8-7.5 1.8-3.5 0-6.4-1.3-2.9-1.4-5-3.7-2.1-2.3-3.3-5.4-1.1-3.1-1.1-6.7 0-3.5 1.1-6.5 1.2-3.1 3.2-5.4 2-2.3 4.8-3.6 2.8-1.4 6.1-1.4 4.6 0 7.7 1.9 3.2 1.8 6 4.7l7.5-8.1q-3.7-4.1-8.7-6.6-4.9-2.5-12.4-2.5-5.9 0-11 2.2-5 2.2-8.7 6-3.6 3.8-5.7 8.8-2 5-2 10.7 0 5.7 2 10.7 2.1 4.9 5.7 8.7 3.7 3.7 8.7 5.9 5 2.1 10.9 2.1 7.7 0 12.7-2.7 5-2.8 8.9-7.2zM621.823 78.7l21-21.5h-14.7l-21.9 23.4V37h-12.1v73h12.1V94.9l7.4-7.7 15.9 22.8h14zM209.76 193.6q0-6.6-2.1-11.7t-5.6-8.6q-3.4-3.6-7.8-5.4-4.4-1.8-9.1-1.8-6.4 0-10.7 2.9-4.3 2.8-7.2 7v-29h-12.1v73h12.1v-8.2q2.8 3.7 7.1 6.5t10.8 2.8q4.7 0 9.1-1.8 4.5-1.8 7.9-5.3 3.5-3.6 5.5-8.7 2.1-5.1 2.1-11.7zm-12.3 0q0 3.9-1.2 7.1-1.2 3.1-3.3 5.3-2 2.2-4.8 3.4-2.7 1.2-5.8 1.2-3.1 0-5.9-1.2-2.8-1.2-4.9-3.4-2.1-2.3-3.4-5.4-1.2-3.1-1.2-7t1.2-7q1.3-3.1 3.4-5.3 2.1-2.3 4.9-3.5 2.8-1.2 5.9-1.2 3.1 0 5.8 1.2 2.8 1.2 4.8 3.4 2.1 2.2 3.3 5.4 1.2 3.1 1.2 7zM234.25 199.9q0-5.2 1.3-9.1 1.3-4 3.7-6.6 2.4-2.6 5.7-3.9 3.3-1.3 7.3-1.3h.7v-12.8q-7-.3-11.6 3.3-4.6 3.6-7.1 9.6v-11.9h-12.1V220h12.1zM315.102 193.6q0-5.7-2.1-10.7-2.1-5-5.9-8.7-3.7-3.8-8.9-5.9-5.1-2.2-11.2-2.2t-11.3 2.2q-5.1 2.2-8.9 6-3.7 3.7-5.9 8.8-2.1 5-2.1 10.7 0 5.7 2.1 10.7 2.1 4.9 5.8 8.7 3.8 3.7 8.9 5.9 5.2 2.1 11.2 2.1 6.1 0 11.3-2.2 5.2-2.2 8.9-5.9 3.8-3.8 5.9-8.8 2.2-5 2.2-10.7zm-12.1.2q0 3.5-1.1 6.6-1.1 3-3.2 5.3t-5.1 3.7q-2.9 1.3-6.6 1.3-3.5 0-6.5-1.3-2.9-1.4-5.1-3.7-2.1-2.3-3.3-5.4-1.2-3.2-1.2-6.7t1.1-6.5q1.1-3.1 3.2-5.4 2.1-2.3 5-3.6 3-1.4 6.6-1.4 3.6 0 6.5 1.4 3 1.3 5.1 3.7 2.2 2.3 3.4 5.4 1.2 3.1 1.2 6.6zM365.387 167h-10.3l-11.7 36.4-10.6-36.2h-12.4l17.1 53.2h10.8l11.9-36.1 11.8 36.1h10.8l17.3-53.2h-12.1l-10.8 36.2zM423.118 190.2q0-6.2 3.3-9.6 3.3-3.5 8.6-3.5 5.4 0 8.3 3.4 3 3.3 3 9.5v30h12.1v-33.6q0-9.3-4.9-14.8t-13.9-5.5q-3.1 0-5.6.8-2.4.7-4.5 2-2 1.3-3.6 3-1.5 1.6-2.8 3.5v-8.2h-12.1V220h12.1zM517.61 167.6v-2.9q0-8 7-8 2 0 3.6.4 1.7.3 3.5.9v-10.2q-2-.6-4.3-1t-5.5-.4q-7.8 0-12 4.3-4.2 4.2-4.2 13v3.8h-6.7v10.1h6.7V220h12.1v-42.4h13.8v-10zM593.227 193.6q0-5.7-2.1-10.7-2.1-5-5.9-8.7-3.7-3.8-8.9-5.9-5.1-2.2-11.2-2.2t-11.3 2.2q-5.1 2.2-8.9 6-3.7 3.7-5.9 8.8-2.1 5-2.1 10.7 0 5.7 2.1 10.7 2.1 4.9 5.8 8.7 3.8 3.7 8.9 5.9 5.2 2.1 11.2 2.1 6.1 0 11.3-2.2 5.2-2.2 8.9-5.9 3.8-3.8 5.9-8.8 2.2-5 2.2-10.7zm-12.1.2q0 3.5-1.1 6.6-1.1 3-3.2 5.3t-5.1 3.7q-2.9 1.3-6.6 1.3-3.5 0-6.5-1.3-2.9-1.4-5.1-3.7-2.1-2.3-3.3-5.4-1.2-3.2-1.2-6.7t1.1-6.5q1.1-3.1 3.2-5.4 2.1-2.3 5-3.6 3-1.4 6.6-1.4 3.6 0 6.5 1.4 3 1.3 5.1 3.7 2.2 2.3 3.4 5.4 1.2 3.1 1.2 6.6zM629.934 192.9l18.7-25.7h-12.9l-12.2 17.4-12.2-17.4h-13.2l18.7 26-19.4 26.8h12.9l12.9-18.5 13 18.5h13.2zM144.042 269.1v-11.5h-13v11.5zm-12.5 8.1V330q0 3.5-1.6 4.9-1.5 1.5-4.1 1.5-1.6 0-3.4-.3v9.7q1.4.2 2.7.3 1.4.2 3.1.2 7.5 0 11.4-3.8 4-3.7 4-11.8v-53.5zM194.058 307q0 6.2-3.3 9.7-3.3 3.4-8.6 3.4-5.4 0-8.4-3.3-2.9-3.4-2.9-9.6v-30h-12.1v33.6q0 9.3 4.9 14.8t13.9 5.5q6.1 0 10-2.7 3.9-2.8 6.5-6.6v8.2h12.1v-52.8h-12.1zM265.172 285.4q-2.1-4.2-6.1-6.7-3.9-2.6-9.6-2.6-3 0-5.5.8-2.4.7-4.4 2-1.9 1.3-3.4 2.9-1.5 1.6-2.8 3.4v-8h-12.1V330h12.1v-29.7q0-6.2 3.1-9.7 3.1-3.5 8.2-3.5t7.9 3.3q2.8 3.3 2.8 9.5V330h12.1v-29.8q0-6.4 3.1-9.7 3.2-3.4 8.2-3.4 5.1 0 7.9 3.3 2.8 3.3 2.8 9.6v30h12.1v-33.7q0-9.7-4.9-14.9-4.9-5.3-13.6-5.3-6 0-10.4 2.6-4.3 2.5-7.5 6.7zM370.794 303.6q0-6.6-2.1-11.7t-5.6-8.6q-3.4-3.6-7.8-5.4-4.4-1.8-9.1-1.8-6.4 0-10.7 2.9-4.3 2.8-7.2 7v-8.8h-12.1V346h12.1v-24.2q2.8 3.7 7.1 6.5t10.8 2.8q4.7 0 9.1-1.8 4.5-1.8 7.9-5.3 3.5-3.6 5.5-8.7 2.1-5.1 2.1-11.7zm-12.3 0q0 3.9-1.2 7.1-1.2 3.1-3.3 5.3-2 2.2-4.8 3.4-2.7 1.2-5.8 1.2-3.1 0-5.9-1.2-2.8-1.2-4.9-3.4-2.1-2.3-3.4-5.4-1.2-3.1-1.2-7t1.2-7q1.3-3.1 3.4-5.3 2.1-2.3 4.9-3.5 2.8-1.2 5.9-1.2 3.1 0 5.8 1.2 2.8 1.2 4.8 3.4 2.1 2.2 3.3 5.4 1.2 3.1 1.2 7zM420.886 314.4v-.2q0-3.6-1.5-6.1-1.5-2.5-3.9-4.2-2.3-1.8-5.2-3-2.9-1.2-5.8-2.1-2.3-.7-4.5-1.4-2.1-.8-3.8-1.6-1.6-.9-2.6-1.9-1-1.1-1-2.5v-.2q0-2.3 1.9-3.8 2-1.5 5.5-1.5 3.3 0 7.2 1.4 3.9 1.3 7.7 3.6l4.8-8.6q-4.2-2.8-9.3-4.4-5.1-1.6-10.1-1.6-3.9 0-7.4 1.1-3.4 1.1-6 3.2-2.5 2.1-4 5.1-1.4 3-1.4 6.7v.2q0 3.8 1.5 6.4 1.5 2.5 3.8 4.3 2.4 1.7 5.3 2.8 3 1.1 5.9 2 2.3.7 4.4 1.4 2.2.6 3.8 1.5 1.7.8 2.6 1.9 1 1.1 1 2.6v.2q0 2.6-2.2 4.2-2.1 1.5-6 1.5-4.1 0-8.6-1.6-4.4-1.7-8.7-4.9l-5.4 8.2q5 3.9 10.8 5.9 5.9 2 11.6 2 4.1 0 7.7-1 3.6-1.1 6.2-3.1 2.7-2.1 4.2-5.2t1.5-7.3zM516.664 303.6q0-5.7-2.1-10.7-2.1-5-5.9-8.7-3.7-3.8-8.9-5.9-5.1-2.2-11.2-2.2t-11.3 2.2q-5.1 2.2-8.9 6-3.7 3.7-5.9 8.8-2.1 5-2.1 10.7 0 5.7 2.1 10.7 2.1 4.9 5.8 8.7 3.8 3.7 8.9 5.9 5.2 2.1 11.2 2.1 6.1 0 11.3-2.2 5.2-2.2 8.9-5.9 3.8-3.8 5.9-8.8 2.2-5 2.2-10.7zm-12.1.2q0 3.5-1.1 6.6-1.1 3-3.2 5.3t-5.1 3.7q-2.9 1.3-6.6 1.3-3.5 0-6.5-1.3-2.9-1.4-5.1-3.7-2.1-2.3-3.3-5.4-1.2-3.2-1.2-6.7t1.1-6.5q1.1-3.1 3.2-5.4 2.1-2.3 5-3.6 3-1.4 6.6-1.4 3.6 0 6.5 1.4 3 1.3 5.1 3.7 2.2 2.3 3.4 5.4 1.2 3.1 1.2 6.6zM548.257 316l-14.2-38.8h-13l21.7 53.2h10.9l21.6-53.2h-12.7zM591.898 307.9h38.8q.1-.9.1-1.7.1-.8.1-1.6 0-5.7-1.6-10.9t-4.8-9.1q-3.1-3.9-7.9-6.2-4.7-2.3-11-2.3-5.7 0-10.4 2.2t-8.2 6q-3.4 3.7-5.3 8.7-1.9 5-1.9 10.7 0 6.2 2.1 11.3 2.1 5 5.7 8.6 3.7 3.6 8.6 5.6 5 2 10.7 2 7.3 0 12.5-2.7 5.3-2.7 9.1-7.2l-7.1-6.3q-3.2 3.1-6.5 4.7t-7.8 1.6q-5.9 0-10-3.4-4.1-3.5-5.2-10zm-.1-8q.8-6.2 4.4-10 3.7-3.9 9.3-3.9 3 0 5.3 1.1 2.4 1.1 4.1 3 1.7 1.8 2.7 4.4 1 2.5 1.3 5.4zM655.247 309.9q0-5.2 1.3-9.1 1.3-4 3.7-6.6 2.4-2.6 5.7-3.9 3.3-1.3 7.3-1.3h.7v-12.8q-7-.3-11.6 3.3-4.6 3.6-7.1 9.6v-11.9h-12.1V330h12.1zM95.735 397.6h14.2v-10.4h-14.2v-14.5h-12.1v14.5h-6.7v10.4h6.7v27.8q0 4.4 1.1 7.4 1.1 2.9 3.1 4.7 2.1 1.8 4.9 2.6 2.8.8 6.1.8 3.4 0 6-.7t4.9-2v-9.9q-3.6 1.8-7.5 1.8-3.1 0-4.8-1.5-1.7-1.6-1.7-5.1zM134.25 410.2q0-6.2 3.3-9.6 3.3-3.5 8.6-3.5 5.4 0 8.3 3.4 3 3.3 3 9.5v30h12.1v-33.6q0-9.3-4.9-14.8t-13.9-5.5q-3.1 0-5.6.8-2.4.7-4.5 2-2 1.3-3.6 3-1.5 1.6-2.8 3.5V367h-12.1v73h12.1zM193.265 417.9h38.8q.1-.9.1-1.7.1-.8.1-1.6 0-5.7-1.6-10.9t-4.8-9.1q-3.1-3.9-7.9-6.2-4.7-2.3-11-2.3-5.7 0-10.4 2.2t-8.2 6q-3.4 3.7-5.3 8.7-1.9 5-1.9 10.7 0 6.2 2.1 11.3 2.1 5 5.7 8.6 3.7 3.6 8.6 5.6 5 2 10.7 2 7.3 0 12.5-2.7 5.3-2.7 9.1-7.2l-7.1-6.3q-3.2 3.1-6.5 4.7t-7.8 1.6q-5.9 0-10-3.4-4.1-3.5-5.2-10zm-.1-8q.8-6.2 4.4-10 3.7-3.9 9.3-3.9 3 0 5.3 1.1 2.4 1.1 4.1 3 1.7 1.8 2.7 4.4 1 2.5 1.3 5.4zM287.295 440v-73h-12.1v73zM347.31 440v-31.3q0-10.6-5.7-16.4-5.7-5.9-17.5-5.9-6.5 0-11.1 1.2t-9 3.2l3.3 9.7q3.6-1.5 7.1-2.4 3.5-.9 8-.9 6.3 0 9.6 2.9 3.4 2.9 3.4 8.4v1.3q-3.1-1-6.5-1.6-3.3-.6-8.1-.6-4.6 0-8.6 1.1-3.9 1-6.8 3.1-2.8 2.1-4.4 5.3-1.6 3.2-1.6 7.5v.2q0 4 1.5 7.1 1.6 3 4.1 5.1 2.6 2 6 3 3.4 1.1 7.2 1.1 6 0 10.2-2.2 4.2-2.2 6.9-5.4v6.5zm-11.7-19.1q0 2.5-1.1 4.6-1 2-2.9 3.5-1.9 1.4-4.5 2.2-2.5.8-5.5.8-4.3 0-7.3-2-2.9-2-2.9-5.8v-.2q0-4.1 3.2-6.3t8.9-2.2q3.5 0 6.6.6 3.2.6 5.5 1.5zM389.9 397.1l-30.5 34.6v8.3h45.9v-9.9h-30.5l30.5-34.6v-8.3h-44.8v9.9zM467.054 387.2h-12.6l-13.7 39.2-15-39.2h-12.9l22 52.8q-1.5 3.5-3.2 4.8-1.7 1.3-4.3 1.3-1.9 0-3.7-.6-1.7-.5-3.4-1.4l-4.1 9q2.8 1.5 5.7 2.3 3 .9 6.8.9 3.2 0 5.7-.8t4.6-2.6q2.1-1.7 3.8-4.5 1.7-2.8 3.3-6.9zM559.402 440v-73h-12.1v28.4q-2.9-3.7-7.2-6.5-4.3-2.8-10.8-2.8-4.7 0-9.2 1.8-4.4 1.8-7.8 5.4-3.4 3.5-5.5 8.6-2 5.1-2 11.7t2.1 11.7q2.1 5.1 5.5 8.7 3.4 3.5 7.8 5.3 4.4 1.8 9.1 1.8 6.4 0 10.7-2.9 4.4-2.9 7.3-7v8.8zm-11.9-26.4q0 3.9-1.3 7-1.2 3.1-3.3 5.4-2.1 2.2-4.9 3.4-2.8 1.2-5.8 1.2-3.1 0-5.9-1.2-2.7-1.2-4.8-3.4-2.1-2.2-3.3-5.3-1.2-3.2-1.2-7.1 0-4 1.2-7.1 1.2-3.2 3.3-5.4 2.1-2.2 4.8-3.3 2.8-1.2 5.9-1.2 3 0 5.8 1.2t4.9 3.5q2.1 2.2 3.3 5.3 1.3 3.1 1.3 7zM627.895 413.6q0-5.7-2.1-10.7-2.1-5-5.9-8.7-3.7-3.8-8.9-5.9-5.1-2.2-11.2-2.2t-11.3 2.2q-5.1 2.2-8.9 6-3.7 3.7-5.9 8.8-2.1 5-2.1 10.7 0 5.7 2.1 10.7 2.1 4.9 5.8 8.7 3.8 3.7 8.9 5.9 5.2 2.1 11.2 2.1 6.1 0 11.3-2.2 5.2-2.2 8.9-5.9 3.8-3.8 5.9-8.8 2.2-5 2.2-10.7zm-12.1.2q0 3.5-1.1 6.6-1.1 3-3.2 5.3t-5.1 3.7q-2.9 1.3-6.6 1.3-3.5 0-6.5-1.3-2.9-1.4-5.1-3.7-2.1-2.3-3.3-5.4-1.2-3.2-1.2-6.7t1.1-6.5q1.1-3.1 3.2-5.4 2.1-2.3 5-3.6 3-1.4 6.6-1.4 3.6 0 6.5 1.4 3 1.3 5.1 3.7 2.2 2.3 3.4 5.4 1.2 3.1 1.2 6.6zM692.02 429.2v-42h-12.1v7.9q-3.1-3.7-7.5-6.3-4.3-2.7-11-2.7-4.6 0-9 1.7-4.3 1.7-7.7 4.9-3.3 3.2-5.3 7.8t-2 10.5q0 5.9 2 10.5t5.3 7.8q3.4 3.2 7.7 4.9 4.3 1.6 9 1.6 6.5 0 10.9-2.7t7.7-7v4.1q0 8-4.3 12.1t-12.4 4.1q-5.4 0-10-1.5t-8.8-4.1l-4.5 9.1q10.4 6.3 23.6 6.3 13.6 0 21-6.5t7.4-20.5zm-11.9-18.2q0 3.3-1.3 6-1.2 2.6-3.3 4.6-2.1 1.9-5 3-2.8 1-5.9 1-3.1 0-5.9-1-2.7-1.1-4.7-3-2-2-3.2-4.7-1.2-2.7-1.2-6t1.1-6q1.2-2.7 3.2-4.6 2.1-1.9 4.8-2.9 2.7-1.1 5.9-1.1 3.1 0 5.9 1.1 2.9 1 5 2.9t3.3 4.7q1.3 2.7 1.3 6zM719.612 440v-13.7h-13.3V440z"/></g></svg>