<svg xmlns="http://www.w3.org/2000/svg" viewBox="0 0 1600 1000" height="1000" width="1600"><path fill="#fff" d="M0 0h1600v1000H0z"/><g font-weight="400" font-size="200" font-family="Helvetica Neue" letter-spacing="-.03em" text-anchor="middle" fill="#222"><path d="M437.5 93.2V220h19V93.2h47.6v-16H389.9v16zM511.144 77.2V220h17v-58.4q0-7 1.8-12.8 2-6 5.8-10.4t9.4-6.8q5.8-2.4 13.6-2.4 9.8 0 15.4 5.6t5.6 15.2v70h17v-68q0-8.4-1.8-15.2-1.6-7-5.8-12-4.2-5-11-7.8t-17-2.8q-4.6 0-9.6 1-4.8 1-9.4 3.2-4.4 2-8 5.4-3.6 3.2-5.6 8h-.4V77.2zM688.272 158.4h-59.4q.4-6 2.6-11.2 2.2-5.4 6-9.4t9-6.2q5.4-2.4 12-2.4 6.4 0 11.6 2.4 5.4 2.2 9.2 6.2 4 3.8 6.2 9.2 2.4 5.4 2.8 11.4zm16.4 28.8h-16.8q-2.2 10.2-9.2 15.2-6.8 5-17.6 5-8.4 0-14.6-2.8-6.2-2.8-10.2-7.4-4-4.8-5.8-10.8-1.8-6.2-1.6-13h77.4q.4-9.4-1.8-19.8-2-10.4-7.6-19.2-5.4-8.8-14.6-14.4-9-5.8-22.8-5.8-10.6 0-19.6 4-8.8 4-15.4 11.2-6.4 7.2-10 17-3.6 9.8-3.6 21.6.4 11.8 3.4 21.8 3.2 10 9.4 17.2 6.2 7.2 15.2 11.2 9.2 4 21.6 4 17.6 0 29.2-8.8 11.6-8.8 15-26.2zM779.763 169.2q0-7.6 1.6-14.8 1.6-7.2 5.2-12.8 3.6-5.6 9.6-9 6-3.4 14.6-3.4 8.8 0 15 3.4 6.2 3.2 10 8.6 4 5.4 5.8 12.6 1.8 7 1.8 14.6 0 7.2-1.8 14.2-1.6 7-5.4 12.6-3.8 5.4-9.8 8.8-6 3.4-14.6 3.4-8.2 0-14.4-3.2-6-3.2-10-8.6-3.8-5.4-5.8-12.2-1.8-7-1.8-14.2zm80 90.2V116.6h-17v13.8h-.4q-2.8-4.6-7-7.6-4-3.2-8.6-5-4.6-2-9.2-2.8-4.6-.8-8.6-.8-11.8 0-20.8 4.4-8.8 4.2-14.8 11.6-5.8 7.2-8.8 17-2.8 9.8-2.8 20.8t3 20.8q3 9.8 8.8 17.2 6 7.4 14.8 11.8 9 4.4 21 4.4 10.8 0 19.8-3.8t13.2-12.4h.4v53.4zM965.712 220V116.6h-17V175q0 7-2 13-1.8 5.8-5.6 10.2-3.8 4.4-9.6 6.8-5.6 2.4-13.4 2.4-9.8 0-15.4-5.6t-5.6-15.2v-70h-17v68q0 8.4 1.6 15.4 1.8 6.8 6 11.8 4.2 5 11 7.8 6.8 2.6 17 2.6 11.4 0 19.8-4.4 8.4-4.6 13.8-14.2h.4V220zM1003.44 98V77.2h-17V98zm-17 18.6V220h17V116.6zM1094.172 149.8h17.6q-1-9.2-4.8-15.8-3.8-6.8-9.8-11.2-5.8-4.4-13.6-6.4-7.6-2.2-16.4-2.2-12.2 0-21.4 4.4-9.2 4.2-15.4 11.8-6 7.4-9 17.6-3 10-3 21.6 0 11.6 3 21.4 3.2 9.6 9.2 16.6 6.2 7 15.2 10.8 9.2 3.8 21 3.8 19.8 0 31.2-10.4 11.6-10.4 14.4-29.6h-17.4q-1.6 12-8.8 18.6-7 6.6-19.6 6.6-8 0-13.8-3.2-5.8-3.2-9.4-8.4-3.6-5.4-5.4-12.2-1.6-6.8-1.6-14 0-7.8 1.6-15 1.6-7.4 5.2-13 3.8-5.6 10-9 6.2-3.4 15.4-3.4 10.8 0 17.2 5.4 6.4 5.4 8.4 15.2zM1126.394 77.2V220h17v-39.2l16-14.8 35.4 54h21.6l-44-65.8 41-37.6h-22.8l-47.2 45.2V77.2zM393.916 297.2V440h17v-13.8h.4q2.8 4.6 6.8 7.8 4.2 3 8.8 4.8 4.6 1.8 9.2 2.6 4.8.8 8.6.8 11.8 0 20.6-4.2 9-4.2 14.8-11.4 6-7.4 8.8-17.2 3-9.8 3-20.8t-3-20.8q-3-9.8-9-17.2-5.8-7.6-14.8-12-8.8-4.4-20.8-4.4-10.8 0-19.8 4-9 3.8-13.2 12.4h-.4v-53.4zm80 90.2q0 7.6-1.6 14.8-1.6 7.2-5.2 12.8-3.6 5.6-9.6 9-5.8 3.4-14.6 3.4t-15-3.2q-6.2-3.4-10.2-8.8-3.8-5.4-5.6-12.4-1.8-7.2-1.8-14.8 0-7.2 1.6-14.2 1.8-7 5.6-12.4 3.8-5.6 9.8-9 6-3.4 14.6-3.4 8.2 0 14.2 3.2 6.2 3.2 10 8.6 4 5.4 5.8 12.4 2 6.8 2 14zM505.466 336.6V440h17v-46q0-10 2-17.6 2-7.8 6.4-13.2 4.4-5.4 11.6-8.2 7.2-2.8 17.4-2.8v-18q-13.8-.4-22.8 5.6t-15.2 18.6h-.4v-21.8zM575.747 388.4q0-9.4 2.4-16.6 2.6-7.4 7-12.4t10.2-7.6q6-2.6 12.6-2.6t12.4 2.6q6 2.6 10.4 7.6t6.8 12.4q2.6 7.2 2.6 16.6 0 9.4-2.6 16.8-2.4 7.2-6.8 12.2-4.4 4.8-10.4 7.4-5.8 2.6-12.4 2.6-6.6 0-12.6-2.6-5.8-2.6-10.2-7.4-4.4-5-7-12.2-2.4-7.4-2.4-16.8zm-18 0q0 11.4 3.2 21.2 3.2 9.8 9.6 17.2 6.4 7.2 15.8 11.4 9.4 4 21.6 4 12.4 0 21.6-4 9.4-4.2 15.8-11.4 6.4-7.4 9.6-17.2 3.2-9.8 3.2-21.2 0-11.4-3.2-21.2-3.2-10-9.6-17.2-6.4-7.4-15.8-11.6-9.2-4.2-21.6-4.2-12.2 0-21.6 4.2-9.4 4.2-15.8 11.6-6.4 7.2-9.6 17.2-3.2 9.8-3.2 21.2zM774.59 440l33-103.4h-17.6l-23.2 84.6h-.4l-21.6-84.6h-18.6l-20.8 84.6h-.4l-23.4-84.6h-18.8l33.2 103.4h18.4l20.8-82.2h.4l21 82.2zM817.753 336.6V440h17v-58.4q0-7 1.8-12.8 2-6 5.8-10.4t9.4-6.8q5.8-2.4 13.6-2.4 9.8 0 15.4 5.6t5.6 15.2v70h17v-68q0-8.4-1.8-15.2-1.6-7-5.8-12-4.2-5-11-7.8t-17-2.8q-23 0-33.6 18.8h-.4v-16.4zM979.55 351.6V440h17v-88.4h20v-15h-20v-14.4q0-6.8 3.4-9.2 3.4-2.4 9.6-2.4 2.2 0 4.8.4 2.6.2 4.8 1v-14.8q-2.4-.8-5.6-1.2-3-.4-5.4-.4-14 0-21.4 6.6-7.2 6.4-7.2 19v15.4h-17.4v15zM1038.325 388.4q0-9.4 2.4-16.6 2.6-7.4 7-12.4t10.2-7.6q6-2.6 12.6-2.6t12.4 2.6q6 2.6 10.4 7.6t6.8 12.4q2.6 7.2 2.6 16.6 0 9.4-2.6 16.8-2.4 7.2-6.8 12.2-4.4 4.8-10.4 7.4-5.8 2.6-12.4 2.6-6.6 0-12.6-2.6-5.8-2.6-10.2-7.4-4.4-5-7-12.2-2.4-7.4-2.4-16.8zm-18 0q0 11.4 3.2 21.2 3.2 9.8 9.6 17.2 6.4 7.2 15.8 11.4 9.4 4 21.6 4 12.4 0 21.6-4 9.4-4.2 15.8-11.4 6.4-7.4 9.6-17.2 3.2-9.8 3.2-21.2 0-11.4-3.2-21.2-3.2-10-9.6-17.2-6.4-7.4-15.8-11.6-9.2-4.2-21.6-4.2-12.2 0-21.6 4.2-9.4 4.2-15.8 11.6-6.4 7.2-9.6 17.2-3.2 9.8-3.2 21.2zM1162.57 385.6l-38.8 54.4h20.6l28.8-42.8 28.8 42.8h21.8l-40-55.8 35.6-47.6h-20.4l-25.8 36.2-24.8-36.2h-21.8zM365.878 538v-20.8h-17V538zm0 135V556.6h-17v113.6q0 8-2 11-2 3.2-7.6 3.2h-3.6q-.8 0-1.4-.2-.8 0-1.8-.2v14.6q4 .8 8.6.8 11.4 0 18-6.4 6.8-6.2 6.8-20zM472.01 660V556.6h-17V615q0 7-2 13-1.8 5.8-5.6 10.2-3.8 4.4-9.6 6.8-5.6 2.4-13.4 2.4-9.8 0-15.4-5.6t-5.6-15.2v-70h-17v68q0 8.4 1.6 15.4 1.8 6.8 6 11.8 4.2 5 11 7.8 6.8 2.6 17 2.6 11.4 0 19.8-4.4 8.4-4.6 13.8-14.2h.4V660zM491.738 556.6V660h17v-64.4q0-3 1.4-7.4 1.6-4.6 4.8-8.8 3.4-4.2 8.6-7.2 5.4-3 12.8-3 5.8 0 9.4 1.8 3.8 1.6 6 4.8 2.2 3 3 7.2 1 4.2 1 9.2V660h17v-64.4q0-12 7.2-19.2 7.2-7.2 19.8-7.2 6.2 0 10 1.8 4 1.8 6.2 5 2.2 3 3 7.2.8 4.2.8 9V660h17v-75.8q0-8-2.6-13.6-2.4-5.8-7-9.4-4.4-3.6-10.8-5.2-6.2-1.8-14-1.8-10.2 0-18.8 4.6-8.4 4.6-13.6 13-3.2-9.6-11-13.6t-17.4-4q-21.8 0-33.4 17.6h-.4v-15.2zM657.04 556.6v142.8h17v-53.2h.4q2.8 4.6 6.8 7.8 4.2 3 8.8 4.8 4.6 1.8 9.2 2.6 4.8.8 8.6.8 11.8 0 20.6-4.2 9-4.2 14.8-11.4 6-7.4 8.8-17.2 3-9.8 3-20.8t-3-20.8q-3-9.8-9-17.2-5.8-7.6-14.8-12-8.8-4.4-20.8-4.4-10.8 0-19.8 4-9 3.8-13.2 12.4h-.4v-14zm80 50.8q0 7.6-1.6 14.8-1.6 7.2-5.2 12.8-3.6 5.6-9.6 9-5.8 3.4-14.6 3.4t-15-3.2q-6.2-3.4-10.2-8.8-3.8-5.4-5.6-12.4-1.8-7.2-1.8-14.8 0-7.2 1.6-14.2 1.8-7 5.6-12.4 3.8-5.6 9.8-9 6-3.4 14.6-3.4 8.2 0 14.2 3.2 6.2 3.2 10 8.6 4 5.4 5.8 12.4 2 6.8 2 14zM779.59 627.4h-17q.4 9.6 4 16.4 3.6 6.6 9.6 10.8 6 4 13.8 5.8 7.8 1.8 16.4 1.8 7.8 0 15.6-1.6 8-1.4 14.2-5.2 6.4-3.8 10.2-10 4-6.2 4-15.6 0-7.4-3-12.4-2.8-5-7.6-8.2-4.6-3.4-10.8-5.4-6-2-12.4-3.4-6-1.4-12-2.6-6-1.4-10.8-3.2-4.8-2-8-4.8-3-3-3-7.4 0-4 2-6.4 2-2.6 5.2-4 3.2-1.6 7-2.2 4-.6 7.8-.6 4.2 0 8.2 1 4.2.8 7.6 2.8 3.4 2 5.6 5.4 2.2 3.2 2.6 8.2h17q-.6-9.4-4-15.6-3.4-6.4-9.2-10-5.6-3.8-13-5.2-7.4-1.6-16.2-1.6-6.8 0-13.8 1.8-6.8 1.6-12.4 5.2-5.4 3.4-9 9-3.4 5.6-3.4 13.4 0 10 5 15.6t12.4 8.8q7.6 3 16.4 4.8 8.8 1.6 16.2 3.8 7.6 2 12.6 5.4 5 3.4 5 10 0 4.8-2.4 8-2.4 3-6.2 4.6-3.6 1.6-8 2.2-4.4.6-8.4.6-5.2 0-10.2-1-4.8-1-8.8-3.2-3.8-2.4-6.2-6.2-2.4-4-2.6-9.6zM925.06 608.4q0-9.4 2.4-16.6 2.6-7.4 7-12.4t10.2-7.6q6-2.6 12.6-2.6t12.4 2.6q6 2.6 10.4 7.6t6.8 12.4q2.6 7.2 2.6 16.6 0 9.4-2.6 16.8-2.4 7.2-6.8 12.2-4.4 4.8-10.4 7.4-5.8 2.6-12.4 2.6-6.6 0-12.6-2.6-5.8-2.6-10.2-7.4-4.4-5-7-12.2-2.4-7.4-2.4-16.8zm-18 0q0 11.4 3.2 21.2 3.2 9.8 9.6 17.2 6.4 7.2 15.8 11.4 9.4 4 21.6 4 12.4 0 21.6-4 9.4-4.2 15.8-11.4 6.4-7.4 9.6-17.2 3.2-9.8 3.2-21.2 0-11.4-3.2-21.2-3.2-10-9.6-17.2-6.4-7.4-15.8-11.6-9.2-4.2-21.6-4.2-12.2 0-21.6 4.2-9.4 4.2-15.8 11.6-6.4 7.2-9.6 17.2-3.2 9.8-3.2 21.2zM1068.103 660l37.8-103.4h-17.8l-28.2 86.2h-.4l-29-86.2h-19l38.4 103.4zM1187.303 598.4h-59.4q.4-6 2.6-11.2 2.2-5.4 6-9.4t9-6.2q5.4-2.4 12-2.4 6.4 0 11.6 2.4 5.4 2.2 9.2 6.2 4 3.8 6.2 9.2 2.4 5.4 2.8 11.4zm16.4 28.8h-16.8q-2.2 10.2-9.2 15.2-6.8 5-17.6 5-8.4 0-14.6-2.8-6.2-2.8-10.2-7.4-4-4.8-5.8-10.8-1.8-6.2-1.6-13h77.4q.4-9.4-1.8-19.8-2-10.4-7.6-19.2-5.4-8.8-14.6-14.4-9-5.8-22.8-5.8-10.6 0-19.6 4-8.8 4-15.4 11.2-6.4 7.2-10 17-3.6 9.8-3.6 21.6.4 11.8 3.4 21.8 3.2 10 9.4 17.2 6.2 7.2 15.2 11.2 9.2 4 21.6 4 17.6 0 29.2-8.8 11.6-8.8 15-26.2zM1216.325 556.6V660h17v-46q0-10 2-17.6 2-7.8 6.4-13.2 4.4-5.4 11.6-8.2 7.2-2.8 17.4-2.8v-18q-13.8-.4-22.8 5.6t-15.2 18.6h-.4v-21.8zM300.134 776.6v-31h-17v31h-17.6v15h17.6v65.8q0 7.2 1.4 11.6 1.4 4.4 4.2 6.8 3 2.4 7.6 3.4 4.8.8 11.4.8h13v-15h-7.8q-4 0-6.6-.2-2.4-.4-3.8-1.4-1.4-1-2-2.8-.4-1.8-.4-4.8v-64.2h20.6v-15zM333.425 737.2V880h17v-58.4q0-7 1.8-12.8 2-6 5.8-10.4t9.4-6.8q5.8-2.4 13.6-2.4 9.8 0 15.4 5.6t5.6 15.2v70h17v-68q0-8.4-1.8-15.2-1.6-7-5.8-12-4.2-5-11-7.8t-17-2.8q-4.6 0-9.6 1-4.8 1-9.4 3.2-4.4 2-8 5.4-3.6 3.2-5.6 8h-.4v-54.6zM510.553 818.4h-59.4q.4-6 2.6-11.2 2.2-5.4 6-9.4t9-6.2q5.4-2.4 12-2.4 6.4 0 11.6 2.4 5.4 2.2 9.2 6.2 4 3.8 6.2 9.2 2.4 5.4 2.8 11.4zm16.4 28.8h-16.8q-2.2 10.2-9.2 15.2-6.8 5-17.6 5-8.4 0-14.6-2.8-6.2-2.8-10.2-7.4-4-4.8-5.8-10.8-1.8-6.2-1.6-13h77.4q.4-9.4-1.8-19.8-2-10.4-7.6-19.2-5.4-8.8-14.6-14.4-9-5.8-22.8-5.8-10.6 0-19.6 4-8.8 4-15.4 11.2-6.4 7.2-10 17-3.6 9.8-3.6 21.6.4 11.8 3.4 21.8 3.2 10 9.4 17.2 6.2 7.2 15.2 11.2 9.2 4 21.6 4 17.6 0 29.2-8.8 11.6-8.8 15-26.2zM590.644 737.2V880h17V737.2zM719.775 879.6v-13.2q-3 1-5.2 1-4 0-4.8-2.8-.6-2.8-.6-8.8v-53.2q0-9-3.4-14.6t-9-8.6q-5.6-3.2-12.6-4.2-6.8-1-13.8-1-8.6 0-16.4 1.8-7.8 1.8-13.8 6-6 4-9.6 10.6-3.6 6.6-4 16.2h17q.6-11.4 7.8-15.4 7.2-4.2 18-4.2 4 0 8 .6 4.2.6 7.4 2.4 3.4 1.8 5.4 5.2 2.2 3.4 2.2 9 0 4.8-2.8 7.4-2.8 2.4-7.6 3.8-4.8 1.2-11.2 2-6.2.6-13.2 2-6.6 1.2-13 3-6.2 1.8-11.2 5.4-4.8 3.4-7.8 9t-3 14.4q0 7.8 2.6 13.4 2.8 5.4 7.4 9 4.8 3.4 11 4.8 6.2 1.6 13.2 1.6 10.8 0 20-3.6 9.4-3.8 16.4-12.2 0 8.4 3.8 12.2 4 3.6 10.6 3.6 7.8 0 12.2-2.6zm-27.6-53V844q0 3.6-1.8 7.8-1.8 4-5.6 7.6-3.8 3.4-9.8 5.8-6 2.2-14.4 2.2-3.8 0-7.6-.8-3.6-.8-6.4-2.6-2.6-1.8-4.4-4.6-1.6-3-1.6-7.2 0-6.4 2.8-10 3-3.8 7.6-5.8t10.4-2.8q5.8-1 11.4-1.6 5.8-.8 11-1.8 5.2-1.2 8.4-3.6zM721.197 867v13h87.2v-15h-66l63.2-76.8v-11.6h-80.4v15h58.4zM860.29 893.6l45-117h-18l-29 84.6h-.4l-30.2-84.6h-19.2l41 102.8-7 17.4q-2.4 4.6-5.6 7-3.2 2.4-8.4 2.4-2.6 0-5.2-.8l-4.8-1.6v15.6q2.8 1 5.8 1.4 3 .4 6 .4 5.8 0 10-1.6 4.2-1.4 7.6-4.8 3.6-3.2 6.4-8.4 3-5.2 6-12.8zM975.56 829.2q0-7.6 1.6-14.8 1.6-7.2 5.2-12.8 3.6-5.6 9.6-9 6-3.4 14.6-3.4 8.8 0 15 3.4 6.2 3.2 10 8.6 4 5.4 5.8 12.6 1.8 7 1.8 14.6 0 7.2-1.8 14.2-1.6 7-5.4 12.6-3.8 5.4-9.8 8.8-6 3.4-14.6 3.4-8.2 0-14.4-3.2-6-3.2-10-8.6-3.8-5.4-5.8-12.2-1.8-7-1.8-14.2zm80 50.8V737.2h-17v53.2h-.4q-2.8-4.6-7-7.6-4-3.2-8.6-5-4.6-2-9.2-2.8-4.6-.8-8.6-.8-11.8 0-20.8 4.4-8.8 4.2-14.8 11.6-5.8 7.2-8.8 17-2.8 9.8-2.8 20.8t3 20.8q3 9.8 8.8 17.2 6 7.4 14.8 11.8 9 4.4 21 4.4 10.8 0 19.8-3.8t13.2-12.4h.4v14zM1088.31 828.4q0-9.4 2.4-16.6 2.6-7.4 7-12.4t10.2-7.6q6-2.6 12.6-2.6t12.4 2.6q6 2.6 10.4 7.6t6.8 12.4q2.6 7.2 2.6 16.6 0 9.4-2.6 16.8-2.4 7.2-6.8 12.2-4.4 4.8-10.4 7.4-5.8 2.6-12.4 2.6-6.6 0-12.6-2.6-5.8-2.6-10.2-7.4-4.4-5-7-12.2-2.4-7.4-2.4-16.8zm-18 0q0 11.4 3.2 21.2 3.2 9.8 9.6 17.2 6.4 7.2 15.8 11.4 9.4 4 21.6 4 12.4 0 21.6-4 9.4-4.2 15.8-11.4 6.4-7.4 9.6-17.2 3.2-9.8 3.2-21.2 0-11.4-3.2-21.2-3.2-10-9.6-17.2-6.4-7.4-15.8-11.6-9.2-4.2-21.6-4.2-12.2 0-21.6 4.2-9.4 4.2-15.8 11.6-6.4 7.2-9.6 17.2-3.2 9.8-3.2 21.2zM1273.953 871.2v-94.6h-16v14.8h-.2q-4.6-8.6-12.8-12.8-8.2-4.4-18-4.4-13.4 0-22.6 5.2-9.2 5-14.8 13-5.6 7.8-8 17.6-2.4 9.6-2.4 18.8 0 10.6 2.8 20.2 3 9.4 8.8 16.6 5.8 7 14.4 11.2 8.6 4.2 20.2 4.2 10 0 18.8-4.4 9-4.6 13.4-14.2h.4v6.8q0 8.6-1.8 15.8-1.6 7.2-5.4 12.2-3.8 5.2-9.6 8-5.8 3-14.2 3-4.2 0-8.8-1-4.6-.8-8.6-2.8-3.8-2-6.6-5.2-2.6-3.2-2.8-7.8h-17q.4 8.4 4.4 14.2 4 5.8 10 9.4 6.2 3.6 13.6 5.2 7.6 1.6 14.8 1.6 24.8 0 36.4-12.6 11.6-12.6 11.6-38zm-47.6-5q-8.4 0-14-3.4-5.6-3.6-9-9.2-3.4-5.8-4.8-12.8-1.4-7-1.4-14 0-7.4 1.6-14.2 1.8-6.8 5.4-12 3.8-5.2 9.6-8.2 5.8-3.2 14-3.2 8 0 13.6 3.2t9 8.6q3.6 5.2 5.2 11.8 1.6 6.6 1.6 13.4 0 7.2-1.8 14.4-1.6 7.2-5.2 13-3.6 5.6-9.6 9.2-5.8 3.4-14.2 3.4zM1297.397 857.8V880h22.2v-22.2z"/></g></svg>