<svg xmlns="http://www.w3.org/2000/svg" viewBox="0 0 800 500"><path fill="#fff" d="M0 0h800v500H0z"/><g font-weight="700" font-size="100" font-family="Helvetica" text-anchor="middle" fill="#111"><path d="M225.718 49.6V37.1h-58.4v12.5h22.1V110h15V49.6zM281.15 110V73.8c0-12.6-7.4-18.7-17.6-18.7-6.9 0-11.9 2.8-15.8 8.7V37.1h-14V110h14V77.6c0-6.2 4.5-10.6 10.8-10.6 5 0 8.6 2.7 8.6 10v33zM340.684 85c0-18.6-9.4-29.9-25.3-29.9-15.5 0-25 10.5-25 28.6 0 17.3 9.4 27.2 24.7 27.2 12.1 0 21.9-5.5 25-16.1h-13.8c-1.2 3.9-5.6 5.4-10.7 5.4-6.6 0-10.8-3-11.2-13.5h36.2zm-14.6-7.6h-21.5c.9-7.5 4.4-11.6 10.6-11.6 6 0 10.2 3.9 10.9 11.6zM425.982 131.8V56h-14v8c-3.3-5.9-8.3-8.9-15-8.9-13 0-22.6 11.4-22.6 27.9 0 16.2 8.7 27.9 22.5 27.9 6.8 0 11.8-2.2 15.1-8.1v29zm-14-48.5c0 9.8-4.8 15.9-11.8 15.9-7 0-11.8-6.1-11.8-16.2s4.8-16.2 11.8-16.2c7.1 0 11.8 6 11.8 16.5zM487.4 110V56h-14v32.4c0 6.4-4.5 10.6-11.3 10.6-6 0-9-3.2-9-9.7V56h-14v36.2c0 11.9 6.6 18.7 18.1 18.7 7.3 0 12.2-2.7 16.2-8v7.1zM515.134 110V56h-14v54zm.2-60.5v-14h-14v14zM574.368 91.3h-13.4c-1.8 5.6-4.6 8.3-10 8.3-7.1 0-11.4-5.7-11.4-16.2 0-9.9 2.6-17 11.4-17 5.7 0 8.4 2.7 10 9.8h13.4c-1-13.2-9.8-21.1-23.3-21.1-16.1 0-25.5 9.9-25.5 28.3 0 17.8 9.3 27.5 25.3 27.5 13.1 0 22.2-8.1 23.5-19.6zM633.218 110l-19.7-33.6 18.4-20.4h-15.9l-17.7 21V37.1h-14V110h14V92.3l5.6-6.1 12.9 23.8zM220.78 193.7c0-15.3-8.5-28.6-22.7-28.6-6.7 0-11.5 2.5-14.9 7.9v-25.9h-14V220h14v-6.2c3.4 4.6 8.1 7.1 14.9 7.1 12.9 0 22.7-10.9 22.7-27.2zm-14-.6c0 9.8-4.9 16.1-11.8 16.1-7.1 0-11.8-6.1-11.8-16.4 0-9.8 4.8-16 11.8-16 6.9 0 11.8 6.3 11.8 16.3zM261.414 179.4v-14.2c-.8-.1-1.3-.1-1.7-.1-6.4 0-12 4.2-15 11.5V166h-14v54h14v-28.7c0-8.2 4.1-12.3 12.3-12.3 1.5 0 2.5.1 4.4.4zM320.18 193.4c0-18.3-9.9-28.3-26.8-28.3-16.5 0-26.6 10.2-26.6 27.9 0 17.8 10.1 27.9 26.7 27.9 16.4 0 26.7-10.2 26.7-27.5zm-14-.2c0 10.1-5.2 16.4-12.7 16.4-7.6 0-12.7-6.3-12.7-16.6s5.1-16.6 12.7-16.6c7.7 0 12.7 6.2 12.7 16.8zM400.038 166h-14.5l-8.2 37.8-8.1-37.8h-14l-8.2 37.8-8.6-37.8h-14.5l15.2 54h14.4l8.6-38.1 8.1 38.1h14.5zM455.772 220v-36.2c0-11.9-6.6-18.7-18.1-18.7-7.3 0-12.2 2.7-16.2 8.7V166h-14v54h14v-32.4c0-6.4 4.5-10.6 11.3-10.6 6 0 9 3.3 9 9.7V220zM521.34 176.4v-9.3h-8.3v-5.3c0-2.8 1.2-4.2 3.8-4.2 1.2 0 2.8.1 4 .3v-10.5c-2.6-.2-6.1-.3-8-.3-9.3 0-13.8 4.4-13.8 13.5v6.5h-7.6v9.3h7.6V220h14v-43.6zM579.36 193.4c0-18.3-9.9-28.3-26.8-28.3-16.5 0-26.6 10.2-26.6 27.9 0 17.8 10.1 27.9 26.7 27.9 16.4 0 26.7-10.2 26.7-27.5zm-14-.2c0 10.1-5.2 16.4-12.7 16.4-7.6 0-12.7-6.3-12.7-16.6s5.1-16.6 12.7-16.6c7.7 0 12.7 6.2 12.7 16.8zM634.555 220l-18-27.2 17.6-26.8h-16.8l-8.7 16.3-8.8-16.3h-16.8l17.6 26.8-18 27.2h16.8l9.2-16.8 9.1 16.8zM155.96 339.4V276h-14v60.3c0 3.1-1.1 4.2-4.1 4.2-.9 0-1.5-.1-2.5-.4v11.2c2.8.3 6.3.5 8.3.5 8.7 0 12.3-3.6 12.3-12.4zm0-69.9v-14h-14v14zM216.795 330v-54h-14v32.4c0 6.4-4.5 10.6-11.3 10.6-6 0-9-3.2-9-9.7V276h-14v36.2c0 11.9 6.6 18.7 18.1 18.7 7.3 0 12.2-2.7 16.2-8v7.1zM306.228 330v-38.2c0-10.5-6.4-16.7-17.2-16.7-6.8 0-11.6 2.4-15.8 8-2.6-5.1-8-8-14.7-8-6.2 0-10.2 2.1-14.8 7.6V276h-13.9v54h14v-32.4c0-6.6 3.6-10.6 9.6-10.6 4.7 0 7.6 2.7 7.6 7v36h14v-32.4c0-6.6 3.6-10.6 9.6-10.6 4.7 0 7.6 2.7 7.6 7v36zM370.68 303c0-16-8.5-27.9-22.6-27.9-6.8 0-11.6 2.9-15 8.9v-8h-14v75.8h14v-29c3.4 6 8.2 8.1 15 8.1 13 0 22.6-11.5 22.6-27.9zm-14 .2c0 9.8-4.9 16-11.8 16-7 0-11.8-6.1-11.8-16.2s4.8-16.2 11.8-16.2c7.1 0 11.8 6.1 11.8 16.4zM426.414 314v-.7c0-6.2-3.5-10.8-10.6-12.9l-17.7-5.1c-3.9-1.1-4.9-2-4.9-4.2 0-3 3.2-5 8.1-5 6.7 0 10 2.4 10.1 7.3h13.5c-.2-11.4-9-18.3-23.5-18.3-13.7 0-22.2 6.9-22.2 18 0 6.6 1.8 10.2 11.8 13.3l16.7 5.2c3.5 1.1 4.7 2.2 4.7 3.7 0 3.3-3.9 4.6-10.4 4.6-6.4 0-9.8-1.2-11-7h-13.7c.4 11.8 9.1 18 25.5 18 15.2 0 23.6-6 23.6-16.9zM514.712 303.4c0-18.3-9.9-28.3-26.8-28.3-16.5 0-26.6 10.2-26.6 27.9 0 17.8 10.1 27.9 26.7 27.9 16.4 0 26.7-10.2 26.7-27.5zm-14-.2c0 10.1-5.2 16.4-12.7 16.4-7.6 0-12.7-6.3-12.7-16.6s5.1-16.6 12.7-16.6c7.7 0 12.7 6.2 12.7 16.8zM570.006 276h-14.8l-10.9 39.5-11.7-39.5h-14.8l18.9 54h14.7zM623.008 305c0-18.6-9.4-29.9-25.3-29.9-15.5 0-25 10.5-25 28.6 0 17.3 9.4 27.2 24.7 27.2 12.1 0 21.9-5.5 25-16.1h-13.8c-1.2 3.9-5.6 5.4-10.7 5.4-6.6 0-10.8-3-11.2-13.5h36.2zm-14.6-7.6h-21.5c.9-7.5 4.4-11.6 10.6-11.6 6 0 10.2 3.9 10.9 11.6zM663.172 289.4v-14.2c-.8-.1-1.3-.1-1.7-.1-6.4 0-12 4.2-15 11.5V276h-14v54h14v-28.7c0-8.2 4.1-12.3 12.3-12.3 1.5 0 2.5.1 4.4.4zM127.17 440v-9.8c-1.4.2-2.2.3-3.2.3-3.7 0-4.6-1.1-4.6-5.9v-28.2h7.8v-9.3h-7.8v-14.5h-14v14.5h-6.9v9.3h6.9v32c0 8.5 4.5 12 13.7 12 3.1 0 5.6-.3 8.1-.4zM184.57 440v-36.2c0-12.6-7.4-18.7-17.6-18.7-6.9 0-11.9 2.8-15.8 8.7v-26.7h-14V440h14v-32.4c0-6.2 4.5-10.6 10.8-10.6 5 0 8.6 2.7 8.6 10v33zM244.102 415c0-18.6-9.4-29.9-25.3-29.9-15.5 0-25 10.5-25 28.6 0 17.3 9.4 27.2 24.7 27.2 12.1 0 21.9-5.5 25-16.1h-13.8c-1.2 3.9-5.6 5.4-10.7 5.4-6.6 0-10.8-3-11.2-13.5h36.2zm-14.6-7.6h-21.5c.9-7.5 4.4-11.6 10.6-11.6 6 0 10.2 3.9 10.9 11.6zM295.7 440v-72.9h-14V440zM355.134 440v-1.7c-2.5-2.3-3.2-3.8-3.2-6.6v-30c0-11-7.5-16.6-22.1-16.6-14.6 0-22.2 6.2-23.1 18.7h13.5c.7-5.6 3-7.4 9.9-7.4 5.4 0 8.1 1.8 8.1 5.4 0 5.7-4.2 5.1-11.2 6.3l-5.6 1c-10.7 1.9-15.9 6.5-15.9 16.3 0 10.5 7.4 15.5 16.4 15.5 6 0 11.5-2.6 16.4-7.7 0 2.8.3 5.2 1.6 6.8zm-16.9-23.1c0 8.1-4 12.7-11.1 12.7-4.7 0-7.6-1.8-7.6-5.8 0-4.1 2.2-5.6 8-6.7l4.8-.9c3.7-.7 4.3-.9 5.9-1.7zM405.198 440v-11.3h-27.4l26.5-31.4V386h-42v11.3h24.9l-26.7 31.4V440zM462.198 386h-14.4l-11.2 39.3-11.9-39.3h-15.4l20.1 56.3v.3c0 5.1-3.8 9-8.7 9-1.1 0-1.9-.1-3.7-.6v10.5c2.1.3 3.3.4 5 .4 9.4 0 14.3-1.7 18-12zM546.297 440v-72.9h-14V393c-3.5-5.4-8.2-7.9-14.9-7.9-12.9 0-22.7 11.7-22.7 28 0 15.3 8.4 27.8 22.7 27.8 6.7 0 11.4-2.5 14.9-7.1v6.2zm-14-26.7c0 9.8-4.8 15.9-11.8 15.9-7 0-11.8-6.2-11.8-16.1 0-10 4.8-16.3 11.8-16.3 7.1 0 11.8 6.2 11.8 16.5zM609.83 413.4c0-18.3-9.9-28.3-26.8-28.3-16.5 0-26.6 10.2-26.6 27.9 0 17.8 10.1 27.9 26.7 27.9 16.4 0 26.7-10.2 26.7-27.5zm-14-.2c0 10.1-5.2 16.4-12.7 16.4-7.6 0-12.7-6.3-12.7-16.6s5.1-16.6 12.7-16.6c7.7 0 12.7 6.2 12.7 16.8zM668.163 441.8V386h-13.3v8.3c-4.2-6.4-8.8-9.2-15-9.2-12.8 0-22.4 11.8-22.4 28.5 0 16.8 8.8 27.3 22.1 27.3 6.3 0 10.1-1.9 15.3-7.1v8c0 6.5-4.9 11-11.9 11-5.3 0-8.8-2.2-9.9-6.3h-14.5c.2 8.8 9.1 15.3 23.9 15.3 16.3 0 25.7-7.3 25.7-20zm-13.1-28.4c0 9.8-5.1 15.8-12.4 15.8-6.6 0-11.2-6-11.2-15.8 0-10.2 4.6-16.6 11.4-16.6 7 0 12.2 6.6 12.2 16.6zM696.595 440v-14.6h-15V440z"/></g></svg>