<svg xmlns="http://www.w3.org/2000/svg" viewBox="0 0 1600 1000" height="1000" width="1600"><path fill="#fff" d="M0 0h1600v1000H0z"/><g font-weight="400" font-size="200" font-family="Helvetica" letter-spacing="-.03em" text-anchor="middle" fill="#222"><path d="M510.64 90.6V74.2h-114.4v16.4h48V220h18.6V90.6zM605.505 220v-79.2c0-17.6-12.6-28.6-33-28.6-14.8 0-23.8 4.6-33.6 17.4V74.2h-16.6V220h16.6v-57.8c0-21.4 11.2-35.4 28.4-35.4 11.8 0 21.6 6.8 21.6 20.6V220zM716.233 172.4c0-15.2-1.2-24.8-4.2-32.6-6.8-17.2-22.8-27.6-42.4-27.6-29.2 0-48 21.6-48 56s18.2 54.8 47.6 54.8c24 0 40.6-13.6 44.8-34.8h-16.8c-4.6 13.8-14 19.4-27.4 19.4-17.4 0-30.4-11.2-30.8-35.2zm-17.8-14.8s0 .8-.2 1.2h-58.8c1.4-18.6 13.2-31.2 30-31.2 16.4 0 29 13.6 29 30zM867.43 263.6V115.2h-14.8v14c-7.8-11-19.6-17-33.4-17-27.6 0-45.6 21.8-45.6 56.6 0 34 17.2 54.2 44.8 54.2 14.6 0 24.6-5.2 32.4-16.6v57.2zm-16.6-95.4c0 24-11.6 39.2-29.2 39.2-18.4 0-30.6-15.4-30.6-39.8 0-24.2 12.2-39.8 30.6-39.8 17.8 0 29.2 16 29.2 40.4zM971.33 220V115.2h-16.6V173c0 21.4-11.2 35.4-28.6 35.4-13.2 0-21.6-8-21.6-20.6v-72.6h-16.6v79.2c0 17.4 13 28.6 33.4 28.6 15.4 0 25.2-5.4 35-19.2V220zM1010.858 220V115.2h-16.6V220zm2.2-120.6V78.6h-20.8v20.8zM1114.19 184h-16.8c-2.8 16.8-11.4 23.6-25.6 23.6-18.4 0-29.4-14.2-29.4-39 0-26.2 10.8-41 29-41 14 0 22.8 8.2 24.8 22.8h16.8c-2-25.6-18-38.2-41.4-38.2-28.2 0-46.6 21.6-46.6 56.4 0 33.8 18 54.4 46.4 54.4 25 0 40.8-15 42.8-39zM1214.36 220l-42.8-68.6 36.4-36.2h-21.4l-44.4 44.4V74.2h-16.6V220h16.6v-40.8l16.2-16 35.4 56.8zM502.89 386.4c0-34-17.2-54.2-44.8-54.2-14.4 0-24.6 5.4-32.4 17.2v-55.2h-16.6V440h15v-15c8 12.2 18.6 18 33.2 18 27.6 0 45.6-22.6 45.6-56.6zm-17.4 1c0 23.8-12.4 40-30.6 40-17.6 0-29.2-16-29.2-39.8 0-24.6 11.6-40.6 29.2-39.8 18.6 0 30.6 16.2 30.6 39.6zM567.817 349.8v-17c-2.8-.4-4.2-.6-6.4-.6-10.8 0-19 6.4-28.6 22v-19h-15.2V440h16.6v-54.4c0-23.6 7.8-35.4 33.6-35.8zM665.242 388.4c0-36.2-17.4-56.2-47.6-56.2-29.4 0-47.2 20.2-47.2 55.4s17.6 55.4 47.4 55.4c29.4 0 47.4-20.2 47.4-54.6zm-17.4-.2c0 24.6-11.6 39.4-30 39.4-18.6 0-30-14.6-30-40 0-25.2 11.4-40 30-40 18.8 0 30 14.6 30 40.6zM808.217 335.2h-18.8l-20.8 81.6-20.6-81.6h-20.4l-20 81.6-21.4-81.6h-18.4l30.4 104.8h18.8l20.2-82.2 21.2 82.2h19zM902.548 440v-79.2c0-17.4-13-28.6-33.2-28.6-15.6 0-25.6 6-34.8 20.6v-17.6h-15.4V440h16.6v-57.8c0-21.4 11.6-35.4 28.6-35.4 13.2 0 21.6 8 21.6 20.6V440zM1011.545 348.8v-13.6h-17.4v-16.4c0-7 4-10.6 11.6-10.6 1.4 0 2 0 5.8.2v-13.8c-3.8-.8-6-1-9.4-1-15.4 0-24.6 8.8-24.6 23.8v17.8h-14v13.6h14V440h16.6v-91.2zM1109.46 388.4c0-36.2-17.4-56.2-47.6-56.2-29.4 0-47.2 20.2-47.2 55.4s17.6 55.4 47.4 55.4c29.4 0 47.4-20.2 47.4-54.6zm-17.4-.2c0 24.6-11.6 39.4-30 39.4-18.6 0-30-14.6-30-40 0-25.2 11.4-40 30-40 18.8 0 30 14.6 30 40.6zM1202.31 440l-36.2-54.2 35.2-50.6h-18.8l-25.2 38-25.2-38h-19l35 51.4-37 53.4h19l26.6-40.2 26.2 40.2zM374.467 681.8V555.2h-16.6v120c0 10-3.4 14.4-13.6 13.8l-4-.2V703c2 .4 3 .6 5.6.6 18.8 0 28.6-7.6 28.6-21.8zm2.2-142.4v-20.8h-20.8v20.8zM478.798 660V555.2h-16.6V613c0 21.4-11.2 35.4-28.6 35.4-13.2 0-21.6-8-21.6-20.6v-72.6h-16.6v79.2c0 17.4 13 28.6 33.4 28.6 15.4 0 25.2-5.4 35-19.2V660zM639.727 660v-78.6c0-18.8-10.4-29.2-30-29.2-14 0-22.4 4.2-32.2 16-6.2-11.2-14.6-16-28.2-16-14 0-23.2 5.2-32.2 17.8v-14.8h-15.2V660h16.6v-65.8c0-15.2 11-27.4 24.6-27.4 12.4 0 19.4 7.6 19.4 21V660h16.6v-65.8c0-15.2 11.2-27.4 24.8-27.4 12.2 0 19.2 7.8 19.2 21V660zM754.295 608.6c0-35.2-17.2-56.4-45-56.4-14.2 0-25.6 6.4-33.4 18.8v-15.8h-15.2v148.4h16.6v-56.2c8.8 10.8 18.6 15.6 32.2 15.6 27 0 44.8-21 44.8-54.4zm-17.4-.4c0 23.8-12.2 39.2-30.4 39.2-17.6 0-29.2-14.4-29.2-39s11.6-40.6 29.2-40.6c18.4 0 30.4 15.4 30.4 40.4zM846.823 630.6c0-15.6-8.8-23.4-29.6-28.4l-16-3.8c-13.6-3.2-19.4-7.6-19.4-15 0-9.6 8.6-15.8 22.2-15.8 13.4 0 20.6 5.8 21 16.8h17.6c-.2-20.6-13.8-32.2-38-32.2-24.4 0-40.2 12.6-40.2 32 0 16.4 8.4 24.2 33.2 30.2l15.6 3.8c11.6 2.8 16.2 6.2 16.2 13.8 0 9.8-9.8 15.6-24.4 15.6-15 0-23.4-3.6-25.6-19.6h-17.6c.8 24.2 14.4 35 41.8 35 26.4 0 43.2-12.2 43.2-32.4zM1000.492 608.4c0-36.2-17.4-56.2-47.6-56.2-29.4 0-47.2 20.2-47.2 55.4s17.6 55.4 47.4 55.4c29.4 0 47.4-20.2 47.4-54.6zm-17.4-.2c0 24.6-11.6 39.4-30 39.4-18.6 0-30-14.6-30-40 0-25.2 11.4-40 30-40 18.8 0 30 14.6 30 40.6zM1097.114 555.2h-18.8l-29.6 85-28-85h-18.8l36.8 104.8h18.2zM1192.608 612.4c0-15.2-1.2-24.8-4.2-32.6-6.8-17.2-22.8-27.6-42.4-27.6-29.2 0-48 21.6-48 56s18.2 54.8 47.6 54.8c24 0 40.6-13.6 44.8-34.8h-16.8c-4.6 13.8-14 19.4-27.4 19.4-17.4 0-30.4-11.2-30.8-35.2zm-17.8-14.8s0 .8-.2 1.2h-58.8c1.4-18.6 13.2-31.2 30-31.2 16.4 0 29 13.6 29 30zM1259.536 569.8v-17c-2.8-.4-4.2-.6-6.4-.6-10.8 0-19 6.4-28.6 22v-19h-15.2V660h16.6v-54.4c0-23.6 7.8-35.4 33.6-35.8zM320.198 880v-14c-2.2.6-4.8.8-8 .8-7.2 0-9.2-2-9.2-9.4v-68.6h17.2v-13.6h-17.2v-28.8h-16.6v28.8h-14.2v13.6h14.2v76c0 10.6 7.2 16.6 20.2 16.6 4 0 8-.4 13.6-1.4zM414.895 880v-79.2c0-17.6-12.6-28.6-33-28.6-14.8 0-23.8 4.6-33.6 17.4v-55.4h-16.6V880h16.6v-57.8c0-21.4 11.2-35.4 28.4-35.4 11.8 0 21.6 6.8 21.6 20.6V880zM525.623 832.4c0-15.2-1.2-24.8-4.2-32.6-6.8-17.2-22.8-27.6-42.4-27.6-29.2 0-48 21.6-48 56s18.2 54.8 47.6 54.8c24 0 40.6-13.6 44.8-34.8h-16.8c-4.6 13.8-14 19.4-27.4 19.4-17.4 0-30.4-11.2-30.8-35.2zm-17.8-14.8s0 .8-.2 1.2h-58.8c1.4-18.6 13.2-31.2 30-31.2 16.4 0 29 13.6 29 30zM608.02 880V734.2h-16.6V880zM723.352 879.6V867c-1.8.4-2.6.4-3.6.4-5.8 0-9-3-9-8.2v-58.4c0-18.6-13.6-28.6-39.4-28.6-25.4 0-41 9.8-42 34h16.8c1.4-12.8 9-18.6 24.6-18.6 15 0 23.4 5.6 23.4 15.6v4.4c0 7-4.2 10-17.4 11.6-23.6 3-27.2 3.8-33.6 6.4-12.2 5-18.4 14.4-18.4 27.2 0 19 13.2 30.2 34.4 30.2 13.4 0 26.4-5.6 35.6-15.4 1.8 8 9 13.8 17.2 13.8 3.4 0 6-.4 11.4-1.8zm-29.2-35.8c0 15-15.2 24.6-31.4 24.6-13 0-20.6-4.6-20.6-16 0-11 7.4-15.8 25.2-18.4 17.6-2.4 21.2-3.2 26.8-5.8zM813.08 880v-14.6h-65l62.2-75.4v-14.8h-78.2v14.6h58.4l-62.6 75.2v15zM911.28 775.2h-18l-29 81.6-26.8-81.6h-17.8l35.4 105.2-6.4 16.6c-2.8 7.4-6.2 10.2-13.4 10.2-2.4 0-5.2-.4-8.8-1.2v15c3.4 1.8 6.8 2.6 11.2 2.6 11.8 0 21.4-6.6 27-21.6zM1058.148 880V734.2h-16.6v54.2c-7-10.6-18.2-16.2-32.2-16.2-27.2 0-45 21-45 54.4 0 35.4 17.4 56.4 45.6 56.4 14.4 0 24.4-5.4 33.4-18.4V880zm-16.6-52c0 24.2-11.6 39.4-29.2 39.4-18.4 0-30.6-15.4-30.6-39.8s12.2-39.8 30.4-39.8c18 0 29.4 16 29.4 40.2zM1166.477 828.4c0-36.2-17.4-56.2-47.6-56.2-29.4 0-47.2 20.2-47.2 55.4s17.6 55.4 47.4 55.4c29.4 0 47.4-20.2 47.4-54.6zm-17.4-.2c0 24.6-11.6 39.4-30 39.4-18.6 0-30-14.6-30-40 0-25.2 11.4-40 30-40 18.8 0 30 14.6 30 40.6zM1267.605 862.8v-87.6h-15.4v15.2c-8.4-12.4-18.6-18.2-32-18.2-26.6 0-44.6 22.4-44.6 56.4 0 33 18.6 54.4 43.2 54.4 13.2 0 22.4-5.6 33.4-18.8v7c0 27.8-11.4 38.4-30.8 38.4-13.2 0-23.4-4.8-25.4-17.6h-17c1.8 19.8 17.2 31.6 41.8 31.6 32.8 0 46.8-14.6 46.8-60.8zm-17-34.6c0 25-10.8 39.4-28.4 39.4-18.2 0-29.2-14.6-29.2-40 0-25.2 11.2-40 29-40 18 0 28.6 15.2 28.6 40.6zM1313.333 880v-20.8h-20.8V880z"/></g></svg>