<svg xmlns="http://www.w3.org/2000/svg" viewBox="0 0 800 500" height="500" width="800"><path fill="#fff" d="M0 0h800v500H0z"/><g font-weight="400" font-size="100" font-family="Helvetica Neue" letter-spacing="-.03em" text-anchor="middle" fill="#222"><path d="M218.75 46.6V110h9.5V46.6h23.8v-8h-57.1v8zM255.572 38.6V110h8.5V80.8q0-3.5.9-6.4 1-3 2.9-5.2t4.7-3.4q2.9-1.2 6.8-1.2 4.9 0 7.7 2.8t2.8 7.6v35h8.5V76q0-4.2-.9-7.6-.8-3.5-2.9-6-2.1-2.5-5.5-3.9t-8.5-1.4q-2.3 0-4.8.5-2.4.5-4.7 1.6-2.2 1-4 2.7-1.8 1.6-2.8 4h-.2V38.6zM344.136 79.2h-29.7q.2-3 1.3-5.6 1.1-2.7 3-4.7t4.5-3.1q2.7-1.2 6-1.2 3.2 0 5.8 1.2 2.7 1.1 4.6 3.1 2 1.9 3.1 4.6 1.2 2.7 1.4 5.7zm8.2 14.4h-8.4q-1.1 5.1-4.6 7.6-3.4 2.5-8.8 2.5-4.2 0-7.3-1.4-3.1-1.4-5.1-3.7-2-2.4-2.9-5.4-.9-3.1-.8-6.5h38.7q.2-4.7-.9-9.9-1-5.2-3.8-9.6-2.7-4.4-7.3-7.2-4.5-2.9-11.4-2.9-5.3 0-9.8 2-4.4 2-7.7 5.6-3.2 3.6-5 8.5-1.8 4.9-1.8 10.8.2 5.9 1.7 10.9 1.6 5 4.7 8.6 3.1 3.6 7.6 5.6 4.6 2 10.8 2 8.8 0 14.6-4.4 5.8-4.4 7.5-13.1zM389.88 84.6q0-3.8.8-7.4.8-3.6 2.6-6.4 1.8-2.8 4.8-4.5 3-1.7 7.3-1.7 4.4 0 7.5 1.7 3.1 1.6 5 4.3 2 2.7 2.9 6.3.9 3.5.9 7.3 0 3.6-.9 7.1-.8 3.5-2.7 6.3-1.9 2.7-4.9 4.4-3 1.7-7.3 1.7-4.1 0-7.2-1.6-3-1.6-5-4.3-1.9-2.7-2.9-6.1-.9-3.5-.9-7.1zm40 45.1V58.3h-8.5v6.9h-.2q-1.4-2.3-3.5-3.8-2-1.6-4.3-2.5-2.3-1-4.6-1.4-2.3-.4-4.3-.4-5.9 0-10.4 2.2-4.4 2.1-7.4 5.8-2.9 3.6-4.4 8.5-1.4 4.9-1.4 10.4t1.5 10.4q1.5 4.9 4.4 8.6 3 3.7 7.4 5.9 4.5 2.2 10.5 2.2 5.4 0 9.9-1.9t6.6-6.2h.2v26.7zM482.856 110V58.3h-8.5v29.2q0 3.5-1 6.5-.9 2.9-2.8 5.1-1.9 2.2-4.8 3.4-2.8 1.2-6.7 1.2-4.9 0-7.7-2.8t-2.8-7.6v-35h-8.5v34q0 4.2.8 7.7.9 3.4 3 5.9 2.1 2.5 5.5 3.9 3.4 1.3 8.5 1.3 5.7 0 9.9-2.2 4.2-2.3 6.9-7.1h.2v8.2zM501.72 49V38.6h-8.5V49zm-8.5 9.3V110h8.5V58.3zM547.086 74.9h8.8q-.5-4.6-2.4-7.9-1.9-3.4-4.9-5.6-2.9-2.2-6.8-3.2-3.8-1.1-8.2-1.1-6.1 0-10.7 2.2-4.6 2.1-7.7 5.9-3 3.7-4.5 8.8-1.5 5-1.5 10.8 0 5.8 1.5 10.7 1.6 4.8 4.6 8.3 3.1 3.5 7.6 5.4 4.6 1.9 10.5 1.9 9.9 0 15.6-5.2 5.8-5.2 7.2-14.8h-8.7q-.8 6-4.4 9.3-3.5 3.3-9.8 3.3-4 0-6.9-1.6-2.9-1.6-4.7-4.2-1.8-2.7-2.7-6.1-.8-3.4-.8-7 0-3.9.8-7.5.8-3.7 2.6-6.5 1.9-2.8 5-4.5 3.1-1.7 7.7-1.7 5.4 0 8.6 2.7 3.2 2.7 4.2 7.6zM563.197 38.6V110h8.5V90.4l8-7.4 17.7 27h10.8l-22-32.9 20.5-18.8h-11.4l-23.6 22.6V38.6zM196.958 148.6V220h8.5v-6.9h.2q1.4 2.3 3.4 3.9 2.1 1.5 4.4 2.4 2.3.9 4.6 1.3 2.4.4 4.3.4 5.9 0 10.3-2.1 4.5-2.1 7.4-5.7 3-3.7 4.4-8.6 1.5-4.9 1.5-10.4t-1.5-10.4q-1.5-4.9-4.5-8.6-2.9-3.8-7.4-6-4.4-2.2-10.4-2.2-5.4 0-9.9 2-4.5 1.9-6.6 6.2h-.2v-26.7zm40 45.1q0 3.8-.8 7.4-.8 3.6-2.6 6.4-1.8 2.8-4.8 4.5-2.9 1.7-7.3 1.7t-7.5-1.6q-3.1-1.7-5.1-4.4-1.9-2.7-2.8-6.2-.9-3.6-.9-7.4 0-3.6.8-7.1.9-3.5 2.8-6.2 1.9-2.8 4.9-4.5 3-1.7 7.3-1.7 4.1 0 7.1 1.6 3.1 1.6 5 4.3 2 2.7 2.9 6.2 1 3.4 1 7zM252.733 168.3V220h8.5v-23q0-5 1-8.8 1-3.9 3.2-6.6 2.2-2.7 5.8-4.1 3.6-1.4 8.7-1.4v-9q-6.9-.2-11.4 2.8t-7.6 9.3h-.2v-10.9zM287.873 194.2q0-4.7 1.2-8.3 1.3-3.7 3.5-6.2t5.1-3.8q3-1.3 6.3-1.3t6.2 1.3q3 1.3 5.2 3.8t3.4 6.2q1.3 3.6 1.3 8.3 0 4.7-1.3 8.4-1.2 3.6-3.4 6.1-2.2 2.4-5.2 3.7-2.9 1.3-6.2 1.3-3.3 0-6.3-1.3-2.9-1.3-5.1-3.7-2.2-2.5-3.5-6.1-1.2-3.7-1.2-8.4zm-9 0q0 5.7 1.6 10.6 1.6 4.9 4.8 8.6 3.2 3.6 7.9 5.7 4.7 2 10.8 2 6.2 0 10.8-2 4.7-2.1 7.9-5.7 3.2-3.7 4.8-8.6 1.6-4.9 1.6-10.6 0-5.7-1.6-10.6-1.6-5-4.8-8.6-3.2-3.7-7.9-5.8-4.6-2.1-10.8-2.1-6.1 0-10.8 2.1-4.7 2.1-7.9 5.8-3.2 3.6-4.8 8.6-1.6 4.9-1.6 10.6zM387.295 220l16.5-51.7h-8.8l-11.6 42.3h-.2l-10.8-42.3h-9.3l-10.4 42.3h-.2l-11.7-42.3h-9.4l16.6 51.7h9.2l10.4-41.1h.2l10.5 41.1zM408.877 168.3V220h8.5v-29.2q0-3.5.9-6.4 1-3 2.9-5.2t4.7-3.4q2.9-1.2 6.8-1.2 4.9 0 7.7 2.8t2.8 7.6v35h8.5v-34q0-4.2-.9-7.6-.8-3.5-2.9-6-2.1-2.5-5.5-3.9t-8.5-1.4q-11.5 0-16.8 9.4h-.2v-8.2zM489.775 175.8V220h8.5v-44.2h10v-7.5h-10v-7.2q0-3.4 1.7-4.6 1.7-1.2 4.8-1.2 1.1 0 2.4.2 1.3.1 2.4.5v-7.4q-1.2-.4-2.8-.6-1.5-.2-2.7-.2-7 0-10.7 3.3-3.6 3.2-3.6 9.5v7.7h-8.7v7.5zM519.163 194.2q0-4.7 1.2-8.3 1.3-3.7 3.5-6.2t5.1-3.8q3-1.3 6.3-1.3t6.2 1.3q3 1.3 5.2 3.8t3.4 6.2q1.3 3.6 1.3 8.3 0 4.7-1.3 8.4-1.2 3.6-3.4 6.1-2.2 2.4-5.2 3.7-2.9 1.3-6.2 1.3-3.3 0-6.3-1.3-2.9-1.3-5.1-3.7-2.2-2.5-3.5-6.1-1.2-3.7-1.2-8.4zm-9 0q0 5.7 1.6 10.6 1.6 4.9 4.8 8.6 3.2 3.6 7.9 5.7 4.7 2 10.8 2 6.2 0 10.8-2 4.7-2.1 7.9-5.7 3.2-3.7 4.8-8.6 1.6-4.9 1.6-10.6 0-5.7-1.6-10.6-1.6-5-4.8-8.6-3.2-3.7-7.9-5.8-4.6-2.1-10.8-2.1-6.1 0-10.8 2.1-4.7 2.1-7.9 5.8-3.2 3.6-4.8 8.6-1.6 4.9-1.6 10.6zM581.284 192.8l-19.4 27.2h10.3l14.4-21.4 14.4 21.4h10.9l-20-27.9 17.8-23.8h-10.2l-12.9 18.1-12.4-18.1h-10.9zM182.94 269v-10.4h-8.5V269zm0 67.5v-58.2h-8.5v56.8q0 4-1 5.5-1 1.6-3.8 1.6h-1.8q-.4 0-.7-.1-.4 0-.9-.1v7.3q2 .4 4.3.4 5.7 0 9-3.2 3.4-3.1 3.4-10zM236.005 330v-51.7h-8.5v29.2q0 3.5-1 6.5-.9 2.9-2.8 5.1-1.9 2.2-4.8 3.4-2.8 1.2-6.7 1.2-4.9 0-7.7-2.8t-2.8-7.6v-35h-8.5v34q0 4.2.8 7.7.9 3.4 3 5.9 2.1 2.5 5.5 3.9 3.4 1.3 8.5 1.3 5.7 0 9.9-2.2 4.2-2.3 6.9-7.1h.2v8.2zM245.87 278.3V330h8.5v-32.2q0-1.5.7-3.7.8-2.3 2.4-4.4 1.7-2.1 4.3-3.6 2.7-1.5 6.4-1.5 2.9 0 4.7.9 1.9.8 3 2.4 1.1 1.5 1.5 3.6.5 2.1.5 4.6V330h8.5v-32.2q0-6 3.6-9.6 3.6-3.6 9.9-3.6 3.1 0 5 .9 2 .9 3.1 2.5 1.1 1.5 1.5 3.6.4 2.1.4 4.5V330h8.5v-37.9q0-4-1.3-6.8-1.2-2.9-3.5-4.7-2.2-1.8-5.4-2.6-3.1-.9-7-.9-5.1 0-9.4 2.3-4.2 2.3-6.8 6.5-1.6-4.8-5.5-6.8t-8.7-2q-10.9 0-16.7 8.8h-.2v-7.6zM328.52 278.3v71.4h8.5v-26.6h.2q1.4 2.3 3.4 3.9 2.1 1.5 4.4 2.4 2.3.9 4.6 1.3 2.4.4 4.3.4 5.9 0 10.3-2.1 4.5-2.1 7.4-5.7 3-3.7 4.4-8.6 1.5-4.9 1.5-10.4t-1.5-10.4q-1.5-4.9-4.5-8.6-2.9-3.8-7.4-6-4.4-2.2-10.4-2.2-5.4 0-9.9 2-4.5 1.9-6.6 6.2h-.2v-7zm40 25.4q0 3.8-.8 7.4-.8 3.6-2.6 6.4-1.8 2.8-4.8 4.5-2.9 1.7-7.3 1.7t-7.5-1.6q-3.1-1.7-5.1-4.4-1.9-2.7-2.8-6.2-.9-3.6-.9-7.4 0-3.6.8-7.1.9-3.5 2.8-6.2 1.9-2.8 4.9-4.5 3-1.7 7.3-1.7 4.1 0 7.1 1.6 3.1 1.6 5 4.3 2 2.7 2.9 6.2 1 3.4 1 7zM389.795 313.7h-8.5q.2 4.8 2 8.2 1.8 3.3 4.8 5.4 3 2 6.9 2.9 3.9.9 8.2.9 3.9 0 7.8-.8 4-.7 7.1-2.6 3.2-1.9 5.1-5 2-3.1 2-7.8 0-3.7-1.5-6.2-1.4-2.5-3.8-4.1-2.3-1.7-5.4-2.7-3-1-6.2-1.7-3-.7-6-1.3-3-.7-5.4-1.6-2.4-1-4-2.4-1.5-1.5-1.5-3.7 0-2 1-3.2 1-1.3 2.6-2 1.6-.8 3.5-1.1 2-.3 3.9-.3 2.1 0 4.1.5 2.1.4 3.8 1.4 1.7 1 2.8 2.7 1.1 1.6 1.3 4.1h8.5q-.3-4.7-2-7.8-1.7-3.2-4.6-5-2.8-1.9-6.5-2.6-3.7-.8-8.1-.8-3.4 0-6.9.9-3.4.8-6.2 2.6-2.7 1.7-4.5 4.5-1.7 2.8-1.7 6.7 0 5 2.5 7.8t6.2 4.4q3.8 1.5 8.2 2.4 4.4.8 8.1 1.9 3.8 1 6.3 2.7 2.5 1.7 2.5 5 0 2.4-1.2 4-1.2 1.5-3.1 2.3-1.8.8-4 1.1-2.2.3-4.2.3-2.6 0-5.1-.5-2.4-.5-4.4-1.6-1.9-1.2-3.1-3.1-1.2-2-1.3-4.8zM462.53 304.2q0-4.7 1.2-8.3 1.3-3.7 3.5-6.2t5.1-3.8q3-1.3 6.3-1.3t6.2 1.3q3 1.3 5.2 3.8t3.4 6.2q1.3 3.6 1.3 8.3 0 4.7-1.3 8.4-1.2 3.6-3.4 6.1-2.2 2.4-5.2 3.7-2.9 1.3-6.2 1.3-3.3 0-6.3-1.3-2.9-1.3-5.1-3.7-2.2-2.5-3.5-6.1-1.2-3.7-1.2-8.4zm-9 0q0 5.7 1.6 10.6 1.6 4.9 4.8 8.6 3.2 3.6 7.9 5.7 4.7 2 10.8 2 6.2 0 10.8-2 4.7-2.1 7.9-5.7 3.2-3.7 4.8-8.6 1.6-4.9 1.6-10.6 0-5.7-1.6-10.6-1.6-5-4.8-8.6-3.2-3.7-7.9-5.8-4.6-2.1-10.8-2.1-6.1 0-10.8 2.1-4.7 2.1-7.9 5.8-3.2 3.6-4.8 8.6-1.6 4.9-1.6 10.6zM534.052 330l18.9-51.7h-8.9l-14.1 43.1h-.2l-14.5-43.1h-9.5l19.2 51.7zM593.652 299.2h-29.7q.2-3 1.3-5.6 1.1-2.7 3-4.7t4.5-3.1q2.7-1.2 6-1.2 3.2 0 5.8 1.2 2.7 1.1 4.6 3.1 2 1.9 3.1 4.6 1.2 2.7 1.4 5.7zm8.2 14.4h-8.4q-1.1 5.1-4.6 7.6-3.4 2.5-8.8 2.5-4.2 0-7.3-1.4-3.1-1.4-5.1-3.7-2-2.4-2.9-5.4-.9-3.1-.8-6.5h38.7q.2-4.7-.9-9.9-1-5.2-3.8-9.6-2.7-4.4-7.3-7.2-4.5-2.9-11.4-2.9-5.3 0-9.8 2-4.4 2-7.7 5.6-3.2 3.6-5 8.5-1.8 4.9-1.8 10.8.2 5.9 1.7 10.9 1.6 5 4.7 8.6 3.1 3.6 7.6 5.6 4.6 2 10.8 2 8.8 0 14.6-4.4 5.8-4.4 7.5-13.1zM608.163 278.3V330h8.5v-23q0-5 1-8.8 1-3.9 3.2-6.6 2.2-2.7 5.8-4.1 3.6-1.4 8.7-1.4v-9q-6.9-.2-11.4 2.8t-7.6 9.3h-.2v-10.9zM150.067 388.3v-15.5h-8.5v15.5h-8.8v7.5h8.8v32.9q0 3.6.7 5.8.7 2.2 2.1 3.4 1.5 1.2 3.8 1.7 2.4.4 5.7.4h6.5v-7.5h-3.9q-2 0-3.3-.1-1.2-.2-1.9-.7-.7-.5-1-1.4-.2-.9-.2-2.4v-32.1h10.3v-7.5zM166.713 368.6V440h8.5v-29.2q0-3.5.9-6.4 1-3 2.9-5.2t4.7-3.4q2.9-1.2 6.8-1.2 4.9 0 7.7 2.8t2.8 7.6v35h8.5v-34q0-4.2-.9-7.6-.8-3.5-2.9-6-2.1-2.5-5.5-3.9t-8.5-1.4q-2.3 0-4.8.5-2.4.5-4.7 1.6-2.2 1-4 2.7-1.8 1.6-2.8 4h-.2v-27.3zM255.277 409.2h-29.7q.2-3 1.3-5.6 1.1-2.7 3-4.7t4.5-3.1q2.7-1.2 6-1.2 3.2 0 5.8 1.2 2.7 1.1 4.6 3.1 2 1.9 3.1 4.6 1.2 2.7 1.4 5.7zm8.2 14.4h-8.4q-1.1 5.1-4.6 7.6-3.4 2.5-8.8 2.5-4.2 0-7.3-1.4-3.1-1.4-5.1-3.7-2-2.4-2.9-5.4-.9-3.1-.8-6.5h38.7q.2-4.7-.9-9.9-1-5.2-3.8-9.6-2.7-4.4-7.3-7.2-4.5-2.9-11.4-2.9-5.3 0-9.8 2-4.4 2-7.7 5.6-3.2 3.6-5 8.5-1.8 4.9-1.8 10.8.2 5.9 1.7 10.9 1.6 5 4.7 8.6 3.1 3.6 7.6 5.6 4.6 2 10.8 2 8.8 0 14.6-4.4 5.8-4.4 7.5-13.1zM295.322 368.6V440h8.5v-71.4zM359.887 439.8v-6.6q-1.5.5-2.6.5-2 0-2.4-1.4-.3-1.4-.3-4.4v-26.6q0-4.5-1.7-7.3t-4.5-4.3q-2.8-1.6-6.3-2.1-3.4-.5-6.9-.5-4.3 0-8.2.9-3.9.9-6.9 3-3 2-4.8 5.3-1.8 3.3-2 8.1h8.5q.3-5.7 3.9-7.7 3.6-2.1 9-2.1 2 0 4 .3 2.1.3 3.7 1.2 1.7.9 2.7 2.6 1.1 1.7 1.1 4.5 0 2.4-1.4 3.7-1.4 1.2-3.8 1.9-2.4.6-5.6 1-3.1.3-6.6 1-3.3.6-6.5 1.5-3.1.9-5.6 2.7-2.4 1.7-3.9 4.5t-1.5 7.2q0 3.9 1.3 6.7 1.4 2.7 3.7 4.5 2.4 1.7 5.5 2.4 3.1.8 6.6.8 5.4 0 10-1.8 4.7-1.9 8.2-6.1 0 4.2 1.9 6.1 2 1.8 5.3 1.8 3.9 0 6.1-1.3zm-13.8-26.5v8.7q0 1.8-.9 3.9-.9 2-2.8 3.8-1.9 1.7-4.9 2.9-3 1.1-7.2 1.1-1.9 0-3.8-.4-1.8-.4-3.2-1.3-1.3-.9-2.2-2.3-.8-1.5-.8-3.6 0-3.2 1.4-5 1.5-1.9 3.8-2.9t5.2-1.4q2.9-.5 5.7-.8 2.9-.4 5.5-.9 2.6-.6 4.2-1.8zM360.598 433.5v6.5h43.6v-7.5h-33l31.6-38.4v-5.8h-40.2v7.5h29.2zM430.145 446.8l22.5-58.5h-9l-14.5 42.3h-.2l-15.1-42.3h-9.6l20.5 51.4-3.5 8.7q-1.2 2.3-2.8 3.5-1.6 1.2-4.2 1.2-1.3 0-2.6-.4l-2.4-.8v7.8q1.4.5 2.9.7 1.5.2 3 .2 2.9 0 5-.8 2.1-.7 3.8-2.4 1.8-1.6 3.2-4.2 1.5-2.6 3-6.4zM487.78 414.6q0-3.8.8-7.4.8-3.6 2.6-6.4 1.8-2.8 4.8-4.5 3-1.7 7.3-1.7 4.4 0 7.5 1.7 3.1 1.6 5 4.3 2 2.7 2.9 6.3.9 3.5.9 7.3 0 3.6-.9 7.1-.8 3.5-2.7 6.3-1.9 2.7-4.9 4.4-3 1.7-7.3 1.7-4.1 0-7.2-1.6-3-1.6-5-4.3-1.9-2.7-2.9-6.1-.9-3.5-.9-7.1zm40 25.4v-71.4h-8.5v26.6h-.2q-1.4-2.3-3.5-3.8-2-1.6-4.3-2.5-2.3-1-4.6-1.4-2.3-.4-4.3-.4-5.9 0-10.4 2.2-4.4 2.1-7.4 5.8-2.9 3.6-4.4 8.5-1.4 4.9-1.4 10.4t1.5 10.4q1.5 4.9 4.4 8.6 3 3.7 7.4 5.9 4.5 2.2 10.5 2.2 5.4 0 9.9-1.9t6.6-6.2h.2v7zM544.155 414.2q0-4.7 1.2-8.3 1.3-3.7 3.5-6.2t5.1-3.8q3-1.3 6.3-1.3t6.2 1.3q3 1.3 5.2 3.8t3.4 6.2q1.3 3.6 1.3 8.3 0 4.7-1.3 8.4-1.2 3.6-3.4 6.1-2.2 2.4-5.2 3.7-2.9 1.3-6.2 1.3-3.3 0-6.3-1.3-2.9-1.3-5.1-3.7-2.2-2.5-3.5-6.1-1.2-3.7-1.2-8.4zm-9 0q0 5.7 1.6 10.6 1.6 4.9 4.8 8.6 3.2 3.6 7.9 5.7 4.7 2 10.8 2 6.2 0 10.8-2 4.7-2.1 7.9-5.7 3.2-3.7 4.8-8.6 1.6-4.9 1.6-10.6 0-5.7-1.6-10.6-1.6-5-4.8-8.6-3.2-3.7-7.9-5.8-4.6-2.1-10.8-2.1-6.1 0-10.8 2.1-4.7 2.1-7.9 5.8-3.2 3.6-4.8 8.6-1.6 4.9-1.6 10.6zM636.977 435.6v-47.3h-8v7.4h-.1q-2.3-4.3-6.4-6.4-4.1-2.2-9-2.2-6.7 0-11.3 2.6-4.6 2.5-7.4 6.5-2.8 3.9-4 8.8-1.2 4.8-1.2 9.4 0 5.3 1.4 10.1 1.5 4.7 4.4 8.3 2.9 3.5 7.2 5.6 4.3 2.1 10.1 2.1 5 0 9.4-2.2 4.5-2.3 6.7-7.1h.2v3.4q0 4.3-.9 7.9-.8 3.6-2.7 6.1-1.9 2.6-4.8 4-2.9 1.5-7.1 1.5-2.1 0-4.4-.5-2.3-.4-4.3-1.4-1.9-1-3.3-2.6-1.3-1.6-1.4-3.9h-8.5q.2 4.2 2.2 7.1 2 2.9 5 4.7 3.1 1.8 6.8 2.6 3.8.8 7.4.8 12.4 0 18.2-6.3 5.8-6.3 5.8-19zm-23.8-2.5q-4.2 0-7-1.7-2.8-1.8-4.5-4.6-1.7-2.9-2.4-6.4-.7-3.5-.7-7 0-3.7.8-7.1.9-3.4 2.7-6 1.9-2.6 4.8-4.1 2.9-1.6 7-1.6 4 0 6.8 1.6t4.5 4.3q1.8 2.6 2.6 5.9.8 3.3.8 6.7 0 3.6-.9 7.2-.8 3.6-2.6 6.5-1.8 2.8-4.8 4.6-2.9 1.7-7.1 1.7zM648.698 428.9V440h11.1v-11.1z"/></g></svg>