<svg xmlns="http://www.w3.org/2000/svg" viewBox="0 0 1600 1000" height="1000" width="1600"><path fill="#fff" d="M0 0h1600v1000H0z"/><g font-weight="700" font-size="200" font-family="Helvetica" letter-spacing="-.03em" text-anchor="middle" fill="#222"><path d="M478.436 99.2v-25h-116.8v25h44.2V220h30V99.2zM583.302 220v-72.4c0-25.2-14.8-37.4-35.2-37.4-13.8 0-23.8 5.6-31.6 17.4V74.2h-28V220h28v-64.8c0-12.4 9-21.2 21.6-21.2 10 0 17.2 5.4 17.2 20v66zM696.367 170c0-37.2-18.8-59.8-50.6-59.8-31 0-50 21-50 57.2 0 34.6 18.8 54.4 49.4 54.4 24.2 0 43.8-11 50-32.2h-27.6c-2.4 7.8-11.2 10.8-21.4 10.8-13.2 0-21.6-6-22.4-27h72.4zm-29.2-15.2h-43c1.8-15 8.8-23.2 21.2-23.2 12 0 20.4 7.8 21.8 23.2zM854.964 263.6V112h-28v16c-6.6-11.8-16.6-17.8-30-17.8-26 0-45.2 22.8-45.2 55.8 0 32.4 17.4 55.8 45 55.8 13.6 0 23.6-4.4 30.2-16.2v58zm-28-97c0 19.6-9.6 31.8-23.6 31.8-14 0-23.6-12.2-23.6-32.4s9.6-32.4 23.6-32.4c14.2 0 23.6 12 23.6 33zM971.802 220V112h-28v64.8c0 12.8-9 21.2-22.6 21.2-12 0-18-6.4-18-19.4V112h-28v72.4c0 23.8 13.2 37.4 36.2 37.4 14.6 0 24.4-5.4 32.4-16V220zM1021.267 220V112h-28v108zm.4-121V71h-28v28zM1133.736 182.6h-26.8c-3.6 11.2-9.2 16.6-20 16.6-14.2 0-22.8-11.4-22.8-32.4 0-19.8 5.2-34 22.8-34 11.4 0 16.8 5.4 20 19.6h26.8c-2-26.4-19.6-42.2-46.6-42.2-32.2 0-51 19.8-51 56.6 0 35.6 18.6 55 50.6 55 26.2 0 44.4-16.2 47-39.2zM1245.436 220l-39.4-67.2 36.8-40.8h-31.8l-35.4 42V74.2h-28V220h28v-35.4l11.2-12.2 25.8 47.6zM468.563 387.4c0-30.6-17-57.2-45.4-57.2-13.4 0-23 5-29.8 15.8v-51.8h-28V440h28v-12.4c6.8 9.2 16.2 14.2 29.8 14.2 25.8 0 45.4-21.8 45.4-54.4zm-28-1.2c0 19.6-9.8 32.2-23.6 32.2-14.2 0-23.6-12.2-23.6-32.8 0-19.6 9.6-32 23.6-32 13.8 0 23.6 12.6 23.6 32.6zM543.828 358.8v-28.4c-1.6-.2-2.6-.2-3.4-.2-12.8 0-24 8.4-30 23V332h-28v108h28v-57.4c0-16.4 8.2-24.6 24.6-24.6 3 0 5 .2 8.8.8zM655.362 386.8c0-36.6-19.8-56.6-53.6-56.6-33 0-53.2 20.4-53.2 55.8 0 35.6 20.2 55.8 53.4 55.8 32.8 0 53.4-20.4 53.4-55zm-28-.4c0 20.2-10.4 32.8-25.4 32.8-15.2 0-25.4-12.6-25.4-33.2s10.2-33.2 25.4-33.2c15.4 0 25.4 12.4 25.4 33.6zM809.075 332h-29l-16.4 75.6-16.2-75.6h-28l-16.4 75.6-17.2-75.6h-29l30.4 108h28.8l17.2-76.2 16.2 76.2h29zM914.544 440v-72.4c0-23.8-13.2-37.4-36.2-37.4-14.6 0-24.4 5.4-32.4 17.4V332h-28v108h28v-64.8c0-12.8 9-21.2 22.6-21.2 12 0 18 6.6 18 19.4V440zM1033.678 352.8v-18.6h-16.6v-10.6c0-5.6 2.4-8.4 7.6-8.4 2.4 0 5.6.2 8 .6v-21c-5.2-.4-12.2-.6-16-.6-18.6 0-27.6 8.8-27.6 27v13h-15.2v18.6h15.2V440h28v-87.2zM1143.722 386.8c0-36.6-19.8-56.6-53.6-56.6-33 0-53.2 20.4-53.2 55.8 0 35.6 20.2 55.8 53.4 55.8 32.8 0 53.4-20.4 53.4-55zm-28-.4c0 20.2-10.4 32.8-25.4 32.8-15.2 0-25.4-12.6-25.4-33.2s10.2-33.2 25.4-33.2c15.4 0 25.4 12.4 25.4 33.6zM1248.11 440l-36-54.4 35.2-53.6h-33.6l-17.4 32.6-17.6-32.6h-33.6l35.2 53.6-36 54.4h33.6l18.4-33.6 18.2 33.6zM341.922 678.8V552h-28v120.6c0 6.2-2.2 8.4-8.2 8.4-1.8 0-3-.2-5-.8v22.4c5.6.6 12.6 1 16.6 1 17.4 0 24.6-7.2 24.6-24.8zm0-139.8v-28h-28v28zM457.59 660V552h-28v64.8c0 12.8-9 21.2-22.6 21.2-12 0-18-6.4-18-19.4V552h-28v72.4c0 23.8 13.2 37.4 36.2 37.4 14.6 0 24.4-5.4 32.4-16V660zM630.456 660v-76.4c0-21-12.8-33.4-34.4-33.4-13.6 0-23.2 4.8-31.6 16-5.2-10.2-16-16-29.4-16-12.4 0-20.4 4.2-29.6 15.2V552h-27.8v108h28v-64.8c0-13.2 7.2-21.2 19.2-21.2 9.4 0 15.2 5.4 15.2 14v72h28v-64.8c0-13.2 7.2-21.2 19.2-21.2 9.4 0 15.2 5.4 15.2 14v72zM753.362 606c0-32-17-55.8-45.2-55.8-13.6 0-23.2 5.8-30 17.8v-16h-28v151.6h28v-58c6.8 12 16.4 16.2 30 16.2 26 0 45.2-23 45.2-55.8zm-28 .4c0 19.6-9.8 32-23.6 32-14 0-23.6-12.2-23.6-32.4s9.6-32.4 23.6-32.4c14.2 0 23.6 12.2 23.6 32.8zM858.828 628v-1.4c0-12.4-7-21.6-21.2-25.8l-35.4-10.2c-7.8-2.2-9.8-4-9.8-8.4 0-6 6.4-10 16.2-10 13.4 0 20 4.8 20.2 14.6h27c-.4-22.8-18-36.6-47-36.6-27.4 0-44.4 13.8-44.4 36 0 13.2 3.6 20.4 23.6 26.6l33.4 10.4c7 2.2 9.4 4.4 9.4 7.4 0 6.6-7.8 9.2-20.8 9.2-12.8 0-19.6-2.4-22-14h-27.4c.8 23.6 18.2 36 51 36 30.4 0 47.2-12 47.2-33.8zM1023.425 606.8c0-36.6-19.8-56.6-53.6-56.6-33 0-53.2 20.4-53.2 55.8 0 35.6 20.2 55.8 53.4 55.8 32.8 0 53.4-20.4 53.4-55zm-28-.4c0 20.2-10.4 32.8-25.4 32.8-15.2 0-25.4-12.6-25.4-33.2s10.2-33.2 25.4-33.2c15.4 0 25.4 12.4 25.4 33.6zM1128.013 552h-29.6l-21.8 79-23.4-79h-29.6l37.8 108h29.4zM1228.016 610c0-37.2-18.8-59.8-50.6-59.8-31 0-50 21-50 57.2 0 34.6 18.8 54.4 49.4 54.4 24.2 0 43.8-11 50-32.2h-27.6c-2.4 7.8-11.2 10.8-21.4 10.8-13.2 0-21.6-6-22.4-27h72.4zm-29.2-15.2h-43c1.8-15 8.8-23.2 21.2-23.2 12 0 20.4 7.8 21.8 23.2zM1302.344 578.8v-28.4c-1.6-.2-2.6-.2-3.4-.2-12.8 0-24 8.4-30 23V552h-28v108h28v-57.4c0-16.4 8.2-24.6 24.6-24.6 3 0 5 .2 8.8.8zM290.34 880v-19.6c-2.8.4-4.4.6-6.4.6-7.4 0-9.2-2.2-9.2-11.8v-56.4h15.6v-18.6h-15.6v-29h-28v29h-13.8v18.6h13.8v64c0 17 9 24 27.4 24 6.2 0 11.2-.6 16.2-.8zM399.137 880v-72.4c0-25.2-14.8-37.4-35.2-37.4-13.8 0-23.8 5.6-31.6 17.4v-53.4h-28V880h28v-64.8c0-12.4 9-21.2 21.6-21.2 10 0 17.2 5.4 17.2 20v66zM512.203 830c0-37.2-18.8-59.8-50.6-59.8-31 0-50 21-50 57.2 0 34.6 18.8 54.4 49.4 54.4 24.2 0 43.8-11 50-32.2h-27.6c-2.4 7.8-11.2 10.8-21.4 10.8-13.2 0-21.6-6-22.4-27h72.4zm-29.2-15.2h-43c1.8-15 8.8-23.2 21.2-23.2 12 0 20.4 7.8 21.8 23.2zM603.4 880V734.2h-28V880zM716.27 880v-3.4c-5-4.6-6.4-7.6-6.4-13.2v-60c0-22-15-33.2-44.2-33.2-29.2 0-44.4 12.4-46.2 37.4h27c1.4-11.2 6-14.8 19.8-14.8 10.8 0 16.2 3.6 16.2 10.8 0 11.4-8.4 10.2-22.4 12.6l-11.2 2c-21.4 3.8-31.8 13-31.8 32.6 0 21 14.8 31 32.8 31 12 0 23-5.2 32.8-15.4 0 5.6.6 10.4 3.2 13.6zm-33.8-46.2c0 16.2-8 25.4-22.2 25.4-9.4 0-15.2-3.6-15.2-11.6 0-8.2 4.4-11.2 16-13.4l9.6-1.8c7.4-1.4 8.6-1.8 11.8-3.4zM810.397 880v-22.6h-54.8l53-62.8V772h-84v22.6h49.8l-53.4 62.8V880zM918.397 772h-28.8l-22.4 78.6-23.8-78.6h-30.8l40.2 112.6v.6c0 10.2-7.6 18-17.4 18-2.2 0-3.8-.2-7.4-1.2v21c4.2.6 6.6.8 10 .8 18.8 0 28.6-3.4 36-24zM1074.594 880V734.2h-28V786c-7-10.8-16.4-15.8-29.8-15.8-25.8 0-45.4 23.4-45.4 56 0 30.6 16.8 55.6 45.4 55.6 13.4 0 22.8-5 29.8-14.2V880zm-28-53.4c0 19.6-9.6 31.8-23.6 31.8-14 0-23.6-12.4-23.6-32.2 0-20 9.6-32.6 23.6-32.6 14.2 0 23.6 12.4 23.6 33zM1195.66 826.8c0-36.6-19.8-56.6-53.6-56.6-33 0-53.2 20.4-53.2 55.8 0 35.6 20.2 55.8 53.4 55.8 32.8 0 53.4-20.4 53.4-55zm-28-.4c0 20.2-10.4 32.8-25.4 32.8-15.2 0-25.4-12.6-25.4-33.2s10.2-33.2 25.4-33.2c15.4 0 25.4 12.4 25.4 33.6zM1306.325 883.6V772h-26.6v16.6c-8.4-12.8-17.6-18.4-30-18.4-25.6 0-44.8 23.6-44.8 57 0 33.6 17.6 54.6 44.2 54.6 12.6 0 20.2-3.8 30.6-14.2v16c0 13-9.8 22-23.8 22-10.6 0-17.6-4.4-19.8-12.6h-29c.4 17.6 18.2 30.6 47.8 30.6 32.6 0 51.4-14.6 51.4-40zm-26.2-56.8c0 19.6-10.2 31.6-24.8 31.6-13.2 0-22.4-12-22.4-31.6 0-20.4 9.2-33.2 22.8-33.2 14 0 24.4 13.2 24.4 33.2zM1357.19 880v-29.2h-30V880z"/></g></svg>