<svg xmlns="http://www.w3.org/2000/svg" viewBox="0 0 800 500"><path fill="#fff" d="M0 0h800v500H0z"/><g font-weight="400" font-size="100" font-family="Inconsolata" text-anchor="middle" fill="#111"><path d="M178.1 47.6h43.2v6.3h-18.4V110h-7.1V53.9h-17.7zM232 110V43.5h8.3v.1q.1 0 .1.1 0 .3-.5.9-.4.5-.6 1.3v26.5q2.7-4.2 6.7-6.7 4.1-2.5 8.3-2.5 3.1 0 5.6 1.1 2.6 1 4.5 3.3t2.9 5.9q1 3.6 1 8.8V110h-7.1V82.5q0-7.2-2.5-10.1-2.4-2.9-5.9-2.9-2.3 0-4.6 1t-4.5 2.8q-2.1 1.8-3.3 4.4-1.1 2.6-1.1 6V110zM300.9 63.2q3.6 0 7 1.3t5.9 4q2.6 2.6 4.1 6.7 1.6 4.1 1.6 9.7 0 .8-.1 1.7 0 .8-.1 1.6h-32.5q.2 4.8 1.6 8.1 1.5 3.2 3.7 5.2t4.9 2.9q2.7.8 5.4.8 7.1 0 11.8-5.1l4 3.9q-5.8 7-16 7-5 0-9.2-1.5-4.1-1.6-7-4.6-2.9-3-4.5-7.4-1.6-4.5-1.6-10.2 0-5.8 1.6-10.3 1.7-4.5 4.5-7.5 2.9-3.1 6.7-4.7 3.8-1.6 8.2-1.6zm-13.8 19.4h25.1v-.7q.1-.4.1-.9 0-2.5-1-4.7-.9-2.3-2.5-3.9-1.6-1.7-3.8-2.7-2.1-1-4.6-1-4.7 0-8.5 3.4-3.8 3.3-4.8 10.5zM412.4 71v-6.7h6.8v62.4H412v-24q-2.1 3.8-5.9 6.1-3.8 2.2-8.1 2.2-3.9 0-7.4-1.7-3.4-1.8-6-5-2.5-3.2-4-7.7-1.4-4.5-1.4-10t1.6-9.8q1.6-4.4 4.3-7.4 2.8-3.1 6.4-4.7 3.7-1.6 7.8-1.6 8.4 0 12.4 6.7.7 1 .7 1.2zm-13.1-2q-2.6 0-4.9 1.1-2.3 1-4.1 3.1-1.7 2.1-2.8 5.4-1 3.2-1 7.5 0 4.4 1 7.9 1.1 3.4 2.9 5.8 1.8 2.4 4.1 3.7 2.4 1.2 5.1 1.2 5.7 0 8.9-4.3 3.3-4.3 3.3-13.9 0-9.8-3.4-13.6-3.4-3.9-9.1-3.9zM431.3 64.3h7.2v25.5q0 4.4.8 7.4.8 2.9 2.2 4.7 1.5 1.8 3.3 2.6 1.9.8 4.1.8 2.4-.2 4.6-1.2 2.2-1 3.9-2.8 1.8-1.9 2.8-4.8 1-2.9 1-7V64.3h7.3v41.6q0 2.3.5 4.1h-7.6q-.1-.7-.2-1.5-.1-.9 0-2l.1-3.5q-2.2 3.8-6 6-3.7 2.1-8.2 2.1-3.5 0-6.3-1.2-2.8-1.3-5.1-3.9-2.2-2.6-3.4-6.6-1.1-4-1.1-9.6zM485.6 64.3h18.3v39.9h10.7v5.8H485v-5.8h11.7V70.1h-11.1zm11.2-18.4q1.5-1.5 3.6-1.5T504 46q1.6 1.5 1.6 3.6t-1.6 3.6q-1.5 1.5-3.6 1.5t-3.6-1.5q-1.5-1.5-1.5-3.6 0-2.2 1.5-3.7zM570.7 71.9l-5.1 5.9q-.5-.3-.5-.6.1-.4-.1-1-.1-.6-.7-1.5t-2.4-2.4q-3.4-2.8-9.3-2.8-2.9 0-5.6 1.2-2.6 1.2-4.6 3.5-2 2.2-3.2 5.4-1.2 3.1-1.2 7t1.2 7.2q1.2 3.3 3.3 5.7 2.1 2.4 5 3.8 2.9 1.3 6.4 1.3 6.9 0 11.9-5.6l4.2 4.9q-6.8 7.2-16.7 7.2-4.9 0-9.1-1.8-4.1-1.8-7.2-5-3-3.2-4.7-7.5-1.7-4.4-1.7-9.6 0-5.1 1.7-9.5t4.7-7.5q3.1-3.2 7.3-5 4.3-1.8 9.3-1.8 5.4 0 9.8 2.3 4.5 2.2 7.3 6.2zM581.6 43.5h8.2q0 .6-.5 1.3-.4.7-.4 1.3v39.2l22.9-21.2q2.3.5 5.3.5h2.6l-19.2 18.1 22.4 27.3-9.3.4-18.7-23.3-6 5.6V110h-7.3zM181 153.5h8.4v.2q0 .5-.6 1-.5.4-.5 1v25.6q2.2-3.7 5.9-5.9 3.8-2.2 7.7-2.2 3.8 0 7.2 1.5 3.4 1.4 6 4.4 2.6 2.9 4.1 7.3 1.5 4.4 1.5 10.3 0 6.2-1.7 10.8-1.6 4.5-4.3 7.6-2.7 3-6.1 4.5-3.4 1.5-7 1.5-4.2 0-7.7-1.9t-5.8-5.2l-2.5 6H181zm12.5 59.5q1.9 1 3.4 1.4 1.5.3 2.8.3 2 0 4.4-.7 2.4-.8 4.4-2.7 2.1-1.9 3.4-5.1 1.4-3.2 1.4-8.1 0-9.1-3.7-13.9-3.7-4.8-10.7-4.8-2.5 0-5.3 1.8t-4.1 4.8q-1.2 3-1.2 9.8 0 4.2.2 7.1.2 2.9.8 4.9.6 1.9 1.6 3.1 1 1.2 2.6 2.1zM234.9 174.3h7.5l-.2 8.8q2.1-4.8 6.6-7.3 4.6-2.6 9.8-2.6 7.4 0 12.2 5l-3.3 6.9q-1.1-1.5-2-2.5-.9-1-2-1.7-1-.7-2.3-1.1-1.2-.4-3-.4-3.3 0-6.2 1.6-2.9 1.5-5.1 4.1-2.1 2.5-3.4 5.8-1.3 3.3-1.3 6.9v22.3h-7.3zM300.4 173.3q4.2 0 7.9 1.7 3.8 1.6 6.6 4.7t4.4 7.6q1.7 4.4 1.7 9.9 0 5.6-1.6 10t-4.4 7.6q-2.8 3.1-6.6 4.8-3.8 1.6-8.1 1.6-4.4 0-8.3-1.8-3.8-1.8-6.7-4.9-2.9-3.2-4.6-7.6-1.7-4.4-1.7-9.5t1.7-9.6q1.8-4.5 4.7-7.6 3-3.2 6.9-5 3.9-1.9 8.1-1.9zm13.4 24.1q0-4.3-1.2-7.6-1.1-3.4-3-5.7-1.9-2.3-4.4-3.5-2.4-1.2-5.1-1.2-2.7 0-5.2 1.2-2.4 1.2-4.3 3.5-1.8 2.3-2.9 5.6-1.1 3.2-1.1 7.3 0 4 1.1 7.3t2.9 5.7q1.9 2.4 4.4 3.7 2.5 1.3 5.3 1.3t5.2-1.1q2.5-1.2 4.3-3.4 1.9-2.3 2.9-5.6 1.1-3.3 1.1-7.5zM326.6 174.3h7.3v.4q0 .6-.2 1.4-.2.7-.2 1.4 0 .4.1.6l6.7 32.9 7.8-32.4h4.4l9.7 32.3q1.3-8.8 2.1-14.5.9-5.7 1.3-9.4.5-3.8.6-6.2.2-2.5.2-5v-1.5h6.7q-1.5 11.6-3.4 23t-4.2 22.8h-6.8l-8.4-29.6-8 29.6h-6.5zM381.8 220v-45.7h7.4v8.1q2.6-4.2 6.6-6.7 4.1-2.5 8.3-2.5 3 0 5.6 1.1 2.6 1 4.5 3.3t2.9 5.9q1.1 3.6 1.1 8.8V220h-7.1v-27.5q0-7.2-2.5-10.1-2.4-2.9-5.9-2.9-2.3 0-4.7 1-2.4 1-4.4 2.9-1.9 1.8-3.2 4.4-1.2 2.6-1.2 5.9V220zM509.3 152.9q8.7 0 14 6.3l-3.3 6.6q-.8 0-.8-.8t-.2-1.2q-1.6-2.3-4.3-3.7-2.6-1.5-5.7-1.5-2.6 0-4.5.8-1.9.7-3.4 2.4t-2.3 4.6q-.7 2.9-.7 7.1v3.5h15v5.7h-15V220h-6.9v-37.3h-9.9V177h9.9v-4.5q0-5.3 1.3-9 1.4-3.8 3.9-6.1 2.6-2.3 5.8-3.4 3.3-1.1 7.1-1.1zM550.4 173.3q4.2 0 7.9 1.7 3.8 1.6 6.6 4.7t4.4 7.6q1.7 4.4 1.7 9.9 0 5.6-1.6 10t-4.4 7.6q-2.8 3.1-6.6 4.8-3.8 1.6-8.1 1.6-4.4 0-8.3-1.8-3.8-1.8-6.7-4.9-2.9-3.2-4.6-7.6-1.7-4.4-1.7-9.5t1.7-9.6q1.8-4.5 4.7-7.6 3-3.2 6.9-5 3.9-1.9 8.1-1.9zm13.4 24.1q0-4.3-1.2-7.6-1.1-3.4-3-5.7-1.9-2.3-4.4-3.5-2.4-1.2-5.1-1.2-2.7 0-5.2 1.2-2.4 1.2-4.3 3.5-1.8 2.3-2.9 5.6-1.1 3.2-1.1 7.3 0 4 1.1 7.3t2.9 5.7q1.9 2.4 4.4 3.7 2.5 1.3 5.3 1.3t5.2-1.1q2.5-1.2 4.3-3.4 1.9-2.3 2.9-5.6 1.1-3.3 1.1-7.5zM611.2 174.3h7.4l-14.8 22.2 16.8 23.5h-8.2l-12.6-17.8-11.9 17.8h-8.2l16.1-23.2-15.8-22.5h7.9l11.9 16.9zM162.6 284.3h24.3v43.5q0 5.2-1.4 8.8-1.4 3.7-3.9 6-2.4 2.3-5.7 3.4-3.3 1.2-7.1 1.4-8.8 0-14-6.4l4.7-6.2q.5.5.5 1 .1.5.4 1.1.3.6 1.2 1.3.9.8 3 1.9 2.2 1.1 4.7 1.1 4.5 0 7.4-3.1 2.9-3 2.9-9.9v-38h-17zm17-18.4q1.5-1.5 3.7-1.5 2.1 0 3.6 1.5 1.6 1.5 1.6 3.7 0 2.1-1.6 3.6-1.5 1.5-3.6 1.5t-3.7-1.5q-1.5-1.5-1.5-3.6 0-2.2 1.5-3.7zM206.3 284.3h7.2v25.5q0 4.4.8 7.4.8 2.9 2.2 4.7 1.5 1.8 3.3 2.6 1.9.8 4.1.8 2.4-.2 4.6-1.2 2.2-1 3.9-2.8 1.8-1.9 2.8-4.8 1-2.9 1-7v-25.2h7.3v41.6q0 2.3.5 4.1h-7.6q-.1-.7-.2-1.5-.1-.9 0-2l.1-3.5q-2.2 3.8-6 6-3.7 2.1-8.2 2.1-3.5 0-6.3-1.2-2.8-1.3-5.1-3.9-2.2-2.6-3.4-6.6-1.1-4-1.1-9.6zM253.8 330v-45.7h6.6v4.5q1.6-2.5 4.1-4 2.5-1.6 5.3-1.6 2.9 0 5.1 1.9 2.3 1.9 2.9 4.8 1.3-3 4.1-4.8 2.8-1.9 6.1-1.9 4.7 0 6.9 3.4 2.2 3.3 2 8.3V330h-6.6v-32.4q0-3.1-.3-4.9-.3-1.8-1-2.7-.7-1-1.4-1.2-.7-.3-1.8-.3-1.3 0-2.6 1.1-1.3 1-2.3 2.6-1 1.6-1.6 3.7-.6 2-.6 3.9V330H272v-31.8q0-5.7-1.1-7.6-1-1.9-3.6-1.9-2.4 0-4.7 2.9-2.2 2.8-2.2 7.9V330zM306 284.3h7.3v7q2.3-3.7 6.1-5.8 3.9-2.2 7.8-2.2 3.8 0 7.2 1.5 3.5 1.4 6.1 4.3 2.7 2.9 4.2 7.3 1.6 4.4 1.6 10.4t-1.7 10.6q-1.6 4.6-4.3 7.7-2.7 3-6.2 4.6-3.4 1.5-7 1.5-4.2 0-7.8-1.9-3.6-1.9-5.9-5.3v22.7H306zm7.3 26.7q.2 7.4 3.4 10.6 3.2 3.2 7.9 3.2 2.5 0 5-.8t4.6-2.7q2.1-2 3.3-5.2 1.3-3.2 1.3-8 0-8.8-3.7-13.6-3.6-4.9-10.2-5.1-2 0-4.1.7-2.1.7-3.8 2.4-1.6 1.7-2.7 4.6-1 2.8-1 7zM393.2 290.4l-4.2 6.3q-.5-.1-.5-.8 0-.7-.2-1-1.8-2.3-5.1-4.2-3.3-2-7.5-2-1.9 0-3.7.5-1.7.4-3.1 1.2-1.3.8-2.1 2.1-.8 1.2-.8 2.8 0 1.2.6 2.2.6.9 1.9 1.8 1.3.9 3.6 1.8 2.4.9 6.2 2 8.6 2.3 12.1 5.5 3.6 3.1 3.6 7.7 0 3-1.3 5.7t-3.8 4.7q-2.5 2-6 3.2-3.5 1.1-7.9 1.1-11.5 0-19.3-7.2l4.1-7.2q.3.3.4 1 .1.6.7 1.5t2.2 2.1q1.6 1.1 4.9 2.5 1.5.7 3.4 1 1.9.3 3.8.3 2 0 4-.5 2.1-.5 3.7-1.4 1.7-1 2.7-2.3 1-1.4 1-3.1 0-2.6-2.4-4.4-2.4-1.8-8.8-3.7-4.4-1.3-5.8-1.8-3.6-1.4-5.2-2.4-1.6-1.1-2.9-2.5-1.3-1.5-2.1-3.3-.8-1.9-.8-4.1 0-2.4 1.3-4.6 1.3-2.2 3.6-3.9 2.4-1.7 5.6-2.7 3.3-1.1 7.1-1.1 10.5 0 17 7.2zM475.4 283.3q4.2 0 7.9 1.7 3.8 1.6 6.6 4.7t4.4 7.6q1.7 4.4 1.7 9.9 0 5.6-1.6 10t-4.4 7.6q-2.8 3.1-6.6 4.8-3.8 1.6-8.1 1.6-4.4 0-8.3-1.8-3.8-1.8-6.7-4.9-2.9-3.2-4.6-7.6-1.7-4.4-1.7-9.5t1.7-9.6q1.8-4.5 4.7-7.6 3-3.2 6.9-5 3.9-1.9 8.1-1.9zm13.4 24.1q0-4.3-1.2-7.6-1.1-3.4-3-5.7-1.9-2.3-4.4-3.5-2.4-1.2-5.1-1.2-2.7 0-5.2 1.2-2.4 1.2-4.3 3.5-1.8 2.3-2.9 5.6-1.1 3.2-1.1 7.3 0 4 1.1 7.3t2.9 5.7q1.9 2.4 4.4 3.7 2.5 1.3 5.3 1.3t5.2-1.1q2.5-1.2 4.3-3.4 1.9-2.3 2.9-5.6 1.1-3.3 1.1-7.5zM505 286.8l-1-2.5h8.6q0 .7-.2 1.3-.1.5-.1.9 0 .2.1.3l13.2 33.4 7.4-17q2.4-5.5 3.9-10.2 1.5-4.7 2.3-8.7h6.5q-2 8.4-6.9 20l-11.1 26h-5.6zM575.9 283.2q3.6 0 7 1.3t5.9 4q2.6 2.6 4.1 6.7 1.6 4.1 1.6 9.7 0 .8-.1 1.7 0 .8-.1 1.6h-32.5q.2 4.8 1.6 8.1 1.5 3.2 3.7 5.2t4.9 2.9q2.7.8 5.4.8 7.1 0 11.8-5.1l4 3.9q-5.8 7-16 7-5 0-9.2-1.5-4.1-1.6-7-4.6-2.9-3-4.5-7.4-1.6-4.5-1.6-10.2 0-5.8 1.6-10.3 1.7-4.5 4.5-7.5 2.9-3.1 6.7-4.7 3.8-1.6 8.2-1.6zm-13.8 19.4h25.1v-.7q.1-.4.1-.9 0-2.5-1-4.7-.9-2.3-2.5-3.9-1.6-1.7-3.8-2.7-2.1-1-4.6-1-4.7 0-8.5 3.4-3.8 3.3-4.8 10.5zM609.9 284.3h7.5l-.2 8.8q2.1-4.8 6.6-7.3 4.6-2.6 9.8-2.6 7.4 0 12.2 5l-3.3 6.9q-1.1-1.5-2-2.5-.9-1-2-1.7-1-.7-2.3-1.1-1.2-.4-3-.4-3.3 0-6.2 1.6-2.9 1.5-5.1 4.1-2.1 2.5-3.4 5.8-1.3 3.3-1.3 6.9v22.3h-7.3zM93.8 382.1l7.9-1.3q0 .9-.3 1.6-.2.7-.3 1.1l-1.2 10.8h15v5.9h-15q-.9 8.9-.9 16.7 0 4.8.2 8.1t1 5.2q.9 1.9 2.5 3 1.6 1 4.3 1 4.6 0 10.2-4.1l2.2 5.7q-6.9 5.1-14.2 5.1-7.2 0-10.5-4.3-3.3-4.4-3-14.2 0-3.6.2-9.2t.8-13H82v-5.9h11zM132 440v-66.5h8.3v.1q.1 0 .1.1 0 .3-.5.9-.4.5-.6 1.3v26.5q2.7-4.2 6.7-6.7 4.1-2.5 8.3-2.5 3.1 0 5.6 1.1 2.6 1 4.5 3.3t2.9 5.9q1 3.6 1 8.8V440h-7.1v-27.5q0-7.2-2.5-10.1-2.4-2.9-5.9-2.9-2.3 0-4.6 1t-4.5 2.8q-2.1 1.8-3.3 4.4-1.1 2.6-1.1 6V440zM200.9 393.2q3.6 0 7 1.3t5.9 4q2.6 2.6 4.1 6.7 1.6 4.1 1.6 9.7 0 .8-.1 1.7 0 .8-.1 1.6h-32.5q.2 4.8 1.6 8.1 1.5 3.2 3.7 5.2t4.9 2.9q2.7.8 5.4.8 7.1 0 11.8-5.1l4 3.9q-5.8 7-16 7-5 0-9.2-1.5-4.1-1.6-7-4.6-2.9-3-4.5-7.4-1.6-4.5-1.6-10.2 0-5.8 1.6-10.3 1.7-4.5 4.5-7.5 2.9-3.1 6.7-4.7 3.8-1.6 8.2-1.6zm-13.8 19.4h25.1v-.7q.1-.4.1-.9 0-2.5-1-4.7-.9-2.3-2.5-3.9-1.6-1.7-3.8-2.7-2.1-1-4.6-1-4.7 0-8.5 3.4-3.8 3.3-4.8 10.5zM283.5 373.5h20.2v60.7h13.4v5.8h-34.2v-5.8h13.5v-54.9h-12.9zM334.1 399.7q6.1-6.4 16.3-6.4 8.4 0 13.2 4.3 4.9 4.2 4.9 14.1V440h-6.8v-5q-7.3 6.1-16.4 6.1-3.6 0-6.5-1.1-2.8-1.1-4.8-2.9-2-1.8-3.1-4.1-1-2.3-1-4.6 0-6.9 5.9-10.9 6-4 17.2-4.4h8.6v-1.7q0-6.8-2.9-9.5-2.8-2.7-8.8-2.7-7.4 0-12.3 5.1zm27.8 18.9h-4.4q-1.2-.1-2.4-.1-5.5 0-9 .8-3.5.7-5.5 2t-2.8 3q-.7 1.6-.7 3.5 0 3.2 2.8 5.5t6.9 2.3q3 0 5.4-.9 2.4-1 4.2-2.3 1.8-1.4 2.9-2.8 1.1-1.5 1.6-2.6 1-2 1-5.4zM382.1 394.3h35.5v4.9l-27.8 34.6h27.1q.7 0 1.5-.3.9-.3 1.6-.3v6.8h-40v-4.9l28.3-34.5h-26.2zM430.9 397.5l-1.3-3.2h8.9q0 .8-.2 1.4-.2.5-.2 1 0 .4.2.6l13.4 33.6 8.7-24.5q1.3-3.5 2.1-6.5.8-3.1 1.3-5.6h7.5q-.9 2.6-2 5.9-1 3.3-2.5 7.3l-12.4 32.7-1.9 5q-2.4 6.7-6.2 9.4-3.7 2.8-8.6 2.8-6.5 0-10.5-3.9l3.8-6.4q.3.3.5.9.2.7.3.9l.4.4q.4.5 1 .9.7.5 1.7.9t2.2.4q2.9 0 5.1-1.8 2.3-1.8 4.5-6.5l1.4-3.4zM562.1 401v-27.5h7.7q0 .6-.5 1.4-.5.7-.5 1.4l.1 59.5q0 2.4.5 4.2h-7.2q-.4-1.2-.4-3.4v-3.9q-2.2 3.8-6 6.1-3.8 2.2-7.7 2.2-3.8 0-7.2-1.5-3.3-1.5-5.9-4.5-2.5-3-4-7.5-1.5-4.6-1.5-10.8 0-6.3 1.7-10.7 1.7-4.5 4.4-7.3 2.8-2.9 6.2-4.2 3.4-1.4 6.9-1.4 4.8 0 8.2 2.2 3.5 2.1 5.2 5.7zm-21.3 1.4q-4.3 3.9-4.3 13.2 0 8.6 3.3 13.9 3.3 5.2 9.7 5.2 1.5 0 3.2-.5 1.7-.6 3.2-1.7 1.5-1.1 2.7-2.6 1.2-1.5 1.8-3.4 1.1-3.6 1.1-9.6 0-3.8-.3-6.3-.3-2.6-1-4.4-.6-1.8-1.6-2.9-1-1.2-2.5-2.1-1.8-1.1-3.4-1.6-1.5-.6-2.9-.6-2.9 0-5 .8-2 .8-4 2.6zM600.4 393.3q4.2 0 7.9 1.7 3.8 1.6 6.6 4.7t4.4 7.6q1.7 4.4 1.7 9.9 0 5.6-1.6 10t-4.4 7.6q-2.8 3.1-6.6 4.8-3.8 1.6-8.1 1.6-4.4 0-8.3-1.8-3.8-1.8-6.7-4.9-2.9-3.2-4.6-7.6-1.7-4.4-1.7-9.5t1.7-9.6q1.8-4.5 4.7-7.6 3-3.2 6.9-5 3.9-1.9 8.1-1.9zm13.4 24.1q0-4.3-1.2-7.6-1.1-3.4-3-5.7-1.9-2.3-4.4-3.5-2.4-1.2-5.1-1.2-2.7 0-5.2 1.2-2.4 1.2-4.3 3.5-1.8 2.3-2.9 5.6-1.1 3.2-1.1 7.3 0 4 1.1 7.3t2.9 5.7q1.9 2.4 4.4 3.7 2.5 1.3 5.3 1.3t5.2-1.1q2.5-1.2 4.3-3.4 1.9-2.3 2.9-5.6 1.1-3.3 1.1-7.5zM640.5 401.5q-1.5 1.5-2.2 3.3-.7 1.8-.7 3.8 0 2 .8 3.9.8 1.8 2.1 3.2 1.4 1.3 3.2 2.1 1.9.8 3.9.8 2.1 0 3.9-.8 1.8-.8 3.2-2.2 1.4-1.4 2.2-3.2.8-1.8.8-3.8 0-2-.8-3.8-.8-1.9-2.2-3.3-1.4-1.4-3.3-2.2-1.8-.8-3.8-.8-4.1 0-7.1 3zm18.4-4.3q4.8-4.1 11.4-4.1h1.3l.9 5.9q-.7-.1-1.4-.1-.6-.1-1.3-.1-4.4 0-7.9 2.2 2.3 3.5 2.3 7.7 0 3.2-1.3 6.1-1.3 2.8-3.6 5-2.2 2.1-5.2 3.4-3 1.2-6.4 1.2-2.8 0-5.8-1.1-3.2 3.1-3.2 5.2 0 1.7 1.9 2.7 2 .9 5.4.9 1.9 0 3.8-.1 2-.2 3.7-.2 4.5 0 7.7.9 3.3.8 5.3 2.4 2 1.5 3 3.6t1 4.5q0 2.7-1.3 5.2-1.3 2.6-3.9 4.5-2.6 2-6.6 3.1-3.9 1.2-9.2 1.2-5.5 0-9.5-.9-3.9-.8-6.3-2.3-2.4-1.5-3.7-3.5-1.2-1.9-1.2-4.1 0-5.4 7.5-10.1-3.7-1.9-3.7-6.3 0-4.3 5.2-8.6-3.2-2.1-5-5.4-1.8-3.3-1.8-7 0-3.4 1.4-6.3 1.4-3 3.7-5.2 2.4-2.2 5.4-3.4 3.1-1.3 6.3-1.3 6.7 0 11.1 4.4zm-17.8 40.4q-5.7 3.2-5.7 7 0 2 1.1 3.3 1.2 1.4 3.1 2.2 2 .9 4.6 1.3 2.7.4 5.6.4 6.1 0 10.1-2.2t4-5.9q-.2-2.7-2.3-4.2-2-1.5-6.4-1.5-.5 0-1 .1h-1q-3.8 0-6.8-.1-3-.2-5.3-.4zM703 431.3q1.8 1.8 1.8 4.1t-1.8 4q-1.7 1.7-4.2 1.7t-4.2-1.6q-1.7-1.7-1.7-4.1 0-2.4 1.8-4.1 1.8-1.7 4.1-1.7t4.2 1.7z"/></g></svg>