<svg xmlns="http://www.w3.org/2000/svg" viewBox="0 0 1600 1000" height="1000" width="1600"><path fill="#fff" d="M0 0h1600v1000H0z"/><g font-weight="400" font-size="200" font-family="Info" letter-spacing="-.03em" text-anchor="middle" fill="#222"><path d="M565.81 96.6V90c0-2.4-1.8-4-4-4h-77c-2.4 0-4.4 1.6-4.4 4v6.6c0 2.4 2 4 4.4 4h30.4V216c0 2.2 2 4 4.2 4h7.8c2.2 0 4.2-1.8 4.2-4V100.6h30.4c2.2 0 4-1.6 4-4zM641.31 216v-68.4c0-15-9.6-25-24.6-25-10.2 0-18.8 4-27.4 13.6V82.4c0-2.4-2-4-4.2-4h-7.2c-2.2 0-4.2 1.6-4.2 4V216c0 2.2 2 4 4.2 4h7.2c2.2 0 4.2-1.8 4.2-4v-55c0-13.8 10.6-24.8 23.6-24.8 8.8 0 12.8 4.4 12.8 15V216c0 2.2 2 4 4.2 4h7.2c2.2 0 4.2-1.8 4.2-4zM729.184 171.6c0-37.8-17-49-35.4-49-21.4 0-36.2 18.4-36.2 48.6 0 32.4 15 49.8 42.6 49.8 11.4 0 17.8-2 23.2-4.4 2.4-1 3.4-3 2.6-5.2l-1.8-5c-.8-2-2.4-3.4-5.2-2.6-6 1.8-11.4 3.2-19 3.2-18 0-25-11-25.8-31.2h51c2.2 0 4-2 4-4.2zm-16.4-8.6h-38.6c2.4-23.8 13.4-27.6 20-27.6 13.2 0 18.2 14.2 18.6 27.6zM842.547 255.4V127.6c0-2.2-2-4-4.2-4h-4.2c-3 0-4.6 1.2-5.2 4l-2 9.2c-5.2-9.4-12.4-14.2-22.4-14.2-8.6 0-17.2 3.8-22.4 10.8-6.8 9.2-9.6 19-9.6 38.8 0 32.4 10.8 48.8 31.4 48.8 10.4 0 17.6-3.8 23-13v47.4c0 2.4 2 4 4.2 4h7.2c2.2 0 4.2-1.6 4.2-4zm-15.2-83c0 24-6.6 35.4-19.6 35.4-12.6 0-18.2-10.2-18.2-35.8 0-14.6 2.2-23.2 5-28.4 2.8-5.2 7.4-7.8 13.4-7.8 12.2 0 19.4 12.8 19.4 36.6zM932.734 216v-88.4c0-2.4-2-4-4.2-4h-7.6c-2.2 0-4.2 1.6-4.2 4v48.6c0 21.2-10 31.4-24.2 31.4-7.6 0-12.2-4.2-12.2-14v-66c0-2.4-2-4-4.2-4h-7.6c-2.2 0-4.2 1.6-4.2 4v68c0 16.8 9.2 25.4 23.8 25.4 17.6 0 24.2-9.4 29.2-14.8l2.6 10.4c.6 2.2 2 3.4 4 3.4h4.6c2.2 0 4.2-1.8 4.2-4zM976.628 89c0-6.4-5.2-11.6-11.6-11.6-6.4 0-11.6 5.2-11.6 11.6 0 6.4 5.2 11.6 11.6 11.6 6.4 0 11.6-5.2 11.6-11.6zm-3.2 127v-88.4c0-2.4-1.6-4-4.2-4h-22.4c-2.4 0-4 2-4 4.2v4.4c0 2.2 1.6 4.2 4 4.2h11V216c0 2.2 2 4 4.2 4h7.2c2.2 0 4.2-1.8 4.2-4zM1050.675 213.6l-1.4-6.2c-.4-2-2.2-3.8-5-3-3.8 1-8.6 1.8-14 1.8-15.2 0-23-11.6-23-35.2 0-21.6 8.8-34.6 21.2-34.6 5.6 0 10.4 1.6 13.6 2.8 3 1.2 4.4-.4 5-2.4l2-5.8c.8-2.2-.4-3.8-3-5-3.6-1.6-10.2-3.4-17-3.4-22.2 0-38.8 20-38.8 48.4 0 32.2 15.6 50 39 50 6.8 0 12.6-.6 18.2-2.4 2.6-.8 3.6-3 3.2-5zM1126.606 215.2l-33.8-50 27.2-36.8c1.6-2 .6-4.8-2.2-4.8h-10.8c-2.6 0-4.2 1.4-5.2 3l-25.2 38.4V82.4c0-2.4-2-4-4.2-4h-7.2c-2.2 0-4.2 1.6-4.2 4V216c0 2.2 2 4 4.2 4h7.2c2.2 0 4.2-1.8 4.2-4v-49.2l30.8 49.8c1.2 2 2.8 3.4 4.8 3.4h12.2c2.8 0 3.6-2.8 2.2-4.8zM545.217 392.2c0-19.8-2.8-29.6-9.6-38.8-5.2-7-13.8-10.8-22.4-10.8-9.8 0-17.2 4.8-22.4 14.2v-54.4c0-2.4-2-4-4.2-4h-7.2c-2.2 0-4.2 1.6-4.2 4V436c0 2.2 2 4 4.2 4h4.2c3 0 4.6-1.2 5.2-4l1.6-8.6c5.8 9.8 13 13.6 23.4 13.6 20.6 0 31.4-16.4 31.4-48.8zm-17-.2c0 25.6-5.6 35.8-18.2 35.8-13 0-19.6-11.4-19.6-35.4 0-23.8 7.2-36.6 19.4-36.6 6 0 10.6 2.6 13.4 7.8 2.8 5.2 5 13.8 5 28.4zM611.186 349.6c1-4-4-7-10.4-7-9.2 0-16.8 5.4-22.4 14.8l-2.8-10.8c-.6-2-2.2-3-4.2-3h-4.6c-2.2 0-4.2 1.6-4.2 4V436c0 2.2 2 4 4.2 4h7.6c2.2 0 4.2-1.8 4.2-4v-52.2c0-17.4 7.8-24.6 13.6-24.6 3.8 0 8.4 1.4 11.2 2.2 3.4 1 5.2-.8 5.8-3.6zM687.105 391.8c0-30.6-14.8-49.2-38-49.2s-38.4 18.6-38.4 49.2c0 30.8 15.2 49.2 38.4 49.2s38-18.4 38-49.2zm-17 0c0 24.6-7.6 36-21.4 36-13.8 0-21.4-11.4-21.4-36 0-24 7.6-35.8 21.4-35.8 13.8 0 21.4 11.8 21.4 35.8zM812.748 348.2c.6-3-1-4.6-3.2-4.6h-8.8c-2.4 0-4.4 1.2-4.8 3.8l-11.8 63.2c-1.2 6.8-2 14.6-2.8 21.2-.8-6.8-1.6-14.4-3.2-21.2l-14.4-63c-.6-2.6-2.6-4-5-4h-11.6c-2.4 0-4.2 1.2-4.8 3.8l-14.2 63.2c-1.6 6.8-2.4 14.6-3.4 21.2-.6-6.8-1-14.2-2.4-21.4l-12.8-62.8c-.6-3-2-4-4.6-4h-9.4c-2.2 0-3.8 1.8-3.2 4.8l20.2 88c.6 2.8 1.8 3.6 4.2 3.6h14.8c2.6 0 4.2-1.4 4.6-3.6l13.8-61.2c1.4-6 2.2-13.4 2.8-20.6.8 7.2 1.4 14.4 2.8 20.6l13.8 61.2c.6 2.8 1.8 3.6 4.2 3.6h14.6c2.6 0 4-1.4 4.6-3.6zM894.217 436v-68.4c0-15-9.6-25-24.6-25-10.4 0-19 4-27.6 14l-2.2-9.8c-.6-2.4-1.8-3.2-4.6-3.2h-4.4c-2.2 0-4.2 1.6-4.2 4V436c0 2.2 2 4 4.2 4h7.6c2.2 0 4.2-1.8 4.2-4v-55c0-13.8 10.2-24.8 23.2-24.8 8.8 0 12.4 4.4 12.4 15V436c0 2.2 2 4 4.2 4h7.6c2.2 0 4.2-1.8 4.2-4zM990.345 306c.6-2.2 0-4.4-2.2-5.4-3.2-1.4-10.2-3.2-13.4-3.2-12.6 0-21.8 6.2-21.8 22.8v23.4h-11c-2.4 0-4 2-4 4.2v4.4c0 2.2 1.6 4.2 4 4.2h11V436c0 2.2 2.2 4 4.2 4h7.2c2.2 0 4.2-1.8 4.2-4v-79.6h15.4c2.2 0 4-2 4-4.2v-4.4c0-2.2-1.8-4.2-4-4.2h-15.4v-22.8c0-7.2 2.8-9.4 7-9.4 2.6 0 6.6 1.6 8.6 2.2 2.2.6 4-.2 4.6-2.2zM1064.527 391.8c0-30.6-14.8-49.2-38-49.2s-38.4 18.6-38.4 49.2c0 30.8 15.2 49.2 38.4 49.2s38-18.4 38-49.2zm-17 0c0 24.6-7.6 36-21.4 36-13.8 0-21.4-11.4-21.4-36 0-24 7.6-35.8 21.4-35.8 13.8 0 21.4 11.8 21.4 35.8zM1142.827 436l-29-47.4 26.6-41c1.6-2.4 0-4-2.2-4h-9.8c-2.2 0-3.6.8-5 3.2l-17.6 30.6-17.6-30.6c-1.4-2.4-2.8-3.2-5-3.2h-10.4c-2.2 0-3.6 1.6-2.2 4l25.8 42-30.2 46.4c-1.6 2.4 0 4 2.2 4h10c2 0 4-1 5-2.8l21.2-36.2 20.4 36.2c1 1.8 3 2.8 5 2.8h10.6c2.2 0 3.4-2 2.2-4zM460.16 529c0-6.4-5.2-11.6-11.6-11.6-6.4 0-11.6 5.2-11.6 11.6 0 6.4 5.2 11.6 11.6 11.6 6.4 0 11.6-5.2 11.6-11.6zm-3.2 143.4V567.6c0-2.4-2-4-4.2-4h-22.4c-2.4 0-4 2-4 4.2v4.4c0 2.2 1.6 4.2 4 4.2h11v91.8c0 9.2-1 13-9 17.6l-2.8 1.6c-2 1.2-2.2 3.6-1.2 5.4l3.2 5.6c1 1.8 3.4 2.6 5.6 1.4l5.2-2.8c10.4-5.6 14.6-13 14.6-24.6zM548.406 656v-88.4c0-2.4-2-4-4.2-4h-7.6c-2.2 0-4.2 1.6-4.2 4v48.6c0 21.2-10 31.4-24.2 31.4-7.6 0-12.2-4.2-12.2-14v-66c0-2.4-2-4-4.2-4h-7.6c-2.2 0-4.2 1.6-4.2 4v68c0 16.8 9.2 25.4 23.8 25.4 17.6 0 24.2-9.4 29.2-14.8l2.6 10.4c.6 2.2 2 3.4 4 3.4h4.6c2.2 0 4.2-1.8 4.2-4zM681.9 656v-72.8c0-17-13-20.6-21.8-20.6-10.4 0-19 5-27.2 14.8-1.8-9.2-10-14.8-20.6-14.8-10.6 0-19.8 7.2-25.4 13.8l-2.2-9.6c-.6-2.4-1.8-3.2-4.6-3.2h-4.4c-2.2 0-4.2 1.6-4.2 4V656c0 2.2 2 4 4.2 4h7.6c2.2 0 4.2-1.8 4.2-4v-55.2c0-13.8 10-24.2 21.8-24.2 6.2 0 9.4 3.2 9.4 9.4v70c0 2.2 2 4 4.2 4h7.6c2.2 0 4.2-1.8 4.2-4v-55.2c0-13.8 10.2-24.2 22-24.2 6.2 0 9.2 3.2 9.2 9.4v70c0 2.2 2 4 4.2 4h7.6c2.2 0 4.2-1.8 4.2-4zM774.563 612.2c0-19.8-2.8-29.6-9.6-38.8-5.2-7-13.8-10.8-22.4-10.8-10 0-17.2 4.8-22.4 14.2l-2-9.2c-.6-2.8-2.2-4-5.2-4h-4.2c-2.2 0-4.2 1.8-4.2 4v127.8c0 2.4 2 4 4.2 4h7.2c2.2 0 4.2-1.6 4.2-4V648c5.4 9.2 12.6 13 23 13 20.6 0 31.4-16.4 31.4-48.8zm-17-.2c0 25.6-5.6 35.8-18.2 35.8-13 0-19.6-11.4-19.6-35.4 0-23.8 7.2-36.6 19.4-36.6 6 0 10.6 2.6 13.4 7.8 2.8 5.2 5 13.8 5 28.4zM844.522 634c0-29.2-41.4-29.8-41.4-46.6 0-7.2 5.2-11.8 14.2-11.8 6 0 12.2 2 16.2 3.6 2.2.8 4.2.4 5-2l1.8-5c.8-2.4.2-4.4-1.8-5.4-5.2-2.4-11.2-4.2-20.6-4.2-18.8 0-30.6 10.6-30.6 26 0 26.8 41 27 41 45.2 0 8.2-4.6 13-14.6 13-8 0-15.8-2.2-22.2-5.4-2.2-1-4.4-.2-5.2 2.6l-1.8 6c-.8 2.4-.2 4.2 2.2 5.4 7.2 3.6 18 5.6 26.6 5.6 19.2 0 31.2-11.2 31.2-27zM963.175 611.8c0-30.6-14.8-49.2-38-49.2s-38.4 18.6-38.4 49.2c0 30.8 15.2 49.2 38.4 49.2s38-18.4 38-49.2zm-17 0c0 24.6-7.6 36-21.4 36-13.8 0-21.4-11.4-21.4-36 0-24 7.6-35.8 21.4-35.8 13.8 0 21.4 11.8 21.4 35.8zM1041.02 568.2c.8-3-1-4.6-3.2-4.6h-9c-2.4 0-4.2 1.2-4.8 3.8l-16.4 67c-1.2 4.6-2.2 12.6-2.8 17.4-.6-5-1.4-12.8-2.6-17.4l-17.2-66.8c-.6-2.6-2.6-4-5-4h-9c-2.2 0-4 1.8-3 5.2l25.6 87.6c.8 2.8 1.8 3.6 4.2 3.6h12.6c2.6 0 4-1.4 4.6-3.6zM1117.67 611.6c0-37.8-17-49-35.4-49-21.4 0-36.2 18.4-36.2 48.6 0 32.4 15 49.8 42.6 49.8 11.4 0 17.8-2 23.2-4.4 2.4-1 3.4-3 2.6-5.2l-1.8-5c-.8-2-2.4-3.4-5.2-2.6-6 1.8-11.4 3.2-19 3.2-18 0-25-11-25.8-31.2h51c2.2 0 4-2 4-4.2zm-16.4-8.6h-38.6c2.4-23.8 13.4-27.6 20-27.6 13.2 0 18.2 14.2 18.6 27.6zM1183.57 569.6c1-4-4-7-10.4-7-9.2 0-16.8 5.4-22.4 14.8l-2.8-10.8c-.6-2-2.2-3-4.2-3h-4.6c-2.2 0-4.2 1.6-4.2 4V656c0 2.2 2 4 4.2 4h7.6c2.2 0 4.2-1.8 4.2-4v-52.2c0-17.4 7.8-24.6 13.6-24.6 3.8 0 8.4 1.4 11.2 2.2 3.4 1 5.2-.8 5.8-3.6zM423.742 874.4l-.8-4.2c-.4-2.2-2.2-3.6-4.2-3.2-2 .4-4.6.8-6.2.8-5 0-7.2-2.4-7.2-7.8v-63.6h11.2c2.2 0 4-2 4-4.2v-4.4c0-2.2-1.8-4.2-4-4.2h-11.2v-25c0-3.2-2.8-3-5.2-2.2l-7.4 2.6c-1.8.6-3 2.2-3 4.4v20.2h-11c-2.4 0-4 2-4 4.2v4.4c0 2.2 1.6 4.2 4 4.2h11V862c0 12.8 6.4 19 20 19 4.2 0 8.2-.6 11-1.4 2.8-.8 3.4-2.8 3-5.2zM502.848 876v-68.4c0-15-9.6-25-24.6-25-10.2 0-18.8 4-27.4 13.6v-53.8c0-2.4-2-4-4.2-4h-7.2c-2.2 0-4.2 1.6-4.2 4V876c0 2.2 2 4 4.2 4h7.2c2.2 0 4.2-1.8 4.2-4v-55c0-13.8 10.6-24.8 23.6-24.8 8.8 0 12.8 4.4 12.8 15V876c0 2.2 2 4 4.2 4h7.2c2.2 0 4.2-1.8 4.2-4zM590.723 831.6c0-37.8-17-49-35.4-49-21.4 0-36.2 18.4-36.2 48.6 0 32.4 15 49.8 42.6 49.8 11.4 0 17.8-2 23.2-4.4 2.4-1 3.4-3 2.6-5.2l-1.8-5c-.8-2-2.4-3.4-5.2-2.6-6 1.8-11.4 3.2-19 3.2-18 0-25-11-25.8-31.2h51c2.2 0 4-2 4-4.2zm-16.4-8.6h-38.6c2.4-23.8 13.4-27.6 20-27.6 13.2 0 18.2 14.2 18.6 27.6zM673.286 874.6l-1.2-5.4c-.6-2.6-2-3.2-4.4-2.6-2.4.6-4.6 1.2-6.4 1.2-4.4 0-5-2.8-5-7.8V742.4c0-2.4-2-4-4.2-4h-7.2c-2.2 0-4.2 1.6-4.2 4V864c0 11 5.6 17 18.2 17 4.6 0 8.4-1 11.8-2.2 2.2-.8 3-2 2.6-4.2zM745.905 876l-1.2-6c-1.2-6-1.2-11.4-1.2-16.6V818c0-16-2.8-35.4-33-35.4-8.6 0-17.8 2.2-23.2 3.6-2.4.6-3.2 2.4-2.8 4.8l1.2 6.4c.4 2.4 2.6 3.6 5 3 5.4-1.4 10.8-3.4 19-3.4 15 0 18.2 6.2 18.2 18.8v5.2l-23.4 1.4c-13.8.8-29 8-29 30.6 0 17.8 10.2 28 25.6 28 10.6 0 21-4 27.4-14.6l1.6 10c.4 2.6 2.2 3.6 4.4 3.6h8.2c2.2 0 3.6-1.6 3.2-4zm-18-27.8c0 7.8-8.8 20-22.4 20-8.4 0-13.6-4.8-13.6-15.2 0-16.2 9.6-19.4 22.6-20l13.4-.6zM819.786 875.8v-5.6c0-2.2-1.8-3.6-4-3.6h-33.6c-2.2 0-5.4.2-7.4.4 1.6-2 4-5.6 5.8-8.6l36.8-59.6c1-1.6 1.4-2.8 1.4-4.8v-6.2c0-2.2-1.8-4.2-4-4.2h-49.4c-2.4 0-4 2-4 4.2v4.6c0 2.2 1.6 4.2 4 4.2h32c1.2 0 4 0 5.8-.4-1.4 1.4-2.8 3.6-4.4 6.2l-38.6 62.2c-.8 1.4-1.6 3-1.6 4.8v4.6c0 3.6 1.6 6 4.4 6h52.8c2.2 0 4-2 4-4.2zM902.167 787.6c.6-2.2-1.2-4-3.4-4h-9c-2.4 0-4.2 1.2-4.8 3.8l-16.4 63.2c-1.4 5-2.6 10.8-3.2 13.8-.4-3.2-1.2-7.4-2-10.2l-19.4-66.6c-.8-2.6-2.6-4-5-4h-9.4c-2.2 0-4 1.8-3.4 4l26 81.2c1 2.8 2 3.8 4.8 3.8h6.2l-3.4 13c-2.4 9.2-5.2 16.2-13.2 20l-3 1.4c-1.8.8-2.8 4-2 5.6l2.8 5.6c1 2 3.4 2.6 5.2 1.8l4.2-2c10-4.8 16.2-13.4 19.2-24.4zM1012.367 876V742.4c0-2.4-2-4-4.2-4h-7.2c-2.2 0-4.2 1.6-4.2 4v54.4c-5.2-9.4-12.6-14.2-22.4-14.2-8.6 0-17.2 3.8-22.4 10.8-6.8 9.2-9.6 19-9.6 38.8 0 32.4 10.8 48.8 31.4 48.8 10.4 0 17.6-3.8 23.4-13.6l1.6 8.6c.6 2.8 2.2 4 5.2 4h4.2c2.2 0 4.2-1.8 4.2-4zm-15.2-43.6c0 24-6.6 35.4-19.6 35.4-12.6 0-18.2-10.2-18.2-35.8 0-14.6 2.2-23.2 5-28.4 2.8-5.2 7.4-7.8 13.4-7.8 12.2 0 19.4 12.8 19.4 36.6zM1105.136 831.8c0-30.6-14.8-49.2-38-49.2s-38.4 18.6-38.4 49.2c0 30.8 15.2 49.2 38.4 49.2s38-18.4 38-49.2zm-17 0c0 24.6-7.6 36-21.4 36-13.8 0-21.4-11.4-21.4-36 0-24 7.6-35.8 21.4-35.8 13.8 0 21.4 11.8 21.4 35.8zM1184.742 882.4v-94.8c0-2.4-2-4-4.2-4h-4.2c-3 0-4.6 1.2-5.2 4l-2 9.2c-5.2-9.4-12.6-14.2-22.4-14.2-8.6 0-17.4 4-22.4 10.8-6.8 9.2-9.6 19-9.6 38.8 0 32.4 10.8 48.8 31.4 48.8 10.4 0 17.6-3.8 23-13v14.6c0 9.6-.2 23.6-21.2 23.6-7.8 0-16.6-2.4-21.8-4-2.4-.8-4.2.4-4.8 2.6l-1.6 6.4c-.6 2.4.4 4.4 2.4 5 6.8 2 16.6 4.2 26.8 4.2 33.4 0 35.8-23.2 35.8-38zm-15.2-50c0 24-6.6 35.4-19.6 35.4-12.6 0-18.2-10.2-18.2-35.8 0-14.6 2.2-23.2 5-28.4 2.8-5.2 7.4-7.8 13.4-7.8 12.2 0 19.4 12.8 19.4 36.6zM1223.13 868.4c0-7-5.6-12.4-12.6-12.4s-12.4 5.4-12.4 12.4 5.4 12.6 12.4 12.6 12.6-5.6 12.6-12.6z"/></g></svg>