<svg xmlns="http://www.w3.org/2000/svg" viewBox="0 0 800 500"><path fill="#fff" d="M0 0h800v500H0z"/><g font-weight="400" font-size="100" font-family="Info" letter-spacing="-.03em" text-anchor="middle" fill="#222"><path d="M282.905 48.3V45c0-1.2-.9-2-2-2h-38.5c-1.2 0-2.2.8-2.2 2v3.3c0 1.2 1 2 2.2 2h15.2V108c0 1.1 1 2 2.1 2h3.9c1.1 0 2.1-.9 2.1-2V50.3h15.2c1.1 0 2-.8 2-2zM320.655 108V73.8c0-7.5-4.8-12.5-12.3-12.5-5.1 0-9.4 2-13.7 6.8V41.2c0-1.2-1-2-2.1-2h-3.6c-1.1 0-2.1.8-2.1 2V108c0 1.1 1 2 2.1 2h3.6c1.1 0 2.1-.9 2.1-2V80.5c0-6.9 5.3-12.4 11.8-12.4 4.4 0 6.4 2.2 6.4 7.5V108c0 1.1 1 2 2.1 2h3.6c1.1 0 2.1-.9 2.1-2zM364.592 85.8c0-18.9-8.5-24.5-17.7-24.5-10.7 0-18.1 9.2-18.1 24.3 0 16.2 7.5 24.9 21.3 24.9 5.7 0 8.9-1 11.6-2.2 1.2-.5 1.7-1.5 1.3-2.6l-.9-2.5c-.4-1-1.2-1.7-2.6-1.3-3 .9-5.7 1.6-9.5 1.6-9 0-12.5-5.5-12.9-15.6h25.5c1.1 0 2-1 2-2.1zm-8.2-4.3h-19.3c1.2-11.9 6.7-13.8 10-13.8 6.6 0 9.1 7.1 9.3 13.8zM421.273 127.7V63.8c0-1.1-1-2-2.1-2h-2.1c-1.5 0-2.3.6-2.6 2l-1 4.6c-2.6-4.7-6.2-7.1-11.2-7.1-4.3 0-8.6 1.9-11.2 5.4-3.4 4.6-4.8 9.5-4.8 19.4 0 16.2 5.4 24.4 15.7 24.4 5.2 0 8.8-1.9 11.5-6.5v23.7c0 1.2 1 2 2.1 2h3.6c1.1 0 2.1-.8 2.1-2zm-7.6-41.5c0 12-3.3 17.7-9.8 17.7-6.3 0-9.1-5.1-9.1-17.9 0-7.3 1.1-11.6 2.5-14.2 1.4-2.6 3.7-3.9 6.7-3.9 6.1 0 9.7 6.4 9.7 18.3zM466.367 108V63.8c0-1.2-1-2-2.1-2h-3.8c-1.1 0-2.1.8-2.1 2v24.3c0 10.6-5 15.7-12.1 15.7-3.8 0-6.1-2.1-6.1-7v-33c0-1.2-1-2-2.1-2h-3.8c-1.1 0-2.1.8-2.1 2v34c0 8.4 4.6 12.7 11.9 12.7 8.8 0 12.1-4.7 14.6-7.4l1.3 5.2c.3 1.1 1 1.7 2 1.7h2.3c1.1 0 2.1-.9 2.1-2zM488.314 44.5c0-3.2-2.6-5.8-5.8-5.8-3.2 0-5.8 2.6-5.8 5.8 0 3.2 2.6 5.8 5.8 5.8 3.2 0 5.8-2.6 5.8-5.8zm-1.6 63.5V63.8c0-1.2-.8-2-2.1-2h-11.2c-1.2 0-2 1-2 2.1v2.2c0 1.1.8 2.1 2 2.1h5.5V108c0 1.1 1 2 2.1 2h3.6c1.1 0 2.1-.9 2.1-2zM525.337 106.8l-.7-3.1c-.2-1-1.1-1.9-2.5-1.5-1.9.5-4.3.9-7 .9-7.6 0-11.5-5.8-11.5-17.6 0-10.8 4.4-17.3 10.6-17.3 2.8 0 5.2.8 6.8 1.4 1.5.6 2.2-.2 2.5-1.2l1-2.9c.4-1.1-.2-1.9-1.5-2.5-1.8-.8-5.1-1.7-8.5-1.7-11.1 0-19.4 10-19.4 24.2 0 16.1 7.8 25 19.5 25 3.4 0 6.3-.3 9.1-1.2 1.3-.4 1.8-1.5 1.6-2.5zM563.303 107.6l-16.9-25 13.6-18.4c.8-1 .3-2.4-1.1-2.4h-5.4c-1.3 0-2.1.7-2.6 1.5l-12.6 19.2V41.2c0-1.2-1-2-2.1-2h-3.6c-1.1 0-2.1.8-2.1 2V108c0 1.1 1 2 2.1 2h3.6c1.1 0 2.1-.9 2.1-2V83.4l15.4 24.9c.6 1 1.4 1.7 2.4 1.7h6.1c1.4 0 1.8-1.4 1.1-2.4zM272.61 196.1c0-9.9-1.4-14.8-4.8-19.4-2.6-3.5-6.9-5.4-11.2-5.4-4.9 0-8.6 2.4-11.2 7.1v-27.2c0-1.2-1-2-2.1-2h-3.6c-1.1 0-2.1.8-2.1 2V218c0 1.1 1 2 2.1 2h2.1c1.5 0 2.3-.6 2.6-2l.8-4.3c2.9 4.9 6.5 6.8 11.7 6.8 10.3 0 15.7-8.2 15.7-24.4zm-8.5-.1c0 12.8-2.8 17.9-9.1 17.9-6.5 0-9.8-5.7-9.8-17.7 0-11.9 3.6-18.3 9.7-18.3 3 0 5.3 1.3 6.7 3.9 1.4 2.6 2.5 6.9 2.5 14.2zM305.593 174.8c.5-2-2-3.5-5.2-3.5-4.6 0-8.4 2.7-11.2 7.4l-1.4-5.4c-.3-1-1.1-1.5-2.1-1.5h-2.3c-1.1 0-2.1.8-2.1 2V218c0 1.1 1 2 2.1 2h3.8c1.1 0 2.1-.9 2.1-2v-26.1c0-8.7 3.9-12.3 6.8-12.3 1.9 0 4.2.7 5.6 1.1 1.7.5 2.6-.4 2.9-1.8zM343.552 195.9c0-15.3-7.4-24.6-19-24.6s-19.2 9.3-19.2 24.6c0 15.4 7.6 24.6 19.2 24.6s19-9.2 19-24.6zm-8.5 0c0 12.3-3.8 18-10.7 18-6.9 0-10.7-5.7-10.7-18 0-12 3.8-17.9 10.7-17.9 6.9 0 10.7 5.9 10.7 17.9zM406.374 174.1c.3-1.5-.5-2.3-1.6-2.3h-4.4c-1.2 0-2.2.6-2.4 1.9l-5.9 31.6c-.6 3.4-1 7.3-1.4 10.6-.4-3.4-.8-7.2-1.6-10.6l-7.2-31.5c-.3-1.3-1.3-2-2.5-2h-5.8c-1.2 0-2.1.6-2.4 1.9l-7.1 31.6c-.8 3.4-1.2 7.3-1.7 10.6-.3-3.4-.5-7.1-1.2-10.7l-6.4-31.4c-.3-1.5-1-2-2.3-2h-4.7c-1.1 0-1.9.9-1.6 2.4l10.1 44c.3 1.4.9 1.8 2.1 1.8h7.4c1.3 0 2.1-.7 2.3-1.8l6.9-30.6c.7-3 1.1-6.7 1.4-10.3.4 3.6.7 7.2 1.4 10.3l6.9 30.6c.3 1.4.9 1.8 2.1 1.8h7.3c1.3 0 2-.7 2.3-1.8zM447.11 218v-34.2c0-7.5-4.8-12.5-12.3-12.5-5.2 0-9.5 2-13.8 7l-1.1-4.9c-.3-1.2-.9-1.6-2.3-1.6h-2.2c-1.1 0-2.1.8-2.1 2V218c0 1.1 1 2 2.1 2h3.8c1.1 0 2.1-.9 2.1-2v-27.5c0-6.9 5.1-12.4 11.6-12.4 4.4 0 6.2 2.2 6.2 7.5V218c0 1.1 1 2 2.1 2h3.8c1.1 0 2.1-.9 2.1-2zM495.173 153c.3-1.1 0-2.2-1.1-2.7-1.6-.7-5.1-1.6-6.7-1.6-6.3 0-10.9 3.1-10.9 11.4v11.7h-5.5c-1.2 0-2 1-2 2.1v2.2c0 1.1.8 2.1 2 2.1h5.5V218c0 1.1 1.1 2 2.1 2h3.6c1.1 0 2.1-.9 2.1-2v-39.8h7.7c1.1 0 2-1 2-2.1v-2.2c0-1.1-.9-2.1-2-2.1h-7.7v-11.4c0-3.6 1.4-4.7 3.5-4.7 1.3 0 3.3.8 4.3 1.1 1.1.3 2-.1 2.3-1.1zM532.263 195.9c0-15.3-7.4-24.6-19-24.6s-19.2 9.3-19.2 24.6c0 15.4 7.6 24.6 19.2 24.6s19-9.2 19-24.6zm-8.5 0c0 12.3-3.8 18-10.7 18-6.9 0-10.7-5.7-10.7-18 0-12 3.8-17.9 10.7-17.9 6.9 0 10.7 5.9 10.7 17.9zM571.413 218l-14.5-23.7 13.3-20.5c.8-1.2 0-2-1.1-2h-4.9c-1.1 0-1.8.4-2.5 1.6l-8.8 15.3-8.8-15.3c-.7-1.2-1.4-1.6-2.5-1.6h-5.2c-1.1 0-1.8.8-1.1 2l12.9 21-15.1 23.2c-.8 1.2 0 2 1.1 2h5c1 0 2-.5 2.5-1.4l10.6-18.1 10.2 18.1c.5.9 1.5 1.4 2.5 1.4h5.3c1.1 0 1.7-1 1.1-2zM230.08 264.5c0-3.2-2.6-5.8-5.8-5.8-3.2 0-5.8 2.6-5.8 5.8 0 3.2 2.6 5.8 5.8 5.8 3.2 0 5.8-2.6 5.8-5.8zm-1.6 71.7v-52.4c0-1.2-1-2-2.1-2h-11.2c-1.2 0-2 1-2 2.1v2.2c0 1.1.8 2.1 2 2.1h5.5v45.9c0 4.6-.5 6.5-4.5 8.8l-1.4.8c-1 .6-1.1 1.8-.6 2.7l1.6 2.8c.5.9 1.7 1.3 2.8.7l2.6-1.4c5.2-2.8 7.3-6.5 7.3-12.3zM274.203 328v-44.2c0-1.2-1-2-2.1-2h-3.8c-1.1 0-2.1.8-2.1 2v24.3c0 10.6-5 15.7-12.1 15.7-3.8 0-6.1-2.1-6.1-7v-33c0-1.2-1-2-2.1-2h-3.8c-1.1 0-2.1.8-2.1 2v34c0 8.4 4.6 12.7 11.9 12.7 8.8 0 12.1-4.7 14.6-7.4l1.3 5.2c.3 1.1 1 1.7 2 1.7h2.3c1.1 0 2.1-.9 2.1-2zM340.95 328v-36.4c0-8.5-6.5-10.3-10.9-10.3-5.2 0-9.5 2.5-13.6 7.4-.9-4.6-5-7.4-10.3-7.4-5.3 0-9.9 3.6-12.7 6.9l-1.1-4.8c-.3-1.2-.9-1.6-2.3-1.6h-2.2c-1.1 0-2.1.8-2.1 2V328c0 1.1 1 2 2.1 2h3.8c1.1 0 2.1-.9 2.1-2v-27.6c0-6.9 5-12.1 10.9-12.1 3.1 0 4.7 1.6 4.7 4.7v35c0 1.1 1 2 2.1 2h3.8c1.1 0 2.1-.9 2.1-2v-27.6c0-6.9 5.1-12.1 11-12.1 3.1 0 4.6 1.6 4.6 4.7v35c0 1.1 1 2 2.1 2h3.8c1.1 0 2.1-.9 2.1-2zM387.28 306.1c0-9.9-1.4-14.8-4.8-19.4-2.6-3.5-6.9-5.4-11.2-5.4-5 0-8.6 2.4-11.2 7.1l-1-4.6c-.3-1.4-1.1-2-2.6-2h-2.1c-1.1 0-2.1.9-2.1 2v63.9c0 1.2 1 2 2.1 2h3.6c1.1 0 2.1-.8 2.1-2V324c2.7 4.6 6.3 6.5 11.5 6.5 10.3 0 15.7-8.2 15.7-24.4zm-8.5-.1c0 12.8-2.8 17.9-9.1 17.9-6.5 0-9.8-5.7-9.8-17.7 0-11.9 3.6-18.3 9.7-18.3 3 0 5.3 1.3 6.7 3.9 1.4 2.6 2.5 6.9 2.5 14.2zM422.26 317c0-14.6-20.7-14.9-20.7-23.3 0-3.6 2.6-5.9 7.1-5.9 3 0 6.1 1 8.1 1.8 1.1.4 2.1.2 2.5-1l.9-2.5c.4-1.2.1-2.2-.9-2.7-2.6-1.2-5.6-2.1-10.3-2.1-9.4 0-15.3 5.3-15.3 13 0 13.4 20.5 13.5 20.5 22.6 0 4.1-2.3 6.5-7.3 6.5-4 0-7.9-1.1-11.1-2.7-1.1-.5-2.2-.1-2.6 1.3l-.9 3c-.4 1.2-.1 2.1 1.1 2.7 3.6 1.8 9 2.8 13.3 2.8 9.6 0 15.6-5.6 15.6-13.5zM481.587 305.9c0-15.3-7.4-24.6-19-24.6s-19.2 9.3-19.2 24.6c0 15.4 7.6 24.6 19.2 24.6s19-9.2 19-24.6zm-8.5 0c0 12.3-3.8 18-10.7 18-6.9 0-10.7-5.7-10.7-18 0-12 3.8-17.9 10.7-17.9 6.9 0 10.7 5.9 10.7 17.9zM520.51 284.1c.4-1.5-.5-2.3-1.6-2.3h-4.5c-1.2 0-2.1.6-2.4 1.9l-8.2 33.5c-.6 2.3-1.1 6.3-1.4 8.7-.3-2.5-.7-6.4-1.3-8.7l-8.6-33.4c-.3-1.3-1.3-2-2.5-2h-4.5c-1.1 0-2 .9-1.5 2.6l12.8 43.8c.4 1.4.9 1.8 2.1 1.8h6.3c1.3 0 2-.7 2.3-1.8zM558.834 305.8c0-18.9-8.5-24.5-17.7-24.5-10.7 0-18.1 9.2-18.1 24.3 0 16.2 7.5 24.9 21.3 24.9 5.7 0 8.9-1 11.6-2.2 1.2-.5 1.7-1.5 1.3-2.6l-.9-2.5c-.4-1-1.2-1.7-2.6-1.3-3 .9-5.7 1.6-9.5 1.6-9 0-12.5-5.5-12.9-15.6h25.5c1.1 0 2-1 2-2.1zm-8.2-4.3h-19.3c1.2-11.9 6.7-13.8 10-13.8 6.6 0 9.1 7.1 9.3 13.8zM591.784 284.8c.5-2-2-3.5-5.2-3.5-4.6 0-8.4 2.7-11.2 7.4l-1.4-5.4c-.3-1-1.1-1.5-2.1-1.5h-2.3c-1.1 0-2.1.8-2.1 2V328c0 1.1 1 2 2.1 2h3.8c1.1 0 2.1-.9 2.1-2v-26.1c0-8.7 3.9-12.3 6.8-12.3 1.9 0 4.2.7 5.6 1.1 1.7.5 2.6-.4 2.9-1.8zM211.87 437.2l-.4-2.1c-.2-1.1-1.1-1.8-2.1-1.6-1 .2-2.3.4-3.1.4-2.5 0-3.6-1.2-3.6-3.9v-31.8h5.6c1.1 0 2-1 2-2.1v-2.2c0-1.1-.9-2.1-2-2.1h-5.6v-12.5c0-1.6-1.4-1.5-2.6-1.1l-3.7 1.3c-.9.3-1.5 1.1-1.5 2.2v10.1h-5.5c-1.2 0-2 1-2 2.1v2.2c0 1.1.8 2.1 2 2.1h5.5V431c0 6.4 3.2 9.5 10 9.5 2.1 0 4.1-.3 5.5-.7 1.4-.4 1.7-1.4 1.5-2.6zM251.424 438v-34.2c0-7.5-4.8-12.5-12.3-12.5-5.1 0-9.4 2-13.7 6.8v-26.9c0-1.2-1-2-2.1-2h-3.6c-1.1 0-2.1.8-2.1 2V438c0 1.1 1 2 2.1 2h3.6c1.1 0 2.1-.9 2.1-2v-27.5c0-6.9 5.3-12.4 11.8-12.4 4.4 0 6.4 2.2 6.4 7.5V438c0 1.1 1 2 2.1 2h3.6c1.1 0 2.1-.9 2.1-2zM295.362 415.8c0-18.9-8.5-24.5-17.7-24.5-10.7 0-18.1 9.2-18.1 24.3 0 16.2 7.5 24.9 21.3 24.9 5.7 0 8.9-1 11.6-2.2 1.2-.5 1.7-1.5 1.3-2.6l-.9-2.5c-.4-1-1.2-1.7-2.6-1.3-3 .9-5.7 1.6-9.5 1.6-9 0-12.5-5.5-12.9-15.6h25.5c1.1 0 2-1 2-2.1zm-8.2-4.3h-19.3c1.2-11.9 6.7-13.8 10-13.8 6.6 0 9.1 7.1 9.3 13.8zM336.643 437.3l-.6-2.7c-.3-1.3-1-1.6-2.2-1.3-1.2.3-2.3.6-3.2.6-2.2 0-2.5-1.4-2.5-3.9v-58.8c0-1.2-1-2-2.1-2h-3.6c-1.1 0-2.1.8-2.1 2V432c0 5.5 2.8 8.5 9.1 8.5 2.3 0 4.2-.5 5.9-1.1 1.1-.4 1.5-1 1.3-2.1zM372.952 438l-.6-3c-.6-3-.6-5.7-.6-8.3V409c0-8-1.4-17.7-16.5-17.7-4.3 0-8.9 1.1-11.6 1.8-1.2.3-1.6 1.2-1.4 2.4l.6 3.2c.2 1.2 1.3 1.8 2.5 1.5 2.7-.7 5.4-1.7 9.5-1.7 7.5 0 9.1 3.1 9.1 9.4v2.6l-11.7.7c-6.9.4-14.5 4-14.5 15.3 0 8.9 5.1 14 12.8 14 5.3 0 10.5-2 13.7-7.3l.8 5c.2 1.3 1.1 1.8 2.2 1.8h4.1c1.1 0 1.8-.8 1.6-2zm-9-13.9c0 3.9-4.4 10-11.2 10-4.2 0-6.8-2.4-6.8-7.6 0-8.1 4.8-9.7 11.3-10l6.7-.3zM409.893 437.9v-2.8c0-1.1-.9-1.8-2-1.8h-16.8c-1.1 0-2.7.1-3.7.2.8-1 2-2.8 2.9-4.3l18.4-29.8c.5-.8.7-1.4.7-2.4v-3.1c0-1.1-.9-2.1-2-2.1h-24.7c-1.2 0-2 1-2 2.1v2.3c0 1.1.8 2.1 2 2.1h16c.6 0 2 0 2.9-.2-.7.7-1.4 1.8-2.2 3.1l-19.3 31.1c-.4.7-.8 1.5-.8 2.4v2.3c0 1.8.8 3 2.2 3h26.4c1.1 0 2-1 2-2.1zM451.084 393.8c.3-1.1-.6-2-1.7-2h-4.5c-1.2 0-2.1.6-2.4 1.9l-8.2 31.6c-.7 2.5-1.3 5.4-1.6 6.9-.2-1.6-.6-3.7-1-5.1l-9.7-33.3c-.4-1.3-1.3-2-2.5-2h-4.7c-1.1 0-2 .9-1.7 2l13 40.6c.5 1.4 1 1.9 2.4 1.9h3.1l-1.7 6.5c-1.2 4.6-2.6 8.1-6.6 10l-1.5.7c-.9.4-1.4 2-1 2.8l1.4 2.8c.5 1 1.7 1.3 2.6.9l2.1-1c5-2.4 8.1-6.7 9.6-12.2zM506.184 438v-66.8c0-1.2-1-2-2.1-2h-3.6c-1.1 0-2.1.8-2.1 2v27.2c-2.6-4.7-6.3-7.1-11.2-7.1-4.3 0-8.6 1.9-11.2 5.4-3.4 4.6-4.8 9.5-4.8 19.4 0 16.2 5.4 24.4 15.7 24.4 5.2 0 8.8-1.9 11.7-6.8l.8 4.3c.3 1.4 1.1 2 2.6 2h2.1c1.1 0 2.1-.9 2.1-2zm-7.6-21.8c0 12-3.3 17.7-9.8 17.7-6.3 0-9.1-5.1-9.1-17.9 0-7.3 1.1-11.6 2.5-14.2 1.4-2.6 3.7-3.9 6.7-3.9 6.1 0 9.7 6.4 9.7 18.3zM552.568 415.9c0-15.3-7.4-24.6-19-24.6s-19.2 9.3-19.2 24.6c0 15.4 7.6 24.6 19.2 24.6s19-9.2 19-24.6zm-8.5 0c0 12.3-3.8 18-10.7 18-6.9 0-10.7-5.7-10.7-18 0-12 3.8-17.9 10.7-17.9 6.9 0 10.7 5.9 10.7 17.9zM592.37 441.2v-47.4c0-1.2-1-2-2.1-2h-2.1c-1.5 0-2.3.6-2.6 2l-1 4.6c-2.6-4.7-6.3-7.1-11.2-7.1-4.3 0-8.7 2-11.2 5.4-3.4 4.6-4.8 9.5-4.8 19.4 0 16.2 5.4 24.4 15.7 24.4 5.2 0 8.8-1.9 11.5-6.5v7.3c0 4.8-.1 11.8-10.6 11.8-3.9 0-8.3-1.2-10.9-2-1.2-.4-2.1.2-2.4 1.3l-.8 3.2c-.3 1.2.2 2.2 1.2 2.5 3.4 1 8.3 2.1 13.4 2.1 16.7 0 17.9-11.6 17.9-19zm-7.6-25c0 12-3.3 17.7-9.8 17.7-6.3 0-9.1-5.1-9.1-17.9 0-7.3 1.1-11.6 2.5-14.2 1.4-2.6 3.7-3.9 6.7-3.9 6.1 0 9.7 6.4 9.7 18.3zM611.565 434.2c0-3.5-2.8-6.2-6.3-6.2s-6.2 2.7-6.2 6.2 2.7 6.3 6.2 6.3 6.3-2.8 6.3-6.3z"/></g></svg>