<svg xmlns="http://www.w3.org/2000/svg" viewBox="0 0 800 500"><path fill="#fff" d="M0 0h800v500H0z"/><g font-weight="400" font-size="100" font-family="Interstate" text-anchor="middle" fill="#111"><path d="M233.05 50.3h-20.4V110h-10.5V50.3h-20.4V40h51.3zM287.593 110h-10.3V80.3q0-14.4-10.8-14.4t-10.8 13.4V110h-10.3V42.5l10.3-5.4v25.4q4.2-6.1 13.2-6.1 18.7 0 18.7 23.5zM345.024 82.7q0 1.4-.3 4.7h-34.7q.8 7.2 4.6 11 3.5 3.4 8.6 3.4 5.7 0 11.4-4.2l6.1 6.6q-7.2 6.9-18.1 6.9-9.6 0-16-7.1-6.7-7.6-6.7-20.2 0-13.1 6.4-20.4 6.2-7 16.6-7 10.7 0 16.6 7.8 5.5 7.2 5.5 18.5zm-10.4-3.8q-.9-13.2-12.4-13.2-10.6 0-12 13.2zM426.646 124l-10.2 5.3V105q-6.6 6.1-13.7 6.1-9.1 0-14.3-6.6-5.9-7.3-5.9-21.6 0-12.8 6.3-20 5.6-6.5 14.4-6.5 7.8 0 13.2 6v-4.9h10.2zm-10.1-29.1V72.8q-5.1-6.9-12.3-6.9-11.4 0-11.4 16.7 0 19 11.8 19 6.6 0 11.9-6.7zM483.677 110h-10.3v-5q-4.2 6.1-13.2 6.1-18.7 0-18.7-23.5V57.5h10.3v29.7q0 14.4 10.8 14.4t10.8-13.4V57.5h10.3zM511.21 44.1q0 2.7-2 4.7-1.9 1.9-4.6 1.9-2.8 0-4.8-1.9-1.9-2-1.9-4.7 0-2.8 1.9-4.7 2-2 4.8-2 2.7 0 4.6 2 2 1.9 2 4.7zm-1.5 65.9h-10.3V57.5h10.3zM564.57 65.3l-6.1 7.3q-6.3-6.4-12.8-6.4-5.6 0-9 4.7-3.3 4.7-3.3 12.7 0 8 3.2 12.7 3.4 5 9.4 5 5.7 0 11.9-6.5l6.6 6.5q-7.7 9.8-18.8 9.8-9.8 0-16.1-7.5-6.6-7.6-6.6-19.7 0-12.7 6.7-20.3 6.4-7.2 16.3-7.2 11.1 0 18.6 8.9zM618.72 110h-11.2l-11.6-26.1-8 10.6V110h-10.3V42.5l10.3-5.4V76q-.1 4.2-.1 5.4 2-3 5.8-8.6l10.9-15.3h11.7l-13.3 17.6zM221.622 194.6q0 12.8-6.3 20-5.6 6.5-14.4 6.5-7.8 0-13.2-6v4.9h-10.2v-67.6l10.2-5.3v25.4q6.6-6.1 13.7-6.1 9.1 0 14.3 6.6 5.9 7.3 5.9 21.6zm-10.3.3q0-19-11.8-19-6.6 0-11.9 6.7v22.1q5.1 6.9 12.3 6.9 11.4 0 11.4-16.7zM265.753 168.6l-2.7 9.8q-3.5-1.9-7.9-1.9-10.3 0-10.3 13.5v30h-10.3v-52.5h10.3v5q4.2-6.1 12-6.1 5.6 0 8.9 2.2zM320.65 193.5q0 12.8-6.7 20.2-6.6 7.4-17 7.4-10 0-16.6-7.5-6.5-7.6-6.5-19.8 0-12.6 6.8-20.2 6.4-7.2 16.6-7.2 10.2 0 16.8 7.5 6.6 7.5 6.6 19.6zm-10.4.3q0-8.1-3.6-12.8-3.6-4.8-9.8-4.8-5.8 0-9.2 4.7-3.4 4.7-3.4 12.6 0 8.5 3.5 13.2 3.6 4.6 9.6 4.6 5.7 0 9.4-5.2 3.5-4.9 3.5-12.3zM395.88 167.5l-14.6 52.5h-8.8l-7.1-26.5q-1.8-6.8-2.7-11.2-.9 4.5-2.7 11.3l-7 26.4h-8.8l-14.4-52.5h10.2l6.2 25.5q1.7 7 2.6 11.5 1.4-5.9 2.9-11.5l7-25.5h8.3l7.1 25.6q1 3.6 2.8 11.4.8-3.7 2.6-11.5l6.2-25.5zM449.605 220h-10.3v-29.7q0-14.4-10.8-14.4t-10.8 13.4V220h-10.3v-52.5h10.3v5q4.2-6.1 13.2-6.1 18.7 0 18.7 23.5zM515.99 157.4q-3.4-1-6-1-4.8 0-4.8 5.1v6h9.7v9.6h-9.7V220h-10.3v-42.9h-6.8v-9.6h6.8v-6.9q0-13.2 13.3-13.2 4.1 0 7.8 1zM571.822 193.5q0 12.8-6.7 20.2-6.6 7.4-17 7.4-10 0-16.6-7.5-6.5-7.6-6.5-19.8 0-12.6 6.8-20.2 6.4-7.2 16.6-7.2 10.2 0 16.8 7.5 6.6 7.5 6.6 19.6zm-10.4.3q0-8.1-3.6-12.8-3.6-4.8-9.8-4.8-5.8 0-9.2 4.7-3.4 4.7-3.4 12.6 0 8.5 3.5 13.2 3.6 4.6 9.6 4.6 5.7 0 9.4-5.2 3.5-4.9 3.5-12.3zM626.053 220h-12.2l-5-9.1q-2.2-4-5.5-10.6-1.4 3.1-5.7 10.7l-5.1 9h-11.6l16.5-27.2-15.4-25.3h11.9l4.1 7.4q4.1 7.4 5.5 10.5 1.8-3.5 5.6-10.7l4-7.2h11.8l-15.5 25.3zM163.845 264.1q0 2.7-2 4.7-1.9 1.9-4.6 1.9-2.8 0-4.8-1.9-1.9-2-1.9-4.7 0-2.8 1.9-4.7 2-2 4.8-2 2.7 0 4.6 2 2 1.9 2 4.7zm-1.5 63.5q0 10.2-3.5 14.7-3.7 4.8-14.3 7l-3.5-7.8q7.1-2 9-4.5 2-2.4 2-9.2v-50.3h10.3zM219.908 330h-10.3v-5q-4.2 6.1-13.2 6.1-18.7 0-18.7-23.5v-30.1h10.3v29.7q0 14.4 10.8 14.4t10.8-13.4v-30.7h10.3zM306.44 330h-10.3v-29.7q0-7.8-2.5-11.1-2.4-3.3-7.6-3.3-10.1 0-10.1 13.4V330h-10.3v-29.7q0-7.8-2.5-11.1-2.4-3.3-7.6-3.3-10.1 0-10.1 13.4V330h-10.3v-52.5h10.3v5q4.2-6.1 12.5-6.1 10.1 0 14.4 7.7 6.2-7.7 16.1-7.7 18 0 18 23.5zM365.372 304.6q0 12.8-6.3 20-5.6 6.5-14.4 6.5-7.8 0-13.2-6V344l-10.2 5.3v-71.8h10.2v5q6.6-6.1 13.7-6.1 9.1 0 14.3 6.6 5.9 7.3 5.9 21.6zm-10.3.3q0-19-11.8-19-6.6 0-11.9 6.7v22.1q5.1 6.9 12.3 6.9 11.4 0 11.4-16.7zM415.003 315.6q0 8.1-6 12.1-5.1 3.4-13.7 3.4-11 0-20.1-6.7l4.7-7.8q7.5 5.2 15.3 5.2 9.6 0 9.6-5.8 0-2.7-3.3-4.8-2.1-1.4-8.9-4-8.6-3.3-12-6.8-3.4-3.6-3.4-9.7 0-6.9 4.9-10.6 4.9-3.7 13-3.7 9.8 0 17.8 5.8l-4.5 7.9q-6.4-4.5-13.6-4.5-7.2 0-7.2 4.8 0 3.8 9.7 7.6 9.8 3.8 13.2 6.8 4.5 3.9 4.5 10.8zM499.36 303.5q0 12.8-6.7 20.2-6.6 7.4-17 7.4-10 0-16.6-7.5-6.5-7.6-6.5-19.8 0-12.6 6.8-20.2 6.4-7.2 16.6-7.2 10.2 0 16.8 7.5 6.6 7.5 6.6 19.6zm-10.4.3q0-8.1-3.6-12.8-3.6-4.8-9.8-4.8-5.8 0-9.2 4.7-3.4 4.7-3.4 12.6 0 8.5 3.5 13.2 3.6 4.6 9.6 4.6 5.7 0 9.4-5.2 3.5-4.9 3.5-12.3zM555.392 277.5l-18.5 52.5h-10.3l-18.8-52.5h10.8l9.4 28.5q2.9 8.9 3.9 12.9.9-4.4 3.6-12.9l9-28.5zM608.99 302.7q0 1.4-.3 4.7h-34.7q.8 7.2 4.6 11 3.5 3.4 8.6 3.4 5.7 0 11.4-4.2l6.1 6.6q-7.2 6.9-18.1 6.9-9.6 0-16-7.1-6.7-7.6-6.7-20.2 0-13.1 6.4-20.4 6.2-7 16.6-7 10.7 0 16.6 7.8 5.5 7.2 5.5 18.5zm-10.4-3.8q-.9-13.2-12.4-13.2-10.6 0-12 13.2zM653.058 278.6l-2.7 9.8q-3.5-1.9-7.9-1.9-10.3 0-10.3 13.5v30h-10.3v-52.5h10.3v5q4.2-6.1 12-6.1 5.6 0 8.9 2.2zM137.318 429.6l-1.2 9.1q-4.3 2.4-10.1 2.4-11.8 0-11.8-13.9v-30.3h-7.5v-9.4h7.5v-15l10.1-5.4v20.4h13v9.4h-13v28.5q0 3.6 1.2 5 1.3 1.3 4.2 1.3 4 0 7.6-2.1zM193.452 440h-10.3v-29.7q0-14.4-10.8-14.4t-10.8 13.4V440h-10.3v-67.5l10.3-5.4v25.4q4.2-6.1 13.2-6.1 18.7 0 18.7 23.5zM250.884 412.7q0 1.4-.3 4.7h-34.7q.8 7.2 4.6 11 3.5 3.4 8.6 3.4 5.7 0 11.4-4.2l6.1 6.6q-7.2 6.9-18.1 6.9-9.6 0-16-7.1-6.7-7.6-6.7-20.2 0-13.1 6.4-20.4 6.2-7 16.6-7 10.7 0 16.6 7.8 5.5 7.2 5.5 18.5zm-10.4-3.8q-.9-13.2-12.4-13.2-10.6 0-12 13.2zM301.505 440h-10.3v-67.5l10.3-5.4zM357.468 440h-10.1v-5.2q-6.3 6.3-14.4 6.3-7.3 0-12.3-4-5.9-4.8-5.9-13.7 0-8.4 6-12.9 5.5-4.1 14.9-4.1 7.2 0 11.7 2v-3.9q0-8.9-9.9-8.9-7.8 0-13.7 3.3l-4-7.8q7.6-4.7 18-4.7 9.1 0 14.2 4.3 5.5 4.6 5.5 13.3zm-10.1-14.9v-7.5q-4.6-2.3-12-2.3-5 0-7.9 2.1-2.9 2.1-2.9 5.7 0 8.7 10.1 8.7 7.8 0 12.7-6.7zM411.046 440h-40.5v-8.4l22.5-27.5q2.5-3 6.3-7.6H372.546v-9h38.5v8.3l-22 27.5q-4.7 5.8-6.3 7.7H411.046zM469.78 387.5l-26.4 71h-10.9l7.6-19.5-19.3-51.5h11.3l8.6 25.7q3.8 11.2 4.6 15.3 2.7-9.2 4.7-15.1l8.9-25.9zM549.498 440h-10.2v-5q-6.6 6.1-13.7 6.1-9.1 0-14.3-6.6-5.9-7.3-5.9-21.6 0-12.8 6.3-20 5.6-6.5 14.4-6.5 7.8 0 13.2 6v-20l10.2-5.3zm-10.1-15.1v-22.1q-5.1-6.9-12.3-6.9-11.4 0-11.4 16.7 0 19 11.8 19 6.6 0 11.9-6.7zM609.03 413.5q0 12.8-6.7 20.2-6.6 7.4-17 7.4-10 0-16.6-7.5-6.5-7.6-6.5-19.8 0-12.6 6.8-20.2 6.4-7.2 16.6-7.2 10.2 0 16.8 7.5 6.6 7.5 6.6 19.6zm-10.4.3q0-8.1-3.6-12.8-3.6-4.8-9.8-4.8-5.8 0-9.2 4.7-3.4 4.7-3.4 12.6 0 8.5 3.5 13.2 3.6 4.6 9.6 4.6 5.7 0 9.4-5.2 3.5-4.9 3.5-12.3zM663.56 435q0 12.4-5.3 17.9-5.7 6-19.5 6.4l-3.5-7.8q10.8-.5 14.6-4 3.4-3.2 3.4-11.6v-.9q-6.6 6.1-13.6 6.1-9 0-14.3-6.6-5.9-7.4-5.9-21.6 0-12.8 6.3-20 5.7-6.5 14.4-6.5 7.9 0 13.1 6v-4.9h10.3zm-10.1-10.1v-22.1q-5.1-6.9-12.3-6.9-11.4 0-11.4 16.7 0 19 11.8 19 6.6 0 11.9-6.7zM691.79 433.2q0 3.2-2.4 5.6-2.3 2.3-5.5 2.3t-5.6-2.3q-2.3-2.4-2.3-5.6 0-3.2 2.3-5.6 2.4-2.4 5.6-2.4 3.2 0 5.5 2.4 2.4 2.4 2.4 5.6z"/></g></svg>