<svg xmlns="http://www.w3.org/2000/svg" viewBox="0 0 1600 1000" height="1000" width="1600"><path fill="#fff" d="M0 0h1600v1000H0z"/><g font-weight="400" font-size="200" font-family="Interstate" letter-spacing="-.03em" text-anchor="middle" fill="#222"><path d="M493.102 100.6h-40.8V220h-21V100.6h-40.8V80h102.6zM596.186 220h-20.6v-59.4q0-28.8-21.6-28.8t-21.6 26.8V220h-20.6V85l20.6-10.8V125q8.4-12.2 26.4-12.2 37.4 0 37.4 47zM705.048 165.4q0 2.8-.6 9.4h-69.4q1.6 14.4 9.2 22 7 6.8 17.2 6.8 11.4 0 22.8-8.4l12.2 13.2q-14.4 13.8-36.2 13.8-19.2 0-32-14.2-13.4-15.2-13.4-40.4 0-26.2 12.8-40.8 12.4-14 33.2-14 21.4 0 33.2 15.6 11 14.4 11 37zm-20.8-7.6q-1.8-26.4-24.8-26.4-21.2 0-24 26.4zM856.292 248l-20.4 10.6V210q-13.2 12.2-27.4 12.2-18.2 0-28.6-13.2-11.8-14.6-11.8-43.2 0-25.6 12.6-40 11.2-13 28.8-13 15.6 0 26.4 12V115h20.4zm-20.2-58.2v-44.2q-10.2-13.8-24.6-13.8-22.8 0-22.8 33.4 0 38 23.6 38 13.2 0 23.8-13.4zM964.355 220h-20.6v-10q-8.4 12.2-26.4 12.2-37.4 0-37.4-47V115h20.6v59.4q0 28.8 21.6 28.8t21.6-26.8V115h20.6zM1013.417 88.2q0 5.4-4 9.4-3.8 3.8-9.2 3.8-5.6 0-9.6-3.8-3.8-4-3.8-9.4 0-5.6 3.8-9.4 4-4 9.6-4 5.4 0 9.2 4 4 3.8 4 9.4zm-3 131.8h-20.6V115h20.6zM1114.142 130.6l-12.2 14.6q-12.6-12.8-25.6-12.8-11.2 0-18 9.4-6.6 9.4-6.6 25.4 0 16 6.4 25.4 6.8 10 18.8 10 11.4 0 23.8-13l13.2 13q-15.4 19.6-37.6 19.6-19.6 0-32.2-15-13.2-15.2-13.2-39.4 0-25.4 13.4-40.6 12.8-14.4 32.6-14.4 22.2 0 37.2 17.8zM1216.44 220h-22.4l-23.2-52.2-16 21.2v31h-20.6V85l20.6-10.8V152q-.2 8.4-.2 10.8 4-6 11.6-17.2l21.8-30.6h23.4l-26.6 35.2zM470.244 389.2q0 25.6-12.6 40-11.2 13-28.8 13-15.6 0-26.4-12v9.8h-20.4V304.8l20.4-10.6V345q13.2-12.2 27.4-12.2 18.2 0 28.6 13.2 11.8 14.6 11.8 43.2zm-20.6.6q0-38-23.6-38-13.2 0-23.8 13.4v44.2q10.2 13.8 24.6 13.8 22.8 0 22.8-33.4zM552.506 337.2l-5.4 19.6q-7-3.8-15.8-3.8-20.6 0-20.6 27v60h-20.6V335h20.6v10q8.4-12.2 24-12.2 11.2 0 17.8 4.4zM656.3 387q0 25.6-13.4 40.4-13.2 14.8-34 14.8-20 0-33.2-15-13-15.2-13-39.6 0-25.2 13.6-40.4 12.8-14.4 33.2-14.4 20.4 0 33.6 15 13.2 15 13.2 39.2zm-20.8.6q0-16.2-7.2-25.6-7.2-9.6-19.6-9.6-11.6 0-18.4 9.4-6.8 9.4-6.8 25.2 0 17 7 26.4 7.2 9.2 19.2 9.2 11.4 0 18.8-10.4 7-9.8 7-24.6zM800.763 335l-29.2 105h-17.6l-14.2-53q-3.6-13.6-5.4-22.4-1.8 9-5.4 22.6l-14 52.8h-17.6l-28.8-105h20.4l12.4 51q3.4 14 5.2 23 2.8-11.8 5.8-23l14-51h16.6l14.2 51.2q2 7.2 5.6 22.8 1.6-7.4 5.2-23l12.4-51zM902.21 440h-20.6v-59.4q0-28.8-21.6-28.8t-21.6 26.8V440h-20.6V335h20.6v10q8.4-12.2 26.4-12.2 37.4 0 37.4 47zM1022.978 314.8q-6.8-2-12-2-9.6 0-9.6 10.2v12h19.4v19.2h-19.4V440h-20.6v-85.8h-13.6V335h13.6v-13.8q0-26.4 26.6-26.4 8.2 0 15.6 2zM1128.644 387q0 25.6-13.4 40.4-13.2 14.8-34 14.8-20 0-33.2-15-13-15.2-13-39.6 0-25.2 13.6-40.4 12.8-14.4 33.2-14.4 20.4 0 33.6 15 13.2 15 13.2 39.2zm-20.8.6q0-16.2-7.2-25.6-7.2-9.6-19.6-9.6-11.6 0-18.4 9.4-6.8 9.4-6.8 25.2 0 17 7 26.4 7.2 9.2 19.2 9.2 11.4 0 18.8-10.4 7-9.8 7-24.6zM1231.106 440h-24.4l-10-18.2q-4.4-8-11-21.2-2.8 6.2-11.4 21.4l-10.2 18h-23.2l33-54.4-30.8-50.6h23.8l8.2 14.8q8.2 14.8 11 21 3.6-7 11.2-21.4l8-14.4h23.6l-31 50.6zM357.69 528.2q0 5.4-4 9.4-3.8 3.8-9.2 3.8-5.6 0-9.6-3.8-3.8-4-3.8-9.4 0-5.6 3.8-9.4 4-4 9.6-4 5.4 0 9.2 4 4 3.8 4 9.4zm-3 127q0 20.4-7 29.4-7.4 9.6-28.6 14l-7-15.6q14.2-4 18-9 4-4.8 4-18.4V555h20.6zM463.816 660h-20.6v-10q-8.4 12.2-26.4 12.2-37.4 0-37.4-47V555h20.6v59.4q0 28.8 21.6 28.8t21.6-26.8V555h20.6zM630.878 660h-20.6v-59.4q0-15.6-5-22.2-4.8-6.6-15.2-6.6-20.2 0-20.2 26.8V660h-20.6v-59.4q0-15.6-5-22.2-4.8-6.6-15.2-6.6-20.2 0-20.2 26.8V660h-20.6V555h20.6v10q8.4-12.2 25-12.2 20.2 0 28.8 15.4 12.4-15.4 32.2-15.4 36 0 36 47zM742.744 609.2q0 25.6-12.6 40-11.2 13-28.8 13-15.6 0-26.4-12V688l-20.4 10.6V555h20.4v10q13.2-12.2 27.4-12.2 18.2 0 28.6 13.2 11.8 14.6 11.8 43.2zm-20.6.6q0-38-23.6-38-13.2 0-23.8 13.4v44.2q10.2 13.8 24.6 13.8 22.8 0 22.8-33.4zM836.006 631.2q0 16.2-12 24.2-10.2 6.8-27.4 6.8-22 0-40.2-13.4l9.4-15.6q15 10.4 30.6 10.4 19.2 0 19.2-11.6 0-5.4-6.6-9.6-4.2-2.8-17.8-8-17.2-6.6-24-13.6-6.8-7.2-6.8-19.4 0-13.8 9.8-21.2 9.8-7.4 26-7.4 19.6 0 35.6 11.6l-9 15.8q-12.8-9-27.2-9-14.4 0-14.4 9.6 0 7.6 19.4 15.2 19.6 7.6 26.4 13.6 9 7.8 9 21.6zM992.722 607q0 25.6-13.4 40.4-13.2 14.8-34 14.8-20 0-33.2-15-13-15.2-13-39.6 0-25.2 13.6-40.4 12.8-14.4 33.2-14.4 20.4 0 33.6 15 13.2 15 13.2 39.2zm-20.8.6q0-16.2-7.2-25.6-7.2-9.6-19.6-9.6-11.6 0-18.4 9.4-6.8 9.4-6.8 25.2 0 17 7 26.4 7.2 9.2 19.2 9.2 11.4 0 18.8-10.4 7-9.8 7-24.6zM1098.784 555l-37 105h-20.6l-37.6-105h21.6l18.8 57q5.8 17.8 7.8 25.8 1.8-8.8 7.2-25.8l18-57zM1199.978 605.4q0 2.8-.6 9.4h-69.4q1.6 14.4 9.2 22 7 6.8 17.2 6.8 11.4 0 22.8-8.4l12.2 13.2q-14.4 13.8-36.2 13.8-19.2 0-32-14.2-13.4-15.2-13.4-40.4 0-26.2 12.8-40.8 12.4-14 33.2-14 21.4 0 33.2 15.6 11 14.4 11 37zm-20.8-7.6q-1.8-26.4-24.8-26.4-21.2 0-24 26.4zM1282.116 557.2l-5.4 19.6q-7-3.8-15.8-3.8-20.6 0-20.6 27v60h-20.6V555h20.6v10q8.4-12.2 24-12.2 11.2 0 17.8 4.4zM310.636 859.2l-2.4 18.2q-8.6 4.8-20.2 4.8-23.6 0-23.6-27.8v-60.6h-15V775h15v-30l20.2-10.8V775h26v18.8h-26v57q0 7.2 2.4 10 2.6 2.6 8.4 2.6 8 0 15.2-4.2zM416.905 880h-20.6v-59.4q0-28.8-21.6-28.8t-21.6 26.8V880h-20.6V745l20.6-10.8V785q8.4-12.2 26.4-12.2 37.4 0 37.4 47zM525.767 825.4q0 2.8-.6 9.4h-69.4q1.6 14.4 9.2 22 7 6.8 17.2 6.8 11.4 0 22.8-8.4l12.2 13.2q-14.4 13.8-36.2 13.8-19.2 0-32-14.2-13.4-15.2-13.4-40.4 0-26.2 12.8-40.8 12.4-14 33.2-14 21.4 0 33.2 15.6 11 14.4 11 37zm-20.8-7.6q-1.8-26.4-24.8-26.4-21.2 0-24 26.4zM615.01 880h-20.6V745l20.6-10.8zM720.936 880h-20.2v-10.4q-12.6 12.6-28.8 12.6-14.6 0-24.6-8-11.8-9.6-11.8-27.4 0-16.8 12-25.8 11-8.2 29.8-8.2 14.4 0 23.4 4V809q0-17.8-19.8-17.8-15.6 0-27.4 6.6l-8-15.6q15.2-9.4 36-9.4 18.2 0 28.4 8.6 11 9.2 11 26.6zm-20.2-29.8v-15q-9.2-4.6-24-4.6-10 0-15.8 4.2-5.8 4.2-5.8 11.4 0 17.4 20.2 17.4 15.6 0 25.4-13.4zM822.092 880h-81v-16.8l45-55q5-6 12.6-15.2H745.092v-18h77v16.6l-44 55q-9.4 11.6-12.6 15.4H822.092zM933.56 775l-52.8 142h-21.8l15.2-39-38.6-103h22.6l17.2 51.4q7.6 22.4 9.2 30.6 5.4-18.4 9.4-30.2l17.8-51.8zM1080.995 880h-20.4v-10q-13.2 12.2-27.4 12.2-18.2 0-28.6-13.2-11.8-14.6-11.8-43.2 0-25.6 12.6-40 11.2-13 28.8-13 15.6 0 26.4 12v-40l20.4-10.6zm-20.2-30.2v-44.2q-10.2-13.8-24.6-13.8-22.8 0-22.8 33.4 0 38 23.6 38 13.2 0 23.8-13.4zM1194.058 827q0 25.6-13.4 40.4-13.2 14.8-34 14.8-20 0-33.2-15-13-15.2-13-39.6 0-25.2 13.6-40.4 12.8-14.4 33.2-14.4 20.4 0 33.6 15 13.2 15 13.2 39.2zm-20.8.6q0-16.2-7.2-25.6-7.2-9.6-19.6-9.6-11.6 0-18.4 9.4-6.8 9.4-6.8 25.2 0 17 7 26.4 7.2 9.2 19.2 9.2 11.4 0 18.8-10.4 7-9.8 7-24.6zM1297.12 870q0 24.8-10.6 35.8-11.4 12-39 12.8l-7-15.6q21.6-1 29.2-8 6.8-6.4 6.8-23.2V870q-13.2 12.2-27.2 12.2-18 0-28.6-13.2-11.8-14.8-11.8-43.2 0-25.6 12.6-40 11.4-13 28.8-13 15.8 0 26.2 12V775h20.6zm-20.2-20.2v-44.2q-10.2-13.8-24.6-13.8-22.8 0-22.8 33.4 0 38 23.6 38 13.2 0 23.8-13.4zM1347.583 866.4q0 6.4-4.8 11.2-4.6 4.6-11 4.6t-11.2-4.6q-4.6-4.8-4.6-11.2 0-6.4 4.6-11.2 4.8-4.8 11.2-4.8 6.4 0 11 4.8 4.8 4.8 4.8 11.2z"/></g></svg>