<svg xmlns="http://www.w3.org/2000/svg" viewBox="0 0 800 500" height="500" width="800"><path fill="#fff" d="M0 0h800v500H0z"/><g font-weight="400" font-size="100" font-family="Kabel" letter-spacing="-.03em" text-anchor="middle" fill="#222"><path d="M228.832 52.334v56.982l-9.668 1.368v-58.35h-18.848l3.467-8.984h41.846v8.984zM260.744 64.64q7.227-6.007 15.04-6.007 9.18 0 13.915 5.81 4.345 5.274 4.345 14.65v30.223l-9.18 1.368V79.092q0-11.865-10.986-11.865-5.714 0-9.327 3.027-3.81 3.223-3.81 8.838v30.224l-9.18 1.368V41.982l9.18-1.318zM347.54 93.838l1.952 9.814q-10.107 7.666-20.898 7.666-11.133 0-19.092-7.568-7.96-7.568-7.96-18.652 0-11.133 7.618-18.8 7.666-7.665 18.8-7.665 15.33 0 22.753 13.77l-36.377 21.435q5.03 8.203 14.258 8.203 8.398 0 18.945-8.202zm-36.23-8.008l25.73-15.185q-3.66-3.418-9.228-3.418-6.787 0-11.865 5.078-5.078 5.03-4.736 11.62zM418.59 127.334v-23.682q-7.324 7.666-17.627 7.666-10.89 0-18.31-7.666-7.374-7.715-7.374-18.603 0-10.89 7.226-18.556 7.422-7.86 18.213-7.86 9.813 0 17.87 7.372v-5.37l9.18-1.32v66.895zm-16.992-60.107q-7.227 0-12.06 5.078-4.786 5.078-4.786 12.353 0 7.373 4.687 12.403 4.736 4.98 12.11 4.98 7.274 0 12.255-5.077 4.98-5.127 4.98-12.402 0-7.128-5.03-12.206-5.028-5.127-12.157-5.127zM481.264 59.316v50l-9.18 1.368v-6.934q-6.592 7.617-15.088 7.617-17.822 0-17.822-20.556V60.636l9.18-1.32v31.496q0 11.28 10.253 11.28 13.477 0 13.477-16.455v-25zM492.23 110.684v-50.05l9.178-1.318v50zm-1.515-64.16l6.2-7.813 6.056 7.813-6.054 7.666zM554.463 103.164q-7.813 8.154-18.945 8.154-11.182 0-18.848-7.666-7.666-7.714-7.666-18.896 0-10.84 7.666-18.7 7.715-7.91 18.555-7.91 10.498 0 19.238 7.323l-6.2 6.64q-6.3-4.835-12.355-4.835-7.275 0-12.353 4.932-5.078 4.932-5.078 12.207 0 7.324 5.078 12.5 5.127 5.127 12.45 5.127 6.495 0 12.257-5.32zM569.627 84.756v24.56l-9.18 1.368V41.982l9.18-1.318v42.14l21.777-25.245 7.813 4.784-18.8 20.46 21.24 23.583-7.91 5.175zM201.684 176.396q7.763-7.763 17.382-7.763 10.987 0 18.604 7.568 7.617 7.57 7.617 18.556 0 11.23-7.96 18.945-7.958 7.667-19.237 7.667-11.768 0-18.75-7.52-6.836-7.275-6.836-19.14v-42.725l9.18-1.318zm17.09.83q-7.374 0-12.403 5.225-5.028 5.226-5.028 12.648 0 7.226 4.883 12.11 4.93 4.882 12.158 4.882 7.47 0 12.45-5.078 4.98-5.078 4.98-12.55 0-7.323-4.88-12.255-4.835-4.98-12.16-4.98zM278.664 177.96l-2.197-.1q-14.356-.633-14.356 23.634v17.822l-9.178 1.368v-50.05l9.18-1.318v10.157q5.663-11.23 17.09-11.23 1.366 0 3.76.39zM306.865 168.633q11.62 0 19.19 7.666 7.617 7.616 7.617 19.237 0 11.133-7.813 18.457-7.764 7.324-18.946 7.324-11.28 0-19.092-7.52-7.763-7.52-7.763-18.75 0-11.132 7.81-18.75 7.814-7.665 18.995-7.665zm.05 8.594q-7.276 0-12.354 5.03-5.03 5.028-5.03 12.304 0 7.715 5.08 12.598 5.077 4.883 12.792 4.883 7.227 0 12.012-4.833 4.785-4.834 4.785-12.06 0-7.52-4.884-12.696-4.882-5.223-12.402-5.223zM355.477 201.787l17.382-34.668 16.747 34.667 14.014-32.47 9.425 1.22-22.12 52.295-18.066-35.644-18.067 35.644-21.875-52.295 9.18-1.22zM416.98 220.684v-50.05l9.178-1.318v6.885q5.957-7.567 15.137-7.567 18.018 0 18.018 20.508v30.176l-9.18 1.368V189.14q0-6.005-2.002-8.74-2.343-3.173-8.25-3.173-6.593 0-10.255 4.1-3.467 3.956-3.467 10.597v27.392zM486.27 178.643L489.3 170h3.612q.147-19.336 20.947-19.19h.83l2.343 8.74-2.588-.097q-5.566-.195-8.642 1.514-3.907 2.197-3.76 7.422l.05 1.61h12.548v8.643h-12.548v40.673l-9.18 1.368v-42.04zM542.45 168.633q11.622 0 19.19 7.666 7.618 7.616 7.618 19.237 0 11.133-7.813 18.457-7.763 7.324-18.945 7.324-11.28 0-19.092-7.52-7.763-7.52-7.763-18.75 0-11.132 7.812-18.75 7.813-7.665 18.994-7.665zm.05 8.594q-7.275 0-12.354 5.03-5.03 5.028-5.03 12.304 0 7.715 5.08 12.598 5.077 4.883 12.792 4.883 7.227 0 12.012-4.833 4.785-4.834 4.785-12.06 0-7.52-4.883-12.696-4.882-5.223-12.402-5.223zM597.605 193.39l18.457 24.413-8.642 3.662-15.234-20.654-14.356 20.655-8.74-3.662 17.334-24.414-15.625-21.974 7.958-3.613 13.428 18.75 12.695-18.75 8.302 3.613zM165.684 338.79q7.666 0 10.107-1.27 3.858-2.002 3.858-8.838v-47.998l9.18-1.368v50q0 18.41-16.748 18.41h-2.588zm18.457-64.308l-6.2-7.96 6.2-8.006 5.91 8.007zM241.932 279.316v50l-9.18 1.368v-6.934q-6.592 7.617-15.088 7.617-17.822 0-17.822-20.556v-30.175l9.18-1.32v31.496q0 11.28 10.253 11.28 13.477 0 13.477-16.455v-25zM252.896 330.684v-50.05l9.18-1.318v6.446q4.59-7.13 12.354-7.13 8.886 0 12.646 7.13 5.03-7.13 14.502-7.13 16.455 0 16.455 19.434v31.25l-9.18 1.368v-32.618q0-5.127-1.416-7.617-1.904-3.223-6.738-3.223-5.518 0-8.35 4.003-2.49 3.467-2.49 9.13v28.956l-9.18 1.368V300.36q0-6.15-1.172-8.885-1.807-4.248-7.13-4.248-10.302 0-10.302 13.134v28.956zM338.568 323.8v22.216l-9.18 1.318v-66.7l9.18-1.318v7.276q7.715-7.96 17.578-7.96 11.036 0 18.458 7.813 7.275 7.715 7.275 18.8 0 10.79-7.667 18.456-7.666 7.618-18.457 7.618-9.13 0-17.188-7.52zm17.237-36.573q-7.227 0-12.5 5.078-5.225 5.03-5.225 12.207 0 7.373 5.03 12.45 5.077 5.08 12.45 5.08 7.08 0 11.963-5.177 4.883-5.176 4.883-12.353 0-7.276-4.687-12.256-4.64-5.03-11.915-5.03zM385.178 322.725l6.64-5.616q4.59 4.93 10.254 4.93 3.32 0 5.664-1.513 2.735-1.71 2.735-4.882 0-4.25-6.298-6.397-11.035-3.81-11.768-4.2-6.3-3.66-6.3-11.474 0-6.592 5.03-10.888 4.737-4.053 11.475-4.053 9.52 0 15.722 6.64l-5.762 6.543q-4.443-4.59-9.668-4.59-3.027 0-5.078 1.514-2.246 1.71-2.246 4.64 0 4.052 6.3 6.15 10.448 3.468 11.767 4.25 6.298 3.76 6.298 11.962 0 7.324-5.37 11.62-4.932 3.956-12.403 3.956-10.4 0-16.992-8.593zM472.635 278.633q11.62 0 19.19 7.666 7.616 7.616 7.616 19.237 0 11.133-7.81 18.457-7.765 7.324-18.946 7.324-11.28 0-19.092-7.52-7.764-7.52-7.764-18.75 0-11.132 7.813-18.75 7.813-7.665 18.995-7.665zm.05 8.594q-7.277 0-12.355 5.03-5.03 5.028-5.03 12.304 0 7.715 5.08 12.598 5.077 4.883 12.792 4.883 7.226 0 12.012-4.833 4.785-4.834 4.785-12.06 0-7.52-4.884-12.696-4.883-5.223-12.402-5.223zM522.516 334.248l-24.024-53.027 8.887-1.904 15.136 35.254 14.355-35.254 9.083 1.905zM591.098 313.838l1.953 9.814q-10.107 7.666-20.898 7.666-11.132 0-19.09-7.568-7.96-7.568-7.96-18.652 0-11.133 7.617-18.8 7.665-7.665 18.798-7.665 15.332 0 22.753 13.77l-36.375 21.435q5.03 8.203 14.257 8.203 8.4 0 18.946-8.202zm-36.23-8.008l25.732-15.185q-3.662-3.418-9.23-3.418-6.786 0-11.864 5.078-5.078 5.03-4.736 11.62zM625.988 287.96l-2.197-.1q-14.354-.633-14.354 23.634v17.822l-9.18 1.368v-50.05l9.18-1.318v10.157q5.664-11.23 17.09-11.23 1.367 0 3.76.39zM166.193 398.3H152.18v25.147q0 8.643 9.13 8.643 2.833 0 6.64-.83l-1.805 9.082q-3.81.683-6.983.683-16.162 0-16.162-17.627V398.3h-7.715l3.467-8.642H143v-12.695l9.18-2.393v15.088h14.013zM181.748 394.64q7.227-6.007 15.04-6.007 9.18 0 13.915 5.81 4.346 5.274 4.346 14.65v30.223l-9.18 1.368v-31.592q0-11.865-10.987-11.865-5.713 0-9.326 3.027-3.81 3.223-3.81 8.838v30.224l-9.18 1.368v-68.702l9.18-1.318zM268.543 423.838l1.953 9.814q-10.107 7.666-20.898 7.666-11.133 0-19.092-7.568-7.96-7.568-7.96-18.652 0-11.133 7.618-18.8 7.666-7.665 18.8-7.665 15.33 0 22.753 13.77l-36.377 21.435q5.03 8.203 14.258 8.203 8.398 0 18.945-8.202zm-36.23-8.008l25.732-15.185q-3.662-3.418-9.23-3.418-6.786 0-11.864 5.078-5.077 5.03-4.735 11.62zM299.7 440.684v-68.702l9.18-1.318v68.7zM322.58 400.45l2.1-9.962q8.545-1.855 15.283-1.855 18.408 0 18.408 18.603v32.08l-9.08 1.368v-5.81q-4.64 6.444-13.282 6.444-8.35 0-13.77-4.93-5.615-5.08-5.615-13.38t5.664-13.574q5.518-5.127 13.867-5.127 7.862 0 13.135 4.882v-1.954q0-6.103-2.833-8.252-2.393-1.757-8.838-1.757-7.57 0-15.04 3.222zm15.04 12.792q-4.59 0-7.862 2.295-3.662 2.54-3.662 6.983 0 4.785 3.467 7.324 3.076 2.295 8.056 2.295 4.784 0 8.153-2.247 3.81-2.637 3.81-7.227 0-4.443-3.907-7.08-3.418-2.344-8.057-2.344zM363.28 440l30.226-41.797h-26.61l2-8.203h40.284l-30.37 41.797h30.663L407.03 440z"/><path d="M427.127 430.283L406.23 391.27l8.64-2.637 16.798 31.69 15.137-31.69 8.593 2.637-32.52 66.064-9.08-1.123zM520.492 432.578q-7.03 8.74-17.285 8.74-10.742 0-18.213-7.714-7.422-7.715-7.422-18.506 0-10.89 7.324-18.653 7.374-7.812 18.213-7.812 10.107 0 17.382 6.64v-23.29l9.18-1.32v68.653l-9.18 1.368zm-16.65-35.35q-7.227 0-12.012 5.028-4.785 4.98-4.785 12.256 0 7.52 4.785 12.55 4.834 4.98 12.354 4.98 7.128 0 12.01-5.03 4.884-5.03 4.884-12.207 0-7.325-4.98-12.45-4.98-5.128-12.256-5.128zM564.025 388.633q11.62 0 19.19 7.666 7.617 7.616 7.617 19.237 0 11.133-7.812 18.457-7.764 7.324-18.946 7.324-11.28 0-19.092-7.52-7.763-7.52-7.763-18.75 0-11.132 7.81-18.75 7.814-7.665 18.995-7.665zm.05 8.594q-7.276 0-12.354 5.03-5.03 5.028-5.03 12.304 0 7.715 5.08 12.598 5.078 4.883 12.792 4.883 7.227 0 12.012-4.833 4.785-4.834 4.785-12.06 0-7.52-4.883-12.696-4.883-5.223-12.403-5.223zM600.38 439.316q5.86 8.74 14.16 8.74 5.226 0 9.034-2.93 4.2-3.173 4.2-8.202 0-5.322-4.395-8.545-3.907-2.882-9.425-2.882-4.932 0-11.72 3.662l2.247-7.08q-10.644-4.394-10.644-15.625 0-6.934 4.687-12.012 3.662-3.955 9.034-5.42 3.368-.927 10.155-1.27 7.226-.34 10.596-1.122 5.323-1.17 9.522-3.32l-2.344 9.913-5.86 1.22q5.714 4.883 5.714 12.11 0 10.45-10.01 14.502 11.914 4.785 11.914 16.7 0 9.032-6.885 14.354-6.298 4.882-15.624 4.882-13.916 0-21.338-12.012zm14.405-43.212q-4.687 0-8.008 2.88-3.466 3.077-3.466 7.666 0 4.64 3.223 7.715 3.223 3.028 7.862 3.028 4.638 0 8.056-3.125 3.42-3.125 3.42-7.715 0-4.54-3.272-7.47-3.223-2.98-7.813-2.98zM651.043 442.197l-6.836-8.838 6.836-8.936 6.787 8.935z"/></g></svg>