<svg xmlns="http://www.w3.org/2000/svg" viewBox="0 0 1600 1000" height="1000" width="1600"><path fill="#fff" d="M0 0h1600v1000H0z"/><g font-weight="400" font-size="200" font-family="Kabel" letter-spacing="-.03em" text-anchor="middle" fill="#222"><path d="M541.99 90.4v130.8l14.4-2.4V90.4h39.2l2.4-14.4h-92.8l-2.4 14.4z"/><path d="M597.825 221.2l12.8-2.4v-43.4q0-8.2 5-14.2t13.4-6q7 0 11 4.8t4 13.2v48l12.8-2.4v-50.2q0-6.6-2.4-11.6-2.2-5-6-8.2-3.8-3.4-8.4-4.8-4.6-1.6-9.2-1.6-6.2 0-11.2 2.8-5 2.6-9 6.8V73.6l-12.8 2.4zM742.075 163.8q-4.8-9.6-13.4-15.4-8.6-6-20.4-6-8.4 0-15.8 3.4-7.4 3.2-12.8 8.8-5.4 5.6-8.4 13-3 7.2-3 14.8 0 7.6 3 14.8 3 7.2 8.4 13 5.6 5.6 12.8 9 7.4 3.2 15.8 3.2 12 0 25.2-7.2l-2.4-12.2q-12 7.4-22.8 7.4-7.6 0-14.4-4.4-6.6-4.4-9.8-11zm-61.4 20.4q-.4-1.4-.4-4.2 0-5.6 2.4-10.4 2.4-4.8 6.4-8.4 4.2-3.6 9-5.6 5-2 9.8-2 10.2 0 16.2 6.6zM848.772 250.4l12.8-2.4V143.6l-12.8 2.4v9.8h-.4q-4.8-6.2-11.2-9.8-6.4-3.6-14-3.6-7.4 0-14.2 3.2-6.8 3-12.2 8.6-5.2 5.4-8.2 12.8-3 7.2-3 15.4 0 7.6 2.8 14.8 3 7.2 8 13 5.2 5.6 12 9 6.8 3.2 14.2 3.2 14.4 0 26.2-13zm-.8-68q0 12-7.4 20t-18 8q-9.6 0-17-8.2-7.2-8.4-7.2-19.8t7.4-19.6q7.4-8.4 17.4-8.4 10.8 0 17.8 8.2t7 19.8zM877.34 196.2q0 6.6 2.4 11.6t6.2 8.4q3.8 3.2 8.4 4.6 4.6 1.6 9 1.6 12 0 21-10.6v9.4l12-2.4v-75.2l-12.8 2.4v43.4q0 8.2-5.2 14.2-5 6-13.8 6-6.4 0-10.4-4.6-4-4.8-4-11.4v-50l-12.8 2.4zM951.79 221.2l12.8-2.4v-75.2l-12.8 2.4zm6.4-115.2l-10.4 10.4 10.4 10.4 10.4-10.4zM1036.184 203q-12 7.4-22.8 7.4-11.6 0-19.4-8.2-7.8-8.2-7.8-19.8 0-11.6 7.8-19.8 7.8-8.2 19.4-8.2 6 0 11.8 1.8 5.8 1.8 11 5l2.4-11.8q-6.4-4-12.8-5.4-6.2-1.6-12.4-1.6-8.4 0-15.8 3.4-7.4 3.2-12.8 8.8-5.4 5.6-8.4 13-3 7.2-3 14.8 0 7.6 3 14.8 3 7.2 8.4 13 5.6 5.6 12.8 9 7.4 3.2 15.8 3.2 12 0 25.2-7.2zM1047.213 76v145.2l12.8-2.4V186l31.6 36.4 11.8-6.6-30.2-33.4 27-31.4-10-7.4-30.2 35.8V73.6zM491.994 296v106.4q0 7.6 3 14.8 3 7.2 8.4 13 5.6 5.6 12.8 9 7.4 3.2 15.8 3.2t15.8-3.2q7.4-3.2 12.8-8.8 5.4-5.6 8.4-12.8 3-7.4 3-15.2 0-7.8-3-15-2.8-7.4-8.2-13-5.2-5.6-12.8-8.8-7.4-3.2-16-3.2-15.4 0-27.2 12.6v-81.4zm12.8 106.4q0-11.6 7.8-19.8 7.8-8.2 19.4-8.2 11.6 0 19.4 8.2 7.8 8.2 7.8 19.8 0 11.6-7.8 19.8-7.8 8.2-19.4 8.2-11.6 0-19.4-8.2-7.8-8.2-7.8-19.8zM582.163 441.2l12-2.4v-29.6q0-15.6 5.4-23.8 5.4-8.2 15.4-9.8l2-12q-11.8 0-22.8 11.8v-11.8l-12 2.4zM630.294 402.4q0-11.6 7.8-19.8 7.8-8.2 19.4-8.2 11.6 0 19.4 8.2 7.8 8.2 7.8 19.8 0 11.6-7.8 19.8-7.8 8.2-19.4 8.2-11.6 0-19.4-8.2-7.8-8.2-7.8-19.8zm-12.8 0q0 7.6 3 14.8 3 7.2 8.4 13 5.6 5.6 12.8 9 7.4 3.2 15.8 3.2t15.8-3.2q7.4-3.4 12.8-9t8.4-12.8q3-7.4 3-15t-3-14.8q-3-7.2-8.6-12.8-5.4-5.8-12.8-9-7.2-3.4-15.6-3.4-8.4 0-15.8 3.4-7.4 3.2-12.8 8.8-5.4 5.6-8.4 13-3 7.2-3 14.8zM755.063 363.6l-24.8 52-19.6-52-13.2 2.4 31.6 80 28.4-60 24 60 35.8-78.2-12-4.2-22.6 52-21-52zM822.013 441.2l12.8-2.4v-41.2q0-9.8 5.6-16 5.6-6.4 14.8-6.4 8 0 12.4 5.8 4.4 5.6 4.4 15.8v44.4l12.8-2.4v-48.2q0-13-7.8-20.6-7.8-7.6-20.8-7.6-7 0-12 2.4t-10.2 7.8v-9l-12 2.4zM942.416 441.2l12.8-2.4V376h18v-11.2h-18v-39.2q0-9.6 4.4-14.4 4.4-4.8 14.6-6.8l-1-12q-16.2 1.4-23.6 9.8-7.2 8.2-7.2 23.8zM985.84 402.4q0-11.6 7.8-19.8 7.8-8.2 19.4-8.2 11.6 0 19.4 8.2 7.8 8.2 7.8 19.8 0 11.6-7.8 19.8-7.8 8.2-19.4 8.2-11.6 0-19.4-8.2-7.8-8.2-7.8-19.8zm-12.8 0q0 7.6 3 14.8 3 7.2 8.4 13 5.6 5.6 12.8 9 7.4 3.2 15.8 3.2t15.8-3.2q7.4-3.4 12.8-9t8.4-12.8q3-7.4 3-15t-3-14.8q-3-7.2-8.6-12.8-5.4-5.8-12.8-9-7.2-3.4-15.6-3.4-8.4 0-15.8 3.4-7.4 3.2-12.8 8.8-5.4 5.6-8.4 13-3 7.2-3 14.8zM1054.41 371.4l23.8 30.2-24.2 31.8 9.6 7.8 22.6-30 23.6 30 10-7.8-24.8-31.8 22.8-30.2-10.2-7.8-20.8 28.2-22.2-28.2zM470.314 690.4q10.4-2.6 15-11 4.8-8.2 4.8-20.4v-75.4l-12.8 2.4v73.4q0 8.6-2.2 12.4-2 3.8-7.2 5zm13.4-144.4l-10.4 10.4 10.4 10.4 10.4-10.4zM505.708 636.2q0 6.6 2.4 11.6t6.2 8.4q3.8 3.2 8.4 4.6 4.6 1.6 9 1.6 12 0 21-10.6v9.4l12-2.4v-75.2l-12.8 2.4v43.4q0 8.2-5.2 14.2-5 6-13.8 6-6.4 0-10.4-4.6-4-4.8-4-11.4v-50l-12.8 2.4zM580.958 661.2l12.8-2.4v-45.2q0-8.4 4.4-13.4t10.2-5q6.6 0 10.4 4.6 3.8 4.6 3.8 13.4v48l12.8-2.4v-45.2q0-8.4 4.4-13.4t10.2-5q6.6 0 10.4 4.6 3.8 4.6 3.8 13.4v48l12.8-2.4v-51.2q0-11.6-7.6-18.4-7.4-6.8-17-6.8-13.8 0-22 12-8-12-19-12-4.6 0-9.4 1.8-4.8 1.8-9 5.8v-6.4l-12 2.4zM692.517 690.4l12.8-2.4v-38.6q11.8 13 26.2 13 7.4 0 14.2-3.2 6.8-3.4 11.8-9 5.2-5.8 8-13 3-7.2 3-14.8 0-8.2-3-15.4-3-7.4-8.4-12.8-5.2-5.6-12-8.6-6.8-3.2-14.2-3.2-7.6 0-14 3.6t-11.2 9.8h-.4v-12.2l-12.8 2.4zm13.6-68q0-11.6 7-19.8 7-8.2 17.8-8.2 10 0 17.4 8.4 7.4 8.2 7.4 19.6 0 11.4-7.4 19.8-7.2 8.2-16.8 8.2-10.6 0-18-8t-7.4-20zM777.086 651.8q3.4 4.2 9.4 7.4 6.2 3.2 11.2 3.2 4 0 8.2-1.8 4.2-1.8 7.6-4.8 7.6-7.2 7.6-17.4 0-8-4.8-13.8-4.8-6-14.8-9.2-7.4-2.4-10.4-5.2-2.8-2.8-2.8-6.6 0-4 2.8-7 3-3 6.8-3 4 0 6.6 2 2.6 2 6.6 7.2l7.8-8.4q-6.4-7.2-11-9.6-4.4-2.4-10.2-2.4-3.8 0-7.8 1.8-3.8 1.8-6.8 4.8-6.8 7-6.8 15.8 0 7.6 4 12.4 4 4.6 13.8 8.4 8.6 3.2 11.4 6.2 2.8 2.8 2.8 8 0 4.4-3 7.6-3 3-7.6 3-3.2 0-6.8-1.8-3.4-2-6.2-5zM883.708 622.4q0-11.6 7.8-19.8 7.8-8.2 19.4-8.2 11.6 0 19.4 8.2 7.8 8.2 7.8 19.8 0 11.6-7.8 19.8-7.8 8.2-19.4 8.2-11.6 0-19.4-8.2-7.8-8.2-7.8-19.8zm-12.8 0q0 7.6 3 14.8 3 7.2 8.4 13 5.6 5.6 12.8 9 7.4 3.2 15.8 3.2t15.8-3.2q7.4-3.4 12.8-9t8.4-12.8q3-7.4 3-15t-3-14.8q-3-7.2-8.6-12.8-5.4-5.8-12.8-9-7.2-3.4-15.6-3.4-8.4 0-15.8 3.4-7.4 3.2-12.8 8.8-5.4 5.6-8.4 13-3 7.2-3 14.8zM951.877 586l35 80 38.2-80-13.8-2.4-23.4 52-21.6-52zM1099.505 603.8q-4.8-9.6-13.4-15.4-8.6-6-20.4-6-8.4 0-15.8 3.4-7.4 3.2-12.8 8.8-5.4 5.6-8.4 13-3 7.2-3 14.8 0 7.6 3 14.8 3 7.2 8.4 13 5.6 5.6 12.8 9 7.4 3.2 15.8 3.2 12 0 25.2-7.2l-2.4-12.2q-12 7.4-22.8 7.4-7.6 0-14.4-4.4-6.6-4.4-9.8-11zm-61.4 20.4q-.4-1.4-.4-4.2 0-5.6 2.4-10.4 2.4-4.8 6.4-8.4 4.2-3.6 9-5.6 5-2 9.8-2 10.2 0 16.2 6.6zM1104.155 661.2l12-2.4v-29.6q0-15.6 5.4-23.8 5.4-8.2 15.4-9.8l2-12q-11.8 0-22.8 11.8v-11.8l-12 2.4zM448.42 868.4q-2.4.4-5.2.4-5.2 0-7.6-2.2-2.2-2.2-2.2-6.4V816h17v-11.2h-17V778l-12.8 2.2v24.6h-3.8l-1.4 11.2h5.2v45.2q0 8.8 4.8 13.8 5 5 16.2 5 1.2 0 3.8-.4h.6zM456.044 881.2l12.8-2.4v-43.4q0-8.2 5-14.2t13.4-6q7 0 11 4.8t4 13.2v48l12.8-2.4v-50.2q0-6.6-2.4-11.6-2.2-5-6-8.2-3.8-3.4-8.4-4.8-4.6-1.6-9.2-1.6-6.2 0-11.2 2.8-5 2.6-9 6.8v-78.4l-12.8 2.4zM600.294 823.8q-4.8-9.6-13.4-15.4-8.6-6-20.4-6-8.4 0-15.8 3.4-7.4 3.2-12.8 8.8-5.4 5.6-8.4 13-3 7.2-3 14.8 0 7.6 3 14.8 3 7.2 8.4 13 5.6 5.6 12.8 9 7.4 3.2 15.8 3.2 12 0 25.2-7.2l-2.4-12.2q-12 7.4-22.8 7.4-7.6 0-14.4-4.4-6.6-4.4-9.8-11zm-61.4 20.4q-.4-1.4-.4-4.2 0-5.6 2.4-10.4 2.4-4.8 6.4-8.4 4.2-3.6 9-5.6 5-2 9.8-2 10.2 0 16.2 6.6zM647.79 736v145.2l12.8-2.4V733.6zM714.984 881.2l10-2.4v-53q0-11-5.6-17.2-5.6-6.2-19-6.2-7.8 0-10.8 1l-2.8 11q6.4-.8 11-.8 15.2 0 15.2 12.2v7.2h-.4q-2.4-2.8-7.2-4.6-4.6-2-9.6-2-5.2 0-10 2.2t-8.6 6.2q-3.6 3.8-5.8 9-2 5.2-2 10.8 0 4.8 1.8 9.8 2 5 5.6 9.2 3.6 4 8.4 6.4 5 2.4 10.8 2.4 10.8 0 19-9zm-33.6-26.8q0-5.6 4.2-10.8 4.2-5.2 11.6-5.2 7.4 0 11.6 5.2 4.2 5.2 4.2 10.8 0 5.6-4.2 10.8-4.2 5.2-11.6 5.2-7.4 0-11.6-5.2-4.2-5.2-4.2-10.8zM774.897 816.8l-43.2 63.2h64.8v-12h-42l42.8-63.2h-59l-2.4 12z"/><path d="M822.41 862.8l-23 45.2 13.6 2.4 53-104.4-13.8-2.4-22.8 45.2-24-45.2-13.8 2.4zM970.37 881.2l12.8-2.4V733.6l-12.8 2.4v79.8q-11.4-13.4-26-13.4-7.8 0-14.8 3.2-6.8 3-12.2 8.6-5.2 5.6-8.2 13-2.8 7.2-2.8 15.2 0 8 3 15.4 3 7.2 8.2 12.8 5.4 5.6 12.2 8.8 7 3 14.6 3 6.8 0 13.8-3.8 7.2-3.8 11.8-9.6h.4zm-51.2-38.8q0-11.4 7.4-19.6 7.4-8.4 17.8-8.4t17.8 8.4q7.4 8.2 7.4 19.6 0 11.4-7.4 19.8-7.4 8.2-17.8 8.2t-17.8-8.2q-7.4-8.4-7.4-19.8zM1006.138 842.4q0-11.6 7.8-19.8 7.8-8.2 19.4-8.2 11.6 0 19.4 8.2 7.8 8.2 7.8 19.8 0 11.6-7.8 19.8-7.8 8.2-19.4 8.2-11.6 0-19.4-8.2-7.8-8.2-7.8-19.8zm-12.8 0q0 7.6 3 14.8 3 7.2 8.4 13 5.6 5.6 12.8 9 7.4 3.2 15.8 3.2t15.8-3.2q7.4-3.4 12.8-9t8.4-12.8q3-7.4 3-15t-3-14.8q-3-7.2-8.6-12.8-5.4-5.8-12.8-9-7.2-3.4-15.6-3.4-8.4 0-15.8 3.4-7.4 3.2-12.8 8.8-5.4 5.6-8.4 13-3 7.2-3 14.8zM1082.306 897.4q5.8 6.2 13 9.6 7.2 3.4 14 3.4 8.4 0 14.6-3 6.4-3 10.2-7.8 3.8-4.6 5.6-9.8 1.8-5 1.8-9.2 0-10.8-6.4-17-6.4-6.4-14.6-7.8v-.4q9-2.4 14.4-8.8t5.4-15.6q0-6.2-2.6-12-2.4-5.8-6.8-8.6v-.4l5.8-.8 2.2-8.4-18.4 2.8q-3.8-1.2-8.6-1.2-13.2 0-22.4 8.2-9.2 8-9.2 21 0 9.4 5.6 16.2 5.8 6.6 12.2 7.4v.4q-3.2.4-6.6 2.4-3.4 2-6 4.8l8 9.2q3.6-3.8 8-6 4.6-2.4 9.2-2.4 7.6 0 12.8 5.4 5.2 5.4 5.2 11.8 0 7-5.4 12.2-5.4 5.4-12.8 5.4-5.4 0-11-3.2-5.4-3-9.6-8.2zm10-67q0-6.8 5.2-11.8 5.2-5 12.8-5 8.4 0 13.2 5.2 4.8 5.2 4.8 11.6 0 6.8-5.2 11.8-5.2 5-12.8 5-8.4 0-13.2-5.2-4.8-5.2-4.8-11.6zM1154.134 870l11.6 11.6 11.6-11.6-11.6-11.6z"/></g></svg>