<svg xmlns="http://www.w3.org/2000/svg" viewBox="0 0 1600 1000" height="1000" width="1600"><path fill="#fff" d="M0 0h1600v1000H0z"/><g font-weight="700" font-size="200" font-family="Klavika" letter-spacing="-.03em" text-anchor="middle" fill="#222"><path d="M523.188 113.4h-35.8V220h-30V113.4h-35.8V86.8h101.6zM618.038 220h-28.8v-64.4q0-7-7-7t-21 7.2V220h-28.8V82.8l28.4-4v50.8q19.6-9 34.8-9 22.4 0 22.4 31.2zM713.184 181.4h-52.4v2.8q0 8.2 3.8 11.2t13.8 3q15.8 0 29.6-4.2l4.2 21.6q-17 6.2-36.6 6.2-43.6 0-43.6-39.6v-22.8q0-39 41.8-39 11.6 0 19.6 3.2 8.2 3.2 12.2 9.2 4.2 6 5.8 12.8 1.8 6.6 1.8 15.2zm-27.2-21.6v-4.2q0-5.8-2.6-9-2.4-3.4-9.4-3.4-13.2 0-13.2 12.4v4.2zM759.438 161.6q0-9.6 1.6-16.2 1.8-6.8 6.6-12.8 4.8-6 14.4-9 9.6-3 24.2-3 19.2 0 39.6 3.4v135.4l-28.8 4v-46.8q-14 5.4-27.6 5.4-30 0-30-35.2zm57.6 30V146q-4.2-.4-11.8-.4-10 0-13.6 4-3.4 4-3.4 11.8v25.2q0 10.4 10.4 10.4 8 0 18.4-5.4zM864.86 122.6h28.8V187q0 7 7 7 8.2 0 21-7v-64.4h28.8V220h-21.4l-3-7.4q-19.4 9.4-38.8 9.4-22.4 0-22.4-31.2zM999.206 110.4h-28.8V79.8h28.8zm0 109.6h-28.8v-97.4h28.8zM1041.894 159.8v23q0 7.6 3.6 11.2 3.6 3.4 12.2 3.4 9.6 0 20-2.4l3.6 24q-13.4 3-23.6 3-23.6 0-34.2-9.4-10.4-9.4-10.4-30.2v-22.2q0-20.8 10.4-30.2 10.6-9.4 34.2-9.4 10.2 0 23.6 3l-3.6 24q-10.2-2.4-20-2.4-8.6 0-12.2 3.6-3.6 3.4-3.6 11zM1123.144 220h-28.8V82.8l28.8-4zm3.8-49l24.8-48.4h30.8l-25.6 48.4 26.8 49h-30.8zM501.79 401q0 9.6-1.8 16.4-1.6 6.6-6.4 12.6-4.8 6-14.4 9-9.6 3-24.2 3-20.2 0-39.6-3.2v-136l28.8-4V346q14-5.4 27.6-5.4 30 0 30 35.2zm-57.6-30v45.6q4.2.4 11.8.4 10 0 13.4-4 3.6-4 3.6-11.8V376q0-10.4-10.4-10.4-8 0-18.4 5.4zM571.413 367.8q-17.6 7-25.8 12.8V440h-28.8v-97.4h24l2 9.4q4.8-3.2 12.6-6.6 8-3.6 13.6-4.8zM652.753 431q-10 11-33.8 11-23.8 0-34-11-10-11.2-10-28.4V380q0-17.2 10-28.2 10.2-11.2 34-11.2t33.8 11.2q10.2 11 10.2 28.2v22.6q0 17.2-10.2 28.4zm-49-27.6q0 14.4 15.2 14.4t15.2-14.4v-24.2q0-14.4-15.2-14.4t-15.2 14.4zM754.26 440l-19-63.6-18.8 63.6h-31.2l-16.8-97.4h26.4l9.2 57 17-57h28.8l16.8 57 9.2-57h26.4l-16.8 97.4zM898.475 440h-28.8v-64.4q0-7-7-7-8.2 0-21 7V440h-28.8v-97.4h21.4l3 7.4q19.4-9.4 38.8-9.4 22.4 0 22.4 31.2zM1014.41 301.6l-3.6 22.6q-7-1.4-12.8-1.4-6.4 0-8.2 2.4-1.6 2.4-1.6 8v11.4h23l-2 23.6h-21V440h-28.8v-71.8h-14.8v-23.6h14.8V330q0-15.4 7.8-23.2 8-8 25.2-8 8.4 0 22 2.8zM1093.066 431q-10 11-33.8 11-23.8 0-34-11-10-11.2-10-28.4V380q0-17.2 10-28.2 10.2-11.2 34-11.2t33.8 11.2q10.2 11 10.2 28.2v22.6q0 17.2-10.2 28.4zm-49-27.6q0 14.4 15.2 14.4t15.2-14.4v-24.2q0-14.4-15.2-14.4t-15.2 14.4zM1199.772 342.6l-30.2 48.4 31 49h-29l-17.2-27-17.2 27h-29l31-49-30.2-48.4h28.4l17 26.6 17-26.6zM402.05 550.4h-28.8v-30.6h28.8zm-26.4 151l-17.4-18.8q.6-.6 2.6-2.4 2-1.8 2.4-2.4.6-.4 2.2-2 1.6-1.4 2-2 .4-.6 1.6-2 1.2-1.4 1.6-2.2.4-.6 1-1.8.8-1.2 1-2.2.2-1 .4-2.4.2-1.2.2-2.4v-98.2h28.8v102q0 8.4-6.2 16.8t-20.2 20zM419.984 562.6h28.8V627q0 7 7 7 8.2 0 21-7v-64.4h28.8V660h-21.4l-3-7.4q-19.4 9.4-38.8 9.4-22.4 0-22.4-31.2zM611.13 660h-28.8v-64.4q0-7-7-7-8.2 0-21 7V660h-28.8v-97.4h21.4l3 7.4q19.4-9.4 38.8-9.4 12.4 0 17.8 9.4 19.2-9.4 39-9.4 22.4 0 22.4 31.2V660h-28.8v-64.4q0-7-7-7-8.2 0-21 7zM773.51 596.6V626q0 36-32.8 36-13.2 0-24.8-2.8v40.2l-28.8 4V562.6h22.6l3 7.8q15.2-9.8 30-9.8 15 0 22.8 9.2 8 9 8 26.8zm-57.6-3.4v41.4q10 2.4 18.4 2.4 10.4 0 10.4-11v-29.4q0-11-10.4-11-9.6 0-18.4 7.6zM855.13 631q0 15.8-8.2 23.4-8 7.6-28 7.6-18 0-35.4-5.8l4.6-21.4q14.6 4.4 29.4 4.4 6.2 0 8-1.8 2-1.8 2-6.4 0-4.8-2.2-6.4-2.2-1.6-13.6-4.4-16.8-4.2-21.4-10-4.4-5.8-4.4-20.4 0-16 7.8-22.6 8-6.6 29.4-6.6 17 0 29.6 3.2l-2.6 22.4q-15-2.8-26.8-2.8-6 0-8.2 1.6-2.2 1.6-2.2 5 0 4.6 1.8 6 2 1.4 10.6 3.4 10.6 2.4 16.4 4.8 5.8 2.2 8.8 6.2 3.2 4 3.8 8.2.8 4.2.8 12.4zM978.237 651q-10 11-33.8 11-23.8 0-34-11-10-11.2-10-28.4V600q0-17.2 10-28.2 10.2-11.2 34-11.2t33.8 11.2q10.2 11 10.2 28.2v22.6q0 17.2-10.2 28.4zm-49-27.6q0 14.4 15.2 14.4t15.2-14.4v-24.2q0-14.4-15.2-14.4t-15.2 14.4zM1089.344 562.6l-30.6 97.4h-36.8l-30.6-97.4h29.2l19.8 69 19.8-69zM1173.544 621.4h-52.4v2.8q0 8.2 3.8 11.2t13.8 3q15.8 0 29.6-4.2l4.2 21.6q-17 6.2-36.6 6.2-43.6 0-43.6-39.6v-22.8q0-39 41.8-39 11.6 0 19.6 3.2 8.2 3.2 12.2 9.2 4.2 6 5.8 12.8 1.8 6.6 1.8 15.2zm-27.2-21.6v-4.2q0-5.8-2.6-9-2.4-3.4-9.4-3.4-13.2 0-13.2 12.4v4.2zM1243.21 587.8q-17.6 7-25.8 12.8V660h-28.8v-97.4h24l2 9.4q4.8-3.2 12.6-6.6 8-3.6 13.6-4.8zM366.267 878.4q-10.4 3.6-20.8 3.6-29.4 0-29.4-25v-51.2h-13.2v-23.2h13.2v-23.4l28.8-4v27.4h22.2l-1.6 23.2h-20.6V853q0 5.4 6 5.4 6.6 0 12-1.8zM464.342 880h-28.8v-64.4q0-7-7-7t-21 7.2V880h-28.8V742.8l28.4-4v50.8q19.6-9 34.8-9 22.4 0 22.4 31.2zM559.49 841.4h-52.4v2.8q0 8.2 3.8 11.2t13.8 3q15.8 0 29.6-4.2l4.2 21.6q-17 6.2-36.6 6.2-43.6 0-43.6-39.6v-22.8q0-39 41.8-39 11.6 0 19.6 3.2 8.2 3.2 12.2 9.2 4.2 6 5.8 12.8 1.8 6.6 1.8 15.2zm-27.2-21.6v-4.2q0-5.8-2.6-9-2.4-3.4-9.4-3.4-13.2 0-13.2 12.4v4.2zM639.542 880h-28.8V742.8l28.8-4zM735.23 880h-23.6l-2-6.2q-14.8 8.2-27.8 8.2-12.8 0-19.2-8.2-6.2-8.2-6.2-21.4 0-14.6 6.8-21 7-6.4 22.2-6.4h21v-7.4q0-8-3.2-10.6-3-2.8-14-2.8-12 0-26.4 2.8l-3.8-21.6q15.8-4.8 35-4.8 24.6 0 32.8 8.2 8.4 8 8.4 29zm-28.8-23.8V845h-13.8q-4.8 0-6.8 1.6-1.8 1.4-1.8 5.4t1.8 5.8q1.8 1.8 6 1.8 7.2 0 14.6-3.4zM749.24 804.6v-22h73.6v22l-40.4 53.4h41.6v22h-75v-22l40.2-53.4zM882.227 919.4h-27.2l11.4-39.4h-9.2l-30-97.4h29.2l19.8 69 19.8-69h29.2l-30.6 97.4zM963.242 846v-29.4q0-36 32.8-36 13.2 0 24.8 2.8v-40.6l28.8-4V880h-22.6l-3-7.8q-15.2 9.8-30 9.8-15 0-23-9-7.8-9.2-7.8-27zm57.6 3.4V808q-10-2.4-18.4-2.4-10.4 0-10.4 11V846q0 11 10.4 11 9.6 0 18.4-7.6zM1142.464 871q-10 11-33.8 11-23.8 0-34-11-10-11.2-10-28.4V820q0-17.2 10-28.2 10.2-11.2 34-11.2t33.8 11.2q10.2 11 10.2 28.2v22.6q0 17.2-10.2 28.4zm-49-27.6q0 14.4 15.2 14.4t15.2-14.4v-24.2q0-14.4-15.2-14.4t-15.2 14.4zM1161.57 824.2v-11.8q.6-31.8 39.8-31.8 8.6 0 16.6 2h30.4v13.6l-9.8 3.6q2.2 5.4 2.6 12.6v11.8q0 14.4-10.2 22.8-10 8.2-29.6 8.2h-3q-4.2 2.6-4.2 5.4 0 3.6 3.2 4 15.8 1.6 24.2 2.4 12.6 1 18 6.4 5.6 5.2 5.6 17.4 0 17-10.8 23.8-10.6 6.8-34 6.8-20 0-38.8-5l4.2-21q16.6 4 32 4 12.2 0 16.6-1.2 4.4-1.2 4.4-5.8 0-2.8-1.6-4-1.6-1-6-1.4-8.8-.8-24.8-2.4-11-1.2-16-4.6-4.8-3.6-4.8-13t8.4-17.8q-12.4-7.4-12.4-25zm29.8 6q3 2.2 10 2.2t10-2.2q3-2.4 3-7.4v-9.2q0-10.2-13-10.2t-13 10.2v9.2q0 5 3 7.4zM1287.245 880h-28.8v-33.2h28.8z"/></g></svg>