<svg xmlns="http://www.w3.org/2000/svg" viewBox="0 0 800 500"><path fill="#fff" d="M0 0h800v500H0z"/><g font-weight="700" font-size="100" font-family="Klavika" text-anchor="middle" fill="#111"><path d="M248.094 56.7h-17.9V110h-15V56.7h-17.9V43.4h50.8zM298.52 110h-14.4V77.8q0-3.5-3.5-3.5t-10.5 3.6V110h-14.4V41.4l14.2-2v25.4q9.8-4.5 17.4-4.5 11.2 0 11.2 15.6zM349.092 90.7h-26.2v1.4q0 4.1 1.9 5.6t6.9 1.5q7.9 0 14.8-2.1l2.1 10.8q-8.5 3.1-18.3 3.1-21.8 0-21.8-19.8V79.8q0-19.5 20.9-19.5 5.8 0 9.8 1.6 4.1 1.6 6.1 4.6 2.1 3 2.9 6.4.9 3.3.9 7.6zm-13.6-10.8v-2.1q0-2.9-1.3-4.5-1.2-1.7-4.7-1.7-6.6 0-6.6 6.2v2.1zM378.22 80.8q0-4.8.8-8.1.9-3.4 3.3-6.4 2.4-3 7.2-4.5 4.8-1.5 12.1-1.5 9.6 0 19.8 1.7v67.7l-14.4 2v-23.4q-7 2.7-13.8 2.7-15 0-15-17.6zm28.8 15V73q-2.1-.2-5.9-.2-5 0-6.8 2-1.7 2-1.7 5.9v12.6q0 5.2 5.2 5.2 4 0 9.2-2.7zM433.93 61.3h14.4v32.2q0 3.5 3.5 3.5 4.1 0 10.5-3.5V61.3h14.4V110h-10.7l-1.5-3.7q-9.7 4.7-19.4 4.7-11.2 0-11.2-15.6zM504.103 55.2h-14.4V39.9h14.4zm0 54.8h-14.4V61.3h14.4zM528.447 79.9v11.5q0 3.8 1.8 5.6 1.8 1.7 6.1 1.7 4.8 0 10-1.2l1.8 12q-6.7 1.5-11.8 1.5-11.8 0-17.1-4.7-5.2-4.7-5.2-15.1V80.1q0-10.4 5.2-15.1 5.3-4.7 17.1-4.7 5.1 0 11.8 1.5l-1.8 12q-5.1-1.2-10-1.2-4.3 0-6.1 1.8-1.8 1.7-1.8 5.5zM572.072 110h-14.4V41.4l14.4-2zm1.9-24.5l12.4-24.2h15.4l-12.8 24.2 13.4 24.5h-15.4zM237.395 200.5q0 4.8-.9 8.2-.8 3.3-3.2 6.3-2.4 3-7.2 4.5-4.8 1.5-12.1 1.5-10.1 0-19.8-1.6v-68l14.4-2V173q7-2.7 13.8-2.7 15 0 15 17.6zm-28.8-15v22.8q2.1.2 5.9.2 5 0 6.7-2 1.8-2 1.8-5.9V188q0-5.2-5.2-5.2-4 0-9.2 2.7zM275.206 183.9q-8.8 3.5-12.9 6.4V220h-14.4v-48.7h12l1 4.7q2.4-1.6 6.3-3.3 4-1.8 6.8-2.4zM318.877 215.5q-5 5.5-16.9 5.5-11.9 0-17-5.5-5-5.6-5-14.2V190q0-8.6 5-14.1 5.1-5.6 17-5.6t16.9 5.6q5.1 5.5 5.1 14.1v11.3q0 8.6-5.1 14.2zm-24.5-13.8q0 7.2 7.6 7.2t7.6-7.2v-12.1q0-7.2-7.6-7.2t-7.6 7.2zM372.63 220l-9.5-31.8-9.4 31.8h-15.6l-8.4-48.7h13.2l4.6 28.5 8.5-28.5h14.4l8.4 28.5 4.6-28.5h13.2l-8.4 48.7zM447.738 220h-14.4v-32.2q0-3.5-3.5-3.5-4.1 0-10.5 3.5V220h-14.4v-48.7h10.7l1.5 3.7q9.7-4.7 19.4-4.7 11.2 0 11.2 15.6zM511.705 150.8l-1.8 11.3q-3.5-.7-6.4-.7-3.2 0-4.1 1.2-.8 1.2-.8 4v5.7h11.5l-1 11.8h-10.5V220h-14.4v-35.9h-7.4v-11.8h7.4V165q0-7.7 3.9-11.6 4-4 12.6-4 4.2 0 11 1.4zM554.033 215.5q-5 5.5-16.9 5.5-11.9 0-17-5.5-5-5.6-5-14.2V190q0-8.6 5-14.1 5.1-5.6 17-5.6t16.9 5.6q5.1 5.5 5.1 14.1v11.3q0 8.6-5.1 14.2zm-24.5-13.8q0 7.2 7.6 7.2t7.6-7.2v-12.1q0-7.2-7.6-7.2t-7.6 7.2zM610.386 171.3l-15.1 24.2 15.5 24.5h-14.5l-8.6-13.5-8.6 13.5h-14.5l15.5-24.5-15.1-24.2h14.2l8.5 13.3 8.5-13.3zM186.025 275.2h-14.4v-15.3h14.4zm-13.2 75.5l-8.7-9.4q.3-.3 1.3-1.2 1-.9 1.2-1.2.3-.2 1.1-1 .8-.7 1-1 .2-.3.8-1 .6-.7.8-1.1.2-.3.5-.9.4-.6.5-1.1.1-.5.2-1.2.1-.6.1-1.2v-49.1h14.4v51q0 4.2-3.1 8.4t-10.1 10zM197.992 281.3h14.4v32.2q0 3.5 3.5 3.5 4.1 0 10.5-3.5v-32.2h14.4V330h-10.7l-1.5-3.7q-9.7 4.7-19.4 4.7-11.2 0-11.2-15.6zM296.566 330h-14.4v-32.2q0-3.5-3.5-3.5-4.1 0-10.5 3.5V330h-14.4v-48.7h10.7l1.5 3.7q9.7-4.7 19.4-4.7 6.2 0 8.9 4.7 9.6-4.7 19.5-4.7 11.2 0 11.2 15.6V330h-14.4v-32.2q0-3.5-3.5-3.5-4.1 0-10.5 3.5zM380.755 298.3V313q0 18-16.4 18-6.6 0-12.4-1.4v20.1l-14.4 2v-70.4h11.3l1.5 3.9q7.6-4.9 15-4.9 7.5 0 11.4 4.6 4 4.5 4 13.4zm-28.8-1.7v20.7q5 1.2 9.2 1.2 5.2 0 5.2-5.5v-14.7q0-5.5-5.2-5.5-4.8 0-9.2 3.8zM424.566 315.5q0 7.9-4.1 11.7-4 3.8-14 3.8-9 0-17.7-2.9l2.3-10.7q7.3 2.2 14.7 2.2 3.1 0 4-.9 1-.9 1-3.2 0-2.4-1.1-3.2-1.1-.8-6.8-2.2-8.4-2.1-10.7-5-2.2-2.9-2.2-10.2 0-8 3.9-11.3 4-3.3 14.7-3.3 8.5 0 14.8 1.6l-1.3 11.2q-7.5-1.4-13.4-1.4-3 0-4.1.8-1.1.8-1.1 2.5 0 2.3.9 3 1 .7 5.3 1.7 5.3 1.2 8.2 2.4 2.9 1.1 4.4 3.1 1.6 2 1.9 4.1.4 2.1.4 6.2zM492.12 325.5q-5 5.5-16.9 5.5-11.9 0-17-5.5-5-5.6-5-14.2V300q0-8.6 5-14.1 5.1-5.6 17-5.6t16.9 5.6q5.1 5.5 5.1 14.1v11.3q0 8.6-5.1 14.2zm-24.5-13.8q0 7.2 7.6 7.2t7.6-7.2v-12.1q0-7.2-7.6-7.2t-7.6 7.2zM550.672 281.3l-15.3 48.7h-18.4l-15.3-48.7h14.6l9.9 34.5 9.9-34.5zM595.772 310.7h-26.2v1.4q0 4.1 1.9 5.6t6.9 1.5q7.9 0 14.8-2.1l2.1 10.8q-8.5 3.1-18.3 3.1-21.8 0-21.8-19.8v-11.4q0-19.5 20.9-19.5 5.8 0 9.8 1.6 4.1 1.6 6.1 4.6 2.1 3 2.9 6.4.9 3.3.9 7.6zm-13.6-10.8v-2.1q0-2.9-1.3-4.5-1.2-1.7-4.7-1.7-6.6 0-6.6 6.2v2.1zM633.605 293.9q-8.8 3.5-12.9 6.4V330h-14.4v-48.7h12l1 4.7q2.4-1.6 6.3-3.3 4-1.8 6.8-2.4zM165.134 439.2q-5.2 1.8-10.4 1.8-14.7 0-14.7-12.5v-25.6h-6.6v-11.6h6.6v-11.7l14.4-2v13.7h11.1l-.8 11.6h-10.3v23.6q0 2.7 3 2.7 3.3 0 6-.9zM217.17 440h-14.4v-32.2q0-3.5-3.5-3.5t-10.5 3.6V440h-14.4v-68.6l14.2-2v25.4q9.8-4.5 17.4-4.5 11.2 0 11.2 15.6zM267.745 420.7h-26.2v1.4q0 4.1 1.9 5.6t6.9 1.5q7.9 0 14.8-2.1l2.1 10.8q-8.5 3.1-18.3 3.1-21.8 0-21.8-19.8v-11.4q0-19.5 20.9-19.5 5.8 0 9.8 1.6 4.1 1.6 6.1 4.6 2.1 3 2.9 6.4.9 3.3.9 7.6zm-13.6-10.8v-2.1q0-2.9-1.3-4.5-1.2-1.7-4.7-1.7-6.6 0-6.6 6.2v2.1zM313.77 440h-14.4v-68.6l14.4-2zM364.615 440h-11.8l-1-3.1q-7.4 4.1-13.9 4.1-6.4 0-9.6-4.1-3.1-4.1-3.1-10.7 0-7.3 3.4-10.5 3.5-3.2 11.1-3.2h10.5v-3.7q0-4-1.6-5.3-1.5-1.4-7-1.4-6 0-13.2 1.4l-1.9-10.8q7.9-2.4 17.5-2.4 12.3 0 16.4 4.1 4.2 4 4.2 14.5zm-14.4-11.9v-5.6h-6.9q-2.4 0-3.4.8-.9.7-.9 2.7t.9 2.9q.9.9 3 .9 3.6 0 7.3-1.7zM374.62 402.3v-11h36.8v11l-20.2 26.7h20.8v11h-37.5v-11l20.1-26.7zM444.113 459.7h-13.6l5.7-19.7h-4.6l-15-48.7h14.6l9.9 34.5 9.9-34.5h14.6l-15.3 48.7zM490.62 423v-14.7q0-18 16.4-18 6.6 0 12.4 1.4v-20.3l14.4-2V440h-11.3l-1.5-3.9q-7.6 4.9-15 4.9-7.5 0-11.5-4.5-3.9-4.6-3.9-13.5zm28.8 1.7V404q-5-1.2-9.2-1.2-5.2 0-5.2 5.5V423q0 5.5 5.2 5.5 4.8 0 9.2-3.8zM583.232 435.5q-5 5.5-16.9 5.5-11.9 0-17-5.5-5-5.6-5-14.2V410q0-8.6 5-14.1 5.1-5.6 17-5.6t16.9 5.6q5.1 5.5 5.1 14.1v11.3q0 8.6-5.1 14.2zm-24.5-13.8q0 7.2 7.6 7.2t7.6-7.2v-12.1q0-7.2-7.6-7.2t-7.6 7.2zM595.785 412.1v-5.9q.3-15.9 19.9-15.9 4.3 0 8.3 1h15.2v6.8l-4.9 1.8q1.1 2.7 1.3 6.3v5.9q0 7.2-5.1 11.4-5 4.1-14.8 4.1h-1.5q-2.1 1.3-2.1 2.7 0 1.8 1.6 2 7.9.8 12.1 1.2 6.3.5 9 3.2 2.8 2.6 2.8 8.7 0 8.5-5.4 11.9-5.3 3.4-17 3.4-10 0-19.4-2.5l2.1-10.5q8.3 2 16 2 6.1 0 8.3-.6 2.2-.6 2.2-2.9 0-1.4-.8-2-.8-.5-3-.7-4.4-.4-12.4-1.2-5.5-.6-8-2.3-2.4-1.8-2.4-6.5t4.2-8.9q-6.2-3.7-6.2-12.5zm14.9 3q1.5 1.1 5 1.1t5-1.1q1.5-1.2 1.5-3.7v-4.6q0-5.1-6.5-5.1t-6.5 5.1v4.6q0 2.5 1.5 3.7zM661.623 440h-14.4v-16.6h14.4z"/></g></svg>