<svg xmlns="http://www.w3.org/2000/svg" viewBox="0 0 1600 1000" height="1000" width="1600"><path fill="#fff" d="M0 0h1600v1000H0z"/><g font-weight="400" font-size="200" font-family="Meta" letter-spacing="-.03em" text-anchor="middle" fill="#222"><path d="M417.733 96.6V82.8h90.8l-1 13.8h-37.2V220h-15.8V96.6h-36.8zM523.323 97.2q0-4-.2-6.8-.2-3-.6-5.6l-.8-3.6q-.4-1.8-1-3.8l15.6-3v.6q.2.2.2.4 1.2 4.8 1.8 9.8.6 5 .6 12.2v23.2q0 2.8-.2 6.2 0 3.4-.4 7.4 1.2-1.2 2.2-2 1-1 2-1.8l.8-.4.8-.8q.8-.6 1.8-1.2l2.4-1.6q4-2.6 7.6-4.4 3.8-1.8 7.4-2.6 2-.6 4-.8 2-.2 4.2-.2 9 0 16.2 4.4 7.2 4.4 9.4 11.4.2.4.2 1 .2.4.4 1 .6 2.4.8 5.2.2 2.6.2 7.2V220h-15.4v-68.8q0-5.6-1-9-.8-3.6-2.8-5.8-1.8-1.8-4.8-2.8-3-1.2-6.8-1.2-2.6 0-5.2.6t-5.2 1.6q-5 2-9.8 5.8-4.6 3.6-8.8 8.8V220h-15.6V97.2zM665.755 209.2q7.2 0 13.2-2.2 6-2.4 11.2-7.2l6 10q-6.6 6-15.4 9.2-8.6 3-18.2 3-20.6 0-32.4-14-11.8-14-11.8-38.8 0-12.6 2.8-21.4 2.8-8.8 9.2-16.2 6-7 13.4-10.4 7.4-3.6 16.4-3.6 8.2 0 15 2.8 7 2.8 12 8.2 6.4 6.6 8.8 15.4 2.4 8.8 2.6 26.6v2.2h-62.2v2.4q0 7 1 12.4t3.6 9.4q4.2 6.4 10.8 9.4 6.6 2.8 14 2.8zm-6.4-79.2q-10.6 0-16.6 7.8-5.8 7.8-6.4 23.2h45.6q-.2-8.2-1.4-13.4-1-5.2-3.2-8.8-2.6-4-7.4-6.4-4.8-2.4-10.6-2.4zM842.952 131.4q.4-4.2.8-6.8.6-2.8 1.4-4.4h15.4q-.2.4-.4 1-.2.4-.4 1.2-.8 3.6-1.6 10.6-.8 6.8-.8 14.6v109.8l-15 3.2v-51.8q-5.6 6.6-12.6 9.8-6.8 3-15.4 3-6.8 0-12.4-1.8-5.4-1.8-10.4-6-7.4-6.2-11.8-15.8-4.2-9.6-4.2-24.8 0-16.4 2.2-24.6 2.2-8.4 7.2-15.2 5.6-7.6 13.2-11.8 7.8-4.2 16.6-4.2 8.2 0 15 3.4 6.8 3.4 13.2 10.6zm-.6 61.6v-47.4q-3.4-5.6-9.4-9.2-5.8-3.8-12-4.6-1-.2-2-.2-1-.2-2-.2-6.4 0-11.8 3.2t-8.4 9q-.2.2-.4.6 0 .2-.2.4-2.2 4.8-3.2 10.2-.8 5.4-.8 14.8 0 16.4 2.8 23 2.8 6.6 6.6 10 3.2 3 7 4.4 4 1.4 9.6 1.4 7.6 0 14-4t10.2-11.4zM885.29 194.4v-73.2l15.4-3v71.6q0 7.4 1.2 10.8 1.2 3.4 4.6 5.6 2 1.4 4.4 2.4 2.6.8 5.4 1.2.6.2 1.2.2h2.4q.6 0 1.2-.2 6.8-.6 13-5.4 6.4-5 10.2-12.4v-70.6l15.4-2.6v70.6q0 8.2.4 11.8.4 3.6 1.8 6.2v.4q.2 0 .2.2v.4q.2 0 .2.2.4.6.6 1 .4.4.6 1 .6.6 1.2 1.4.8.6 1.8 1.6l-10 10.6q-1.8-1.6-3.2-3-1.4-1.2-2.4-2.4-2.2-2.4-3.4-4.8-1.2-2.6-1.8-5.8-5.6 7.6-13.6 11.4-7.8 3.6-18 3.6-9.4 0-16.4-3.6-7-3.6-9.8-10.4-1.4-2.8-2-6.6-.6-3.8-.6-8.2zM985.72 220v-99.2l16.6-2.6V220h-16.6zm-3.8-130.2q0-5.2 3.6-8.8 3.6-3.6 8.6-3.6 5.2 0 8.6 3.6 3.6 3.4 3.6 8.6 0 5-3.6 8.6-3.4 3.6-8.6 3.6-5 0-8.6-3.4-3.6-3.6-3.6-8.6zM1066.13 117.8q9.4 0 15.6 3.2 6.2 3 11.6 7.6l-8.6 10.8q-3.2-2.6-5.8-4.2-2.4-1.6-4.6-2.4-2-.8-4.2-1-2-.4-4.4-.4-5.8 0-11 3-5 3-7.8 8.2-2.8 5.2-4.2 13.4-1.4 8.2-1.4 19.2 0 16.8 6.2 25.8 6.4 8.8 18.4 8.8 6 0 11.4-2.8 5.6-2.8 10-8l8.6 10q-.6.8-1.4 1.4-.6.6-1.4 1.2-6.2 5.6-12.8 8-6.4 2.4-14.8 2.4-10.6 0-18.6-3.6-8-3.8-13.2-11.2-5-7.2-7.4-15.8-2.2-8.6-2.2-19.6 0-16.4 4.2-26.2 4.4-10 10.8-16.2 5.8-5.8 12.4-8.6 6.6-3 14.6-3zM1107.267 84.4q-.2-1-.4-1.8t-.2-1.4l-.2-.2q0-.6-.2-1.2-.2-.8-.4-1.8l15.6-3.8q.6 2 1 3.4t.6 2.6q.2.4.2 1 .2.4.2.8.2 2.2.4 5.4.4 3 .6 6.4v4.8q.2 2.4.2 4.4v117h-15.6V106.4q0-2.2-.2-5 0-2.8-.2-5.8-.4-3-.8-5.8-.2-3-.6-5.4zm18 79.2l38-43.2h19.6l-39.2 43.2 48.2 56.4h-20.8l-45.8-56.4zM415.19 297l17-3.4q.6 2.4 1 4.6l.8 4.4q.4 3.4.6 7.2.2 3.8.2 8.6v22.2q0 3.8-.2 7 0 3-.2 4 3-2.8 5.8-5t5.4-3.8q4.2-2.4 8.4-3.4 4.2-1.2 9-1.2 17.8 0 28.2 13.6 10.4 13.6 10.4 37 0 24-11 38.8-10.8 14.6-28.6 14.6-1.2 0-2.4-.2-1 0-2.2-.2-6.8-1-13-4.4-6.2-3.4-9.8-8.2 0 .4-.2 1v.8q-.2 1.6-.6 3l-.4 2.4q-.4.8-.8 1.8-.2.8-.8 1.8h-15.6q1.6-3.6 2.2-9.2.8-5.6.8-15.6v-94.6q0-8-1-13.8-1-6-3-9.8zm26.4 61.6q-1.8 1.4-2.8 2.2-1 .6-1.6 1.4l-.4.4-.4.4q-.4.4-.8 1t-1 1.4v51.2q3.4 4.6 9.2 7.8 6 3.2 12.2 4 .8.2 1.6.2h3.2q1-.2 1.8-.2 4.4-.8 8.4-3 4-2.4 6.2-5.6 2.8-4 4.8-11.6 2.2-7.8 2.2-20.4 0-10-1.4-16.2-1.2-6.2-4.4-10.6-2.8-4-8-6.2-5-2.4-10.8-2.4-2.6 0-5.2.4-2.4.4-4.8 1.4-2 .8-4 2-2 1-4 2.4zM524.728 364q0-6.6-.4-10.4-.4-4-1.6-7.4-.2-1-.8-2-.4-1-.8-2.2l15.6-4.2 1.2 2.8q.6 1.2 1 2.4.6 2.2.8 4.4.4 2.2.4 5.2v1.4q4.8-6.8 11.2-11.2 6.6-4.4 13.6-5.2h1.6q.8-.2 1.6-.2H568.728q.8 0 1.6.2t1.4.2q.8.2 1.2.4l.6.2-6.4 17q-.8-.2-1.4-.4-.6-.2-1-.2-.4-.2-1-.2h-1q-4.4 0-8.8 2-4.4 1.8-7.8 5.2l-1.6 1.6q-.6.8-1.2 1.4-1.8 2.4-2.4 5.2-.6 2.8-.6 7.6V440h-15.6v-76zM575.438 390.4q0-24.4 11.4-38.2 11.4-14 31-14 12.4 0 20.8 5t13.4 12.4q4.6 6.8 6.8 15.8 2.4 9 2.4 21.2 0 14.6-3.8 24.4-3.6 9.6-11.8 16.8-5.8 5-12.4 7.2-6.4 2.2-14.8 2.2-20 0-31.6-14-11.4-14.2-11.4-38.8zm63.4-26.6q-2.8-5.8-7.8-8.8-5-3.2-10.6-3.8-.6-.2-1.4-.2h-1.4q-6.6 0-12.2 3-5.4 3-8.2 7.8-2.4 4.6-3.6 11-1.2 6.2-1.2 15 0 10.4 1.6 19.2 1.8 8.8 4.6 13.4 2.8 4.4 8.2 7.2 5.6 2.8 12 2.8 7.8 0 13.4-3.8 5.6-4 8.2-11.2l.4-1.2.4-1.2q1.2-4 1.6-8.4.6-4.4.6-10.8 0-10.6-1.2-17.8-1-7.2-3.4-12.2zM696.86 440.8l-27.6-99.6 15.6-3.4 16 65.8q1.6 6.8 2.6 11.8l1 4.8h.6l1-4.4q1-4.6 2.4-10l18-66h16.6l17.6 66.8q.2 1.2.6 2.4.4 1.2.6 2.6.2.2.2.4t.2.4q.8 3.2 1.4 6 .8 2.6 1 2.8h.4q0-.2.4-2.4.6-2.4 1.2-5.2.4-1.8.8-3.4.4-1.8.6-2.8l15.8-66.8h16.4l-28.2 100.2h-14.8l-23.2-81h-.4l-.4 1.8q-.2 1.8-.8 4 0 .8-.2 1.6l-.4 1.2q0 .4-.2.8 0 .4-.2.8l-20 70.8h-14.6zM815.513 365.8q0-7-.2-10.6-.2-3.8-1.2-6.8-.4-1.4-1-2.8-.6-1.6-1.4-3.4l15.2-4.2q1 2 1.6 3.8.6 1.6 1 3.4.6 2 .8 4 .2 2 .2 4.4 7.8-7.8 15.6-11.6t15.8-3.8q8.2 0 14.8 4 6.6 4 9.6 10.6 1.2 2.6 1.8 5.6.6 3 .6 6V440h-15.8v-67.4q0-7.6-.6-10.6-.6-3.2-2.6-5.6h-.2q0-.2-.2-.4-1.6-2-4.6-3-3-1.2-6.4-1.2-2.8 0-6.2 1-3.2.8-6.6 2.6-4.2 1.8-8 4.6t-6.8 5.8V440h-15.2v-74.2zM1030.74 301l-5.8 11q-.2-.2-.4-.2-.2-.2-.6-.4-2.4-1.2-5.6-2.4-3.2-1.2-6.6-1.6h-1.6q-6.6 0-10.2 4.6-3.4 4.4-3.4 13v16.2h27.6l-4.8 11.8h-22.8v87h-16.4v-87h-9.6v-11.8h9.6v-16.4q0-8 2.2-13t5-8q1-1 2-1.8 1-1 1.8-1.6 3.6-2.8 7.8-4 4.2-1.2 9.8-1.2 6.4 0 12 1.6 5.6 1.4 10 4.2zM1023.563 390.4q0-24.4 11.4-38.2 11.4-14 31-14 12.4 0 20.8 5t13.4 12.4q4.6 6.8 6.8 15.8 2.4 9 2.4 21.2 0 14.6-3.8 24.4-3.6 9.6-11.8 16.8-5.8 5-12.4 7.2-6.4 2.2-14.8 2.2-20 0-31.6-14-11.4-14.2-11.4-38.8zm63.4-26.6q-2.8-5.8-7.8-8.8-5-3.2-10.6-3.8-.6-.2-1.4-.2h-1.4q-6.6 0-12.2 3-5.4 3-8.2 7.8-2.4 4.6-3.6 11-1.2 6.2-1.2 15 0 10.4 1.6 19.2 1.8 8.8 4.6 13.4 2.8 4.4 8.2 7.2 5.6 2.8 12 2.8 7.8 0 13.4-3.8 5.6-4 8.2-11.2l.4-1.2.4-1.2q1.2-4 1.6-8.4.6-4.4.6-10.8 0-10.6-1.2-17.8-1-7.2-3.4-12.2zM1150.756 384.8l-30.6-44h19.2l19.6 32.8 19-32.8h18.2l-29.4 44 38.2 55.2h-19l-27-42.4-27 42.4h-18.4l37.2-55.2zM373.962 656.6v-95.4l15.8-3.2v102q0 1.2-.2 2.6 0 2.8-.2 5.4-.2 2.8-.4 4.6 0 .8-.2 1.6-.2 1-.4 1.8-.6 1.8-1.2 3.4-.6 1.8-1.6 3.4-3 5.8-7.8 9.8-4.6 4-11.2 6.8l-7.8-10.2q1.8-1 3-1.6 1.2-.6 2-1.2.6-.4 1-.8.4-.2.8-.6l.8-.8q.4-.2.8-.6 2.8-2.8 4-6.2 1.4-3.2 2-7.4.2-1.8.4-3.4.2-1.6.2-3 .2-1.6.2-3.2v-3.8zm-4.6-128.4q0-5.2 3.6-8.8 3.6-3.8 8.6-3.8 5.2 0 8.6 3.6 3.6 3.6 3.6 8.6t-3.6 8.8q-3.4 3.6-8.6 3.6-5 0-8.6-3.4-3.6-3.6-3.6-8.6zM417.563 634.4v-73.2l15.4-3v71.6q0 7.4 1.2 10.8 1.2 3.4 4.6 5.6 2 1.4 4.4 2.4 2.6.8 5.4 1.2.6.2 1.2.2h2.4q.6 0 1.2-.2 6.8-.6 13-5.4 6.4-5 10.2-12.4v-70.6l15.4-2.6v70.6q0 8.2.4 11.8.4 3.6 1.8 6.2v.4q.2 0 .2.2v.4q.2 0 .2.2.4.6.6 1 .4.4.6 1 .6.6 1.2 1.4.8.6 1.8 1.6l-10 10.6q-1.8-1.6-3.2-3-1.4-1.2-2.4-2.4-2.2-2.4-3.4-4.8-1.2-2.6-1.8-5.8-5.6 7.6-13.6 11.4-7.8 3.6-18 3.6-9.4 0-16.4-3.6-7-3.6-9.8-10.4-1.4-2.8-2-6.6-.6-3.8-.6-8.2zM518.394 585.8q0-6.8-.2-10.4-.2-3.8-1-6.8-.4-1.6-1-3.2-.6-1.8-1.4-3.8l15.2-3.6q.8 1.6 1.4 3.6.8 1.8 1.2 3.8.4 1.8.6 3.6.4 1.6.4 3v.8q1.4-1.6 2.6-2.6 1.2-1.2 2.2-2 .6-.6 1.2-1l1.2-.8q1-.8 2.2-1.4 1.2-.8 2.8-1.8 3.8-2.2 7-3.4 3.2-1.4 6.2-1.8h1.8q1-.2 1.8-.2 5.8 0 11.2 2.8 5.4 2.6 8.6 7.2l.4.8.6.6q.2.6.4 1 .4.4.6 1 .4.6.6 1.4.4.8.8 1.8 4-4.4 8.6-7.6 4.6-3.4 9.4-5.6 3.6-1.6 7-2.4 3.6-1 7-1 11.2 0 18 7.6 7 7.6 7 19.4V660h-16v-73.6q0-7.2-3.2-10.8-3.2-3.8-9.6-3.8-1.4 0-3 .2-1.4.2-2.8.8-2.4.6-4.6 1.8-2.2 1-4.2 2.6-2.2 1.6-4.8 3.8-2.4 2-5.2 4.6l-1.8 1.6V660h-15.8v-70.8q0-5.4-.4-7.6-.2-2.2-1.4-4l-.4-.4q-.2-.4-.6-.8-1.8-2.2-4.4-3-2.4-1-5.8-1h-1.4q-5.4.4-11 3.6-5.6 3-13 9.6V660h-15v-74.2zM669.425 584.6q0-8.2-.6-14.2-.6-6.2-1.8-9.8l16.2-2.8q.4 2.2.6 5.4.4 3.2.4 7.2v2.6q6.2-7.2 13.6-10.8 7.6-3.8 15.8-3.8 7.6 0 14.6 3.4 7 3.2 12 9 5.6 6.8 8.2 16.4 2.8 9.4 2.8 22.8 0 12-2 19.8-1.8 7.6-6 14.6-5.4 8.6-13.2 13.4-7.8 4.6-17.6 4.6-7.6 0-15-3-7.2-3-12.4-8.4v47.4l-15.6 3.2v-117zm15.6 1.8v50.2q4.8 5.4 10 8.6 5.4 3.2 10.8 4.2.8 0 1.8.2h1.8q7 0 12.6-3.4 5.8-3.4 8.4-9 2.2-4.8 3.2-10.8 1-6 1-14.4 0-9-1.2-16.6-1.2-7.6-3.4-12-2.4-5.2-7.4-8-5-3-11-3-7.4 0-14.2 3.6-6.6 3.4-12.4 10.4zM802.563 556.4q2.2 0 4.2.2l4.4.4q6 1 11.6 3 5.6 1.8 10.2 4.4l-5.8 11.6q-3.2-1.6-6.4-2.8-3-1.4-6-2.4-3.2-1-6.2-1.4-3-.6-6.4-.6-8.6 0-13.8 4.6-5 4.4-5 11.8 0 2.6.6 5 .8 2.2 2.2 3.8 1.6 2 4.4 3.4 2.8 1.2 7.2 2.2l13.2 2.8q13.6 3 20 9.8 6.6 6.8 6.6 18 0 14.6-10.4 23.6-10.4 8.8-27.2 8.8-2.4 0-4.8-.2l-4.8-.4q-7.2-1.2-14.2-3.4-7-2.4-12.8-5.8l6-11.6q7.6 4.6 15.4 7 8 2.4 16.2 2.4 9.2 0 14.6-4.6 5.6-4.6 5.6-12.6 0-6.8-4-10.6-3.8-4-12.4-5.8l-12.4-2.6q-6.8-1.6-11.2-3.8-4.2-2.4-7.6-6.2-3.2-3.6-4.8-8-1.6-4.4-1.6-9.4 0-13.6 9.8-22 10-8.6 25.6-8.6zM913.422 610.4q0-24.4 11.4-38.2 11.4-14 31-14 12.4 0 20.8 5t13.4 12.4q4.6 6.8 6.8 15.8 2.4 9 2.4 21.2 0 14.6-3.8 24.4-3.6 9.6-11.8 16.8-5.8 5-12.4 7.2-6.4 2.2-14.8 2.2-20 0-31.6-14-11.4-14.2-11.4-38.8zm63.4-26.6q-2.8-5.8-7.8-8.8-5-3.2-10.6-3.8-.6-.2-1.4-.2h-1.4q-6.6 0-12.2 3-5.4 3-8.2 7.8-2.4 4.6-3.6 11-1.2 6.2-1.2 15 0 10.4 1.6 19.2 1.8 8.8 4.6 13.4 2.8 4.4 8.2 7.2 5.6 2.8 12 2.8 7.8 0 13.4-3.8 5.6-4 8.2-11.2l.4-1.2.4-1.2q1.2-4 1.6-8.4.6-4.4.6-10.8 0-10.6-1.2-17.8-1-7.2-3.4-12.2zM1041.862 661l-35.8-99.8 16-3.4 23.2 68.6q1.6 4.8 2.8 9.2 1.2 4.4 2 7.8h.4q.4-1.6.6-3 .4-1.6.8-3 .6-2.4 1.4-5 .8-2.6 2-5.8l22.6-65.8 16.6-.2-37.2 100.4h-15.4zM1148.575 649.2q7.2 0 13.2-2.2 6-2.4 11.2-7.2l6 10q-6.6 6-15.4 9.2-8.6 3-18.2 3-20.6 0-32.4-14-11.8-14-11.8-38.8 0-12.6 2.8-21.4 2.8-8.8 9.2-16.2 6-7 13.4-10.4 7.4-3.6 16.4-3.6 8.2 0 15 2.8 7 2.8 12 8.2 6.4 6.6 8.8 15.4 2.4 8.8 2.6 26.6v2.2h-62.2v2.4q0 7 1 12.4t3.6 9.4q4.2 6.4 10.8 9.4 6.6 2.8 14 2.8zm-6.4-79.2q-10.6 0-16.6 7.8-5.8 7.8-6.4 23.2h45.6q-.2-8.2-1.4-13.4-1-5.2-3.2-8.8-2.6-4-7.4-6.4-4.8-2.4-10.6-2.4zM1202.775 584q0-6.6-.4-10.4-.4-4-1.6-7.4-.2-1-.8-2-.4-1-.8-2.2l15.6-4.2 1.2 2.8q.6 1.2 1 2.4.6 2.2.8 4.4.4 2.2.4 5.2v1.4q4.8-6.8 11.2-11.2 6.6-4.4 13.6-5.2h1.6q.8-.2 1.6-.2H1246.775q.8 0 1.6.2t1.4.2q.8.2 1.2.4l.6.2-6.4 17q-.8-.2-1.4-.4-.6-.2-1-.2-.4-.2-1-.2h-1q-4.4 0-8.8 2-4.4 1.8-7.8 5.2l-1.6 1.6q-.6.8-1.2 1.4-1.8 2.4-2.4 5.2-.6 2.8-.6 7.6V660h-15.6v-76zM314.927 780.2h25.2l-4.8 12.2h-21v64q0 8.2 2.6 11.6 2.8 3.2 10.2 3.2 3.4 0 5.6-.4 2.4-.6 4.4-1.6l2.2 10q-3.8 1.8-8.2 2.8-4.2 1-9.4 1-3.8 0-7-.8-3.2-.6-6-2-5.2-2.4-7.4-7.2-2.2-5-2.2-12.4v-68.2h-13v-12.2h13V779q0-3.8.2-8.4.4-4.8 1.2-12.4l.2-2.6 16.2-3.6-.4 2.6q-.2 2.4-.6 6.6-.2 3.2-.6 7-.2 3.8-.4 7.8v4.2zM354.98 757.2q0-4-.2-6.8-.2-3-.6-5.6l-.8-3.6q-.4-1.8-1-3.8l15.6-3v.6q.2.2.2.4 1.2 4.8 1.8 9.8.6 5 .6 12.2v23.2q0 2.8-.2 6.2 0 3.4-.4 7.4 1.2-1.2 2.2-2 1-1 2-1.8l.8-.4.8-.8q.8-.6 1.8-1.2l2.4-1.6q4-2.6 7.6-4.4 3.8-1.8 7.4-2.6 2-.6 4-.8 2-.2 4.2-.2 9 0 16.2 4.4 7.2 4.4 9.4 11.4.2.4.2 1 .2.4.4 1 .6 2.4.8 5.2.2 2.6.2 7.2V880h-15.4v-68.8q0-5.6-1-9-.8-3.6-2.8-5.8-1.8-1.8-4.8-2.8-3-1.2-6.8-1.2-2.6 0-5.2.6t-5.2 1.6q-5 2-9.8 5.8-4.6 3.6-8.8 8.8V880h-15.6V757.2zM497.41 869.2q7.2 0 13.2-2.2 6-2.4 11.2-7.2l6 10q-6.6 6-15.4 9.2-8.6 3-18.2 3-20.6 0-32.4-14-11.8-14-11.8-38.8 0-12.6 2.8-21.4 2.8-8.8 9.2-16.2 6-7 13.4-10.4 7.4-3.6 16.4-3.6 8.2 0 15 2.8 7 2.8 12 8.2 6.4 6.6 8.8 15.4 2.4 8.8 2.6 26.6v2.2h-62.2v2.4q0 7 1 12.4t3.6 9.4q4.2 6.4 10.8 9.4 6.6 2.8 14 2.8zm-6.4-79.2q-10.6 0-16.6 7.8-5.8 7.8-6.4 23.2h45.6q-.2-8.2-1.4-13.4-1-5.2-3.2-8.8-2.6-4-7.4-6.4-4.8-2.4-10.6-2.4zM612.008 765.4q0-9.8-.4-15-.4-5.4-1.6-10l-.4-1.2q-.2-.8-.4-1.4l16.2-3.2q1.8 5.4 2 12.8.4 7.2.4 15.6v97q0 5.8 1.2 8 1.2 2 4.4 2h.4q.2 0 .4-.2h1l.2-.2 3.2 10.2q-1.4.4-2.6.8-1 .4-2.2.8-1 .2-2.4.2-1.2.2-2.8.2-3.8 0-6.8-1-2.8-1-5-3-2.6-2.4-3.8-5.6-1-3.2-1-8.6v-98.2zM658.617 802.4l-7.8-11.2q10-6.6 20.4-10 10.6-3.4 21.4-3.4 10.4 0 17.4 4 7 4 10.2 11.6.2.4.4 1l.4.8q.8 2.8 1 6.2.4 3.2.4 9v5l-.8 32.8q-.2 1-.2 2.2v2.4q0 9.2 1.6 13.4 1.8 4 6.6 6.4l-8 11.2q-5-1.8-8.6-5.6-3.6-3.8-5-9-2.4 2.4-4.8 4.4-2.2 1.8-4.4 3.4-4.4 3-9.2 4.2-4.6 1.2-10.4 1.2-9.4 0-14.8-2.2-5.2-2-9.2-5.6-2.6-2.4-4.2-5.4-1.6-3.2-2.6-6.6-.6-2.2-1-4.2-.2-2.2-.2-4.2 0-17 13.8-26.4 14-9.4 39-9.4h2.2q1 0 2 .2h2.8v-7q0-6.6-.6-9.8-.4-3.4-2.6-5.8-2.4-2.8-5.6-4-3.2-1.4-7.8-1.4-4.4 0-9 1t-10.2 3.4q-1.4.6-2.6 1.2l-2 .8q-1 .6-1.8 1t-1.6 1q-1 .6-2.2 1.6-1 .8-2.4 1.8zm47.4 53l.6-26h-2.8l-2-.4h-3q-11.4 0-18.2 2-6.6 2-10.4 6-2.8 3-4.2 6.8-1.4 3.8-1.4 9 0 8.8 4.2 13.6 4.4 4.6 13 4.6 7.6 0 14.2-4.2 6.6-4.4 10-11.4zM743.017 793v-12.4h66.4v12.8l-51.8 74.6h55l-7.4 12h-66.4v-12l54.2-75h-50zM837.155 845l-21.4-62.4 15.4-5.2 20.4 64.6.4 1.6q.4.8.6 1.8.4 1.2.6 2.6l.8 2.8q1.4 6 2.4 11l1.2 5h.4l1.2-4.2q1.4-4.4 2.8-9.6l1.2-3.6q.6-2 1-3.6l19.6-65.2h17.8l-34.2 103q-.4.8-.8 1.8l-.8 2.4q-2.6 7-6.2 13.6t-8 10.8q-2.6 2.4-6.4 4.4-3.6 2.2-7.4 3.4-.6.2-1.4.4l-1.2.4-4.6-10.4q1.4-.4 3-1.2 1.6-.6 3.2-1.6 2.2-1.2 4.2-3 2-1.6 3.6-3.4 2.6-3.2 4.8-8.6 2.2-5.2 4.2-12.8l-6.4 1q-.6-2.8-2-8.2-1.4-5.6-3.2-11.8-.2-1-.6-2l-.4-2q-1-3.2-2-6.2-1-3.2-1.8-5.6zM1038.53 734l15.6 2.6v111.2q0 7.6.2 14.2.4 6.6.8 10 .2.8.2 1.4.2.6.2 1.2.2.4.2.8.2.4.2.8.2.8.4 1.8.4.8.8 2h-16q-.4-1.2-.8-2-.2-1-.4-1.8t-.4-1.4q0-.8-.2-1.8 0-.8-.2-1.4 0-.8-.2-1.8-1.2 1.4-2.2 2.4-.8.8-1.8 1.6-.4.6-1 1-.4.4-1 .8-.2 0-.4.2-.2 0-.4.2-3.8 2.6-8.8 4-5 1.2-10.8 1.2-19.4 0-30-13.2-10.6-13.2-10.6-37 0-16 5.2-27.6 5.2-11.6 15.4-18.6 1.6-1.2 3-2 1.6-1 3.2-1.6 3-1.4 6.2-2 3.2-.8 6.8-.8 8.4 0 15.4 3.4 7.2 3.4 11.6 9.4v-1.4-3.6q-.2-1.8-.2-3.8v-4.2-1.2-43zm-.2 120.6v-52.8q-3.8-5.2-9.6-7.8-5.8-2.6-14.6-2.6-5.8 0-10.6 2.6t-8 7.8l-.4.8-.4.4q-3.2 5.4-4.4 11.6-1.2 6-1.2 16 0 12.8 1.6 19.6 1.8 6.8 6.2 11.6 3.4 3.6 7 5t9.2 1.4q4.4 0 7.6-.6 3.4-.8 6.4-2.4 1.2-.6 2.4-1.4l2.8-2q.6-.4 1-.8.6-.6 1.2-1 1.6-1.6 2.4-3 1-1.4 1.4-2.4zM1076.867 830.4q0-24.4 11.4-38.2 11.4-14 31-14 12.4 0 20.8 5t13.4 12.4q4.6 6.8 6.8 15.8 2.4 9 2.4 21.2 0 14.6-3.8 24.4-3.6 9.6-11.8 16.8-5.8 5-12.4 7.2-6.4 2.2-14.8 2.2-20 0-31.6-14-11.4-14.2-11.4-38.8zm63.4-26.6q-2.8-5.8-7.8-8.8-5-3.2-10.6-3.8-.6-.2-1.4-.2h-1.4q-6.6 0-12.2 3-5.4 3-8.2 7.8-2.4 4.6-3.6 11-1.2 6.2-1.2 15 0 10.4 1.6 19.2 1.8 8.8 4.6 13.4 2.8 4.4 8.2 7.2 5.6 2.8 12 2.8 7.8 0 13.4-3.8 5.6-4 8.2-11.2l.4-1.2.4-1.2q1.2-4 1.6-8.4.6-4.4.6-10.8 0-10.6-1.2-17.8-1-7.2-3.4-12.2zM1248.433 784q2.2 0 4.2-.2 2-.4 4-1.2l2.8-1.2q1.4-.8 2.8-1.8l9.6 9.6q-2.4 1.8-4.6 3-2.2 1.2-4.4 1.8-1.8.6-3.8 1-1.8.2-4 .2h-2.6l-1.6-.4q-.6 0-1.2-.2t-1.4-.6q3 3.8 4.4 8 1.6 4.2 1.6 9 0 1-.2 2v2.2q-.8 5.8-3.8 11.4-2.8 5.6-6.8 9-2.8 2.6-6.8 4.4-4 1.6-8.4 2.4-1.2.2-2.6.4H1220.833l-2.2.8q-8 3-12 5.6-3.8 2.6-3.8 5.2 0 2.2 2 3.6 2.2 1.2 6 1.2h16q8.8 0 14.2 1.2 5.4 1.2 9.8 4.4 5.8 4 8.4 9.4 2.6 5.2 2.6 11.4 0 9.4-4 16.2-4 7-11.2 10.4-5.2 2.6-11 3.6-5.8 1.2-13.4 1.2-14 0-22.8-2.6t-13.6-7.2q-3.4-3.2-5.2-7.2-1.6-3.8-1.6-8.4v-2q.2-1 .2-1.8.2-1.6.6-3.4.6-1.6 1.2-3.4l16.4-1.2-.8 1.6q-.4.6-.8 1.6t-.6 2q-.4.8-.6 1.8v1.8q0 4 1.6 7t4.2 4.6q3.6 2.2 8.8 3.4 5.4 1.2 11.4 1.2 8.4 0 13.6-1.8 5.2-1.8 7.8-5.8 1.6-2 2.2-4.4.6-2.2.6-5.4 0-4-1.4-7-1.2-3-4-4.8-2.8-2-7.6-2.8-4.6-1-12-1-1.4 0-3.4.2H1211.833q-2.2 0-4.2.2h-3.2q-8.8 0-13.8-3.8t-5-10.6q0-6 3.8-9.8 3.8-3.8 13-6.8l1.2-.4q-10-3.2-16.2-11-6.2-8-6.2-17.8 0-15 10.2-24.2 10.2-9.4 26.6-9.4h1.6q1 0 1.8.2 3 .2 5.8.8 2.8.4 5.2 1.2l6.8 2.2q1.8.6 4.2 1 2.4.2 5 .2zm-12.4 27.2q0-10.2-4.2-14.8-4.2-4.8-14.2-4.8-9.2 0-14 5-4.8 4.8-4.8 15.2 0 9.6 4.8 14.6 5 4.8 14.4 4.8 9 0 13.4-5 4.6-5 4.6-15zM1279.348 868.8q0-5.6 3.8-9.4 3.8-3.8 9.4-3.8 5.8 0 9.6 3.8 4 3.8 4 9.4 0 5.6-4 9.6-3.8 4-9.2 4-5.6 0-9.6-4t-4-9.6z"/></g></svg>