<svg xmlns="http://www.w3.org/2000/svg" viewBox="0 0 800 500"><path fill="#fff" d="M0 0h800v500H0z"/><g font-weight="400" font-size="100" font-family="Meta" text-anchor="middle" fill="#111"><path d="M156.836 37.1h61.67v8.3h-25.88V110h-9.91V45.4h-25.88zM273.145 76.992V110h-8.985V77.285q0-7.764-3.027-11.62-3.028-3.858-9.082-3.858-7.275 0-11.474 4.638-4.2 4.64-4.2 12.647V110h-9.032V34.023h9.033V63.81q3.223-4.933 7.568-7.374 4.395-2.442 10.108-2.442 9.424 0 14.258 5.86 4.835 5.81 4.835 17.138zM337.94 80.41v4.395h-41.31q.587 9.277 5.567 14.16 5.03 4.834 13.965 4.834 5.176 0 10.01-1.27 4.883-1.27 9.668-3.81v8.497q-4.834 2.05-9.912 3.125-5.078 1.074-10.303 1.074-13.086 0-20.752-7.617-7.617-7.618-7.617-20.607 0-13.427 7.226-21.29 7.276-7.91 19.58-7.91 11.036 0 17.432 7.13 6.445 7.08 6.445 19.287zm-8.985-2.637q-.098-7.373-4.15-11.767-4.004-4.395-10.645-4.395-7.52 0-12.06 4.25-4.493 4.247-5.176 11.962zM389.893 82.705q0 9.912 4.052 15.576 4.102 5.616 11.23 5.616 7.13 0 11.23-5.615 4.103-5.663 4.103-15.575 0-9.912-4.102-15.527-4.1-5.664-11.23-5.664-7.13 0-11.23 5.664-4.053 5.615-4.053 15.527zm30.615 19.092q-2.832 4.883-7.178 7.275-4.297 2.344-10.35 2.344-9.914 0-16.164-7.91-6.2-7.91-6.2-20.8 0-12.892 6.2-20.802 6.25-7.91 16.163-7.91 6.053 0 10.35 2.393 4.346 2.343 7.178 7.226v-8.3h8.984V130.8h-8.984zM447.07 88.418V55.312h8.985v32.764q0 7.764 3.027 11.67 3.027 3.858 9.082 3.858 7.275 0 11.475-4.64 4.247-4.638 4.247-12.646V55.313h8.984V110h-8.983v-8.398q-3.272 4.98-7.617 7.42-4.297 2.394-10.01 2.394-9.424 0-14.307-5.86-4.883-5.86-4.883-17.138zm22.608-34.424zM511.475 55.313h8.984V110h-8.985zm0-21.29h8.984V45.4h-8.985zM578.564 57.412v8.4q-3.808-2.1-7.666-3.126-3.808-1.075-7.714-1.075-8.74 0-13.575 5.568-4.835 5.517-4.835 15.527 0 10.01 4.834 15.576 4.833 5.52 13.574 5.52 3.906 0 7.714-1.027 3.858-1.074 7.666-3.173v8.3q-3.76 1.758-7.812 2.637-4.004.88-8.545.88-12.353 0-19.63-7.765-7.274-7.763-7.274-20.947 0-13.38 7.324-21.045 7.373-7.666 20.166-7.666 4.15 0 8.105.88 3.956.83 7.666 2.538zM593.945 34.023h9.034v44.873l26.805-23.584h11.475l-29.004 25.586L642.48 110h-11.718L602.98 83.29V110h-9.035zM202.1 192.705q0-9.912-4.102-15.527-4.053-5.664-11.182-5.664-7.128 0-11.23 5.664-4.053 5.615-4.053 15.527 0 9.912 4.053 15.576 4.102 5.616 11.23 5.616 7.13 0 11.182-5.615 4.102-5.663 4.102-15.575zm-30.567-19.092q2.832-4.883 7.13-7.226 4.345-2.393 10.35-2.393 9.962 0 16.163 7.91 6.25 7.91 6.25 20.8 0 12.892-6.25 20.802-6.2 7.91-16.162 7.91-6.006 0-10.352-2.344-4.297-2.392-7.13-7.275V220H162.5v-75.977h9.033zM258.008 173.71q-1.514-.878-3.32-1.27-1.758-.438-3.907-.438-7.616 0-11.718 4.98-4.052 4.932-4.052 14.21V220h-9.033v-54.688h9.033v8.497q2.832-4.982 7.373-7.374 4.54-2.442 11.035-2.442.928 0 2.05.147 1.124.098 2.49.342zM286.572 171.61q-7.226 0-11.426 5.665-4.2 5.616-4.2 15.43 0 9.815 4.152 15.48 4.2 5.614 11.474 5.614 7.178 0 11.377-5.665 4.198-5.664 4.198-15.43 0-9.717-4.2-15.38-4.198-5.714-11.376-5.714zm0-7.616q11.72 0 18.408 7.617 6.69 7.62 6.69 21.095 0 13.428-6.69 21.094-6.69 7.616-18.408 7.616-11.767 0-18.457-7.617-6.64-7.667-6.64-21.095 0-13.476 6.64-21.094 6.69-7.616 18.457-7.616zM321.29 165.313h8.983l11.23 42.675 11.183-42.675h10.595l11.232 42.675 11.18-42.675h8.986L380.37 220h-10.595l-11.767-44.824L346.19 220h-10.594zM453.81 186.992V220h-8.986v-32.715q0-7.764-3.027-11.62-3.027-3.858-9.082-3.858-7.276 0-11.475 4.638-4.2 4.64-4.2 12.647V220h-9.032v-54.688h9.033v8.497q3.224-4.933 7.57-7.374 4.394-2.442 10.107-2.442 9.424 0 14.258 5.86 4.834 5.81 4.834 17.138zM531.348 144.023v7.47h-8.594q-4.834 0-6.738 1.954-1.856 1.953-1.856 7.032v4.832h14.795v6.983H514.16V220h-9.033v-47.705h-8.594v-6.982h8.594v-3.81q0-9.13 4.248-13.28 4.248-4.2 13.477-4.2zM560.01 171.61q-7.227 0-11.426 5.665-4.2 5.616-4.2 15.43 0 9.815 4.15 15.48 4.2 5.614 11.476 5.614 7.178 0 11.377-5.665 4.2-5.664 4.2-15.43 0-9.717-4.2-15.38-4.2-5.714-11.377-5.714zm0-7.616q11.72 0 18.408 7.617 6.69 7.62 6.69 21.095 0 13.428-6.69 21.094-6.69 7.616-18.408 7.616-11.768 0-18.457-7.617-6.64-7.667-6.64-21.095 0-13.476 6.64-21.094 6.69-7.616 18.457-7.616zM642.285 165.313l-19.775 26.61L643.31 220h-10.595l-15.918-21.484L600.88 220h-10.597l21.24-28.613-19.433-26.075h10.596l14.502 19.483 14.5-19.482zM129.834 275.313h8.984v55.664q0 10.45-4.004 15.136-3.955 4.688-12.793 4.688h-3.416v-7.616h2.392q5.127 0 6.983-2.393 1.854-2.343 1.854-9.813zm0-21.29h8.984V265.4h-8.984zM156.64 308.418v-33.106h8.985v32.764q0 7.764 3.027 11.67 3.028 3.858 9.082 3.858 7.276 0 11.475-4.64 4.247-4.638 4.247-12.646v-31.005h8.984V330h-8.983v-8.398q-3.27 4.98-7.617 7.42-4.297 2.394-10.01 2.394-9.424 0-14.307-5.86-4.882-5.86-4.882-17.138zm22.608-34.424zM263.623 285.81q3.37-6.054 8.057-8.935 4.687-2.88 11.035-2.88 8.545 0 13.183 6.005 4.64 5.957 4.64 16.992V330h-9.034v-32.715q0-7.86-2.783-11.67-2.783-3.808-8.495-3.808-6.983 0-11.036 4.638-4.053 4.64-4.053 12.647V330h-9.033v-32.715q0-7.91-2.784-11.67-2.783-3.808-8.593-3.808-6.885 0-10.938 4.687-4.054 4.64-4.054 12.598V330h-9.033v-54.688h9.033v8.497q3.076-5.03 7.373-7.423 4.296-2.393 10.204-2.393 5.957 0 10.108 3.027 4.2 3.03 6.2 8.79zM327.197 321.797V350.8h-9.033v-75.488h9.033v8.3q2.832-4.882 7.13-7.225 4.345-2.393 10.35-2.393 9.962 0 16.163 7.91 6.25 7.91 6.25 20.8 0 12.892-6.25 20.802-6.2 7.91-16.162 7.91-6.006 0-10.352-2.344-4.297-2.392-7.13-7.275zm30.567-19.092q0-9.912-4.102-15.527-4.053-5.664-11.182-5.664-7.128 0-11.23 5.664-4.053 5.615-4.053 15.527 0 9.912 4.053 15.576 4.102 5.616 11.23 5.616 7.13 0 11.182-5.615 4.102-5.663 4.102-15.575zM416.846 276.924v8.496q-3.81-1.953-7.91-2.93-4.102-.976-8.497-.976-6.69 0-10.06 2.05-3.32 2.05-3.32 6.153 0 3.125 2.393 4.93 2.393 1.76 9.62 3.37l3.075.684q9.57 2.052 13.575 5.812 4.052 3.71 4.052 10.4 0 7.617-6.054 12.06-6.005 4.444-16.552 4.444-4.395 0-9.18-.88-4.736-.83-10.01-2.538v-9.277q4.98 2.59 9.815 3.907 4.834 1.27 9.57 1.27 6.348 0 9.766-2.15 3.417-2.196 3.417-6.15 0-3.663-2.49-5.617-2.442-1.953-10.79-3.76l-3.126-.732q-8.35-1.758-12.06-5.37-3.71-3.663-3.71-10.01 0-7.715 5.468-11.915 5.47-4.2 15.527-4.2 4.98 0 9.375.734 4.395.732 8.106 2.197zM487.158 281.61q-7.226 0-11.426 5.665-4.2 5.616-4.2 15.43 0 9.815 4.152 15.48 4.2 5.614 11.474 5.614 7.178 0 11.377-5.665 4.2-5.664 4.2-15.43 0-9.717-4.2-15.38-4.2-5.714-11.377-5.714zm0-7.616q11.72 0 18.408 7.617 6.69 7.62 6.69 21.095 0 13.428-6.69 21.094-6.69 7.616-18.408 7.616-11.767 0-18.457-7.617-6.64-7.667-6.64-21.095 0-13.476 6.64-21.094 6.69-7.616 18.458-7.616zM520.654 275.313h9.522l17.09 45.898 17.09-45.897h9.52L553.37 330H541.16zM633.057 300.41v4.395h-41.31q.587 9.277 5.567 14.16 5.03 4.834 13.965 4.834 5.175 0 10.01-1.27 4.882-1.27 9.667-3.81v8.497q-4.834 2.05-9.912 3.125-5.078 1.074-10.303 1.074-13.086 0-20.752-7.617-7.617-7.618-7.617-20.607 0-13.427 7.227-21.29 7.275-7.91 19.58-7.91 11.035 0 17.43 7.13 6.447 7.08 6.447 19.287zm-8.985-2.637q-.097-7.373-4.15-11.767-4.004-4.395-10.645-4.395-7.52 0-12.06 4.25-4.492 4.247-5.176 11.962zM679.492 283.71q-1.513-.878-3.32-1.27-1.758-.438-3.906-.438-7.618 0-11.72 4.98-4.052 4.932-4.052 14.21V330h-9.033v-54.688h9.034v8.497q2.832-4.982 7.373-7.374 4.54-2.442 11.035-2.442.928 0 2.05.147 1.124.098 2.49.342zM93.994 369.785v15.527H112.5v6.983H93.994v29.687q0 6.69 1.807 8.594 1.856 1.904 7.47 1.904h9.23V440h-9.23q-10.4 0-14.354-3.857-3.955-3.907-3.955-14.16v-29.688h-6.59v-6.983h6.59v-15.527zM169.824 406.992V440h-8.984v-32.715q0-7.764-3.027-11.62-3.028-3.858-9.083-3.858-7.275 0-11.474 4.638-4.2 4.64-4.2 12.647V440h-9.033v-75.977h9.034v29.786q3.222-4.933 7.568-7.374 4.395-2.442 10.107-2.442 9.424 0 14.258 5.86 4.834 5.81 4.834 17.138zM234.62 410.41v4.395h-41.31q.586 9.277 5.567 14.16 5.03 4.834 13.965 4.834 5.176 0 10.01-1.27 4.882-1.27 9.668-3.81v8.497q-4.834 2.05-9.913 3.125-5.078 1.074-10.302 1.074-13.086 0-20.752-7.617-7.617-7.618-7.617-20.607 0-13.427 7.226-21.29 7.275-7.91 19.58-7.91 11.035 0 17.432 7.13 6.445 7.08 6.445 19.287zm-8.985-2.637q-.098-7.373-4.15-11.767-4.005-4.395-10.645-4.395-7.52 0-12.06 4.25-4.493 4.247-5.176 11.962zM281.2 364.023h8.986V440H281.2zM333.79 412.51q-10.89 0-15.09 2.49-4.198 2.49-4.198 8.496 0 4.785 3.125 7.617 3.174 2.783 8.594 2.783 7.47 0 11.964-5.273 4.54-5.322 4.54-14.11v-2.003zm17.92-3.71V440h-8.985v-8.3q-3.077 4.98-7.666 7.372-4.59 2.344-11.232 2.344-8.398 0-13.38-4.687-4.93-4.738-4.93-12.648 0-9.228 6.152-13.916 6.2-4.687 18.457-4.687h12.598v-.88q0-6.202-4.102-9.57-4.053-3.42-11.426-3.42-4.687 0-9.13 1.124-4.444 1.123-8.546 3.37v-8.3q4.933-1.906 9.572-2.833 4.638-.976 9.033-.976 11.865 0 17.725 6.152 5.86 6.153 5.86 18.653zM366.357 385.313h42.676v8.203l-33.79 39.306h33.79V440h-43.896v-8.203l33.79-39.307h-32.57zM445.557 445.078q-3.81 9.766-7.422 12.744-3.614 2.98-9.668 2.98h-7.178v-7.52h5.272q3.71 0 5.762-1.76 2.05-1.756 4.54-8.3l1.613-4.1-22.12-53.81h9.522l17.09 42.774 17.09-42.773h9.52zM549.805 393.613v-29.59h8.984V440h-8.985v-8.203q-2.832 4.883-7.178 7.275-4.297 2.344-10.352 2.344-9.912 0-16.162-7.91-6.2-7.91-6.2-20.8 0-12.892 6.2-20.802 6.25-7.91 16.162-7.91 6.055 0 10.352 2.393 4.346 2.343 7.178 7.226zm-30.616 19.092q0 9.912 4.052 15.576 4.102 5.616 11.23 5.616 7.13 0 11.23-5.615 4.103-5.663 4.103-15.575 0-9.912-4.102-15.527-4.1-5.664-11.23-5.664-7.13 0-11.23 5.664-4.054 5.615-4.054 15.527zM598.486 391.61q-7.226 0-11.425 5.665-4.2 5.616-4.2 15.43 0 9.815 4.152 15.48 4.2 5.614 11.474 5.614 7.178 0 11.377-5.665 4.2-5.664 4.2-15.43 0-9.717-4.2-15.38-4.2-5.714-11.377-5.714zm0-7.616q11.72 0 18.41 7.617 6.688 7.62 6.688 21.095 0 13.428-6.69 21.094-6.69 7.616-18.408 7.616-11.767 0-18.457-7.617-6.64-7.667-6.64-21.095 0-13.476 6.64-21.094 6.69-7.616 18.456-7.616zM674.414 412.02q0-9.764-4.053-15.135-4.003-5.37-11.278-5.37-7.227 0-11.28 5.37-4.003 5.37-4.003 15.136 0 9.718 4.003 15.09 4.052 5.37 11.28 5.37 7.274 0 11.278-5.37 4.054-5.372 4.054-15.09zm8.984 21.193q0 13.965-6.2 20.752-6.202 6.836-18.995 6.836-4.736 0-8.935-.732-4.2-.683-8.155-2.148v-8.74q3.955 2.148 7.813 3.174 3.857 1.025 7.86 1.025 8.84 0 13.234-4.64 4.394-4.59 4.394-13.916v-4.443q-2.783 4.835-7.13 7.227-4.345 2.393-10.4 2.393-10.058 0-16.21-7.666-6.153-7.666-6.153-20.313 0-12.694 6.154-20.36 6.152-7.666 16.21-7.666 6.055 0 10.4 2.393 4.347 2.392 7.13 7.226v-8.3h8.984zM703.174 427.598h10.303V440h-10.303z"/></g></svg>