<svg xmlns="http://www.w3.org/2000/svg" viewBox="0 0 800 500"><path fill="#fff" d="M0 0h800v500H0z"/><g font-weight="400" font-size="100" font-family="Meta" text-anchor="middle" fill="#111"><path d="M195.366 48.3v-6.9h45.4l-.5 6.9h-18.6V110h-7.9V48.3h-18.4zM251.162 48.6q0-2-.1-3.4-.1-1.5-.3-2.8l-.4-1.8q-.2-.9-.5-1.9l7.8-1.5v.3q.1.1.1.2.6 2.4.9 4.9.3 2.5.3 6.1v11.6q0 1.4-.1 3.1 0 1.7-.2 3.7.6-.6 1.1-1 .5-.5 1-.9l.4-.2.4-.4q.4-.3.9-.6l1.2-.8q2-1.3 3.8-2.2 1.9-.9 3.7-1.3 1-.3 2-.4 1-.1 2.1-.1 4.5 0 8.1 2.2 3.6 2.2 4.7 5.7.1.2.1.5.1.2.2.5.3 1.2.4 2.6.1 1.3.1 3.6V110h-7.7V75.6q0-2.8-.5-4.5-.4-1.8-1.4-2.9-.9-.9-2.4-1.4-1.5-.6-3.4-.6-1.3 0-2.6.3t-2.6.8q-2.5 1-4.9 2.9-2.3 1.8-4.4 4.4V110h-7.8V48.6zM325.377 104.6q3.6 0 6.6-1.1 3-1.2 5.6-3.6l3 5q-3.3 3-7.7 4.6-4.3 1.5-9.1 1.5-10.3 0-16.2-7-5.9-7-5.9-19.4 0-6.3 1.4-10.7 1.4-4.4 4.6-8.1 3-3.5 6.7-5.2 3.7-1.8 8.2-1.8 4.1 0 7.5 1.4 3.5 1.4 6 4.1 3.2 3.3 4.4 7.7 1.2 4.4 1.3 13.3v1.1h-31.1v1.2q0 3.5.5 6.2t1.8 4.7q2.1 3.2 5.4 4.7 3.3 1.4 7 1.4zm-3.2-39.6q-5.3 0-8.3 3.9-2.9 3.9-3.2 11.6h22.8q-.1-4.1-.7-6.7-.5-2.6-1.6-4.4-1.3-2-3.7-3.2-2.4-1.2-5.3-1.2zM419.976 65.7q.2-2.1.4-3.4.3-1.4.7-2.2h7.7q-.1.2-.2.5-.1.2-.2.6-.4 1.8-.8 5.3-.4 3.4-.4 7.3v54.9l-7.5 1.6v-25.9q-2.8 3.3-6.3 4.9-3.4 1.5-7.7 1.5-3.4 0-6.2-.9-2.7-.9-5.2-3-3.7-3.1-5.9-7.9-2.1-4.8-2.1-12.4 0-8.2 1.1-12.3 1.1-4.2 3.6-7.6 2.8-3.8 6.6-5.9 3.9-2.1 8.3-2.1 4.1 0 7.5 1.7 3.4 1.7 6.6 5.3zm-.3 30.8V72.8q-1.7-2.8-4.7-4.6-2.9-1.9-6-2.3-.5-.1-1-.1-.5-.1-1-.1-3.2 0-5.9 1.6t-4.2 4.5q-.1.1-.2.3 0 .1-.1.2-1.1 2.4-1.6 5.1-.4 2.7-.4 7.4 0 8.2 1.4 11.5 1.4 3.3 3.3 5 1.6 1.5 3.5 2.2 2 .7 4.8.7 3.8 0 7-2t5.1-5.7zM444.145 97.2V60.6l7.7-1.5v35.8q0 3.7.6 5.4.6 1.7 2.3 2.8 1 .7 2.2 1.2 1.3.4 2.7.6.3.1.6.1h1.2q.3 0 .6-.1 3.4-.3 6.5-2.7 3.2-2.5 5.1-6.2V60.7l7.7-1.3v35.3q0 4.1.2 5.9.2 1.8.9 3.1v.2q.1 0 .1.1v.2q.1 0 .1.1.2.3.3.5.2.2.3.5.3.3.6.7.4.3.9.8l-5 5.3q-.9-.8-1.6-1.5-.7-.6-1.2-1.2-1.1-1.2-1.7-2.4-.6-1.3-.9-2.9-2.8 3.8-6.8 5.7-3.9 1.8-9 1.8-4.7 0-8.2-1.8-3.5-1.8-4.9-5.2-.7-1.4-1-3.3-.3-1.9-.3-4.1zM497.36 110V60.4l8.3-1.3V110h-8.3zm-1.9-65.1q0-2.6 1.8-4.4 1.8-1.8 4.3-1.8 2.6 0 4.3 1.8 1.8 1.7 1.8 4.3 0 2.5-1.8 4.3-1.7 1.8-4.3 1.8-2.5 0-4.3-1.7-1.8-1.8-1.8-4.3zM540.565 58.9q4.7 0 7.8 1.6 3.1 1.5 5.8 3.8l-4.3 5.4q-1.6-1.3-2.9-2.1-1.2-.8-2.3-1.2-1-.4-2.1-.5-1-.2-2.2-.2-2.9 0-5.5 1.5-2.5 1.5-3.9 4.1-1.4 2.6-2.1 6.7-.7 4.1-.7 9.6 0 8.4 3.1 12.9 3.2 4.4 9.2 4.4 3 0 5.7-1.4 2.8-1.4 5-4l4.3 5q-.3.4-.7.7-.3.3-.7.6-3.1 2.8-6.4 4-3.2 1.2-7.4 1.2-5.3 0-9.3-1.8-4-1.9-6.6-5.6-2.5-3.6-3.7-7.9-1.1-4.3-1.1-9.8 0-8.2 2.1-13.1 2.2-5 5.4-8.1 2.9-2.9 6.2-4.3 3.3-1.5 7.3-1.5zM564.134 42.2q-.1-.5-.2-.9t-.1-.7l-.1-.1q0-.3-.1-.6-.1-.4-.2-.9l7.8-1.9q.3 1 .5 1.7t.3 1.3q.1.2.1.5.1.2.1.4.1 1.1.2 2.7.2 1.5.3 3.2v2.4q.1 1.2.1 2.2V110h-7.8V53.2q0-1.1-.1-2.5 0-1.4-.1-2.9-.2-1.5-.4-2.9-.1-1.5-.3-2.7zm9 39.6l19-21.6h9.8l-19.6 21.6 24.1 28.2h-10.4l-22.9-28.2zM194.095 148.5l8.5-1.7q.3 1.2.5 2.3l.4 2.2q.2 1.7.3 3.6.1 1.9.1 4.3v11.1q0 1.9-.1 3.5 0 1.5-.1 2 1.5-1.4 2.9-2.5t2.7-1.9q2.1-1.2 4.2-1.7 2.1-.6 4.5-.6 8.9 0 14.1 6.8 5.2 6.8 5.2 18.5 0 12-5.5 19.4-5.4 7.3-14.3 7.3-.6 0-1.2-.1-.5 0-1.1-.1-3.4-.5-6.5-2.2-3.1-1.7-4.9-4.1 0 .2-.1.5v.4q-.1.8-.3 1.5l-.2 1.2q-.2.4-.4.9-.1.4-.4.9h-7.8q.8-1.8 1.1-4.6.4-2.8.4-7.8v-47.3q0-4-.5-6.9-.5-3-1.5-4.9zm13.2 30.8q-.9.7-1.4 1.1-.5.3-.8.7l-.2.2-.2.2q-.2.2-.4.5t-.5.7v25.6q1.7 2.3 4.6 3.9 3 1.6 6.1 2 .4.1.8.1h1.6q.5-.1.9-.1 2.2-.4 4.2-1.5 2-1.2 3.1-2.8 1.4-2 2.4-5.8 1.1-3.9 1.1-10.2 0-5-.7-8.1-.6-3.1-2.2-5.3-1.4-2-4-3.1-2.5-1.2-5.4-1.2-1.3 0-2.6.2-1.2.2-2.4.7-1 .4-2 1-1 .5-2 1.2zM251.864 182q0-3.3-.2-5.2-.2-2-.8-3.7-.1-.5-.4-1-.2-.5-.4-1.1l7.8-2.1.6 1.4q.3.6.5 1.2.3 1.1.4 2.2.2 1.1.2 2.6v.7q2.4-3.4 5.6-5.6 3.3-2.2 6.8-2.6h.8q.4-.1.8-.1H273.864q.4 0 .8.1t.7.1q.4.1.6.2l.3.1-3.2 8.5q-.4-.1-.7-.2-.3-.1-.5-.1-.2-.1-.5-.1h-.5q-2.2 0-4.4 1-2.2.9-3.9 2.6l-.8.8q-.3.4-.6.7-.9 1.2-1.2 2.6-.3 1.4-.3 3.8V220h-7.8v-38zM280.22 195.2q0-12.2 5.7-19.1 5.7-7 15.5-7 6.2 0 10.4 2.5t6.7 6.2q2.3 3.4 3.4 7.9 1.2 4.5 1.2 10.6 0 7.3-1.9 12.2-1.8 4.8-5.9 8.4-2.9 2.5-6.2 3.6-3.2 1.1-7.4 1.1-10 0-15.8-7-5.7-7.1-5.7-19.4zm31.7-13.3q-1.4-2.9-3.9-4.4-2.5-1.6-5.3-1.9-.3-.1-.7-.1h-.7q-3.3 0-6.1 1.5-2.7 1.5-4.1 3.9-1.2 2.3-1.8 5.5-.6 3.1-.6 7.5 0 5.2.8 9.6.9 4.4 2.3 6.7 1.4 2.2 4.1 3.6 2.8 1.4 6 1.4 3.9 0 6.7-1.9 2.8-2 4.1-5.6l.2-.6.2-.6q.6-2 .8-4.2.3-2.2.3-5.4 0-5.3-.6-8.9-.5-3.6-1.7-6.1zM343.93 220.4l-13.8-49.8 7.8-1.7 8 32.9q.8 3.4 1.3 5.9l.5 2.4h.3l.5-2.2q.5-2.3 1.2-5l9-33h8.3l8.8 33.4q.1.6.3 1.2.2.6.3 1.3.1.1.1.2t.1.2q.4 1.6.7 3 .4 1.3.5 1.4h.2q0-.1.2-1.2.3-1.2.6-2.6.2-.9.4-1.7.2-.9.3-1.4l7.9-33.4h8.2l-14.1 50.1h-7.4l-11.6-40.5h-.2l-.2.9q-.1.9-.4 2 0 .4-.1.8l-.2.6q0 .2-.1.4 0 .2-.1.4l-10 35.4h-7.3zM406.256 182.9q0-3.5-.1-5.3-.1-1.9-.6-3.4-.2-.7-.5-1.4-.3-.8-.7-1.7l7.6-2.1q.5 1 .8 1.9.3.8.5 1.7.3 1 .4 2 .1 1 .1 2.2 3.9-3.9 7.8-5.8t7.9-1.9q4.1 0 7.4 2 3.3 2 4.8 5.3.6 1.3.9 2.8.3 1.5.3 3V220h-7.9v-33.7q0-3.8-.3-5.3-.3-1.6-1.3-2.8h-.1q0-.1-.1-.2-.8-1-2.3-1.5-1.5-.6-3.2-.6-1.4 0-3.1.5-1.6.4-3.3 1.3-2.1.9-4 2.3t-3.4 2.9V220h-7.6v-37.1zM519.87 150.5l-2.9 5.5q-.1-.1-.2-.1-.1-.1-.3-.2-1.2-.6-2.8-1.2-1.6-.6-3.3-.8h-.8q-3.3 0-5.1 2.3-1.7 2.2-1.7 6.5v8.1h13.8l-2.4 5.9h-11.4V220h-8.2v-43.5h-4.8v-5.9h4.8v-8.2q0-4 1.1-6.5t2.5-4q.5-.5 1-.9.5-.5.9-.8 1.8-1.4 3.9-2 2.1-.6 4.9-.6 3.2 0 6 .8 2.8.7 5 2.1zM519.28 195.2q0-12.2 5.7-19.1 5.7-7 15.5-7 6.2 0 10.4 2.5t6.7 6.2q2.3 3.4 3.4 7.9 1.2 4.5 1.2 10.6 0 7.3-1.9 12.2-1.8 4.8-5.9 8.4-2.9 2.5-6.2 3.6-3.2 1.1-7.4 1.1-10 0-15.8-7-5.7-7.1-5.7-19.4zm31.7-13.3q-1.4-2.9-3.9-4.4-2.5-1.6-5.3-1.9-.3-.1-.7-.1h-.7q-3.3 0-6.1 1.5-2.7 1.5-4.1 3.9-1.2 2.3-1.8 5.5-.6 3.1-.6 7.5 0 5.2.8 9.6.9 4.4 2.3 6.7 1.4 2.2 4.1 3.6 2.8 1.4 6 1.4 3.9 0 6.7-1.9 2.8-2 4.1-5.6l.2-.6.2-.6q.6-2 .8-4.2.3-2.2.3-5.4 0-5.3-.6-8.9-.5-3.6-1.7-6.1zM585.878 192.4l-15.3-22h9.6l9.8 16.4 9.5-16.4h9.1l-14.7 22 19.1 27.6h-9.5l-13.5-21.2-13.5 21.2h-9.2l18.6-27.6zM171.98 328.3v-47.7l7.9-1.6v51q0 .6-.1 1.3 0 1.4-.1 2.7-.1 1.4-.2 2.3 0 .4-.1.8-.1.5-.2.9-.3.9-.6 1.7-.3.9-.8 1.7-1.5 2.9-3.9 4.9-2.3 2-5.6 3.4l-3.9-5.1q.9-.5 1.5-.8.6-.3 1-.6.3-.2.5-.4.2-.1.4-.3l.4-.4q.2-.1.4-.3 1.4-1.4 2-3.1.7-1.6 1-3.7.1-.9.2-1.7.1-.8.1-1.5.1-.8.1-1.6v-1.9zm-2.3-64.2q0-2.6 1.8-4.4 1.8-1.9 4.3-1.9 2.6 0 4.3 1.8 1.8 1.8 1.8 4.3t-1.8 4.4q-1.7 1.8-4.3 1.8-2.5 0-4.3-1.7-1.8-1.8-1.8-4.3zM196.78 317.2v-36.6l7.7-1.5v35.8q0 3.7.6 5.4.6 1.7 2.3 2.8 1 .7 2.2 1.2 1.3.4 2.7.6.3.1.6.1h1.2q.3 0 .6-.1 3.4-.3 6.5-2.7 3.2-2.5 5.1-6.2v-35.3l7.7-1.3v35.3q0 4.1.2 5.9.2 1.8.9 3.1v.2q.1 0 .1.1v.2q.1 0 .1.1.2.3.3.5.2.2.3.5.3.3.6.7.4.3.9.8l-5 5.3q-.9-.8-1.6-1.5-.7-.6-1.2-1.2-1.1-1.2-1.7-2.4-.6-1.3-.9-2.9-2.8 3.8-6.8 5.7-3.9 1.8-9 1.8-4.7 0-8.2-1.8-3.5-1.8-4.9-5.2-.7-1.4-1-3.3-.3-1.9-.3-4.1zM250.197 292.9q0-3.4-.1-5.2-.1-1.9-.5-3.4-.2-.8-.5-1.6-.3-.9-.7-1.9l7.6-1.8q.4.8.7 1.8.4.9.6 1.9.2.9.3 1.8.2.8.2 1.5v.4q.7-.8 1.3-1.3.6-.6 1.1-1 .3-.3.6-.5l.6-.4q.5-.4 1.1-.7.6-.4 1.4-.9 1.9-1.1 3.5-1.7 1.6-.7 3.1-.9h.9q.5-.1.9-.1 2.9 0 5.6 1.4 2.7 1.3 4.3 3.6l.2.4.3.3q.1.3.2.5.2.2.3.5.2.3.3.7.2.4.4.9 2-2.2 4.3-3.8 2.3-1.7 4.7-2.8 1.8-.8 3.5-1.2 1.8-.5 3.5-.5 5.6 0 9 3.8 3.5 3.8 3.5 9.7V330h-8v-36.8q0-3.6-1.6-5.4-1.6-1.9-4.8-1.9-.7 0-1.5.1-.7.1-1.4.4-1.2.3-2.3.9-1.1.5-2.1 1.3-1.1.8-2.4 1.9-1.2 1-2.6 2.3l-.9.8V330h-7.9v-35.4q0-2.7-.2-3.8-.1-1.1-.7-2l-.2-.2q-.1-.2-.3-.4-.9-1.1-2.2-1.5-1.2-.5-2.9-.5h-.7q-2.7.2-5.5 1.8-2.8 1.5-6.5 4.8V330h-7.5v-37.1zM328.712 292.3q0-4.1-.3-7.1-.3-3.1-.9-4.9l8.1-1.4q.2 1.1.3 2.7.2 1.6.2 3.6v1.3q3.1-3.6 6.8-5.4 3.8-1.9 7.9-1.9 3.8 0 7.3 1.7 3.5 1.6 6 4.5 2.8 3.4 4.1 8.2 1.4 4.7 1.4 11.4 0 6-1 9.9-.9 3.8-3 7.3-2.7 4.3-6.6 6.7-3.9 2.3-8.8 2.3-3.8 0-7.5-1.5-3.6-1.5-6.2-4.2v23.7l-7.8 1.6v-58.5zm7.8.9v25.1q2.4 2.7 5 4.3 2.7 1.6 5.4 2.1.4 0 .9.1h.9q3.5 0 6.3-1.7 2.9-1.7 4.2-4.5 1.1-2.4 1.6-5.4.5-3 .5-7.2 0-4.5-.6-8.3-.6-3.8-1.7-6-1.2-2.6-3.7-4-2.5-1.5-5.5-1.5-3.7 0-7.1 1.8-3.3 1.7-6.2 5.2zM398.28 278.2q1.1 0 2.1.1l2.2.2q3 .5 5.8 1.5 2.8.9 5.1 2.2l-2.9 5.8q-1.6-.8-3.2-1.4-1.5-.7-3-1.2-1.6-.5-3.1-.7-1.5-.3-3.2-.3-4.3 0-6.9 2.3-2.5 2.2-2.5 5.9 0 1.3.3 2.5.4 1.1 1.1 1.9.8 1 2.2 1.7 1.4.6 3.6 1.1l6.6 1.4q6.8 1.5 10 4.9 3.3 3.4 3.3 9 0 7.3-5.2 11.8-5.2 4.4-13.6 4.4-1.2 0-2.4-.1l-2.4-.2q-3.6-.6-7.1-1.7-3.5-1.2-6.4-2.9l3-5.8q3.8 2.3 7.7 3.5 4 1.2 8.1 1.2 4.6 0 7.3-2.3 2.8-2.3 2.8-6.3 0-3.4-2-5.3-1.9-2-6.2-2.9l-6.2-1.3q-3.4-.8-5.6-1.9-2.1-1.2-3.8-3.1-1.6-1.8-2.4-4-.8-2.2-.8-4.7 0-6.8 4.9-11 5-4.3 12.8-4.3zM459.71 305.2q0-12.2 5.7-19.1 5.7-7 15.5-7 6.2 0 10.4 2.5t6.7 6.2q2.3 3.4 3.4 7.9 1.2 4.5 1.2 10.6 0 7.3-1.9 12.2-1.8 4.8-5.9 8.4-2.9 2.5-6.2 3.6-3.2 1.1-7.4 1.1-10 0-15.8-7-5.7-7.1-5.7-19.4zm31.7-13.3q-1.4-2.9-3.9-4.4-2.5-1.6-5.3-1.9-.3-.1-.7-.1h-.7q-3.3 0-6.1 1.5-2.7 1.5-4.1 3.9-1.2 2.3-1.8 5.5-.6 3.1-.6 7.5 0 5.2.8 9.6.9 4.4 2.3 6.7 1.4 2.2 4.1 3.6 2.8 1.4 6 1.4 3.9 0 6.7-1.9 2.8-2 4.1-5.6l.2-.6.2-.6q.6-2 .8-4.2.3-2.2.3-5.4 0-5.3-.6-8.9-.5-3.6-1.7-6.1zM526.93 330.5l-17.9-49.9 8-1.7 11.6 34.3q.8 2.4 1.4 4.6.6 2.2 1 3.9h.2q.2-.8.3-1.5.2-.8.4-1.5.3-1.2.7-2.5.4-1.3 1-2.9l11.3-32.9 8.3-.1-18.6 50.2h-7.7zM583.288 324.6q3.6 0 6.6-1.1 3-1.2 5.6-3.6l3 5q-3.3 3-7.7 4.6-4.3 1.5-9.1 1.5-10.3 0-16.2-7-5.9-7-5.9-19.4 0-6.3 1.4-10.7 1.4-4.4 4.6-8.1 3-3.5 6.7-5.2 3.7-1.8 8.2-1.8 4.1 0 7.5 1.4 3.5 1.4 6 4.1 3.2 3.3 4.4 7.7 1.2 4.4 1.3 13.3v1.1h-31.1v1.2q0 3.5.5 6.2t1.8 4.7q2.1 3.2 5.4 4.7 3.3 1.4 7 1.4zm-3.2-39.6q-5.3 0-8.3 3.9-2.9 3.9-3.2 11.6h22.8q-.1-4.1-.7-6.7-.5-2.6-1.6-4.4-1.3-2-3.7-3.2-2.4-1.2-5.3-1.2zM613.388 292q0-3.3-.2-5.2-.2-2-.8-3.7-.1-.5-.4-1-.2-.5-.4-1.1l7.8-2.1.6 1.4q.3.6.5 1.2.3 1.1.4 2.2.2 1.1.2 2.6v.7q2.4-3.4 5.6-5.6 3.3-2.2 6.8-2.6h.8q.4-.1.8-.1H635.387q.4 0 .8.1t.7.1q.4.1.6.2l.3.1-3.2 8.5q-.4-.1-.7-.2-.3-.1-.5-.1-.2-.1-.5-.1h-.5q-2.2 0-4.4 1-2.2.9-3.9 2.6l-.8.8q-.3.4-.6.7-.9 1.2-1.2 2.6-.3 1.4-.3 3.8V330h-7.8v-38zM139.463 390.1h12.6l-2.4 6.1h-10.5v32q0 4.1 1.3 5.8 1.4 1.6 5.1 1.6 1.7 0 2.8-.2 1.2-.3 2.2-.8l1.1 5q-1.9.9-4.1 1.4-2.1.5-4.7.5-1.9 0-3.5-.4-1.6-.3-3-1-2.6-1.2-3.7-3.6-1.1-2.5-1.1-6.2v-34.1h-6.5v-6.1h6.5v-.6q0-1.9.1-4.2.2-2.4.6-6.2l.1-1.3 8.1-1.8-.2 1.3q-.1 1.2-.3 3.3-.1 1.6-.3 3.5-.1 1.9-.2 3.9v2.1zM162.49 378.6q0-2-.1-3.4-.1-1.5-.3-2.8l-.4-1.8q-.2-.9-.5-1.9l7.8-1.5v.3q.1.1.1.2.6 2.4.9 4.9.3 2.5.3 6.1v11.6q0 1.4-.1 3.1 0 1.7-.2 3.7.6-.6 1.1-1 .5-.5 1-.9l.4-.2.4-.4q.4-.3.9-.6l1.2-.8q2-1.3 3.8-2.2 1.9-.9 3.7-1.3 1-.3 2-.4 1-.1 2.1-.1 4.5 0 8.1 2.2 3.6 2.2 4.7 5.7.1.2.1.5.1.2.2.5.3 1.2.4 2.6.1 1.3.1 3.6V440h-7.7v-34.4q0-2.8-.5-4.5-.4-1.8-1.4-2.9-.9-.9-2.4-1.4-1.5-.6-3.4-.6-1.3 0-2.6.3t-2.6.8q-2.5 1-4.9 2.9-2.3 1.8-4.4 4.4V440h-7.8v-61.4zM236.705 434.6q3.6 0 6.6-1.1 3-1.2 5.6-3.6l3 5q-3.3 3-7.7 4.6-4.3 1.5-9.1 1.5-10.3 0-16.2-7-5.9-7-5.9-19.4 0-6.3 1.4-10.7 1.4-4.4 4.6-8.1 3-3.5 6.7-5.2 3.7-1.8 8.2-1.8 4.1 0 7.5 1.4 3.5 1.4 6 4.1 3.2 3.3 4.4 7.7 1.2 4.4 1.3 13.3v1.1h-31.1v1.2q0 3.5.5 6.2t1.8 4.7q2.1 3.2 5.4 4.7 3.3 1.4 7 1.4zm-3.2-39.6q-5.3 0-8.3 3.9-2.9 3.9-3.2 11.6h22.8q-.1-4.1-.7-6.7-.5-2.6-1.6-4.4-1.3-2-3.7-3.2-2.4-1.2-5.3-1.2zM300.004 382.7q0-4.9-.2-7.5-.2-2.7-.8-5l-.2-.6q-.1-.4-.2-.7l8.1-1.6q.9 2.7 1 6.4.2 3.6.2 7.8V430q0 2.9.6 4 .6 1 2.2 1h.2q.1 0 .2-.1h.5l.1-.1 1.6 5.1q-.7.2-1.3.4-.5.2-1.1.4-.5.1-1.2.1-.6.1-1.4.1-1.9 0-3.4-.5-1.4-.5-2.5-1.5-1.3-1.2-1.9-2.8-.5-1.6-.5-4.3v-49.1zM326.31 401.2l-3.9-5.6q5-3.3 10.2-5 5.3-1.7 10.7-1.7 5.2 0 8.7 2 3.5 2 5.1 5.8.1.2.2.5l.2.4q.4 1.4.5 3.1.2 1.6.2 4.5v2.5l-.4 16.4q-.1.5-.1 1.1v1.2q0 4.6.8 6.7.9 2 3.3 3.2l-4 5.6q-2.5-.9-4.3-2.8-1.8-1.9-2.5-4.5-1.2 1.2-2.4 2.2-1.1.9-2.2 1.7-2.2 1.5-4.6 2.1-2.3.6-5.2.6-4.7 0-7.4-1.1-2.6-1-4.6-2.8-1.3-1.2-2.1-2.7-.8-1.6-1.3-3.3-.3-1.1-.5-2.1-.1-1.1-.1-2.1 0-8.5 6.9-13.2 7-4.7 19.5-4.7h1.1q.5 0 1 .1h1.4v-3.5q0-3.3-.3-4.9-.2-1.7-1.3-2.9-1.2-1.4-2.8-2-1.6-.7-3.9-.7-2.2 0-4.5.5t-5.1 1.7q-.7.3-1.3.6l-1 .4q-.5.3-.9.5t-.8.5q-.5.3-1.1.8-.5.4-1.2.9zm23.7 26.5l.3-13h-1.4l-1-.2h-1.5q-5.7 0-9.1 1-3.3 1-5.2 3-1.4 1.5-2.1 3.4-.7 1.9-.7 4.5 0 4.4 2.1 6.8 2.2 2.3 6.5 2.3 3.8 0 7.1-2.1 3.3-2.2 5-5.7zM371.51 396.5v-6.2h33.2v6.4l-25.9 37.3h27.5l-3.7 6h-33.2v-6l27.1-37.5h-25zM421.577 422.5l-10.7-31.2 7.7-2.6 10.2 32.3.2.8q.2.4.3.9.2.6.3 1.3l.4 1.4q.7 3 1.2 5.5l.6 2.5h.2l.6-2.1q.7-2.2 1.4-4.8l.6-1.8q.3-1 .5-1.8l9.8-32.6h8.9l-17.1 51.5q-.2.4-.4.9l-.4 1.2q-1.3 3.5-3.1 6.8t-4 5.4q-1.3 1.2-3.2 2.2-1.8 1.1-3.7 1.7-.3.1-.7.2l-.6.2-2.3-5.2q.7-.2 1.5-.6.8-.3 1.6-.8 1.1-.6 2.1-1.5 1-.8 1.8-1.7 1.3-1.6 2.4-4.3 1.1-2.6 2.1-6.4l-3.2.5q-.3-1.4-1-4.1-.7-2.8-1.6-5.9-.1-.5-.3-1l-.2-1q-.5-1.6-1-3.1-.5-1.6-.9-2.8zM528.265 367l7.8 1.3v55.6q0 3.8.1 7.1.2 3.3.4 5 .1.4.1.7.1.3.1.6.1.2.1.4.1.2.1.4.1.4.2.9.2.4.4 1h-8q-.2-.6-.4-1-.1-.5-.2-.9t-.2-.7q0-.4-.1-.9 0-.4-.1-.7 0-.4-.1-.9-.6.7-1.1 1.2-.4.4-.9.8-.2.3-.5.5-.2.2-.5.4-.1 0-.2.1-.1 0-.2.1-1.9 1.3-4.4 2-2.5.6-5.4.6-9.7 0-15-6.6-5.3-6.6-5.3-18.5 0-8 2.6-13.8 2.6-5.8 7.7-9.3.8-.6 1.5-1 .8-.5 1.6-.8 1.5-.7 3.1-1 1.6-.4 3.4-.4 4.2 0 7.7 1.7 3.6 1.7 5.8 4.7v-.7-1.8q-.1-.9-.1-1.9v-2.1-.6V367zm-.1 60.3v-26.4q-1.9-2.6-4.8-3.9-2.9-1.3-7.3-1.3-2.9 0-5.3 1.3t-4 3.9l-.2.4-.2.2q-1.6 2.7-2.2 5.8-.6 3-.6 8 0 6.4.8 9.8.9 3.4 3.1 5.8 1.7 1.8 3.5 2.5t4.6.7q2.2 0 3.8-.3 1.7-.4 3.2-1.2.6-.3 1.2-.7l1.4-1q.3-.2.5-.4.3-.3.6-.5.8-.8 1.2-1.5.5-.7.7-1.2zM550.434 415.2q0-12.2 5.7-19.1 5.7-7 15.5-7 6.2 0 10.4 2.5t6.7 6.2q2.3 3.4 3.4 7.9 1.2 4.5 1.2 10.6 0 7.3-1.9 12.2-1.8 4.8-5.9 8.4-2.9 2.5-6.2 3.6-3.2 1.1-7.4 1.1-10 0-15.8-7-5.7-7.1-5.7-19.4zm31.7-13.3q-1.4-2.9-3.9-4.4-2.5-1.6-5.3-1.9-.3-.1-.7-.1h-.7q-3.3 0-6.1 1.5-2.7 1.5-4.1 3.9-1.2 2.3-1.8 5.5-.6 3.1-.6 7.5 0 5.2.8 9.6.9 4.4 2.3 6.7 1.4 2.2 4.1 3.6 2.8 1.4 6 1.4 3.9 0 6.7-1.9 2.8-2 4.1-5.6l.2-.6.2-.6q.6-2 .8-4.2.3-2.2.3-5.4 0-5.3-.6-8.9-.5-3.6-1.7-6.1zM639.216 392q1.1 0 2.1-.1 1-.2 2-.6l1.4-.6q.7-.4 1.4-.9l4.8 4.8q-1.2.9-2.3 1.5-1.1.6-2.2.9-.9.3-1.9.5-.9.1-2 .1h-1.3l-.8-.2q-.3 0-.6-.1t-.7-.3q1.5 1.9 2.2 4 .8 2.1.8 4.5 0 .5-.1 1v1.1q-.4 2.9-1.9 5.7-1.4 2.8-3.4 4.5-1.4 1.3-3.4 2.2-2 .8-4.2 1.2-.6.1-1.3.2H625.416l-1.1.4q-4 1.5-6 2.8-1.9 1.3-1.9 2.6 0 1.1 1 1.8 1.1.6 3 .6h8q4.4 0 7.1.6 2.7.6 4.9 2.2 2.9 2 4.2 4.7 1.3 2.6 1.3 5.7 0 4.7-2 8.1-2 3.5-5.6 5.2-2.6 1.3-5.5 1.8-2.9.6-6.7.6-7 0-11.4-1.3t-6.8-3.6q-1.7-1.6-2.6-3.6-.8-1.9-.8-4.2v-1q.1-.5.1-.9.1-.8.3-1.7.3-.8.6-1.7l8.2-.6-.4.8q-.2.3-.4.8t-.3 1q-.2.4-.3.9v.9q0 2 .8 3.5t2.1 2.3q1.8 1.1 4.4 1.7 2.7.6 5.7.6 4.2 0 6.8-.9 2.6-.9 3.9-2.9.8-1 1.1-2.2.3-1.1.3-2.7 0-2-.7-3.5-.6-1.5-2-2.4-1.4-1-3.8-1.4-2.3-.5-6-.5-.7 0-1.7.1H620.916q-1.1 0-2.1.1h-1.6q-4.4 0-6.9-1.9t-2.5-5.3q0-3 1.9-4.9 1.9-1.9 6.5-3.4l.6-.2q-5-1.6-8.1-5.5-3.1-4-3.1-8.9 0-7.5 5.1-12.1 5.1-4.7 13.3-4.7h.8q.5 0 .9.1 1.5.1 2.9.4 1.4.2 2.6.6l3.4 1.1q.9.3 2.1.5 1.2.1 2.5.1zm-6.2 13.6q0-5.1-2.1-7.4-2.1-2.4-7.1-2.4-4.6 0-7 2.5-2.4 2.4-2.4 7.6 0 4.8 2.4 7.3 2.5 2.4 7.2 2.4 4.5 0 6.7-2.5 2.3-2.5 2.3-7.5zM657.674 434.4q0-2.8 1.9-4.7 1.9-1.9 4.7-1.9 2.9 0 4.8 1.9 2 1.9 2 4.7 0 2.8-2 4.8-1.9 2-4.6 2-2.8 0-4.8-2t-2-4.8z"/></g></svg>