<svg xmlns="http://www.w3.org/2000/svg" viewBox="0 0 1600 1000" height="1000" width="1600"><path fill="#fff" d="M0 0h1600v1000H0z"/><g font-weight="400" font-size="200" font-family="Minion Pro" letter-spacing="-.03em" text-anchor="middle" fill="#222"><path d="M644.04 220h-42.4v-5.2q9-1 11-3.4 2.2-2.6 2.2-12.2v-32.8q0-24.8-19.8-24.8-12.2 0-20.6 10.6v47q0 9.6 2 12.2 2.2 2.6 11.2 3.4v5.2h-43v-5.2q9.6-.8 11.8-3.2 2.2-2.6 2.2-12.6V98.4q-12.8-1.4-39-1.4h-14.2v98q0 12.6 3 15.8 3.2 3 17 3.8v5.4h-56.4v-5.4q13.4-1 16.4-4 3-3 3-15.6V97h-12.6q-12.8 0-17.4 1.4-4.6 1.4-6.8 5.2-3.4 5.4-6.6 17.6h-5.8q1.8-22.4 2.4-36.2h3.8q2 3.2 4.2 4.2 2.4.8 6.8.8h83.2q12 0 15.4-1 3.6-1 3.6-4.2v-3q5-.8 15.8-4.6v67.4q13.8-14.2 28-14.4 13-.4 20.6 8.2 7.6 8.6 7.6 25.8v35q0 10 2.2 12.4 2.2 2.4 11.2 3.2zM710.922 198.8l3 4.4q-8.4 10.4-17.4 14.8-9 4.4-15.2 4.4-17.8 0-28.4-12.4-10.6-12.4-10.6-30.2 0-20.6 13.2-35 13.4-14.6 29.2-14.6h.2q12.2 0 21 9.4 9 9.2 9 21 0 3.2-1 4.6-.8 1.2-3.6 1.8-10.8 2-52.4 3.4.2 19 9.2 28.8 9 9.6 20.8 9.6 12.2 0 23-10zm-31-61.2q-7 0-13 6.6-5.8 6.4-8 18 16.6 0 34-.6 2.8 0 3.8-.8 1-1 1-3.2.2-8.2-4.8-14-4.8-6-13-6zM856.39 268h-48.2v-5.4q11.8-.8 14.4-3.4 2.6-2.6 2.6-13.2v-32l-21.2 8.4q-20.2 0-31.6-12.8-11.4-13-11.4-29 0-21.2 16.2-35.8 16.2-14.8 37.4-14.6 9.6 1 13.8 2.8 3.6 1 5.4.8 2.6 0 7-2.2l.8.6q-.6 12.6-.6 21.4v92.8q0 10.4 2.4 12.8 2.4 2.4 13 3.4zm-31.2-60v-61.2q-3.4-3.8-9-6-5.4-2.4-10.4-2.4-11 0-19 9.4-7.8 9.4-7.8 26.2 0 17 9.6 27.2 9.6 10 21.8 10 8 0 14.8-3.2zM951.38 210v5.2q-6.4.8-15.4 3.2-2.6.8-7.4 2.2-4.8 1.4-6.6 1.8l-1.2-1.2V207q-11.2 8.4-14.8 10.4-8.6 5-15.4 5-11 0-18-7.2-6.8-7.4-6.8-22.6v-39.2q0-7.6-1.4-9.6-1.2-2.2-5.2-3.2l-5.6-1.2v-4.6q3.8-.2 14.4-1.4 11.8-1.8 14.2-2.2-.6 6.2-.6 29v27q0 22.6 17.6 22.6 11.8 0 21.6-9.6v-46.8q0-7.6-1.6-9.8-1.6-2.2-6.8-3l-7.2-1.2v-4.6q8.8-.4 18-1.6 7.4-.8 13.4-2V198q0 7.4 1.6 9.4 1.8 2 7.8 2.4zM975.03 112.8q-4 0-7-3-3-3.2-3-7.2 0-4.4 3-7.4t7.2-3q4.2 0 7 3 3 3 3 7.4 0 4.2-3 7.2t-7.2 3zm23.4 107.2h-44v-5.2q9.6-1 11.8-3.4 2.2-2.4 2.2-12.6v-41.2q0-9.4-1.8-11.6-1.8-2.2-10.8-3.6v-4.8q15.6-2.4 28.4-7.8v69q0 10.2 2.2 12.6 2.4 2.4 12 3.4zM1073.547 197.8l3.4 4.2q-6.8 9-16 14.8-9.2 5.6-17.8 5.6-18.2 0-29.2-12.4t-11-29.4q0-23.6 20.2-39 14.8-11.4 29.8-11.4h.2q11.8 0 18 5.4 3.2 2.8 3.2 6 0 3-2.4 5.8t-4.2 2.8q-1.6 0-3.8-2.2-8.8-8.2-20.2-8.2-10.4 0-17.6 8.6-7 8.4-7 23.4 0 9.8 3 17.4 3 7.6 7.8 11.6t9.8 6q5 2 9.6 2 6.6 0 12-2.4 5.6-2.4 12.2-8.6z"/><path d="M1175.74 220l-27.4.4q-3.2-3.6-32.8-39.6-3.8-4.4-6.2-4.4-1.4 0-3.2.6v22.2q0 9.8 2.2 12.2 2.4 2.4 12.2 3.4v5.2h-44.6v-5.2q10-.8 12.2-3.4 2.4-2.6 2.4-12.2v-94.4q0-10-2-12.2-2-2.4-11.2-3.2v-4.8q11.4-1.2 28.8-7v94.2q7.4-1.4 12.6-7 6.2-6.2 14.2-17.6 3.2-4.6 2-6.2-1-1.8-8-2.6v-5.2l40.8-1.8v5q-10.2 1.6-15 4-4.8 2.2-10.8 7.8-6.2 6.2-17.2 19 2.6 4.2 14 17.6 11.4 13.2 17 19 9.6 10.4 20 11zM450.955 359.2l16.2-7q4.6-2 8.2-2 16.2 0 27.8 12.4 11.6 12.2 11.6 29.8 0 21.4-15 35.8-14.8 14.2-35.2 14.2-14.2 0-29.4-7.2v-111q0-9.6-2-11.8-1.8-2.4-11.2-3.2v-4.6q15.8-2 29-7zm0 6v51.6q0 4 1.2 7 1.4 3.8 6 7.4 4.6 3.6 11.6 3.6 12.6 0 19.8-10 7.4-10 7.4-27.4 0-16.4-8.8-26.2-8.6-9.8-21.6-9.8-8.8 0-15.6 3.8zM549.973 371.6h.4q12.6-21.4 24.2-21.4 4.8 0 8.2 3.2 3.4 3.2 3.4 6.8 0 6.8-6.4 9.8-3.4 1.4-5.2-.4-4.2-4-8.6-4-4 0-8.4 4.4t-7.6 12.6v36.6q0 10 2.4 12.4 2.6 2.4 14 3.2v5.2h-46v-5.2q9.4-1 11.6-3.4 2.2-2.4 2.2-12.2v-41.4q0-9.8-1.8-12-1.8-2.4-10.6-3.4v-4.6q14.8-2.4 28.2-8zM630.658 350.2q18.4 0 30.8 13 12.4 13 12.4 31.6 0 22.4-13.4 35-13.4 12.6-30 12.6-19.6 0-31.8-13.2-12-13.4-12-31 0-11.8 4.2-21.2 4.2-9.6 10.8-15.2 6.8-5.6 14.2-8.6 7.6-3 14.8-3zm-2.6 6.6q-9.6 0-16.2 9.4t-6.6 25.6q0 19.2 7.6 31.6 7.6 12.4 19.8 12.4 10.2 0 16.4-8.6 6.2-8.8 6.2-28 0-18.2-7.2-30.2-7.2-12.2-20-12.2zM811.286 352.6v5.2q-7.4 1-10.2 3.8-2.6 2.6-5.6 11-7.2 19.2-24 69.6h-5.8q-4.8-12.8-14-35.6-9-23-10.4-26.6-2.6 6.8-11 28.2-8.2 21.4-12.8 34h-5.6q-14.2-45.8-23.2-71.4-2.6-7.8-5.2-9.8-2.4-2.2-9.6-3.2v-5.2h41.4v5.2q-9 1.4-10.8 3.4-1.6 2 .6 8.8l14.8 46.4h.4l23.2-62.8h5.2q7.8 22.2 24 63.6h.4q10-31.2 13.8-46.2 2-7.6 0-9.6-1.8-2.2-11.6-3.6v-5.2zM908.777 440h-41.8v-5.2q8.8-1 11-3.6 2.2-2.6 2.2-13v-33.4q0-22.8-18.2-22.8-10 0-21.8 10.2v47q0 10 2 12.4 2 2.2 11 3.2v5.2h-43.4v-5.2q10.2-1 12.4-3.4 2.2-2.4 2.2-12.2V378q0-9.4-2-11.6-1.8-2.4-10-4v-4.6q16.4-3 27.8-8v15.8q4.2-3 13.4-9.4 9.4-6 16.6-6 12 0 18.8 8 7 8 7 22.4v38.6q0 10 2 12.4 2 2.2 10.8 3.2zM957.464 352.6h9.4v-4.2q0-9.6 2.2-16.6 4.6-14.4 15.4-23.6 11-9.2 22-10.6 10.6.6 15.8 6.8 2.6 3.2 1 7-1 2.6-3.8 4.8-2.8 2.2-5.4-.6-7.4-7.4-16.2-7.4-6.8 0-10.6 5.8-4.8 7.4-4.6 30.6v8h23.6q1 1.4.2 4.2-.6 2.8-2.2 3.8h-21.6V418q0 11 2.6 13.4 2.6 2.4 14.6 3.6v5h-47.2v-5.2q9.8-1 12-3.2 2.2-2.4 2.2-12.2v-58.8h-14l-.8-2.2z"/><path d="M1049.486 350.2q18.4 0 30.8 13 12.4 13 12.4 31.6 0 22.4-13.4 35-13.4 12.6-30 12.6-19.6 0-31.8-13.2-12-13.4-12-31 0-11.8 4.2-21.2 4.2-9.6 10.8-15.2 6.8-5.6 14.2-8.6 7.6-3 14.8-3zm-2.6 6.6q-9.6 0-16.2 9.4t-6.6 25.6q0 19.2 7.6 31.6 7.6 12.4 19.8 12.4 10.2 0 16.4-8.6 6.2-8.8 6.2-28 0-18.2-7.2-30.2-7.2-12.2-20-12.2z"/><path d="M1185.714 440h-42.8v-5.2q6.4-.8 7.8-2.4 1.4-1.6-1-5.6l-14.8-23.4q-7.8 11.6-12.8 21.2-3.2 5-2 7 1.2 2 8.8 3.2v5.2h-37.2v-5.2q9.2-1.2 12.8-3.4 3.6-2.2 9.6-9.8 6-7.4 17-24l-17.4-27.2q-4.6-7.2-8-9.4-3.4-2.2-11.6-3.2v-5.2h39.8v5.2q-6.2.8-7.4 2.6-1 1.6 2 5.8l11.8 18.6q7.4-11 11.6-18.8 2.6-4.6 1.4-6-1.2-1.4-8-2.2v-5.2h36.6v5.2q-9.4 1-13 2.8-3.6 1.6-9 7.8-4.8 5.8-15.6 22l19.4 29.6q5.6 8.6 9.2 11.2 3.8 2.4 12.8 3.6zM413.055 552.8q-4 0-7-3-3-3.2-3-7.2 0-4.4 3-7.4t7.2-3q4 0 6.8 3 3 3 3 7.4 0 4.2-3 7.2-2.8 3-7 3zm-20.2 29.4v-4.6q16.8-2.6 29.2-7.8v68q0 19.4-4.6 32.2-4.6 13.2-12 24-7.4 11-12.2 15.2-3.2 2.2-5.2 2.2-2.2 0-4.6-2.8-2.6-2.6-2.6-6 0-3.8 4.2-4.6 10.8-2.6 14.6-7.6 3.2-4 5-14.4 1.6-11.4 1.6-38.6v-39q0-10.2-2-12.4-2-2.4-11.4-3.8zM532.873 650v5.2q-6.4.8-15.4 3.2-2.6.8-7.4 2.2-4.8 1.4-6.6 1.8l-1.2-1.2V647q-11.2 8.4-14.8 10.4-8.6 5-15.4 5-11 0-18-7.2-6.8-7.4-6.8-22.6v-39.2q0-7.6-1.4-9.6-1.2-2.2-5.2-3.2l-5.6-1.2v-4.6q3.8-.2 14.4-1.4 11.8-1.8 14.2-2.2-.6 6.2-.6 29v27q0 22.6 17.6 22.6 11.8 0 21.6-9.6v-46.8q0-7.6-1.6-9.8-1.6-2.2-6.8-3l-7.2-1.2v-4.6q8.8-.4 18-1.6 7.4-.8 13.4-2V638q0 7.4 1.6 9.4 1.8 2 7.8 2.4zM688.923 660h-42.8v-5.2q9.2-1 11.6-3.4 2.4-2.6 2.4-12.8v-33.4q0-23.2-17.6-23.2-9.6 0-22.4 10.4.6 3.6.6 8.4v39q0 9.2 2.2 11.6 2.2 2.4 10.6 3.4v5.2h-42.8v-5.2q9.6-1 11.8-3.4 2.4-2.4 2.4-12V605q0-23-17.6-23-9.4 0-21.8 10.4v47q0 9.4 2 12 2 2.4 9.6 3.4v5.2h-42.2v-5.2q10-1 12.4-3.4 2.6-2.4 2.6-12V598q0-9.6-1.8-11.8-1.8-2.4-10.4-3.8v-4.6q15.8-2.8 27.8-8.2v16.2q.6-.4 5.8-4 5.2-3.8 8.8-6 9-5.6 16.2-5.6 7.2 0 13.2 4.4 6 4.4 9.2 12.2 5-4 16.6-11.4 7.8-5.2 15.2-5.2 11.8 0 18.6 8 6.8 8 6.8 22.6v38.6q0 9.8 2 12.2 2.2 2.2 11 3.2z"/><path d="M717.09 584l18.4-10.6q5.2-3.2 9.8-3.2 16 0 25.6 11.2 9.8 11.2 9.8 26.6 0 21.6-14.6 36.2-14.4 14.4-35.2 18.2-7.6-.2-13.8-3.6V685q0 11.4 2.6 14 2.6 2.6 14.2 3.6v5.4h-47.2v-5.4q9.8-1 12.2-3.4 2.4-2.4 2.4-12.2v-90.4q0-9.6-2-11.6-1.8-2.2-11.2-3.4v-4.8q13.2-2.2 29-8.6zm0 6.8v54q7.4 7.8 18.8 7.8 12.6 0 20.2-10 7.8-10 7.8-26.8 0-15.6-7.8-24.6-7.6-9-19-9-9 0-20 8.6zM845.777 595l-5 1.4q-6.6-19.8-20.6-19.8-5.8 0-9.4 4-3.6 3.8-3.6 9.8 0 6 4.4 10 4.4 3.8 12.4 7.2 12.6 5.2 19 11.4t6.4 15.8q0 12.8-10 20.2-10 7.4-23 7.4-7 0-13.6-2.2-6.4-2-9.2-4.6-1-2.2-2.2-10.2-1.2-8-1.2-13.4l5.4-1q2.8 10.6 9.2 17.8 6.6 7 15.2 7 5.8 0 10-3.8 4.2-4 4.2-10.2 0-6.2-4-10.2-3.8-4.2-11.8-8-5.6-2.4-9.2-4.4-3.6-2.2-7.8-5.4-4-3.4-6-7.8t-2-9.8q0-10.8 8.4-18.4 8.6-7.6 22-7.6 9.6 0 17.6 3.6 1.2 3 2.6 10.2 1.4 7 1.8 11zM940.127 570.2q18.4 0 30.8 13 12.4 13 12.4 31.6 0 22.4-13.4 35-13.4 12.6-30 12.6-19.6 0-31.8-13.2-12-13.4-12-31 0-11.8 4.2-21.2 4.2-9.6 10.8-15.2 6.8-5.6 14.2-8.6 7.6-3 14.8-3zm-2.6 6.6q-9.6 0-16.2 9.4t-6.6 25.6q0 19.2 7.6 31.6 7.6 12.4 19.8 12.4 10.2 0 16.4-8.6 6.2-8.8 6.2-28 0-18.2-7.2-30.2-7.2-12.2-20-12.2zM1077.155 572.6v5.2q-7.8 1-10.6 3.6-2.8 2.4-7 11.4-13.6 29.8-28.4 69.4h-5.6q-9.4-25.6-27.6-70-3.4-8.6-6.2-10.8-2.6-2.4-10.6-3.6v-5.2h41v5.2q-8 .8-9.4 3-1.2 2 1.4 8.4 8.2 23 19 49.4 8.6-20.2 17.8-47.6 2.4-7.2.6-9.6-1.6-2.6-10-3.6v-5.2zM1142.57 638.8l3 4.4q-8.4 10.4-17.4 14.8-9 4.4-15.2 4.4-17.8 0-28.4-12.4-10.6-12.4-10.6-30.2 0-20.6 13.2-35 13.4-14.6 29.2-14.6h.2q12.2 0 21 9.4 9 9.2 9 21 0 3.2-1 4.6-.8 1.2-3.6 1.8-10.8 2-52.4 3.4.2 19 9.2 28.8 9 9.6 20.8 9.6 12.2 0 23-10zm-31-61.2q-7 0-13 6.6-5.8 6.4-8 18 16.6 0 34-.6 2.8 0 3.8-.8 1-1 1-3.2.2-8.2-4.8-14-4.8-6-13-6zM1181.927 591.6h.4q12.6-21.4 24.2-21.4 4.8 0 8.2 3.2 3.4 3.2 3.4 6.8 0 6.8-6.4 9.8-3.4 1.4-5.2-.4-4.2-4-8.6-4-4 0-8.4 4.4t-7.6 12.6v36.6q0 10 2.4 12.4 2.6 2.4 14 3.2v5.2h-46v-5.2q9.4-1 11.6-3.4 2.2-2.4 2.2-12.2v-41.4q0-9.8-1.8-12-1.8-2.4-10.6-3.4v-4.6q14.8-2.4 28.2-8zM392.28 872.8l-13.6 7q-5 2.6-8.4 2.6-19.6 0-19.6-23.8v-58h-13.8l-.8-2.2 5.6-5.8h9v-14.4l13-13.4 2.8.4v27.4h22.6q1.6 1.6 1.2 4.2-.4 2.6-2.4 3.8h-21.4v51.2q0 19.2 11.8 19.2 5.8 0 12.2-3.4zM491.39 880h-42.2v-5.2q8.8-1 11-3.4 2.2-2.4 2.2-12v-33.2q0-24.6-19.6-24.6-11.8 0-20.8 10.2v47.6q0 9.6 2 12.2 2 2.4 11 3.2v5.2h-42.6l.2-5.2q9.2-.8 11.4-3.2 2.2-2.4 2.2-12.2V764q0-9.6-2-11.6-1.8-2.2-11.6-3v-4.8q12.6-1.8 29.4-7v67.2q14.6-14.6 28.6-14.6 12.8 0 20.2 8.4 7.4 8.4 7.4 25.8v35q0 9.8 2.2 12.2 2.2 2.4 11 3.2zM564.648 858.8l3 4.4q-8.4 10.4-17.4 14.8-9 4.4-15.2 4.4-17.8 0-28.4-12.4-10.6-12.4-10.6-30.2 0-20.6 13.2-35 13.4-14.6 29.2-14.6h.2q12.2 0 21 9.4 9 9.2 9 21 0 3.2-1 4.6-.8 1.2-3.6 1.8-10.8 2-52.4 3.4.2 19 9.2 28.8 9 9.6 20.8 9.6 12.2 0 23-10zm-31-61.2q-7 0-13 6.6-5.8 6.4-8 18 16.6 0 34-.6 2.8 0 3.8-.8 1-1 1-3.2.2-8.2-4.8-14-4.8-6-13-6zM654.717 880h-44.6v-5.2q9.6-1 12-3.4 2.4-2.4 2.4-12.2v-94.6q0-10-2.2-12-2-2.2-11.6-3.2v-4.8q14.6-1.6 29.6-7v121.6q0 9.8 2.2 12.2 2.4 2.4 12.2 3.4zM739.28 872.2l-17 10.2q-5.4 0-9.4-4-3.2-3.2-4.8-8.8-1 .6-4.8 3.4-3.8 2.6-5.4 3.6-1.6 1-4.6 2.8-3 1.6-5 2.2-2 .8-3.8.8-10.4 0-17.2-7.2-6.8-7.4-6.8-17.2 0-14.2 16.2-19.8 25.6-8.6 31-13v-3.4q0-10.8-4.6-16.6-4.6-6-12.4-6-5.6 0-9 3.8-3.4 3.8-5.8 13.2-1.4 4.6-5.8 4.6-3 0-5.8-2.6t-2.8-6q0-3.4 6.2-8 5-3.8 13.6-8 8.8-4.4 16.4-6 9.8 0 16.4 5.4 9 7.8 9 24.6v37q0 12 7 12 3.6 0 7.2-2.2zm-31.6-9V832q-2.4 1.2-9.8 4.6-7.4 3.4-8.2 3.8-6.2 2.8-9.2 6.2-3 3.4-3 8.6 0 7 4.4 11.2 4.6 4 9.8 4 3.8 0 8.4-2 4.6-2.2 7.6-5.2zM811.97 852.4l5.2 2.6-9.2 25h-65.8l-1.4-3q21.8-32.2 49.8-77.6h-17.8q-10.4 0-14.4 2.8-3.8 2.6-8.2 11.4l-2.8 5.4-5-1.8q4-14 6.8-28.8h4.2q1.6 4.2 11 4.2h46l1.2 2.8-48.8 78h19.8q10.8 0 15.6-3.2 5-3.4 11.2-13zM908.155 792.6v5.2q-7.8 1.2-10.6 3.6-2.8 2.2-7 10.8-2.4 4.8-5.4 12-2.8 7-8.8 21.4-5.8 14.4-11 26.8-17.2 41-20.6 54-1.2 5-6.4 5-4.2 0-7.8-3-3.4-3-3.4-6.6 0-3.8 5-7.4 8-4.8 15-17.6 3.6-6.8 6.2-13.8 1.4-4-.4-9-13.4-38.2-22.8-61.2-3.4-8.6-6.4-11.2-2.8-2.8-10.8-3.8v-5.2h40.4l.2 5.2q-7 1-8.4 3.2-1.4 2.2.8 7.8l18 50q11.4-27.4 18.4-49.8 2-5.6 0-7.8-2-2.4-10.4-3.4v-5.2zM1041.064 869.8v5q-20.2 3.6-31 7.6v-13l-12.2 7.2q-10 5.8-15.6 5.8-13.6 0-25.4-11.6-11.6-11.6-11.6-31 0-20.6 15.4-35 15.4-14.6 36-14.6 7.2 0 13.4 2.4V764q0-9.6-2.4-11.6-2.2-2.2-13-3v-5q15.8-1.8 31.2-6.8V857q0 7.6 1.4 9.6 1.6 2 7.4 2.6zm-31-6.8v-55q-7-10.2-20.6-10.2-4 0-8.2 1.8-4 1.6-8.4 5.6-4.2 3.8-7 11.4-2.6 7.6-2.6 17.8 0 16.6 8.4 26 8.4 9.4 19.2 9.4 10.2 0 19.2-6.8zM1088.533 790.2q18.4 0 30.8 13 12.4 13 12.4 31.6 0 22.4-13.4 35-13.4 12.6-30 12.6-19.6 0-31.8-13.2-12-13.4-12-31 0-11.8 4.2-21.2 4.2-9.6 10.8-15.2 6.8-5.6 14.2-8.6 7.6-3 14.8-3zm-2.6 6.6q-9.6 0-16.2 9.4t-6.6 25.6q0 19.2 7.6 31.6 7.6 12.4 19.8 12.4 10.2 0 16.4-8.6 6.2-8.8 6.2-28 0-18.2-7.2-30.2-7.2-12.2-20-12.2zM1225.686 792.6l1 1.6q-4.2 7.6-9 10.2l-11.4-.6q6 7 6 17.6 0 15.2-10.6 23.6-10.4 8.4-24.4 8.4-4.8 0-10.2-1-6 4.2-6 8.4 0 3.2 3.2 5.4t9.4 2.2h10.8q7-.2 10.4-.2 7.2 0 13 1.6 6 1.6 10.8 7.2 4.8 5.6 4.8 14.8 0 15.4-15 27.4-15 12.2-34.8 12.2-15.8 0-25.2-7.6-9.4-7.4-9.6-16.8 0-6.4 4.8-11.2 4.2-4.2 16.6-14-9.8-3-14.8-11-2.6-4-2.2-8.4 11.2-4.2 17.6-12.2-7.4-3.2-12.6-10.2-5-7-5-16.6 0-15.6 11.2-24.4 11.4-8.8 24.6-8.8h.2q10.2 0 19.2 5.4 14.2-.8 27.2-3zm-48.8 3.8q-6.8 0-11.6 6.4t-4.8 17.4q0 11.8 5.2 19.4 5.4 7.4 13.6 7.4 7-.2 11.8-6.4 4.8-6.2 4.8-17.4 0-11.8-5.2-19.2-5.2-7.6-13.8-7.6zm4.4 85.8q-12.4 0-17.4 4.2-9.2 7.8-9.2 15.6 0 8.2 7.6 13.6 7.6 5.6 18.8 5.6 13.8 0 21.2-6.2 7.6-6.2 7.6-16 0-10.4-9-14.2-6.6-2.6-19.6-2.6zM1244.217 882.4q-4.8 0-8-3.2-3-3.2-3-8.4 0-4.8 3.2-8 3.2-3.4 8-3.4t8 3.4q3.2 3.2 3.2 8 0 5.2-3.2 8.4t-8.2 3.2z"/></g></svg>