<svg xmlns="http://www.w3.org/2000/svg" viewBox="0 0 800 500"><path fill="#fff" d="M0 0h800v500H0z"/><g font-weight="400" font-size="100" font-family="Minion Pro" text-anchor="middle" fill="#111"><path d="M308.52 110h-21.2v-2.6q4.5-.5 5.5-1.7 1.1-1.3 1.1-6.1V83.2q0-12.4-9.9-12.4-6.1 0-10.3 5.3v23.5q0 4.8 1 6.1 1.1 1.3 5.6 1.7v2.6h-21.5v-2.6q4.8-.4 5.9-1.6 1.1-1.3 1.1-6.3V49.2q-6.4-.7-19.5-.7h-7.1v49q0 6.3 1.5 7.9 1.6 1.5 8.5 1.9v2.7h-28.2v-2.7q6.7-.5 8.2-2 1.5-1.5 1.5-7.8v-49h-6.3q-6.4 0-8.7.7-2.3.7-3.4 2.6-1.7 2.7-3.3 8.8h-2.9q.9-11.2 1.2-18.1h1.9q1 1.6 2.1 2.1 1.2.4 3.4.4h41.6q6 0 7.7-.5 1.8-.5 1.8-2.1v-1.5q2.5-.4 7.9-2.3v33.7q6.9-7.1 14-7.2 6.5-.2 10.3 4.1 3.8 4.3 3.8 12.9v17.5q0 5 1.1 6.2 1.1 1.2 5.6 1.6zM347.96 99.4l1.5 2.2q-4.2 5.2-8.7 7.4-4.5 2.2-7.6 2.2-8.9 0-14.2-6.2-5.3-6.2-5.3-15.1 0-10.3 6.6-17.5 6.7-7.3 14.6-7.3h.1q6.1 0 10.5 4.7 4.5 4.6 4.5 10.5 0 1.6-.5 2.3-.4.6-1.8.9-5.4 1-26.2 1.7.1 9.5 4.6 14.4 4.5 4.8 10.4 4.8 6.1 0 11.5-5zm-15.5-30.6q-3.5 0-6.5 3.3-2.9 3.2-4 9 8.3 0 17-.3 1.4 0 1.9-.4.5-.5.5-1.6.1-4.1-2.4-7-2.4-3-6.5-3zM426.695 134h-24.1v-2.7q5.9-.4 7.2-1.7 1.3-1.3 1.3-6.6v-16l-10.6 4.2q-10.1 0-15.8-6.4-5.7-6.5-5.7-14.5 0-10.6 8.1-17.9 8.1-7.4 18.7-7.3 4.8.5 6.9 1.4 1.8.5 2.7.4 1.3 0 3.5-1.1l.4.3q-.3 6.3-.3 10.7v46.4q0 5.2 1.2 6.4 1.2 1.2 6.5 1.7zm-15.6-30V73.4q-1.7-1.9-4.5-3-2.7-1.2-5.2-1.2-5.5 0-9.5 4.7-3.9 4.7-3.9 13.1 0 8.5 4.8 13.6 4.8 5 10.9 5 4 0 7.4-1.6zM477.19 105v2.6q-3.2.4-7.7 1.6-1.3.4-3.7 1.1-2.4.7-3.3.9l-.6-.6v-7.1q-5.6 4.2-7.4 5.2-4.3 2.5-7.7 2.5-5.5 0-9-3.6-3.4-3.7-3.4-11.3V76.7q0-3.8-.7-4.8-.6-1.1-2.6-1.6l-2.8-.6v-2.3q1.9-.1 7.2-.7 5.9-.9 7.1-1.1-.3 3.1-.3 14.5v13.5q0 11.3 8.8 11.3 5.9 0 10.8-4.8V76.7q0-3.8-.8-4.9-.8-1.1-3.4-1.5l-3.6-.6v-2.3q4.4-.2 9-.8 3.7-.4 6.7-1V99q0 3.7.8 4.7.9 1 3.9 1.2zM492.016 56.4q-2 0-3.5-1.5-1.5-1.6-1.5-3.6 0-2.2 1.5-3.7t3.6-1.5q2.1 0 3.5 1.5 1.5 1.5 1.5 3.7 0 2.1-1.5 3.6t-3.6 1.5zm11.7 53.6h-22v-2.6q4.8-.5 5.9-1.7 1.1-1.2 1.1-6.3V78.8q0-4.7-.9-5.8-.9-1.1-5.4-1.8v-2.4q7.8-1.2 14.2-3.9v34.5q0 5.1 1.1 6.3 1.2 1.2 6 1.7zM544.273 98.9l1.7 2.1q-3.4 4.5-8 7.4-4.6 2.8-8.9 2.8-9.1 0-14.6-6.2t-5.5-14.7q0-11.8 10.1-19.5 7.4-5.7 14.9-5.7h.1q5.9 0 9 2.7 1.6 1.4 1.6 3 0 1.5-1.2 2.9t-2.1 1.4q-.8 0-1.9-1.1-4.4-4.1-10.1-4.1-5.2 0-8.8 4.3-3.5 4.2-3.5 11.7 0 4.9 1.5 8.7 1.5 3.8 3.9 5.8t4.9 3q2.5 1 4.8 1 3.3 0 6-1.2 2.8-1.2 6.1-4.3zM598.37 110l-13.7.2q-1.6-1.8-16.4-19.8-1.9-2.2-3.1-2.2-.7 0-1.6.3v11.1q0 4.9 1.1 6.1 1.2 1.2 6.1 1.7v2.6h-22.3v-2.6q5-.4 6.1-1.7 1.2-1.3 1.2-6.1V52.4q0-5-1-6.1-1-1.2-5.6-1.6v-2.4q5.7-.6 14.4-3.5v47.1q3.7-.7 6.3-3.5 3.1-3.1 7.1-8.8 1.6-2.3 1-3.1-.5-.9-4-1.3v-2.6l20.4-.9v2.5q-5.1.8-7.5 2-2.4 1.1-5.4 3.9-3.1 3.1-8.6 9.5 1.3 2.1 7 8.8 5.7 6.6 8.5 9.5 4.8 5.2 10 5.5zM211.977 179.6l8.1-3.5q2.3-1 4.1-1 8.1 0 13.9 6.2 5.8 6.1 5.8 14.9 0 10.7-7.5 17.9-7.4 7.1-17.6 7.1-7.1 0-14.7-3.6v-55.5q0-4.8-1-5.9-.9-1.2-5.6-1.6v-2.3q7.9-1 14.5-3.5zm0 3v25.8q0 2 .6 3.5.7 1.9 3 3.7 2.3 1.8 5.8 1.8 6.3 0 9.9-5 3.7-5 3.7-13.7 0-8.2-4.4-13.1-4.3-4.9-10.8-4.9-4.4 0-7.8 1.9zM264.487 185.8h.2q6.3-10.7 12.1-10.7 2.4 0 4.1 1.6 1.7 1.6 1.7 3.4 0 3.4-3.2 4.9-1.7.7-2.6-.2-2.1-2-4.3-2-2 0-4.2 2.2t-3.8 6.3v18.3q0 5 1.2 6.2 1.3 1.2 7 1.6v2.6h-23v-2.6q4.7-.5 5.8-1.7 1.1-1.2 1.1-6.1v-20.7q0-4.9-.9-6-.9-1.2-5.3-1.7v-2.3q7.4-1.2 14.1-4zM307.83 175.1q9.2 0 15.4 6.5 6.2 6.5 6.2 15.8 0 11.2-6.7 17.5-6.7 6.3-15 6.3-9.8 0-15.9-6.6-6-6.7-6-15.5 0-5.9 2.1-10.6 2.1-4.8 5.4-7.6 3.4-2.8 7.1-4.3 3.8-1.5 7.4-1.5zm-1.3 3.3q-4.8 0-8.1 4.7t-3.3 12.8q0 9.6 3.8 15.8 3.8 6.2 9.9 6.2 5.1 0 8.2-4.3 3.1-4.4 3.1-14 0-9.1-3.6-15.1-3.6-6.1-10-6.1zM401.143 176.3v2.6q-3.7.5-5.1 1.9-1.3 1.3-2.8 5.5-3.6 9.6-12 34.8h-2.9q-2.4-6.4-7-17.8-4.5-11.5-5.2-13.3-1.3 3.4-5.5 14.1-4.1 10.7-6.4 17h-2.8q-7.1-22.9-11.6-35.7-1.3-3.9-2.6-4.9-1.2-1.1-4.8-1.6v-2.6h20.7v2.6q-4.5.7-5.4 1.7-.8 1 .3 4.4l7.4 23.2h.2l11.6-31.4h2.6q3.9 11.1 12 31.8h.2q5-15.6 6.9-23.1 1-3.8 0-4.8-.9-1.1-5.8-1.8v-2.6zM452.888 220h-20.9v-2.6q4.4-.5 5.5-1.8 1.1-1.3 1.1-6.5v-16.7q0-11.4-9.1-11.4-5 0-10.9 5.1v23.5q0 5 1 6.2 1 1.1 5.5 1.6v2.6h-21.7v-2.6q5.1-.5 6.2-1.7 1.1-1.2 1.1-6.1V189q0-4.7-1-5.8-.9-1.2-5-2v-2.3q8.2-1.5 13.9-4v7.9q2.1-1.5 6.7-4.7 4.7-3 8.3-3 6 0 9.4 4 3.5 4 3.5 11.2v19.3q0 5 1 6.2 1 1.1 5.4 1.6zM483.232 176.3h4.7v-2.1q0-4.8 1.1-8.3 2.3-7.2 7.7-11.8 5.5-4.6 11-5.3 5.3.3 7.9 3.4 1.3 1.6.5 3.5-.5 1.3-1.9 2.4-1.4 1.1-2.7-.3-3.7-3.7-8.1-3.7-3.4 0-5.3 2.9-2.4 3.7-2.3 15.3v4h11.8q.5.7.1 2.1-.3 1.4-1.1 1.9h-10.8V209q0 5.5 1.3 6.7 1.3 1.2 7.3 1.8v2.5h-23.6v-2.6q4.9-.5 6-1.6 1.1-1.2 1.1-6.1v-29.4h-7l-.4-1.1zM532.243 175.1q9.2 0 15.4 6.5 6.2 6.5 6.2 15.8 0 11.2-6.7 17.5-6.7 6.3-15 6.3-9.8 0-15.9-6.6-6-6.7-6-15.5 0-5.9 2.1-10.6 2.1-4.8 5.4-7.6 3.4-2.8 7.1-4.3 3.8-1.5 7.4-1.5zm-1.3 3.3q-4.8 0-8.1 4.7t-3.3 12.8q0 9.6 3.8 15.8 3.8 6.2 9.9 6.2 5.1 0 8.2-4.3 3.1-4.4 3.1-14 0-9.1-3.6-15.1-3.6-6.1-10-6.1zM603.357 220h-21.4v-2.6q3.2-.4 3.9-1.2.7-.8-.5-2.8l-7.4-11.7q-3.9 5.8-6.4 10.6-1.6 2.5-1 3.5.6 1 4.4 1.6v2.6h-18.6v-2.6q4.6-.6 6.4-1.7 1.8-1.1 4.8-4.9 3-3.7 8.5-12l-8.7-13.6q-2.3-3.6-4-4.7-1.7-1.1-5.8-1.6v-2.6h19.9v2.6q-3.1.4-3.7 1.3-.5.8 1 2.9l5.9 9.3q3.7-5.5 5.8-9.4 1.3-2.3.7-3-.6-.7-4-1.1v-2.6h18.3v2.6q-4.7.5-6.5 1.4-1.8.8-4.5 3.9-2.4 2.9-7.8 11l9.7 14.8q2.8 4.3 4.6 5.6 1.9 1.2 6.4 1.8zM191.527 276.4q-2 0-3.5-1.5-1.5-1.6-1.5-3.6 0-2.2 1.5-3.7t3.6-1.5q2 0 3.4 1.5 1.5 1.5 1.5 3.7 0 2.1-1.5 3.6-1.4 1.5-3.5 1.5zm-10.1 14.7v-2.3q8.4-1.3 14.6-3.9v34q0 9.7-2.3 16.1-2.3 6.6-6 12-3.7 5.5-6.1 7.6-1.6 1.1-2.6 1.1-1.1 0-2.3-1.4-1.3-1.3-1.3-3 0-1.9 2.1-2.3 5.4-1.3 7.3-3.8 1.6-2 2.5-7.2.8-5.7.8-19.3v-19.5q0-5.1-1-6.2-1-1.2-5.7-1.9zM254.437 325v2.6q-3.2.4-7.7 1.6-1.3.4-3.7 1.1-2.4.7-3.3.9l-.6-.6v-7.1q-5.6 4.2-7.4 5.2-4.3 2.5-7.7 2.5-5.5 0-9-3.6-3.4-3.7-3.4-11.3v-19.6q0-3.8-.7-4.8-.6-1.1-2.6-1.6l-2.8-.6v-2.3q1.9-.1 7.2-.7 5.9-.9 7.1-1.1-.3 3.1-.3 14.5v13.5q0 11.3 8.8 11.3 5.9 0 10.8-4.8v-23.4q0-3.8-.8-4.9-.8-1.1-3.4-1.5l-3.6-.6v-2.3q4.4-.2 9-.8 3.7-.4 6.7-1V319q0 3.7.8 4.7.9 1 3.9 1.2zM335.462 330h-21.4v-2.6q4.6-.5 5.8-1.7 1.2-1.3 1.2-6.4v-16.7q0-11.6-8.8-11.6-4.8 0-11.2 5.2.3 1.8.3 4.2v19.5q0 4.6 1.1 5.8 1.1 1.2 5.3 1.7v2.6h-21.4v-2.6q4.8-.5 5.9-1.7 1.2-1.2 1.2-6v-17.2q0-11.5-8.8-11.5-4.7 0-10.9 5.2v23.5q0 4.7 1 6 1 1.2 4.8 1.7v2.6h-21.1v-2.6q5-.5 6.2-1.7 1.3-1.2 1.3-6V299q0-4.8-.9-5.9-.9-1.2-5.2-1.9v-2.3q7.9-1.4 13.9-4.1v8.1q.3-.2 2.9-2 2.6-1.9 4.4-3 4.5-2.8 8.1-2.8 3.6 0 6.6 2.2 3 2.2 4.6 6.1 2.5-2 8.3-5.7 3.9-2.6 7.6-2.6 5.9 0 9.3 4 3.4 4 3.4 11.3v19.3q0 4.9 1 6.1 1.1 1.1 5.5 1.6zM352.545 292l9.2-5.3q2.6-1.6 4.9-1.6 8 0 12.8 5.6 4.9 5.6 4.9 13.3 0 10.8-7.3 18.1-7.2 7.2-17.6 9.1-3.8-.1-6.9-1.8v13.1q0 5.7 1.3 7 1.3 1.3 7.1 1.8v2.7h-23.6v-2.7q4.9-.5 6.1-1.7 1.2-1.2 1.2-6.1v-45.2q0-4.8-1-5.8-.9-1.1-5.6-1.7v-2.4q6.6-1.1 14.5-4.3zm0 3.4v27q3.7 3.9 9.4 3.9 6.3 0 10.1-5 3.9-5 3.9-13.4 0-7.8-3.9-12.3-3.8-4.5-9.5-4.5-4.5 0-10 4.3zM419.888 297.5l-2.5.7q-3.3-9.9-10.3-9.9-2.9 0-4.7 2-1.8 1.9-1.8 4.9 0 3 2.2 5 2.2 1.9 6.2 3.6 6.3 2.6 9.5 5.7t3.2 7.9q0 6.4-5 10.1-5 3.7-11.5 3.7-3.5 0-6.8-1.1-3.2-1-4.6-2.3-.5-1.1-1.1-5.1-.6-4-.6-6.7l2.7-.5q1.4 5.3 4.6 8.9 3.3 3.5 7.6 3.5 2.9 0 5-1.9 2.1-2 2.1-5.1 0-3.1-2-5.1-1.9-2.1-5.9-4-2.8-1.2-4.6-2.2-1.8-1.1-3.9-2.7-2-1.7-3-3.9t-1-4.9q0-5.4 4.2-9.2 4.3-3.8 11-3.8 4.8 0 8.8 1.8.6 1.5 1.3 5.1.7 3.5.9 5.5zM473.063 285.1q9.2 0 15.4 6.5 6.2 6.5 6.2 15.8 0 11.2-6.7 17.5-6.7 6.3-15 6.3-9.8 0-15.9-6.6-6-6.7-6-15.5 0-5.9 2.1-10.6 2.1-4.8 5.4-7.6 3.4-2.8 7.1-4.3 3.8-1.5 7.4-1.5zm-1.3 3.3q-4.8 0-8.1 4.7t-3.3 12.8q0 9.6 3.8 15.8 3.8 6.2 9.9 6.2 5.1 0 8.2-4.3 3.1-4.4 3.1-14 0-9.1-3.6-15.1-3.6-6.1-10-6.1zM544.577 286.3v2.6q-3.9.5-5.3 1.8-1.4 1.2-3.5 5.7-6.8 14.9-14.2 34.7h-2.8q-4.7-12.8-13.8-35-1.7-4.3-3.1-5.4-1.3-1.2-5.3-1.8v-2.6h20.5v2.6q-4 .4-4.7 1.5-.6 1 .7 4.2 4.1 11.5 9.5 24.7 4.3-10.1 8.9-23.8 1.2-3.6.3-4.8-.8-1.3-5-1.8v-2.6zM580.285 319.4l1.5 2.2q-4.2 5.2-8.7 7.4-4.5 2.2-7.6 2.2-8.9 0-14.2-6.2-5.3-6.2-5.3-15.1 0-10.3 6.6-17.5 6.7-7.3 14.6-7.3h.1q6.1 0 10.5 4.7 4.5 4.6 4.5 10.5 0 1.6-.5 2.3-.4.6-1.8.9-5.4 1-26.2 1.7.1 9.5 4.6 14.4 4.5 4.8 10.4 4.8 6.1 0 11.5-5zm-15.5-30.6q-3.5 0-6.5 3.3-2.9 3.2-4 9 8.3 0 17-.3 1.4 0 1.9-.4.5-.5.5-1.6.1-4.1-2.4-7-2.4-3-6.5-3zM602.963 295.8h.2q6.3-10.7 12.1-10.7 2.4 0 4.1 1.6 1.7 1.6 1.7 3.4 0 3.4-3.2 4.9-1.7.7-2.6-.2-2.1-2-4.3-2-2 0-4.2 2.2t-3.8 6.3v18.3q0 5 1.2 6.2 1.3 1.2 7 1.6v2.6h-23v-2.6q4.7-.5 5.8-1.7 1.1-1.2 1.1-6.1v-20.7q0-4.9-.9-6-.9-1.2-5.3-1.7v-2.3q7.4-1.2 14.1-4zM178.14 436.4l-6.8 3.5q-2.5 1.3-4.2 1.3-9.8 0-9.8-11.9v-29h-6.9l-.4-1.1 2.8-2.9h4.5v-7.2l6.5-6.7 1.4.2v13.7h11.3q.8.8.6 2.1-.2 1.3-1.2 1.9h-10.7v25.6q0 9.6 5.9 9.6 2.9 0 6.1-1.7zM230.695 440h-21.1v-2.6q4.4-.5 5.5-1.7 1.1-1.2 1.1-6v-16.6q0-12.3-9.8-12.3-5.9 0-10.4 5.1v23.8q0 4.8 1 6.1 1 1.2 5.5 1.6v2.6h-21.3l.1-2.6q4.6-.4 5.7-1.6 1.1-1.2 1.1-6.1V382q0-4.8-1-5.8-.9-1.1-5.8-1.5v-2.4q6.3-.9 14.7-3.5v33.6q7.3-7.3 14.3-7.3 6.4 0 10.1 4.2 3.7 4.2 3.7 12.9v17.5q0 4.9 1.1 6.1 1.1 1.2 5.5 1.6zM270.324 429.4l1.5 2.2q-4.2 5.2-8.7 7.4-4.5 2.2-7.6 2.2-8.9 0-14.2-6.2-5.3-6.2-5.3-15.1 0-10.3 6.6-17.5 6.7-7.3 14.6-7.3h.1q6.1 0 10.5 4.7 4.5 4.6 4.5 10.5 0 1.6-.5 2.3-.4.6-1.8.9-5.4 1-26.2 1.7.1 9.5 4.6 14.4 4.5 4.8 10.4 4.8 6.1 0 11.5-5zm-15.5-30.6q-3.5 0-6.5 3.3-2.9 3.2-4 9 8.3 0 17-.3 1.4 0 1.9-.4.5-.5.5-1.6.1-4.1-2.4-7-2.4-3-6.5-3zM321.36 440h-22.3v-2.6q4.8-.5 6-1.7 1.2-1.2 1.2-6.1v-47.3q0-5-1.1-6-1-1.1-5.8-1.6v-2.4q7.3-.8 14.8-3.5v60.8q0 4.9 1.1 6.1 1.2 1.2 6.1 1.7zM366.64 436.1l-8.5 5.1q-2.7 0-4.7-2-1.6-1.6-2.4-4.4-.5.3-2.4 1.7-1.9 1.3-2.7 1.8-.8.5-2.3 1.4-1.5.8-2.5 1.1-1 .4-1.9.4-5.2 0-8.6-3.6-3.4-3.7-3.4-8.6 0-7.1 8.1-9.9 12.8-4.3 15.5-6.5v-1.7q0-5.4-2.3-8.3-2.3-3-6.2-3-2.8 0-4.5 1.9-1.7 1.9-2.9 6.6-.7 2.3-2.9 2.3-1.5 0-2.9-1.3t-1.4-3q0-1.7 3.1-4 2.5-1.9 6.8-4 4.4-2.2 8.2-3 4.9 0 8.2 2.7 4.5 3.9 4.5 12.3v18.5q0 6 3.5 6 1.8 0 3.6-1.1zm-15.8-4.5V416q-1.2.6-4.9 2.3-3.7 1.7-4.1 1.9-3.1 1.4-4.6 3.1-1.5 1.7-1.5 4.3 0 3.5 2.2 5.6 2.3 2 4.9 2 1.9 0 4.2-1 2.3-1.1 3.8-2.6zM405.985 426.2l2.6 1.3-4.6 12.5h-32.9l-.7-1.5q10.9-16.1 24.9-38.8h-8.9q-5.2 0-7.2 1.4-1.9 1.3-4.1 5.7l-1.4 2.7-2.5-.9q2-7 3.4-14.4h2.1q.8 2.1 5.5 2.1h23l.6 1.4-24.4 39h9.9q5.4 0 7.8-1.6 2.5-1.7 5.6-6.5zM457.077 396.3v2.6q-3.9.6-5.3 1.8-1.4 1.1-3.5 5.4-1.2 2.4-2.7 6-1.4 3.5-4.4 10.7-2.9 7.2-5.5 13.4-8.6 20.5-10.3 27-.6 2.5-3.2 2.5-2.1 0-3.9-1.5-1.7-1.5-1.7-3.3 0-1.9 2.5-3.7 4-2.4 7.5-8.8 1.8-3.4 3.1-6.9.7-2-.2-4.5-6.7-19.1-11.4-30.6-1.7-4.3-3.2-5.6-1.4-1.4-5.4-1.9v-2.6h20.2l.1 2.6q-3.5.5-4.2 1.6-.7 1.1.4 3.9l9 25q5.7-13.7 9.2-24.9 1-2.8 0-3.9-1-1.2-5.2-1.7v-2.6zM529.532 434.9v2.5q-10.1 1.8-15.5 3.8v-6.5l-6.1 3.6q-5 2.9-7.8 2.9-6.8 0-12.7-5.8-5.8-5.8-5.8-15.5 0-10.3 7.7-17.5 7.7-7.3 18-7.3 3.6 0 6.7 1.2V382q0-4.8-1.2-5.8-1.1-1.1-6.5-1.5v-2.5q7.9-.9 15.6-3.4v59.7q0 3.8.7 4.8.8 1 3.7 1.3zm-15.5-3.4V404q-3.5-5.1-10.3-5.1-2 0-4.1.9-2 .8-4.2 2.8-2.1 1.9-3.5 5.7-1.3 3.8-1.3 8.9 0 8.3 4.2 13 4.2 4.7 9.6 4.7 5.1 0 9.6-3.4zM556.266 395.1q9.2 0 15.4 6.5 6.2 6.5 6.2 15.8 0 11.2-6.7 17.5-6.7 6.3-15 6.3-9.8 0-15.9-6.6-6-6.7-6-15.5 0-5.9 2.1-10.6 2.1-4.8 5.4-7.6 3.4-2.8 7.1-4.3 3.8-1.5 7.4-1.5zm-1.3 3.3q-4.8 0-8.1 4.7t-3.3 12.8q0 9.6 3.8 15.8 3.8 6.2 9.9 6.2 5.1 0 8.2-4.3 3.1-4.4 3.1-14 0-9.1-3.6-15.1-3.6-6.1-10-6.1zM627.843 396.3l.5.8q-2.1 3.8-4.5 5.1l-5.7-.3q3 3.5 3 8.8 0 7.6-5.3 11.8-5.2 4.2-12.2 4.2-2.4 0-5.1-.5-3 2.1-3 4.2 0 1.6 1.6 2.7t4.7 1.1h5.4q3.5-.1 5.2-.1 3.6 0 6.5.8 3 .8 5.4 3.6 2.4 2.8 2.4 7.4 0 7.7-7.5 13.7-7.5 6.1-17.4 6.1-7.9 0-12.6-3.8-4.7-3.7-4.8-8.4 0-3.2 2.4-5.6 2.1-2.1 8.3-7-4.9-1.5-7.4-5.5-1.3-2-1.1-4.2 5.6-2.1 8.8-6.1-3.7-1.6-6.3-5.1-2.5-3.5-2.5-8.3 0-7.8 5.6-12.2 5.7-4.4 12.3-4.4h.1q5.1 0 9.6 2.7 7.1-.4 13.6-1.5zm-24.4 1.9q-3.4 0-5.8 3.2t-2.4 8.7q0 5.9 2.6 9.7 2.7 3.7 6.8 3.7 3.5-.1 5.9-3.2 2.4-3.1 2.4-8.7 0-5.9-2.6-9.6-2.6-3.8-6.9-3.8zm2.2 42.9q-6.2 0-8.7 2.1-4.6 3.9-4.6 7.8 0 4.1 3.8 6.8 3.8 2.8 9.4 2.8 6.9 0 10.6-3.1 3.8-3.1 3.8-8 0-5.2-4.5-7.1-3.3-1.3-9.8-1.3zM640.11 441.2q-2.4 0-4-1.6-1.5-1.6-1.5-4.2 0-2.4 1.6-4 1.6-1.7 4-1.7t4 1.7q1.6 1.6 1.6 4 0 2.6-1.6 4.2t-4.1 1.6z"/></g></svg>