<svg xmlns="http://www.w3.org/2000/svg" viewBox="0 0 800 500"><path fill="#fff" d="M0 0h800v500H0z"/><g font-weight="400" font-size="100" font-family="Museo" letter-spacing="-.03em" text-anchor="middle" fill="#222"><path d="M189.428 52.822V45.4q0-3.222 1.22-4.443 1.27-1.27 4.444-1.27H242.7q3.222 0 4.443 1.27 1.27 1.22 1.27 4.443v7.422h-6.495v-4.736q0-2.197-2.197-2.197h-17.284V110h-7.032V45.89H198.02q-2.196 0-2.196 2.196v4.736zM248.83 45.596v-5.908h7.08q3.223 0 4.64 1.416 1.464 1.416 1.464 4.492v21.29l-.196 4.1h.196q1.806-4.492 7.03-8.496 5.274-4.004 12.892-4.004 9.082 0 12.988 4.932 3.906 4.883 3.906 14.6v23.877q0 2.197 2.197 2.197h4.2V110h-7.08q-3.223 0-4.688-1.416-1.417-1.465-1.417-4.688V79.824q0-3.418-.39-5.76-.342-2.345-1.466-4.59-1.074-2.296-3.37-3.42-2.294-1.17-5.81-1.17-6.396 0-11.474 4.003-5.03 4.004-6.69 10.302-.78 2.685-.83 6.69V110h-6.786V47.793q0-2.197-2.198-2.197zM308.38 84.902q0-12.01 7.128-19.19 7.178-7.226 17.676-7.226 10.01 0 15.527 6.69 5.567 6.64 5.567 16.504l-.195 3.418H315.46q.097 9.18 5.76 14.6 5.665 5.42 13.77 5.42 8.3 0 14.6-5.714l.488-.488 3.32 5.078q-.78.78-2.343 2.002-1.563 1.22-6.446 3.223-4.835 2-9.913 2-11.28 0-18.8-7.372-7.518-7.422-7.518-18.946zm7.372-5.224h31.543q-.293-7.52-4.297-11.475-4.004-4.004-9.912-4.004-6.494 0-11.328 4.1-4.785 4.054-6.006 11.378zM390.66 103.945q-5.957-7.324-5.957-19.14 0-11.817 6.3-19.043 6.298-7.276 16.308-7.276 3.42 0 6.397 1.026 2.98.976 4.785 2.44 1.807 1.466 3.076 2.882 1.32 1.367 1.856 2.344l.488 1.025h.195q-.097-1.416-.097-3.32 0-5.176 6.006-5.176h6.884v5.908h-4.2q-2.196 0-2.196 2.198v62.207h-6.787v-24.122l.195-4.394h-.195q-.195.39-.586 1.074-.34.635-1.757 2.295-1.367 1.61-3.174 2.93-1.807 1.318-4.932 2.343-3.077 1.075-6.64 1.075-10.01 0-15.968-7.275zm5.615-33.838q-4.687 5.47-4.687 14.698 0 9.18 4.443 14.746 4.493 5.567 11.574 5.567 6.884 0 11.572-5.078 4.736-5.128 4.736-15.235 0-8.3-4.2-14.258-4.198-5.957-11.816-5.957-6.884 0-11.62 5.517zM438.295 65.615v-5.908h7.08q3.223 0 4.64 1.416 1.464 1.367 1.464 4.492v24.268q0 7.08 2.196 11.035 2.197 3.906 8.838 3.906 8.203 0 13.33-6.25 5.176-6.25 5.176-14.795V59.706h6.787v42.188q0 2.197 2.197 2.197h4.2V110h-6.886q-6.103 0-6.103-5.615v-2.295l.195-3.613h-.195q-1.904 4.59-7.08 8.69-5.127 4.054-12.55 4.054-8.788 0-12.84-4.784-4.054-4.834-4.054-14.747V67.812q0-2.198-2.196-2.198zM496.33 65.615v-5.908h7.13q3.222 0 4.638 1.465 1.465 1.416 1.465 4.64v36.083q0 2.197 2.197 2.197h4.2V110h-7.13q-3.223 0-4.687-1.416-1.416-1.465-1.416-4.688V67.812q0-2.197-2.198-2.197zm6.2-17.334v-8.593h6.593v8.594zM519.746 84.902q0-11.523 7.568-18.945 7.618-7.47 18.946-7.47 2.392 0 5.224.585 2.88.537 5.81 1.66 2.93 1.075 4.884 3.32 1.953 2.247 1.953 5.128v4.54h-6.396v-2.93q0-2.88-3.857-4.54-3.857-1.66-7.617-1.66-8.3 0-13.916 5.664-5.615 5.664-5.615 14.648 0 8.985 5.76 14.55 5.762 5.568 13.965 5.568 9.082 0 15.48-6.397l.73-.732 3.175 5.128-.83.83q-.49.537-2.393 2.002-1.855 1.464-3.955 2.54-2.1 1.024-5.517 1.903-3.418.928-6.983.928-11.377 0-18.896-7.324-7.52-7.373-7.52-18.994zM567.283 45.596v-5.908h7.08q3.32 0 4.688 1.318 1.417 1.318 1.417 4.492v33.398h5.224q3.81 0 5.714-2.392l12.89-16.797h8.302l-14.502 18.408q-1.123 1.416-2.1 2.295-.928.88-1.318 1.074l-.39.196v.244q1.513.683 3.075 3.662l9.132 16.31q.684 1.317 1.612 1.756.976.44 2.978.44h2.686V110h-4.688q-3.81 0-5.42-.928-1.562-.976-3.27-4.052l-10.01-18.018q-1.222-2.197-5.275-2.197h-4.638V110h-6.787V47.793q0-2.197-2.198-2.197zM185.033 155.596v-5.91h7.08q3.223 0 4.64 1.466 1.464 1.465 1.464 4.64v18.212l-.196 4.1h.197q.195-.39.537-1.024.39-.684 1.758-2.344 1.416-1.66 3.222-2.88 1.807-1.27 4.883-2.295 3.125-1.074 6.738-1.074 10.01 0 15.918 7.325 5.957 7.276 5.957 19.092 0 11.817-6.347 19.092-6.348 7.227-16.358 7.227-9.912 0-15.38-7.91l-1.124-1.806h-.194q.195 1.71.195 4.1V220h-6.59v-62.207q0-2.197-2.198-2.197zM198.02 195q0 8.203 4.2 14.21 4.2 6.005 11.817 6.005 6.885 0 11.524-5.518 4.688-5.517 4.688-14.795 0-9.082-4.492-14.648-4.444-5.566-11.426-5.566-6.885 0-11.62 5.126-4.69 5.08-4.69 15.186zM240.725 175.615v-5.908h6.982q6.104 0 6.104 5.713v3.37l-.195 3.808h.196q1.905-6.006 6.055-9.668 4.15-3.71 9.864-3.71l2.684.292v6.69q-1.22-.196-2.49-.196-5.176 0-9.033 3.613-3.857 3.564-5.566 9.374-1.416 4.492-1.416 9.815V220h-6.787v-42.188q0-2.197-2.196-2.197zM273.613 194.61q0-11.085 7.715-18.604 7.764-7.52 18.8-7.52 11.083 0 18.798 7.52 7.763 7.47 7.763 18.603 0 11.28-7.764 18.945-7.715 7.666-18.7 7.666-11.085 0-18.85-7.665-7.763-7.666-7.763-18.946zm6.983 0q0 8.69 5.713 14.6 5.71 5.907 13.915 5.907 8.105 0 13.77-5.908 5.712-5.91 5.712-14.6 0-8.497-5.713-14.21-5.664-5.712-13.77-5.712-8.203 0-13.915 5.712-5.714 5.713-5.714 14.21zM327.742 175.615v-5.908h3.516q3.71 0 5.224 1.074 1.563 1.027 2.686 4.542l10.303 31.885 1.514 5.37h.196q.78-2.977 1.562-5.37l12.305-37.305h6.836l12.304 37.305 1.563 5.37h.195q.586-2.88 1.416-5.37l10.402-31.885q1.123-3.515 2.636-4.54 1.563-1.075 5.274-1.075h3.515v5.908h-1.416q-2.684 0-3.514 2.295L389.852 220h-7.47l-12.306-35.79-1.514-5.42h-.195q-.683 2.88-1.61 5.42L354.548 220h-7.57l-14.404-42.09q-.78-2.295-3.515-2.295zM409.46 175.615v-5.908h6.98q6.105 0 6.105 5.615v2.295l-.195 3.565h.195q1.807-4.59 6.934-8.643 5.174-4.054 13.084-4.054 9.082 0 12.99 4.932 3.905 4.883 3.905 14.6v23.877q0 2.197 2.196 2.197h4.2V220h-7.08q-3.223 0-4.688-1.416-1.416-1.465-1.416-4.688v-24.072q0-7.08-2.15-10.986-2.147-3.955-8.74-3.955-6.395 0-11.522 3.955-5.078 3.955-6.787 10.254-.782 2.783-.83 6.787V220h-6.788v-42.188q0-2.197-2.197-2.197zM491.545 175.42v-5.713h6.3V167.9q0-5.81 1.854-9.863 1.855-4.053 4.784-5.762 2.98-1.757 5.518-2.392 2.54-.684 5.176-.684l3.076.195v6.103q-.88-.195-2.393-.195-1.805 0-3.417.44-1.61.44-3.564 1.61-1.905 1.124-3.077 3.907-1.172 2.734-1.172 6.64v1.807h12.843v5.713H504.63V220h-6.786v-44.58zM518.184 194.61q0-11.085 7.714-18.604 7.764-7.52 18.8-7.52 11.083 0 18.798 7.52 7.764 7.47 7.764 18.603 0 11.28-7.764 18.945-7.715 7.666-18.7 7.666-11.085 0-18.85-7.665-7.762-7.666-7.762-18.946zm6.982 0q0 8.69 5.713 14.6 5.712 5.907 13.915 5.907 8.105 0 13.77-5.908 5.712-5.91 5.712-14.6 0-8.497-5.713-14.21-5.664-5.712-13.77-5.712-8.202 0-13.915 5.712-5.714 5.713-5.714 14.21zM574.12 175.615v-5.908h3.71q3.81 0 5.42 1.025 1.66.977 3.955 4.444l7.227 11.23 1.66 2.98h.244q.88-1.71 1.562-2.98l7.325-11.23q2.295-3.516 3.906-4.492 1.66-.977 5.468-.977h3.613v5.908h-2q-3.42 0-4.69 2.002l-10.887 16.162L618.21 220h-8.007l-12.305-18.7-1.562-2.784h-.244q-.78 1.416-1.66 2.783L582.127 220h-7.91l17.48-26.22-10.888-16.065q-1.515-2.1-4.59-2.1zM156.846 344.404q.88.098 2.197.098 1.807 0 3.516-.44 1.708-.44 3.612-1.66 1.953-1.22 3.125-4.004 1.172-2.783 1.172-6.787v-43.798q0-2.197-2.247-2.197h-4.2v-5.908h7.13q3.222 0 4.638 1.465 1.466 1.416 1.466 4.64v46.092q0 5.908-1.856 9.912-1.855 4.004-4.882 5.713-2.98 1.757-5.518 2.392-2.54.683-5.273.683l-2.88-.293zm13.476-76.123v-8.592h6.543v8.593zM184.803 285.615v-5.908h7.08q3.222 0 4.638 1.416 1.466 1.367 1.466 4.492v24.268q0 7.08 2.198 11.035 2.197 3.906 8.837 3.906 8.205 0 13.332-6.25 5.175-6.25 5.175-14.795v-24.073h6.787v42.188q0 2.197 2.198 2.197h4.2V330h-6.886q-6.103 0-6.103-5.615v-2.295l.195-3.613h-.195q-1.905 4.59-7.08 8.69-5.127 4.054-12.55 4.054-8.788 0-12.84-4.784-4.054-4.834-4.054-14.747v-23.877q0-2.198-2.198-2.198zM242.35 285.615v-5.908h6.982q6.104 0 6.104 5.615v2.295l-.196 3.565h.196q1.904-5.176 7.128-8.936 5.274-3.76 11.084-3.76 13.282 0 15.625 12.598h.196q2.098-5.322 7.176-8.936 5.127-3.662 11.33-3.662 8.885 0 12.792 4.932 3.906 4.883 3.906 14.6v23.877q0 2.197 2.197 2.197h4.2V330h-7.13q-3.22 0-4.686-1.416-1.416-1.465-1.416-4.688v-24.218q0-7.08-2.295-11.035t-8.594-3.955q-5.518 0-9.913 4.2-4.394 4.198-6.006 10.008-.878 2.784-.878 7.325V330h-6.787v-30.322q0-3.32-.39-5.567-.342-2.294-1.368-4.637-.976-2.393-3.222-3.565-2.246-1.22-5.615-1.22-5.91 0-10.303 4.296-4.395 4.297-6.104 10.498-.78 2.784-.83 6.74V330h-6.787v-42.188q0-2.197-2.197-2.197zM332.514 285.615v-5.908h6.884q6.006 0 6.006 5.273l-.097 3.418h.195q.195-.39.537-1.025.39-.684 1.757-2.393 1.416-1.757 3.174-3.076 1.758-1.318 4.932-2.343 3.223-1.074 6.934-1.074 10.01 0 15.918 7.325 5.957 7.276 5.957 19.092 0 11.817-6.298 19.092-6.3 7.227-16.21 7.227-3.42 0-6.397-1.025-2.98-.976-4.737-2.392-1.757-1.416-3.076-2.735-1.27-1.367-1.758-2.392l-.537-.977h-.195q.195 1.806.195 4.394v23.926h-6.787v-62.207q0-2.198-2.197-2.198zM345.502 305q0 8.203 4.248 14.21 4.248 6.005 11.768 6.005 6.884 0 11.523-5.518 4.69-5.517 4.69-14.795 0-9.18-4.396-14.697-4.395-5.518-11.523-5.518-6.884 0-11.62 5.127-4.688 5.08-4.688 15.186zM388.89 322.383l3.905-4.688q.195.293.635.83.488.49 1.953 1.856 1.513 1.32 3.174 2.345 1.66.976 4.297 1.806 2.636.783 5.468.783 4.492 0 7.52-2.1 3.076-2.1 3.076-5.908 0-2.98-2.93-5.176-2.88-2.247-7.03-3.81-4.15-1.61-8.302-3.418-4.15-1.806-7.08-5.03-2.88-3.27-2.88-7.763 0-6.592 4.98-10.108 5.03-3.516 12.94-3.516 2.197 0 4.59.49 2.392.438 4.882 1.415 2.54.928 4.15 2.833 1.66 1.855 1.66 4.394v4.297h-6.396v-2.393q0-2.49-2.832-3.807-2.783-1.318-5.86-1.318-11.18 0-11.18 7.324 0 3.075 2.88 5.272t7.03 3.76q4.15 1.562 8.302 3.37 4.15 1.757 7.03 5.077 2.93 3.32 2.93 7.91 0 6.2-5.03 10.156-4.98 3.955-12.547 3.955-11.084 0-18.213-7.52zM455.105 304.61q0-11.085 7.715-18.604 7.764-7.52 18.8-7.52 11.083 0 18.798 7.52 7.764 7.47 7.764 18.603 0 11.28-7.764 18.945-7.715 7.666-18.7 7.666-11.085 0-18.85-7.665-7.763-7.666-7.763-18.946zm6.983 0q0 8.69 5.713 14.6 5.714 5.907 13.917 5.907 8.105 0 13.77-5.908 5.712-5.91 5.712-14.6 0-8.497-5.714-14.21-5.664-5.712-13.77-5.712-8.202 0-13.915 5.712-5.712 5.713-5.712 14.21zM509.674 285.615v-5.908h2.685q3.613 0 5.126 1.074 1.563 1.027 2.88 4.396l12.11 31.445 1.66 5.86h.245q.782-3.418 1.66-5.86l12.11-31.444q1.32-3.418 2.832-4.444 1.563-1.025 5.08-1.025h2.586v5.908h-.878q-2.686 0-3.516 2.295L537.848 330h-7.373l-16.407-42.09q-.88-2.295-3.515-2.295zM560.043 304.902q0-12.01 7.13-19.19 7.177-7.226 17.675-7.226 10.01 0 15.527 6.69 5.566 6.64 5.566 16.504l-.194 3.418h-38.623q.098 9.18 5.762 14.6t13.77 5.42q8.3 0 14.6-5.714l.487-.488 3.32 5.078q-.78.78-2.343 2.002-1.564 1.22-6.447 3.223-4.834 2-9.912 2-11.278 0-18.798-7.372-7.52-7.422-7.52-18.946zm7.373-5.224h31.543q-.294-7.52-4.298-11.475-4.004-4.004-9.912-4.004-6.494 0-11.328 4.1-4.785 4.054-6.006 11.378zM610.217 285.615v-5.908h6.982q6.103 0 6.103 5.713v3.37l-.196 3.808h.196q1.904-6.006 6.054-9.668 4.15-3.71 9.864-3.71l2.686.292v6.69q-1.22-.196-2.49-.196-5.176 0-9.033 3.613-3.858 3.564-5.567 9.374-1.416 4.492-1.416 9.815V330h-6.787v-42.188q0-2.197-2.197-2.197zM129.963 395.42v-5.713h6.738V375.79h6.69v13.917h12.598v5.713H143.39v25.586q0 3.418.83 5.908.88 2.49 2.05 3.906 1.222 1.368 2.785 2.198 1.61.78 2.88 1.025 1.32.244 2.735.244l2.295-.195v6.103q-1.22.196-2.88.196-2.1 0-4.103-.292-2.002-.293-4.59-1.416-2.538-1.172-4.394-3.077-1.807-1.904-3.125-5.468-1.318-3.614-1.318-8.448v-26.27zM159.287 375.596v-5.908h7.08q3.223 0 4.64 1.416 1.464 1.416 1.464 4.492v21.29l-.195 4.1h.196q1.807-4.492 7.032-8.496 5.273-4.004 12.89-4.004 9.083 0 12.99 4.932 3.905 4.883 3.905 14.6v23.877q0 2.197 2.197 2.197h4.2V440h-7.08q-3.223 0-4.688-1.416-1.416-1.465-1.416-4.688v-24.072q0-3.418-.39-5.762-.342-2.343-1.465-4.59-1.075-2.294-3.37-3.417-2.295-1.172-5.81-1.172-6.397 0-11.475 4.004-5.03 4.004-6.69 10.302-.78 2.685-.83 6.69V440h-6.786v-62.207q0-2.197-2.198-2.197zM218.836 414.902q0-12.01 7.13-19.19 7.177-7.226 17.675-7.226 10.01 0 15.528 6.69 5.566 6.64 5.566 16.504l-.195 3.418h-38.624q.098 9.18 5.762 14.6t13.77 5.42q8.3 0 14.6-5.714l.487-.488 3.32 5.078q-.78.78-2.343 2.002-1.563 1.22-6.446 3.223-4.834 2-9.912 2-11.28 0-18.8-7.372-7.518-7.422-7.518-18.946zm7.373-5.224h31.542q-.293-7.52-4.297-11.475-4.004-4.004-9.912-4.004-6.494 0-11.328 4.1-4.785 4.054-6.006 11.378zM293.06 375.596v-5.908h7.08q3.223 0 4.64 1.464 1.464 1.465 1.464 4.64v56.103q0 2.197 2.197 2.197h4.2V440h-7.08q-3.222 0-4.687-1.416-1.416-1.465-1.416-4.688v-56.103q0-2.197-2.197-2.197zM316.28 426.28q0-17.286 30.812-17.286h2.783v-.586q0-7.812-3.027-10.986-2.98-3.223-9.96-3.223-3.077 0-6.447 1.025-3.368.976-3.368 3.37v3.22h-6.494v-4.833q0-2.392 1.904-4.248 1.905-1.855 4.737-2.685 2.88-.83 5.32-1.173 2.442-.39 4.444-.39 11.084 0 15.38 5.126 4.298 5.078 4.298 14.21v24.072q0 2.197 2.197 2.197h4.2V440h-6.886q-3.223 0-4.64-1.416-1.366-1.465-1.366-4.59l.098-3.71h-.196q.098 0-.44 1.122-.536 1.074-1.806 2.735-1.27 1.66-3.076 3.272-1.758 1.61-4.834 2.686-3.027 1.123-6.543 1.123-6.884 0-12.01-3.906-5.08-3.955-5.08-11.035zm6.984-.39q0 3.807 2.93 6.688 2.978 2.832 8.3 2.832 6.787 0 11.084-5.81t4.297-12.89v-2.296h-2.88q-2.686 0-4.542.098-1.855.097-5.03.39-3.124.293-5.32 1.075-2.15.732-4.347 1.953-2.197 1.172-3.37 3.222-1.122 2.05-1.122 4.737zM366.113 440v-4.395l28.272-35.302 4.004-4.59v-.195q-1.71.195-4.982.195H375q-2.197 0-2.197 2.197v3.906h-6.397v-6.005q0-3.222 1.416-4.638 1.465-1.465 4.688-1.465h34.912v4.492L379.2 429.403l-4.2 4.59v.195q1.807-.196 5.127-.196h20.8q2.198 0 2.198-2.197v-3.906h6.396v6.006q0 3.223-1.463 4.688-1.465 1.416-4.64 1.416z"/><path d="M408.23 456.113l3.223-5.03q0 .196.88 1.026.927.878 2.83 1.806 1.905.977 3.81.977 5.908 0 9.277-8.204l2.98-6.885-17.677-41.895q-.977-2.295-3.516-2.295h-.976v-5.908h3.077q3.418 0 4.834 1.074 1.466 1.027 2.882 4.396l12.89 31.445 1.807 5.372h.194q.684-2.88 1.71-5.37l12.4-31.446q1.32-3.418 2.785-4.444 1.512-1.025 5.028-1.025h3.076v5.908h-.976q-2.588 0-3.516 2.295l-21.68 52.588q-2.002 4.883-5.76 7.666-3.76 2.832-8.644 2.832-6.494 0-10.742-4.59zM492.66 433.945q-5.957-7.324-5.957-19.14 0-11.817 6.3-19.043 6.298-7.276 16.308-7.276 10.108 0 15.38 7.715l1.027 1.71h.195q-.195-1.71-.195-3.808v-16.31q0-2.196-2.197-2.196h-4.2v-5.91h7.08q3.223 0 4.64 1.466 1.464 1.465 1.464 4.64v56.103q0 2.197 2.197 2.197h4.2V440h-6.982q-6.006 0-6.006-5.615l.195-3.174h-.195l-.537 1.075q-.342.684-1.758 2.393-1.416 1.71-3.222 3.027-1.807 1.318-4.98 2.393-3.126 1.123-6.788 1.123-10.01 0-15.967-7.275zm5.664-33.838q-4.638 5.47-4.638 14.698 0 9.18 4.394 14.746 4.443 5.567 11.524 5.567 6.884 0 11.572-5.078 4.736-5.128 4.736-15.235 0-8.3-4.2-14.258-4.198-5.957-11.816-5.957-6.884 0-11.572 5.517zM542.297 414.61q0-11.085 7.715-18.604 7.763-7.52 18.8-7.52 11.083 0 18.797 7.52 7.763 7.47 7.763 18.603 0 11.28-7.764 18.945-7.715 7.666-18.702 7.666-11.084 0-18.847-7.665-7.763-7.666-7.763-18.946zm6.982 0q0 8.69 5.712 14.6 5.713 5.907 13.916 5.907 8.106 0 13.77-5.908 5.713-5.91 5.713-14.6 0-8.497-5.712-14.21-5.664-5.712-13.77-5.712-8.203 0-13.916 5.712-5.713 5.713-5.713 14.21zM606.777 432.53q-6.152-7.227-6.152-18.604 0-11.426 5.908-18.408 5.908-7.032 15.87-7.032 3.808 0 6.884.928 3.125.88 4.883 2.148 1.758 1.22 2.93 2.49 1.22 1.27 1.61 2.15l.392.878h.244v-1.904q0-5.518 5.664-5.47h7.03v5.91h-4.1q-2.198 0-2.198 2.197v40.966q0 11.18-6.982 16.7-6.934 5.516-17.237 5.516-8.593 0-16.406-4.004l2.588-5.713q6.2 3.515 13.623 3.515 7.91 0 12.744-3.906 4.834-3.908 4.834-11.867v-4.443l.098-3.564h-.195q-4.69 8.69-15.773 8.69-10.107 0-16.26-7.177zm4.932-32.764q-4.103 5.03-4.103 14.062 0 8.984 4.493 14.404 4.54 5.372 11.914 5.372 6.69 0 10.84-4.64 4.15-4.687 4.15-15.087 0-19.19-15.87-19.19-7.323 0-11.425 5.08zM658.123 440v-8.008h7.715V440z"/></g></svg>