<svg xmlns="http://www.w3.org/2000/svg" viewBox="0 0 1600 1000" height="1000" width="1600"><path fill="#fff" d="M0 0h1600v1000H0z"/><g font-weight="400" font-size="200" font-family="Museo" letter-spacing="-.03em" text-anchor="middle" fill="#222"><path d="M378.855 105.645V90.8q0-6.445 2.442-8.886 2.54-2.54 8.887-2.54h95.214q6.446 0 8.887 2.54 2.54 2.44 2.54 8.887v14.845h-12.99v-9.473q0-4.395-4.394-4.395h-34.57V220h-14.06V91.777h-34.767q-4.395 0-4.395 4.395v9.473zM497.66 91.19V79.376h14.16q6.446 0 9.278 2.832 2.93 2.832 2.93 8.984v42.58l-.39 8.203h.39q3.613-8.985 14.062-16.993 10.547-8.007 25.78-8.007 18.165 0 25.978 9.863 7.812 9.766 7.812 29.2v47.753q0 4.394 4.395 4.394h8.398V220h-14.16q-6.445 0-9.375-2.832-2.832-2.93-2.832-9.375v-48.145q0-6.836-.78-11.523-.685-4.688-2.93-9.18-2.15-4.59-6.74-6.836-4.59-2.344-11.62-2.344-12.793 0-22.95 8.007-10.058 8.008-13.38 20.606-1.56 5.37-1.66 13.378V220h-13.573V95.586q0-4.395-4.394-4.395zM616.758 169.805q0-24.024 14.258-38.38 14.355-14.452 35.35-14.452 20.02 0 31.056 13.38 11.133 13.28 11.133 33.006l-.39 6.835h-77.247q.195 18.36 11.523 29.2 11.33 10.84 27.54 10.84 16.602 0 29.2-11.426l.976-.978 6.64 10.156q-1.562 1.563-4.687 4.004-3.126 2.442-12.89 6.446-9.67 4.003-19.825 4.003-22.56 0-37.598-14.745-15.04-14.843-15.04-37.89zm14.746-10.45h63.086q-.586-15.04-8.594-22.95-8.008-8.007-19.824-8.007-12.988 0-22.656 8.204-9.57 8.105-12.012 22.753zM781.32 207.89q-11.914-14.648-11.914-38.28 0-23.633 12.598-38.087 12.598-14.55 32.617-14.55 6.837 0 12.794 2.05 5.957 1.954 9.57 4.883 3.614 2.93 6.153 5.762 2.636 2.734 3.71 4.687l.977 2.05h.39q-.194-2.83-.194-6.64 0-10.35 12.01-10.35h13.77v11.815h-8.398q-4.394 0-4.394 4.395V260.04h-13.574v-48.243l.39-8.79h-.39q-.39.782-1.172 2.15-.684 1.27-3.516 4.59-2.734 3.222-6.348 5.858-3.613 2.637-9.863 4.688-6.152 2.148-13.28 2.148-20.02 0-31.935-14.55zm11.23-67.675q-9.374 10.937-9.374 29.394 0 18.36 8.886 29.492 8.985 11.132 23.145 11.132 13.77 0 23.145-10.156 9.472-10.254 9.472-30.47 0-16.6-8.398-28.514-8.4-11.914-23.633-11.914-13.77 0-23.242 11.035zM876.59 131.23v-11.816h14.16q6.445 0 9.277 2.832 2.93 2.734 2.93 8.984v48.536q0 14.16 4.395 22.07 4.394 7.812 17.675 7.812 16.407 0 26.66-12.5 10.352-12.5 10.352-29.59v-48.144h13.573v84.375q0 4.394 4.395 4.394h8.398V220h-13.77q-12.206 0-12.206-11.23v-4.59l.39-7.227h-.39q-3.81 9.18-14.16 17.383-10.254 8.105-25.098 8.105-17.578 0-25.684-9.57-8.105-9.667-8.105-29.49v-47.755q0-4.395-4.395-4.395zM992.66 131.23v-11.816h14.258q6.445 0 9.277 2.93 2.93 2.832 2.93 9.277v72.17q0 4.394 4.394 4.394h8.398V220h-14.258q-6.445 0-9.375-2.832-2.832-2.93-2.832-9.375v-72.168q0-4.395-4.394-4.395zm12.403-34.667V79.374h13.183v17.188zM1039.492 169.805q0-23.047 15.137-37.89 15.233-14.942 37.89-14.942 4.785 0 10.45 1.172 5.76 1.074 11.62 3.32 5.86 2.148 9.766 6.64 3.906 4.493 3.906 10.254v9.08h-12.793v-5.858q0-5.762-7.716-9.082-7.715-3.32-15.234-3.32-16.602 0-27.833 11.328-11.23 11.328-11.23 29.297 0 17.968 11.523 29.1 11.524 11.134 27.93 11.134 18.164 0 30.957-12.794l1.465-1.465 6.348 10.255-1.66 1.66q-.977 1.075-4.786 4.004-3.71 2.93-7.91 5.077-4.2 2.05-11.035 3.81-6.837 1.854-13.966 1.854-22.754 0-37.793-14.647-15.038-14.746-15.038-37.988zM1134.566 91.19V79.376h14.16q6.64 0 9.376 2.637 2.832 2.636 2.832 8.984v66.797h10.45q7.616 0 11.425-4.785l25.78-33.594h16.6l-29.003 36.816q-2.246 2.833-4.2 4.59-1.854 1.758-2.635 2.15l-.782.39v.488q3.028 1.367 6.153 7.324l18.26 32.617q1.37 2.636 3.224 3.515 1.953.88 5.957.88h5.37V220h-9.374q-7.617 0-10.84-1.855-3.125-1.954-6.543-8.106l-20.02-36.036q-2.44-4.395-10.546-4.395h-9.276V220h-13.575V95.586q0-4.395-4.395-4.395zM370.066 311.19v-11.815h14.16q6.446 0 9.278 2.93 2.93 2.93 2.93 9.277v36.426l-.39 8.203h.39q.39-.78 1.074-2.05.78-1.367 3.515-4.687 2.832-3.32 6.446-5.762 3.612-2.538 9.764-4.59 6.25-2.147 13.477-2.147 20.02 0 31.837 14.648 11.914 14.552 11.914 38.185 0 23.632-12.694 38.183-12.696 14.453-32.715 14.453-19.823 0-30.76-15.82l-2.247-3.612h-.39q.39 3.418.39 8.203V440H382.86V315.586q0-4.395-4.395-4.395zM396.043 390q0 16.406 8.398 28.418 8.4 12.012 23.634 12.012 13.77 0 23.047-11.035 9.376-11.036 9.376-29.59 0-18.164-8.984-29.297-8.887-11.133-22.852-11.133-13.77 0-23.242 10.254-9.375 10.155-9.375 30.37zM481.45 351.23v-11.816h13.964q12.207 0 12.207 11.426v6.738l-.39 7.617h.39q3.81-12.01 12.11-19.336 8.3-7.423 19.727-7.423l5.37.586v13.38q-2.44-.39-4.98-.39-10.35 0-18.066 7.225-7.714 7.13-11.132 18.75-2.832 8.985-2.832 19.63V440h-13.574v-84.375q0-4.395-4.394-4.395zM547.227 389.22q0-22.17 15.43-37.208 15.527-15.04 37.597-15.04 22.168 0 37.598 15.04 15.527 14.94 15.527 37.207 0 22.557-15.528 37.89-15.43 15.33-37.403 15.33-22.17 0-37.696-15.33-15.527-15.333-15.527-37.89zm13.964 0q0 17.382 11.427 29.198 11.426 11.816 27.832 11.816 16.21 0 27.538-11.816 11.426-11.816 11.426-29.2 0-16.99-11.426-28.417-11.328-11.425-27.54-11.425-16.405 0-27.83 11.426-11.427 11.427-11.427 28.42zM655.484 351.23v-11.816h7.032q7.422 0 10.45 2.15 3.124 2.05 5.37 9.08l20.605 63.77 3.03 10.742h.39q1.562-5.957 3.124-10.742l24.61-74.61h13.672l24.61 74.61 3.124 10.742h.39q1.172-5.76 2.833-10.742l20.8-63.77q2.247-7.03 5.274-9.082 3.125-2.148 10.547-2.148h7.03v11.816h-2.83q-5.372 0-7.032 4.59L779.702 440h-14.94l-24.61-71.582-3.027-10.84h-.39q-1.368 5.762-3.223 10.84L709.098 440H693.96l-28.808-84.18q-1.562-4.59-7.03-4.59zM818.918 351.23v-11.816h13.965q12.207 0 12.207 11.23v4.59l-.39 7.13h.39q3.613-9.18 13.867-17.286 10.352-8.105 26.172-8.105 18.163 0 25.975 9.863 7.813 9.766 7.813 29.2v47.753q0 4.394 4.394 4.394h8.4V440h-14.16q-6.447 0-9.376-2.832-2.832-2.93-2.832-9.375v-48.145q0-14.16-4.297-21.972-4.297-7.91-17.48-7.91-12.794 0-23.047 7.91-10.157 7.91-13.575 20.508-1.562 5.566-1.66 13.574V440H831.71v-84.375q0-4.395-4.394-4.395zM983.09 350.84v-11.426h12.597V335.8q0-11.62 3.71-19.726 3.712-8.105 9.572-11.523 5.956-3.515 11.034-4.784 5.078-1.368 10.352-1.368l6.152.39v12.208q-1.758-.39-4.785-.39-3.614 0-6.836.878-3.223.88-7.13 3.223-3.808 2.246-6.15 7.813-2.345 5.468-2.345 13.28v3.614h25.683v11.426h-25.683V440h-13.574v-89.16zM1036.367 389.22q0-22.17 15.43-37.208 15.527-15.04 37.597-15.04 22.168 0 37.598 15.04 15.527 14.94 15.527 37.207 0 22.557-15.528 37.89-15.43 15.33-37.402 15.33-22.168 0-37.695-15.33-15.528-15.333-15.528-37.89zm13.965 0q0 17.382 11.426 29.198 11.426 11.816 27.832 11.816 16.21 0 27.54-11.816 11.425-11.816 11.425-29.2 0-16.99-11.426-28.417-11.33-11.425-27.54-11.425-16.406 0-27.832 11.426-11.426 11.427-11.426 28.42zM1148.238 351.23v-11.816h7.422q7.617 0 10.84 2.05 3.32 1.954 7.91 8.888l14.453 22.46 3.32 5.958h.49q1.757-3.418 3.124-5.958l14.648-22.46q4.59-7.032 7.813-8.985 3.32-1.953 10.937-1.953h7.227v11.816h-4.004q-6.836 0-9.375 4.004l-21.777 32.325 35.156 52.44h-16.016l-24.61-37.402-3.124-5.567h-.488q-1.563 2.833-3.32 5.568L1164.253 440h-15.82l34.96-52.44-21.777-32.13q-3.027-4.2-9.18-4.2zM313.69 688.81q1.76.194 4.396.194 3.613 0 7.03-.88 3.42-.878 7.228-3.32 3.906-2.44 6.25-8.007t2.344-13.574v-87.598q0-4.395-4.493-4.395h-8.398v-11.816h14.258q6.445 0 9.277 2.93 2.93 2.832 2.93 9.277v92.19q0 11.815-3.71 19.823-3.712 8.008-9.767 11.426-5.957 3.514-11.035 4.784-5.078 1.367-10.547 1.367l-5.762-.585zm26.955-152.247v-17.188h13.085v17.188zM369.605 571.23v-11.816h14.16q6.446 0 9.278 2.832 2.93 2.734 2.93 8.984v48.536q0 14.16 4.394 22.07 4.395 7.812 17.676 7.812 16.406 0 26.66-12.5 10.352-12.5 10.352-29.59v-48.144h13.574v84.375q0 4.394 4.393 4.394h8.4V660h-13.77q-12.208 0-12.208-11.23v-4.59l.39-7.227h-.39q-3.808 9.18-14.16 17.383-10.254 8.105-25.098 8.105-17.578 0-25.683-9.57-8.106-9.667-8.106-29.49v-47.755q0-4.395-4.394-4.395zM484.7 571.23v-11.816h13.964q12.207 0 12.207 11.23v4.59l-.39 7.13h.39q3.81-10.352 14.26-17.872 10.546-7.52 22.167-7.52 26.562 0 31.25 25.196h.39q4.2-10.645 14.356-17.87 10.254-7.325 22.656-7.325 17.773 0 25.585 9.863 7.813 9.766 7.813 29.2v47.753q0 4.394 4.394 4.394h8.4V660h-14.26q-6.444 0-9.374-2.832-2.832-2.93-2.832-9.375v-48.438q0-14.16-4.59-22.07t-17.188-7.91q-11.035 0-19.824 8.398-8.79 8.4-12.01 20.02-1.76 5.566-1.76 14.648V660H566.73v-60.645q0-6.64-.78-11.132-.684-4.59-2.735-9.278-1.953-4.785-6.445-7.13-4.493-2.44-11.23-2.44-11.817 0-20.606 8.594-8.79 8.592-12.207 20.995-1.563 5.566-1.66 13.476V660H497.49v-84.375q0-4.395-4.394-4.395zM665.027 571.23v-11.816h13.77q12.012 0 12.012 10.547l-.197 6.837h.39q.392-.78 1.075-2.05.78-1.368 3.516-4.786 2.832-3.515 6.347-6.15 3.517-2.638 9.865-4.69 6.445-2.147 13.867-2.147 20.02 0 31.836 14.648 11.914 14.552 11.914 38.185 0 23.632-12.598 38.183-12.597 14.453-32.422 14.453-6.836 0-12.793-2.05-5.958-1.953-9.473-4.785-3.516-2.832-6.153-5.468-2.54-2.735-3.515-4.785l-1.075-1.954h-.39q.39 3.614.39 8.79v47.85H677.82V575.626q0-4.395-4.394-4.395zM691.004 610q0 16.406 8.496 28.418t23.535 12.012q13.77 0 23.047-11.035 9.375-11.036 9.375-29.59 0-18.36-8.79-29.395-8.788-11.035-23.046-11.035-13.768 0-23.24 10.254-9.376 10.155-9.376 30.37zM777.777 644.766l7.813-9.375q.39.587 1.27 1.66.976.977 3.906 3.712 3.027 2.636 6.347 4.687 3.32 1.952 8.594 3.613 5.273 1.562 10.938 1.562 8.984 0 15.04-4.2 6.15-4.198 6.15-11.816 0-5.958-5.858-10.352-5.762-4.492-14.063-7.617-8.3-3.222-16.602-6.835-8.3-3.614-14.16-10.06-5.76-6.542-5.76-15.526 0-13.185 9.96-20.216 10.058-7.03 25.878-7.03 4.395 0 9.18.975 4.785.878 9.766 2.83 5.078 1.857 8.3 5.665 3.32 3.71 3.32 8.79v8.593h-12.792v-4.785q0-4.98-5.664-7.617-5.567-2.637-11.72-2.637-22.362 0-22.362 14.648 0 6.152 5.762 10.546 5.76 4.395 14.062 7.52 8.3 3.125 16.602 6.738 8.3 3.516 14.062 10.156 5.86 6.64 5.86 15.82 0 12.403-10.06 20.313-9.96 7.91-25.097 7.91-22.17 0-36.427-15.038zM910.21 609.22q0-22.17 15.43-37.208 15.528-15.04 37.598-15.04 22.168 0 37.598 15.04 15.527 14.94 15.527 37.207 0 22.557-15.527 37.89-15.43 15.33-37.402 15.33-22.168 0-37.696-15.33-15.527-15.333-15.527-37.89zm13.966 0q0 17.382 11.426 29.198 11.425 11.816 27.832 11.816 16.21 0 27.54-11.816 11.424-11.816 11.424-29.2 0-16.99-11.425-28.417-11.328-11.425-27.54-11.425-16.406 0-27.83 11.426-11.427 11.427-11.427 28.42zM1019.348 571.23v-11.816h5.37q7.227 0 10.255 2.148 3.125 2.05 5.76 8.79l24.22 62.89 3.32 11.72h.49q1.56-6.837 3.32-11.72l24.218-62.89q2.638-6.836 5.665-8.887 3.125-2.05 10.156-2.05h5.177v11.815h-1.758q-5.372 0-7.032 4.59L1075.695 660h-14.746l-32.813-84.18q-1.758-4.59-7.03-4.59zM1120.086 609.805q0-24.024 14.258-38.38 14.355-14.452 35.35-14.452 20.02 0 31.056 13.38 11.133 13.28 11.133 33.006l-.39 6.835h-77.247q.195 18.36 11.523 29.2t27.54 10.84q16.6 0 29.198-11.426l.976-.978 6.64 10.156q-1.562 1.563-4.687 4.004-3.124 2.442-12.89 6.446-9.668 4.003-19.824 4.003-22.56 0-37.598-14.745-15.04-14.843-15.04-37.89zm14.746-10.45h63.086q-.586-15.04-8.594-22.95-8.008-8.007-19.824-8.007-12.988 0-22.656 8.204-9.57 8.105-12.012 22.753zM1220.434 571.23v-11.816h13.964q12.208 0 12.208 11.426v6.738l-.39 7.617h.39q3.808-12.01 12.11-19.336 8.3-7.423 19.725-7.423l5.373.586v13.38q-2.442-.39-4.98-.39-10.352 0-18.067 7.225-7.715 7.13-11.133 18.75-2.832 8.985-2.832 19.63V660h-13.573v-84.375q0-4.395-4.395-4.395zM259.926 790.84v-11.426h13.476v-27.832h13.38v27.832h25.195v11.426H286.78v51.172q0 6.836 1.66 11.816 1.76 4.98 4.103 7.813 2.44 2.735 5.566 4.395 3.222 1.563 5.76 2.05 2.638.49 5.47.49l4.59-.39v12.206q-2.442.39-5.762.39-4.2 0-8.203-.585-4.004-.586-9.18-2.832-5.078-2.343-8.79-6.152-3.612-3.808-6.25-10.937-2.636-7.226-2.636-16.894v-52.54zM318.574 751.19v-11.815h14.16q6.446 0 9.278 2.832 2.93 2.832 2.93 8.984v42.58l-.39 8.203h.39q3.613-8.985 14.062-16.993 10.547-8.007 25.78-8.007 18.165 0 25.978 9.863 7.812 9.766 7.812 29.2v47.753q0 4.394 4.395 4.394h8.397V880h-14.16q-6.445 0-9.375-2.832-2.832-2.93-2.832-9.375v-48.145q0-6.836-.78-11.523-.685-4.688-2.93-9.18-2.15-4.59-6.74-6.836-4.59-2.344-11.62-2.344-12.793 0-22.95 8.007-10.058 8.008-13.378 20.606-1.563 5.37-1.66 13.378V880h-13.575V755.586q0-4.395-4.394-4.395zM437.672 829.805q0-24.024 14.258-38.38 14.355-14.452 35.35-14.452 20.02 0 31.056 13.38 11.133 13.28 11.133 33.006l-.392 6.835h-77.246q.195 18.36 11.523 29.2 11.33 10.84 27.54 10.84 16.6 0 29.2-11.426l.975-.978 6.64 10.156q-1.562 1.563-4.687 4.004-3.125 2.442-12.89 6.446-9.668 4.003-19.824 4.003-22.56 0-37.6-14.745-15.038-14.843-15.038-37.89zm14.746-10.45h63.086q-.586-15.04-8.594-22.95-8.008-8.007-19.824-8.007-12.988 0-22.656 8.204-9.57 8.105-12.012 22.753zM586.12 751.19v-11.815h14.16q6.447 0 9.28 2.93 2.928 2.93 2.928 9.277V863.79q0 4.394 4.395 4.394h8.398V880h-14.16q-6.444 0-9.374-2.832-2.832-2.93-2.832-9.375V755.586q0-4.395-4.394-4.395zM632.563 852.56q0-34.572 61.62-34.572h5.567v-1.172q0-15.625-6.055-21.972-5.957-6.446-19.922-6.446-6.152 0-12.89 2.05-6.738 1.954-6.738 6.74v6.445h-12.99v-9.668q0-4.785 3.81-8.496 3.808-3.712 9.472-5.372 5.762-1.66 10.645-2.344 4.883-.78 8.887-.78 22.167 0 30.76 10.253 8.594 10.156 8.594 28.418v48.144q0 4.394 4.395 4.394h8.397V880h-13.77q-6.445 0-9.277-2.832-2.734-2.93-2.734-9.18l.195-7.422h-.39q.196 0-.878 2.246-1.075 2.15-3.614 5.47-2.54 3.32-6.152 6.542-3.516 3.223-9.668 5.37-6.055 2.247-13.086 2.247-13.77 0-24.023-7.81-10.158-7.91-10.158-22.07zm13.964-.783q0 7.618 5.86 13.38 5.957 5.663 16.6 5.663 13.575 0 22.17-11.62 8.593-11.622 8.593-25.782v-4.59h-5.762q-5.37 0-9.082.195-3.71.196-10.058.782-6.25.586-10.645 2.148-4.297 1.465-8.69 3.906-4.396 2.343-6.74 6.445-2.246 4.1-2.246 9.472zM732.227 880v-8.79l56.543-70.605 8.007-9.18v-.39q-3.418.39-9.96.39H750q-4.395 0-4.395 4.395v7.813h-12.793V791.62q0-6.444 2.833-9.276 2.93-2.93 9.375-2.93h69.824v8.984l-56.446 70.41-8.398 9.18v.39q3.613-.39 10.254-.39h41.6q4.396 0 4.396-4.394v-7.813h12.793v12.013q0 6.445-2.93 9.375-2.93 2.832-9.277 2.832z"/><path d="M816.46 912.227l6.446-10.06q0 .392 1.758 2.052 1.856 1.757 5.664 3.612 3.81 1.953 7.617 1.953 11.817 0 18.555-16.406l5.957-13.77-35.352-83.79q-1.953-4.59-7.03-4.59h-1.954v-11.816h6.153q6.836 0 9.668 2.15 2.93 2.05 5.763 8.788l25.78 62.89 3.615 10.742h.39q1.367-5.76 3.418-10.742l24.805-62.89q2.638-6.836 5.567-8.887 3.028-2.05 10.06-2.05h6.15v11.815h-1.952q-5.176 0-7.03 4.59l-43.36 105.176q-4.004 9.766-11.524 15.332-7.518 5.664-17.284 5.664-12.988 0-21.484-9.18zM985.32 867.89q-11.914-14.648-11.914-38.28 0-23.633 12.598-38.087 12.598-14.55 32.617-14.55 20.216 0 30.763 15.43l2.05 3.417h.39q-.39-3.418-.39-7.617v-32.617q0-4.395-4.394-4.395h-8.4v-11.815h14.16q6.446 0 9.278 2.93 2.93 2.93 2.93 9.277V863.79q0 4.394 4.394 4.394h8.4V880h-13.966q-12.012 0-12.012-11.23l.39-6.348h-.39l-1.074 2.148q-.684 1.368-3.516 4.785-2.832 3.418-6.445 6.055-3.614 2.637-9.962 4.785-6.25 2.246-13.574 2.246-20.02 0-31.934-14.55zm11.328-67.675q-9.277 10.937-9.277 29.394 0 18.36 8.79 29.492 8.887 11.132 23.047 11.132 13.77 0 23.145-10.156 9.472-10.254 9.472-30.47 0-16.6-8.398-28.514-8.4-11.914-23.633-11.914-13.77 0-23.145 11.035zM1084.594 829.22q0-22.17 15.43-37.208 15.527-15.04 37.597-15.04 22.17 0 37.6 15.04 15.526 14.94 15.526 37.207 0 22.557-15.527 37.89-15.43 15.33-37.404 15.33-22.168 0-37.695-15.33-15.526-15.333-15.526-37.89zm13.965 0q0 17.382 11.424 29.198 11.426 11.816 27.832 11.816 16.21 0 27.54-11.816 11.425-11.816 11.425-29.2 0-16.99-11.424-28.417-11.33-11.425-27.54-11.425-16.406 0-27.832 11.426-11.425 11.427-11.425 28.42zM1213.555 865.06q-12.305-14.455-12.305-37.208 0-22.852 11.816-36.817 11.817-14.062 31.74-14.062 7.616 0 13.768 1.855 6.25 1.758 9.766 4.297 3.516 2.44 5.86 4.98 2.44 2.54 3.222 4.297l.78 1.758h.49v-3.808q0-11.036 11.327-10.938h14.062v11.816h-8.203q-4.396 0-4.396 4.395v81.934q0 22.362-13.965 33.397-13.868 11.035-34.473 11.035-17.188 0-32.813-8.008l5.176-11.425q12.402 7.03 27.246 7.03 15.82 0 25.488-7.813 9.668-7.812 9.668-23.73v-8.887l.196-7.13h-.39q-9.376 17.384-31.544 17.384-20.215 0-32.52-14.355zm9.863-65.53q-8.203 10.06-8.203 28.126 0 17.97 8.984 28.81 9.08 10.74 23.827 10.74 13.38 0 21.68-9.276 8.3-9.375 8.3-30.176 0-38.38-31.738-38.38-14.65 0-22.852 10.157zM1316.246 880v-16.016h15.43V880z"/></g></svg>