<svg xmlns="http://www.w3.org/2000/svg" viewBox="0 0 800 500" height="500" width="800"><path fill="#fff" d="M0 0h800v500H0z"/><g font-weight="400" font-size="100" font-family="Myriad Pro" letter-spacing="-.03em" text-anchor="middle" fill="#222"><path d="M216.373 110h9.1V50h23.4v-7.4h-55.8V50h23.3zM252.68 110h9.1V81.4c0-1.8.1-3.1.7-4.4 1.8-4.6 6.8-9.1 13.3-9.1 9.2 0 12.7 6.9 12.7 15.3V110h9.1V82.3c0-18.2-12-21.9-18.7-21.9-3.5 0-7 1-9.8 2.7-3.1 1.6-5.5 4.1-7.1 6.8h-.2V38.4h-9.1zM352.627 87.7c.3-.9.4-2.2.4-4 0-8.3-4.2-23.3-21.9-23.3-15.7 0-25 12-25 26.3 0 14.5 9.9 24.5 25.9 24.5 9 0 14.8-2 18-3.3l-1.6-6.5c-3.7 1.5-7.9 2.7-15.2 2.7-10 0-18.1-5.5-18.3-16.4zm-37.6-6.5c.8-6 5.1-14.4 15.4-14.4 12 0 13.9 10.2 13.8 14.4zM418.76 130h9.1V74.3c0-4.3.1-8.4.4-12.7h-8.8l-.3 7.8h-.2c-2.5-4.5-7.9-9-16.9-9-11 0-24.1 7.8-24.1 26.3 0 14.3 10.1 24.5 22.6 24.5 9 0 15-4.2 18-9.5h.2zm0-40.4c0 1.4-.3 3.1-.8 4.3-2.1 5.9-7.7 10.1-14.5 10.1-11 0-16.3-8.4-16.3-17.9 0-11.1 6.6-18.6 16.6-18.6 7.7 0 12.9 4.8 14.6 10.4.3 1.1.4 2.5.4 3.8zM484.88 61.6h-9.1v28.9c0 1.7-.4 3.3-.9 4.6-2.1 4.5-6.9 8.6-13.2 8.6-8.9 0-12.3-6.5-12.3-16.2V61.6h-9.1v27.5c0 18.6 11 22.1 18.3 22.1 9.8 0 15.4-5.6 17.9-10h.2l.5 8.8h8.1c-.3-3.9-.4-8.3-.4-13.3zM506.936 110V61.6h-9.1V110zm-4.6-56.8c3.6 0 5.8-2.6 5.8-5.6 0-3.1-2.3-5.6-5.7-5.6-3.5 0-5.8 2.6-5.8 5.6 0 3 2.2 5.6 5.6 5.6zM556.336 101.2c-2.8 1.2-6.7 2.7-12.5 2.7-10.5 0-18.7-6.9-18.7-18.1 0-10.2 6.9-18.2 19-18.2 5.6 0 9.4 1.3 11.9 2.6l2.1-6.9c-2.7-1.4-8-2.9-14-2.9-17.1 0-28.3 10.8-28.3 26 0 14.4 10.3 24.8 26.3 24.8 7.5 0 13.3-2 15.8-3.1zM575.545 38.4h-9.1V110h9.1V91.8l5.1-5.2 18.7 23.4h11.4l-23.8-28.6 20.7-19.8h-11.3l-15.8 16.6c-1.6 1.6-3.5 3.9-4.8 5.5h-.2zM192.008 207.2c0 4.7-.1 9.3-.4 12.8h7.9l.4-8.5h.2c4.3 7 10.8 9.7 18.4 9.7 11.9 0 24.1-8.8 24.1-26.1.1-14.3-9.3-24.7-22.7-24.7-9.1 0-15.3 4-18.6 9.6h-.2v-31.6h-9.1zm9.1-14.5c0-1.5.3-2.7.6-3.7 2.1-7.5 8.6-11.6 15.3-11.6 10.5 0 16.4 8.2 16.4 18 0 11.4-6.5 18.6-16.8 18.6-7.7 0-13.5-5.2-15.1-10.9-.3-1.1-.4-2.2-.4-3.3zM251.703 220h9.1v-25.5c0-1.4.1-2.8.4-4.1 1.3-6.9 5.9-11.6 12.6-11.6 1.4 0 2.4.1 3.4.3v-8.4c-.9-.2-1.7-.3-2.7-.3-6.3 0-12.1 4.2-14.6 11.3h-.3l-.3-10.1h-8c.3 4.8.4 9.7.4 15.9zM304.878 221.2c12.9 0 26.6-8.3 26.6-26 0-14.1-10.2-24.8-25.9-24.8-15 0-26.6 10.1-26.6 25.9 0 14.8 11.2 24.9 25.8 24.9zm.1-6.7c-9 0-16.6-7-16.6-18.6 0-9.7 5.5-18.8 17-18.8 11.7 0 16.7 10 16.7 18.5 0 12.1-7.9 18.9-17 18.9zM333.648 171.6l15.5 48.4h8.5l8.5-23c1.9-5.3 3.6-10.5 4.9-16.4h.2c1.3 5.7 2.9 10.8 4.9 16.4l7.9 23h8.5l16.8-48.4h-9l-7.7 24.6c-1.7 5.7-3.1 10.9-4.1 15.7h-.2c-1.2-4.8-2.7-9.9-4.6-15.8l-8.3-24.5h-7.9l-8.7 24.9c-1.8 5.4-3.5 10.6-4.7 15.4h-.2c-1.1-5-2.4-10-3.9-15.4l-7.1-24.9zM415.945 220h9.1v-28.8c0-1.3.3-2.9.7-4 1.8-4.8 6.7-9.4 13.3-9.4 9.1 0 12.7 6.8 12.7 15.3V220h9.1v-27.7c0-18.2-12.2-21.9-18.8-21.9-8.9 0-15.1 5.1-17.6 9.8h-.3l-.5-8.6h-8.1c.3 4.1.4 8.4.4 13.3zM503.24 220v-41.5h12.6v-6.9h-12.7v-2.4c0-7.9 2.2-14.7 10.2-14.7 2.9 0 4.7.5 6.2 1.2l1.1-7c-1.8-.8-4.6-1.5-8-1.5-4.4 0-9 1.4-12.4 4.6-4.3 3.9-6.1 10.3-6.1 17.7v2.1h-7v6.9h7V220zM542.222 221.2c12.9 0 26.6-8.3 26.6-26 0-14.1-10.2-24.8-25.9-24.8-15 0-26.6 10.1-26.6 25.9 0 14.8 11.2 24.9 25.8 24.9zm.1-6.7c-9 0-16.6-7-16.6-18.6 0-9.7 5.5-18.8 17-18.8 11.7 0 16.7 10 16.7 18.5 0 12.1-7.9 18.9-17 18.9zM570.006 171.6l18.2 23.6-19.1 24.8h10.3l7.8-10.8c2.1-3 4-5.6 5.8-8.5h.2c1.9 2.8 3.7 5.6 5.8 8.5l8 10.8h10.5l-18.8-25.2 18.2-23.2h-10.2l-7.5 10.2c-1.9 2.7-3.6 5.1-5.4 7.8h-.2c-1.8-2.6-3.5-5-5.5-7.6l-7.8-10.4zM157.284 351.5c5.3 0 12.3-1.6 16.4-5.8 4.6-4.7 6.1-11.2 6.1-20.4v-43.7h-9.1v39.9c0 12.4-1.1 16.3-3.7 19.1-2.3 2.3-6 3.5-10.6 3.7zm17.9-78.3c3.7 0 5.8-2.7 5.8-5.6 0-3-2.2-5.6-5.6-5.6-3.6 0-5.9 2.6-5.9 5.6 0 2.9 2.1 5.6 5.6 5.6zM236.856 281.6h-9.1v28.9c0 1.7-.4 3.3-.9 4.6-2.1 4.5-6.9 8.6-13.2 8.6-8.9 0-12.3-6.5-12.3-16.2v-25.9h-9.1v27.5c0 18.6 11 22.1 18.3 22.1 9.8 0 15.4-5.6 17.9-10h.2l.5 8.8h8.1c-.3-3.9-.4-8.3-.4-13.3zM249.813 330h8.9v-28.7c0-1.5.3-3.1.8-4.4 1.6-4.2 6-9.1 12.2-9.1 7 0 11.2 5.5 11.2 14V330h8.9v-29.6c0-1.6.4-3.2.8-4.5 1.8-4.1 6-8.1 11.6-8.1 7.5 0 11.8 5.4 11.8 15.8V330h8.9v-27.3c0-18.4-11-22.3-17.4-22.3-5.3 0-8.7 1.4-12 3.9-2.1 1.5-4 3.6-5.7 6.5h-.2c-2.1-5.8-7.5-10.4-14.8-10.4-9 0-13.8 4.7-16.7 9.5h-.3l-.5-8.3h-7.9c.3 4.1.4 8.4.4 13.3zM337.438 350h9.1v-27.1h.2c3.4 5.5 9.9 8.3 17 8.3 12.6 0 24.3-9 24.3-26.3 0-14.3-9.9-24.5-22.7-24.5-9.2 0-15.6 4-19.4 10.1h-.2l-.5-8.9h-8.2c.3 5 .4 10.3.4 16zm9.1-47.3c0-1.2.3-2.5.7-3.6 2-7.4 8.5-11.6 15.3-11.6 10.4 0 16.3 8.3 16.3 17.8 0 11.6-6.5 18.9-16.8 18.9-7.6 0-13.5-5.2-15.1-11.1-.3-1.1-.4-2.2-.4-3.4zM393.633 327.6c3.8 2.1 9.1 3.6 14.9 3.6 12.6 0 19.3-6.4 19.3-14.6 0-7.4-4.3-11.5-13.6-14.5-6.8-2.2-10.2-4-10.2-8.2 0-3.8 3-6.8 8.6-6.8 5.1 0 9.2 1.9 11.1 3.1l2.2-6.6c-2.9-1.8-7.6-3.2-12.9-3.2-11.4 0-17.9 6.7-17.9 14.5 0 5.9 4.3 10.8 13.9 13.7 6.9 2.1 9.9 4.2 9.9 8.6 0 4-3 7.3-10.1 7.3-4.8 0-10-1.9-13-3.7zM479.144 331.2c12.9 0 26.6-8.3 26.6-26 0-14.1-10.2-24.8-25.9-24.8-15 0-26.6 10.1-26.6 25.9 0 14.8 11.2 24.9 25.8 24.9zm.1-6.7c-9 0-16.6-7-16.6-18.6 0-9.7 5.5-18.8 17-18.8 11.7 0 16.7 10 16.7 18.5 0 12.1-7.9 18.9-17 18.9zM507.214 281.6l20.3 48.4h9l21.1-48.4h-9.7l-10.6 27.1c-1.9 4.8-3.5 8.8-4.8 12.8h-.2c-1.3-4-2.7-7.8-4.6-12.7l-10.6-27.2zM604.877 307.7c.3-.9.4-2.2.4-4 0-8.3-4.2-23.3-21.9-23.3-15.7 0-25 12-25 26.3 0 14.5 9.9 24.5 25.9 24.5 9 0 14.8-2 18-3.3l-1.6-6.5c-3.7 1.5-7.9 2.7-15.2 2.7-10 0-18.1-5.5-18.3-16.4zm-37.6-6.5c.8-6 5.1-14.4 15.4-14.4 12 0 13.9 10.2 13.8 14.4zM614.164 330h9.1v-25.5c0-1.4.1-2.8.4-4.1 1.3-6.9 5.9-11.6 12.6-11.6 1.4 0 2.4.1 3.4.3v-8.4c-.9-.2-1.7-.3-2.7-.3-6.3 0-12.1 4.2-14.6 11.3h-.3l-.3-10.1h-8c.3 4.8.4 9.7.4 15.9zM138.84 382.4v9.2h-8v6.9h8v25.9c0 5.4 1 10 3.6 12.8 2.1 2.5 5.7 4 10.1 4 3.7 0 6.7-.6 8.6-1.4l-.5-6.8c-1.4.4-3 .7-5.7.7-5.6 0-7.2-4-7.2-9.9v-25.3h13.7v-6.9h-13.7v-11.7zM169.582 440h9.1v-28.6c0-1.8.1-3.1.7-4.4 1.8-4.6 6.8-9.1 13.3-9.1 9.2 0 12.7 6.9 12.7 15.3V440h9.1v-27.7c0-18.2-12-21.9-18.7-21.9-3.5 0-7 1-9.8 2.7-3.1 1.6-5.5 4.1-7.1 6.8h-.2v-31.5h-9.1zM269.53 417.7c.3-.9.4-2.2.4-4 0-8.3-4.2-23.3-21.9-23.3-15.7 0-25 12-25 26.3 0 14.5 9.9 24.5 25.9 24.5 9 0 14.8-2 18-3.3l-1.6-6.5c-3.7 1.5-7.9 2.7-15.2 2.7-10 0-18.1-5.5-18.3-16.4zm-37.6-6.5c.8-6 5.1-14.4 15.4-14.4 12 0 13.9 10.2 13.8 14.4zM298.863 440h9.1v-71.6h-9.1zM357.663 411.1c0-9.3-3.4-20.7-19.9-20.7-6.6 0-12.9 1.6-17.6 4.6l2.2 6c3.7-2.5 9.1-4 14.1-4 11.2-.1 12.1 8.2 12.1 11.2v.9c-21.3-.2-31.9 6.6-31.9 18.2 0 6.5 5 13.9 15.9 13.9 7.8 0 13.7-3.9 16.5-7.6h.3l.8 6.4h8.3c-.6-3.4-.8-7.5-.8-11.8zm-8.9 12.2c0 .9-.1 1.9-.5 2.8-1.6 3.9-6 8.4-13.3 8.4-5 0-9-2.8-9-8.4 0-9 11.4-11 22.8-10.7zM363.912 440h43.1v-7.2h-31.3v-.2c2.5-2.5 4.6-5 7-7.7l23.7-27.7.1-5.6h-40.6v7.2h29.2v.2c-2.6 2.7-4.7 4.9-7.1 7.8l-24.1 28zM409.226 391.6l19.7 44.6c.6 1.2.7 2 .7 2.4 0 .5-.2 1.2-.7 2-2.4 5.2-5.8 8.7-8.3 10.4-2.8 2-5.8 3.2-8 3.7l1.9 7.6c2.3-.3 6.8-1.5 11.5-5.1 6.1-4.5 10.7-11.9 18.1-30l15-35.6h-9.9l-10.8 28.6c-1.3 3.5-2.5 7.2-3.5 10.1h-.2c-.9-2.8-2.3-6.8-3.5-9.8l-11.9-28.9zM521.64 368.4v29.9h-.2c-2.2-3.8-7.8-7.9-16.5-7.9-13.3 0-24.2 10.4-24.1 26.3 0 14.2 10 24.5 23 24.5 8.8 0 15.4-4.3 18.5-10.3h.2l.4 9.1h8.2c-.3-3.5-.4-8.1-.4-12.8v-58.8zm0 50.2c0 1.4-.1 2.7-.5 4-1.6 6.4-7.6 11.3-14.6 11.3-10.9 0-16.5-8.2-16.5-17.9 0-10.9 6.5-18.6 16.6-18.6 7.5 0 12.9 4.6 14.6 10.4.3 1.2.4 2.7.4 3.9zM565.554 441.2c12.9 0 26.6-8.3 26.6-26 0-14.1-10.2-24.8-25.9-24.8-15 0-26.6 10.1-26.6 25.9 0 14.8 11.2 24.9 25.8 24.9zm.1-6.7c-9 0-16.6-7-16.6-18.6 0-9.7 5.5-18.8 17-18.8 11.7 0 16.7 10 16.7 18.5 0 12.1-7.9 18.9-17 18.9zM646.405 404.2c0-5.3.1-9.1.4-12.6h-8.1l-.3 7.9h-.2c-2.4-4.5-7.6-9.1-17.1-9.1-12.5 0-24 9.9-24 25.8 0 13.1 9.5 23.6 22.7 23.6 8.6 0 14.4-4.1 17.4-8.9h.2v5.5c0 12.7-7.5 17.7-17.5 17.7-6.7 0-12.3-2.1-15.9-4.4l-2.3 7c4.3 3 11.5 4.5 17.9 4.5 6.3 0 13.8-1.3 19.2-6 5.1-4.5 7.6-11.9 7.6-22.6zm-9.1 14.1c0 1.6-.3 3.4-.8 4.8-2 5.6-7.5 9.8-14 9.8-11 0-16.2-8.7-16.2-17.2 0-11.4 7-18.4 16.3-18.4 7.2 0 12.3 4.3 14.2 10 .3 1.3.5 2.6.5 4.1zM661.566 441.2c3.7 0 6.2-2.9 6.2-6.4 0-3.8-2.5-6.5-6.2-6.5s-6.2 2.7-6.2 6.5c-.1 3.5 2.5 6.4 6.1 6.4z"/></g></svg>