<svg xmlns="http://www.w3.org/2000/svg" viewBox="0 0 1600 1000" height="1000" width="1600"><path fill="#fff" d="M0 0h1600v1000H0z"/><g font-weight="400" font-size="200" font-family="Neutraface" letter-spacing="-.03em" text-anchor="middle" fill="#222"><path d="M471.494 220V96.8h-41.8V84h98v12.8h-41.8V220zM542.05 220V75.6h14v77.8q4-8.4 11.6-13.2 7.8-4.8 17.8-4.8 14 0 22.4 9.2 8.6 9 8.6 25V220h-14v-48.8q0-23-20.6-23-11.6 0-18.8 7-7 7-7 19.2V220zM647.975 183.2q1.4 12.2 9.4 19.4 8 7.2 21.4 7.2 16.4 0 26.2-11l8.6 8.4q-12.8 14.4-34.8 14.4-20 0-32.4-12.2-12.4-12.4-12.4-30.8 0-18.2 12.2-30.6 12.4-12.6 30.6-12.6 19.6 0 31 13.6 11.4 13.4 10.6 34.2zm.2-10.6h56.2q-1-11.2-8.2-18.2-7-7.2-19.4-7.2-11.6 0-19.4 7-7.6 6.8-9.2 18.4zM844.166 262.4v-59.6q-4.2 8.4-12.6 13.6-8.2 5.2-19 5.2-17 0-28.6-12.2-11.6-12.4-11.6-31 0-18.4 11.6-30.6 11.6-12.4 28.4-12.4 22.2 0 32.2 19.6l-.4-17.8h14v125.2zm-28.8-53q13.2 0 21.2-8.6 8.2-8.8 8.2-22.4 0-13.4-8.2-22-8-8.6-21.2-8.6-13 0-20.8 8.6-7.8 8.6-7.8 22 0 13.6 7.8 22.4 7.8 8.6 20.8 8.6zM912.313 221.8q-14 0-22.6-9-8.4-9.2-8.4-24.8v-50.8h14v49.4q0 22.4 20.4 22.4 11.8 0 18.8-7 7-7.2 7-19.2v-45.6h14V220h-14l.4-16.8q-4 8.8-11.8 13.8-7.8 4.8-17.8 4.8zM993.638 110.4q-3 2.8-7 2.8t-7-2.8q-3-2.8-3-7t3-7q3-3 7-3t7 3q3 2.8 3 7t-3 7zm-14 109.6v-82.8h14V220zM1055.57 221.6q-18.2 0-30.6-12.4-12.4-12.4-12.4-30.6 0-18.2 12.4-30.6 12.4-12.6 30.6-12.6 20.4 0 32.6 14.8l-10 8.2q-8-10.6-22.6-10.6-13 0-20.8 8.8-7.8 8.6-7.8 22t7.8 22.2q7.8 8.6 20.8 8.6 14.8 0 23.8-10.8l9.6 8.2q-12.2 14.8-33.4 14.8zM1119.128 194.8V220h-14V75.6h14v92.6q0 6.2-1 11.8l39.4-42.8h16.2l-31.8 34.8 36.8 48h-16.6l-30-38.8zM473.533 441.6q-10.8 0-19.2-5.2-8.4-5.4-12.8-14.2l.4 17.8h-13.8V295.6h13.8v78.6q10.2-18.8 31.8-18.8 17 0 28.4 12.4 11.6 12.2 11.6 30.6 0 18.6-11.6 31-11.6 12.2-28.6 12.2zm-2.8-12.2q13 0 20.8-8.6 7.8-8.8 7.8-22.4 0-13.4-7.8-22t-20.8-8.6q-13.2 0-21.4 8.6-8 8.6-8 22 0 13.6 8 22.4 8.2 8.6 21.4 8.6zM532.09 440v-82.8h14l-.4 16.2q7.4-17.8 24.2-17.8 8.6 0 14.4 4l-5.4 12.2q-4.6-3.2-11.4-3.2-9.4 0-15.4 7t-6 20.8V440zM634.42 441.6q-18.6 0-31.4-12.4-12.6-12.4-12.6-30.6 0-18.2 12.6-30.6 12.8-12.6 31.4-12.6 18.4 0 31 12.6 12.6 12.4 12.6 30.6 0 18.2-12.6 30.6-12.6 12.4-31 12.4zm0-12q13 0 21.2-8.8t8.2-22.2q0-13.4-8.2-22.2-8.2-8.8-21.2-8.8-13.2 0-21.6 8.8-8.2 8.8-8.2 22.2 0 13.4 8.2 22.2 8.4 8.8 21.6 8.8zM718.508 441.8l-34-84.6h15.2l17.8 45.6 3.8 12.8q1.6-7.4 4.2-12.8l21.6-46.8h1.8l22 46.6q1.2 2.4 2.2 5.8 1.2 3.2 1.6 5.2l.6 2q1.6-7.6 3.8-13l17.8-45.4h14.2l-34.4 84.6h-2l-22.8-49.8q-1-2.2-2-5.2-1-3.2-1.6-5.2l-.4-1.8q-1.8 7.4-4 12.2l-23.4 49.8zM825.027 440v-82.8h14l-.4 17q4-8.8 11.8-13.8 8-5 18-5 14 0 22.4 9.2 8.6 9 8.6 25V440h-14v-48.8q0-23-20.6-23-11.6 0-18.8 7-7 7-7 19.2V440zM968.817 440v-71h-13.4v-11.8h13.4v-37.6q0-13.4 6.2-20t16.8-6.6q14 0 21 10.2l-9.2 8.2q-4.4-5.8-10.6-5.8-10.2 0-10.2 14v37.6h22.2V369h-22.2v71zM1056.764 441.6q-18.6 0-31.4-12.4-12.6-12.4-12.6-30.6 0-18.2 12.6-30.6 12.8-12.6 31.4-12.6 18.4 0 31 12.6 12.6 12.4 12.6 30.6 0 18.2-12.6 30.6-12.6 12.4-31 12.4zm0-12q13 0 21.2-8.8t8.2-22.2q0-13.4-8.2-22.2-8.2-8.8-21.2-8.8-13.2 0-21.6 8.8-8.2 8.8-8.2 22.2 0 13.4 8.2 22.2 8.4 8.8 21.6 8.8zM1104.927 440l32.8-44-28.4-38.8h16.6l15.6 21.6 4.8 8.6q1.6-5.4 4-8.6l15.8-21.6h15.4l-28 37.8 33 45h-16.8l-19.6-27.2-5.2-9.2q-2.4 6-4.8 9.2l-19.8 27.2zM406.66 550.4q-3 2.8-7 2.8t-7-2.8q-3-2.8-3-7t3-7q3-3 7-3t7 3q3 2.8 3 7t-3 7zm-22.2 154q-11 0-18.4-8.2l7.8-8.4q5 4.6 9.6 4.6 9.2 0 9.2-12.6V577.2h14v102.4q0 12-6 18.4-6 6.4-16.2 6.4zM460.992 661.8q-14 0-22.6-9-8.4-9.2-8.4-24.8v-50.8h14v49.4q0 22.4 20.4 22.4 11.8 0 18.8-7 7-7.2 7-19.2v-45.6h14V660h-14l.4-16.8q-4 8.8-11.8 13.8-7.8 4.8-17.8 4.8zM527.917 660v-82.8h14l-.4 15.6q8.4-17.4 26-17.4 19 0 25 17.4 9.6-17.4 28.6-17.4 13.6 0 21.4 8.6 8 8.4 8 23v53h-13.8v-51.2q0-20.6-18.2-20.6-10.2 0-16.2 6.8-6 6.6-6 18.6V660h-14v-51.2q0-20.6-18-20.6-10.2 0-16.4 6.8-6 6.6-6 18.6V660zM673.68 702.4V577.2h13.8l-.4 17.8q10-19.6 32.2-19.6 17 0 28.4 12.4 11.6 12.2 11.6 30.6 0 18.6-11.6 31-11.6 12.2-28.6 12.2-10.8 0-19.2-5.2-8.2-5.2-12.4-13.6v59.6zm42.6-53q13 0 20.8-8.6 7.8-8.8 7.8-22.4 0-13.4-7.8-22t-20.8-8.6q-13.2 0-21.4 8.6-8 8.6-8 22 0 13.6 8 22.4 8.2 8.6 21.4 8.6zM804.264 661.6q-12.8 0-22-5.4-9-5.4-13.4-13.8l10.8-6.2q8.4 14 24 14 8.4 0 13-3.2 4.6-3.4 4.6-9.2 0-6.2-4.6-8.8-4.4-2.8-17-6.4-12-3.4-18.6-8.6-6.4-5.4-6.4-16 0-10.4 7.6-16.4 7.8-6.2 19.6-6.2 18.2 0 27.6 13.4l-9.6 7.4q-6.8-9.4-18-9.4-6.6 0-10.6 3-3.8 2.8-3.8 7.6 0 5.6 4 8.2 4 2.6 15.6 6 12.8 3.4 20 9 7.4 5.6 7.4 16.4 0 11-7.6 17.8-7.6 6.8-22.6 6.8zM932.56 661.6q-18.6 0-31.4-12.4-12.6-12.4-12.6-30.6 0-18.2 12.6-30.6 12.8-12.6 31.4-12.6 18.4 0 31 12.6 12.6 12.4 12.6 30.6 0 18.2-12.6 30.6-12.6 12.4-31 12.4zm0-12q13 0 21.2-8.8t8.2-22.2q0-13.4-8.2-22.2-8.2-8.8-21.2-8.8-13.2 0-21.6 8.8-8.2 8.8-8.2 22.2 0 13.4 8.2 22.2 8.4 8.8 21.6 8.8zM1021.677 661.6l-40.2-84.4h15.4l22 47.8q1.2 2.4 2.2 6 1.2 3.6 1.8 5.8l.6 2.4q1.8-8.6 4.4-14.2l21.6-47.8h14.4l-39.6 84.4zM1083.53 623.2q1.4 12.2 9.4 19.4 8 7.2 21.4 7.2 16.4 0 26.2-11l8.6 8.4q-12.8 14.4-34.8 14.4-20 0-32.4-12.2-12.4-12.4-12.4-30.8 0-18.2 12.2-30.6 12.4-12.6 30.6-12.6 19.6 0 31 13.6 11.4 13.4 10.6 34.2zm.2-10.6h56.2q-1-11.2-8.2-18.2-7-7.2-19.4-7.2-11.6 0-19.4 7-7.6 6.8-9.2 18.4zM1171.855 660v-82.8h14l-.4 16.2q7.4-17.8 24.2-17.8 8.6 0 14.4 4l-5.4 12.2q-4.6-3.2-11.4-3.2-9.4 0-15.4 7t-6 20.8V660zM360.808 881.8q-10.2 0-16.2-6.4t-6-20.4v-46h-12.8v-11.8h12.8V754h13.8v43.2h23.2V809h-23.2v46.2q0 14.4 9.8 14.4 6 0 11.2-4.8l7.6 8.8q-7.8 8.2-20.2 8.2zM394.995 880V735.6h14v77.8q4-8.4 11.6-13.2 7.8-4.8 17.8-4.8 14 0 22.4 9.2 8.6 9 8.6 25V880h-14v-48.8q0-23-20.6-23-11.6 0-18.8 7-7 7-7 19.2V880zM500.92 843.2q1.4 12.2 9.4 19.4 8 7.2 21.4 7.2 16.4 0 26.2-11l8.6 8.4q-12.8 14.4-34.8 14.4-20 0-32.4-12.2-12.4-12.4-12.4-30.8 0-18.2 12.2-30.6 12.4-12.6 30.6-12.6 19.6 0 31 13.6 11.4 13.4 10.6 34.2zm.2-10.6h56.2q-1-11.2-8.2-18.2-7-7.2-19.4-7.2-11.6 0-19.4 7-7.6 6.8-9.2 18.4zM631.51 880V735.6h14V880zM721.614 831.4v-2q0-22.2-19.4-22.2-15.2 0-24.2 12l-8.6-7.8q11.8-16 33.8-16 14.4 0 23.4 8.6 9 8.6 9 25.2V880h-14l.6-12.4q-9.4 14-27.4 14-13.8 0-22.2-6.4-8.2-6.4-8.2-18.8 0-12.2 8.8-18.6 8.8-6.4 22.6-6.4zm0 10.6h-24.8q-18.8 0-18.8 13.8 0 14.4 20 14.4 9.8 0 16.6-4.8 7-5 7-13zM749.955 880v-2l47.8-69.2h-42.6v-11.6h65.2v2.2l-48.2 69h47.2V880zM842.102 922.4l21.2-49.4-35.2-75.8h15.4l23.4 51.4q1 2.4 1.8 6 1 3.4 1.6 5.8l.4 2.2q1.4-8.8 3.8-14l21.6-51.4h14.4l-54 125.2zM1000.745 881.6q-17 0-28.6-12.2-11.6-12.4-11.6-31 0-18.4 11.6-30.6 11.6-12.4 28.4-12.4 21.6 0 31.8 18.8v-78.6h13.8V880h-13.8l.4-17.8q-4.4 8.8-12.8 14.2-8.4 5.2-19.2 5.2zm2.8-12.2q13.2 0 21.2-8.6 8.2-8.8 8.2-22.4 0-13.4-8.2-22-8-8.6-21.2-8.6-13 0-20.8 8.6-7.8 8.6-7.8 22 0 13.6 7.8 22.4 7.8 8.6 20.8 8.6zM1108.702 881.6q-18.6 0-31.4-12.4-12.6-12.4-12.6-30.6 0-18.2 12.6-30.6 12.8-12.6 31.4-12.6 18.4 0 31 12.6 12.6 12.4 12.6 30.6 0 18.2-12.6 30.6-12.6 12.4-31 12.4zm0-12q13 0 21.2-8.8t8.2-22.2q0-13.4-8.2-22.2-8.2-8.8-21.2-8.8-13.2 0-21.6 8.8-8.2 8.8-8.2 22.2 0 13.4 8.2 22.2 8.4 8.8 21.6 8.8zM1212.59 797.2h30v10.6h-16.2q6.6 7 6.6 17 0 12.8-9 21.2-9 8.4-23.2 8.4-10 0-17-3.8-6.8 1.8-6.8 8.4 0 7.8 10.8 8.4l21.2 1.6q34.8 2.6 34.8 26.2 0 13.6-11.8 21.4-11.8 8-32.2 8-19.8 0-31.2-7.4-11.2-7.2-11.2-19.8 0-15.6 19.6-21.6-11.6-3.8-11.6-15.4 0-10.6 11.4-15.2-9-7.8-9-20.4 0-12.8 9.2-21 9.4-8.4 23.8-8.4 6.4 0 11.8 1.8zm-12 46.4q9.2 0 14.4-5 5.4-5.2 5.4-13.8 0-8.4-5.4-13.4-5.2-5.2-14.4-5.2-9.4 0-14.8 5.2-5.2 5-5.2 13.4 0 8.6 5.2 13.8 5.4 5 14.8 5zm-14.8 36.4q-14.6 4.4-14.6 16.2 0 17.2 28.6 17.2 14 0 21.8-4.6 8-4.6 8-13 0-7-5-10.4-5-3.2-18-4zM1260.958 881.4q-4.2 0-7.6-3.2-3.2-3.2-3.2-7.8t3.2-7.6q3.2-3.2 7.6-3.2 4.4 0 7.6 3.2 3.2 3 3.2 7.6t-3.2 7.8q-3.2 3.2-7.6 3.2z"/></g></svg>