<svg xmlns="http://www.w3.org/2000/svg" viewBox="0 0 800 500"><path fill="#fff" d="M0 0h800v500H0z"/><g font-weight="400" font-size="100" font-family="Neutraface" text-anchor="middle" fill="#111"><path d="M222.247 110V48.4h-20.9V42h49v6.4h-20.9V110zM260.525 110V37.8h7v38.9q2-4.2 5.8-6.6 3.9-2.4 8.9-2.4 7 0 11.2 4.6 4.3 4.5 4.3 12.5V110h-7V85.6q0-11.5-10.3-11.5-5.8 0-9.4 3.5-3.5 3.5-3.5 9.6V110zM316.488 91.6q.7 6.1 4.7 9.7 4 3.6 10.7 3.6 8.2 0 13.1-5.5l4.3 4.2q-6.4 7.2-17.4 7.2-10 0-16.2-6.1-6.2-6.2-6.2-15.4 0-9.1 6.1-15.3 6.2-6.3 15.3-6.3 9.8 0 15.5 6.8 5.7 6.7 5.3 17.1zm.1-5.3h28.1q-.5-5.6-4.1-9.1-3.5-3.6-9.7-3.6-5.8 0-9.7 3.5-3.8 3.4-4.6 9.2zM420.583 131.2v-29.8q-2.1 4.2-6.3 6.8-4.1 2.6-9.5 2.6-8.5 0-14.3-6.1-5.8-6.2-5.8-15.5 0-9.2 5.8-15.3 5.8-6.2 14.2-6.2 11.1 0 16.1 9.8l-.2-8.9h7v62.6zm-14.4-26.5q6.6 0 10.6-4.3 4.1-4.4 4.1-11.2 0-6.7-4.1-11-4-4.3-10.6-4.3-6.5 0-10.4 4.3-3.9 4.3-3.9 11 0 6.8 3.9 11.2 3.9 4.3 10.4 4.3zM457.656 110.9q-7 0-11.3-4.5-4.2-4.6-4.2-12.4V68.6h7v24.7q0 11.2 10.2 11.2 5.9 0 9.4-3.5 3.5-3.6 3.5-9.6V68.6h7V110h-7l.2-8.4q-2 4.4-5.9 6.9-3.9 2.4-8.9 2.4zM501.32 55.2q-1.5 1.4-3.5 1.4t-3.5-1.4q-1.5-1.4-1.5-3.5t1.5-3.5q1.5-1.5 3.5-1.5t3.5 1.5q1.5 1.4 1.5 3.5t-1.5 3.5zm-7 54.8V68.6h7V110zM535.284 110.8q-9.1 0-15.3-6.2-6.2-6.2-6.2-15.3 0-9.1 6.2-15.3 6.2-6.3 15.3-6.3 10.2 0 16.3 7.4l-5 4.1q-4-5.3-11.3-5.3-6.5 0-10.4 4.4-3.9 4.3-3.9 11t3.9 11.1q3.9 4.3 10.4 4.3 7.4 0 11.9-5.4l4.8 4.1q-6.1 7.4-16.7 7.4zM570.064 97.4V110h-7V37.8h7v46.3q0 3.1-.5 5.9l19.7-21.4h8.1l-15.9 17.4 18.4 24h-8.3l-15-19.4zM223.266 220.8q-5.4 0-9.6-2.6-4.2-2.7-6.4-7.1l.2 8.9h-6.9v-72.2h6.9v39.3q5.1-9.4 15.9-9.4 8.5 0 14.2 6.2 5.8 6.1 5.8 15.3 0 9.3-5.8 15.5-5.8 6.1-14.3 6.1zm-1.4-6.1q6.5 0 10.4-4.3 3.9-4.4 3.9-11.2 0-6.7-3.9-11t-10.4-4.3q-6.6 0-10.7 4.3-4 4.3-4 11 0 6.8 4 11.2 4.1 4.3 10.7 4.3zM255.545 220v-41.4h7l-.2 8.1q3.7-8.9 12.1-8.9 4.3 0 7.2 2l-2.7 6.1q-2.3-1.6-5.7-1.6-4.7 0-7.7 3.5t-3 10.4V220zM309.71 220.8q-9.3 0-15.7-6.2-6.3-6.2-6.3-15.3 0-9.1 6.3-15.3 6.4-6.3 15.7-6.3 9.2 0 15.5 6.3 6.3 6.2 6.3 15.3 0 9.1-6.3 15.3-6.3 6.2-15.5 6.2zm0-6q6.5 0 10.6-4.4t4.1-11.1q0-6.7-4.1-11.1-4.1-4.4-10.6-4.4-6.6 0-10.8 4.4-4.1 4.4-4.1 11.1 0 6.7 4.1 11.1 4.2 4.4 10.8 4.4zM354.754 220.9l-17-42.3h7.6l8.9 22.8 1.9 6.4q.8-3.7 2.1-6.4l10.8-23.4h.9l11 23.3q.6 1.2 1.1 2.9.6 1.6.8 2.6l.3 1q.8-3.8 1.9-6.5l8.9-22.7h7.1l-17.2 42.3h-1l-11.4-24.9q-.5-1.1-1-2.6-.5-1.6-.8-2.6l-.2-.9q-.9 3.7-2 6.1l-11.7 24.9zM411.013 220v-41.4h7l-.2 8.5q2-4.4 5.9-6.9 4-2.5 9-2.5 7 0 11.2 4.6 4.3 4.5 4.3 12.5V220h-7v-24.4q0-11.5-10.3-11.5-5.8 0-9.4 3.5-3.5 3.5-3.5 9.6V220zM488.91 220v-35.5h-6.7v-5.9h6.7v-18.8q0-6.7 3.1-10t8.4-3.3q7 0 10.5 5.1l-4.6 4.1q-2.2-2.9-5.3-2.9-5.1 0-5.1 7v18.8h11.1v5.9h-11.1V220zM535.882 220.8q-9.3 0-15.7-6.2-6.3-6.2-6.3-15.3 0-9.1 6.3-15.3 6.4-6.3 15.7-6.3 9.2 0 15.5 6.3 6.3 6.2 6.3 15.3 0 9.1-6.3 15.3-6.3 6.2-15.5 6.2zm0-6q6.5 0 10.6-4.4t4.1-11.1q0-6.7-4.1-11.1-4.1-4.4-10.6-4.4-6.6 0-10.8 4.4-4.1 4.4-4.1 11.1 0 6.7 4.1 11.1 4.2 4.4 10.8 4.4zM562.963 220l16.4-22-14.2-19.4h8.3l7.8 10.8 2.4 4.3q.8-2.7 2-4.3l7.9-10.8h7.7l-14 18.9 16.5 22.5h-8.4l-9.8-13.6-2.6-4.6q-1.2 3-2.4 4.6l-9.9 13.6zM188.33 275.2q-1.5 1.4-3.5 1.4t-3.5-1.4q-1.5-1.4-1.5-3.5t1.5-3.5q1.5-1.5 3.5-1.5t3.5 1.5q1.5 1.4 1.5 3.5t-1.5 3.5zm-11.1 77q-5.5 0-9.2-4.1l3.9-4.2q2.5 2.3 4.8 2.3 4.6 0 4.6-6.3v-51.3h7v51.2q0 6-3 9.2-3 3.2-8.1 3.2zM218.496 330.9q-7 0-11.3-4.5-4.2-4.6-4.2-12.4v-25.4h7v24.7q0 11.2 10.2 11.2 5.9 0 9.4-3.5 3.5-3.6 3.5-9.6v-22.8h7V330h-7l.2-8.4q-2 4.4-5.9 6.9-3.9 2.4-8.9 2.4zM254.96 330v-41.4h7l-.2 7.8q4.2-8.7 13-8.7 9.5 0 12.5 8.7 4.8-8.7 14.3-8.7 6.8 0 10.7 4.3 4 4.2 4 11.5V330h-6.9v-25.6q0-10.3-9.1-10.3-5.1 0-8.1 3.4-3 3.3-3 9.3V330h-7v-25.6q0-10.3-9-10.3-5.1 0-8.2 3.4-3 3.3-3 9.3V330zM330.84 351.2v-62.6h6.9l-.2 8.9q5-9.8 16.1-9.8 8.5 0 14.2 6.2 5.8 6.1 5.8 15.3 0 9.3-5.8 15.5-5.8 6.1-14.3 6.1-5.4 0-9.6-2.6-4.1-2.6-6.2-6.8v29.8zm21.3-26.5q6.5 0 10.4-4.3 3.9-4.4 3.9-11.2 0-6.7-3.9-11t-10.4-4.3q-6.6 0-10.7 4.3-4 4.3-4 11 0 6.8 4 11.2 4.1 4.3 10.7 4.3zM399.132 330.8q-6.4 0-11-2.7-4.5-2.7-6.7-6.9l5.4-3.1q4.2 7 12 7 4.2 0 6.5-1.6 2.3-1.7 2.3-4.6 0-3.1-2.3-4.4-2.2-1.4-8.5-3.2-6-1.7-9.3-4.3-3.2-2.7-3.2-8 0-5.2 3.8-8.2 3.9-3.1 9.8-3.1 9.1 0 13.8 6.7l-4.8 3.7q-3.4-4.7-9-4.7-3.3 0-5.3 1.5-1.9 1.4-1.9 3.8 0 2.8 2 4.1 2 1.3 7.8 3 6.4 1.7 10 4.5 3.7 2.8 3.7 8.2 0 5.5-3.8 8.9-3.8 3.4-11.3 3.4zM469.28 330.8q-9.3 0-15.7-6.2-6.3-6.2-6.3-15.3 0-9.1 6.3-15.3 6.4-6.3 15.7-6.3 9.2 0 15.5 6.3 6.3 6.2 6.3 15.3 0 9.1-6.3 15.3-6.3 6.2-15.5 6.2zm0-6q6.5 0 10.6-4.4t4.1-11.1q0-6.7-4.1-11.1-4.1-4.4-10.6-4.4-6.6 0-10.8 4.4-4.1 4.4-4.1 11.1 0 6.7 4.1 11.1 4.2 4.4 10.8 4.4zM516.838 330.8l-20.1-42.2h7.7l11 23.9q.6 1.2 1.1 3 .6 1.8.9 2.9l.3 1.2q.9-4.3 2.2-7.1l10.8-23.9h7.2l-19.8 42.2zM550.765 311.6q.7 6.1 4.7 9.7 4 3.6 10.7 3.6 8.2 0 13.1-5.5l4.3 4.2q-6.4 7.2-17.4 7.2-10 0-16.2-6.1-6.2-6.2-6.2-15.4 0-9.1 6.1-15.3 6.2-6.3 15.3-6.3 9.8 0 15.5 6.8 5.7 6.7 5.3 17.1zm.1-5.3h28.1q-.5-5.6-4.1-9.1-3.5-3.6-9.7-3.6-5.8 0-9.7 3.5-3.8 3.4-4.6 9.2zM597.927 330v-41.4h7l-.2 8.1q3.7-8.9 12.1-8.9 4.3 0 7.2 2l-2.7 6.1q-2.3-1.6-5.7-1.6-4.7 0-7.7 3.5t-3 10.4V330zM162.404 440.9q-5.1 0-8.1-3.2t-3-10.2v-23h-6.4v-5.9h6.4V377h6.9v21.6h11.6v5.9h-11.6v23.1q0 7.2 4.9 7.2 3 0 5.6-2.4l3.8 4.4q-3.9 4.1-10.1 4.1zM182.498 440v-72.2h7v38.9q2-4.2 5.8-6.6 3.9-2.4 8.9-2.4 7 0 11.2 4.6 4.3 4.5 4.3 12.5V440h-7v-24.4q0-11.5-10.3-11.5-5.8 0-9.4 3.5-3.5 3.5-3.5 9.6V440zM238.46 421.6q.7 6.1 4.7 9.7 4 3.6 10.7 3.6 8.2 0 13.1-5.5l4.3 4.2q-6.4 7.2-17.4 7.2-10 0-16.2-6.1-6.2-6.2-6.2-15.4 0-9.1 6.1-15.3 6.2-6.3 15.3-6.3 9.8 0 15.5 6.8 5.7 6.7 5.3 17.1zm.1-5.3h28.1q-.5-5.6-4.1-9.1-3.5-3.6-9.7-3.6-5.8 0-9.7 3.5-3.8 3.4-4.6 9.2zM309.755 440v-72.2h7V440zM357.807 415.7v-1q0-11.1-9.7-11.1-7.6 0-12.1 6l-4.3-3.9q5.9-8 16.9-8 7.2 0 11.7 4.3 4.5 4.3 4.5 12.6V440h-7l.3-6.2q-4.7 7-13.7 7-6.9 0-11.1-3.2-4.1-3.2-4.1-9.4 0-6.1 4.4-9.3 4.4-3.2 11.3-3.2zm0 5.3h-12.4q-9.4 0-9.4 6.9 0 7.2 10 7.2 4.9 0 8.3-2.4 3.5-2.5 3.5-6.5zM374.977 440v-1l23.9-34.6h-21.3v-5.8h32.6v1.1l-24.1 34.5h23.6v5.8zM424.05 461.2l10.6-24.7-17.6-37.9h7.7l11.7 25.7q.5 1.2.9 3 .5 1.7.8 2.9l.2 1.1q.7-4.4 1.9-7l10.8-25.7h7.2l-27 62.6zM509.373 440.8q-8.5 0-14.3-6.1-5.8-6.2-5.8-15.5 0-9.2 5.8-15.3 5.8-6.2 14.2-6.2 10.8 0 15.9 9.4v-39.3h6.9V440h-6.9l.2-8.9q-2.2 4.4-6.4 7.1-4.2 2.6-9.6 2.6zm1.4-6.1q6.6 0 10.6-4.3 4.1-4.4 4.1-11.2 0-6.7-4.1-11-4-4.3-10.6-4.3-6.5 0-10.4 4.3-3.9 4.3-3.9 11 0 6.8 3.9 11.2 3.9 4.3 10.4 4.3zM566.35 440.8q-9.3 0-15.7-6.2-6.3-6.2-6.3-15.3 0-9.1 6.3-15.3 6.4-6.3 15.7-6.3 9.2 0 15.5 6.3 6.3 6.2 6.3 15.3 0 9.1-6.3 15.3-6.3 6.2-15.5 6.2zm0-6q6.5 0 10.6-4.4t4.1-11.1q0-6.7-4.1-11.1-4.1-4.4-10.6-4.4-6.6 0-10.8 4.4-4.1 4.4-4.1 11.1 0 6.7 4.1 11.1 4.2 4.4 10.8 4.4zM621.295 398.6h15v5.3h-8.1q3.3 3.5 3.3 8.5 0 6.4-4.5 10.6-4.5 4.2-11.6 4.2-5 0-8.5-1.9-3.4.9-3.4 4.2 0 3.9 5.4 4.2l10.6.8q17.4 1.3 17.4 13.1 0 6.8-5.9 10.7-5.9 4-16.1 4-9.9 0-15.6-3.7-5.6-3.6-5.6-9.9 0-7.8 9.8-10.8-5.8-1.9-5.8-7.7 0-5.3 5.7-7.6-4.5-3.9-4.5-10.2 0-6.4 4.6-10.5 4.7-4.2 11.9-4.2 3.2 0 5.9.9zm-6 23.2q4.6 0 7.2-2.5 2.7-2.6 2.7-6.9 0-4.2-2.7-6.7-2.6-2.6-7.2-2.6-4.7 0-7.4 2.6-2.6 2.5-2.6 6.7 0 4.3 2.6 6.9 2.7 2.5 7.4 2.5zm-7.4 18.2q-7.3 2.2-7.3 8.1 0 8.6 14.3 8.6 7 0 10.9-2.3 4-2.3 4-6.5 0-3.5-2.5-5.2-2.5-1.6-9-2zM648.48 440.7q-2.1 0-3.8-1.6-1.6-1.6-1.6-3.9t1.6-3.8q1.6-1.6 3.8-1.6 2.2 0 3.8 1.6 1.6 1.5 1.6 3.8t-1.6 3.9q-1.6 1.6-3.8 1.6z"/></g></svg>