<svg xmlns="http://www.w3.org/2000/svg" viewBox="0 0 800 500"><path fill="#fff" d="M0 0h800v500H0z"/><g font-weight="400" font-size="100" font-family="News Gothic MT" text-anchor="middle" fill="#111"><path d="M174.463 35.977h54.248v7.08h-23.437V110h-7.177V43.057h-23.633zM237.45 35.977h7.13V63.32q9.033-4.54 12.842-5.713 3.857-1.17 7.422-1.17 6.347 0 10.35 4.393 4.054 4.395 4.054 13.086V110h-7.13V72.305q0-4.54-2.39-6.885-2.345-2.393-6.642-2.393-3.81 0-8.447 1.612-4.59 1.56-10.06 4.735V110h-7.13zM337.06 98.232q-4.833 6.495-10.302 9.668-5.47 3.174-11.328 3.174-9.278 0-15.918-7.275-6.64-7.325-6.64-20.363 0-12.548 6.542-19.775 6.592-7.226 15.38-7.226 5.86 0 11.28 3.466 5.42 3.418 8.106 9.278 2.734 5.86 2.88 15.234H300q.244 6.25 1.904 10.254 2.198 5.273 5.908 7.715 3.71 2.392 7.178 2.392 8.692 0 16.26-10.644zm-7.42-20.214q-.783-7.422-5.08-11.622-4.248-4.248-9.62-4.248-6.542 0-10.497 5.03-3.906 4.98-4.15 10.84zM418.066 103.213q-4.394 3.906-8.886 5.908-4.493 1.954-9.034 1.954-8.935 0-15.43-7.275-6.445-7.325-6.445-20.265 0-12.55 6.544-19.824 6.543-7.274 15.284-7.274 4.54 0 8.545 1.757 4.052 1.71 9.423 6.25V57.51h7.178v72.46h-7.178zm0-32.52q-4.98-4.297-9.033-6.103-4.004-1.856-8.35-1.856-6.25 0-10.742 5.323-4.49 5.273-4.49 15.918 0 10.4 4.394 15.527 4.394 5.127 10.693 5.127 4.443 0 8.838-1.954 4.395-1.953 8.69-5.86zM442.822 57.51h7.13v34.424q0 5.712 2.782 8.935 2.832 3.222 6.69 3.222 3.467 0 7.568-1.856 4.102-1.904 10.4-7.13V57.51h7.178V110h-7.177v-8.447q-5.957 4.736-10.89 7.13-4.93 2.39-8.886 2.39-3.808 0-7.178-1.708-3.32-1.758-5.47-5.713-2.148-4.004-2.148-10.4zM504.443 36.66h7.13v8.545h-7.13zm0 20.85h7.13V110h-7.13zM570.8 97.256q-3.564 6.396-7.812 9.57-5.664 4.248-12.744 4.248-6.152 0-11.572-3.32-5.37-3.32-8.35-9.62-2.93-6.298-2.93-14.452 0-12.55 6.69-19.873 6.738-7.374 16.21-7.374 6.397 0 11.622 3.37 5.225 3.368 8.887 10.106l-6.2 3.37q-2.98-5.518-6.446-8.204-3.467-2.734-7.96-2.734-6.395 0-11.083 5.468-4.637 5.47-4.637 16.31 0 9.57 4.687 15.136 4.736 5.566 10.84 5.566 9.23 0 14.6-10.986zM584.424 35.977h7.13v48.29L615.38 57.51h9.376l-17.383 18.36L626.465 110h-7.91L602.98 80.508l-11.427 12.11V110h-7.13zM180.86 145.977h7.08V174.2q3.466-3.516 8.398-5.616 4.932-2.148 9.52-2.148 8.888 0 15.333 7.324 6.496 7.324 6.496 19.97 0 8.008-2.93 14.502-2.88 6.446-8.154 9.668-5.225 3.174-10.987 3.174-4.394 0-8.545-1.806-4.15-1.856-9.13-6.153V220h-7.08zm7.08 60.937q5.468 4.346 9.326 6.006 3.906 1.61 7.812 1.61 6.445 0 10.986-5.32 4.54-5.323 4.54-15.724 0-10.205-4.588-15.478-4.59-5.274-11.426-5.274-4.15 0-8.35 1.954-4.15 1.904-8.3 5.81zM249.658 179.375q4.395-6.738 9.18-9.863 4.834-3.125 10.986-3.125.684 0 1.953.05l-1.025 7.86-2.588-.147q-2.832-.146-6.348 1.368-3.515 1.464-6.298 4.687-2.735 3.223-4.297 8.008-1.562 4.785-1.562 8.447V220h-7.13v-52.49h7.13zM302.88 221.074q-10.107 0-16.99-7.373-6.886-7.372-6.886-19.823 0-8.3 3.027-14.697 3.077-6.446 8.546-9.57 5.47-3.174 11.62-3.174 5.958 0 11.378 3.27 5.47 3.224 8.643 9.815 3.174 6.544 3.174 14.65 0 12.353-6.69 19.63-6.688 7.274-15.82 7.274zm-.634-6.054q6.445 0 11.182-5.567 4.785-5.566 4.785-15.967 0-10.254-4.64-15.625-4.637-5.37-11.18-5.37-6.934 0-11.67 5.47-4.688 5.468-4.688 15.624 0 10.4 4.736 15.918 4.738 5.518 11.476 5.518zM331.738 167.51h6.885l12.06 38.183 12.16-38.183h5.468l12.354 39.16 12.256-39.16h6.885L383.057 220h-5.03l-12.45-39.746-12.5 39.746h-4.786zM418.652 173.564q5.762-3.418 11.133-5.273 5.42-1.854 8.79-1.854 3.76 0 6.933 1.61 3.222 1.563 5.566 5.47 2.344 3.857 2.344 9.62V220h-7.13v-36.328q0-5.42-2.392-8.057-2.392-2.636-6.494-2.636-3.76 0-8.447 1.61-4.687 1.61-10.303 4.883V220h-7.13v-52.49h7.13zM504.98 167.51v-8.203q0-6.055 3.907-9.668 3.906-3.663 10.937-3.663 1.563 0 3.76.146v6.69q-2.148-.245-3.516-.245-3.906 0-5.957 2.002-2.05 2.002-2.05 5.37v7.57h10.84v6.494h-10.84V220h-7.08v-45.996h-9.814v-6.494zM553.76 221.074q-10.108 0-16.992-7.373-6.885-7.372-6.885-19.823 0-8.3 3.027-14.697 3.076-6.446 8.545-9.57 5.47-3.174 11.62-3.174 5.958 0 11.378 3.27 5.47 3.224 8.643 9.815 3.174 6.544 3.174 14.65 0 12.353-6.69 19.63-6.69 7.274-15.82 7.274zm-.635-6.054q6.445 0 11.182-5.567 4.785-5.566 4.785-15.967 0-10.254-4.64-15.625-4.638-5.37-11.18-5.37-6.934 0-11.67 5.47-4.688 5.468-4.688 15.624 0 10.4 4.736 15.918 4.737 5.518 11.475 5.518zM582.03 167.51h8.253l13.233 19.19 13.086-19.19h8.252l-17.237 25.293L626.074 220h-8.154l-14.404-21.143L589.21 220h-8.253l18.457-27.197zM151.318 256.66h7.08v8.594h-7.08zm0 20.85h7.08v58.69q0 6.886-3.564 10.89-3.516 4.004-8.74 4.004-.928 0-2.637-.244v-7.96q1.22.196 1.904.196 2.54 0 3.956-1.71 2.002-2.392 2.002-5.907zM176.22 277.51h7.13v34.424q0 5.712 2.783 8.935 2.832 3.222 6.69 3.222 3.466 0 7.568-1.856 4.102-1.904 10.4-7.13V277.51h7.18V330h-7.18v-8.447q-5.956 4.736-10.888 7.13-4.93 2.39-8.886 2.39-3.81 0-7.178-1.708-3.32-1.758-5.47-5.713-2.147-4.004-2.147-10.4zM244.14 285.81q9.13-6.103 13.33-7.714 4.2-1.66 8.106-1.66 4.346 0 7.47 2.294 3.126 2.247 4.884 7.08 9.13-6.152 13.28-7.763 4.2-1.61 8.253-1.61 5.47 0 8.79 3.124 4.59 4.395 4.59 11.377V330h-7.18v-36.963q0-4.59-2.44-7.324-2.393-2.783-5.713-2.783-3.028 0-7.227 1.806-4.15 1.758-11.816 7.276V330h-7.13v-36.963q0-4.687-2.343-7.373-2.344-2.734-5.42-2.734-3.37 0-7.52 1.757-4.1 1.71-11.913 7.325V330h-7.226v-52.49h7.227zM337.598 284.15q4.297-3.857 8.74-5.76 4.492-1.954 9.13-1.954 5.81 0 11.036 3.32 5.273 3.32 8.057 9.814 2.784 6.494 2.784 14.258 0 8.154-2.88 14.55-2.882 6.35-8.155 9.522-5.226 3.174-10.84 3.174-4.64 0-9.132-2.002-4.443-2.002-8.74-5.957v26.856h-7.08v-72.46h7.08zm0 32.764q4.638 3.81 8.984 5.713 4.346 1.904 8.447 1.904 6.2 0 10.693-5.32 4.54-5.323 4.54-15.92 0-10.155-4.638-15.38-4.59-5.273-11.133-5.273-3.857 0-8.105 1.953-4.2 1.904-8.79 5.81zM392.676 299.58q-3.858-4.053-3.858-9.033 0-5.762 4.737-9.912 4.736-4.2 13.183-4.2 5.616 0 10.596 2.05 5.03 2.052 8.545 6.056l-5.42 4.542q-3.028-3.467-6.25-5.078-3.224-1.66-7.374-1.66-5.322 0-8.106 2.295-2.734 2.294-2.734 5.32 0 2.59 2.15 4.64 2.098 2.05 9.862 4.052 11.963 3.077 16.113 7.47 4.15 4.396 4.15 9.67 0 6.298-4.98 10.79-4.93 4.492-13.476 4.492-6.25 0-11.523-2.344-5.272-2.343-11.132-7.812l6.104-4.297q4.394 4.396 8.252 6.3 3.857 1.855 8.154 1.855 5.47 0 8.447-2.588 3.028-2.636 3.028-6.152 0-2.93-2.247-5.03-3.173-2.978-12.744-5.468-5.908-1.562-9.814-3.467-1.953-.927-3.662-2.49zM494.19 331.074q-10.108 0-16.993-7.373-6.884-7.372-6.884-19.823 0-8.3 3.027-14.697 3.076-6.446 8.545-9.57 5.47-3.174 11.62-3.174 5.958 0 11.378 3.27 5.47 3.224 8.642 9.815 3.174 6.544 3.174 14.65 0 12.353-6.69 19.63-6.69 7.274-15.82 7.274zm-.635-6.054q6.445 0 11.18-5.567 4.786-5.566 4.786-15.967 0-10.254-4.637-15.625-4.64-5.37-11.182-5.37-6.932 0-11.67 5.47-4.686 5.468-4.686 15.624 0 10.4 4.736 15.918 4.736 5.518 11.475 5.518zM520.508 277.51h7.275l14.502 42.138 14.55-42.138h7.276L545.948 330h-7.275zM613.818 318.232q-4.834 6.495-10.302 9.668-5.47 3.174-11.328 3.174-9.278 0-15.918-7.275-6.64-7.325-6.64-20.363 0-12.548 6.542-19.775 6.592-7.226 15.38-7.226 5.86 0 11.28 3.466 5.42 3.418 8.106 9.278 2.734 5.86 2.88 15.234h-37.06q.244 6.25 1.904 10.254 2.197 5.273 5.908 7.715 3.71 2.392 7.178 2.392 8.69 0 16.26-10.644zm-7.422-20.214q-.78-7.422-5.078-11.622-4.248-4.248-9.62-4.248-6.542 0-10.497 5.03-3.905 4.98-4.15 10.84zM635.303 289.375q4.394-6.738 9.18-9.863 4.833-3.125 10.986-3.125.682 0 1.952.05l-1.026 7.86-2.587-.147q-2.833-.146-6.35 1.368-3.515 1.464-6.298 4.687-2.734 3.223-4.297 8.008-1.562 4.785-1.562 8.447V330h-7.13v-52.49h7.13zM109.082 368.37h7.03v19.14h13.038v6.494h-13.037v32.617q0 4.054 2.15 6.35 2.147 2.245 5.76 2.245 1.954 0 5.127-.78v6.395q-3.662.44-6.152.44-7.52 0-10.742-3.125-3.174-3.125-3.174-10.254v-33.886h-9.18v-6.494h9.18zM142.334 365.977h7.13v27.343q9.032-4.54 12.84-5.713 3.858-1.17 7.423-1.17 6.347 0 10.35 4.393 4.054 4.395 4.054 13.086V440h-7.128v-37.695q0-4.54-2.393-6.885-2.344-2.393-6.64-2.393-3.81 0-8.45 1.612-4.588 1.56-10.057 4.735V440h-7.13zM241.943 428.232q-4.834 6.495-10.302 9.668-5.468 3.174-11.327 3.174-9.278 0-15.918-7.275-6.64-7.325-6.64-20.363 0-12.548 6.542-19.775 6.592-7.226 15.38-7.226 5.86 0 11.28 3.466 5.42 3.418 8.106 9.278 2.734 5.86 2.88 15.234h-37.06q.244 6.25 1.904 10.254 2.197 5.273 5.908 7.715 3.71 2.392 7.178 2.392 8.69 0 16.26-10.644zm-7.422-20.214q-.78-7.422-5.077-11.622-4.248-4.248-9.62-4.248-6.542 0-10.497 5.03-3.906 4.98-4.15 10.84zM288.428 365.977h7.13V440h-7.13zM312.744 396.592q5.03-5.225 10.89-7.666 5.858-2.49 11.473-2.49 6.495 0 11.036 2.88 4.59 2.88 6.347 7.13 1.32 3.27 1.32 8.74v22.265q0 6.642 1.512 12.55h-7.275q-1.318-4.64-1.416-8.79-4.882 4.933-9.96 7.423-5.03 2.44-10.303 2.44-6.69 0-10.79-4.003-4.102-4.052-4.102-10.156 0-4.98 3.173-9.326 3.174-4.346 9.864-6.836 4.883-1.807 22.12-5.566v-3.272q0-4.15-2.93-6.934-2.882-2.783-7.325-2.783-4.004 0-8.35 2.002-4.297 1.952-10.058 6.835zm33.887 30.517v-16.7q-11.864 2.832-15.624 4.15-6.006 2.05-8.838 5.323-2.783 3.222-2.783 6.885 0 3.466 2.392 5.76 2.442 2.247 6.494 2.247 3.86 0 8.45-1.904 4.59-1.952 9.91-5.76zM369.14 387.51h39.942v6.982l-33.35 38.33h34.864V440h-44.092v-7.178l33.545-38.33h-30.91zM416.895 387.51h7.324l16.26 42.87 16.21-42.87h7.373l-21.094 55.86q-3.126 8.202-4.69 10.546-1.512 2.393-3.71 3.955-2.197 1.612-5.42 2.49-3.173.93-7.226.93-2.93 0-6.836-.83l1.807-6.788q2.88.537 5.03.537 5.907 0 8.69-2.198 2.832-2.15 5.274-9.57.487-1.417.878-2.442zM541.602 365.977h7.08v57.666q0 4.492.586 9.326.586 4.784 1.318 7.03h-7.324q-1.172-4.053-1.22-7.275-4.737 4.15-9.376 6.25-4.59 2.1-9.082 2.1-8.887 0-15.283-7.18-6.347-7.225-6.347-19.97 0-13.036 6.397-20.263 6.445-7.226 15.332-7.226 4.54 0 8.838 1.953 4.296 1.903 9.082 6.102zm0 34.668q-4.395-3.907-8.643-5.81-4.25-1.954-8.35-1.954-6.69 0-11.133 5.225-4.444 5.176-4.444 15.38 0 10.695 4.54 16.017 4.542 5.273 11.085 5.273 4.004 0 8.252-1.953 4.248-2.002 8.692-5.957zM587.55 441.074q-10.11 0-16.993-7.373-6.885-7.372-6.885-19.823 0-8.3 3.027-14.697 3.075-6.446 8.544-9.57 5.47-3.174 11.62-3.174 5.958 0 11.378 3.27 5.47 3.224 8.643 9.815 3.174 6.544 3.174 14.65 0 12.353-6.69 19.63-6.69 7.274-15.82 7.274zm-.636-6.054q6.445 0 11.182-5.567 4.785-5.566 4.785-15.967 0-10.254-4.638-15.625-4.638-5.37-11.18-5.37-6.935 0-11.67 5.47-4.69 5.468-4.69 15.624 0 10.4 4.737 15.918 4.736 5.518 11.474 5.518zM630.273 419.053q-3.466-3.028-5.03-6.25-1.56-3.223-1.56-7.57 0-8.104 5.712-13.426 5.76-5.37 15.576-5.37 4.053 0 7.667 1.073 3.613 1.074 6.787 3.27 5.273-3.124 13.33-3.27v6.25l-2.54-.05q-4.59 0-7.177 1.173 2.588 4.394 2.588 9.717 0 8.3-5.713 13.77-5.713 5.468-15.527 5.468-3.028 0-7.03-.684-1.906-.34-2.785-.34-2.246 0-3.564 1.122-1.27 1.123-1.27 2.636 0 1.807 2.198 2.93 1.025.488 6.59.684 13.478.488 19.874 2.587 6.446 2.1 8.985 5.665 2.588 3.564 2.588 7.763 0 4.25-2.782 7.765-2.735 3.516-8.204 5.273-5.42 1.807-11.474 1.807-8.447 0-15.43-2.295-5.322-1.807-8.203-5.42-2.832-3.564-2.832-7.47 0-3.028 1.562-5.81 1.612-2.736 4.786-5.275-2.54-1.66-3.516-3.173-.977-1.563-.977-3.516 0-2.588 1.66-4.736 1.71-2.198 5.713-4.297zm14.356-1.71q6.64 0 10.643-3.76 4.004-3.808 4.004-8.983 0-4.932-3.76-8.448-3.76-3.515-10.497-3.515-7.13 0-10.987 3.515-3.857 3.467-3.857 8.74 0 5.274 3.906 8.887 3.955 3.564 10.547 3.564zm-11.085 19.678q-3.37 1.906-5.078 4.005-1.66 2.1-1.66 4.346 0 3.077 3.515 5.42 5.42 3.663 15.576 3.663 10.157 0 14.502-2.978 3.077-2.1 3.077-5.37 0-3.908-5.567-6.056-5.566-2.1-24.365-3.03zM682.86 428.867h9.67V440h-9.67z"/></g></svg>