<svg xmlns="http://www.w3.org/2000/svg" viewBox="0 0 1600 1000" height="1000" width="1600"><path fill="#fff" d="M0 0h1600v1000H0z"/><g font-weight="400" font-size="200" font-family="News Gothic MT" letter-spacing="-.03em" text-anchor="middle" fill="#222"><path d="M375.926 71.953h108.496v14.16h-46.875V220H423.19V86.113h-47.264zM495.902 71.953h14.258v54.688q18.067-9.08 25.684-11.425 7.715-2.344 14.843-2.344 12.696 0 20.704 8.79 8.106 8.79 8.106 26.172V220h-14.258v-75.39q0-9.083-4.785-13.77-4.687-4.785-13.28-4.785-7.618 0-16.896 3.222-9.18 3.125-20.117 9.473V220h-14.258zM689.12 196.465q-9.667 12.988-20.604 19.336-10.938 6.348-22.657 6.348-18.555 0-31.837-14.55-13.28-14.65-13.28-40.723 0-25.098 13.085-39.55 13.184-14.454 30.762-14.454 11.72 0 22.558 6.935 10.84 6.836 16.21 18.554 5.47 11.718 5.763 30.468H615q.488 12.5 3.81 20.508 4.393 10.547 11.815 15.43 7.422 4.785 14.355 4.785 17.383 0 32.52-21.288zm-14.843-40.43q-1.562-14.844-10.156-23.242-8.495-8.496-19.237-8.496-13.086 0-20.996 10.058-7.813 9.96-8.3 21.68zM839.133 206.426q-8.79 7.812-17.774 11.816-8.985 3.906-18.067 3.906-17.87 0-30.86-14.55-12.89-14.65-12.89-40.528 0-25.097 13.086-39.648 13.085-14.55 30.565-14.55 9.082 0 17.09 3.515 8.106 3.418 18.848 12.5V115.02h14.355v144.92h-14.355zm0-65.04q-9.96-8.593-18.067-12.206-8.007-3.71-16.7-3.71-12.5 0-21.483 10.643-8.985 10.547-8.985 31.836 0 20.8 8.79 31.054 8.79 10.254 21.386 10.254 8.887 0 17.676-3.906 8.79-3.907 17.383-11.72zM882.645 115.02h14.257v68.847q0 11.426 5.567 17.87 5.663 6.447 13.378 6.447 6.933 0 15.136-3.71 8.203-3.81 20.8-14.26V115.02h14.357V220h-14.355v-16.895q-11.914 9.473-21.777 14.258-9.863 4.785-17.774 4.785-7.617 0-14.355-3.418-6.642-3.515-10.94-11.425-4.295-8.008-4.295-20.8zM999.887 73.32h14.258v17.09h-14.258zm0 41.7h14.258V220h-14.258zM1126.602 194.512q-7.13 12.793-15.625 19.14-11.33 8.496-25.49 8.496-12.303 0-23.143-6.64-10.742-6.64-16.7-19.238-5.86-12.598-5.86-28.907 0-25.097 13.38-39.746 13.477-14.746 32.422-14.746 12.793 0 23.242 6.74 10.45 6.738 17.774 20.214l-12.403 6.738q-5.958-11.035-12.89-16.406-6.935-5.47-15.92-5.47-12.792 0-22.167 10.94-9.278 10.936-9.278 32.616 0 19.14 9.375 30.274 9.473 11.132 21.68 11.132 18.457 0 29.2-21.972zM1147.848 71.953h14.258v96.582l47.656-53.515h18.75l-34.766 36.718L1231.93 220h-15.82l-31.153-58.984-22.852 24.218V220h-14.257zM388.72 291.953h14.16v56.445q6.933-7.03 16.796-11.23 9.863-4.297 19.043-4.297 17.772 0 30.663 14.65 12.988 14.648 12.988 39.94 0 16.017-5.858 29.005-5.762 12.89-16.31 19.336-10.448 6.348-21.972 6.348-8.79 0-17.09-3.613-8.3-3.71-18.26-12.305V440h-14.16zm14.16 121.875q10.936 8.692 18.65 12.012 7.814 3.223 15.626 3.223 12.89 0 21.973-10.645 9.08-10.645 9.08-31.445 0-20.41-9.18-30.957-9.178-10.547-22.85-10.547-8.3 0-16.7 3.905-8.3 3.81-16.6 11.62zM520.316 358.75q8.79-13.477 18.36-19.727 9.668-6.25 21.972-6.25 1.368 0 3.907.098l-2.05 15.724-5.177-.293q-5.664-.292-12.695 2.735-7.03 2.93-12.598 9.375-5.47 6.445-8.594 16.016-3.124 9.57-3.124 16.894V440H506.06V335.02h14.256zM620.762 442.148q-20.215 0-33.985-14.746t-13.77-39.648q0-16.602 6.056-29.395 6.152-12.89 17.09-19.14 10.937-6.35 23.242-6.35 11.914 0 22.753 6.544 10.938 6.445 17.286 19.63 6.347 13.085 6.347 29.296 0 24.707-13.378 39.258-13.38 14.55-31.64 14.55zm-1.27-12.11q12.89 0 22.363-11.132 9.57-11.133 9.57-31.933 0-20.508-9.277-31.25-9.277-10.743-22.363-10.743-13.867 0-23.34 10.938-9.375 10.937-9.375 31.25 0 20.8 9.473 31.836 9.473 11.035 22.95 11.035zM672.477 335.02h13.77l24.12 76.367 24.317-76.367h10.937l24.708 78.32 24.512-78.32h13.77L775.112 440h-10.058l-24.903-79.492-25 79.492h-9.57zM840.305 347.13q11.523-6.837 22.265-10.548 10.84-3.71 17.578-3.71 7.52 0 13.868 3.222 6.445 3.125 11.132 10.937 4.688 7.716 4.688 19.24V440h-14.258v-72.656q0-10.84-4.785-16.114-4.785-5.273-12.988-5.273-7.52 0-16.895 3.223-9.375 3.222-20.605 9.765V440h-14.258V335.02h14.258zM1000.96 335.02v-16.407q0-12.11 7.813-19.336 7.813-7.324 21.875-7.324 3.125 0 7.52.293v13.38q-4.297-.49-7.03-.49-7.814 0-11.915 4.005-4.102 4.005-4.102 10.743v15.137h21.68v12.988h-21.68V440h-14.16v-91.992h-19.628V335.02zM1092.52 442.148q-20.215 0-33.985-14.746t-13.77-39.648q0-16.602 6.055-29.395 6.153-12.89 17.09-19.14 10.938-6.35 23.242-6.35 11.914 0 22.754 6.544 10.938 6.445 17.285 19.63 6.35 13.085 6.35 29.296 0 24.707-13.38 39.258-13.38 14.55-31.64 14.55zm-1.27-12.11q12.89 0 22.363-11.132 9.57-11.133 9.57-31.933 0-20.508-9.277-31.25-9.277-10.743-22.363-10.743-13.867 0-23.34 10.938-9.375 10.937-9.375 31.25 0 20.8 9.473 31.836 9.473 11.035 22.95 11.035zM1143.063 335.02h16.503l26.465 38.378 26.173-38.378h16.504l-34.473 50.585L1231.148 440h-16.308l-28.81-42.285L1157.42 440h-16.504l36.914-54.395zM332.637 513.32h14.16v17.188h-14.16zm0 41.7h14.16v117.382q0 13.77-7.13 21.778-7.03 8.007-17.48 8.007-1.855 0-5.273-.488v-15.92q2.44.392 3.81.392 5.077 0 7.91-3.418 4.003-4.785 4.003-11.817zM376.44 555.02h14.26v68.847q0 11.426 5.566 17.87 5.664 6.447 13.38 6.447 6.932 0 15.135-3.71 8.204-3.81 20.802-14.26V555.02h14.356V660h-14.356v-16.895q-11.914 9.473-21.777 14.258-9.864 4.785-17.774 4.785-7.616 0-14.354-3.418-6.64-3.515-10.938-11.425-4.297-8.008-4.297-20.8zM506.28 571.62q18.263-12.206 26.66-15.43 8.4-3.32 16.212-3.32 8.692 0 14.942 4.59 6.25 4.493 9.765 14.16 18.26-12.304 26.562-15.526 8.398-3.223 16.504-3.223 10.937 0 17.578 6.25 9.18 8.79 9.18 22.755V660h-14.356v-73.926q0-9.18-4.883-14.648-4.785-5.567-11.425-5.567-6.055 0-14.454 3.613-8.3 3.515-23.632 14.55V660h-14.258v-73.926q0-9.375-4.688-14.746-4.687-5.47-10.84-5.47-6.738 0-15.04 3.517-8.202 3.418-23.827 14.648V660H491.83V555.02h14.453zM687.195 568.3q8.594-7.714 17.48-11.523 8.985-3.906 18.262-3.906 11.622 0 22.07 6.642 10.548 6.64 16.114 19.63 5.567 12.987 5.567 28.514 0 16.31-5.76 29.102-5.763 12.695-16.31 19.043-10.45 6.348-21.68 6.348-9.277 0-18.26-4.003-8.888-4.004-17.482-11.915v53.71h-14.16V555.02h14.16zm0 65.528q9.278 7.617 17.97 11.426 8.69 3.808 16.894 3.808 12.4 0 21.385-10.644 9.082-10.645 9.082-31.836 0-20.312-9.277-30.762-9.18-10.547-22.266-10.547-7.714 0-16.21 3.907-8.4 3.808-17.58 11.62zM791.352 599.16q-7.715-8.105-7.715-18.066 0-11.524 9.472-19.824 9.472-8.4 26.367-8.4 11.23 0 21.19 4.103 10.06 4.1 17.09 12.11l-10.84 9.08q-6.054-6.933-12.5-10.155-6.444-3.32-14.745-3.32-10.645 0-16.21 4.59-5.47 4.59-5.47 10.644 0 5.176 4.297 9.277 4.198 4.1 19.726 8.105 23.925 6.152 32.226 14.94 8.3 8.79 8.3 19.337 0 12.598-9.96 21.582-9.863 8.984-26.953 8.984-12.5 0-23.048-4.687-10.547-4.687-22.266-15.624l12.207-8.594q8.79 8.79 16.504 12.598 7.715 3.71 16.31 3.71 10.936 0 16.893-5.175 6.055-5.273 6.055-12.305 0-5.86-4.492-10.058-6.348-5.957-25.488-10.938-11.817-3.125-19.63-6.933-3.905-1.855-7.323-4.98zM982.38 662.148q-20.216 0-33.985-14.746-13.77-14.746-13.77-39.648 0-16.602 6.055-29.395 6.152-12.89 17.09-19.14 10.937-6.35 23.242-6.35 11.914 0 22.754 6.544 10.937 6.445 17.285 19.63 6.348 13.085 6.348 29.296 0 24.707-13.378 39.258-13.38 14.55-31.64 14.55zm-1.27-12.11q12.89 0 22.363-11.132 9.57-11.133 9.57-31.933 0-20.508-9.277-31.25-9.278-10.743-22.364-10.743-13.867 0-23.34 10.938-9.375 10.937-9.375 31.25 0 20.8 9.473 31.836 9.473 11.035 22.95 11.035zM1029.016 555.02h14.55l29.004 84.277 29.102-84.277h14.55L1079.896 660h-14.55zM1209.637 636.465q-9.668 12.988-20.606 19.336-10.936 6.348-22.655 6.348-18.555 0-31.836-14.55-13.282-14.65-13.282-40.723 0-25.098 13.086-39.55 13.183-14.454 30.76-14.454 11.72 0 22.56 6.935 10.84 6.836 16.21 18.554 5.47 11.718 5.763 30.468h-74.12q.487 12.5 3.807 20.508 4.395 10.547 11.817 15.43 7.422 4.785 14.356 4.785 17.383 0 32.52-21.288zm-14.844-40.43q-1.562-14.844-10.156-23.242-8.496-8.496-19.24-8.496-13.084 0-20.995 10.058-7.812 9.96-8.3 21.68zM1246.605 578.75q8.79-13.477 18.36-19.727 9.668-6.25 21.973-6.25 1.367 0 3.906.098l-2.05 15.724-5.177-.293q-5.664-.292-12.695 2.735-7.03 2.93-12.598 9.375-5.47 6.445-8.594 16.016-3.124 9.57-3.124 16.894V660h-14.258V555.02h14.258zM254.164 736.738h14.063v38.282H294.3v12.988h-26.073v65.234q0 8.106 4.296 12.696 4.297 4.492 11.524 4.492 3.906 0 10.254-1.563v12.793q-7.323.88-12.304.88-15.04 0-21.484-6.25-6.348-6.25-6.348-20.51V788.01h-18.36V775.02h18.36zM314.668 731.953h14.258v54.688q18.066-9.08 25.683-11.425 7.714-2.344 14.843-2.344 12.695 0 20.703 8.79 8.106 8.79 8.106 26.172V880h-14.258v-75.39q0-9.083-4.785-13.77-4.69-4.785-13.283-4.785-7.617 0-16.894 3.222-9.18 3.125-20.117 9.473V880h-14.258zM507.887 856.465q-9.668 12.988-20.606 19.336-10.936 6.348-22.655 6.348-18.555 0-31.836-14.55-13.282-14.65-13.282-40.723 0-25.098 13.086-39.55 13.183-14.454 30.76-14.454 11.72 0 22.56 6.935 10.84 6.836 16.21 18.554 5.47 11.718 5.763 30.468h-74.12q.487 12.5 3.807 20.508 4.395 10.547 11.817 15.43 7.423 4.785 14.356 4.785 17.383 0 32.52-21.288zm-14.844-40.43q-1.563-14.844-10.156-23.242-8.496-8.496-19.24-8.496-13.084 0-20.995 10.058-7.812 9.96-8.3 21.68zM588.855 731.953h14.258V880h-14.258zM631.488 793.184q10.06-10.45 21.778-15.332 11.718-4.98 22.95-4.98 12.987 0 22.07 5.76 9.18 5.763 12.694 14.26 2.637 6.542 2.637 17.48v44.53q0 13.282 3.028 25.098h-14.55q-2.638-9.277-2.833-17.578-9.766 9.863-19.922 14.844-10.06 4.882-20.606 4.882-13.38 0-21.582-8.007-8.203-8.105-8.203-20.312 0-9.96 6.347-18.652 6.348-8.692 19.726-13.672 9.766-3.613 44.24-11.133v-6.542q0-8.3-5.86-13.867-5.762-5.565-14.65-5.565-8.007 0-16.698 4.003-8.594 3.907-20.117 13.672zm67.774 61.035v-33.4q-23.73 5.664-31.25 8.3-12.012 4.103-17.676 10.646-5.566 6.445-5.566 13.77 0 6.933 4.785 11.523 4.882 4.49 12.988 4.49 7.715 0 16.894-3.808 9.18-3.906 19.825-11.523zM738.28 775.02h79.884v13.964l-66.7 76.66h69.727V880H733.01v-14.355l67.09-76.66H738.28zM827.79 775.02h14.647l32.52 85.742 32.422-85.742h14.745l-42.188 111.718q-6.25 16.407-9.375 21.094-3.027 4.785-7.42 7.91-4.396 3.223-10.84 4.98-6.35 1.856-14.454 1.856-5.86 0-13.672-1.66l3.613-13.574q5.76 1.074 10.058 1.074 11.816 0 17.382-4.395 5.665-4.296 10.547-19.14.977-2.832 1.758-4.883zM1065.203 731.953h14.16v115.332q0 8.985 1.172 18.653 1.172 9.57 2.637 14.062h-14.65q-2.342-8.105-2.44-14.55-9.473 8.3-18.75 12.5-9.18 4.198-18.164 4.198-17.773 0-30.566-14.355-12.696-14.453-12.696-39.94 0-26.076 12.793-40.53 12.89-14.452 30.663-14.452 9.082 0 17.676 3.907 8.593 3.81 18.163 12.207zm0 69.336q-8.79-7.813-17.285-11.622-8.496-3.906-16.7-3.906-13.378 0-22.265 10.45-8.887 10.35-8.887 30.76 0 21.387 9.082 32.032 9.082 10.547 22.168 10.547 8.008 0 16.504-3.905 8.496-4.004 17.383-11.915zM1151.098 882.148q-20.215 0-33.985-14.746t-13.77-39.648q0-16.602 6.055-29.395 6.153-12.89 17.09-19.14 10.938-6.35 23.242-6.35 11.914 0 22.754 6.544 10.938 6.445 17.285 19.63 6.347 13.085 6.347 29.296 0 24.707-13.38 39.258-13.378 14.55-31.64 14.55zm-1.27-12.11q12.89 0 22.363-11.132 9.572-11.133 9.572-31.933 0-20.508-9.278-31.25-9.277-10.743-22.363-10.743-13.866 0-23.34 10.938-9.374 10.937-9.374 31.25 0 20.8 9.473 31.836 9.472 11.035 22.948 11.035zM1230.547 838.105q-6.934-6.054-10.06-12.5-3.124-6.445-3.124-15.136 0-16.212 11.426-26.857 11.522-10.742 31.15-10.742 8.107 0 15.333 2.15 7.227 2.148 13.575 6.543 10.547-6.25 26.66-6.543v12.5l-5.078-.098q-9.18 0-14.356 2.344 5.176 8.79 5.176 19.433 0 16.6-11.426 27.538-11.426 10.938-31.054 10.938-6.055 0-14.063-1.367-3.81-.685-5.566-.685-4.492 0-7.128 2.246-2.54 2.247-2.54 5.274 0 3.614 4.395 5.86 2.05.976 13.184 1.367 26.954.978 39.747 5.177 12.89 4.2 17.97 11.328 5.174 7.13 5.174 15.527 0 8.496-5.565 15.528-5.47 7.03-16.406 10.547-10.84 3.613-22.95 3.613-16.895 0-30.86-4.59-10.644-3.613-16.406-10.84-5.664-7.13-5.664-14.94 0-6.056 3.125-11.622 3.223-5.47 9.57-10.547-5.078-3.32-7.03-6.347-1.954-3.125-1.954-7.03 0-5.177 3.32-9.474 3.42-4.395 11.427-8.595zm28.71-3.418q13.282 0 21.29-7.52 8.008-7.616 8.008-17.968 0-9.864-7.52-16.895-7.52-7.032-20.996-7.032-14.26 0-21.974 7.032-7.714 6.933-7.714 17.48t7.812 17.774q7.91 7.127 21.094 7.127zm-22.167 39.356q-6.738 3.81-10.156 8.008-3.32 4.2-3.32 8.692 0 6.153 7.03 10.84 10.84 7.324 31.153 7.324 20.312 0 29.004-5.957 6.153-4.2 6.153-10.743 0-7.812-11.133-12.11-11.133-4.2-48.73-6.054zM1329.723 857.734h19.336V880h-19.337z"/></g></svg>