<svg xmlns="http://www.w3.org/2000/svg" viewBox="0 0 1600 1000" height="1000" width="1600"><path fill="#fff" d="M0 0h1600v1000H0z"/><g font-weight="400" font-size="200" font-family="Optima" letter-spacing="-.03em" text-anchor="middle" fill="#222"><path d="M464.284 219.6v-112q-3 0-8.2.6-5.2.4-10.8 1-1.4.2-3 .4-1.6 0-3.2.2-3.8.6-7.2 1-3.4.4-5.6.8.4-1.6.6-3 .4-1.6.4-3 0-.8-.2-1.6v-1.6q-.2-.6-.4-1.4l-.4-1.6h91.6l-.4 1.6q-.2.8-.4 1.4 0 .8-.2 1.6v1.6q0 1.4.2 3 .4 1.4.8 3-12.4-2-22.8-3t-15.6-1v112q-1-.4-2.2-.6-1.2-.2-2.6-.2-.6-.2-1.2-.2h-1.2q-1 0-2.4.2-1.2 0-2.6.2l-1.6.4q-.6 0-1.4.2zM528.513 219.6V86.8q2.2.6 4 1 2 .2 3.8.2h1.2q.6 0 1.2-.2 1.4 0 2.6-.2 1.2-.4 2.2-.8V150l.4-.8q.4-.4.8-.6.6-.8 1-1.6.6-.8 1.4-1.6 3.2-4.4 9-8 6-3.6 19-3.6 11.2 0 18.4 9 7.4 9 7.4 22.2v54.6q-2-.4-4-.6-1.8-.4-3.6-.4-1.6 0-3.4.4-1.8.2-4 .6v-53.2q0-10.8-6-16.6-5.8-5.8-12.8-6.2H564.713q-.4 0-.8.2-7.8.8-14.2 7.8-6.2 6.8-6.2 20.2v47.8q-1-.4-2.2-.6-1.2-.2-2.6-.2-.6-.2-1.2-.2h-1.2q-1.8 0-3.8.4-1.8.2-4 .6zM614.94 181.6q0-22.6 11.6-33.8 11.6-11.4 28.2-11.4 14.8 0 22.6 7.4 7.8 7.2 10.6 15.8 1.4 3.6 1.8 7.2.6 3.4.6 6.4v1.8q0 1.2-.2 2.2 0 1-.2 1.8h-58.8q0 15.2 6.2 24.6 6.4 9.2 24 9.2 7.2 0 13.8-2.8 6.8-3 10.8-8l1.2 9.6q-.6.4-1.4 1l-1.2.8q-5.2 3.6-11.4 6.2t-17.2 2.6q-21.6-1-30.8-13.2t-10.2-27.4zm61.4-9.8v-1.6-2q-.6-9.4-5.2-17.2-4.4-7.8-16.4-7.8-9.2 0-15 6.6-5.6 6.4-7.6 14.2l-.8 4q-.2 2-.2 3.8h45.2zM780.275 179q1-21.8 10-32.2 9-10.4 25.4-10.4 10 0 16.6 4.6 6.8 4.6 10.4 10 .6.8 1 1.6l.8 1.6v-17.8q1.2.4 2.6.8 1.6.2 3.2.2h1.6q2.2 0 4.2-.2t3.4-.8v129.8q-1-.4-2.2-.8-1.2-.2-2.6-.2-.6-.2-1.2-.2h-1.2q-1.8 0-3.8.2-1.8.4-4 .8v-58.6q-.6 1.2-1.6 2.8-1 1.4-2.2 3-3.2 3.4-9 6.2-5.8 2.8-16 2.8-13.4 0-24.4-9.8-11-10-11-33.4zm15 0q0 3 .4 6.6.4 3.6 1.6 7.2 2.2 8 7.4 14.8 5.4 6.6 15.4 6.6 11.8 0 17.2-8 5.4-8.2 6.6-18 .4-2 .4-4 .2-2 .2-4 0-2.8-.4-7.4-.4-4.6-2-9.4-2.2-7.6-7.6-13.8-5.2-6.4-15.8-6.4-11.4 0-17.6 9.8-6.2 9.8-6.2 22.2v1q.2.4.2.8v.4q.2.4.2.8v.8zM878.503 189.8v-53.4q1.6.6 3.6.8 2 .2 4 .2h1.6q1.6 0 3-.2 1.6-.4 2.8-.8v49.4q0 10.4 4.8 19 4.8 8.4 15 8.4h.2q.4-.2.8-.2h.2q.4-.2.6-.2h.4q9.8-.8 13.8-6.8 4.2-6.2 5-13.6.2-1 .2-2v-54q2.2.6 4.2.8 2 .2 3.8.2h1.4q.8 0 1.6-.2 1.2 0 2.2-.2 1-.2 1.8-.6v83.2q-.8-.2-1.8-.4t-2.2-.4h-1.6q-.6-.2-1.4-.2-1.8 0-3.8.4-2 .2-4.2.6v-12.2q-4 8.2-11.8 10.8-7.6 2.6-17 2.6-13.2 0-18.8-5.8-5.6-5.8-7.2-12.8-.8-3.4-1-6.6-.2-3.2-.2-5.8zM975.73 219.6v-84.4q2.2.4 4.2.8 2 .2 3.6.2h1.2q.6 0 1.2-.2 1.4 0 2.6-.2 1.2-.4 2.2-.6v84.4q-1-.4-2.2-.6-1.2-.2-2.6-.2-.6-.2-1.2-.2h-1.2q-1.6 0-3.6.4-2 .2-4.2.6zm-1.2-114.8q0-5.2 2.6-7.2 2.8-2.2 6.8-2.2.6 0 1.2.2.6 0 1.2.2 2.6.8 4.8 3.2 2.4 2.4 2.4 5.8-.2 4.6-3 7.2-2.6 2.4-5.8 2.8h-1.6-.2q-3.2-.2-5.8-2.8-2.6-2.8-2.6-7.2zM1012.122 180.2q0-19.6 11.4-31.6 11.4-12.2 35-12.2 6.8 0 11.2 1.2 4.4 1 8.6 2.6l2.8 1.6q1.6.6 3.2 1.4l-2.6 12.2h-2.8q-4-6-9.4-9-5.4-3.2-13.6-3.2-13.2 0-20.4 11-7 11-7.2 24.2V179q0 13.2 7.4 24.2 7.6 11 22.8 11 8.2 0 13.8-2.8 5.6-3 10.6-8l1.4 1.4-1.4 8q-4.8 3.8-11 5.8t-12.8 2.4q-.8.2-1.8.2h-1.8q-1.2 0-2.4-.2h-2.2q-14.8-1.2-27-11.2-12.2-10.2-12.2-27.8v-.4q.2-.2.2-.6v-.4q.2-.2.2-.4zM1103.32 219.6v-134q1.2.4 2.6.6l3.2.4h1.6q2.2 0 4-.2 2-.4 3.6-.8V169l-.4 1q0 .8.2 1.4.4.4.8.4 2.4 0 8.4-5.4t13-12.2q.8-1 1.6-1.8l1.6-1.6q4.2-4.4 7.8-8.4 3.8-4.2 6.6-7.2l3.2.8q1.8.2 3.6.2t3.6-.2q1.8-.4 3.2-.8v1.2l-36.6 34 39.4 46.6v2.6q-2-.4-4.2-.6-2-.4-4-.4-1 0-2 .2h-2q-1.2.2-2.2.4l-2 .4-.8-.8q-.4-.4-.8-1-2.2-2.4-4.6-5-2.2-2.8-4.4-5.4-9.6-11.6-17.4-21-7.6-9.6-10.4-9.6-.8 0-1 1-.2.8-.2 2.4v39.4q-1-.4-2.4-.6-1.2-.2-2.4-.2-.6-.2-1.2-.2h-1.2q-1.2 0-2.6.2-1.2 0-2.6.2-.6.2-1.4.4-.6 0-1.2.2zM427.058 439.6V310q1.6.4 3.6.8 2 .2 4 .2h1.6q1.6-.2 3-.4 1.6-.2 2.8-.6v62.8q3.8-5.8 11.6-10.8 8-5 16.6-5.6h2q17.8 0 26.8 12.8 9.2 12.8 9.2 28.4v2.4q-.8 15.2-10.4 28-9.4 12.8-28.2 14.2h-1.6q-.8 0-1.6-.2-6.4-.6-12.8-3.4-6.2-3-11.6-8.4l-10.8 9.4h-4.2zm15-39.4q0 .4-.2 1V403q-.2.2-.2.6v2.8q0 1 .2 2 1 10.2 6.8 18.8 5.8 8.4 16.8 8.4 10.2 0 18-9.2 7.8-9.2 7.8-27.4 0-13-5.4-23.6-5.4-10.8-17.4-10.8h-1.6q-10.4 0-17.6 10.6-7.2 10.6-7.2 25zM523.086 439.6v-83.2q1.6.6 3.2.8 1.8.2 3.6.2h1.6q1 0 1.8-.2l1.6-.4q1-.2 1.8-.4v16.4q3.4-7.4 9.8-12.4 6.4-5.2 14.8-5.2h2.8l-1.4 16.2-1.2-.4q-.4-.2-.8-.6-2.2-.8-4.2-1.2-2-.6-3.6-.6-6.2 0-10 4.4-3.6 4.4-5 9.8-.6 2-1 4-.2 1.8-.2 3.6v49.2q-.8-.2-1.8-.4l-1.6-.4h-1.8q-.8-.2-1.6-.2-1.8 0-3.6.4-1.6.2-3.2.6zM568.023 401.6q0-20.6 12.2-33.4 12.4-13 33-13 15.4 0 24 7.4t12.6 16.4q2.6 5.8 3.6 11.2 1 5.4 1 8.8 0 3.2-.6 6.8-.6 3.4-1.8 6.8-3.6 10.6-13.4 19.4-9.8 8.8-27 8.8l-2.4.2q-19.6-.2-30.4-11.6-10.8-11.4-10.8-27.8zm16.4 1.4q0 2.2.6 6.6.6 4.2 2.4 8.8 2.4 6.2 7.8 11.4t15.4 5.8q11.2 0 18.6-9.2 7.6-9.2 8.4-27.4 0-16.6-6.2-26.8t-19.6-10.2q-12.4 0-19.6 10.6-7 10.4-8 23-.2 1-.2 2v2.8q.2.4.2.8v1q.2.4.2.8zM688.052 439.6q-2-6.8-4.4-14.2-2.4-7.4-5.2-14.8-.8-2.8-1.8-5.4l-2-5.2q-5-13.6-9.6-25.4-4.4-11.8-6.8-18.2l1.2.4q.8.2 1.4.2 1.4.2 2.6.4h4.4q1.4-.2 2.6-.4 1.4-.2 2.6-.6 5.2 16.4 10.4 32 5.2 15.6 11.4 30.8 2.8-2 7-13t8.8-24q.2-.6.4-1l.4-1.2q2-6.2 4-12.2 2.2-6.2 4.2-11.4 1 .6 2.2.8 1.2.2 2.6.2h1.6l1.6-.4q1-.2 1.6-.6 1.2 5 2.6 10.4 1.4 5.2 3 10.4 3.6 12 7.8 23.6 4.2 11.4 8.6 19.8 1-3.2 4.6-12 3.8-8.8 7.8-19.2.4-.8.6-1.4.2-.8.6-1.6 3.4-8.8 6.4-16.8 3-8.2 4.4-13.2 2.2.6 3.6.8 1.6.2 2.8.2h1.8q1-.2 1.8-.4.8 0 1.4-.2l1.2-.4q-10.4 20.4-19 41.2-8.4 20.6-16.6 42-.8-.4-1.8-.6l-2-.4h-1.4q-.8 0-1.8.2-1 0-2.2.2-.4.2-1 .4-.4 0-1 .2-1-5.2-2.6-10.8-1.6-5.6-3.4-11.4-.8-2.6-1.8-5.2-.8-2.8-1.6-5.4-2.8-8.4-5.4-15.8-2.6-7.6-4.2-12.8-2.6 4.8-5.8 12.4-3 7.6-6.2 16.4l-2 5.2q-.8 2.4-1.6 5-2.2 5.8-4.2 11.6-1.8 5.6-3.6 10.8-.8-.4-1.8-.6l-2-.4h-1.4q-.8 0-2 .2t-2.2.4q-.4 0-.8.2-.4 0-.8.2zM801.56 439.6v-84.4q1.2.4 2.6.6l3.2.4h1.6q2.2 0 4-.2 2-.4 3.6-.8V370q1-1.4 2.2-3 1.4-1.8 3-3.6 3.4-3.6 9-6.6 5.6-3 14.6-3 10.2 0 18.6 8 8.6 7.8 8.6 27.2v50.6q-1.4-.4-3.2-.6-1.6-.4-3.4-.4-1.6 0-3.8.4-2 .2-4.6.6V389q0-12.2-6.2-18.2-6-6.2-13.4-6.2h-.4-.2q-7.8.2-14.4 7.2-6.4 6.8-6.4 20v47.8q-2-.4-4-.6-1.8-.4-3.6-.4t-3.6.4q-1.8.2-3.8.6zM975.927 439.6v-75h-12.2q.6-.4.8-1.4.2-1 .2-2t-.2-1.8q-.2-1-.8-1.6h12.2q3.6-27.4 12.6-37.8 9-10.4 20-10.4h1.2q.6 0 1.4.2h.4q.8 0 1.4.2h1.4q-1 3.6-1.2 6.4-.2 2.8-.2 5.6v1.6l-1.2 1.2h-.4l-.4-.4h-.2q-1.8-.8-4-1.4-2-.8-5-.8-8.4 0-11.4 5.8-2.8 5.6-2.8 12.6v2.4q.2 1 .2 2.2.2 1.2.4 2.6.2 1.2.4 2.6.4 2 .6 4 .4 1.8.4 3.4h19.4q-.2.4-.6 1-.2.4-.2 1-.2.2-.2.6v.4q0 .8.2 1.8l.8 2h-19.4v75l-1.6-.4-1.6-.4h-1.6q-.8-.2-1.6-.2-1.4 0-3.2.4-1.8.2-4 .6zM1009.117 401.6q0-20.6 12.2-33.4 12.4-13 33-13 15.4 0 24 7.4t12.6 16.4q2.6 5.8 3.6 11.2 1 5.4 1 8.8 0 3.2-.6 6.8-.6 3.4-1.8 6.8-3.6 10.6-13.4 19.4-9.8 8.8-27 8.8l-2.4.2q-19.6-.2-30.4-11.6-10.8-11.4-10.8-27.8zm16.4 1.4q0 2.2.6 6.6.6 4.2 2.4 8.8 2.4 6.2 7.8 11.4t15.4 5.8q11.2 0 18.6-9.2 7.6-9.2 8.4-27.4 0-16.6-6.2-26.8t-19.6-10.2q-12.4 0-19.6 10.6-7 10.4-8 23-.2 1-.2 2v2.8q.2.4.2.8v1q.2.4.2.8zM1134.945 399l-32.6-42.6q1.8.4 3.2.6l3.2.4h3.2q2.2 0 4.4-.2 2.4-.2 5-.8 2.8 6.2 6.4 11.8 3.6 5.4 7.8 10.8 2 2.4 4 5 2 2.4 4 5l24.4-32.6q1.6.6 3.2.8 1.8.2 3.6.2t3.4-.2q1.8-.2 3.4-.8-2.4 2.4-5 5.2-2.6 2.6-5.2 5.6-2.4 2.8-5 5.8l-4.8 5.6q-3.4 4.2-6.6 8.2-3.2 3.8-6 7.6l31.2 42.6v2.6l-2-.4-2-.4h-2.2q-1-.2-2-.2-2 0-4 .4-2 .2-4.2.6-2-3.2-4.4-6.6-2.2-3.6-4.8-7.2-2.2-3.4-4.6-6.6-2.4-3.2-4.8-6.2l-3.2-3.6q-1.4-2-3-3.6l-24.4 33.8q-.6-.2-1.4-.4l-1.6-.4q-.4-.2-1-.2h-1q-1.4 0-2.8.4-1.4.2-3 .6V437l31.2-38zM400.54 666.4v-90q1.6.6 3.2.8 1.8.2 3.6.2t3.6-.2q1.8-.2 3.2-.8v95.4q0 13.4-8.4 22.6-8.2 9.2-18.2 9.2h-2.2q-.8 0-1.4-.2-.6 0-1-.2v-5.6h.8q.4.2 1 .4h.8q.4.2.8.2h.8q.4 0 .8-.2 4.6-1 8.6-8.8 4-7.8 4-23zm-2.8-121.6q0-4 2.8-6t6.8-2h.8q2.8.2 5.2 2.4 2.6 2.2 3.4 7-.6 4.2-3 6.4t-5.2 2.8h-1.2q-3.6 0-6.6-2.8-3-2.8-3-7.8zM437.73 629.8v-53.4q1.6.6 3.6.8 2 .2 4 .2h1.6q1.6 0 3-.2 1.6-.4 2.8-.8v49.4q0 10.4 4.8 19 4.8 8.4 15 8.4h.2q.4-.2.8-.2h.2q.4-.2.6-.2h.4q9.8-.8 13.8-6.8 4.2-6.2 5-13.6.2-1 .2-2v-54q2.2.6 4.2.8 2 .2 3.8.2h1.4q.8 0 1.6-.2 1.2 0 2.2-.2 1-.2 1.8-.6v83.2q-.8-.2-1.8-.4t-2.2-.4h-1.6q-.6-.2-1.4-.2-1.8 0-3.8.4-2 .2-4.2.6v-12.2q-4 8.2-11.8 10.8-7.6 2.6-17 2.6-13.2 0-18.8-5.8-5.6-5.8-7.2-12.8-.8-3.4-1-6.6-.2-3.2-.2-5.8zM530.958 659.6v-84.4q1.6.4 3 .8 1.6.2 3.2.2t3.4-.2l4-.8v13.4q.4-.8 1-1.6t1.4-1.8q3.6-4.2 9.4-7.8 6-3.6 13-3.6 8.8 0 14 1.8 5.2 1.8 9.6 7.8 1.2 1.6 2.4 3.6t2.4 4.4q4-8.6 10.8-12.8 7-4.2 14.6-4.8h2.2q12.4 0 20 7.6 7.8 7.6 8.6 16.6.2.6.2 1.2v60.4q-1-.2-2.2-.4-1.2-.4-2.4-.4-.6-.2-1.4-.2h-1.4q-1.8 0-3.8.4-1.8.2-4 .6v-56q0-8.6-5.8-14-5.6-5.4-12.4-6h-1.6q-.6 0-1.4.2h-1.4q-6 1-11.4 6.6-5.2 5.4-5.8 16v53.2q-1.4-.4-3.2-.6-1.8-.4-3.6-.4t-3.6.4q-1.6.2-3.2.6v-56q0-8.2-5.8-13.2-5.6-5.2-12.2-6-.8-.2-1.4-.2h-2.4q-6.6.4-12.2 5.8-5.4 5.2-5.6 16.4v53.2q-1-.4-2.2-.6-1.2-.2-2.6-.2-.6-.2-1.2-.2h-1.2q-1.8 0-3.8.4-1.8.2-4 .6zM672.995 576.4q1.6.6 3.2.8 1.8.2 3.6.2t3.6-.2q1.8-.2 3.2-.8v17.8q3.4-9.6 10-13.6 6.8-4.2 14-5.2h2.4q1.4-.2 2.6-.2 15.2 0 25.4 10t10.2 33.8q0 15.8-9.2 28.8-9 13-27.2 13l-2 .2q-11.2-.2-17-5-5.8-4.8-8.8-10.6-.2-.2-.4-.2v-.4 60q-1.4-.6-3.2-1-1.8-.2-3.6-.2t-3.6.2l-3.2.8V576.4zm13.6 39.4v1.4q-.2.4-.2 1v.8q0 2.8.2 6.8.4 3.8 1.6 7.8 1.8 6.4 6.6 12 5 5.6 15.2 7.2.4 0 .6.2h.6q.2 0 .4.2h.6q10 0 16.2-9 6.2-9 6.2-25.2v-2.6q0-1.4-.2-2.8-.6-11.8-5.2-21.6-4.4-10-16-10h-1.8q-9.4 0-15.6 7.8-6 7.6-9.2 26zM763.423 601q0-13.8 9.2-20.2 9.2-6.4 20.4-6.4 1.2 0 2.4.2 1.4 0 2.8.2 3.8.4 7.6 1.6 3.8 1.2 7 2.8l-4.2 13.6h-2.6q-1.4-5-5.4-7.8-3.8-2.8-8-3.2-.6-.2-1.2-.2H789.823q-4.8.2-9 3-4.2 2.6-5 8.2 0 .2-.2.6v.8q0 .6-.2 1v.6q0 6.2 5.4 9.4t11.8 5.2q1.2.4 2.2.8 1.2.4 2.2.8 1 .2 1.8.6 1 .2 1.8.6 9.2 3.4 13.2 9.2 4 5.6 4 11.8v1.2q-.6 9.6-9.6 17.6-8.8 7.8-21.6 7.8-7.2 0-13.8-1.2-6.6-1.4-10.6-5.4l4-12.2h2.8q2.8 5 6.2 8 3.6 2.8 7 3.8 1.2.4 2.4.6 1.2.2 2.4.2 6 0 11-4 5.2-4.2 6.4-9v-1.2q.2-.6.2-1.2-.8-7.6-6.2-10.4-5.4-2.8-12-4.6-.2-.2-.6-.2-.2-.2-.6-.2-1.8-.6-3.6-1l-3.2-1.2q-6.2-2-10.6-6.6-4.4-4.8-4.4-14zM902.102 621.6q0-20.6 12.2-33.4 12.4-13 33-13 15.4 0 24 7.4t12.6 16.4q2.6 5.8 3.6 11.2 1 5.4 1 8.8 0 3.2-.6 6.8-.6 3.4-1.8 6.8-3.6 10.6-13.4 19.4-9.8 8.8-27 8.8l-2.4.2q-19.6-.2-30.4-11.6-10.8-11.4-10.8-27.8zm16.4 1.4q0 2.2.6 6.6.6 4.2 2.4 8.8 2.4 6.2 7.8 11.4t15.4 5.8q11.2 0 18.6-9.2 7.6-9.2 8.4-27.4 0-16.6-6.2-26.8t-19.6-10.2q-12.4 0-19.6 10.6-7 10.4-8 23-.2 1-.2 2v2.8q.2.4.2.8v1q.2.4.2.8zM992.53 576.4h17.8q1.8 6.2 4.4 13.8 2.6 7.6 5.6 15.4 1.6 4.2 3.2 8.2 1.6 4 3.2 7.8 2.6 6 5 11.4 2.6 5.2 4.8 9 2.2-4.2 5-10.4t5.6-13.2q.8-2 1.6-3.8.8-2 1.4-4 4.2-10.6 7.6-20.2 3.4-9.6 4.6-14h12.2q-4.4 9.2-8.4 18.2-3.8 8.8-7.6 17.4-1.4 3.6-3 7.2-1.4 3.4-2.8 7-3.2 8-6.6 16.4-3.4 8.2-7 17-.8-.4-1.8-.6-1-.2-2.2-.4h-1.8q-1.4 0-3 .4-1.4.2-2.4.6l-35.4-83.2zM1082.527 621.6q0-22.6 11.6-33.8 11.6-11.4 28.2-11.4 14.8 0 22.6 7.4 7.8 7.2 10.6 15.8 1.4 3.6 1.8 7.2.6 3.4.6 6.4v1.8q0 1.2-.2 2.2 0 1-.2 1.8h-58.8q0 15.2 6.2 24.6 6.4 9.2 24 9.2 7.2 0 13.8-2.8 6.8-3 10.8-8l1.2 9.6q-.6.4-1.4 1l-1.2.8q-5.2 3.6-11.4 6.2t-17.2 2.6q-21.6-1-30.8-13.2t-10.2-27.4zm61.4-9.8v-1.6-2q-.6-9.4-5.2-17.2-4.4-7.8-16.4-7.8-9.2 0-15 6.6-5.6 6.4-7.6 14.2l-.8 4q-.2 2-.2 3.8h45.2zM1176.523 659.6v-83.2q1.6.6 3.2.8 1.8.2 3.6.2h1.6q1 0 1.8-.2l1.6-.4q1-.2 1.8-.4v16.4q3.4-7.4 9.8-12.4 6.4-5.2 14.8-5.2h2.8l-1.4 16.2-1.2-.4q-.4-.2-.8-.6-2.2-.8-4.2-1.2-2-.6-3.6-.6-6.2 0-10 4.4-3.6 4.4-5 9.8-.6 2-1 4-.2 1.8-.2 3.6v49.2q-.8-.2-1.8-.4l-1.6-.4h-1.8q-.8-.2-1.6-.2-1.8 0-3.6.4-1.6.2-3.2.6zM307.942 859.2v-56h-10.8q.4-.4.6-1 .4-.8.4-1.6 0-.6-.2-1.2 0-.8-.2-1.6-.2-.2-.4-.6 0-.4-.2-.8h10.8v-16.6l13.6-5.4v22h19.4q-.6 1-1 1.8t-.4 1.6q0 .8.4 1.6t1 1.8h-19.4v50q0 2.6.4 5.2.4 6.4 2.8 11.6 2.6 5.2 9 5.2 1.6 0 3.8-.4 2.2-.6 4.6-1.4.4-.2.6-.2l.8-.4v5.6q-.4.2-1 .4-.4 0-.8.2-4 1.2-8 1.8-3.8.6-6.8.6-9.4 0-14.2-6-4.8-6-4.8-16.2zM353.333 879.6V746.8q2.2.6 4 1 2 .2 3.8.2h1.2q.6 0 1.2-.2 1.4 0 2.6-.2 1.2-.4 2.2-.8V810l.4-.8q.4-.4.8-.6.6-.8 1-1.6.6-.8 1.4-1.6 3.2-4.4 9-8 6-3.6 19-3.6 11.2 0 18.4 9 7.4 9 7.4 22.2v54.6q-2-.4-4-.6-1.8-.4-3.6-.4-1.6 0-3.4.4-1.8.2-4 .6v-53.2q0-10.8-6-16.6-5.8-5.8-12.8-6.2H389.533q-.4 0-.8.2-7.8.8-14.2 7.8-6.2 6.8-6.2 20.2v47.8q-1-.4-2.2-.6-1.2-.2-2.6-.2-.6-.2-1.2-.2h-1.2q-1.8 0-3.8.4-1.8.2-4 .6zM439.76 841.6q0-22.6 11.6-33.8 11.6-11.4 28.2-11.4 14.8 0 22.6 7.4 7.8 7.2 10.6 15.8 1.4 3.6 1.8 7.2.6 3.4.6 6.4v1.8q0 1.2-.2 2.2 0 1-.2 1.8h-58.8q0 15.2 6.2 24.6 6.4 9.2 24 9.2 7.2 0 13.8-2.8 6.8-3 10.8-8l1.2 9.6q-.6.4-1.4 1l-1.2.8q-5.2 3.6-11.4 6.2t-17.2 2.6q-21.6-1-30.8-13.2t-10.2-27.4zm61.4-9.8v-1.6-2q-.6-9.4-5.2-17.2-4.4-7.8-16.4-7.8-9.2 0-15 6.6-5.6 6.4-7.6 14.2l-.8 4q-.2 2-.2 3.8h45.2zM616.295 879.6v-134q2.2.4 4 .8 1.8.2 3.6.2 1.6 0 3.4-.2l4-.8v134q-1-.4-2.2-.6-1.2-.2-2.6-.2-.6-.2-1.2-.2h-1.2q-1.8 0-3.8.4-1.8.2-4 .6zM652.486 860.6q0-8.2 4.8-14 4.8-6 17-9l22-4.4q3.6-.6 5.4-3.4 1.8-3 1.8-6.2 0-1.4-.4-3-.2-1.6-.8-3.2-2.2-5.4-7.2-9.8t-11.6-4.4h-1q-4 0-7.4 1.4-3.4 1.4-6.6 4-1.4 1.4-3 3.2-1.6 1.6-3.4 3.6h-2.8V806l2.4-1.2q1.2-.8 2.6-1.6 4.6-2.6 10.6-4.6 6-2.2 13.4-2.2 15.4 0 22.6 6.6 7.2 6.6 7.2 22v43.8q0 2.6 1.2 3.8 1.2 1.2 3.2 1.2.8 0 1.8-.2l2-.4q.4-.2.6-.2.4-.2.8-.2v4.2q-1.4 1-3.2 1.8-1.6.6-3.4.8l-2 .4h-1.6q-5 0-9.4-2.6-4.4-2.8-5-7.2-2.2 2-4.6 3.8-2.2 1.6-4.6 3-4.6 2.6-9.2 3.6-4.6 1.2-8.6 1.2-10.2 0-17-6-6.6-6.2-6.6-15.2zm50.6 1.4v-23q-19 1.6-27.6 6.4-8.6 4.8-8.6 13.6v1.2q.2.4.4 1v1.2q.2.4.2 1 .2.6.4 1.4l.8 1.6q2 2.8 6 5.2 4 2.2 8.8 2.2 2.2 0 4.4-.6 2.4-.6 4.6-1.8 2.8-1.4 5.4-3.6 2.8-2.4 5.2-5.8zM742.483 797.8h68.2v2.8l-54.6 72.2q6.2 0 13.6-.2 7.6-.4 15.4-.8l11.6-.8q6-.4 11.2-.8 0 .2-.2.6v.6q0 .2-.2.4v.2q0 .4-.2 1V875.4l.4 1.6v1.4q.2.6.2 1.2h-73.6v-4q3.2-3.8 6.6-7.6l6.8-8q5.4-6.6 10.6-13.2 5.4-6.8 10.4-13.4 5.6-7.4 10.6-14.6 5.2-7.2 9.6-14.2-6.2.6-12.2 1l-11.6.4-9.2.4q-4.4.2-9 .6-1 .2-2.2.2-1 0-2.2.2.4-1 .6-2 .4-1.2.4-2.2 0-.8-.2-2t-.6-2.4q0-.2-.2-.4v-.6zM818.68 796.4q2.6.6 5 .8 2.6.2 5 .2 2.2 0 4.2-.2t3.6-.8q1.2 4.6 5.4 15.6 4.2 10.8 9.2 23l1.6 4q1 1.8 1.8 3.8 2 4.8 4 9.4 2.2 4.4 4 8.4 2-4 4.2-8.8 2.4-5 4.8-10.4l1.6-4q1-2 1.8-4 5-12 8.8-22.6 4-10.6 4.6-14.4 1.6.6 3.2.8 1.6.2 3 .2 1.6 0 3-.2 1.6-.2 3-.8l-57.2 128.4q-1-.6-2.4-1-1.2-.2-2.8-.2-1.4 0-3.2.2-1.8.4-4 .8l23.2-46.2-35.4-82zM986.814 843q0-22.6 9.8-35.2 10-12.6 28.6-12.6.8 0 1.6.2h1.8q7.2.8 13.4 4.4 6.4 3.4 8.4 7.4l.4 1.6q.2.6.2 1.2v-61.8q2.2.6 4 1 1.8.4 3.4.4 1.8 0 3.6-.4 2-.4 4-1v131.4q-1-.4-2.2-.6-1.2-.2-2.6-.2-.6-.2-1.2-.2h-1.2q-1.8 0-3.8.4-1.8.2-4 .6v-14.8q-4.4 6.2-9.8 10-5.2 3.6-10.6 5-2.2.4-4.4.6-2 .4-4 .4-13.4 0-24.6-10.6-11.2-10.8-11.2-25.6v-.2q.2-.2.2-.6.2-.2.2-.4v-.4zm16.4-2.8q0 13.4 4 20.4 4 7 9 9.6 2.4 1.6 4.8 2.2 2.4.4 4.2.4h.2q.2 0 .4.2h.4q.2 0 .4.2h.4q9.4 0 16.6-9 7.4-9 7.4-25.2 0-3-.4-6.6-.2-3.8-1-7.6-1.6-8-6.4-14.8-4.8-6.8-15-6.8h-1.6q-11.2.8-16 7.6-4.8 6.6-6.2 14.8-.8 3.8-1 7.8-.2 3.8-.2 6.8zM1078.242 841.6q0-20.6 12.2-33.4 12.4-13 33-13 15.4 0 24 7.4t12.6 16.4q2.6 5.8 3.6 11.2 1 5.4 1 8.8 0 3.2-.6 6.8-.6 3.4-1.8 6.8-3.6 10.6-13.4 19.4-9.8 8.8-27 8.8l-2.4.2q-19.6-.2-30.4-11.6-10.8-11.4-10.8-27.8zm16.4 1.4q0 2.2.6 6.6.6 4.2 2.4 8.8 2.4 6.2 7.8 11.4t15.4 5.8q11.2 0 18.6-9.2 7.6-9.2 8.4-27.4 0-16.6-6.2-26.8t-19.6-10.2q-12.4 0-19.6 10.6-7 10.4-8 23-.2 1-.2 2v2.8q.2.4.2.8v1q.2.4.2.8zM1175.47 819.6q1.8-11.8 9.8-17 8.2-5.2 17.4-6 1-.2 2-.2h2.2q7.8 0 10.8.4 3 .2 4.6.6.2.2.4.2t.4.2q1.4.2 3.2.6 2 .2 6.6.2h2.8q1.8-.2 4-.4 2-.2 4.4-.2 2.6-.2 5.2-.2v6.8l-20.4-1.4q5.2 3.2 8.6 9.6 3.6 6.4 3.6 13.6-1.4 13.8-8.8 19-7.4 5-15.8 6.2-3.2.4-6.2.6-3 0-5.8.2-4.8 0-8.2.4-3.4.4-4.4 2.4 0 .2-.2.4 0 .2-.2.6-.4 1.2-.8 2.2-.2 1-.2 1.6 0 5 6 6.8 6.2 1.6 13.6 2h18.8q10.2 2 15.4 7 5.4 4.8 6.4 15.8v2q0 1.6-.4 3.4-.2 1.8-.8 3.6-3.2 9.4-14.4 17.4-11 8-28.2 8-15.2 0-24.6-7.4-9.4-7.2-9.4-17.4t4.2-15.6q4.2-5.4 13.4-7.2-5-2.2-8-5.4-2.8-3.2-2.8-8.2 0-4.2 1.4-6.8 1.4-2.6 4.2-4.8 1.2-1.2 2.8-2.2 1.8-1.2 3.8-2.6-10-3-13.2-8.6-3-5.6-3.4-12v-1.6-1.8-1.2q0-.6.2-1.2v-1.2-1.2zm8.2 79q0 1.4.2 3 .4 1.6 1.2 3.4 2 5.2 7.8 9.4 5.8 4.4 16.6 4.4 2 0 4.2-.2t4.4-.8q7.2-1.6 13-6 6-4.2 6-12V898q0-1-.2-1.8-.4-6.4-4.8-11.6-4.4-5-19.4-5-11.6 0-19.8 3.2-8.2 3.4-9.2 15.6zm5.4-72.2q0 9.4 5.2 15 5.4 5.6 12.6 5.6.2 0 .4.2h.6q.2 0 .4.2H1209.47q6.8-.2 12.4-6.2 5.6-6 5.6-16.2 0-11.2-5.6-17-5.4-6-13.8-6-8.2.6-12.2 5.2-4 4.4-5.6 9.6-.6 2.6-1 5.2-.2 2.4-.2 4.4zM1265.467 871.6q0-7.2 3.4-9.8 3.4-2.6 7.4-2.6 4 1 7.4 4 3.4 3 3.4 7-.4 5.6-3.6 8.2-3.2 2.4-7.2 2.4h-.4-.2q-3.6-.2-6.8-2.4-3-2.4-3.4-6.8z"/></g></svg>