<svg xmlns="http://www.w3.org/2000/svg" viewBox="0 0 800 500"><path fill="#fff" d="M0 0h800v500H0z"/><g font-weight="400" font-size="100" font-family="Optima" text-anchor="middle" fill="#111"><path d="M218.642 109.8v-56q-1.5 0-4.1.3-2.6.2-5.4.5-.7.1-1.5.2-.8 0-1.6.1-1.9.3-3.6.5-1.7.2-2.8.4.2-.8.3-1.5.2-.8.2-1.5 0-.4-.1-.8v-.8q-.1-.3-.2-.7l-.2-.8h45.8l-.2.8q-.1.4-.2.7 0 .4-.1.8v.8q0 .7.1 1.5.2.7.4 1.5-6.2-1-11.4-1.5t-7.8-.5v56q-.5-.2-1.1-.3-.6-.1-1.3-.1-.3-.1-.6-.1h-.6q-.5 0-1.2.1-.6 0-1.3.1l-.8.2q-.3 0-.7.1zM253.756 109.8V43.4q1.1.3 2 .5 1 .1 1.9.1h.6q.3 0 .6-.1.7 0 1.3-.1.6-.2 1.1-.4V75l.2-.4q.2-.2.4-.3.3-.4.5-.8.3-.4.7-.8 1.6-2.2 4.5-4 3-1.8 9.5-1.8 5.6 0 9.2 4.5 3.7 4.5 3.7 11.1v27.3q-1-.2-2-.3-.9-.2-1.8-.2-.8 0-1.7.2-.9.1-2 .3V83.2q0-5.4-3-8.3-2.9-2.9-6.4-3.1H271.856q-.2 0-.4.1-3.9.4-7.1 3.9-3.1 3.4-3.1 10.1v23.9q-.5-.2-1.1-.3-.6-.1-1.3-.1-.3-.1-.6-.1h-.6q-.9 0-1.9.2-.9.1-2 .3zM299.97 90.8q0-11.3 5.8-16.9 5.8-5.7 14.1-5.7 7.4 0 11.3 3.7 3.9 3.6 5.3 7.9.7 1.8.9 3.6.3 1.7.3 3.2v.9q0 .6-.1 1.1 0 .5-.1.9h-29.4q0 7.6 3.1 12.3 3.2 4.6 12 4.6 3.6 0 6.9-1.4 3.4-1.5 5.4-4l.6 4.8q-.3.2-.7.5l-.6.4q-2.6 1.8-5.7 3.1t-8.6 1.3q-10.8-.5-15.4-6.6t-5.1-13.7zm30.7-4.9v-.8-1q-.3-4.7-2.6-8.6-2.2-3.9-8.2-3.9-4.6 0-7.5 3.3-2.8 3.2-3.8 7.1l-.4 2q-.1 1-.1 1.9h22.6zM388.637 89.5q.5-10.9 5-16.1 4.5-5.2 12.7-5.2 5 0 8.3 2.3 3.4 2.3 5.2 5 .3.4.5.8l.4.8v-8.9q.6.2 1.3.4.8.1 1.6.1h.8q1.1 0 2.1-.1t1.7-.4v64.9q-.5-.2-1.1-.4-.6-.1-1.3-.1-.3-.1-.6-.1h-.6q-.9 0-1.9.1-.9.2-2 .4v-29.3q-.3.6-.8 1.4-.5.7-1.1 1.5-1.6 1.7-4.5 3.1-2.9 1.4-8 1.4-6.7 0-12.2-4.9-5.5-5-5.5-16.7zm7.5 0q0 1.5.2 3.3.2 1.8.8 3.6 1.1 4 3.7 7.4 2.7 3.3 7.7 3.3 5.9 0 8.6-4 2.7-4.1 3.3-9 .2-1 .2-2 .1-1 .1-2 0-1.4-.2-3.7-.2-2.3-1-4.7-1.1-3.8-3.8-6.9-2.6-3.2-7.9-3.2-5.7 0-8.8 4.9-3.1 4.9-3.1 11.1v.5q.1.2.1.4v.2q.1.2.1.4v.4zM440.752 94.9V68.2q.8.3 1.8.4 1 .1 2 .1h.8q.8 0 1.5-.1.8-.2 1.4-.4v24.7q0 5.2 2.4 9.5 2.4 4.2 7.5 4.2h.1q.2-.1.4-.1h.1q.2-.1.3-.1h.2q4.9-.4 6.9-3.4 2.1-3.1 2.5-6.8.1-.5.1-1v-27q1.1.3 2.1.4 1 .1 1.9.1h.7q.4 0 .8-.1.6 0 1.1-.1.5-.1.9-.3v41.6q-.4-.1-.9-.2t-1.1-.2h-.8q-.3-.1-.7-.1-.9 0-1.9.2-1 .1-2.1.3v-6.1q-2 4.1-5.9 5.4-3.8 1.3-8.5 1.3-6.6 0-9.4-2.9-2.8-2.9-3.6-6.4-.4-1.7-.5-3.3-.1-1.6-.1-2.9zM492.366 109.8V67.6q1.1.2 2.1.4 1 .1 1.8.1h.6q.3 0 .6-.1.7 0 1.3-.1.6-.2 1.1-.3v42.2q-.5-.2-1.1-.3-.6-.1-1.3-.1-.3-.1-.6-.1h-.6q-.8 0-1.8.2-1 .1-2.1.3zm-.6-57.4q0-2.6 1.3-3.6 1.4-1.1 3.4-1.1.3 0 .6.1.3 0 .6.1 1.3.4 2.4 1.6 1.2 1.2 1.2 2.9-.1 2.3-1.5 3.6-1.3 1.2-2.9 1.4h-.8-.1q-1.6-.1-2.9-1.4-1.3-1.4-1.3-3.6zM513.56 90.1q0-9.8 5.7-15.8 5.7-6.1 17.5-6.1 3.4 0 5.6.6 2.2.5 4.3 1.3l1.4.8q.8.3 1.6.7l-1.3 6.1h-1.4q-2-3-4.7-4.5-2.7-1.6-6.8-1.6-6.6 0-10.2 5.5-3.5 5.5-3.6 12.1V89.5q0 6.6 3.7 12.1 3.8 5.5 11.4 5.5 4.1 0 6.9-1.4 2.8-1.5 5.3-4l.7.7-.7 4q-2.4 1.9-5.5 2.9t-6.4 1.2q-.4.1-.9.1h-.9q-.6 0-1.2-.1h-1.1q-7.4-.6-13.5-5.6-6.1-5.1-6.1-13.9v-.2q.1-.1.1-.3v-.2q.1-.1.1-.2zM562.16 109.8v-67q.6.2 1.3.3l1.6.2h.8q1.1 0 2-.1 1-.2 1.8-.4v41.7l-.2.5q0 .4.1.7.2.2.4.2 1.2 0 4.2-2.7t6.5-6.1q.4-.5.8-.9l.8-.8q2.1-2.2 3.9-4.2 1.9-2.1 3.3-3.6l1.6.4q.9.1 1.8.1t1.8-.1q.9-.2 1.6-.4v.6l-18.3 17 19.7 23.3v1.3q-1-.2-2.1-.3-1-.2-2-.2-.5 0-1 .1h-1q-.6.1-1.1.2l-1 .2-.4-.4q-.2-.2-.4-.5-1.1-1.2-2.3-2.5-1.1-1.4-2.2-2.7-4.8-5.8-8.7-10.5-3.8-4.8-5.2-4.8-.4 0-.5.5-.1.4-.1 1.2v19.7q-.5-.2-1.2-.3-.6-.1-1.2-.1-.3-.1-.6-.1h-.6q-.6 0-1.3.1-.6 0-1.3.1-.3.1-.7.2-.3 0-.6.1zM200.03 219.8V155q.8.2 1.8.4 1 .1 2 .1h.8q.8-.1 1.5-.2.8-.1 1.4-.3v31.4q1.9-2.9 5.8-5.4 4-2.5 8.3-2.8h1q8.9 0 13.4 6.4 4.6 6.4 4.6 14.2v1.2q-.4 7.6-5.2 14-4.7 6.4-14.1 7.1h-.8q-.4 0-.8-.1-3.2-.3-6.4-1.7-3.1-1.5-5.8-4.2l-5.4 4.7h-2.1zm7.5-19.7q0 .2-.1.5V201.5q-.1.1-.1.3v1.4q0 .5.1 1 .5 5.1 3.4 9.4 2.9 4.2 8.4 4.2 5.1 0 9-4.6 3.9-4.6 3.9-13.7 0-6.5-2.7-11.8-2.7-5.4-8.7-5.4h-.8q-5.2 0-8.8 5.3-3.6 5.3-3.6 12.5zM251.043 219.8v-41.6q.8.3 1.6.4.9.1 1.8.1h.8q.5 0 .9-.1l.8-.2q.5-.1.9-.2v8.2q1.7-3.7 4.9-6.2 3.2-2.6 7.4-2.6h1.4l-.7 8.1-.6-.2q-.2-.1-.4-.3-1.1-.4-2.1-.6-1-.3-1.8-.3-3.1 0-5 2.2-1.8 2.2-2.5 4.9-.3 1-.5 2-.1.9-.1 1.8v24.6q-.4-.1-.9-.2l-.8-.2h-.9q-.4-.1-.8-.1-.9 0-1.8.2-.8.1-1.6.3zM276.512 200.8q0-10.3 6.1-16.7 6.2-6.5 16.5-6.5 7.7 0 12 3.7t6.3 8.2q1.3 2.9 1.8 5.6.5 2.7.5 4.4 0 1.6-.3 3.4-.3 1.7-.9 3.4-1.8 5.3-6.7 9.7-4.9 4.4-13.5 4.4l-1.2.1q-9.8-.1-15.2-5.8-5.4-5.7-5.4-13.9zm8.2.7q0 1.1.3 3.3.3 2.1 1.2 4.4 1.2 3.1 3.9 5.7t7.7 2.9q5.6 0 9.3-4.6 3.8-4.6 4.2-13.7 0-8.3-3.1-13.4t-9.8-5.1q-6.2 0-9.8 5.3-3.5 5.2-4 11.5-.1.5-.1 1v1.4q.1.2.1.4v.5q.1.2.1.4zM339.526 219.8q-1-3.4-2.2-7.1-1.2-3.7-2.6-7.4-.4-1.4-.9-2.7l-1-2.6q-2.5-6.8-4.8-12.7-2.2-5.9-3.4-9.1l.6.2q.4.1.7.1.7.1 1.3.2h2.2q.7-.1 1.3-.2.7-.1 1.3-.3 2.6 8.2 5.2 16 2.6 7.8 5.7 15.4 1.4-1 3.5-6.5t4.4-12q.1-.3.2-.5l.2-.6q1-3.1 2-6.1 1.1-3.1 2.1-5.7.5.3 1.1.4.6.1 1.3.1h.8l.8-.2q.5-.1.8-.3.6 2.5 1.3 5.2.7 2.6 1.5 5.2 1.8 6 3.9 11.8 2.1 5.7 4.3 9.9.5-1.6 2.3-6 1.9-4.4 3.9-9.6.2-.4.3-.7.1-.4.3-.8 1.7-4.4 3.2-8.4 1.5-4.1 2.2-6.6 1.1.3 1.8.4.8.1 1.4.1h.9q.5-.1.9-.2.4 0 .7-.1l.6-.2q-5.2 10.2-9.5 20.6-4.2 10.3-8.3 21-.4-.2-.9-.3l-1-.2h-.7q-.4 0-.9.1-.5 0-1.1.1-.2.1-.5.2-.2 0-.5.1-.5-2.6-1.3-5.4-.8-2.8-1.7-5.7-.4-1.3-.9-2.6-.4-1.4-.8-2.7-1.4-4.2-2.7-7.9-1.3-3.8-2.1-6.4-1.3 2.4-2.9 6.2-1.5 3.8-3.1 8.2l-1 2.6q-.4 1.2-.8 2.5-1.1 2.9-2.1 5.8-.9 2.8-1.8 5.4-.4-.2-.9-.3l-1-.2h-.7q-.4 0-1 .1t-1.1.2q-.2 0-.4.1-.2 0-.4.1zM399.28 219.8v-42.2q.6.2 1.3.3l1.6.2h.8q1.1 0 2-.1 1-.2 1.8-.4v7.4q.5-.7 1.1-1.5.7-.9 1.5-1.8 1.7-1.8 4.5-3.3 2.8-1.5 7.3-1.5 5.1 0 9.3 4 4.3 3.9 4.3 13.6v25.3q-.7-.2-1.6-.3-.8-.2-1.7-.2-.8 0-1.9.2-1 .1-2.3.3v-25.3q0-6.1-3.1-9.1-3-3.1-6.7-3.1h-.2-.1q-3.9.1-7.2 3.6-3.2 3.4-3.2 10v23.9q-1-.2-2-.3-.9-.2-1.8-.2t-1.8.2q-.9.1-1.9.3zM492.463 219.8v-37.5h-6.1q.3-.2.4-.7.1-.5.1-1t-.1-.9q-.1-.5-.4-.8h6.1q1.8-13.7 6.3-18.9 4.5-5.2 10-5.2h.6q.3 0 .7.1h.2q.4 0 .7.1h.7q-.5 1.8-.6 3.2-.1 1.4-.1 2.8v.8l-.6.6h-.2l-.2-.2h-.1q-.9-.4-2-.7-1-.4-2.5-.4-4.2 0-5.7 2.9-1.4 2.8-1.4 6.3v1.2q.1.5.1 1.1.1.6.2 1.3.1.6.2 1.3.2 1 .3 2 .2.9.2 1.7h9.7q-.1.2-.3.5-.1.2-.1.5-.1.1-.1.3v.2q0 .4.1.9l.4 1h-9.7v37.5l-.8-.2-.8-.2h-.8q-.4-.1-.8-.1-.7 0-1.6.2-.9.1-2 .3zM512.06 200.8q0-10.3 6.1-16.7 6.2-6.5 16.5-6.5 7.7 0 12 3.7t6.3 8.2q1.3 2.9 1.8 5.6.5 2.7.5 4.4 0 1.6-.3 3.4-.3 1.7-.9 3.4-1.8 5.3-6.7 9.7-4.9 4.4-13.5 4.4l-1.2.1q-9.8-.1-15.2-5.8-5.4-5.7-5.4-13.9zm8.2.7q0 1.1.3 3.3.3 2.1 1.2 4.4 1.2 3.1 3.9 5.7t7.7 2.9q5.6 0 9.3-4.6 3.8-4.6 4.2-13.7 0-8.3-3.1-13.4t-9.8-5.1q-6.2 0-9.8 5.3-3.5 5.2-4 11.5-.1.5-.1 1v1.4q.1.2.1.4v.5q.1.2.1.4zM577.973 199.5l-16.3-21.3q.9.2 1.6.3l1.6.2h1.6q1.1 0 2.2-.1 1.2-.1 2.5-.4 1.4 3.1 3.2 5.9 1.8 2.7 3.9 5.4 1 1.2 2 2.5 1 1.2 2 2.5l12.2-16.3q.8.3 1.6.4.9.1 1.8.1t1.7-.1q.9-.1 1.7-.4-1.2 1.2-2.5 2.6-1.3 1.3-2.6 2.8-1.2 1.4-2.5 2.9l-2.4 2.8q-1.7 2.1-3.3 4.1-1.6 1.9-3 3.8l15.6 21.3v1.3l-1-.2-1-.2h-1.1q-.5-.1-1-.1-1 0-2 .2-1 .1-2.1.3-1-1.6-2.2-3.3-1.1-1.8-2.4-3.6-1.1-1.7-2.3-3.3-1.2-1.6-2.4-3.1l-1.6-1.8q-.7-1-1.5-1.8l-12.2 16.9q-.3-.1-.7-.2l-.8-.2q-.2-.1-.5-.1h-.5q-.7 0-1.4.2-.7.1-1.5.3v-1.3l15.6-19zM185.27 333.2v-45q.8.3 1.6.4.9.1 1.8.1t1.8-.1q.9-.1 1.6-.4v47.7q0 6.7-4.2 11.3-4.1 4.6-9.1 4.6h-1.1q-.4 0-.7-.1-.3 0-.5-.1v-2.8h.4q.2.1.5.2h.4q.2.1.4.1h.4q.2 0 .4-.1 2.3-.5 4.3-4.4 2-3.9 2-11.5zm-1.4-60.8q0-2 1.4-3t3.4-1h.4q1.4.1 2.6 1.2 1.3 1.1 1.7 3.5-.3 2.1-1.5 3.2t-2.6 1.4h-.6q-1.8 0-3.3-1.4-1.5-1.4-1.5-3.9zM206.865 314.9v-26.7q.8.3 1.8.4 1 .1 2 .1h.8q.8 0 1.5-.1.8-.2 1.4-.4v24.7q0 5.2 2.4 9.5 2.4 4.2 7.5 4.2h.1q.2-.1.4-.1h.1q.2-.1.3-.1h.2q4.9-.4 6.9-3.4 2.1-3.1 2.5-6.8.1-.5.1-1v-27q1.1.3 2.1.4 1 .1 1.9.1h.7q.4 0 .8-.1.6 0 1.1-.1.5-.1.9-.3v41.6q-.4-.1-.9-.2t-1.1-.2h-.8q-.3-.1-.7-.1-.9 0-1.9.2-1 .1-2.1.3v-6.1q-2 4.1-5.9 5.4-3.8 1.3-8.5 1.3-6.6 0-9.4-2.9-2.8-2.9-3.6-6.4-.4-1.7-.5-3.3-.1-1.6-.1-2.9zM256.48 329.8v-42.2q.8.2 1.5.4.8.1 1.6.1t1.7-.1l2-.4v6.7q.2-.4.5-.8t.7-.9q1.8-2.1 4.7-3.9 3-1.8 6.5-1.8 4.4 0 7 .9 2.6.9 4.8 3.9.6.8 1.2 1.8t1.2 2.2q2-4.3 5.4-6.4 3.5-2.1 7.3-2.4h1.1q6.2 0 10 3.8 3.9 3.8 4.3 8.3.1.3.1.6v30.2q-.5-.1-1.1-.2-.6-.2-1.2-.2-.3-.1-.7-.1h-.7q-.9 0-1.9.2-.9.1-2 .3v-28q0-4.3-2.9-7-2.8-2.7-6.2-3h-.8q-.3 0-.7.1h-.7q-3 .5-5.7 3.3-2.6 2.7-2.9 8v26.6q-.7-.2-1.6-.3-.9-.2-1.8-.2t-1.8.2q-.8.1-1.6.3v-28q0-4.1-2.9-6.6-2.8-2.6-6.1-3-.4-.1-.7-.1h-1.2q-3.3.2-6.1 2.9-2.7 2.6-2.8 8.2v26.6q-.5-.2-1.1-.3-.6-.1-1.3-.1-.3-.1-.6-.1h-.6q-.9 0-1.9.2-.9.1-2 .3zM330.498 288.2q.8.3 1.6.4.9.1 1.8.1t1.8-.1q.9-.1 1.6-.4v8.9q1.7-4.8 5-6.8 3.4-2.1 7-2.6h1.2q.7-.1 1.3-.1 7.6 0 12.7 5t5.1 16.9q0 7.9-4.6 14.4-4.5 6.5-13.6 6.5l-1 .1q-5.6-.1-8.5-2.5-2.9-2.4-4.4-5.3-.1-.1-.2-.1v-.2 30q-.7-.3-1.6-.5-.9-.1-1.8-.1t-1.8.1l-1.6.4v-64.1zm6.8 19.7v.7q-.1.2-.1.5v.4q0 1.4.1 3.4.2 1.9.8 3.9.9 3.2 3.3 6 2.5 2.8 7.6 3.6.2 0 .3.1h.3q.1 0 .2.1h.3q5 0 8.1-4.5 3.1-4.5 3.1-12.6v-1.3q0-.7-.1-1.4-.3-5.9-2.6-10.8-2.2-5-8-5h-.9q-4.7 0-7.8 3.9-3 3.8-4.6 13zM378.712 300.5q0-6.9 4.6-10.1 4.6-3.2 10.2-3.2.6 0 1.2.1.7 0 1.4.1 1.9.2 3.8.8 1.9.6 3.5 1.4l-2.1 6.8h-1.3q-.7-2.5-2.7-3.9-1.9-1.4-4-1.6-.3-.1-.6-.1H391.912q-2.4.1-4.5 1.5-2.1 1.3-2.5 4.1 0 .1-.1.3v.4q0 .3-.1.5v.3q0 3.1 2.7 4.7t5.9 2.6q.6.2 1.1.4.6.2 1.1.4.5.1.9.3.5.1.9.3 4.6 1.7 6.6 4.6 2 2.8 2 5.9v.6q-.3 4.8-4.8 8.8-4.4 3.9-10.8 3.9-3.6 0-6.9-.6-3.3-.7-5.3-2.7l2-6.1h1.4q1.4 2.5 3.1 4 1.8 1.4 3.5 1.9.6.2 1.2.3.6.1 1.2.1 3 0 5.5-2 2.6-2.1 3.2-4.5v-.6q.1-.3.1-.6-.4-3.8-3.1-5.2-2.7-1.4-6-2.3-.1-.1-.3-.1-.1-.1-.3-.1-.9-.3-1.8-.5l-1.6-.6q-3.1-1-5.3-3.3-2.2-2.4-2.2-7zM454.05 310.8q0-10.3 6.1-16.7 6.2-6.5 16.5-6.5 7.7 0 12 3.7t6.3 8.2q1.3 2.9 1.8 5.6.5 2.7.5 4.4 0 1.6-.3 3.4-.3 1.7-.9 3.4-1.8 5.3-6.7 9.7-4.9 4.4-13.5 4.4l-1.2.1q-9.8-.1-15.2-5.8-5.4-5.7-5.4-13.9zm8.2.7q0 1.1.3 3.3.3 2.1 1.2 4.4 1.2 3.1 3.9 5.7t7.7 2.9q5.6 0 9.3-4.6 3.8-4.6 4.2-13.7 0-8.3-3.1-13.4t-9.8-5.1q-6.2 0-9.8 5.3-3.5 5.2-4 11.5-.1.5-.1 1v1.4q.1.2.1.4v.5q.1.2.1.4zM502.265 288.2h8.9q.9 3.1 2.2 6.9 1.3 3.8 2.8 7.7.8 2.1 1.6 4.1.8 2 1.6 3.9 1.3 3 2.5 5.7 1.3 2.6 2.4 4.5 1.1-2.1 2.5-5.2t2.8-6.6q.4-1 .8-1.9.4-1 .7-2 2.1-5.3 3.8-10.1 1.7-4.8 2.3-7h6.1q-2.2 4.6-4.2 9.1-1.9 4.4-3.8 8.7-.7 1.8-1.5 3.6-.7 1.7-1.4 3.5-1.6 4-3.3 8.2-1.7 4.1-3.5 8.5-.4-.2-.9-.3-.5-.1-1.1-.2h-.9q-.7 0-1.5.2-.7.1-1.2.3l-17.7-41.6zM550.263 310.8q0-11.3 5.8-16.9 5.8-5.7 14.1-5.7 7.4 0 11.3 3.7 3.9 3.6 5.3 7.9.7 1.8.9 3.6.3 1.7.3 3.2v.9q0 .6-.1 1.1 0 .5-.1.9h-29.4q0 7.6 3.1 12.3 3.2 4.6 12 4.6 3.6 0 6.9-1.4 3.4-1.5 5.4-4l.6 4.8q-.3.2-.7.5l-.6.4q-2.6 1.8-5.7 3.1t-8.6 1.3q-10.8-.5-15.4-6.6t-5.1-13.7zm30.7-4.9v-.8-1q-.3-4.7-2.6-8.6-2.2-3.9-8.2-3.9-4.6 0-7.5 3.3-2.8 3.2-3.8 7.1l-.4 2q-.1 1-.1 1.9h22.6zM600.262 329.8v-41.6q.8.3 1.6.4.9.1 1.8.1h.8q.5 0 .9-.1l.8-.2q.5-.1.9-.2v8.2q1.7-3.7 4.9-6.2 3.2-2.6 7.4-2.6h1.4l-.7 8.1-.6-.2q-.2-.1-.4-.3-1.1-.4-2.1-.6-1-.3-1.8-.3-3.1 0-5 2.2-1.8 2.2-2.5 4.9-.3 1-.5 2-.1.9-.1 1.8v24.6q-.4-.1-.9-.2l-.8-.2h-.9q-.4-.1-.8-.1-.9 0-1.8.2-.8.1-1.6.3zM135.97 429.6v-28h-5.4q.2-.2.3-.5.2-.4.2-.8 0-.3-.1-.6 0-.4-.1-.8-.1-.1-.2-.3 0-.2-.1-.4h5.4v-8.3l6.8-2.7v11h9.7q-.3.5-.5.9t-.2.8q0 .4.2.8t.5.9h-9.7v25q0 1.3.2 2.6.2 3.2 1.4 5.8 1.3 2.6 4.5 2.6.8 0 1.9-.2 1.1-.3 2.3-.7.2-.1.3-.1l.4-.2v2.8q-.2.1-.5.2-.2 0-.4.1-2 .6-4 .9-1.9.3-3.4.3-4.7 0-7.1-3-2.4-3-2.4-8.1zM161.666 439.8v-66.4q1.1.3 2 .5 1 .1 1.9.1h.6q.3 0 .6-.1.7 0 1.3-.1.6-.2 1.1-.4V405l.2-.4q.2-.2.4-.3.3-.4.5-.8.3-.4.7-.8 1.6-2.2 4.5-4 3-1.8 9.5-1.8 5.6 0 9.2 4.5 3.7 4.5 3.7 11.1v27.3q-1-.2-2-.3-.9-.2-1.8-.2-.8 0-1.7.2-.9.1-2 .3v-26.6q0-5.4-3-8.3-2.9-2.9-6.4-3.1H179.766q-.2 0-.4.1-3.9.4-7.1 3.9-3.1 3.4-3.1 10.1v23.9q-.5-.2-1.1-.3-.6-.1-1.3-.1-.3-.1-.6-.1h-.6q-.9 0-1.9.2-.9.1-2 .3zM207.88 420.8q0-11.3 5.8-16.9 5.8-5.7 14.1-5.7 7.4 0 11.3 3.7 3.9 3.6 5.3 7.9.7 1.8.9 3.6.3 1.7.3 3.2v.9q0 .6-.1 1.1 0 .5-.1.9h-29.4q0 7.6 3.1 12.3 3.2 4.6 12 4.6 3.6 0 6.9-1.4 3.4-1.5 5.4-4l.6 4.8q-.3.2-.7.5l-.6.4q-2.6 1.8-5.7 3.1t-8.6 1.3q-10.8-.5-15.4-6.6t-5.1-13.7zm30.7-4.9v-.8-1q-.3-4.7-2.6-8.6-2.2-3.9-8.2-3.9-4.6 0-7.5 3.3-2.8 3.2-3.8 7.1l-.4 2q-.1 1-.1 1.9h22.6zM302.148 439.8v-67q1.1.2 2 .4.9.1 1.8.1.8 0 1.7-.1l2-.4v67q-.5-.2-1.1-.3-.6-.1-1.3-.1-.3-.1-.6-.1h-.6q-.9 0-1.9.2-.9.1-2 .3zM323.243 430.3q0-4.1 2.4-7 2.4-3 8.5-4.5l11-2.2q1.8-.3 2.7-1.7.9-1.5.9-3.1 0-.7-.2-1.5-.1-.8-.4-1.6-1.1-2.7-3.6-4.9t-5.8-2.2h-.5q-2 0-3.7.7-1.7.7-3.3 2-.7.7-1.5 1.6-.8.8-1.7 1.8h-1.4V403l1.2-.6q.6-.4 1.3-.8 2.3-1.3 5.3-2.3 3-1.1 6.7-1.1 7.7 0 11.3 3.3 3.6 3.3 3.6 11v21.9q0 1.3.6 1.9.6.6 1.6.6.4 0 .9-.1l1-.2q.2-.1.3-.1.2-.1.4-.1v2.1q-.7.5-1.6.9-.8.3-1.7.4l-1 .2h-.8q-2.5 0-4.7-1.3-2.2-1.4-2.5-3.6-1.1 1-2.3 1.9-1.1.8-2.3 1.5-2.3 1.3-4.6 1.8-2.3.6-4.3.6-5.1 0-8.5-3-3.3-3.1-3.3-7.6zm25.3.7v-11.5q-9.5.8-13.8 3.2-4.3 2.4-4.3 6.8v.6q.1.2.2.5v.6q.1.2.1.5.1.3.2.7l.4.8q1 1.4 3 2.6 2 1.1 4.4 1.1 1.1 0 2.2-.3 1.2-.3 2.3-.9 1.4-.7 2.7-1.8 1.4-1.2 2.6-2.9zM371.24 398.9h34.1v1.4l-27.3 36.1q3.1 0 6.8-.1 3.8-.2 7.7-.4l5.8-.4q3-.2 5.6-.4 0 .1-.1.3v.3q0 .1-.1.2v.1q0 .2-.1.5V437.7l.2.8v.7q.1.3.1.6h-36.8v-2q1.6-1.9 3.3-3.8l3.4-4q2.7-3.3 5.3-6.6 2.7-3.4 5.2-6.7 2.8-3.7 5.3-7.3 2.6-3.6 4.8-7.1-3.1.3-6.1.5l-5.8.2-4.6.2q-2.2.1-4.5.3-.5.1-1.1.1-.5 0-1.1.1.2-.5.3-1 .2-.6.2-1.1 0-.4-.1-1t-.3-1.2q0-.1-.1-.2v-.3zM412.34 398.2q1.3.3 2.5.4 1.3.1 2.5.1 1.1 0 2.1-.1t1.8-.4q.6 2.3 2.7 7.8 2.1 5.4 4.6 11.5l.8 2q.5.9.9 1.9 1 2.4 2 4.7 1.1 2.2 2 4.2 1-2 2.1-4.4 1.2-2.5 2.4-5.2l.8-2q.5-1 .9-2 2.5-6 4.4-11.3 2-5.3 2.3-7.2.8.3 1.6.4.8.1 1.5.1.8 0 1.5-.1.8-.1 1.5-.4l-28.6 64.2q-.5-.3-1.2-.5-.6-.1-1.4-.1-.7 0-1.6.1-.9.2-2 .4l11.6-23.1-17.7-41zM502.407 421.5q0-11.3 4.9-17.6 5-6.3 14.3-6.3.4 0 .8.1h.9q3.6.4 6.7 2.2 3.2 1.7 4.2 3.7l.2.8q.1.3.1.6v-30.9q1.1.3 2 .5.9.2 1.7.2.9 0 1.8-.2 1-.2 2-.5v65.7q-.5-.2-1.1-.3-.6-.1-1.3-.1-.3-.1-.6-.1h-.6q-.9 0-1.9.2-.9.1-2 .3v-7.4q-2.2 3.1-4.9 5-2.6 1.8-5.3 2.5-1.1.2-2.2.3-1 .2-2 .2-6.7 0-12.3-5.3-5.6-5.4-5.6-12.8v-.1q.1-.1.1-.3.1-.1.1-.2v-.2zm8.2-1.4q0 6.7 2 10.2 2 3.5 4.5 4.8 1.2.8 2.4 1.1 1.2.2 2.1.2h.1q.1 0 .2.1h.2q.1 0 .2.1h.2q4.7 0 8.3-4.5 3.7-4.5 3.7-12.6 0-1.5-.2-3.3-.1-1.9-.5-3.8-.8-4-3.2-7.4-2.4-3.4-7.5-3.4h-.8q-5.6.4-8 3.8-2.4 3.3-3.1 7.4-.4 1.9-.5 3.9-.1 1.9-.1 3.4zM551.12 420.8q0-10.3 6.1-16.7 6.2-6.5 16.5-6.5 7.7 0 12 3.7t6.3 8.2q1.3 2.9 1.8 5.6.5 2.7.5 4.4 0 1.6-.3 3.4-.3 1.7-.9 3.4-1.8 5.3-6.7 9.7-4.9 4.4-13.5 4.4l-1.2.1q-9.8-.1-15.2-5.8-5.4-5.7-5.4-13.9zm8.2.7q0 1.1.3 3.3.3 2.1 1.2 4.4 1.2 3.1 3.9 5.7t7.7 2.9q5.6 0 9.3-4.6 3.8-4.6 4.2-13.7 0-8.3-3.1-13.4t-9.8-5.1q-6.2 0-9.8 5.3-3.5 5.2-4 11.5-.1.5-.1 1v1.4q.1.2.1.4v.5q.1.2.1.4zM602.735 409.8q.9-5.9 4.9-8.5 4.1-2.6 8.7-3 .5-.1 1-.1h1.1q3.9 0 5.4.2 1.5.1 2.3.3.1.1.2.1t.2.1q.7.1 1.6.3 1 .1 3.3.1h1.4q.9-.1 2-.2 1-.1 2.2-.1 1.3-.1 2.6-.1v3.4l-10.2-.7q2.6 1.6 4.3 4.8 1.8 3.2 1.8 6.8-.7 6.9-4.4 9.5-3.7 2.5-7.9 3.1-1.6.2-3.1.3-1.5 0-2.9.1-2.4 0-4.1.2-1.7.2-2.2 1.2 0 .1-.1.2 0 .1-.1.3-.2.6-.4 1.1-.1.5-.1.8 0 2.5 3 3.4 3.1.8 6.8 1h9.4q5.1 1 7.7 3.5 2.7 2.4 3.2 7.9v1q0 .8-.2 1.7-.1.9-.4 1.8-1.6 4.7-7.2 8.7-5.5 4-14.1 4-7.6 0-12.3-3.7-4.7-3.6-4.7-8.7t2.1-7.8q2.1-2.7 6.7-3.6-2.5-1.1-4-2.7-1.4-1.6-1.4-4.1 0-2.1.7-3.4.7-1.3 2.1-2.4.6-.6 1.4-1.1.9-.6 1.9-1.3-5-1.5-6.6-4.3-1.5-2.8-1.7-6v-.8-.9-.6q0-.3.1-.6v-.6-.6zm4.1 39.5q0 .7.1 1.5.2.8.6 1.7 1 2.6 3.9 4.7 2.9 2.2 8.3 2.2 1 0 2.1-.1t2.2-.4q3.6-.8 6.5-3 3-2.1 3-6v-.9q0-.5-.1-.9-.2-3.2-2.4-5.8-2.2-2.5-9.7-2.5-5.8 0-9.9 1.6-4.1 1.7-4.6 7.8zm2.7-36.1q0 4.7 2.6 7.5 2.7 2.8 6.3 2.8.1 0 .2.1h.3q.1 0 .2.1H619.735q3.4-.1 6.2-3.1 2.8-3 2.8-8.1 0-5.6-2.8-8.5-2.7-3-6.9-3-4.1.3-6.1 2.6-2 2.2-2.8 4.8-.3 1.3-.5 2.6-.1 1.2-.1 2.2zM650.734 435.8q0-3.6 1.7-4.9 1.7-1.3 3.7-1.3 2 .5 3.7 2 1.7 1.5 1.7 3.5-.2 2.8-1.8 4.1-1.6 1.2-3.6 1.2h-.2-.1q-1.8-.1-3.4-1.2-1.5-1.2-1.7-3.4z"/></g></svg>