<svg xmlns="http://www.w3.org/2000/svg" viewBox="0 0 800 500"><path fill="#fff" d="M0 0h800v500H0z"/><g font-weight="400" font-size="100" font-family="Palatino" text-anchor="middle" fill="#111"><path d="M240.555 40.8l-21.6.3h-15.8l-20.3-.3c.5 5.7.7 9.6.7 16.1h3.1l.4-7.9c.1-2.4 1.2-3.3 4-3.3h15.5c.3 3.4.4 5.7.4 10V98c0 7.9-.5 8.7-5.1 9l-4.8.3v3c4.9-.2 9.7-.3 14.6-.3s9.8.1 14.7.3v-3l-4.8-.3c-4.6-.3-5.1-1.1-5.1-9V55.7c0-4.5.1-6.7.4-10h15.5c2.8 0 3.9.9 4 3.3l.4 7.9h3.1c0-6.5.2-10.4.7-16.1zM299.583 110.3v-3l-4.1-.3c-3.4-.2-3.7-.8-3.7-7.2V80.5c0-11.7-5.5-17.4-16.7-17.4-3.7 0-5.8.7-7.9 2.5l-7.6 6.6v-34l-.9-.8c-4.4 1.7-7.7 2.5-15.6 3.7v2.8h5.6c1.8 0 2.5 1.1 2.5 4.1v51.8c0 6.3-.3 7-3.7 7.2l-4.5.3v3a256.53 256.53 0 0 1 24.8 0v-3l-4.5-.3c-3.4-.2-3.7-.9-3.7-7.2V78.6c0-4.5 6.6-9.4 12.7-9.4 6.7 0 11.1 5 11.1 12.7v28.4c2.6-.2 5.3-.3 7.9-.3 2.8 0 5.5.1 8.3.3zM345.386 82.1c0-11.5-7.4-19-18.6-19-3.7 0-8 1.3-12.1 3.7-8.2 4.7-11.5 10.9-11.5 21.3 0 6.3 1.4 11.7 4.2 15.5 3.9 5.3 10.7 8.4 18.2 8.4 3.7 0 7.4-.8 11.5-2.6 2.7-1.1 4.8-2.4 5.2-3l2-3.4-1.3-1c-6.4 3.8-8.7 4.7-13 4.7-6.5 0-11.9-2.9-14.7-7.8-1.9-3.3-2.6-6.1-2.8-11.9h14.6c6.9 0 11.2-.3 18.1-1.4.1-1.4.2-2.3.2-3.5zm-8.9 1.2l-11.2.3c-4.6 0-7.2-.1-12.6-.6 0-4.7.4-6.9 1.7-9.5 2.1-4.4 6.4-7.1 11.2-7.1 3.3 0 5.9 1.3 7.7 4 2.2 3.3 3.2 6.2 3.2 12.9zM429.438 138.1v-3l-4.6-.3c-3.4-.2-3.7-.9-3.7-7.2V78.2c0-6.2.6-10 2.3-13.8l-1.9-1.1-4.9 3.1c-5.1-2.3-9.4-3.3-13.7-3.3-2.9 0-6.4.8-7.9 1.7l-8.4 5.4c-6.4 4.1-9.7 10.7-9.7 19.4 0 13.1 7.9 21.6 20.3 21.6 2.1 0 3.8-.4 5.1-1.2l10.4-6.6v24.2c0 6.3-.4 7-3.7 7.2l-5.8.3v3c4.6-.2 9.3-.3 13.9-.3 4.1 0 8.2.1 12.3.3zm-16.7-40.1c0 1.4-2.4 4-5.1 5.5-2.4 1.3-4.7 2-7.1 2-8.8 0-14.9-8.2-14.9-20.3 0-11 5.6-17.4 15.2-17.4 4.9 0 8.4 1.2 11.9 4.1zM487.592 110.3v-3l-4.1-.3c-3.4-.2-3.7-.8-3.7-7.2V63.5l-.9-.4c-5.1 2.1-10.3 3.5-15.6 4.1V70h3.7c4 0 4.4.7 4.4 7.3v16.3c0 2.2-1.4 5-3.7 7.3-2.8 2.8-6 4.2-9.9 4.2-3.5 0-6.3-1.1-7.9-3-1.4-1.6-2.1-4.7-2.1-9.1V63.5l-.9-.4c-5.1 2.1-10.3 3.5-15.6 4.1V70h3.7c4 0 4.4.7 4.4 7.3v16.8c0 7 .6 10.1 2.4 12.6 2.2 3 6 4.5 11.7 4.5 4.5 0 8.5-1.4 11.2-3.9l6.7-6.2c0 2.9-.1 4.5-.4 9.2a115.08 115.08 0 0 1 16.6 0zM516.944 110.3v-3l-4.6-.3c-3.4-.2-3.7-.9-3.7-7.2V63.5l-.9-.4c-5.1 2.1-10.3 3.5-15.6 4.1V70h3.7c4 0 4.4.7 4.4 7.3v22.5c0 6.3-.3 7-3.7 7.2l-4.6.3v3a260.68 260.68 0 0 1 25 0zm-7.5-59.5c0-2.9-2-5-4.9-5-3.1 0-5.1 2-5.1 5s2 5 5 5 5-2 5-5zM560.245 105.4l-1-1.5c-3.7 2-6.9 2.9-10.5 2.9-11.1 0-18.4-8.6-18.4-21.8 0-10.7 5-16.7 14-16.7 4.4 0 9.2 2 11 4.5l.7 6.1h2.8c0-4.6.5-8.7 1.4-12.3-4-2.4-7.5-3.5-11.6-3.5-4.8 0-10.4 1.9-16.4 5.7-7 4.4-10.7 11.4-10.7 20.2 0 13.5 9.5 23 22.9 23 5.2 0 12.7-1.9 13.7-3.4zM618.18 108.3V106c-2.4 0-5.3-1.7-8.5-4.8l-12.6-12.5c-3.6-3.5-4.7-4.8-6.4-6.8l12.9-10.1c4.7-3.6 7.4-4.7 10.8-4.7v-3h-10c-6.4 6.4-11.1 10.8-15 13.9l-7.3 5.9V38.2l-.9-.8c-4.4 1.7-7.7 2.5-15.6 3.7v2.8h5.6c1.8 0 2.5 1.1 2.5 4.1v51.8c0 6.3-.3 7-3.7 7.2l-4.6.3v3c4.2-.2 8.4-.3 12.6-.3 4.1 0 8.1.1 12.2.3v-3l-4.4-.3c-3.4-.2-3.7-.9-3.7-7.2V86l26.5 25.2zM226.484 193c0-11.6-7.5-19.9-18.1-19.9-4.7 0-9.6 1.8-12.2 4.4l-5.5 5.6v-34.9l-.9-.8c-4.4 1.7-7.7 2.5-15.6 3.7v2.8h5.6c1.8 0 2.5 1.1 2.5 4.1v46.7c0 6.2-.1 8.9-.8 15.9l1.6.6 4-3.6c4 2.6 7.6 3.6 12.9 3.6 3.9 0 6.5-.7 8.6-2.2l10-7.2c4.4-3.2 7.9-11.5 7.9-18.8zm-8.7 4.1c0 11.2-6 19-14.5 19-5.2 0-12.6-3.2-12.6-5.4v-21.5c0-1.4 1-3.2 2.6-5 2.8-2.9 6.7-4.6 10.8-4.6 8.4 0 13.7 6.8 13.7 17.5zM268.357 174.2c-1.1-.7-2.9-1.1-4.7-1.1-3 0-6.2 1.6-8.3 4.1l-5.6 6.6v-10.3l-.9-.4c-5.1 2.1-10.3 3.5-15.6 4.1v2.8h3.7c4 0 4.4.7 4.4 7.3v22.5c0 6.3-.3 7-3.7 7.2l-4.6.3v3c4.1-.2 8.2-.3 12.3-.3 4.8 0 9.5.1 14.3.3v-3l-5.2-.3c-4.5-.3-4.7-.6-4.7-7.2v-17.2c0-6 4-11 8.9-11 3 0 5.1 1.4 6.7 4.6h2.1zM321.81 196.3c0-13.5-9.8-23.2-23.5-23.2-14.6 0-24.7 10.3-24.7 25.2 0 14.1 8.9 23.7 21.8 23.7 15.4 0 26.4-10.7 26.4-25.7zm-9.3 3.7c0 11.5-5.1 18.7-13.2 18.7-9.8 0-16.4-9.6-16.4-23.8 0-12 4.8-18.5 13.6-18.5 9.2 0 16 10 16 23.6zM403.36 176.9v-2.8a160.33 160.33 0 0 1-19.6 0v2.8l3.4.2c4 .2 4.6 2.7 3.2 6.7l-5 14-4.8 12.4-11.5-29c-1.4-3.4-2.1-5.4-2.9-8.1h-2.3l-15.9 36.5-8.4-27.6c-.9-3-.4-4.7 3.4-4.9l4-.2v-2.8a236.28 236.28 0 0 1-23.8 0v2.8l2.8.2c2.8.2 4.1 1.9 6.6 10l10.2 33.6h4.7l9.8-23c1.8-4.2 5.2-11.2 5.2-11.2l13.6 34.2h4.6l13.7-34.9c2.8-7.1 4.2-8.5 6.4-8.7zM463.157 220.3v-3l-4.1-.3c-3.4-.2-3.7-.8-3.7-7.2v-19.3c0-11.7-5.5-17.4-16.7-17.4-3.7 0-5.8.7-7.9 2.5l-7.6 6.6v-8.7l-.9-.4c-5.1 2.1-10.3 3.5-15.6 4.1v2.8h3.7c4 0 4.4.7 4.4 7.3v22.5c0 6.3-.3 7-3.7 7.2l-4.5.3v3a256.53 256.53 0 0 1 24.8 0v-3l-4.5-.3c-3.4-.2-3.7-.9-3.7-7.2v-21.2c0-4.5 6.6-9.4 12.7-9.4 6.7 0 11.1 5 11.1 12.7v28.4c2.6-.2 5.3-.3 7.9-.3 2.8 0 5.5.1 8.3.3zM523.26 156v-7.7c-2.1-.8-3.3-1.1-4.6-1.1-3.2 0-6.7 1.7-8.9 4.2l-5.8 6.6c-2.9 3.3-4.2 7.8-4.2 14.4v4.2l-6.9 3.1v2.2l6.9-.4v28.3c0 6.3-.3 7-3.7 7.2l-4.6.3v3a260.68 260.68 0 0 1 25 0v-3l-4.6-.3c-3.4-.2-3.7-.9-3.7-7.2v-28.3h12.4l.7-5.3c-4.4.3-8.7.4-13.1.4v-8.5c0-11.5 1.3-14.3 7-14.3 2.7 0 4.5.7 6.9 2.8zM572.396 196.3c0-13.5-9.8-23.2-23.5-23.2-14.6 0-24.7 10.3-24.7 25.2 0 14.1 8.9 23.7 21.8 23.7 15.4 0 26.4-10.7 26.4-25.7zm-9.3 3.7c0 11.5-5.1 18.7-13.2 18.7-9.8 0-16.4-9.6-16.4-23.8 0-12 4.8-18.5 13.6-18.5 9.2 0 16 10 16 23.6zM622.354 220.3v-3l-2.5-.3c-1.2-.1-2.4-.9-3.5-2.4l-14.8-20 14.2-16.6c.6-.7 1.7-1.1 3.4-1.1h1.4v-2.8h-8.2l-12.4 17.5-7.6-11.6c-1.5-2.2-2.6-3.5-6-6.9l-11.6 2 .5 2.6 2.1.2c1.8.2 4 1.5 5 2.9l12 17.4-14.9 17.6c-.7.9-2 1.5-3 1.5h-1.7v2.7h8.6s.7-2.3 6-9.4l7.4-9.8 13.3 19.5c2-.2 4.1-.3 6.1-.3 2.1 0 4.1.1 6.2.3zM171.076 331.9v-48.4l-.9-.4c-5.1 2.1-10.3 3.5-15.6 4.1v2.8h3.7c4 0 4.4.7 4.4 7.3v33.4c0 16.6-2.7 24.1-8.5 24.1-.8 0-2.1-.1-3-.3l1.2 3.8c5.8-.4 9.6-2.5 13.4-7.5 3.5-4.6 5.3-11 5.3-18.9zm.8-61.1c0-2.9-2-5-4.9-5-3.1 0-5.1 2-5.1 5s2 5 5 5 5-2 5-5zM236.713 330.3v-3l-4.1-.3c-3.4-.2-3.7-.8-3.7-7.2v-36.3l-.9-.4c-5.1 2.1-10.3 3.5-15.6 4.1v2.8h3.7c4 0 4.4.7 4.4 7.3v16.3c0 2.2-1.4 5-3.7 7.3-2.8 2.8-6 4.2-9.9 4.2-3.5 0-6.3-1.1-7.9-3-1.4-1.6-2.1-4.7-2.1-9.1v-29.5l-.9-.4c-5.1 2.1-10.3 3.5-15.6 4.1v2.8h3.7c4 0 4.4.7 4.4 7.3v16.8c0 7 .6 10.1 2.4 12.6 2.2 3 6 4.5 11.7 4.5 4.5 0 8.5-1.4 11.2-3.9l6.7-6.2c0 2.9-.1 4.5-.4 9.2a115.08 115.08 0 0 1 16.6 0zM325.865 330.3v-3l-4.7-.3c-3.4-.2-3.7-.9-3.7-7.2v-20.6c0-9.9-5.8-16.1-15-16.1-3.5 0-6.4.9-8.2 2.5l-7.6 6.8c-3.2-6.6-7.3-9.3-14.2-9.3-3.7 0-6.5.9-8.3 2.5l-6.9 6.4v-8.5l-.9-.4c-5.1 2.1-10.3 3.5-15.6 4.1v2.8h3.7c4 0 4.4.7 4.4 7.3v22.5c0 6.3-.3 7-3.7 7.2l-4.6.3v3c4.2-.2 8.5-.3 12.7-.3 4 0 7.9.1 11.9.3v-3l-4.2-.3c-3.4-.2-3.7-.9-3.7-7.2v-21.2c0-4.5 6.6-9.4 12.6-9.4 5.4 0 9.1 5.1 9.1 12.7v17.9c0 6.3-.3 7-3.7 7.2l-4.6.3v3a260.68 260.68 0 0 1 25 0v-3l-4.6-.3c-3.4-.2-3.7-.9-3.7-7.2v-21.2c0-4.5 6.6-9.4 12.6-9.4 5.4 0 9.1 5.1 9.1 12.7v28.4c2.6-.2 5.3-.3 7.9-.3 3 0 5.9.1 8.9.3zM380.693 302.9c0-11.1-9.2-19.8-20.8-19.8-3.7 0-7.3 1-8.9 2.5l-8.2 7.5v-9.6l-.9-.4c-5.1 2.1-10.3 3.5-15.6 4.1v2.8h3.7c4 0 4.4.7 4.4 7.3v50.3c0 6.3-.3 7-3.7 7.2l-4.6.3v3a260.68 260.68 0 0 1 25 0v-3l-4.6-.3c-3.4-.2-3.7-.9-3.7-7.2v-18.9c3 1.8 6.2 2.5 10.7 2.5 2.9 0 5.5-.6 7.1-1.6l11.4-7.4c4-2.6 8.7-12.9 8.7-19.3zm-8.7 3.7c0 11.2-6.7 19.5-15.7 19.5-5.5 0-9.6-1.8-13.5-5.9v-20.8c0-1.4.5-2.5 1.8-4.2 2.9-3.7 7-5.6 12-5.6 9.4 0 15.4 6.6 15.4 17zM424.55 315.2c0-3.1-.8-5.4-2.8-7.4-2.6-2.6-5.9-3.7-14.7-5.4-8.2-1.6-10.9-3.6-10.9-8.2 0-5 3.5-7.8 9.6-7.8 6.7 0 11.8 3.5 11.8 8.2v2.3h2.8c.1-5.8.2-8.2.5-11.3-5.3-1.8-8.9-2.5-13-2.5-11.6 0-18.7 5.5-18.7 14.5 0 4.8 2.2 8.2 6.8 10.3 2.7 1.2 8 2.8 14.8 4.3 4.5 1 6.4 3.1 6.4 6.9 0 5.4-5 9.2-12.1 9.2-7.3 0-12.5-3.5-12.5-8.5v-4.1h-3c0 6.9-.3 9.9-1.1 13.9 5.2 1.7 9.1 2.4 13.7 2.4 13.1 0 22.4-7 22.4-16.8zM504.232 306.3c0-13.5-9.8-23.2-23.5-23.2-14.6 0-24.7 10.3-24.7 25.2 0 14.1 8.9 23.7 21.8 23.7 15.4 0 26.4-10.7 26.4-25.7zm-9.3 3.7c0 11.5-5.1 18.7-13.2 18.7-9.8 0-16.4-9.6-16.4-23.8 0-12 4.8-18.5 13.6-18.5 9.2 0 16 10 16 23.6zM558.88 286.9v-2.8a147.53 147.53 0 0 1-18.8 0v2.8l4.1.2c3.2.2 3.2 3.1.5 9.9l-4.2 10.6-6.2 14-11.9-28.8c-1.1-2.8-1.6-5.6 1.6-5.7l4.9-.2v-2.8c-3.9.2-7.8.3-11.7.3-3.9 0-7.7-.1-11.6-.3v2.8l3.4.2c1.8.1 2.1 1 3.1 3.3l17.2 40.3h5c.6-3.3 2.1-6.4 4.1-10.9l11.8-26c2.3-5.1 3.6-6.6 5.6-6.7zM602.32 302.1c0-11.5-7.4-19-18.6-19-3.7 0-8 1.3-12.1 3.7-8.2 4.7-11.5 10.9-11.5 21.3 0 6.3 1.4 11.7 4.2 15.5 3.9 5.3 10.7 8.4 18.2 8.4 3.7 0 7.4-.8 11.5-2.6 2.7-1.1 4.8-2.4 5.2-3l2-3.4-1.3-1c-6.4 3.8-8.7 4.7-13 4.7-6.5 0-11.9-2.9-14.7-7.8-1.9-3.3-2.6-6.1-2.8-11.9h14.6c6.9 0 11.2-.3 18.1-1.4.1-1.4.2-2.3.2-3.5zm-8.9 1.2l-11.2.3c-4.6 0-7.2-.1-12.6-.6 0-4.7.4-6.9 1.7-9.5 2.1-4.4 6.4-7.1 11.2-7.1 3.3 0 5.9 1.3 7.7 4 2.2 3.3 3.2 6.2 3.2 12.9zM642.77 284.2c-1.1-.7-2.9-1.1-4.7-1.1-3 0-6.2 1.6-8.3 4.1l-5.6 6.6v-10.3l-.9-.4c-5.1 2.1-10.3 3.5-15.6 4.1v2.8h3.7c4 0 4.4.7 4.4 7.3v22.5c0 6.3-.3 7-3.7 7.2l-4.6.3v3c4.1-.2 8.2-.3 12.3-.3 4.8 0 9.5.1 14.3.3v-3l-5.2-.3c-4.5-.3-4.7-.6-4.7-7.2v-17.2c0-6 4-11 8.9-11 3 0 5.1 1.4 6.7 4.6h2.1zM146.158 396.4l-13.7.6v-3.8c0-4.2.3-7.8 1.1-14.2l-1.2-1.1c-2.4 1.5-5.4 2.8-8.5 3.8.3 3 .4 4.9.4 7.9v7l-7.8 3.5v2.1l7.6-.4v28.8c0 7.4 3.3 10.6 11 10.6 2.3 0 4.7-.5 5.3-1.2l4.8-5.3-1.3-1.7c-2.5 1.4-4 1.9-5.9 1.9-3.9 0-5.5-2-5.5-6.9v-26.2h12.8zM205.637 440.3v-3l-4.1-.3c-3.4-.2-3.7-.8-3.7-7.2v-19.3c0-11.7-5.5-17.4-16.7-17.4-3.7 0-5.8.7-7.9 2.5l-7.6 6.6v-34l-.9-.8c-4.4 1.7-7.7 2.5-15.6 3.7v2.8h5.6c1.8 0 2.5 1.1 2.5 4.1v51.8c0 6.3-.3 7-3.7 7.2l-4.5.3v3a256.53 256.53 0 0 1 24.8 0v-3l-4.5-.3c-3.4-.2-3.7-.9-3.7-7.2v-21.2c0-4.5 6.6-9.4 12.7-9.4 6.7 0 11.1 5 11.1 12.7v28.4c2.6-.2 5.3-.3 7.9-.3 2.8 0 5.5.1 8.3.3zM251.44 412.1c0-11.5-7.4-19-18.6-19-3.7 0-8 1.3-12.1 3.7-8.2 4.7-11.5 10.9-11.5 21.3 0 6.3 1.4 11.7 4.2 15.5 3.9 5.3 10.7 8.4 18.2 8.4 3.7 0 7.4-.8 11.5-2.6 2.7-1.1 4.8-2.4 5.2-3l2-3.4-1.3-1c-6.4 3.8-8.7 4.7-13 4.7-6.5 0-11.9-2.9-14.7-7.8-1.9-3.3-2.6-6.1-2.8-11.9h14.6c6.9 0 11.2-.3 18.1-1.4.1-1.4.2-2.3.2-3.5zm-8.9 1.2l-11.2.3c-4.6 0-7.2-.1-12.6-.6 0-4.7.4-6.9 1.7-9.5 2.1-4.4 6.4-7.1 11.2-7.1 3.3 0 5.9 1.3 7.7 4 2.2 3.3 3.2 6.2 3.2 12.9zM306.592 440.3v-3l-4.6-.3c-3.4-.2-3.7-.9-3.7-7.2v-61.6l-.9-.8c-4.4 1.7-7.7 2.5-15.6 3.7v2.8h5.6c1.8 0 2.5 1.1 2.5 4.1v51.8c0 6.3-.3 7-3.7 7.2l-4.6.3v3a260.68 260.68 0 0 1 25 0zM355.694 440.3v-3l-3.9-.2c-2.4-.1-2.8-.9-2.8-5.8V413c0-14.6-4.2-19.9-15.8-19.9-4.3 0-8.3 1.1-12.1 3.4l-5.3 3.2v6.5l2.6.7 1.3-3.1c2-4.7 3.1-5.4 7.7-5.4 9.4 0 13.3 3.7 13.6 12.8l-9.9 1.8c-13.6 2.5-19.3 7.2-19.3 15.9 0 7.8 4.7 12.3 12.6 12.3 1.8 0 3.5-.3 4.2-.8l12.4-8.6-.5 8.5c2.6-.2 5.2-.3 7.8-.3 2.5 0 4.9.1 7.4.3zm-14.7-12.7c-2.9 4.1-9.2 7.9-13.1 7.9-4 0-7.5-3.7-7.5-8 0-3.7 2-7.2 5-9.1 2.5-1.5 8-2.9 15.6-4zM405.194 426.1h-3l-1.8 7.9c-.4 1.8-4.6 2.5-14.2 2.5h-13.5l31.4-39.7v-3c-4.6.2-9.2.3-13.8.3-8.3 0-16.5-.1-24.8-.3-.2 5.1-.3 6.3-.9 13.2h3l1.2-6.8c.4-2.1 2.2-2.6 9.6-2.6h14.3c-2.1 3.3-3.7 5.6-6.5 9l-26 31.7.6 2c5.1-.2 10.2-.3 15.3-.3 9.2 0 18.4.1 27.6.3 0-2.3.3-4.7.9-9.5zM462.994 396.9v-2.8a150.68 150.68 0 0 1-19 0v2.8l2.6.2c4.2.3 5.1 1.5 3.6 5.1l-11.9 29.2c-2.2-3.8-3.2-6.1-5.1-11l-6.4-16.8c-1.7-4.4-1.5-6.3 2.4-6.5l3.8-.2v-2.8a224.53 224.53 0 0 1-23.2 0v2.8l1.8.2c2.5.3 3.8 1.4 5.2 4.9l16.5 40.4-2.3 6.1c-3.2 8.4-7.1 13.1-10.9 13.1-1.6 0-3.4-.8-5.1-2.3h-1.3l-2.4 7.5c1.9 1 3.5 1.5 5.4 1.5 6.7 0 11-3.6 14.8-12.3l20.3-46.8c4-9.1 5.9-11.9 8.4-12.1zM547.158 440.3v-3l-4.6-.3c-3.4-.2-3.7-.9-3.7-7.2v-61.6l-.9-.8c-4.4 1.7-7.7 2.5-15.6 3.7v2.8h5.6c1.8 0 2.5 1.1 2.5 4.1v18.3c-5.6-2.4-8.4-3.2-11.9-3.2-2.7 0-5.1.6-7.6 1.9l-8.8 4.6c-5.7 3-9.4 10.3-9.4 18.8 0 8 2.7 14.6 7.6 18.6 3.4 2.9 8.1 4.2 14.6 4.2 2 0 4.3-.4 4.8-.8l11.1-9.3-.5 9.2c2.6-.2 5.1-.3 7.7-.3 3 0 6.1.1 9.1.3zm-16.7-22.4c0 6.5-.2 7.5-1.5 9.8-2.8 4.7-7.7 7.8-12.4 7.8-8.8 0-15.1-8.5-15.1-20.4 0-10.9 5.4-17.3 14.4-17.3 3.8 0 7.8 1.3 11.3 3.7 2.1 1.4 3.3 2.7 3.3 3.5zM601.79 416.3c0-13.5-9.8-23.2-23.5-23.2-14.6 0-24.7 10.3-24.7 25.2 0 14.1 8.9 23.7 21.8 23.7 15.4 0 26.4-10.7 26.4-25.7zm-9.3 3.7c0 11.5-5.1 18.7-13.2 18.7-9.8 0-16.4-9.6-16.4-23.8 0-12 4.8-18.5 13.6-18.5 9.2 0 16 10 16 23.6zM659.478 398.1l-.4-1.2-14.2.4c-3.7-3-7.3-4.2-12.2-4.2-4.4 0-9.5 1.4-13.6 3.8-5.6 3.2-8.5 8.1-8.5 14.2 0 7.4 4.6 12.5 12 13.3l-7.9 6.1c-1 1.5-1.5 2.8-1.5 4.3 0 2.8 1.8 4.4 6.6 5.8l-8.7 4.7c-1.4.8-2.8 4.5-2.8 7.6 0 9.1 8.9 15.4 21.6 15.4 15.1 0 27-9.5 27-21.7 0-7.2-4.8-12.2-11.8-12.2h-16c-5.2 0-7.6-1.2-7.6-3.9 0-1.3.8-2.4 3.4-4.6.6-.5.8-.7 1.2-1.1 1 .1 1.6.2 2.4.2 4.3 0 9.6-1.9 13.7-4.8 4.5-3.3 6.7-7.3 6.7-12.6 0-2-.3-3.3-1.1-5.4h9.2zm-19 12.5c0 6.5-4.2 11-10.3 11-6.7 0-11.2-5.2-11.2-12.9s3.7-12.2 10.1-12.2c6.8 0 11.4 5.6 11.4 14.1zm8.5 39.6c0 8.6-7.9 15-18.4 15-8.7 0-14.7-5.1-14.7-12.5 0-4.5 2.6-8.5 6.6-10.3 1.6-.7 4.4-1 11.3-1 11.3 0 15.2 2.3 15.2 8.8zM679.042 434.7c0-3-2.8-5.8-5.9-5.8-3 0-5.7 2.8-5.7 5.8s2.7 5.8 5.6 5.8c3.2 0 6-2.7 6-5.8z"/></g></svg>