<svg xmlns="http://www.w3.org/2000/svg" viewBox="0 0 1600 1000" height="1000" width="1600"><path fill="#fff" d="M0 0h1600v1000H0z"/><g font-weight="400" font-size="200" font-family="Palatino" letter-spacing="-.03em" text-anchor="middle" fill="#222"><path d="M508.11 81.6l-43.2.6h-31.6l-40.6-.6c1 11.4 1.4 19.2 1.4 32.2h6.2l.8-15.8c.2-4.8 2.4-6.6 8-6.6h31c.6 6.8.8 11.4.8 20V196c0 15.8-1 17.4-10.2 18l-9.6.6v6c9.8-.4 19.4-.6 29.2-.6s19.6.2 29.4.6v-6l-9.6-.6c-9.2-.6-10.2-2.2-10.2-18v-84.6c0-9 .2-13.4.8-20h31c5.6 0 7.8 1.8 8 6.6l.8 15.8h6.2c0-13 .4-20.8 1.4-32.2z"/><path d="M620.166 220.6v-6l-8.2-.6c-6.8-.4-7.4-1.6-7.4-14.4V161c0-23.4-11-34.8-33.4-34.8-7.4 0-11.6 1.4-15.8 5l-15.2 13.2v-68l-1.8-1.6c-8.8 3.4-15.4 5-31.2 7.4v5.6h11.2c3.6 0 5 2.2 5 8.2v103.6c0 12.6-.6 14-7.4 14.4l-9 .6v6a513.058 513.058 0 0 1 49.6 0v-6l-9-.6c-6.8-.4-7.4-1.8-7.4-14.4v-42.4c0-9 13.2-18.8 25.4-18.8 13.4 0 22.2 10 22.2 25.4v56.8c5.2-.4 10.6-.6 15.8-.6 5.6 0 11 .2 16.6.6zM705.772 164.2c0-23-14.8-38-37.2-38-7.4 0-16 2.6-24.2 7.4-16.4 9.4-23 21.8-23 42.6 0 12.6 2.8 23.4 8.4 31 7.8 10.6 21.4 16.8 36.4 16.8 7.4 0 14.8-1.6 23-5.2 5.4-2.2 9.6-4.8 10.4-6l4-6.8-2.6-2c-12.8 7.6-17.4 9.4-26 9.4-13 0-23.8-5.8-29.4-15.6-3.8-6.6-5.2-12.2-5.6-23.8h29.2c13.8 0 22.4-.6 36.2-2.8.2-2.8.4-4.6.4-7zm-17.8 2.4l-22.4.6c-9.2 0-14.4-.2-25.2-1.2 0-9.4.8-13.8 3.4-19 4.2-8.8 12.8-14.2 22.4-14.2 6.6 0 11.8 2.6 15.4 8 4.4 6.6 6.4 12.4 6.4 25.8zM861.875 276.2v-6l-9.2-.6c-6.8-.4-7.4-1.8-7.4-14.4v-98.8c0-12.4 1.2-20 4.6-27.6l-3.8-2.2-9.8 6.2c-10.2-4.6-18.8-6.6-27.4-6.6-5.8 0-12.8 1.6-15.8 3.4l-16.8 10.8c-12.8 8.2-19.4 21.4-19.4 38.8 0 26.2 15.8 43.2 40.6 43.2 4.2 0 7.6-.8 10.2-2.4l20.8-13.2v48.4c0 12.6-.8 14-7.4 14.4l-11.6.6v6c9.2-.4 18.6-.6 27.8-.6 8.2 0 16.4.2 24.6.6zm-33.4-80.2c0 2.8-4.8 8-10.2 11-4.8 2.6-9.4 4-14.2 4-17.6 0-29.8-16.4-29.8-40.6 0-22 11.2-34.8 30.4-34.8 9.8 0 16.8 2.4 23.8 8.2zM972.184 220.6v-6l-8.2-.6c-6.8-.4-7.4-1.6-7.4-14.4V127l-1.8-.8c-10.2 4.2-20.6 7-31.2 8.2v5.6h7.4c8 0 8.8 1.4 8.8 14.6v32.6c0 4.4-2.8 10-7.4 14.6-5.6 5.6-12 8.4-19.8 8.4-7 0-12.6-2.2-15.8-6-2.8-3.2-4.2-9.4-4.2-18.2v-59l-1.8-.8c-10.2 4.2-20.6 7-31.2 8.2v5.6h7.4c8 0 8.8 1.4 8.8 14.6v33.6c0 14 1.2 20.2 4.8 25.2 4.4 6 12 9 23.4 9 9 0 17-2.8 22.4-7.8l13.4-12.4c0 5.8-.2 9-.8 18.4a230.16 230.16 0 0 1 33.2 0zM1024.888 220.6v-6l-9.2-.6c-6.8-.4-7.4-1.8-7.4-14.4V127l-1.8-.8c-10.2 4.2-20.6 7-31.2 8.2v5.6h7.4c8 0 8.8 1.4 8.8 14.6v45c0 12.6-.6 14-7.4 14.4l-9.2.6v6a521.358 521.358 0 0 1 50 0zm-15-119c0-5.8-4-10-9.8-10-6.2 0-10.2 4-10.2 10s4 10 10 10 10-4 10-10zM1105.49 210.8l-2-3c-7.4 4-13.8 5.8-21 5.8-22.2 0-36.8-17.2-36.8-43.6 0-21.4 10-33.4 28-33.4 8.8 0 18.4 4 22 9l1.4 12.2h5.6c0-9.2 1-17.4 2.8-24.6-8-4.8-15-7-23.2-7-9.6 0-20.8 3.8-32.8 11.4-14 8.8-21.4 22.8-21.4 40.4 0 27 19 46 45.8 46 10.4 0 25.4-3.8 27.4-6.8zM1215.362 216.6V212c-4.8 0-10.6-3.4-17-9.6l-25.2-25c-7.2-7-9.4-9.6-12.8-13.6l25.8-20.2c9.4-7.2 14.8-9.4 21.6-9.4v-6h-20c-12.8 12.8-22.2 21.6-30 27.8l-14.6 11.8V76.4l-1.8-1.6c-8.8 3.4-15.4 5-31.2 7.4v5.6h11.2c3.6 0 5 2.2 5 8.2v103.6c0 12.6-.6 14-7.4 14.4l-9.2.6v6c8.4-.4 16.8-.6 25.2-.6 8.2 0 16.2.2 24.4.6v-6l-8.8-.6c-6.8-.4-7.4-1.8-7.4-14.4V172l53 50.4zM479.967 386c0-23.2-15-39.8-36.2-39.8-9.4 0-19.2 3.6-24.4 8.8l-11 11.2v-69.8l-1.8-1.6c-8.8 3.4-15.4 5-31.2 7.4v5.6h11.2c3.6 0 5 2.2 5 8.2v93.4c0 12.4-.2 17.8-1.6 31.8l3.2 1.2 8-7.2c8 5.2 15.2 7.2 25.8 7.2 7.8 0 13-1.4 17.2-4.4l20-14.4c8.8-6.4 15.8-23 15.8-37.6zm-17.4 8.2c0 22.4-12 38-29 38-10.4 0-25.2-6.4-25.2-10.8v-43c0-2.8 2-6.4 5.2-10 5.6-5.8 13.4-9.2 21.6-9.2 16.8 0 27.4 13.6 27.4 35zM557.714 348.4c-2.2-1.4-5.8-2.2-9.4-2.2-6 0-12.4 3.2-16.6 8.2l-11.2 13.2V347l-1.8-.8c-10.2 4.2-20.6 7-31.2 8.2v5.6h7.4c8 0 8.8 1.4 8.8 14.6v45c0 12.6-.6 14-7.4 14.4l-9.2.6v6c8.2-.4 16.4-.6 24.6-.6 9.6 0 19 .2 28.6.6v-6l-10.4-.6c-9-.6-9.4-1.2-9.4-14.4v-34.4c0-12 8-22 17.8-22 6 0 10.2 2.8 13.4 9.2h4.2zM658.62 392.6c0-27-19.6-46.4-47-46.4-29.2 0-49.4 20.6-49.4 50.4 0 28.2 17.8 47.4 43.6 47.4 30.8 0 52.8-21.4 52.8-51.4zm-18.6 7.4c0 23-10.2 37.4-26.4 37.4-19.6 0-32.8-19.2-32.8-47.6 0-24 9.6-37 27.2-37 18.4 0 32 20 32 47.2zM815.717 353.8v-5.6a320.658 320.658 0 0 1-39.2 0v5.6l6.8.4c8 .4 9.2 5.4 6.4 13.4l-10 28-9.6 24.8-23-58c-2.8-6.8-4.2-10.8-5.8-16.2h-4.6l-31.8 73-16.8-55.2c-1.8-6-.8-9.4 6.8-9.8l8-.4v-5.6a472.558 472.558 0 0 1-47.6 0v5.6l5.6.4c5.6.4 8.2 3.8 13.2 20l20.4 67.2h9.4l19.6-46c3.6-8.4 10.4-22.4 10.4-22.4l27.2 68.4h9.2l27.4-69.8c5.6-14.2 8.4-17 12.8-17.4zM929.314 440.6v-6l-8.2-.6c-6.8-.4-7.4-1.6-7.4-14.4V381c0-23.4-11-34.8-33.4-34.8-7.4 0-11.6 1.4-15.8 5l-15.2 13.2V347l-1.8-.8c-10.2 4.2-20.6 7-31.2 8.2v5.6h7.4c8 0 8.8 1.4 8.8 14.6v45c0 12.6-.6 14-7.4 14.4l-9 .6v6a513.058 513.058 0 0 1 49.6 0v-6l-9-.6c-6.8-.4-7.4-1.8-7.4-14.4v-42.4c0-9 13.2-18.8 25.4-18.8 13.4 0 22.2 10 22.2 25.4v56.8c5.2-.4 10.6-.6 15.8-.6 5.6 0 11 .2 16.6.6zM1037.52 312v-15.4c-4.2-1.6-6.6-2.2-9.2-2.2-6.4 0-13.4 3.4-17.8 8.4l-11.6 13.2c-5.8 6.6-8.4 15.6-8.4 28.8v8.4l-13.8 6.2v4.4l13.8-.8v56.6c0 12.6-.6 14-7.4 14.4l-9.2.6v6a521.358 521.358 0 0 1 50 0v-6l-9.2-.6c-6.8-.4-7.4-1.8-7.4-14.4V363h24.8l1.4-10.6c-8.8.6-17.4.8-26.2.8v-17c0-23 2.6-28.6 14-28.6 5.4 0 9 1.4 13.8 5.6zM1129.792 392.6c0-27-19.6-46.4-47-46.4-29.2 0-49.4 20.6-49.4 50.4 0 28.2 17.8 47.4 43.6 47.4 30.8 0 52.8-21.4 52.8-51.4zm-18.6 7.4c0 23-10.2 37.4-26.4 37.4-19.6 0-32.8-19.2-32.8-47.6 0-24 9.6-37 27.2-37 18.4 0 32 20 32 47.2z"/><path d="M1223.708 440.6v-6l-5-.6c-2.4-.2-4.8-1.8-7-4.8l-29.6-40 28.4-33.2c1.2-1.4 3.4-2.2 6.8-2.2h2.8v-5.6h-16.4l-24.8 35-15.2-23.2c-3-4.4-5.2-7-12-13.8l-23.2 4 1 5.2 4.2.4c3.6.4 8 3 10 5.8l24 34.8-29.8 35.2c-1.4 1.8-4 3-6 3h-3.4v5.4h17.2s1.4-4.6 12-18.8l14.8-19.6 26.6 39c4-.4 8.2-.6 12.2-.6 4.2 0 8.2.2 12.4.6zM372.152 663.8V567l-1.8-.8c-10.2 4.2-20.6 7-31.2 8.2v5.6h7.4c8 0 8.8 1.4 8.8 14.6v66.8c0 33.2-5.4 48.2-17 48.2-1.6 0-4.2-.2-6-.6l2.4 7.6c11.6-.8 19.2-5 26.8-15 7-9.2 10.6-22 10.6-37.8zm1.6-122.2c0-5.8-4-10-9.8-10-6.2 0-10.2 4-10.2 10s4 10 10 10 10-4 10-10zM497.427 660.6v-6l-8.2-.6c-6.8-.4-7.4-1.6-7.4-14.4V567l-1.8-.8c-10.2 4.2-20.6 7-31.2 8.2v5.6h7.4c8 0 8.8 1.4 8.8 14.6v32.6c0 4.4-2.8 10-7.4 14.6-5.6 5.6-12 8.4-19.8 8.4-7 0-12.6-2.2-15.8-6-2.8-3.2-4.2-9.4-4.2-18.2v-59l-1.8-.8c-10.2 4.2-20.6 7-31.2 8.2v5.6h7.4c8 0 8.8 1.4 8.8 14.6v33.6c0 14 1.2 20.2 4.8 25.2 4.4 6 12 9 23.4 9 9 0 17-2.8 22.4-7.8l13.4-12.4c0 5.8-.2 9-.8 18.4a230.158 230.158 0 0 1 33.2 0zM669.73 660.6v-6l-9.4-.6c-6.8-.4-7.4-1.8-7.4-14.4v-41.2c0-19.8-11.6-32.2-30-32.2-7 0-12.8 1.8-16.4 5l-15.2 13.6c-6.4-13.2-14.6-18.6-28.4-18.6-7.4 0-13 1.8-16.6 5l-13.8 12.8v-17l-1.8-.8c-10.2 4.2-20.6 7-31.2 8.2v5.6h7.4c8 0 8.8 1.4 8.8 14.6v45c0 12.6-.6 14-7.4 14.4l-9.2.6v6c8.4-.4 17-.6 25.4-.6 8 0 15.8.2 23.8.6v-6l-8.4-.6c-6.8-.4-7.4-1.8-7.4-14.4v-42.4c0-9 13.2-18.8 25.2-18.8 10.8 0 18.2 10.2 18.2 25.4v35.8c0 12.6-.6 14-7.4 14.4l-9.2.6v6a521.358 521.358 0 0 1 50 0v-6l-9.2-.6c-6.8-.4-7.4-1.8-7.4-14.4v-42.4c0-9 13.2-18.8 25.2-18.8 10.8 0 18.2 10.2 18.2 25.4v56.8c5.2-.4 10.6-.6 15.8-.6 6 0 11.8.2 17.8.6z"/><path d="M773.386 605.8c0-22.2-18.4-39.6-41.6-39.6-7.4 0-14.6 2-17.8 5l-16.4 15V567l-1.8-.8c-10.2 4.2-20.6 7-31.2 8.2v5.6h7.4c8 0 8.8 1.4 8.8 14.6v100.6c0 12.6-.6 14-7.4 14.4l-9.2.6v6a521.358 521.358 0 0 1 50 0v-6l-9.2-.6c-6.8-.4-7.4-1.8-7.4-14.4v-37.8c6 3.6 12.4 5 21.4 5 5.8 0 11-1.2 14.2-3.2l22.8-14.8c8-5.2 17.4-25.8 17.4-38.6zm-17.4 7.4c0 22.4-13.4 39-31.4 39-11 0-19.2-3.6-27-11.8v-41.6c0-2.8 1-5 3.6-8.4 5.8-7.4 14-11.2 24-11.2 18.8 0 30.8 13.2 30.8 34zM855.098 630.4c0-6.2-1.6-10.8-5.6-14.8-5.2-5.2-11.8-7.4-29.4-10.8-16.4-3.2-21.8-7.2-21.8-16.4 0-10 7-15.6 19.2-15.6 13.4 0 23.6 7 23.6 16.4v4.6h5.6c.2-11.6.4-16.4 1-22.6-10.6-3.6-17.8-5-26-5-23.2 0-37.4 11-37.4 29 0 9.6 4.4 16.4 13.6 20.6 5.4 2.4 16 5.6 29.6 8.6 9 2 12.8 6.2 12.8 13.8 0 10.8-10 18.4-24.2 18.4-14.6 0-25-7-25-17v-8.2h-6c0 13.8-.6 19.8-2.2 27.8 10.4 3.4 18.2 4.8 27.4 4.8 26.2 0 44.8-14 44.8-33.6zM1002.464 612.6c0-27-19.6-46.4-47-46.4-29.2 0-49.4 20.6-49.4 50.4 0 28.2 17.8 47.4 43.6 47.4 30.8 0 52.8-21.4 52.8-51.4zm-18.6 7.4c0 23-10.2 37.4-26.4 37.4-19.6 0-32.8-19.2-32.8-47.6 0-24 9.6-37 27.2-37 18.4 0 32 20 32 47.2zM1105.76 573.8v-5.6a295.058 295.058 0 0 1-37.6 0v5.6l8.2.4c6.4.4 6.4 6.2 1 19.8l-8.4 21.2-12.4 28-23.8-57.6c-2.2-5.6-3.2-11.2 3.2-11.4l9.8-.4v-5.6c-7.8.4-15.6.6-23.4.6-7.8 0-15.4-.2-23.2-.6v5.6l6.8.4c3.6.2 4.2 2 6.2 6.6l34.4 80.6h10c1.2-6.6 4.2-12.8 8.2-21.8l23.6-52c4.6-10.2 7.2-13.2 11.2-13.4zM1186.64 604.2c0-23-14.8-38-37.2-38-7.4 0-16 2.6-24.2 7.4-16.4 9.4-23 21.8-23 42.6 0 12.6 2.8 23.4 8.4 31 7.8 10.6 21.4 16.8 36.4 16.8 7.4 0 14.8-1.6 23-5.2 5.4-2.2 9.6-4.8 10.4-6l4-6.8-2.6-2c-12.8 7.6-17.4 9.4-26 9.4-13 0-23.8-5.8-29.4-15.6-3.8-6.6-5.2-12.2-5.6-23.8h29.2c13.8 0 22.4-.6 36.2-2.8.2-2.8.4-4.6.4-7zm-17.8 2.4l-22.4.6c-9.2 0-14.4-.2-25.2-1.2 0-9.4.8-13.8 3.4-19 4.2-8.8 12.8-14.2 22.4-14.2 6.6 0 11.8 2.6 15.4 8 4.4 6.6 6.4 12.4 6.4 25.8zM1261.542 568.4c-2.2-1.4-5.8-2.2-9.4-2.2-6 0-12.4 3.2-16.6 8.2l-11.2 13.2V567l-1.8-.8c-10.2 4.2-20.6 7-31.2 8.2v5.6h7.4c8 0 8.8 1.4 8.8 14.6v45c0 12.6-.6 14-7.4 14.4l-9.2.6v6c8.2-.4 16.4-.6 24.6-.6 9.6 0 19 .2 28.6.6v-6l-10.4-.6c-9-.6-9.4-1.2-9.4-14.4v-34.4c0-12 8-22 17.8-22 6 0 10.2 2.8 13.4 9.2h4.2zM328.316 792.8l-27.4 1.2v-7.6c0-8.4.6-15.6 2.2-28.4l-2.4-2.2c-4.8 3-10.8 5.6-17 7.6.6 6 .8 9.8.8 15.8v14l-15.6 7v4.2l15.2-.8v57.6c0 14.8 6.6 21.2 22 21.2 4.6 0 9.4-1 10.6-2.4l9.6-10.6-2.6-3.4c-5 2.8-8 3.8-11.8 3.8-7.8 0-11-4-11-13.8v-52.4h25.6z"/><path d="M441.275 880.6v-6l-8.2-.6c-6.8-.4-7.4-1.6-7.4-14.4V821c0-23.4-11-34.8-33.4-34.8-7.4 0-11.6 1.4-15.8 5l-15.2 13.2v-68l-1.8-1.6c-8.8 3.4-15.4 5-31.2 7.4v5.6h11.2c3.6 0 5 2.2 5 8.2v103.6c0 12.6-.6 14-7.4 14.4l-9 .6v6a513.058 513.058 0 0 1 49.6 0v-6l-9-.6c-6.8-.4-7.4-1.8-7.4-14.4v-42.4c0-9 13.2-18.8 25.4-18.8 13.4 0 22.2 10 22.2 25.4v56.8c5.2-.4 10.6-.6 15.8-.6 5.6 0 11 .2 16.6.6zM526.88 824.2c0-23-14.8-38-37.2-38-7.4 0-16 2.6-24.2 7.4-16.4 9.4-23 21.8-23 42.6 0 12.6 2.8 23.4 8.4 31 7.8 10.6 21.4 16.8 36.4 16.8 7.4 0 14.8-1.6 23-5.2 5.4-2.2 9.6-4.8 10.4-6l4-6.8-2.6-2c-12.8 7.6-17.4 9.4-26 9.4-13 0-23.8-5.8-29.4-15.6-3.8-6.6-5.2-12.2-5.6-23.8h29.2c13.8 0 22.4-.6 36.2-2.8.2-2.8.4-4.6.4-7zm-17.8 2.4l-22.4.6c-9.2 0-14.4-.2-25.2-1.2 0-9.4.8-13.8 3.4-19 4.2-8.8 12.8-14.2 22.4-14.2 6.6 0 11.8 2.6 15.4 8 4.4 6.6 6.4 12.4 6.4 25.8zM625.184 880.6v-6l-9.2-.6c-6.8-.4-7.4-1.8-7.4-14.4V736.4l-1.8-1.6c-8.8 3.4-15.4 5-31.2 7.4v5.6h11.2c3.6 0 5 2.2 5 8.2v103.6c0 12.6-.6 14-7.4 14.4l-9.2.6v6a521.358 521.358 0 0 1 50 0zM717.388 880.6v-6l-7.8-.4c-4.8-.2-5.6-1.8-5.6-11.6V826c0-29.2-8.4-39.8-31.6-39.8-8.6 0-16.6 2.2-24.2 6.8l-10.6 6.4v13l5.2 1.4 2.6-6.2c4-9.4 6.2-10.8 15.4-10.8 18.8 0 26.6 7.4 27.2 25.6l-19.8 3.6c-27.2 5-38.6 14.4-38.6 31.8 0 15.6 9.4 24.6 25.2 24.6 3.6 0 7-.6 8.4-1.6l24.8-17.2-1 17c5.2-.4 10.4-.6 15.6-.6 5 0 9.8.2 14.8.6zm-29.4-25.4c-5.8 8.2-18.4 15.8-26.2 15.8-8 0-15-7.4-15-16 0-7.4 4-14.4 10-18.2 5-3 16-5.8 31.2-8zM810.388 852.2h-6l-3.6 15.8c-.8 3.6-9.2 5-28.4 5h-27l62.8-79.4v-6c-9.2.4-18.4.6-27.6.6-16.6 0-33-.2-49.6-.6-.4 10.2-.6 12.6-1.8 26.4h6l2.4-13.6c.8-4.2 4.4-5.2 19.2-5.2h28.6c-4.2 6.6-7.4 11.2-13 18l-52 63.4 1.2 4c10.2-.4 20.4-.6 30.6-.6 18.4 0 36.8.2 55.2.6 0-4.6.6-9.4 1.8-19zM919.987 793.8v-5.6a301.358 301.358 0 0 1-38 0v5.6l5.2.4c8.4.6 10.2 3 7.2 10.2l-23.8 58.4c-4.4-7.6-6.4-12.2-10.2-22l-12.8-33.6c-3.4-8.8-3-12.6 4.8-13l7.6-.4v-5.6a449.058 449.058 0 0 1-46.4 0v5.6l3.6.4c5 .6 7.6 2.8 10.4 9.8l33 80.8-4.6 12.2c-6.4 16.8-14.2 26.2-21.8 26.2-3.2 0-6.8-1.6-10.2-4.6h-2.6l-4.8 15c3.8 2 7 3 10.8 3 13.4 0 22-7.2 29.6-24.6l40.6-93.6c8-18.2 11.8-23.8 16.8-24.2zM1076.316 880.6v-6l-9.2-.6c-6.8-.4-7.4-1.8-7.4-14.4V736.4l-1.8-1.6c-8.8 3.4-15.4 5-31.2 7.4v5.6h11.2c3.6 0 5 2.2 5 8.2v36.6c-11.2-4.8-16.8-6.4-23.8-6.4-5.4 0-10.2 1.2-15.2 3.8l-17.6 9.2c-11.4 6-18.8 20.6-18.8 37.6 0 16 5.4 29.2 15.2 37.2 6.8 5.8 16.2 8.4 29.2 8.4 4 0 8.6-.8 9.6-1.6l22.2-18.6-1 18.4c5.2-.4 10.2-.6 15.4-.6 6 0 12.2.2 18.2.6zm-33.4-44.8c0 13-.4 15-3 19.6-5.6 9.4-15.4 15.6-24.8 15.6-17.6 0-30.2-17-30.2-40.8 0-21.8 10.8-34.6 28.8-34.6 7.6 0 15.6 2.6 22.6 7.4 4.2 2.8 6.6 5.4 6.6 7zM1179.58 832.6c0-27-19.6-46.4-47-46.4-29.2 0-49.4 20.6-49.4 50.4 0 28.2 17.8 47.4 43.6 47.4 30.8 0 52.8-21.4 52.8-51.4zm-18.6 7.4c0 23-10.2 37.4-26.4 37.4-19.6 0-32.8-19.2-32.8-47.6 0-24 9.6-37 27.2-37 18.4 0 32 20 32 47.2zM1288.956 796.2l-.8-2.4-28.4.8c-7.4-6-14.6-8.4-24.4-8.4-8.8 0-19 2.8-27.2 7.6-11.2 6.4-17 16.2-17 28.4 0 14.8 9.2 25 24 26.6l-15.8 12.2c-2 3-3 5.6-3 8.6 0 5.6 3.6 8.8 13.2 11.6l-17.4 9.4c-2.8 1.6-5.6 9-5.6 15.2 0 18.2 17.8 30.8 43.2 30.8 30.2 0 54-19 54-43.4 0-14.4-9.6-24.4-23.6-24.4h-32c-10.4 0-15.2-2.4-15.2-7.8 0-2.6 1.6-4.8 6.8-9.2 1.2-1 1.6-1.4 2.4-2.2 2 .2 3.2.4 4.8.4 8.6 0 19.2-3.8 27.4-9.6 9-6.6 13.4-14.6 13.4-25.2 0-4-.6-6.6-2.2-10.8h18.4zm-38 25c0 13-8.4 22-20.6 22-13.4 0-22.4-10.4-22.4-25.8s7.4-24.4 20.2-24.4c13.6 0 22.8 11.2 22.8 28.2zm17 79.2c0 17.2-15.8 30-36.8 30-17.4 0-29.4-10.2-29.4-25 0-9 5.2-17 13.2-20.6 3.2-1.4 8.8-2 22.6-2 22.6 0 30.4 4.6 30.4 17.6zM1322.084 869.4c0-6-5.6-11.6-11.8-11.6-6 0-11.4 5.6-11.4 11.6s5.4 11.6 11.2 11.6c6.4 0 12-5.4 12-11.6z"/></g></svg>