<svg xmlns="http://www.w3.org/2000/svg" viewBox="0 0 1600 1000" height="1000" width="1600"><path fill="#fff" d="M0 0h1600v1000H0z"/><g font-weight="400" font-size="200" font-family="Perpetua" letter-spacing="-.03em" text-anchor="middle" fill="#222"><path d="M547.215 111.016h-17.383v87.988q0 10.35 2.54 13.965 2.538 3.612 9.862 3.612V220H501.61v-3.418q7.617 0 10.35-4.102 2.735-4.2 2.735-14.062v-87.402h-16.6q-11.915 0-17.384 3.808-5.37 3.81-6.054 12.598h-3.418v-26.27h3.418q4.59 4.297 17.188 4.297h60.058q12.99 0 18.164-4.298h3.614v26.27h-2.246q-2.15-9.473-7.715-12.89-5.47-3.516-16.505-3.516z"/><path d="M634.184 205.156v-34.96q0-7.032-3.907-11.23-3.906-4.2-10.35-4.2-5.958 0-10.743 3.125-4.688 3.028-9.864 10.352v38.77q0 5.468 2.54 7.52 2.538 2.05 9.277 2.05V220h-37.99v-3.418q8.107-.195 10.353-2.637 2.246-2.44 2.246-10.937V110.82q0-6.445-2.344-8.496-2.246-2.148-10.254-2.148v-3.418L596 94.414h3.32v66.992q6.836-7.812 12.305-10.937 5.566-3.224 12.5-3.224 10.352 0 16.992 6.64 6.64 6.64 6.64 17.872v31.25q0 8.3 2.247 10.937 2.246 2.637 9.18 2.637V220h-36.817v-3.418q7.227 0 9.473-2.246 2.344-2.246 2.344-9.18zM728.867 201.836v5.176q-6.445 8.203-13.183 11.718-6.64 3.516-16.016 3.516-16.602 0-27.44-10.35-10.744-10.45-10.744-26.466 0-16.114 10.254-27.15 10.352-11.034 25.293-11.034 12.306 0 21.486 8.3 9.18 8.302 9.18 19.825v1.466h-52.05v.977q0 11.718 3.514 20.41 3.613 8.593 10.45 13.476 6.835 4.882 14.257 4.882 6.934 0 11.817-2.832 4.98-2.93 13.183-11.914zm-53.222-28.418h38.574v-1.367q0-9.472-5.47-15.038-5.37-5.567-13.477-5.567-8.593 0-13.867 5.86-5.176 5.86-5.76 16.113zM830.44 262.188V216.58q-9.96 5.664-20.995 5.664-15.625 0-25.488-9.766-9.766-9.765-9.766-25.488 0-17.97 12.306-27.734 12.402-9.863 35.742-9.863 5.664 0 21.778.976v111.622q0 6.055 2.54 8.106 2.538 2.148 9.667 2.148v3.32H818.82v-3.32q6.74 0 9.18-2.148 2.44-2.15 2.44-7.91zm0-50V155.35q-4.784-.977-9.374-.977-14.843 0-23.437 8.398-8.595 8.4-8.595 22.852 0 13.184 7.03 22.168 7.033 8.984 18.75 8.984 7.326 0 15.626-4.59zM925.516 147.246h3.32v59.375q0 5.86 2.44 7.91 2.54 2.052 9.767 2.052V220l-25.78 1.367V208.38h-.392q-10.643 13.866-24.804 13.866-10.156 0-16.7-6.738-6.444-6.836-6.444-17.09v-36.23q0-5.47-2.734-7.422-2.735-1.953-9.864-1.953v-3.418l22.754-2.15h3.418v50.587q0 7.422 4.297 11.72 4.395 4.296 11.72 4.296 10.155 0 18.75-11.62v-38.185q0-7.324-2.247-9.18-2.246-1.855-11.524-2.05v-3.418z"/><path d="M964.047 147.246h3.418v59.57q0 5.86 2.54 7.813 2.538 1.952 9.276 1.952V220h-38.768v-3.418q8.496 0 10.937-1.855 2.44-1.954 2.44-7.91v-43.458q0-6.446-2.245-8.497-2.247-2.05-11.133-2.05v-3.418zm-3.125-36.62q3.613 0 6.055 2.538 2.54 2.44 2.54 6.055 0 3.612-2.54 6.25-2.54 2.538-6.055 2.538-3.613 0-6.25-2.54-2.637-2.636-2.637-6.25 0-3.613 2.54-6.054 2.636-2.54 6.347-2.54zM1049.16 147.246v25h-3.418q-2.246-9.766-8.594-15.43-6.347-5.664-15.136-5.664-10.547 0-17.188 8.203-6.64 8.204-6.64 21.29 0 14.453 7.812 25 7.91 10.546 18.75 10.546 7.227 0 14.258-3.905 7.13-3.906 12.207-10.84v5.176q-11.522 15.626-31.25 15.626-15.722 0-25.683-9.96-9.863-9.962-9.863-25.88 0-16.308 10.645-27.734 10.74-11.426 25.878-11.426 6.738 0 15.04 2.734 3.612 1.172 4.98 1.172 3.026 0 4.784-3.906zM1111.813 161.406l-18.36 16.797 29.395 29.395q4.98 4.98 8.496 6.836 3.613 1.855 8.887 2.148V220h-23.144l-36.816-35.352q0 27.832 2.343 29.883 2.344 2.052 9.473 2.052V220H1054v-3.418q8.203-.195 10.352-2.54 2.246-2.44 2.246-11.034v-93.164q0-6.153-2.344-7.91-2.246-1.758-10.254-1.758v-3.418l22.852-2.344h3.417v89.55l18.945-17.382q5.47-4.98 5.47-8.887 0-4.687-8.595-4.883v-3.417h38.574v3.417h-3.418q-10.254 0-19.434 8.594zM476.902 314.414h3.418v63.38q4.493-4.884 10.84-7.716 6.445-2.832 12.988-2.832 13.77 0 23.243 10.06 9.57 9.96 9.57 24.51 0 17.09-12.89 28.028-12.793 10.937-35.35 10.937-8.79 0-21.974-2.147v-106.25q0-8.3-2.148-10.254-2.05-1.954-10.45-1.954v-3.418zm3.418 68.555v40.428q0 7.91 2.637 10.84 2.734 2.93 9.375 2.93 13.77 0 21.777-8.887 8.007-8.885 8.007-24.9 0-13.38-6.933-21.876-6.934-8.496-16.602-8.496-10.156 0-18.262 9.96zM567.387 367.246v15.332q9.765-8.496 15.136-11.914 5.47-3.418 9.082-3.418 6.74 0 12.99 5.566l-5.372 12.598q-11.328-6.25-16.797-6.25-6.055 0-15.04 8.594v38.867q0 5.86 2.442 7.91 2.442 2.052 9.375 2.052V440H541.8v-3.418q7.423 0 9.67-2.344 2.343-2.343 2.343-11.23v-38.574q0-7.325-2.54-9.473-2.44-2.147-12.11-2.147v-3.418l24.806-2.15zM683.36 404.844q0 16.015-11.133 26.758-11.036 10.644-27.637 10.644-16.602 0-27.735-10.644-11.035-10.743-11.035-26.758 0-16.21 11.035-26.856 11.036-10.742 27.735-10.742 16.7 0 27.734 10.742 11.035 10.645 11.035 26.856zm-14.747 0q0-15.137-6.445-24.414-6.445-9.278-17.578-9.278t-17.578 9.082q-6.446 9.082-6.446 24.61 0 15.234 6.348 24.316 6.445 9.082 17.676 9.082 11.23 0 17.578-9.18 6.445-9.18 6.445-24.218zM715.934 369.395v3.417q-7.422.196-7.422 4.2 0 2.05 1.66 6.152l15.918 39.65 16.6-42.58q-2.245-4.394-4.295-5.86-1.954-1.464-6.055-1.562v-3.417h34.18v3.417q-9.082.196-9.082 5.567 0 1.854 1.074 4.59l15.82 39.842 14.55-37.01q1.76-4.493 1.76-7.13 0-5.664-8.888-5.86v-3.417h27.54v3.417q-7.423 0-10.255 2.344-2.735 2.246-6.153 10.645l-21.973 55.762h-3.418l-22.558-55.76-22.168 55.76h-3.418l-24.805-60.937q-3.125-7.813-12.988-7.813v-3.417z"/><path d="M833.957 367.246v14.16q12.402-14.16 25.586-14.16 10.254 0 17.09 7.03 6.836 6.935 6.836 18.36v31.934q0 7.325 2.44 9.668 2.442 2.344 9.57 2.344V440h-37.793v-3.418q7.032 0 9.57-1.758 2.638-1.855 2.638-7.03V390.78q0-7.42-4.493-11.815-4.394-4.395-11.328-4.395-9.96 0-20.117 13.868v34.57q0 8.79 2.246 11.23 2.344 2.344 9.668 2.344V440h-37.4v-3.418q8.104 0 9.96-2.54 1.855-2.636 1.855-11.034v-39.844q0-6.348-2.246-8.3-2.247-2.052-9.57-2.052v-3.417l22.07-2.15zM978.207 374.57H960.63v51.465q0 5.567 2.343 8.106 2.44 2.442 7.91 2.442h3.32V440h-40.137v-3.418h3.125q5.372 0 7.62-2.05 2.245-2.15 2.245-7.325V374.57h-9.864v-3.418q6.837-2.734 9.865-4.785v-13.965q0-16.504 8.105-27.246 8.203-10.742 22.266-10.742 12.402 0 20.02 5.762l-6.837 17.87h-3.42q.1-1.562.1-3.026 0-7.813-3.614-12.11-3.516-4.297-9.864-4.297-6.152 0-9.668 4.395-3.515 4.394-3.515 12.207v34.18h17.577zM1061.758 404.844q0 16.015-11.133 26.758-11.035 10.644-27.637 10.644-16.6 0-27.734-10.644-11.035-10.743-11.035-26.758 0-16.21 11.034-26.856 11.035-10.742 27.734-10.742 16.7 0 27.735 10.742 11.035 10.645 11.035 26.856zm-14.746 0q0-15.137-6.446-24.414-6.445-9.278-17.578-9.278t-17.578 9.082q-6.445 9.082-6.445 24.61 0 15.234 6.347 24.316 6.446 9.082 17.676 9.082 11.23 0 17.578-9.18 6.446-9.18 6.446-24.218zM1091.695 440h-28.808v-3.418q7.715 0 11.328-2.148 3.613-2.247 9.668-9.473l15.332-18.163-16.797-21.973q-5.274-6.933-8.984-9.18-3.614-2.343-10.547-2.83v-3.42h38.965v3.42q-6.25.487-6.25 4.1 0 2.44 2.832 6.445l9.472 13.28 9.57-11.816q3.71-4.492 3.71-7.812.002-4.2-5.565-4.2v-3.417h28.028v3.418q-6.542.683-10.45 3.222-3.807 2.442-10.35 10.156l-11.817 13.966 21.388 28.028q6.543 8.398 15.82 8.398V440h-37.207v-3.418q5.372-.78 5.372-3.906 0-1.953-2.148-4.883l-12.402-16.992-12.598 15.82q-2.637 3.224-2.637 5.86 0 3.81 5.078 4.102zM459.395 587.246h3.32v83.984q0 36.524-36.914 36.524h-2.05v-3.32h.586q13.28 0 19.043-7.325 5.76-7.325 5.76-23.926v-71.387q0-5.567-2.734-7.227-2.636-1.757-10.644-1.757v-3.418zM455 550.626q3.613 0 6.055 2.538 2.54 2.44 2.54 6.055 0 3.612-2.54 6.25-2.54 2.538-6.055 2.538-3.613 0-6.25-2.54-2.637-2.636-2.637-6.25 0-3.613 2.54-6.054 2.636-2.54 6.347-2.54zM545.094 587.246h3.32v59.375q0 5.86 2.44 7.91 2.54 2.052 9.767 2.052V660l-25.78 1.367V648.38h-.39q-10.645 13.866-24.805 13.866-10.157 0-16.7-6.738-6.445-6.836-6.445-17.09v-36.23q0-5.47-2.734-7.422-2.735-1.953-9.864-1.953v-3.418l22.754-2.15h3.418v50.587q0 7.422 4.297 11.72 4.396 4.296 11.72 4.296 10.156 0 18.75-11.62v-38.185q0-7.324-2.246-9.18-2.246-1.855-11.524-2.05v-3.418zM586.652 587.246v14.746h.39q4.395-6.738 11.23-10.742 6.935-4.004 13.966-4.004 7.715 0 13.672 4.297 6.055 4.2 8.594 11.62 11.328-15.917 26.172-15.917 10.35 0 17.187 6.445 6.836 6.35 6.836 17.482v35.644q0 5.762 2.538 7.813 2.54 1.952 9.375 1.952V660h-37.597v-3.418q7.714 0 9.863-2.44 2.147-2.54 2.147-11.134v-33.594q0-6.836-4.1-10.742-4.103-3.906-11.232-3.906-11.133 0-20.02 13.672v37.988q0 5.957 2.54 8.105 2.54 2.052 9.277 2.052V660h-37.207v-3.418q8.008 0 9.863-2.54 1.954-2.538 1.954-11.034v-32.813q0-7.03-4.2-11.23t-10.84-4.2q-5.76 0-11.328 3.712-5.468 3.71-9.082 9.96v38.575q0 5.468 2.637 7.617 2.636 2.147 9.374 2.147V660h-37.598v-3.418q7.813 0 9.864-2.44 2.148-2.443 2.148-8.986v-41.992q0-5.47-2.344-7.91-2.246-2.442-7.52-2.442h-4.394v-3.417l24.414-2.15zM722.84 587.246v11.914q6.738-6.543 12.207-9.18 5.566-2.734 12.402-2.734 13.77 0 22.85 10.547 9.083 10.45 9.083 26.367 0 16.406-10.06 27.246-9.96 10.84-25.096 10.84-10.45 0-21.387-8.398v46.582q0 7.226 2.44 9.472 2.54 2.344 9.376 2.344v3.32h-37.89v-3.32q7.324 0 9.863-2.05 2.538-2.05 2.538-7.813v-98.535q0-7.13-2.148-9.082-2.15-1.953-10.254-1.953v-3.418l22.656-2.15zm0 17.188v44.336q8.3 8.79 19.53 8.79 9.474 0 15.82-8.888 6.447-8.887 6.447-22.07 0-14.258-6.446-23.536-6.346-9.277-16.21-9.277-9.96 0-19.14 10.644zM833.246 587.246v21.777h-4.004q-.976-8.203-5.86-12.988-4.882-4.883-11.816-4.883-5.273 0-8.496 2.637-3.222 2.636-3.222 7.03 0 4.297 2.93 7.617 3.027 3.223 12.988 7.813 12.89 5.86 16.992 11.23 4.2 5.372 4.2 12.89 0 8.888-6.642 15.43-6.64 6.446-15.722 6.446-4.688 0-12.403-3.418-4.198-1.855-5.565-1.855-1.855 0-3.125 1.367t-1.465 3.418h-3.418v-24.12h3.418q1.856 9.47 8.203 15.038 6.348 5.566 14.55 5.566 5.274 0 8.79-3.515 3.613-3.516 3.613-8.692 0-4.98-3.32-8.594-3.222-3.71-14.16-8.495-12.304-5.37-16.21-10.058-3.906-4.688-3.906-11.328 0-8.302 6.347-14.26 6.447-6.054 15.236-6.054 4.1 0 8.886 1.953 3.418 1.366 5.567 1.366 2.83 0 4.198-3.32zM960.797 624.844q0 16.015-11.133 26.758-11.035 10.644-27.637 10.644-16.6 0-27.734-10.644-11.035-10.743-11.035-26.758 0-16.21 11.035-26.856 11.035-10.742 27.734-10.742 16.7 0 27.735 10.742 11.035 10.645 11.035 26.856zm-14.746 0q0-15.137-6.445-24.414-6.445-9.278-17.578-9.278-11.132 0-17.578 9.082t-6.446 24.61q0 15.234 6.348 24.316 6.445 9.082 17.675 9.082t17.578-9.18q6.446-9.18 6.446-24.218zM993.762 589.395v3.418q-6.934.585-6.934 5.86 0 2.538 1.563 6.347l15.723 37.793 13.867-35.84q2.15-5.37 2.15-8.106 0-5.37-9.18-6.054v-3.418h25.976v3.418q-6.348.585-8.887 2.54-2.442 1.952-4.688 7.616l-22.754 58.592h-3.418l-22.657-55.566q-3.418-8.3-5.957-10.547-2.44-2.345-8.984-2.638v-3.417zM1104.852 641.836v5.176q-6.446 8.203-13.184 11.718-6.64 3.516-16.016 3.516-16.6 0-27.44-10.35-10.743-10.45-10.743-26.466 0-16.114 10.253-27.15 10.35-11.034 25.293-11.034 12.304 0 21.484 8.3 9.18 8.302 9.18 19.825v1.466h-52.05v.977q0 11.718 3.514 20.41 3.614 8.593 10.45 13.476 6.836 4.882 14.258 4.882 6.933 0 11.816-2.832 4.98-2.93 13.184-11.914zm-53.223-28.418h38.573v-1.367q0-9.472-5.47-15.038-5.37-5.567-13.475-5.567-8.594 0-13.867 5.86-5.175 5.86-5.76 16.113zM1135.082 587.246v15.332q9.766-8.496 15.137-11.914 5.468-3.418 9.08-3.418 6.74 0 12.99 5.567l-5.372 12.597q-11.328-6.25-16.797-6.25-6.054 0-15.038 8.594v38.867q0 5.86 2.44 7.91 2.443 2.052 9.376 2.052V660h-37.402v-3.418q7.422 0 9.668-2.344 2.344-2.343 2.344-11.23v-38.574q0-7.325-2.54-9.473-2.44-2.147-12.11-2.147v-3.418l24.806-2.15zM411.39 785.176h3.42v23.828h24.608v5.176h-24.61v45.605q0 7.13 3.32 11.035 3.32 3.81 9.474 3.81 7.226 0 13.183-6.837l2.246 2.637q-9.276 11.816-21.385 11.816-9.083 0-14.747-5.762-5.664-5.76-5.664-14.843v-47.46h-13.38v-3.418q14.65-7.324 23.537-25.586z"/><path d="M498.652 865.156v-34.96q0-7.032-3.906-11.23-3.906-4.2-10.35-4.2-5.96 0-10.744 3.125-4.687 3.028-9.863 10.352v38.77q0 5.468 2.538 7.52 2.54 2.05 9.277 2.05V880h-37.988v-3.418q8.106-.195 10.352-2.637 2.245-2.44 2.245-10.937V770.82q0-6.445-2.344-8.496-2.245-2.148-10.253-2.148v-3.418l22.852-2.344h3.32v66.992q6.835-7.812 12.304-10.937 5.566-3.224 12.5-3.224 10.35 0 16.992 6.64 6.64 6.64 6.64 17.872v31.25q0 8.3 2.247 10.937 2.246 2.637 9.18 2.637V880h-36.817v-3.418q7.226 0 9.473-2.246 2.342-2.246 2.342-9.18zM593.336 861.836v5.176q-6.445 8.203-13.184 11.718-6.64 3.516-16.015 3.516-16.602 0-27.442-10.35-10.742-10.45-10.742-26.466 0-16.114 10.254-27.15 10.352-11.034 25.293-11.034 12.305 0 21.484 8.3 9.18 8.302 9.18 19.825v1.466h-52.05v.977q0 11.718 3.515 20.41 3.612 8.593 10.448 13.476 6.836 4.882 14.258 4.882 6.934 0 11.816-2.832 4.98-2.93 13.184-11.914zm-53.223-28.418h38.574v-1.367q0-9.472-5.468-15.038-5.372-5.567-13.478-5.567-8.594 0-13.867 5.86-5.176 5.86-5.762 16.113zM675.086 876.582h1.855V880H637.49v-3.418h3.614q5.468 0 7.42-2.832 1.955-2.832 1.955-10.547v-93.36q0-5.468-2.15-7.52-2.147-2.147-7.42-2.147h-4.59v-3.418l24.413-2.344h3.32V866.62q0 5.763 2.345 7.91 2.343 2.052 8.69 2.052zM701.117 882.246q-8.3 0-14.258-5.47-5.958-5.565-5.958-13.378 0-7.42 5.078-12.207 5.176-4.88 20.9-9.276 9.862-2.734 13.28-4.687v-5.274q0-7.715-4.297-12.402-4.297-4.784-11.523-4.784-6.543 0-11.62 4.1-5.08 4.103-7.13 11.134l-3.613-.977q2.148-9.863 9.277-15.82 7.226-5.957 16.894-5.957 11.426 0 18.457 6.934 7.13 6.836 7.13 19.043v30.37q0 6.446.78 8.79.88 2.246 3.223 2.246 1.563 0 2.54-1.27.976-1.368 2.245-5.567h3.418q-.487 6.64-4.198 10.547-3.613 3.906-9.57 3.906-8.692 0-12.012-10.06-5.273 5.763-9.375 7.912-4.1 2.148-9.668 2.148zm19.043-16.6V841.62q-3.027 1.27-8.79 3.224-10.643 3.613-13.67 7.226-2.93 3.516-2.93 9.57 0 5.274 3.125 9.18 3.222 3.81 7.617 3.81 4.004 0 8.398-2.54 4.395-2.637 6.25-6.445zM749.805 809.395h59.375v3.418l-45.02 63.77h22.07q11.133 0 16.114-4.298 4.98-4.297 5.273-13.867h3.418L809.18 880h-61.23v-3.418l45.02-63.77h-19.825q-9.082 0-14.942 4.688-5.86 4.59-6.836 12.5h-3.418zM846.246 809.395v3.418q-6.055.878-6.055 6.152 0 2.05 1.076 4.59l16.992 40.04 12.402-37.404q1.465-4.588 1.465-7.323 0-5.664-7.13-6.055v-3.417h25v3.417q-5.663 0-9.374 3.907-3.71 3.807-6.737 12.694l-28.223 83.398q-4.1 11.915-10.45 18.848-6.347 6.934-12.987 6.934-3.907 0-8.79-3.028l4.59-12.207q3.71 1.66 6.836 1.66 6.347 0 10.45-4.004 4.198-4.004 7.518-13.38l9.18-25.683-25.39-58.594q-2.833-6.348-5.665-8.4-2.734-2.05-8.69-2.148v-3.417zM998.797 754.414h3.32V866.23q0 5.86 2.54 8.106 2.538 2.246 9.277 2.246V880h-41.21q-19.044 0-30.177-10.45-11.035-10.448-11.035-26.366 0-14.942 9.668-25.39 9.765-10.548 23.535-10.548 11.035 0 23.828 8.594v-43.457q0-7.13-1.856-9.668-1.855-2.54-7.52-2.54h-4.003v-3.417zm-10.254 111.62V823.36q-4.102-5.567-9.668-8.692-5.47-3.223-10.938-3.223-9.667 0-15.625 8.008-5.957 7.91-5.957 20.703 0 16.504 8.106 26.563 8.204 10.057 22.852 10.057 5.958 0 8.594-2.54 2.637-2.538 2.637-8.202zM1095.922 844.844q0 16.015-11.133 26.758-11.036 10.644-27.638 10.644-16.6 0-27.734-10.644-11.035-10.743-11.035-26.758 0-16.21 11.035-26.856 11.035-10.742 27.734-10.742 16.7 0 27.735 10.742 11.035 10.645 11.035 26.856zm-14.746 0q0-15.137-6.445-24.414-6.445-9.278-17.578-9.278t-17.578 9.082q-6.445 9.082-6.445 24.61 0 15.234 6.347 24.316 6.445 9.082 17.675 9.082t17.578-9.18q6.446-9.18 6.446-24.218zM1155.352 808.027h22.753v8.008h-18.75q8.008 9.668 8.008 20.606 0 10.743-7.812 19.044-7.714 8.3-18.554 8.886-7.715.39-15.43 4.98-7.617 4.59-7.617 8.204 0 3.906 4.003 5.86 4.102 1.952 19.043 4.59 16.602 3.026 23.047 5.468 6.543 2.44 10.156 6.933 3.71 4.59 3.71 10.352 0 12.5-12.695 21.094-12.598 8.595-30.86 8.595-15.527 0-25.195-6.055-9.57-5.957-9.57-15.625 0-6.738 5.47-12.012 5.565-5.176 17.48-10.156v-.39q-7.228-1.66-11.33-5.177-4.1-3.418-4.1-7.812 0-11.72 21.874-19.434v-.39q-10.644-2.832-16.504-9.766-5.76-7.03-5.76-16.992 0-12.793 8.495-21.19 8.594-8.4 21.582-8.4 2.54 0 9.375.39 6.836.39 9.18.39zm-35.84 27.344q0 11.525 4.785 18.556 4.785 7.03 12.695 7.03 8.106 0 12.793-6.835 4.785-6.933 4.785-18.75 0-10.74-4.882-17.48-4.786-6.738-12.5-6.738-7.91 0-12.794 6.74-4.882 6.64-4.882 17.48zm51.074 81.837q0-6.934-8.69-10.84-8.693-3.808-32.912-8.008-20.605 5.566-20.605 16.796 0 7.617 10.155 12.696 10.156 5.175 25.39 5.175 11.817 0 19.24-4.394 7.42-4.395 7.42-11.426z"/><path d="M1185.973 866.035q3.906 0 6.64 2.735 2.735 2.734 2.735 6.64 0 3.906-2.832 6.738-2.735 2.832-6.543 2.832-3.907 0-6.74-2.832-2.83-2.832-2.83-6.738 0-3.808 2.83-6.543 2.833-2.832 6.74-2.832z"/></g></svg>