<svg xmlns="http://www.w3.org/2000/svg" viewBox="0 0 800 500"><path fill="#fff" d="M0 0h800v500H0z"/><g font-weight="400" font-size="100" font-family="Perpetua" letter-spacing="-.03em" text-anchor="middle" fill="#222"><path d="M273.607 55.508h-8.69v43.994q0 5.176 1.27 6.982 1.268 1.807 4.93 1.807V110h-20.312v-1.71q3.808 0 5.175-2.05 1.368-2.1 1.368-7.03V55.507h-8.3q-5.958 0-8.693 1.904-2.685 1.904-3.027 6.3h-1.71V50.575h1.71q2.295 2.15 8.594 2.15h30.03q6.493 0 9.08-2.15h1.808V63.71h-1.123q-1.074-4.735-3.858-6.444-2.735-1.758-8.253-1.758z"/><path d="M317.092 102.578v-17.48q0-3.516-1.953-5.616-1.954-2.1-5.177-2.1-2.98 0-5.37 1.563-2.345 1.514-4.933 5.176v19.386q0 2.734 1.27 3.76 1.27 1.025 4.638 1.025V110h-18.994v-1.71q4.053-.097 5.176-1.317 1.123-1.22 1.123-5.47V55.41q0-3.222-1.172-4.248-1.122-1.074-5.126-1.074v-1.71L298 47.21h1.66v33.495q3.418-3.906 6.152-5.47 2.784-1.61 6.25-1.61 5.176 0 8.497 3.32 3.32 3.32 3.32 8.936v15.624q0 4.15 1.122 5.47 1.123 1.317 4.59 1.317V110h-18.408v-1.71q3.613 0 4.736-1.122 1.172-1.123 1.172-4.59zM364.434 100.918v2.588q-3.223 4.1-6.592 5.86-3.32 1.757-8.008 1.757-8.3 0-13.72-5.176-5.372-5.224-5.372-13.232 0-8.057 5.127-13.574 5.175-5.517 12.646-5.517 6.152 0 10.742 4.15 4.59 4.15 4.59 9.913v.732h-26.026v.488q0 5.86 1.758 10.205 1.807 4.298 5.225 6.74 3.418 2.44 7.13 2.44 3.465 0 5.907-1.415 2.49-1.465 6.592-5.957zm-26.612-14.21h19.287v-.683q0-4.736-2.735-7.52-2.686-2.782-6.738-2.782-4.297 0-6.934 2.93-2.588 2.93-2.88 8.056zM415.22 131.094V108.29q-4.98 2.833-10.497 2.833-7.813 0-12.744-4.883-4.884-4.883-4.884-12.744 0-8.984 6.152-13.867 6.2-4.933 17.87-4.933 2.833 0 10.89.49v55.81q0 3.026 1.27 4.052 1.27 1.073 4.833 1.073v1.66h-18.7v-1.66q3.37 0 4.59-1.074 1.22-1.075 1.22-3.956zm0-25V77.676q-2.392-.49-4.687-.49-7.422 0-11.72 4.2-4.295 4.2-4.295 11.427 0 6.59 3.515 11.083 3.516 4.493 9.375 4.493 3.662 0 7.813-2.296zM462.758 73.623h1.66v29.688q0 2.93 1.22 3.956 1.27 1.025 4.883 1.025V110l-12.89.684v-6.495h-.194q-5.323 6.933-12.403 6.933-5.078 0-8.35-3.37-3.222-3.417-3.222-8.544V81.093q0-2.735-1.366-3.71-1.367-.978-4.932-.978v-1.71l11.377-1.073h1.708v25.293q0 3.71 2.148 5.86 2.198 2.148 5.86 2.148 5.078 0 9.375-5.81V82.02q0-3.66-1.122-4.588-1.123-.928-5.762-1.026v-1.71z"/><path d="M482.023 73.623h1.71v29.785q0 2.93 1.27 3.906 1.268.977 4.638.977V110h-19.384v-1.71q4.248 0 5.47-.927 1.22-.976 1.22-3.955V81.68q0-3.223-1.124-4.248-1.123-1.026-5.566-1.026v-1.71zm-1.562-18.31q1.808 0 3.028 1.27 1.27 1.22 1.27 3.026 0 1.806-1.27 3.124-1.27 1.27-3.027 1.27-1.806 0-3.124-1.27-1.318-1.318-1.318-3.125t1.27-3.028q1.317-1.27 3.173-1.27zM524.58 73.623v12.5h-1.71q-1.122-4.883-4.296-7.715-3.174-2.832-7.568-2.832-5.274 0-8.594 4.102-3.32 4.1-3.32 10.644 0 7.227 3.906 12.5 3.955 5.274 9.375 5.274 3.613 0 7.13-1.953 3.563-1.954 6.102-5.42v2.588q-5.76 7.813-15.625 7.813-7.86 0-12.84-4.98-4.933-4.98-4.933-12.94 0-8.154 5.322-13.867 5.37-5.713 12.94-5.713 3.368 0 7.518 1.367 1.807.586 2.49.586 1.514 0 2.393-1.953zM555.906 80.703l-9.18 8.4 14.698 14.696q2.49 2.49 4.248 3.417 1.807.928 4.443 1.074V110h-11.572l-18.408-17.676q0 13.916 1.172 14.942 1.172 1.025 4.736 1.025V110H527v-1.71q4.102-.097 5.176-1.27 1.123-1.22 1.123-5.516V54.922q0-3.076-1.173-3.955-1.123-.88-5.127-.88V48.38l11.426-1.173h1.71v44.775l9.47-8.69q2.736-2.49 2.736-4.444 0-2.344-4.297-2.442v-1.71h19.287v1.71h-1.71q-5.126 0-9.716 4.297zM238.45 157.207h1.71v31.69q2.246-2.442 5.42-3.858 3.223-1.417 6.494-1.417 6.885 0 11.62 5.03 4.786 4.98 4.786 12.255 0 8.545-6.445 14.014-6.396 5.47-17.676 5.47-4.395 0-10.987-1.076V166.19q0-4.15-1.074-5.126-1.027-.976-5.226-.976v-1.71zm1.71 34.277V211.7q0 3.954 1.32 5.42 1.366 1.464 4.686 1.464 6.885 0 10.89-4.443 4.003-4.443 4.003-12.45 0-6.69-3.468-10.938-3.467-4.248-8.3-4.248-5.08 0-9.132 4.98zM283.693 183.623v7.666q4.883-4.25 7.57-5.958 2.733-1.71 4.54-1.71 3.37 0 6.494 2.784l-2.686 6.3q-5.663-3.126-8.397-3.126-3.027 0-7.52 4.297v19.434q0 2.93 1.22 3.956 1.222 1.025 4.69 1.025V220H270.9v-1.71q3.71 0 4.834-1.17 1.172-1.173 1.172-5.616v-19.287q0-3.662-1.27-4.737-1.22-1.074-6.054-1.074v-1.71l12.402-1.073zM341.68 202.422q0 8.008-5.567 13.38-5.517 5.32-13.818 5.32-8.3 0-13.867-5.32-5.518-5.372-5.518-13.38 0-8.106 5.518-13.428 5.517-5.37 13.867-5.37 8.35 0 13.867 5.37 5.518 5.322 5.518 13.428zm-7.373 0q0-7.568-3.223-12.207-3.223-4.64-8.79-4.64-5.565 0-8.788 4.542-3.223 4.54-3.223 12.305 0 7.617 3.174 12.158 3.223 4.54 8.838 4.54 5.615 0 8.79-4.59 3.222-4.59 3.222-12.108zM357.967 184.697v1.71q-3.71.097-3.71 2.1 0 1.024.83 3.075l7.958 19.824 8.3-21.29q-1.122-2.196-2.148-2.93-.976-.73-3.027-.78v-1.71h17.09v1.71q-4.54.098-4.54 2.783 0 .927.536 2.294l7.91 19.922 7.275-18.506q.88-2.246.88-3.564 0-2.832-4.443-2.93v-1.71h13.77v1.71q-3.71 0-5.127 1.172-1.368 1.123-3.077 5.322l-10.986 27.88h-1.71L372.47 192.9l-11.085 27.88h-1.71l-12.402-30.468q-1.562-3.906-6.494-3.906v-1.71z"/><path d="M416.98 183.623v7.08q6.2-7.08 12.79-7.08 5.128 0 8.546 3.516 3.418 3.465 3.418 9.178v15.967q0 3.662 1.22 4.834 1.222 1.17 4.786 1.17V220h-18.896v-1.71q3.515 0 4.785-.878 1.317-.928 1.317-3.516V195.39q0-3.71-2.246-5.908-2.196-2.197-5.663-2.197-4.98 0-10.058 6.934v17.284q0 4.394 1.122 5.615 1.17 1.17 4.834 1.17V220h-18.702v-1.71q4.053 0 4.98-1.27.93-1.317.93-5.516v-19.922q0-3.174-1.124-4.15-1.124-1.026-4.786-1.026v-1.71l11.036-1.073zM489.104 187.285h-8.79v25.733q0 2.783 1.172 4.052 1.22 1.22 3.955 1.22h1.662V220h-20.07v-1.71h1.564q2.685 0 3.808-1.024 1.123-1.075 1.123-3.662v-26.32h-4.93v-1.708q3.417-1.367 4.93-2.392V176.2q0-8.25 4.053-13.622 4.102-5.37 11.133-5.37 6.2 0 10.01 2.88l-3.418 8.935h-1.71q.05-.78.05-1.513 0-3.906-1.807-6.055-1.758-2.148-4.932-2.148-3.076 0-4.834 2.197-1.758 2.197-1.758 6.103v17.09h8.79zM530.88 202.422q0 8.008-5.567 13.38-5.518 5.32-13.82 5.32-8.3 0-13.866-5.32-5.518-5.372-5.518-13.38 0-8.106 5.517-13.428 5.518-5.37 13.867-5.37 8.35 0 13.867 5.37 5.52 5.322 5.52 13.428zm-7.374 0q0-7.568-3.223-12.207-3.222-4.64-8.79-4.64-5.565 0-8.788 4.542-3.223 4.54-3.223 12.305 0 7.617 3.174 12.158 3.223 4.54 8.838 4.54 5.615 0 8.79-4.59 3.222-4.59 3.222-12.108zM545.848 220h-14.405v-1.71q3.858 0 5.664-1.073 1.807-1.123 4.834-4.737l7.667-9.082-8.398-10.986q-2.638-3.467-4.493-4.59-1.807-1.172-5.274-1.416v-1.71h19.483v1.71q-3.125.244-3.125 2.05 0 1.222 1.417 3.224l4.736 6.64 4.785-5.908q1.856-2.246 1.856-3.906 0-2.1-2.783-2.1v-1.71h14.014v1.71q-3.27.342-5.224 1.612-1.905 1.22-5.176 5.078l-5.908 6.982 10.693 14.014q3.27 4.2 7.91 4.2V220h-18.604v-1.71q2.685-.39 2.685-1.952 0-.977-1.073-2.442l-6.2-8.496-6.3 7.91q-1.318 1.612-1.318 2.93 0 1.905 2.538 2.05zM229.697 293.623h1.66v41.992q0 18.262-18.457 18.262h-1.025v-1.66h.293q6.64 0 9.52-3.662 2.882-3.662 2.882-11.963v-35.694q0-2.783-1.367-3.613-1.318-.88-5.322-.88v-1.708zm-2.197-18.31q1.807 0 3.027 1.27 1.27 1.22 1.27 3.026 0 1.806-1.27 3.124-1.27 1.27-3.027 1.27-1.807 0-3.125-1.27-1.318-1.318-1.318-3.125t1.27-3.028q1.318-1.27 3.173-1.27zM272.547 293.623h1.66v29.688q0 2.93 1.22 3.956 1.27 1.025 4.884 1.025V330l-12.89.684v-6.495h-.195q-5.323 6.933-12.403 6.933-5.078 0-8.35-3.37-3.222-3.417-3.222-8.544v-18.116q0-2.735-1.367-3.71-1.367-.978-4.932-.978v-1.71l11.378-1.073h1.71v25.293q0 3.71 2.148 5.86 2.197 2.148 5.86 2.148 5.077 0 9.374-5.81V302.02q0-3.66-1.123-4.588-1.123-.928-5.762-1.026v-1.71zM293.326 293.623v7.373h.195q2.2-3.37 5.617-5.37 3.467-2.003 6.982-2.003 3.857 0 6.835 2.148 3.027 2.1 4.297 5.812 5.664-7.96 13.086-7.96 5.176 0 8.594 3.224 3.418 3.174 3.418 8.74v17.822q0 2.88 1.27 3.906 1.27.977 4.687.977V330h-18.8v-1.71q3.858 0 4.932-1.22 1.074-1.27 1.074-5.566v-16.797q0-3.418-2.05-5.37-2.052-1.954-5.616-1.954-5.567 0-10.01 6.836v18.993q0 2.978 1.27 4.053 1.27 1.025 4.638 1.025V330h-18.603v-1.71q4.003 0 4.93-1.27.978-1.268.978-5.516v-16.406q0-3.516-2.1-5.616-2.098-2.1-5.42-2.1-2.88 0-5.663 1.856-2.734 1.856-4.54 4.98v19.288q0 2.734 1.318 3.808 1.318 1.075 4.687 1.075V330h-18.8v-1.71q3.907 0 4.933-1.22 1.074-1.22 1.074-4.492v-20.996q0-2.734-1.173-3.955-1.123-1.22-3.76-1.22h-2.197v-1.71l12.207-1.074zM361.42 293.623v5.957q3.37-3.27 6.103-4.59 2.784-1.367 6.202-1.367 6.884 0 11.425 5.273 4.54 5.225 4.54 13.184 0 8.203-5.028 13.623-4.98 5.42-12.55 5.42-5.223 0-10.692-4.2v23.292q0 3.613 1.22 4.736 1.27 1.173 4.688 1.173v1.66h-18.945v-1.66q3.662 0 4.93-1.025 1.27-1.026 1.27-3.907v-49.266q0-3.565-1.073-4.54-1.074-.978-5.127-.978v-1.71l11.328-1.073zm0 8.594v22.168q4.15 4.394 9.766 4.394 4.736 0 7.91-4.444 3.222-4.443 3.222-11.035 0-7.128-3.222-11.767-3.174-4.638-8.106-4.638-4.98 0-9.57 5.322zM416.623 293.623v10.89h-2.002q-.487-4.103-2.93-6.495-2.44-2.442-5.907-2.442-2.637 0-4.248 1.32-1.61 1.317-1.61 3.514 0 2.15 1.464 3.81 1.512 1.61 6.493 3.905 6.445 2.93 8.496 5.615 2.1 2.686 2.1 6.446 0 4.443-3.322 7.714-3.32 3.223-7.86 3.223-2.345 0-6.202-1.71-2.1-.927-2.784-.927-.927 0-1.562.684t-.732 1.71h-1.71v-12.062h1.71q.927 4.737 4.1 7.52 3.175 2.783 7.277 2.783 2.636 0 4.394-1.757 1.806-1.758 1.806-4.345 0-2.49-1.66-4.297-1.612-1.855-7.08-4.247-6.153-2.686-8.106-5.03-1.953-2.343-1.953-5.664 0-4.15 3.174-7.13 3.223-3.027 7.618-3.027 2.05 0 4.443.977 1.71.683 2.784.683 1.416 0 2.1-1.66zM480.398 312.422q0 8.008-5.566 13.38-5.518 5.32-13.818 5.32t-13.868-5.32q-5.517-5.372-5.517-13.38 0-8.106 5.516-13.428 5.518-5.37 13.868-5.37 8.35 0 13.867 5.37 5.518 5.322 5.518 13.428zm-7.373 0q0-7.568-3.222-12.207-3.223-4.64-8.79-4.64-5.566 0-8.788 4.542-3.223 4.54-3.223 12.305 0 7.617 3.174 12.158 3.222 4.54 8.838 4.54 5.615 0 8.79-4.59 3.22-4.59 3.22-12.108zM496.88 294.697v1.71q-3.466.292-3.466 2.93 0 1.268.78 3.173l7.863 18.896 6.933-17.92q1.074-2.685 1.074-4.052 0-2.686-4.59-3.028v-1.71h12.99v1.71q-3.175.293-4.444 1.27-1.22.976-2.344 3.808L500.3 330.78h-1.71L487.262 303q-1.71-4.15-2.98-5.273-1.22-1.172-4.49-1.32v-1.708zM552.426 320.918v2.588q-3.223 4.1-6.592 5.86-3.32 1.757-8.008 1.757-8.3 0-13.72-5.176-5.372-5.224-5.372-13.232 0-8.057 5.127-13.574 5.177-5.517 12.648-5.517 6.152 0 10.742 4.15 4.59 4.15 4.59 9.913v.732h-26.026v.488q0 5.86 1.758 10.205 1.807 4.298 5.225 6.74 3.418 2.44 7.13 2.44 3.466 0 5.907-1.415 2.49-1.465 6.592-5.957zm-26.612-14.21h19.288v-.683q0-4.736-2.735-7.52-2.685-2.782-6.738-2.782-4.298 0-6.935 2.93-2.588 2.93-2.88 8.056zM567.54 293.623v7.666q4.884-4.25 7.57-5.958 2.734-1.71 4.54-1.71 3.37 0 6.495 2.784l-2.686 6.3q-5.665-3.126-8.4-3.126-3.027 0-7.52 4.297v19.434q0 2.93 1.222 3.956 1.22 1.025 4.687 1.025V330h-18.702v-1.71q3.71 0 4.834-1.17 1.172-1.173 1.172-5.616v-19.287q0-3.662-1.27-4.737-1.22-1.074-6.054-1.074v-1.71l12.402-1.073zM205.695 392.588h1.71v11.914h12.304v2.588h-12.306v22.803q0 3.564 1.66 5.517 1.66 1.904 4.737 1.904 3.614 0 6.593-3.418l1.123 1.32q-4.64 5.907-10.694 5.907-4.54 0-7.373-2.88-2.833-2.882-2.833-7.423v-23.73h-6.69v-1.71q7.325-3.66 11.768-12.792z"/><path d="M249.326 432.578v-17.48q0-3.516-1.953-5.616-1.953-2.1-5.176-2.1-2.978 0-5.37 1.563-2.345 1.514-4.932 5.176v19.386q0 2.734 1.27 3.76 1.27 1.025 4.638 1.025V440H218.81v-1.71q4.05-.097 5.174-1.317 1.123-1.22 1.123-5.47V385.41q0-3.223-1.17-4.248-1.125-1.074-5.128-1.074v-1.71l11.424-1.17h1.66v33.495q3.418-3.906 6.153-5.47 2.783-1.61 6.25-1.61 5.176 0 8.496 3.32 3.32 3.32 3.32 8.936v15.624q0 4.15 1.123 5.47 1.123 1.317 4.59 1.317V440h-18.408v-1.71q3.613 0 4.736-1.122 1.172-1.123 1.172-4.59zM296.668 430.918v2.588q-3.223 4.1-6.592 5.86-3.32 1.757-8.008 1.757-8.3 0-13.72-5.176-5.37-5.224-5.37-13.232 0-8.057 5.126-13.574 5.175-5.517 12.646-5.517 6.152 0 10.742 4.15 4.59 4.15 4.59 9.913v.732h-26.025v.488q0 5.86 1.757 10.205 1.807 4.298 5.225 6.74 3.417 2.44 7.128 2.44 3.467 0 5.908-1.415 2.49-1.465 6.592-5.957zm-26.61-14.21h19.286v-.683q0-4.736-2.735-7.52-2.686-2.782-6.74-2.782-4.296 0-6.932 2.93-2.588 2.93-2.88 8.056zM337.543 438.29h.928V440h-19.726v-1.71h1.807q2.735 0 3.712-1.415.976-1.416.976-5.273v-46.68q0-2.735-1.074-3.76-1.074-1.074-3.71-1.074h-2.296v-1.71l12.207-1.17h1.66v56.103q0 2.88 1.172 3.956 1.172 1.025 4.346 1.025zM350.56 441.123q-4.152 0-7.13-2.734-2.98-2.785-2.98-6.69 0-3.712 2.54-6.104 2.588-2.442 10.45-4.64 4.93-1.366 6.64-2.343v-2.636q0-3.858-2.148-6.202-2.15-2.392-5.762-2.392-3.272 0-5.81 2.05-2.54 2.05-3.565 5.567l-1.807-.488q1.074-4.932 4.64-7.91 3.612-2.98 8.446-2.98 5.713 0 9.23 3.468 3.563 3.418 3.563 9.52v15.187q0 3.223.39 4.394.44 1.124 1.612 1.124.78 0 1.27-.634.487-.684 1.122-2.784h1.71q-.245 3.32-2.1 5.274-1.808 1.953-4.786 1.953-4.346 0-6.006-5.03-2.637 2.882-4.687 3.956-2.05 1.073-4.834 1.073zm9.52-8.3V420.81q-1.514.635-4.394 1.612-5.323 1.807-6.836 3.613-1.465 1.758-1.465 4.785 0 2.637 1.562 4.59 1.612 1.904 3.81 1.904 2 0 4.198-1.27 2.197-1.317 3.125-3.222zM374.902 404.697h29.688v1.71l-22.51 31.884h11.035q5.567 0 8.057-2.147 2.49-2.15 2.637-6.934h1.708L404.59 440h-30.615v-1.71l22.51-31.884h-9.913q-4.54 0-7.47 2.344-2.93 2.295-3.418 6.25h-1.71zM423.123 404.697v1.71q-3.027.44-3.027 3.075 0 1.026.537 2.295l8.496 20.02 6.2-18.7q.732-2.296.732-3.663 0-2.832-3.564-3.028v-1.71h12.5v1.71q-2.832 0-4.687 1.953-1.855 1.904-3.37 6.347l-14.11 41.7q-2.05 5.956-5.225 9.423-3.173 3.467-6.494 3.467-1.952 0-4.393-1.514l2.295-6.103q1.855.83 3.418.83 3.174 0 5.224-2.002 2.1-2.002 3.76-6.69l4.59-12.84-12.695-29.298q-1.417-3.174-2.833-4.2-1.368-1.025-4.346-1.074v-1.71zM499.398 377.207h1.66v55.908q0 2.93 1.27 4.053 1.27 1.123 4.64 1.123V440H486.36q-9.52 0-15.087-5.225-5.517-5.224-5.517-13.183 0-7.47 4.834-12.696 4.883-5.273 11.767-5.273 5.518 0 11.914 4.297v-21.73q0-3.563-.926-4.833-.928-1.27-3.76-1.27h-2.002v-1.708zm-5.127 55.81V411.68q-2.05-2.784-4.832-4.346-2.735-1.61-5.47-1.61-4.833 0-7.812 4.003-2.978 3.955-2.978 10.35 0 8.253 4.052 13.282 4.102 5.03 11.426 5.03 2.98 0 4.297-1.27 1.318-1.27 1.318-4.102zM547.96 422.422q0 8.008-5.565 13.38-5.518 5.32-13.82 5.32-8.3 0-13.866-5.32-5.52-5.372-5.52-13.38 0-8.106 5.52-13.428 5.517-5.37 13.866-5.37 8.35 0 13.867 5.37 5.518 5.322 5.518 13.428zm-7.372 0q0-7.568-3.223-12.207-3.222-4.64-8.79-4.64-5.565 0-8.788 4.542-3.223 4.54-3.223 12.305 0 7.617 3.174 12.158 3.223 4.54 8.838 4.54 5.615 0 8.79-4.59 3.222-4.59 3.222-12.108zM577.676 404.014h11.377v4.004h-9.375q4.004 4.834 4.004 10.302 0 5.37-3.907 9.522-3.857 4.15-9.277 4.443-3.857.195-7.715 2.49-3.808 2.295-3.808 4.102 0 1.953 2.002 2.93 2.05.976 9.52 2.295 8.302 1.513 11.524 2.734 3.273 1.22 5.08 3.467 1.855 2.295 1.855 5.176 0 6.25-6.348 10.545-6.298 4.297-15.43 4.297-7.763 0-12.597-3.027-4.785-2.98-4.785-7.813 0-3.37 2.734-6.005 2.782-2.588 8.74-5.08v-.194q-3.614-.83-5.665-2.588-2.05-1.71-2.05-3.906 0-5.86 10.937-9.718v-.195q-5.322-1.416-8.252-4.883-2.88-3.516-2.88-8.496 0-6.397 4.247-10.596 4.297-4.2 10.79-4.2 1.27 0 4.69.196 3.417.196 4.59.196zm-17.92 13.672q0 5.76 2.392 9.277 2.393 3.516 6.348 3.516 4.053 0 6.397-3.42 2.392-3.466 2.392-9.374 0-5.372-2.44-8.74-2.394-3.37-6.25-3.37-3.956 0-6.398 3.37-2.44 3.32-2.44 8.74zm25.537 40.918q0-3.467-4.346-5.42-4.345-1.905-16.455-4.004-10.303 2.783-10.303 8.398 0 3.81 5.078 6.348 5.078 2.588 12.695 2.588 5.908 0 9.62-2.198 3.71-2.197 3.71-5.712z"/><path d="M592.986 433.018q1.953 0 3.32 1.367 1.368 1.367 1.368 3.32 0 1.953-1.416 3.37-1.367 1.415-3.272 1.415-1.953 0-3.37-1.416-1.415-1.416-1.415-3.37 0-1.903 1.417-3.27 1.416-1.416 3.37-1.416z"/></g></svg>