<svg xmlns="http://www.w3.org/2000/svg" viewBox="0 0 800 500"><path fill="#fff" d="M0 0h800v500H0z"/><g font-weight="400" font-size="100" font-family="Rockwell" text-anchor="middle" fill="#111"><path d="M195.85 101.504V50.576h-14.014V67.91h-8.4V42.08h55.03v25.83h-8.398V50.576h-13.964v50.928h8.837V110H187.16v-8.496zM241.846 101.748V50.332H233.3V42.08h17.823v26.074q8.35-6.738 15.87-6.738 4.687 0 7.714 1.953 3.027 1.952 4.102 5.175 1.122 3.174 1.122 9.326v23.878h8.056V110h-17.334V81.094q0-5.37-.342-7.178-.34-1.807-1.904-2.978-1.513-1.172-3.613-1.172-5.37 0-13.672 6.103v25.878h8.203V110H233.3v-8.252zM342.285 88.71H302.54q.878 6.544 5.175 10.597 4.297 4.052 10.986 4.052 9.718 0 15.382-7.813l8.203 3.613q-4.004 6.2-10.4 9.23-6.397 2.977-13.38 2.977-10.84 0-18.554-6.738-7.665-6.788-7.665-18.263 0-10.888 7.47-17.92 7.52-7.03 17.237-7.03 9.522 0 17.237 6.884 7.762 6.837 8.055 20.41zm-9.57-6.737q-.977-4.98-5.176-8.985-4.2-4.052-10.304-4.052-5.566 0-9.52 3.662-3.956 3.613-4.835 9.375zM423.78 122.94h8.642v8.25h-27.1v-8.25h9.18v-18.897q-7.03 7.324-16.748 7.324-8.838 0-15.967-6.592-7.08-6.59-7.08-18.26 0-11.036 6.592-17.775 6.59-6.738 16.405-6.738 9.863 0 16.797 8.154v-7.422h17.236v8.252h-7.96zm-9.132-35.89q0-7.616-4.687-12.206-4.638-4.64-10.79-4.64-5.957 0-10.4 4.347-4.395 4.346-4.395 11.866 0 6.885 3.955 11.72 4.004 4.784 11.23 4.784 7.276 0 11.182-4.883 3.906-4.883 3.906-10.986zM487.94 101.748V110h-17.432v-5.42q-8.154 6.2-15.625 6.2-4.737 0-7.862-2.05-3.075-2.1-4.1-5.37-1.025-3.32-1.025-10.645v-21.73h-6.69v-8.25h15.967v28.808q0 5.225.293 7.03.293 1.808 1.71 2.98 1.415 1.172 3.563 1.172 6.446 0 13.77-6.153V70.986h-8.35v-8.252h17.627v39.014zM498.145 46.67q0-2.246 1.562-3.906 1.61-1.66 4.053-1.66 2.295 0 3.955 1.61 1.66 1.612 1.66 3.956t-1.66 4.004q-1.66 1.61-3.955 1.61-2.344 0-4.004-1.66-1.61-1.66-1.61-3.954zm1.318 55.078V70.986h-7.373v-8.252h16.65v39.014h7.276V110H492.09v-8.252zM566.504 62.734v17.87h-8.3q-.636-5.125-4.2-7.86-3.516-2.734-8.203-2.734-6.25 0-10.155 4.443-3.907 4.395-3.907 11.572 0 6.69 3.71 11.817 3.712 5.078 10.743 5.078 9.767 0 14.162-9.277l7.666 3.613q-6.348 14.11-22.217 14.11-11.23 0-17.675-7.665t-6.445-17.675q0-10.693 7.03-17.627 7.032-6.982 16.212-6.982 7.86 0 13.28 4.64v-3.322zM581.25 101.748V50.332h-8.496V42.08h17.773v42.432L608.203 70.4h-7.86v-7.666h26.122V70.4h-7.227l-17.724 14.746 16.65 16.602h8.3V110h-12.157l-23.78-23.78v15.528h8.155V110h-25.928v-8.252zM175 220v-8.252h8.398v-51.416H175v-8.252h17.48v27.344q6.983-8.008 17.14-8.008 9.765 0 16.357 6.738 6.64 6.69 6.64 17.676 0 10.547-6.494 17.774-6.445 7.177-16.553 7.177-5.664 0-10.35-2.44-4.69-2.442-6.74-5.42V220zm17.773-23.535q0 7.373 4.493 11.72 4.54 4.295 10.45 4.295 6.2 0 10.692-4.59t4.492-12.304q0-7.47-4.492-11.572-4.443-4.15-10.45-4.15-5.907 0-10.546 4.296-4.64 4.248-4.64 12.305zM248.73 211.748v-30.762h-9.52v-8.252h16.942v10.645q1.563-4.15 4.346-6.886 2.783-2.734 5.86-3.613 3.124-.878 8.496-.878h2.44v9.375h-1.855q-7.08 0-10.596 1.416-3.467 1.416-5.176 5.176-1.66 3.71-1.66 13.378v10.4h10.303V220h-29.1v-8.252zM278.71 196.367q0-10.937 7.228-17.92 7.226-7.03 17.626-7.03 10.206 0 17.53 6.933 7.324 6.884 7.324 18.017t-7.324 18.067q-7.276 6.933-17.53 6.933-10.546 0-17.724-7.03-7.13-7.032-7.13-17.97zm9.815 0q0 6.983 4.346 11.475 4.396 4.443 10.694 4.443 6.397 0 10.694-4.492 4.346-4.54 4.346-11.426 0-6.933-4.395-11.426-4.396-4.49-10.646-4.49-6.543 0-10.79 4.59-4.25 4.59-4.25 11.327zM346.19 220.78l-12.645-39.794h-5.762v-8.252h19.922v8.252h-6.2l9.032 28.516 9.033-28.516h-5.175v-8.252h22.85v8.252h-5.175l9.034 28.516 9.082-28.516h-6.495v-8.252h21.34v8.252h-6.788l-12.695 39.795h-8.74l-10.84-34.178-11.035 34.18zM425.44 172.734v5.713q8.935-6.445 16.308-6.445 4.59 0 7.568 2.197 3.028 2.148 3.955 5.32.93 3.126.93 9.18v23.048h7.958V220h-17.236v-30.908q0-5.37-1.61-6.983-1.613-1.66-3.957-1.66-6.152 0-13.916 6.005v25.293h8.154V220H407.86v-8.252h8.302v-30.762h-8.3v-8.252zM497.217 211.748v-30.762h-6.885v-8.203h6.885v-6.836q0-8.642 3.662-11.914 3.66-3.32 8.64-3.32 10.744 0 12.453 10.89l-8.252 1.268q-.488-4.54-3.564-4.54-2.1 0-2.88 1.465-.782 1.416-.782 6.152v6.836h8.106v8.203h-8.106v30.762h8.985V220H490.33v-8.252zM522.656 196.367q0-10.937 7.227-17.92 7.226-7.03 17.627-7.03 10.205 0 17.53 6.933 7.323 6.884 7.323 18.017t-7.324 18.067q-7.276 6.933-17.53 6.933-10.547 0-17.725-7.03-7.13-7.032-7.13-17.97zm9.815 0q0 6.983 4.346 11.475 4.395 4.443 10.694 4.443 6.396 0 10.693-4.492 4.346-4.54 4.346-11.426 0-6.933-4.396-11.426-4.394-4.49-10.644-4.49-6.543 0-10.79 4.59-4.25 4.59-4.25 11.327zM600.146 201.2l-9.18 10.548h6.055V220h-22.9v-8.252h6.984l14.208-16.064-13.574-14.698h-6.396v-8.252h22.217v8.252h-5.91l8.496 9.13 8.204-9.13h-4.834v-8.252h22.314v8.252h-7.764l-12.94 14.698 14.747 16.064h5.957V220h-22.314v-8.252h6.543zM154.785 266.67q0-2.295 1.66-3.906 1.66-1.66 3.955-1.66 2.344 0 3.955 1.61 1.66 1.612 1.66 3.956t-1.66 4.004q-1.66 1.61-3.955 1.61-2.392 0-4.004-1.66-1.61-1.708-1.61-3.954zm-11.72 83.642v-8.398q2.345.293 4.494.293 3.66 0 5.467-1.123 1.856-1.123 2.442-3.27.634-2.15.634-13.332v-33.496h-7.422v-8.252h16.7v40.235q0 12.157-.782 16.942t-4.64 7.813q-3.856 3.076-11.425 3.076-2.88 0-5.47-.487zM229.54 321.748V330h-17.43v-5.42q-8.155 6.2-15.626 6.2-4.736 0-7.86-2.05-3.077-2.1-4.103-5.37-1.024-3.32-1.024-10.645v-21.73h-6.69v-8.25h15.967v28.808q0 5.225.293 7.03.293 1.808 1.71 2.98 1.415 1.172 3.564 1.172 6.445 0 13.77-6.153v-25.586h-8.35v-8.252h17.627v39.014zM241.553 321.748v-30.762h-7.862v-8.252h17.14v5.957q8.4-6.688 16.455-6.688 8.106 0 11.182 7.373 9.228-7.373 17.187-7.373 4.59 0 7.52 2.05 2.978 2.003 4.004 5.128 1.025 3.076 1.025 9.13v23.438h8.252V330h-17.53v-30.03q0-4.1-.39-5.76-.342-1.71-1.855-2.784-1.465-1.123-3.565-1.123-5.957 0-13.525 6.103v25.342h8.105V330h-17.382v-30.908q0-4.64-1.368-6.69-1.318-2.1-4.54-2.1-5.274 0-13.575 6.104v25.342h8.3V330h-26.025v-8.252zM326.318 342.94v-51.954h-7.96v-8.252h17.238v7.422q6.933-8.154 16.797-8.154 9.96 0 16.455 6.836 6.543 6.836 6.543 17.773 0 11.476-7.08 18.117-7.08 6.64-16.113 6.64-9.375 0-16.6-7.226v18.8h9.178v8.25h-27.1v-8.25zm9.13-35.89q0 3.907 1.613 7.47 1.612 3.566 5.127 6.007 3.516 2.393 8.252 2.393 6.64 0 10.937-4.443 4.346-4.444 4.346-12.207 0-7.57-4.54-11.817-4.494-4.248-10.255-4.248-6.153 0-10.84 4.64-4.64 4.59-4.64 12.206zM383.594 330v-16.21h8.3v1.562q.44 3.32 3.565 5.468 3.173 2.15 7.47 2.15 4.492 0 7.177-1.564 2.686-1.562 2.686-4.345 0-2.685-2.246-3.955-2.197-1.27-8.79-2.343-9.765-1.66-13.964-5.323-4.15-3.71-4.15-9.57 0-5.91 4.54-9.864 4.542-4.004 11.963-4.004 6.69 0 11.524 2.734v-2.002h8.252v15.674h-8.252v-2.88q-3.76-5.81-10.938-5.81-3.662 0-6.054 1.61-2.344 1.563-2.344 4.2 0 2.685 2.148 3.71 2.198.977 9.375 2.1 6.885 1.074 10.4 2.54 3.516 1.415 5.81 4.784 2.345 3.32 2.345 7.764 0 6.592-5.078 10.498-5.03 3.857-13.086 3.857-7.568 0-12.353-3.417V330zM454.2 306.367q0-10.937 7.226-17.92 7.226-7.03 17.627-7.03 10.205 0 17.53 6.933 7.323 6.884 7.323 18.017t-7.324 18.067q-7.275 6.933-17.53 6.933-10.546 0-17.724-7.03-7.13-7.032-7.13-17.97zm9.814 0q0 6.983 4.345 11.475 4.394 4.443 10.693 4.443 6.396 0 10.693-4.492 4.346-4.54 4.346-11.426 0-6.933-4.395-11.426-4.394-4.49-10.644-4.49-6.543 0-10.79 4.59-4.25 4.59-4.25 11.327zM527.49 330.78l-15.43-39.794h-8.35v-8.252h23.78v8.252h-6.152l10.156 26.807 10.205-26.807h-6.544v-8.252h23.096v8.252h-7.275L535.89 330.78zM609.375 308.71H569.63q.878 6.544 5.175 10.597 4.297 4.052 10.986 4.052 9.718 0 15.382-7.813l8.203 3.613q-4.004 6.2-10.4 9.23-6.397 2.977-13.38 2.977-10.84 0-18.554-6.738-7.665-6.788-7.665-18.263 0-10.888 7.47-17.92 7.52-7.03 17.237-7.03 9.522 0 17.236 6.884 7.764 6.837 8.057 20.41zm-9.57-6.737q-.977-4.98-5.176-8.985-4.2-4.052-10.304-4.052-5.566 0-9.52 3.662-3.956 3.613-4.835 9.375zM625 321.748v-30.762h-9.52v-8.252h16.942v10.645q1.562-4.15 4.346-6.886 2.783-2.734 5.86-3.613 3.124-.878 8.495-.878h2.44v9.375h-1.854q-7.08 0-10.597 1.416-3.467 1.416-5.175 5.176-1.66 3.71-1.66 13.378v10.4h10.302V330h-29.1v-8.252zM109.766 400.986v-8.252h6.152v-7.275l9.277-8.497v15.77h8.74v8.253h-8.74v22.95q0 5.517.586 6.835.636 1.27 3.077 1.27 2.588 0 5.08-.976v8.448q-3.566 1.27-7.13 1.27-4.248 0-6.885-1.856-2.637-1.905-3.32-4.737-.684-2.833-.684-9.766v-23.438zM147.607 431.748v-51.416h-8.545v-8.252h17.823v26.074q8.35-6.738 15.87-6.738 4.686 0 7.714 1.953 3.026 1.952 4.1 5.175 1.123 3.174 1.123 9.326v23.878h8.057V440h-17.334v-28.906q0-5.37-.342-7.178-.342-1.807-1.904-2.978-1.514-1.172-3.613-1.172-5.37 0-13.672 6.103v25.878h8.203V440h-26.025v-8.252zM248.047 418.71H208.3q.88 6.544 5.177 10.597 4.296 4.052 10.986 4.052 9.717 0 15.38-7.813l8.204 3.613q-4.004 6.2-10.4 9.23-6.397 2.977-13.38 2.977-10.84 0-18.554-6.738-7.666-6.788-7.666-18.263 0-10.888 7.47-17.92 7.52-7.03 17.237-7.03 9.52 0 17.236 6.884 7.764 6.837 8.057 20.41zm-9.57-6.737q-.977-4.98-5.176-8.985-4.198-4.052-10.302-4.052-5.566 0-9.52 3.662-3.957 3.613-4.835 9.375zM287.256 431.748v-51.416h-8.4v-8.252h17.677v59.668h7.227V440h-24.903v-8.252zM357.96 431.748V440h-16.212v-5.762q-6.738 6.543-15.04 6.543-6.444 0-11.23-4.198-4.736-4.2-4.736-10.742 0-6.592 5.03-10.938 5.078-4.345 12.207-4.345 6.64 0 12.84 4.004v-4.687q0-3.613-.683-5.566-.684-1.953-3.223-3.516-2.49-1.56-6.543-1.56-6.98 0-10.106 5.565l-8.887-2.344q5.908-11.034 20.41-11.034 5.322 0 9.18 1.465 3.906 1.417 5.81 3.712 1.905 2.246 2.54 4.883.683 2.636.683 8.398v21.875zm-17.14-9.326q-6.006-4.688-12.158-4.688-3.857 0-6.445 2.246-2.588 2.247-2.588 5.81 0 3.32 2.245 5.567 2.295 2.247 6.2 2.247 6.74 0 12.745-5.665zM360.89 440v-7.715l29.637-31.885h-19.433v9.082h-7.91v-16.748h38.378v8.252l-29.736 31.3h21.63v-9.67h8.106V440zM428.418 439.17l-15.527-38.184h-7.86v-8.252h23.388v8.252h-5.664l10.205 26.172 10.01-26.172h-6.25v-8.252h22.9v8.252h-7.032l-23.39 60.205h-15.673v-8.104h9.23zM547.705 431.748V440h-17.773v-6.934q-6.934 7.715-16.895 7.715-9.228 0-16.21-6.298-6.983-6.298-6.983-17.92 0-11.67 7.177-18.408 7.18-6.738 16.212-6.738 9.57 0 16.7 7.617v-18.7h-9.082v-8.253h18.36v59.668zm-47.95-15.43q0 7.813 4.395 12.012 4.444 4.2 10.596 4.2 5.957 0 10.547-4.395 4.64-4.444 4.64-12.256 0-7.862-4.738-11.866-4.687-4.004-10.547-4.004-6.298 0-10.595 4.736-4.297 4.688-4.297 11.572zM551.758 416.367q0-10.937 7.226-17.92 7.227-7.03 17.627-7.03 10.206 0 17.53 6.933 7.325 6.884 7.325 18.017t-7.324 18.067q-7.275 6.933-17.53 6.933-10.546 0-17.723-7.03-7.13-7.032-7.13-17.97zm9.814 0q0 6.983 4.346 11.475 4.394 4.443 10.693 4.443 6.398 0 10.695-4.492 4.345-4.54 4.345-11.426 0-6.933-4.394-11.426-4.395-4.49-10.645-4.49-6.542 0-10.79 4.59-4.248 4.59-4.248 11.327zM666.748 392.734v8.252h-8.496v35.205q0 7.13-.732 10.548-.733 3.467-3.565 7.032-2.783 3.613-8.398 6.054-5.616 2.442-12.55 2.442-10.448 0-18.652-6.3l6.055-6.737q6.153 4.784 13.38 4.784 4.003 0 7.42-1.563 3.42-1.512 5.08-3.71 1.708-2.197 2.196-4.2.49-1.952.49-6.64v-4.296q-2.2 2.783-6.886 5.273-4.688 2.49-10.254 2.49-10.156 0-16.553-7.03-6.396-7.032-6.396-17.286 0-11.23 7.03-18.114 7.08-6.934 16.358-6.934 9.375 0 16.7 7.47v-6.738zm-47.998 24.12q0 7.18 4.15 11.72 4.2 4.54 10.694 4.54 6.347 0 10.937-4.54 4.59-4.59 4.59-11.767 0-7.276-4.59-11.67-4.59-4.444-10.643-4.444-6.055 0-10.596 4.395-4.54 4.346-4.54 11.767zM672.56 440v-12.012h12.01V440z"/></g></svg>