<svg xmlns="http://www.w3.org/2000/svg" viewBox="0 0 1600 1000" height="1000" width="1600"><path fill="#fff" d="M0 0h1600v1000H0z"/><g font-weight="400" font-size="200" font-family="Rockwell" letter-spacing="-.03em" text-anchor="middle" fill="#222"><path d="M418.7 203.008V101.152H390.67v34.668h-16.797V84.16h110.06v51.66h-16.798v-34.668h-27.93v101.856h17.676V220h-55.567v-16.992zM504.69 203.496V100.664h-17.088V84.16h35.644v52.15q16.7-13.478 31.738-13.478 9.375 0 15.43 3.906 6.055 3.907 8.203 10.352 2.246 6.348 2.246 18.652v47.754h16.114V220H562.31v-57.813q0-10.742-.685-14.355-.684-3.613-3.81-5.957-3.026-2.344-7.225-2.344-10.742 0-27.344 12.208v51.758h16.406V220h-52.05v-16.504zM699.57 177.422h-79.492q1.758 13.086 10.352 21.19 8.593 8.107 21.972 8.107 19.434 0 30.762-15.626l16.406 7.226q-8.008 12.403-20.8 18.457-12.793 5.957-26.758 5.957-21.68 0-37.11-13.476-15.332-13.574-15.332-36.524 0-21.777 14.942-35.84 15.04-14.062 34.472-14.062 19.043 0 34.473 13.77 15.527 13.67 16.113 40.82zm-19.14-13.477q-1.953-9.96-10.352-17.968-8.398-8.106-20.605-8.106-11.133 0-19.043 7.325-7.91 7.227-9.668 18.75zM850.56 245.88h17.284v16.503h-54.2V245.88h18.36v-37.794q-14.063 14.648-33.496 14.648-17.676 0-31.934-13.183-14.16-13.183-14.16-36.523 0-22.07 13.184-35.547 13.183-13.476 32.812-13.476 19.727 0 33.594 16.31v-14.845h34.473v16.503H850.56zM832.296 174.1q0-15.235-9.375-24.414-9.277-9.278-21.582-9.278-11.914 0-20.8 8.692-8.79 8.69-8.79 23.73 0 13.77 7.91 23.438 8.008 9.57 22.46 9.57 14.552 0 22.364-9.766 7.813-9.765 7.813-21.972zM972.88 203.496V220h-34.864v-10.84q-16.31 12.402-31.25 12.402-9.473 0-15.723-4.1-6.152-4.2-8.203-10.743-2.05-6.642-2.05-21.29v-43.457h-13.38V125.47h31.934v57.616q0 10.45.586 14.062.586 3.614 3.418 5.957 2.832 2.344 7.13 2.344 12.89 0 27.538-12.305v-51.172h-16.7V125.47h35.254v78.026zM987.29 93.34q0-4.492 3.124-7.813 3.223-3.32 8.106-3.32 4.59 0 7.91 3.223 3.32 3.222 3.32 7.91 0 4.687-3.32 8.008-3.32 3.222-7.91 3.222-4.688 0-8.008-3.32-3.223-3.32-3.223-7.91zm2.636 110.156v-61.523H975.18V125.47h33.3v78.026h14.55V220h-47.85v-16.504zM1118.008 125.47v35.74h-16.602q-1.27-10.253-8.398-15.722-7.03-5.468-16.406-5.468-12.5 0-20.313 8.886-7.813 8.79-7.813 23.145 0 13.38 7.42 23.634 7.423 10.156 21.486 10.156 19.53 0 28.32-18.555l15.332 7.227q-12.695 28.222-44.433 28.222-22.46 0-35.352-15.332-12.89-15.332-12.89-35.35 0-21.388 14.062-35.255 14.062-13.965 32.422-13.965 15.722 0 26.562 9.277v-6.64zM1141.5 203.496V100.664h-16.992V84.16h35.547v84.863l35.35-28.222h-15.72v-15.33h52.245v15.33h-14.453l-35.45 29.493 33.3 33.203h16.603V220h-24.317l-47.558-47.56v31.056h16.308V220h-51.855v-16.504zM377 440v-16.504h16.797V320.664H377V304.16h34.96v54.688q13.966-16.016 34.278-16.016 19.532 0 32.715 13.477 13.28 13.378 13.28 35.35 0 21.094-12.987 35.547-12.89 14.356-33.105 14.356-11.327 0-20.702-4.883-9.375-4.883-13.477-10.84V440zm35.547-47.07q0 14.746 8.984 23.437 9.083 8.594 20.9 8.594 12.402 0 21.386-9.18 8.985-9.178 8.985-24.608 0-14.942-8.984-23.145-8.886-8.3-20.898-8.3-11.816 0-21.094 8.593-9.277 8.496-9.277 24.61zM518.46 423.496v-61.523H499.42V345.47h33.887v21.288q3.125-8.3 8.69-13.77 5.568-5.468 11.72-7.226 6.25-1.758 16.992-1.758h4.883v18.75h-3.71q-14.16 0-21.192 2.832-6.934 2.832-10.352 10.35-3.32 7.423-3.32 26.76v20.8h20.605V440H499.42v-16.504z"/><path d="M572.422 392.734q0-21.875 14.453-35.84 14.453-14.062 35.254-14.062 20.41 0 35.058 13.867 14.648 13.77 14.648 36.034 0 22.266-14.648 36.133-14.55 13.867-35.06 13.867-21.093 0-35.448-14.062-14.258-14.063-14.258-35.938zm19.63 0q0 13.965 8.69 22.95 8.79 8.886 21.387 8.886 12.792 0 21.386-8.984 8.69-9.082 8.69-22.852 0-13.867-8.788-22.85-8.79-8.986-21.29-8.986-13.085 0-21.58 9.18-8.497 9.18-8.497 22.656z"/><path d="M701.383 441.563l-25.293-79.59h-11.524V345.47h39.844v16.503h-12.402l18.066 57.03 18.067-57.03h-10.35V345.47h45.702v16.503h-10.35l18.065 57.03 18.164-57.03h-12.987V345.47h42.676v16.503h-13.576l-25.39 79.59h-17.48l-21.68-68.36-22.07 68.36z"/><path d="M853.88 345.47v11.425q17.87-12.89 32.616-12.89 9.18 0 15.137 4.393 6.054 4.297 7.91 10.645 1.855 6.25 1.855 18.36v46.093h15.918V440h-34.472v-61.816q0-10.743-3.223-13.965-3.222-3.322-7.91-3.322-12.304 0-27.83 12.012v50.586h16.308V440h-51.465v-16.504h16.6v-61.523h-16.6V345.47zM985.434 423.496v-61.523h-13.77v-16.407h13.77v-13.67q0-17.287 7.324-23.83 7.324-6.64 17.285-6.64 21.484 0 24.902 21.777l-16.504 2.54q-.975-9.083-7.128-9.083-4.2 0-5.76 2.93-1.564 2.832-1.564 12.305v13.67h16.21v16.408h-16.21v61.523h17.97V440h-50.294v-16.504zM1030.313 392.734q0-21.875 14.453-35.84 14.453-14.062 35.253-14.062 20.41 0 35.058 13.867 14.65 13.77 14.65 36.034 0 22.266-14.65 36.133-14.55 13.867-35.06 13.867-21.092 0-35.448-14.062-14.258-14.063-14.258-35.938zm19.628 0q0 13.965 8.693 22.95 8.79 8.886 21.386 8.886 12.792 0 21.386-8.984 8.692-9.082 8.692-22.852 0-13.867-8.79-22.85-8.79-8.986-21.29-8.986-13.084 0-21.58 9.18-8.497 9.18-8.497 22.656z"/><path d="M1179.293 402.402l-18.36 21.094h12.11V440h-45.8v-16.504h13.964l28.418-32.13-27.148-29.393h-12.793V345.47h44.433v16.503H1162.3l16.993 18.26 16.406-18.26h-9.67V345.47h44.63v16.503h-15.527l-25.88 29.394 29.493 32.13h11.914V440h-44.63v-16.504h13.087zM339.57 533.34q0-4.59 3.32-7.813 3.32-3.32 7.91-3.32 4.688 0 7.91 3.223 3.32 3.222 3.32 7.91 0 4.687-3.32 8.008-3.32 3.222-7.91 3.222-4.784 0-8.007-3.32-3.223-3.418-3.223-7.91zm-23.437 167.285v-16.797q4.687.586 8.984.586 7.324 0 10.938-2.246 3.71-2.246 4.882-6.543 1.27-4.297 1.27-26.66v-66.992h-14.844V565.47h33.4v80.468q0 24.316-1.564 33.886-1.563 9.57-9.278 15.625-7.715 6.152-22.852 6.152-5.76 0-10.937-.977zM483.082 643.496V660H448.22v-10.84q-16.31 12.403-31.25 12.403-9.474 0-15.724-4.102-6.152-4.198-8.203-10.74-2.05-6.642-2.05-21.29v-43.457h-13.38V565.47h31.934v57.616q0 10.45.586 14.062.586 3.614 3.418 5.957 2.833 2.344 7.13 2.344 12.89 0 27.54-12.305v-51.172h-16.7V565.47h35.253v78.026zM501.105 643.496v-61.523h-15.722V565.47h34.277v11.913q16.797-13.38 32.91-13.38 16.21 0 22.364 14.747 18.457-14.746 34.375-14.746 9.178 0 15.038 4.1 5.957 4.005 8.007 10.255 2.05 6.152 2.05 18.26v46.876h16.505V660h-35.058v-60.06q0-8.202-.782-11.522-.683-3.418-3.71-5.566-2.93-2.247-7.13-2.247-11.914 0-27.05 12.207v50.684h16.21V660h-34.765v-61.816q0-9.278-2.734-13.38-2.636-4.2-9.08-4.2-10.548 0-27.15 12.208v50.684h16.602V660h-52.05v-16.504z"/><path d="M664.637 685.88V581.972H648.72V565.47h34.47v14.842q13.87-16.308 33.595-16.308 19.922 0 32.91 13.672 13.086 13.672 13.086 35.547 0 22.95-14.16 36.23-14.16 13.28-32.225 13.28-18.75 0-33.204-14.452v37.6h18.36v16.503h-54.198V685.88zm18.26-71.778q0 7.812 3.224 14.94 3.224 7.13 10.255 12.013 7.03 4.785 16.504 4.785 13.28 0 21.874-8.887 8.69-8.887 8.69-24.414 0-15.138-9.08-23.634-8.985-8.496-20.51-8.496-12.303 0-21.678 9.278-9.278 9.18-9.278 24.414zM773.188 660v-32.422h16.6v3.125q.88 6.64 7.13 10.938 6.348 4.298 14.94 4.298 8.986 0 14.357-3.125 5.37-3.125 5.37-8.692 0-5.37-4.49-7.91-4.396-2.538-17.58-4.687-19.53-3.32-27.93-10.644-8.3-7.423-8.3-19.142 0-11.816 9.082-19.726 9.082-8.008 23.926-8.008 13.38 0 23.047 5.47v-4.005h16.504v31.346H829.34v-5.76q-7.52-11.622-21.875-11.622-7.324 0-12.11 3.222-4.687 3.125-4.687 8.4 0 5.37 4.297 7.42 4.394 1.954 18.75 4.2 13.77 2.148 20.8 5.078 7.032 2.832 11.622 9.57 4.687 6.64 4.687 15.528 0 13.183-10.156 20.996-10.06 7.715-26.172 7.715-15.137 0-24.707-6.836V660zM902.398 612.734q0-21.875 14.454-35.84 14.453-14.062 35.253-14.062 20.41 0 35.06 13.867 14.648 13.77 14.648 36.034 0 22.266-14.65 36.133-14.55 13.867-35.058 13.867-21.093 0-35.45-14.062Q902.4 634.61 902.4 612.734zm19.63 0q0 13.965 8.69 22.95 8.79 8.886 21.387 8.886 12.793 0 21.387-8.984 8.692-9.082 8.692-22.852 0-13.867-8.79-22.85-8.79-8.986-21.29-8.986-13.084 0-21.58 9.18-8.497 9.18-8.497 22.656z"/><path d="M1042.98 661.563l-30.86-79.59h-16.698V565.47h47.558v16.503h-12.304l20.312 53.613 20.41-53.613h-13.085V565.47h46.19v16.503h-14.55l-30.176 79.59zM1200.75 617.422h-79.492q1.758 13.086 10.35 21.19 8.595 8.107 21.974 8.107 19.434 0 30.762-15.626l16.406 7.226q-8.008 12.403-20.8 18.457-12.794 5.957-26.76 5.957-21.678 0-37.108-13.476-15.332-13.574-15.332-36.524 0-21.777 14.94-35.84 15.04-14.062 34.474-14.062 19.043 0 34.473 13.77 15.527 13.67 16.113 40.82zm-19.14-13.477q-1.954-9.96-10.352-17.968-8.4-8.106-20.606-8.106-11.132 0-19.043 7.325-7.91 7.227-9.67 18.75zM1226 643.496v-61.523h-19.043V565.47h33.887v21.288q3.125-8.3 8.69-13.77 5.568-5.468 11.72-7.226 6.25-1.758 16.992-1.758h4.883v18.75h-3.712q-14.16 0-21.19 2.832-6.935 2.832-10.353 10.352-3.32 7.42-3.32 26.757v20.8h20.605V660h-58.203v-16.504zM255.53 801.973V785.47h12.306v-14.552l18.555-16.992v31.543h17.48v16.503h-17.48v45.898q0 11.036 1.173 13.673 1.27 2.54 6.152 2.54 5.176 0 10.156-1.954v16.893q-7.128 2.54-14.257 2.54-8.496 0-13.77-3.71-5.273-3.81-6.64-9.474-1.367-5.665-1.367-19.532v-46.875zM325.215 863.496V760.664h-17.09V744.16h35.645v52.15q16.7-13.478 31.738-13.478 9.375 0 15.43 3.906 6.054 3.907 8.203 10.352 2.247 6.347 2.247 18.652v47.754H417.5V880h-34.668v-57.813q0-10.742-.684-14.355-.683-3.613-3.808-5.957-3.027-2.344-7.227-2.344-10.742 0-27.343 12.208v51.758h16.406V880h-52.05v-16.504zM520.094 837.422h-79.492q1.757 13.086 10.35 21.19 8.595 8.107 21.974 8.107 19.433 0 30.762-15.626l16.406 7.226q-8.008 12.403-20.8 18.457-12.794 5.957-26.76 5.957-21.68 0-37.108-13.476-15.332-13.574-15.332-36.524 0-21.777 14.94-35.84 15.04-14.062 34.474-14.062 19.043 0 34.472 13.77 15.528 13.67 16.114 40.82zm-19.14-13.477q-1.954-9.96-10.352-17.968-8.4-8.106-20.606-8.106-11.133 0-19.043 7.325-7.91 7.227-9.668 18.75zM586.512 863.496V760.664h-16.797V744.16h35.35v119.336h14.455V880h-49.805v-16.504zM721.918 863.496V880h-32.422v-11.523q-13.476 13.085-30.078 13.085-12.89 0-22.46-8.398-9.474-8.398-9.474-21.484 0-13.184 10.06-21.875 10.155-8.692 24.413-8.692 13.28 0 25.684 8.008v-9.374q0-7.226-1.367-11.133-1.367-3.906-6.445-7.03-4.98-3.126-13.086-3.126-13.965 0-20.215 11.133l-17.773-4.688q11.816-22.07 40.82-22.07 10.645 0 18.36 2.93 7.812 2.832 11.62 7.422 3.81 4.492 5.08 9.765Q706 808.222 706 819.745v43.75zm-34.277-18.652q-12.01-9.375-24.316-9.375-7.715 0-12.89 4.49-5.176 4.493-5.176 11.622 0 6.64 4.492 11.133 4.59 4.492 12.402 4.492 13.477 0 25.49-11.328z"/><path d="M721.777 880v-15.43l59.278-63.77h-38.867v18.165h-15.82V785.47h76.757v16.503l-59.473 62.597h43.262v-19.336h16.21V880zM850.836 878.34l-31.055-76.367h-15.72V785.47h46.776v16.503h-11.328l20.41 52.343 20.02-52.343h-12.5V785.47h45.8v16.503h-14.062l-46.778 120.41H821.05v-16.21h18.458zM1077.41 863.496V880h-35.547v-13.867q-13.867 15.43-33.79 15.43-18.456 0-32.42-12.598-13.966-12.598-13.966-35.84 0-23.34 14.356-36.816 14.355-13.478 32.422-13.478 19.14 0 33.398 15.234v-37.402H1023.7V744.16h36.718v119.336zm-95.898-30.86q0 15.626 8.79 24.024 8.885 8.4 21.19 8.4 11.914 0 21.094-8.79 9.277-8.887 9.277-24.512 0-15.723-9.472-23.73-9.374-8.008-21.093-8.008-12.598 0-21.192 9.472-8.593 9.375-8.593 23.145zM1079.516 832.734q0-21.875 14.453-35.84 14.452-14.062 35.253-14.062 20.41 0 35.058 13.867 14.65 13.77 14.65 36.034 0 22.266-14.65 36.133-14.55 13.867-35.057 13.867-21.094 0-35.45-14.062-14.257-14.063-14.257-35.938zm19.628 0q0 13.965 8.692 22.95 8.79 8.886 21.387 8.886 12.793 0 21.386-8.984 8.69-9.082 8.69-22.852 0-13.867-8.788-22.85-8.79-8.986-21.29-8.986-13.085 0-21.58 9.18-8.498 9.18-8.498 22.656zM1303.496 785.47v16.503h-16.992v70.41q0 14.258-1.465 21.094-1.466 6.933-7.13 14.062-5.566 7.226-16.797 12.108-11.23 4.883-25.097 4.883-20.9 0-37.305-12.596l12.11-13.477q12.305 9.57 26.758 9.57 8.008 0 14.844-3.125 6.836-3.027 10.156-7.422 3.418-4.394 4.395-8.398.976-3.906.976-13.28v-8.595q-4.395 5.566-13.77 10.547-9.375 4.98-20.508 4.98-20.313 0-33.106-14.062-12.793-14.063-12.793-34.57 0-22.46 14.063-36.23 14.16-13.868 32.715-13.868 18.75 0 33.4 14.94V785.47zm-95.996 48.24q0 14.356 8.3 23.438 8.4 9.082 21.388 9.082 12.695 0 21.874-9.082 9.18-9.18 9.18-23.535 0-14.55-9.18-23.34-9.18-8.886-21.29-8.886-12.108 0-21.19 8.79-9.082 8.69-9.082 23.534zM1309.117 880v-24.023h24.024V880z"/></g></svg>