<svg xmlns="http://www.w3.org/2000/svg" viewBox="0 0 1600 1000" height="1000" width="1600"><path fill="#fff" d="M0 0h1600v1000H0z"/><g font-weight="400" font-size="200" font-family="Sabon" letter-spacing="-.03em" text-anchor="middle" fill="#222"><path d="M523.602 74.8l-1.8 31.8h-5.4q-.6-10.4-2.2-13-3-5-13.8-5h-30.4v111.8q0 9.4 5.2 12.4 3.2 1.8 13 2v5.2q-4.8 0-13.8-.2-8.8-.2-13.2-.2-9 0-29 .4v-5.2q9.8-.2 13-2 5.2-3 5.2-12.4V88.6h-26.2q-12.4 0-16.6 4.2-2.6 2.6-5.6 13.8h-5.2l2.2-31.8h4q2.2 5.6 12.6 5.6h90.8q11.8 0 13-5.6zM539.405 208.2V96.8q0-9-2.4-11.8-1.6-1.8-8.2-3.8V78q12.6-4 20.6-8.6 4-2.2 4.4-2.2 1.6 0 1.6 2.8v76.2q5-4.8 10-9.4 10.6-8.2 20.8-8.2 12.8 0 19.8 8.4t7 21.8v49.4q0 4.4 3 5.8 1.8.8 7 .8h3.6v5.2q-3.4 0-10.6-.2-7.2-.2-11-.2-7.2 0-21.6.4v-5.2h3.6q7 0 8.4-3.4 1.6-3.4 1.6-18.4v-22.6q0-14-3-20.4-4.4-9.4-16.6-9.4-9.8 0-22 11.2v56.4q0 4.4 3 5.8 1.8.8 7 .8h3.6v5.2q-3.4 0-10.6-.2-7-.2-10.6-.2-7.2 0-21.6.4v-5.2h3.6q5.2 0 7-.8 2.6-1.4 2.6-5.8zM705.133 164.8h-56.2q-.6 2.6 0 11.6.8 14.4 9.2 24.6 8.4 10 20.2 10 13.6 0 27-13.4l2.8 2.8q-17 22.6-37 22.6-20.8 0-31-17-7.2-12-7.2-26.6 0-26.2 15-40.2 11.4-10.6 25.4-10.6 13.4 0 23 7.8 10.6 8.6 10.8 23.6 0 2.2-.2 3.6zm-55.6-6.4h34.8q5.6 0 5.6-5 0-8-4.6-13.2-4.6-5.2-12.8-5.2-9 0-15.2 6.2-6 6.2-7.8 17.2zM835.673 254v-42.4q-15 11.4-28.6 11.4-18.2 0-29.6-12.6-10.8-11.8-10.8-29.4 0-21.4 15.4-37.2 15-15.2 33.4-15.2 11.6 0 24 7l10.2-8.8 2 1.4v127.4q0 4.8 9.4 4.8h3.6v5.2q-6.4-.4-20.2-.4-7.2 0-26 .4v-5.2h8.8q8.4 0 8.4-6.4zm0-47.2v-54q0-5.4-6-11.2-7.2-6.6-16.4-6.6-10.4 0-18.4 7.8-11 10.4-11 31.2 0 14.8 9.2 26.2 9.8 12 24.2 12 9.6 0 18.4-5.4zM955.802 135.2V209q0 3.8 5.6 3.8 1.2 0 4-.2h4v4.2q-13 1.2-28.8 6.2l-1-.6v-16.2q-10.8 8.8-16.8 12-9 4.8-18.6 4.8-9 0-15-5.6-7-6.4-7-18.2V148q0-10.2-12-11.2V133q4-.2 14.6-.8 10-.6 11.2-.6 2.2 0 2.2 5.8V189q0 23.2 17.4 23.2 9.6 0 24.2-12.2v-53.8q0-3.6-16.8-8.2v-3.6q10.6-.8 21.6-1.8 9.2-1 9.6-1 1.6 0 1.6 3.6zM975.33 220v-5.2h3.8q5.2 0 7-.8 2.6-1.4 2.6-5.8V154q0-6-2.4-8.8-1.6-1.6-8-5.2v-3.2q19.6-5.8 21.4-7 1.8-1.2 3.6-1.2 1.4 0 1.4 2.8v76.8q0 4.4 3 5.8 1.8.8 7 .8h3.4v5.2q-3.4 0-10.4-.2t-10.6-.2q-7 0-21.8.4zm31.2-132.2q0 4-3 7-2.8 3-6.8 3-3.8 0-6.8-3t-3-7q0-3.8 3-6.6 3-3 6.8-3 4 0 6.8 2.8 3 2.8 3 6.8zM1098.798 198.8l3.4 3.4q-17.8 20.8-39 20.8-15.6 0-27.8-12.6-12-12.8-12-28.8 0-22 14-37.4 14.2-15.6 35.6-15.6 9.8 0 17.4 3 9.6 3.6 9.6 10.8 0 8.8-7.6 8.8-3.2 0-6.6-4.2-4.8-6.2-6.8-7.8-5.2-4.2-13.4-4.2-12 0-19.6 11.4-6.6 10.2-6.6 23 0 16 9.6 27.4 9.6 11.4 25.4 11.4 12 0 24.4-9.4zM1201.47 131.6v5.2q-12.4 0-24.8 11.2l-22.2 20 33.8 37.4q6 6.6 8.8 8 2.8 1.4 9.8 1.8v4.8q-10.4-.4-15.6-.4-4.6 0-13.4.4-3.6-5-6.4-8.2l-31.8-36h-4v32.4q0 4.4 3 5.8 1.8.8 7 .8h3.6v5.2q-3.4 0-10.6-.2-7-.2-10.6-.2-7.2 0-21.6.4v-5.2h3.6q5.2 0 7-.8 2.6-1.4 2.6-5.8V96.8q0-9-2.4-11.8-1.6-1.8-8.2-3.8V78q12.6-4 20.6-8.6 4-2.2 4.4-2.2 1.6 0 1.6 2.8v101.2l6.4-1.2 21.6-19q7.8-6.8 7.8-10.2 0-4-9.8-4v-5.2q14 .4 21.2.4 6.2 0 18.6-.4zM406.745 290v73q17-14.4 29.8-14.4 16.8 0 27.4 12.8 9.8 12 9.8 29.2 0 20.6-13.2 36-14 16.4-34.6 16.4-9.4 0-17.4-2.6-.4-.2-10.4-4.4l-6 4.6-4.2-2.2q2.8-18.4 2.8-35.6v-86q0-9-2.4-11.8-1.6-1.8-8.2-3.8V298q12.6-4 20.6-8.6 4-2.2 4.4-2.2 1.6 0 1.6 2.8zm0 78.8v48.6q0 6.8 5.2 13 6.2 7.4 15.4 7.4 14.8 0 23.2-12.8 7.2-10.8 7.2-26 0-15.8-10.2-28-9.8-11.6-21.8-11.6-8 0-19 9.4zM481.073 440v-5.2h5.4q5.2 0 7-.8 2.6-1.4 2.6-5.8V372q0-3.8-4-6.2l-6.4-2.8v-3q7.8-3.4 17-8 6.6-3.4 7.4-3.4 1.8 0 1.8 2.6v18h.4q13.2-20.6 25.6-20.6 4.2 0 7.8 2.8 3.6 2.8 3.6 7.8 0 4.2-2.8 7.2-2.6 3-6.6 3-3 0-6.4-2.4-3.2-2.4-6.8-2.4-4 0-8.6 3.8-6 5-6 12.8v47q0 4.4 2.8 5.8 1.6.8 6.8.8h11.2v5.2l-28-.4q-9.4 0-23.8.4zM556.408 396.2q0-19.8 13-33.6 13-14 32.8-14 21.2 0 34.8 13 13.8 12.8 13.8 33.8 0 19.4-13.6 33.6-13.4 14-32.4 14-20.4 0-34.4-13t-14-33.8zm18.4-2q0 15 7 28 8.6 15.6 22.8 15.6 13.8 0 21.4-13.8 6.4-11.4 6.4-26.6 0-15-7-28-8.6-15.6-23-15.6-13.6 0-21.2 13.8-6.4 11.4-6.4 26.6zM699.736 443l-28.4-70.8q-4.4-10.8-7.2-13.4-2.2-2-8.2-2v-5.2q13.2.4 20 .4 3.6 0 10.2-.2 6.8-.2 9.6-.2v5.2q-10.4 0-10.4 3.8 0 2 1.6 6l21 53.8 17-44q1-2.6 1-6.6 0-12-14.4-13v-5.2q14.4.4 21.8.4 3.4 0 10-.2t9.8-.2v5.2q-6.6.6-7.4.8-3.8.8-3.8 4 0 2.6 4.6 14.8l16.6 44h.4q8-19.6 17-43.6 3.2-8.4 3.2-14.2 0-5.2-12-5.8v-5.2q12.4.4 18.8.4 2.6 0 7.8-.2 5.2-.2 8-.2v5.2q-6.2 0-9.8 3.8-2.8 2.8-5.8 10.6l-28.2 70.6-7.2 1.2-24.6-63-24 61.8zM821.405 428.2v-53q0-5.4-2.2-7.8-2.2-2.4-9.4-5.4v-3.8q8.4-2.8 26.4-9.6 1.2 0 1.2 2v13q10.8-7.8 16.6-10.6 9-4.4 18-4.4 23 0 23 28v51.6q0 4.4 3 5.8 1.8.8 7 .8h3.6v5.2q-3.4 0-10.6-.2-7-.2-10.6-.2-7.2 0-21.6.4v-5.2h3.6q5.2 0 7-.8 2.6-1.4 2.6-5.8v-51.8q0-17-18.4-17-8.8 0-23.2 9.6v59.2q0 4.4 3 5.8 1.8.8 7 .8h3.6v5.2q-3.4 0-10.6-.2-7-.2-10.6-.2-7.2 0-21.6.4v-5.2h3.6q5.2 0 7-.8 2.6-1.4 2.6-5.8zM996.002 351.6h25.4v10.8h-25.4V430q0 4.8 9.4 4.8h9v5.2q-17.2-.4-25.6-.4-8.4 0-24.8.4v-5.2h7.6q8.4 0 8.4-6.4v-66h-14V359l8.8-4.8q5.2-3.6 5.2-7.8 0-28.8 16-45.4 7.2-7.4 15.2-11.2 5.6-2.6 9-2.6 9 0 9 8.2 0 7.8-7 7.8-2.8 0-6-1.4t-6.8-1.4q-13.4 0-13.4 22.6zM1026.798 396.2q0-19.8 13-33.6 13-14 32.8-14 21.2 0 34.8 13 13.8 12.8 13.8 33.8 0 19.4-13.6 33.6-13.4 14-32.4 14-20.4 0-34.4-13t-14-33.8zm18.4-2q0 15 7 28 8.6 15.6 22.8 15.6 13.8 0 21.4-13.8 6.4-11.4 6.4-26.6 0-15-7-28-8.6-15.6-23-15.6-13.6 0-21.2 13.8-6.4 11.4-6.4 26.6zM1127.527 440v-5.2q9 0 13.2-1.8 4.4-1.8 10-8.8 7-8 21.4-25.2-10.6-14.6-30.4-38.4-3.2-3.2-10.6-3.8v-5.2q13.6.4 20.6.4 3.8 0 11-.2 7.4-.2 11-.2v5.2q-10.4 0-10.4 3.2 0 1.6 9 13 10.4 13.4 10.6 13.6.2-.2 11.8-13.8 8.2-9.8 8.2-12 0-4-9.2-4v-5.2q14.4.4 21.6.4 2.6 0 7.8-.2 5.2-.2 8-.2v5.2q-13.6 0-22.4 10.2-7.2 8-21.8 25 15 19.6 33 41 3.2 1.8 6.8 1.8h4.4v5.2q-4 0-11.6-.2-7.4-.2-11-.2-7.4 0-21.8.4v-5.2q6.2 0 8-.4 2.6-.6 2.6-2.6 0-.8-9.4-12.8-6-7.4-11.8-14.8-.6.8-12.2 14.2-10.2 11.6-10.2 13.2 0 3.2 11.8 3.2v5.2q-12.4-.4-18.8-.4t-19.2.4zM388.066 571.4v96.2q0 16.8-8.6 25.2-5.6 5.6-22.8 12.8l-1.4-4.6q11.4-5.6 14.6-13 2.2-5 2.2-18.4V594q0-6.2-2.8-8.8-2-2-10.4-5.2v-3.2q17.8-3.4 24.2-7.2 1.6-1 3.6-1 1.4 0 1.4 2.8zm1.8-43.6q0 4-3 7-2.8 3-6.8 3-3.8 0-6.8-3t-3-7q0-3.8 3-6.6 3-3 6.8-3 4 0 6.8 2.8 3 2.8 3 6.8zM493.934 575.2V649q0 3.8 5.6 3.8 1.2 0 4-.2h4v4.2q-13 1.2-28.8 6.2l-1-.6v-16.2q-10.8 8.8-16.8 12-9 4.8-18.6 4.8-9 0-15-5.6-7-6.4-7-18.2V588q0-10.2-12-11.2V573q4-.2 14.6-.8 10-.6 11.2-.6 2.2 0 2.2 5.8V629q0 23.2 17.4 23.2 9.6 0 24.2-12.2v-53.8q0-3.6-16.8-8.2v-3.6q10.6-.8 21.6-1.8 9.2-1 9.6-1 1.6 0 1.6 3.6zM525.663 648.2V594q0-6-2.4-8.8-1.6-1.6-8-5.2v-3.2q18.6-5.6 21.4-7.2 1.8-1 3.6-1 1.4 0 1.4 2.8v12.2q11.4-8 16-10.4 9-4.6 18.6-4.6 17 0 21.2 15.4 14.6-9.6 15.8-10.4 9.2-5 18.6-5 12.2 0 18.4 8.6 5.4 7.4 5.4 19.6v51.4q0 4.4 3 5.8 1.8.8 7 .8h3v5.2q-3 0-10-.2-6.8-.2-10.6-.2-7.2 0-21.6.4v-5.2h3.6q5.2 0 7-.8 2.6-1.4 2.6-5.8V604q0-24.6-17.4-24.6-9.8 0-23.6 9.6v59.2q0 4.4 3 5.8 1.8.8 7.2.8h3.6v5.2q-3.4 0-10.6-.2-7.2-.2-10.8-.2-7.2 0-21.6.4v-5.2h3.6q5.2 0 7-.8 2.6-1.4 2.6-5.8V604q0-24.6-17.4-24.6-9.8 0-23.6 9.6v59.2q0 4.4 3 5.8 1.8.8 7 .8h3.6v5.2q-3.4 0-10.6-.2-7-.2-10.6-.2-6.6 0-22.2.4v-5.2h4.2q5.2 0 7-.8 2.6-1.4 2.6-5.8zM703.27 659.2v36.4q0 4.8 9.4 4.8h9v5.2q-17.2-.4-25.6-.4-8.4 0-24.8.4v-5.2h7.6q8.4 0 8.4-6.4v-94.8q0-9.8-3.8-13.2 0-.2-8-4v-3q7.8-3.8 23.6-10.8l2-.8q2.2 0 2.2 1.8v14.2q16.4-14.8 30.2-14.8 16 0 26.8 13.4 10 12.6 10 29.2 0 20.8-14.4 36.4-14.4 15.4-34.8 15.4-9.6 0-17.8-3.8zm51-39.8q0-15.4-8.4-26-9.4-11.6-24.8-11.6-8.8 0-17.8 6.6v54.4q7.4 13.8 21.4 13.8 13.6 0 22-12.2 7.6-10.8 7.6-25zM781.197 633.2l3.6-1q4.8 24.4 25.2 24.4 8.2 0 12.6-4.4 3.6-3.8 3.6-9.8 0-9.6-11.4-15.8l-20.8-10.8q-11.4-8-11.4-21.6 0-9.8 7.2-17 8.6-8.6 23.8-8.6 11.4 0 22.8 5.8l1.4 20.4h-4.6q-3.2-19.8-21.8-19.8-6.4 0-11 3.6-4.6 3.4-4.6 9.6 0 9.6 12 15.8l22.4 10.8q12 7.6 12 21 0 11-8.2 18.6-9.6 8.6-26.2 8.6-12.4 0-24.4-6.8zM902.4 616.2q0-19.8 13-33.6 13-14 32.8-14 21.2 0 34.8 13 13.8 12.8 13.8 33.8 0 19.4-13.6 33.6-13.4 14-32.4 14-20.4 0-34.4-13t-14-33.8zm18.4-2q0 15 7 28 8.6 15.6 22.8 15.6 13.8 0 21.4-13.8 6.4-11.4 6.4-26.6 0-15-7-28-8.6-15.6-23-15.6-13.6 0-21.2 13.8-6.4 11.4-6.4 26.6zM1045.728 663l-27.2-70.8q-4.2-10.8-7-13.4-2.2-2-8.4-2v-5.2q13.2.4 20 .4 3.6 0 10.4-.2 7-.2 10.4-.2v5.2q-7 0-9.2 1-2.2 1-2.2 4.4 0 1.2 6.4 18.6l14 38 16.6-41.2q3.8-9.2 4-15.4.2-3-1.8-3.8-2-1-8.8-1.6v-5.2q9.6.4 14.4.4 3 0 9-.2t9.2-.2v5.2q-6.6 0-10.2 3.8-2.6 2.8-5.8 10.6l-28.8 71.8zM1172.328 604.8h-56.2q-.6 2.6 0 11.6.8 14.4 9.2 24.6 8.4 10 20.2 10 13.6 0 27-13.4l2.8 2.8q-17 22.6-37 22.6-20.8 0-31-17-7.2-12-7.2-26.6 0-26.2 15-40.2 11.4-10.6 25.4-10.6 13.4 0 23 7.8 10.6 8.6 10.8 23.6 0 2.2-.2 3.6zm-55.6-6.4h34.8q5.6 0 5.6-5 0-8-4.6-13.2-4.6-5.2-12.8-5.2-9 0-15.2 6.2-6 6.2-7.8 17.2zM1180.8 660v-5.2h5.4q5.2 0 7-.8 2.6-1.4 2.6-5.8V592q0-3.8-4-6.2l-6.4-2.8v-3q7.8-3.4 17-8 6.6-3.4 7.4-3.4 1.8 0 1.8 2.6v18h.4q13.2-20.6 25.6-20.6 4.2 0 7.8 2.8 3.6 2.8 3.6 7.8 0 4.2-2.8 7.2-2.6 3-6.6 3-3 0-6.4-2.4-3.2-2.4-6.8-2.4-4 0-8.6 3.8-6 5-6 12.8v47q0 4.4 2.8 5.8 1.6.8 6.8.8h11.2v5.2l-28-.4q-9.4 0-23.8.4zM319 802.4v53q0 16.8 12.6 16.8 7.4 0 14-5.8l3 3Q335.4 883 322 883q-19 0-19-18.6v-62h-13.2v-3.2q10.6-8.2 13.4-11 6.6-6.2 13.4-17h2.4v20.4h29.8v10.8zM365.397 868.2V756.8q0-9-2.4-11.8-1.6-1.8-8.2-3.8V738q12.6-4 20.6-8.6 4-2.2 4.4-2.2 1.6 0 1.6 2.8v76.2q5-4.8 10-9.4 10.6-8.2 20.8-8.2 12.8 0 19.8 8.4t7 21.8v49.4q0 4.4 3 5.8 1.8.8 7 .8h3.6v5.2q-3.4 0-10.6-.2-7.2-.2-11-.2-7.2 0-21.6.4v-5.2h3.6q7 0 8.4-3.4 1.6-3.4 1.6-18.4v-22.6q0-14-3-20.4-4.4-9.4-16.6-9.4-9.8 0-22 11.2v56.4q0 4.4 3 5.8 1.8.8 7 .8h3.6v5.2q-3.4 0-10.6-.2-7-.2-10.6-.2-7.2 0-21.6.4v-5.2h3.6q5.2 0 7-.8 2.6-1.4 2.6-5.8zM531.125 824.8h-56.2q-.6 2.6 0 11.6.8 14.4 9.2 24.6 8.4 10 20.2 10 13.6 0 27-13.4l2.8 2.8q-17 22.6-37 22.6-20.8 0-31-17-7.2-12-7.2-26.6 0-26.2 15-40.2 11.4-10.6 25.4-10.6 13.4 0 23 7.8 10.6 8.6 10.8 23.6 0 2.2-.2 3.6zm-55.6-6.4h34.8q5.6 0 5.6-5 0-8-4.6-13.2-4.6-5.2-12.8-5.2-9 0-15.2 6.2-6 6.2-7.8 17.2zM590.666 880v-5.2h3.8q5.2 0 7-.8 2.6-1.4 2.6-5.8V756.8q0-9-2.4-11.8-1.6-1.8-8.2-3.8V738q12.6-4 20.6-8.6 4-2.2 4.4-2.2 1.6 0 1.6 2.8v138.2q0 4.4 3 5.8 1.8.8 7 .8h3.4v5.2q-3.4 0-10.4-.2t-10.6-.2q-7 0-21.8.4zM694.334 862v-26.4l-22 7.6q-14.2 6.6-14.2 16 0 5.8 4.2 10.2 4.2 4.2 10 4.2 6.2 0 12-3.6 3-1.8 10-8zm30.6 6.8l1.8 3.4q-11.6 10.8-19.8 10.8-5.8 0-9.2-4.8-2.8-4-3.2-10-16.2 14.8-30.8 14.8-9.4 0-15.6-5.6-6.2-5.8-6-13.8.4-11.4 10-17.4 7.8-4.6 42.2-16.4v-13.2q0-17.2-19.4-17.2-14.8 0-15.2 14-.2 3.8-3.8 6.2-3.4 2.2-7.4 2.2-3.6 0-3.6-4 0-7.2 6.2-12.6 4.4-3.8 16.8-10.2 4.4-2.2 8.8-4.6 4.2-1.8 9.2-1.8 8 0 15.6 4.2 8.8 5 8.8 12.6v55.4q0 11.4 7.2 11.4 4.6 0 7.4-3.4zM755.334 873.6h29q8.2 0 12-3.6 2.8-2.6 10.6-16.2l4.2 1-5.6 25.2h-73.4v-1.6l53.4-80.4h-23q-9 0-12.4 1.8-5.6 3-8.6 13h-4.8l2.6-25.4h4q0 3 3 3.6 2 .6 10.4.6h51.6zM813.806 796.8v-5.2q15.6.4 23.2.4 3 0 9-.2t9-.2v5.2q-6 .6-7 .8-4 1.2-4 4.6 0 3.2 9.2 26 10.2 24.8 11 27.8h.4q.8-2.2 11.4-27.6 8.4-19.8 8.4-23.2 0-8.4-11.2-8.4v-5.2q12.4.4 18.8.4 5 0 15-.4v5.2q-6.4-.2-10.2 3.4-2.8 2.6-5.6 9.4l-45.2 106q-4.2 10-12.8 10-4.4 0-7.2-2.8-2.6-2.8-2.6-6.8 0-3.8 2.8-7 2.8-3 6.8-3 5 0 8.2 3 9.2-19.4 14-32.2-25.8-67.2-28.8-72.6-4.4-8.2-12.6-7.4zM1046.475 730v132.8q0 6 2.2 7.4 1.4.8 7.6.8h3.4v4h-.2q-4.2.8-14.2 4l-12.6 4q-2.2 0-2.2-5.4v-9.2h-.4q-14.2 14.6-30.6 14.6-17.2 0-27.6-13.4-9.6-12.2-9.6-30 0-20.6 14.4-35.8 14.6-15.2 35-15.2 10.2 0 18.8 3.6v-35.4q0-9-2.4-11.8-1.6-1.8-8.2-3.8V738q12.6-4 20.6-8.6 4-2.2 4.4-2.2 1.6 0 1.6 2.8zm-16 129.2v-45.8q0-10-7.2-14.8-5.6-3.6-14-3.6-12 0-20.2 8.6-9.6 10.2-9.6 29 0 16.6 9 27.6 9 10.8 22.6 10.8 5.6 0 12-3.2 7.4-3.6 7.4-8.6zM1067.603 836.2q0-19.8 13-33.6 13-14 32.8-14 21.2 0 34.8 13 13.8 12.8 13.8 33.8 0 19.4-13.6 33.6-13.4 14-32.4 14-20.4 0-34.4-13t-14-33.8zm18.4-2q0 15 7 28 8.6 15.6 22.8 15.6 13.8 0 21.4-13.8 6.4-11.4 6.4-26.6 0-15-7-28-8.6-15.6-23-15.6-13.6 0-21.2 13.8-6.4 11.4-6.4 26.6zM1259.53 793.8v9.6l-19.8-.8q5.2 6.4 5.2 15.2 0 12-9.2 20.8-10.4 10-27.8 10-5 0-11-1.2-6 4.4-6 10.2 0 9.2 14 9.2h14.4q9.4.2 13.2.2 27.4 0 27.4 20.2 0 10.6-10.6 22.2-14.8 16.2-42.4 16.2-17.8 0-28.4-7.2-9.4-6.2-9.4-15.2t7.2-15.4q6.2-5.6 16.2-7.6v-.4q-17.6-5-17.6-17.4 0-4.4.8-6.4 7-3.8 16.6-10-18.8-9.8-18.8-26.6 0-13.6 9.4-22 10.2-8.8 28-8.8 7.8 0 17.6 2.8 11.8 3.4 19.4 3.4 5 0 11.6-1zm-14.4 102.4q0-16.2-28.2-16.2-14.8 0-21.4 2.4-11.8 4-11.8 16.4 0 9.8 8 15.4 7.2 5 18.4 5 12.2 0 22-4.8 13-6.4 13-18.2zm-16.2-76.2q0-10.2-5-17.6-5.8-8.6-15.6-8.6-8.4 0-13.4 7.4-4.2 6.4-4.2 15.4 0 10.2 4.2 17.8 5.2 9 14.6 9 9.6 0 14.8-7.2 4.6-6.2 4.6-16.2zM1286.33 883q-5.4 0-9.4-3.8-3.8-3.8-3.8-9.2 0-5.2 4-9.2 4-4.2 9.2-4.2 5.2 0 9.2 4 4 4 4 9.4t-4 9.2q-3.8 3.8-9.2 3.8z"/></g></svg>