<svg xmlns="http://www.w3.org/2000/svg" viewBox="0 0 800 500"><path fill="#fff" d="M0 0h800v500H0z"/><g font-weight="400" font-size="100" font-family="Sabon" letter-spacing="-.03em" text-anchor="middle" fill="#222"><path d="M261.8 37.4l-.9 15.9h-2.7q-.3-5.2-1.1-6.5-1.5-2.5-6.9-2.5H235v55.9q0 4.7 2.6 6.2 1.6.9 6.5 1v2.6q-2.4 0-6.9-.1-4.4-.1-6.6-.1-4.5 0-14.5.2v-2.6q4.9-.1 6.5-1 2.6-1.5 2.6-6.2V44.3h-13.1q-6.2 0-8.3 2.1-1.3 1.3-2.8 6.9h-2.6l1.1-15.9h2q1.1 2.8 6.3 2.8h45.4q5.9 0 6.5-2.8zM269.702 104.1V48.4q0-4.5-1.2-5.9-.8-.9-4.1-1.9V39q6.3-2 10.3-4.3 2-1.1 2.2-1.1.8 0 .8 1.4v38.1q2.5-2.4 5-4.7 5.3-4.1 10.4-4.1 6.4 0 9.9 4.2t3.5 10.9v24.7q0 2.2 1.5 2.9.9.4 3.5.4h1.8v2.6q-1.7 0-5.3-.1-3.6-.1-5.5-.1-3.6 0-10.8.2v-2.6h1.8q3.5 0 4.2-1.7.8-1.7.8-9.2V85.2q0-7-1.5-10.2-2.2-4.7-8.3-4.7-4.9 0-11 5.6v28.2q0 2.2 1.5 2.9.9.4 3.5.4h1.8v2.6q-1.7 0-5.3-.1-3.5-.1-5.3-.1-3.6 0-10.8.2v-2.6h1.8q2.6 0 3.5-.4 1.3-.7 1.3-2.9zM352.566 82.4h-28.1q-.3 1.3 0 5.8.4 7.2 4.6 12.3 4.2 5 10.1 5 6.8 0 13.5-6.7l1.4 1.4q-8.5 11.3-18.5 11.3-10.4 0-15.5-8.5-3.6-6-3.6-13.3 0-13.1 7.5-20.1 5.7-5.3 12.7-5.3 6.7 0 11.5 3.9 5.3 4.3 5.4 11.8 0 1.1-.1 1.8zm-27.8-3.2h17.4q2.8 0 2.8-2.5 0-4-2.3-6.6-2.3-2.6-6.4-2.6-4.5 0-7.6 3.1-3 3.1-3.9 8.6zM417.837 127v-21.2q-7.5 5.7-14.3 5.7-9.1 0-14.8-6.3-5.4-5.9-5.4-14.7 0-10.7 7.7-18.6 7.5-7.6 16.7-7.6 5.8 0 12 3.5l5.1-4.4 1 .7v63.7q0 2.4 4.7 2.4h1.8v2.6q-3.2-.2-10.1-.2-3.6 0-13 .2v-2.6h4.4q4.2 0 4.2-3.2zm0-23.6v-27q0-2.7-3-5.6-3.6-3.3-8.2-3.3-5.2 0-9.2 3.9-5.5 5.2-5.5 15.6 0 7.4 4.6 13.1 4.9 6 12.1 6 4.8 0 9.2-2.7zM477.9 67.6v36.9q0 1.9 2.8 1.9.6 0 2-.1h2v2.1q-6.5.6-14.4 3.1l-.5-.3v-8.1q-5.4 4.4-8.4 6-4.5 2.4-9.3 2.4-4.5 0-7.5-2.8-3.5-3.2-3.5-9.1V74q0-5.1-6-5.6v-1.9q2-.1 7.3-.4 5-.3 5.6-.3 1.1 0 1.1 2.9v25.8q0 11.6 8.7 11.6 4.8 0 12.1-6.1V73.1q0-1.8-8.4-4.1v-1.8q5.3-.4 10.8-.9 4.6-.5 4.8-.5.8 0 .8 1.8zM487.665 110v-2.6h1.9q2.6 0 3.5-.4 1.3-.7 1.3-2.9V77q0-3-1.2-4.4-.8-.8-4-2.6v-1.6q9.8-2.9 10.7-3.5.9-.6 1.8-.6.7 0 .7 1.4v38.4q0 2.2 1.5 2.9.9.4 3.5.4h1.7v2.6q-1.7 0-5.2-.1t-5.3-.1q-3.5 0-10.9.2zm15.6-66.1q0 2-1.5 3.5-1.4 1.5-3.4 1.5-1.9 0-3.4-1.5t-1.5-3.5q0-1.9 1.5-3.3 1.5-1.5 3.4-1.5 2 0 3.4 1.4 1.5 1.4 1.5 3.4zM549.4 99.4l1.7 1.7q-8.9 10.4-19.5 10.4-7.8 0-13.9-6.3-6-6.4-6-14.4 0-11 7-18.7 7.1-7.8 17.8-7.8 4.9 0 8.7 1.5 4.8 1.8 4.8 5.4 0 4.4-3.8 4.4-1.6 0-3.3-2.1-2.4-3.1-3.4-3.9-2.6-2.1-6.7-2.1-6 0-9.8 5.7-3.3 5.1-3.3 11.5 0 8 4.8 13.7 4.8 5.7 12.7 5.7 6 0 12.2-4.7zM600.735 65.8v2.6q-6.2 0-12.4 5.6l-11.1 10 16.9 18.7q3 3.3 4.4 4 1.4.7 4.9.9v2.4q-5.2-.2-7.8-.2-2.3 0-6.7.2-1.8-2.5-3.2-4.1l-15.9-18h-2v16.2q0 2.2 1.5 2.9.9.4 3.5.4h1.8v2.6q-1.7 0-5.3-.1-3.5-.1-5.3-.1-3.6 0-10.8.2v-2.6h1.8q2.6 0 3.5-.4 1.3-.7 1.3-2.9V48.4q0-4.5-1.2-5.9-.8-.9-4.1-1.9V39q6.3-2 10.3-4.3 2-1.1 2.2-1.1.8 0 .8 1.4v50.6l3.2-.6 10.8-9.5q3.9-3.4 3.9-5.1 0-2-4.9-2v-2.6q7 .2 10.6.2 3.1 0 9.3-.2zM203.373 145v36.5q8.5-7.2 14.9-7.2 8.4 0 13.7 6.4 4.9 6 4.9 14.6 0 10.3-6.6 18-7 8.2-17.3 8.2-4.7 0-8.7-1.3-.2-.1-5.2-2.2l-3 2.3-2.1-1.1q1.4-9.2 1.4-17.8v-43q0-4.5-1.2-5.9-.8-.9-4.1-1.9V149q6.3-2 10.3-4.3 2-1.1 2.2-1.1.8 0 .8 1.4zm0 39.4v24.3q0 3.4 2.6 6.5 3.1 3.7 7.7 3.7 7.4 0 11.6-6.4 3.6-5.4 3.6-13 0-7.9-5.1-14-4.9-5.8-10.9-5.8-4 0-9.5 4.7zM240.537 220v-2.6h2.7q2.6 0 3.5-.4 1.3-.7 1.3-2.9V186q0-1.9-2-3.1l-3.2-1.4V180q3.9-1.7 8.5-4 3.3-1.7 3.7-1.7.9 0 .9 1.3v9h.2q6.6-10.3 12.8-10.3 2.1 0 3.9 1.4 1.8 1.4 1.8 3.9 0 2.1-1.4 3.6-1.3 1.5-3.3 1.5-1.5 0-3.2-1.2-1.6-1.2-3.4-1.2-2 0-4.3 1.9-3 2.5-3 6.4v23.5q0 2.2 1.4 2.9.8.4 3.4.4h5.6v2.6l-14-.2q-4.7 0-11.9.2zM278.204 198.1q0-9.9 6.5-16.8 6.5-7 16.4-7 10.6 0 17.4 6.5 6.9 6.4 6.9 16.9 0 9.7-6.8 16.8-6.7 7-16.2 7-10.2 0-17.2-6.5t-7-16.9zm9.2-1q0 7.5 3.5 14 4.3 7.8 11.4 7.8 6.9 0 10.7-6.9 3.2-5.7 3.2-13.3 0-7.5-3.5-14-4.3-7.8-11.5-7.8-6.8 0-10.6 6.9-3.2 5.7-3.2 13.3zM349.868 221.5l-14.2-35.4q-2.2-5.4-3.6-6.7-1.1-1-4.1-1v-2.6q6.6.2 10 .2 1.8 0 5.1-.1 3.4-.1 4.8-.1v2.6q-5.2 0-5.2 1.9 0 1 .8 3l10.5 26.9 8.5-22q.5-1.3.5-3.3 0-6-7.2-6.5v-2.6q7.2.2 10.9.2 1.7 0 5-.1t4.9-.1v2.6q-3.3.3-3.7.4-1.9.4-1.9 2 0 1.3 2.3 7.4l8.3 22h.2q4-9.8 8.5-21.8 1.6-4.2 1.6-7.1 0-2.6-6-2.9v-2.6q6.2.2 9.4.2 1.3 0 3.9-.1 2.6-.1 4-.1v2.6q-3.1 0-4.9 1.9-1.4 1.4-2.9 5.3l-14.1 35.3-3.6.6-12.3-31.5-12 30.9zM410.702 214.1v-26.5q0-2.7-1.1-3.9-1.1-1.2-4.7-2.7v-1.9q4.2-1.4 13.2-4.8.6 0 .6 1v6.5q5.4-3.9 8.3-5.3 4.5-2.2 9-2.2 11.5 0 11.5 14v25.8q0 2.2 1.5 2.9.9.4 3.5.4h1.8v2.6q-1.7 0-5.3-.1-3.5-.1-5.3-.1-3.6 0-10.8.2v-2.6h1.8q2.6 0 3.5-.4 1.3-.7 1.3-2.9v-25.9q0-8.5-9.2-8.5-4.4 0-11.6 4.8v29.6q0 2.2 1.5 2.9.9.4 3.5.4h1.8v2.6q-1.7 0-5.3-.1-3.5-.1-5.3-.1-3.6 0-10.8.2v-2.6h1.8q2.6 0 3.5-.4 1.3-.7 1.3-2.9zM498 175.8h12.7v5.4H498V215q0 2.4 4.7 2.4h4.5v2.6q-8.6-.2-12.8-.2-4.2 0-12.4.2v-2.6h3.8q4.2 0 4.2-3.2v-33h-7v-1.7l4.4-2.4q2.6-1.8 2.6-3.9 0-14.4 8-22.7 3.6-3.7 7.6-5.6 2.8-1.3 4.5-1.3 4.5 0 4.5 4.1 0 3.9-3.5 3.9-1.4 0-3-.7t-3.4-.7q-6.7 0-6.7 11.3zM513.4 198.1q0-9.9 6.5-16.8 6.5-7 16.4-7 10.6 0 17.4 6.5 6.9 6.4 6.9 16.9 0 9.7-6.8 16.8-6.7 7-16.2 7-10.2 0-17.2-6.5t-7-16.9zm9.2-1q0 7.5 3.5 14 4.3 7.8 11.4 7.8 6.9 0 10.7-6.9 3.2-5.7 3.2-13.3 0-7.5-3.5-14-4.3-7.8-11.5-7.8-6.8 0-10.6 6.9-3.2 5.7-3.2 13.3zM563.763 220v-2.6q4.5 0 6.6-.9 2.2-.9 5-4.4 3.5-4 10.7-12.6-5.3-7.3-15.2-19.2-1.6-1.6-5.3-1.9v-2.6q6.8.2 10.3.2 1.9 0 5.5-.1 3.7-.1 5.5-.1v2.6q-5.2 0-5.2 1.6 0 .8 4.5 6.5 5.2 6.7 5.3 6.8.1-.1 5.9-6.9 4.1-4.9 4.1-6 0-2-4.6-2v-2.6q7.2.2 10.8.2 1.3 0 3.9-.1 2.6-.1 4-.1v2.6q-6.8 0-11.2 5.1-3.6 4-10.9 12.5 7.5 9.8 16.5 20.5 1.6.9 3.4.9h2.2v2.6q-2 0-5.8-.1-3.7-.1-5.5-.1-3.7 0-10.9.2v-2.6q3.1 0 4-.2 1.3-.3 1.3-1.3 0-.4-4.7-6.4-3-3.7-5.9-7.4-.3.4-6.1 7.1-5.1 5.8-5.1 6.6 0 1.6 5.9 1.6v2.6q-6.2-.2-9.4-.2t-9.6.2zM194.033 285.7v48.1q0 8.4-4.3 12.6-2.8 2.8-11.4 6.4l-.7-2.3q5.7-2.8 7.3-6.5 1.1-2.5 1.1-9.2V297q0-3.1-1.4-4.4-1-1-5.2-2.6v-1.6q8.9-1.7 12.1-3.6.8-.5 1.8-.5.7 0 .7 1.4zm.9-21.8q0 2-1.5 3.5-1.4 1.5-3.4 1.5-1.9 0-3.4-1.5t-1.5-3.5q0-1.9 1.5-3.3 1.5-1.5 3.4-1.5 2 0 3.4 1.4 1.5 1.4 1.5 3.4zM246.967 287.6v36.9q0 1.9 2.8 1.9.6 0 2-.1h2v2.1q-6.5.6-14.4 3.1l-.5-.3v-8.1q-5.4 4.4-8.4 6-4.5 2.4-9.3 2.4-4.5 0-7.5-2.8-3.5-3.2-3.5-9.1V294q0-5.1-6-5.6v-1.9q2-.1 7.3-.4 5-.3 5.6-.3 1.1 0 1.1 2.9v25.8q0 11.6 8.7 11.6 4.8 0 12.1-6.1v-26.9q0-1.8-8.4-4.1v-1.8q5.3-.4 10.8-.9 4.6-.5 4.8-.5.8 0 .8 1.8zM262.83 324.1V297q0-3-1.2-4.4-.8-.8-4-2.6v-1.6q9.3-2.8 10.7-3.6.9-.5 1.8-.5.7 0 .7 1.4v6.1q5.7-4 8-5.2 4.5-2.3 9.3-2.3 8.5 0 10.6 7.7 7.3-4.8 7.9-5.2 4.6-2.5 9.3-2.5 6.1 0 9.2 4.3 2.7 3.7 2.7 9.8v25.7q0 2.2 1.5 2.9.9.4 3.5.4h1.5v2.6q-1.5 0-5-.1-3.4-.1-5.3-.1-3.6 0-10.8.2v-2.6h1.8q2.6 0 3.5-.4 1.3-.7 1.3-2.9V302q0-12.3-8.7-12.3-4.9 0-11.8 4.8v29.6q0 2.2 1.5 2.9.9.4 3.6.4h1.8v2.6q-1.7 0-5.3-.1-3.6-.1-5.4-.1-3.6 0-10.8.2v-2.6h1.8q2.6 0 3.5-.4 1.3-.7 1.3-2.9V302q0-12.3-8.7-12.3-4.9 0-11.8 4.8v29.6q0 2.2 1.5 2.9.9.4 3.5.4h1.8v2.6q-1.7 0-5.3-.1-3.5-.1-5.3-.1-3.3 0-11.1.2v-2.6h2.1q2.6 0 3.5-.4 1.3-.7 1.3-2.9zM351.634 329.6v18.2q0 2.4 4.7 2.4h4.5v2.6q-8.6-.2-12.8-.2-4.2 0-12.4.2v-2.6h3.8q4.2 0 4.2-3.2v-47.4q0-4.9-1.9-6.6 0-.1-4-2v-1.5q3.9-1.9 11.8-5.4l1-.4q1.1 0 1.1.9v7.1q8.2-7.4 15.1-7.4 8 0 13.4 6.7 5 6.3 5 14.6 0 10.4-7.2 18.2-7.2 7.7-17.4 7.7-4.8 0-8.9-1.9zm25.5-19.9q0-7.7-4.2-13-4.7-5.8-12.4-5.8-4.4 0-8.9 3.3v27.2q3.7 6.9 10.7 6.9 6.8 0 11-6.1 3.8-5.4 3.8-12.5zM390.598 316.6l1.8-.5q2.4 12.2 12.6 12.2 4.1 0 6.3-2.2 1.8-1.9 1.8-4.9 0-4.8-5.7-7.9l-10.4-5.4q-5.7-4-5.7-10.8 0-4.9 3.6-8.5 4.3-4.3 11.9-4.3 5.7 0 11.4 2.9l.7 10.2h-2.3q-1.6-9.9-10.9-9.9-3.2 0-5.5 1.8-2.3 1.7-2.3 4.8 0 4.8 6 7.9l11.2 5.4q6 3.8 6 10.5 0 5.5-4.1 9.3-4.8 4.3-13.1 4.3-6.2 0-12.2-3.4zM451.2 308.1q0-9.9 6.5-16.8 6.5-7 16.4-7 10.6 0 17.4 6.5 6.9 6.4 6.9 16.9 0 9.7-6.8 16.8-6.7 7-16.2 7-10.2 0-17.2-6.5t-7-16.9zm9.2-1q0 7.5 3.5 14 4.3 7.8 11.4 7.8 6.9 0 10.7-6.9 3.2-5.7 3.2-13.3 0-7.5-3.5-14-4.3-7.8-11.5-7.8-6.8 0-10.6 6.9-3.2 5.7-3.2 13.3zM522.864 331.5l-13.6-35.4q-2.1-5.4-3.5-6.7-1.1-1-4.2-1v-2.6q6.6.2 10 .2 1.8 0 5.2-.1 3.5-.1 5.2-.1v2.6q-3.5 0-4.6.5-1.1.5-1.1 2.2 0 .6 3.2 9.3l7 19 8.3-20.6q1.9-4.6 2-7.7.1-1.5-.9-1.9-1-.5-4.4-.8v-2.6q4.8.2 7.2.2 1.5 0 4.5-.1t4.6-.1v2.6q-3.3 0-5.1 1.9-1.3 1.4-2.9 5.3l-14.4 35.9zM586.164 302.4h-28.1q-.3 1.3 0 5.8.4 7.2 4.6 12.3 4.2 5 10.1 5 6.8 0 13.5-6.7l1.4 1.4q-8.5 11.3-18.5 11.3-10.4 0-15.5-8.5-3.6-6-3.6-13.3 0-13.1 7.5-20.1 5.7-5.3 12.7-5.3 6.7 0 11.5 3.9 5.3 4.3 5.4 11.8 0 1.1-.1 1.8zm-27.8-3.2h17.4q2.8 0 2.8-2.5 0-4-2.3-6.6-2.3-2.6-6.4-2.6-4.5 0-7.6 3.1-3 3.1-3.9 8.6zM590.4 330v-2.6h2.7q2.6 0 3.5-.4 1.3-.7 1.3-2.9V296q0-1.9-2-3.1l-3.2-1.4V290q3.9-1.7 8.5-4 3.3-1.7 3.7-1.7.9 0 .9 1.3v9h.2q6.6-10.3 12.8-10.3 2.1 0 3.9 1.4 1.8 1.4 1.8 3.9 0 2.1-1.4 3.6-1.3 1.5-3.3 1.5-1.5 0-3.2-1.2-1.6-1.2-3.4-1.2-2 0-4.3 1.9-3 2.5-3 6.4v23.5q0 2.2 1.4 2.9.8.4 3.4.4h5.6v2.6l-14-.2q-4.7 0-11.9.2zM159.5 401.2v26.5q0 8.4 6.3 8.4 3.7 0 7-2.9l1.5 1.5q-6.6 6.8-13.3 6.8-9.5 0-9.5-9.3v-31h-6.6v-1.6q5.3-4.1 6.7-5.5 3.3-3.1 6.7-8.5h1.2v10.2h14.9v5.4zM182.698 434.1v-55.7q0-4.5-1.2-5.9-.8-.9-4.1-1.9V369q6.3-2 10.3-4.3 2-1.1 2.2-1.1.8 0 .8 1.4v38.1q2.5-2.4 5-4.7 5.3-4.1 10.4-4.1 6.4 0 9.9 4.2t3.5 10.9v24.7q0 2.2 1.5 2.9.9.4 3.5.4h1.8v2.6q-1.7 0-5.3-.1-3.6-.1-5.5-.1-3.6 0-10.8.2v-2.6h1.8q3.5 0 4.2-1.7.8-1.7.8-9.2v-11.3q0-7-1.5-10.2-2.2-4.7-8.3-4.7-4.9 0-11 5.6v28.2q0 2.2 1.5 2.9.9.4 3.5.4h1.8v2.6q-1.7 0-5.3-.1-3.5-.1-5.3-.1-3.6 0-10.8.2v-2.6h1.8q2.6 0 3.5-.4 1.3-.7 1.3-2.9zM265.563 412.4h-28.1q-.3 1.3 0 5.8.4 7.2 4.6 12.3 4.2 5 10.1 5 6.8 0 13.5-6.7l1.4 1.4q-8.5 11.3-18.5 11.3-10.4 0-15.5-8.5-3.6-6-3.6-13.3 0-13.1 7.5-20.1 5.7-5.3 12.7-5.3 6.7 0 11.5 3.9 5.3 4.3 5.4 11.8 0 1.1-.1 1.8zm-27.8-3.2h17.4q2.8 0 2.8-2.5 0-4-2.3-6.6-2.3-2.6-6.4-2.6-4.5 0-7.6 3.1-3 3.1-3.9 8.6zM295.333 440v-2.6h1.9q2.6 0 3.5-.4 1.3-.7 1.3-2.9v-55.7q0-4.5-1.2-5.9-.8-.9-4.1-1.9V369q6.3-2 10.3-4.3 2-1.1 2.2-1.1.8 0 .8 1.4v69.1q0 2.2 1.5 2.9.9.4 3.5.4h1.7v2.6q-1.7 0-5.2-.1t-5.3-.1q-3.5 0-10.9.2zM347.167 431v-13.2l-11 3.8q-7.1 3.3-7.1 8 0 2.9 2.1 5.1 2.1 2.1 5 2.1 3.1 0 6-1.8 1.5-.9 5-4zm15.3 3.4l.9 1.7q-5.8 5.4-9.9 5.4-2.9 0-4.6-2.4-1.4-2-1.6-5-8.1 7.4-15.4 7.4-4.7 0-7.8-2.8-3.1-2.9-3-6.9.2-5.7 5-8.7 3.9-2.3 21.1-8.2v-6.6q0-8.6-9.7-8.6-7.4 0-7.6 7-.1 1.9-1.9 3.1-1.7 1.1-3.7 1.1-1.8 0-1.8-2 0-3.6 3.1-6.3 2.2-1.9 8.4-5.1 2.2-1.1 4.4-2.3 2.1-.9 4.6-.9 4 0 7.8 2.1 4.4 2.5 4.4 6.3v27.7q0 5.7 3.6 5.7 2.3 0 3.7-1.7zM377.667 436.8h14.5q4.1 0 6-1.8 1.4-1.3 5.3-8.1l2.1.5-2.8 12.6h-36.7v-.8l26.7-40.2h-11.5q-4.5 0-6.2.9-2.8 1.5-4.3 6.5h-2.4l1.3-12.7h2q0 1.5 1.5 1.8 1 .3 5.2.3h25.8zM406.903 398.4v-2.6q7.8.2 11.6.2 1.5 0 4.5-.1t4.5-.1v2.6q-3 .3-3.5.4-2 .6-2 2.3 0 1.6 4.6 13 5.1 12.4 5.5 13.9h.2q.4-1.1 5.7-13.8 4.2-9.9 4.2-11.6 0-4.2-5.6-4.2v-2.6q6.2.2 9.4.2 2.5 0 7.5-.2v2.6q-3.2-.1-5.1 1.7-1.4 1.3-2.8 4.7l-22.6 53q-2.1 5-6.4 5-2.2 0-3.6-1.4-1.3-1.4-1.3-3.4 0-1.9 1.4-3.5 1.4-1.5 3.4-1.5 2.5 0 4.1 1.5 4.6-9.7 7-16.1-12.9-33.6-14.4-36.3-2.2-4.1-6.3-3.7zM523.237 365v66.4q0 3 1.1 3.7.7.4 3.8.4h1.7v2h-.1q-2.1.4-7.1 2l-6.3 2q-1.1 0-1.1-2.7v-4.6h-.2q-7.1 7.3-15.3 7.3-8.6 0-13.8-6.7-4.8-6.1-4.8-15 0-10.3 7.2-17.9 7.3-7.6 17.5-7.6 5.1 0 9.4 1.8v-17.7q0-4.5-1.2-5.9-.8-.9-4.1-1.9V369q6.3-2 10.3-4.3 2-1.1 2.2-1.1.8 0 .8 1.4zm-8 64.6v-22.9q0-5-3.6-7.4-2.8-1.8-7-1.8-6 0-10.1 4.3-4.8 5.1-4.8 14.5 0 8.3 4.5 13.8 4.5 5.4 11.3 5.4 2.8 0 6-1.6 3.7-1.8 3.7-4.3zM533.802 418.1q0-9.9 6.5-16.8 6.5-7 16.4-7 10.6 0 17.4 6.5 6.9 6.4 6.9 16.9 0 9.7-6.8 16.8-6.7 7-16.2 7-10.2 0-17.2-6.5t-7-16.9zm9.2-1q0 7.5 3.5 14 4.3 7.8 11.4 7.8 6.9 0 10.7-6.9 3.2-5.7 3.2-13.3 0-7.5-3.5-14-4.3-7.8-11.5-7.8-6.8 0-10.6 6.9-3.2 5.7-3.2 13.3zM629.766 396.9v4.8l-9.9-.4q2.6 3.2 2.6 7.6 0 6-4.6 10.4-5.2 5-13.9 5-2.5 0-5.5-.6-3 2.2-3 5.1 0 4.6 7 4.6h7.2q4.7.1 6.6.1 13.7 0 13.7 10.1 0 5.3-5.3 11.1-7.4 8.1-21.2 8.1-8.9 0-14.2-3.6-4.7-3.1-4.7-7.6t3.6-7.7q3.1-2.8 8.1-3.8v-.2q-8.8-2.5-8.8-8.7 0-2.2.4-3.2 3.5-1.9 8.3-5-9.4-4.9-9.4-13.3 0-6.8 4.7-11 5.1-4.4 14-4.4 3.9 0 8.8 1.4 5.9 1.7 9.7 1.7 2.5 0 5.8-.5zm-7.2 51.2q0-8.1-14.1-8.1-7.4 0-10.7 1.2-5.9 2-5.9 8.2 0 4.9 4 7.7 3.6 2.5 9.2 2.5 6.1 0 11-2.4 6.5-3.2 6.5-9.1zm-8.1-38.1q0-5.1-2.5-8.8-2.9-4.3-7.8-4.3-4.2 0-6.7 3.7-2.1 3.2-2.1 7.7 0 5.1 2.1 8.9 2.6 4.5 7.3 4.5 4.8 0 7.4-3.6 2.3-3.1 2.3-8.1zM643.166 441.5q-2.7 0-4.7-1.9-1.9-1.9-1.9-4.6 0-2.6 2-4.6 2-2.1 4.6-2.1 2.6 0 4.6 2 2 2 2 4.7t-2 4.6q-1.9 1.9-4.6 1.9z"/></g></svg>