<svg xmlns="http://www.w3.org/2000/svg" viewBox="0 0 1600 1000" height="1000" width="1600"><path fill="#fff" d="M0 0h1600v1000H0z"/><g font-weight="700" font-size="200" font-family="Syntax" letter-spacing="-.03em" text-anchor="middle" fill="#222"><path d="M446.54 220h25.6l1-116.4h38.2l.2-22h-102.6l-.2 22h38.8zM523.067 220h24.4l.4-68.4q5.8-5.8 11.4-9.4 5.6-3.8 10.8-3.8 7.2 0 10.2 3.6 3 3.6 3 10 0 7-.2 19 0 11.8-.2 23.8l-.2 25.2h24.4l.6-50.6v-8.8q.2-7.8.2-13.8 0-6.4-1.4-11.6-1.2-5.4-4.2-9.6-3-4.2-8.4-6.6-5.2-2.6-12.8-2.6-9.6 0-18 4t-14.6 11h-.4l.4-61.4h-24.4zM710.195 172.6q0-27-10.4-41.6-10.4-14.6-31.2-14.6-10.6 0-19.2 4.6-8.6 4.4-14.6 12t-9.2 17.2q-3 9.6-3 19.8 0 11.6 3.2 21.4 3.2 9.8 9.2 16.8 6 7 14 10.8 8.2 3.8 17.6 3.8 11.8 0 22.2-5.2 10.4-5.4 18.8-14.6l-14-12.8q-5.6 6-11.2 9.6-5.6 3.4-12.2 3.4-6 0-10.4-2.6-4.4-2.8-7.2-7.2-2.8-4.6-4.2-9.8-1.2-5.4-1.4-11zm-62-17.2q.8-8 6.6-14.8 6-7 13.8-7 9 0 13.4 6.4 4.4 6.2 5 15.4zM832.464 268.4h24.4l.8-149.2h-23.4v8.8h-.4q-3.2-6-9.4-8.8-6-2.8-13.8-2.8-10.2 0-18.6 5-8.4 4.8-14.2 13.2-5.8 8.2-8.8 18.2-3 9.8-3 19.6 0 10.2 2.8 19.4t8.2 16.2q5.4 7 13 11 7.6 3.8 16.6 3.8 9.2 0 16-4 6.8-4 10.2-11.4l.4.4zm.8-79.6q-4.2 6.4-9 9.8-4.6 3.4-11.2 3.4-11 0-16.8-9.4-5.8-9.6-5.8-22.4 0-13 7-23 7.2-10 19.8-10 4.8 0 9.4 2.4 4.8 2.4 6.8 5.4zM962.192 119.2h-24.4l-.4 68.4q-5.8 5.6-11.4 9.4-5.6 3.8-10.8 3.8-7.4 0-10.4-3.8-2.8-3.8-2.8-12.8 0-11.6.4-38.4v-1.4l.2-25.2h-24.4l-.6 50.6v9.6q-.2 7.6-.2 9.2 0 16.2 6.2 25.2t21.8 9q8.8 0 17-4 8.2-4.2 14.2-11h.4V220h24.4zM984.32 220h24.4l1-100.8h-24.4zm1-114.8h24.4l.2-23.6h-24.4zM1093.99 190.8q-5.2 5.4-9.8 8.4-4.6 2.8-10.8 2.8-9.4 0-15.6-8.8-6-8.8-6-24.2 0-12.6 6-22.2t16.8-9.6q5.6 0 10 2.4 4.4 2.2 10.2 7l.2.2 13.8-13.4q-7.2-8-16-12.4-8.6-4.6-19.2-4.6-10.8 0-19.8 4.6-8.8 4.4-15 12.2-6.2 7.8-9.4 17.6t-3.2 20.4q0 9.4 2.8 18.6 3 9.2 8.4 16.8 5.6 7.4 13.8 11.8 8.4 4.4 18.8 4.4 11.6 0 20.8-4.8 9.2-5 16.8-14.4zM1114.66 220h24.4v-49.4h.4l40.2 55.6 20-13.8-35.2-45 35.2-39.6-17.4-14.6-42.8 53h-.4l1.2-96.2h-24.4zM418.678 370.4q4.2-6.4 8.8-9.8 4.8-3.4 11.4-3.4 11 0 16.8 9.6 5.8 9.4 5.8 22.2 0 13-7.2 23-7 10-19.6 10-4.8 0-9.6-2.4-4.6-2.4-6.6-5.4zm-24.4 69.6h23.4v-8.8h.4q3.4 6 9.4 8.8 6 2.8 13.8 2.8 10.2 0 18.6-4.8 8.4-5 14.2-13.2 5.8-8.4 8.8-18.2 3-10 3-19.8 0-10.2-2.8-19.4t-8.2-16.2q-5.4-7-13-10.8-7.6-4-16.6-4-9.2 0-16 4-6.8 4-10.2 11.4l-.4-.4.8-61.4h-24.4zM500.606 440h24.6l.6-62.4q4-8.4 9.2-13 5.2-4.6 12-4.6 1.8 0 5.8.8l4-23.4q-4-1-7.2-1-8.6.2-14 6-5.2 5.6-9.4 15.6l-.2-.4v-18.4h-24.4zM555.603 389.6q0 11 3 20.6 3 9.6 9 17 6 7.2 15 11.4 9.2 4.2 21.2 4.2 11.2 0 20.2-4.2t15.2-11.6q6.2-7.4 9.4-17 3.4-9.6 3.4-20.4 0-23.4-12.6-38.2-12.4-15-35.6-15-10.8 0-19.8 4.4-8.8 4.4-15.2 12-6.4 7.6-9.8 17.2-3.4 9.6-3.4 19.6zm24.4.8q0-5.6 1.2-11.6t4-11.2q2.8-5.2 7.4-8.4 4.8-3.2 11.2-3.2 12 0 17.8 9.2 6 9 6 25.2 0 5.6-1.4 11.4-1.2 5.6-4 10.6-2.8 4.8-7.6 7.8-4.6 3-10.8 3-6.4 0-11.2-3.2-4.6-3.2-7.4-8.2-2.8-5.2-4-10.8-1.2-5.6-1.2-10.6zM686.93 440h24.6l19.6-73.8h.4l17.8 73.8h24.8l32.4-96.2-22.6-7.4-20.4 73.8h-.4l-18.6-71h-25.8l-19.8 71h-.4l-18.4-73.8-24 6zM816.2 440h24.4l.4-68.4q5.8-5.8 11.4-9.4 5.6-3.8 10.8-3.8 7.6 0 10.4 3.8 2.8 3.6 2.8 13 0 10.6-.2 30.8-.2 4.4-.2 8.8l-.2 25.2h24.4l.6-50.6v-8.8q.2-7.8.2-13.8 0-6.4-1.4-11.6-1.2-5.4-4.2-9.6-3-4.2-8.4-6.6-5.2-2.6-12.8-2.6-9.6 0-18 4t-14.6 11h-.4v-12.2h-24zM977.797 440h24.6v-82.4h21.4v-18.4h-20.8v-13.8q0-9 4-13.2 4.2-4.2 11.4-4.2h5.6v-19.6h-7.8q-18 0-28 10.4t-10 27.4v13h-16v18.4h16zM1025.994 389.6q0 11 3 20.6 3 9.6 9 17 6 7.2 15 11.4 9.2 4.2 21.2 4.2 11.2 0 20.2-4.2t15.2-11.6q6.2-7.4 9.4-17 3.4-9.6 3.4-20.4 0-23.4-12.6-38.2-12.4-15-35.6-15-10.8 0-19.8 4.4-8.8 4.4-15.2 12-6.4 7.6-9.8 17.2-3.4 9.6-3.4 19.6zm24.4.8q0-5.6 1.2-11.6t4-11.2q2.8-5.2 7.4-8.4 4.8-3.2 11.2-3.2 12 0 17.8 9.2 6 9 6 25.2 0 5.6-1.4 11.4-1.2 5.6-4 10.6-2.8 4.8-7.6 7.8-4.6 3-10.8 3-6.4 0-11.2-3.2-4.6-3.2-7.4-8.2-2.8-5.2-4-10.8-1.2-5.6-1.2-10.6zM1127.122 431.6l20.6 12.6 27-38 24.2 38 21.8-12.6-32-42 31.2-42.2-20.2-13.4-25 38.4-24.2-38.4-21.4 13.4 31 42.2zM345.806 708.4q12.6 0 20.4-2.2 7.8-2 12-6.8 4.4-4.8 6-12.8 1.8-7.8 1.8-20.6l.8-106.8h-24.4l-.8 104.6q0 8.8-.6 13.6-.6 4.8-2.2 7.4-1.6 2.6-4.6 3.6-3 1.2-8.4 1.6zm16.6-163.2h24.4l.2-23.6h-24.4zM494.075 559.2h-24.4l-.4 68.4q-5.8 5.6-11.4 9.4-5.6 3.8-10.8 3.8-7.4 0-10.4-3.8-2.8-3.8-2.8-12.8 0-11.6.4-38.4v-1.4l.2-25.2h-24.4l-.6 50.6v9.6q-.2 7.6-.2 9.2 0 16.2 6.2 25.2t21.8 9q8.8 0 17-4 8.2-4.2 14.2-11h.4V660h24.4zM514.603 660h24.2l.8-68.2q3.8-4.8 9.8-9 6.2-4.4 11-4.4 5.8 0 9 3.4 3.2 3.2 3.2 9v10.4q-.2 12-.2 19.2l-.2 39.6h24.2l.8-68.2q3.8-4.8 9.8-9 6.2-4.4 11-4.4 5.8 0 9 3.4 3.2 3.2 3.2 9v10.4q-.2 12-.2 19.2l-.2 39.6h24.4q0-6.2.2-37.4v-37.2q0-5.4-1.2-10.4t-4.2-9.2q-3-4.2-8.4-6.8-5.4-2.6-13.4-2.6-9.6 0-18.4 4.8-8.8 4.6-14.6 12.4-2.4-8.6-9-12.8-6.4-4.4-15.6-4.4-9 0-17.2 4.6-8 4.6-12.8 12l-.4-.4v-13.4h-24.2zM673.2 708.4h24.4l.6-55.6h.4q4 5 10 7.2 6 2.4 12.8 2.4 10.4 0 18.8-4.4 8.4-4.6 14-12.2 5.8-7.8 8.6-17.4 3-9.8 3-20.2 0-11.2-3.2-20.8-3-9.6-8.8-16.6-5.8-7-13.6-10.6-7.8-3.8-17.2-3.8-7.8 0-14.8 3.8-6.8 3.6-10.6 9.6h-.4v-10.6h-23.4zM698.6 593q1.2-6.8 5.8-11.2 4.8-4.6 12.2-4.6 11 0 17.8 9 7 9 7 23.2 0 14.4-7.8 23.4-7.6 8.8-17.6 8.8-6 0-10.2-2.6-4-2.6-7.2-6.6zM775.328 653.2q16.2 9.6 34.6 9.6 15.8 0 26.8-8.4 11.2-8.4 11.2-23.8 0-7.6-2.6-12.8-2.6-5.2-6.8-8.4-4.2-3.2-9-5-4.6-2-11.4-4-9.6-2.8-14-5.4-4.4-2.8-4.4-8.2 0-5.6 4.8-8.8 4.8-3.2 10.8-3.2 5.4 0 11.4 2.4 6.2 2.2 10.8 5.6l10.4-15.4q-6.4-5.4-15.6-8.2-9.2-2.8-18.6-2.8-15.6 0-26.4 8.2-10.8 8.2-10.8 23 0 8.4 2.6 14.2 2.6 5.6 6.8 9 4.2 3.2 8.6 5 4.6 1.6 11.4 3.6 9.2 2.4 13.4 5 4.2 2.6 4.2 8.2 0 5.8-4 8.8-4 3-10 3-6.2 0-12.4-2.2-6-2.2-12.8-6.2zM906.87 609.6q0 11 3 20.6 3 9.6 9 17 6 7.2 15 11.4 9.2 4.2 21.2 4.2 11.2 0 20.2-4.2t15.2-11.6q6.2-7.4 9.4-17 3.4-9.6 3.4-20.4 0-23.4-12.6-38.2-12.4-15-35.6-15-10.8 0-19.8 4.4-8.8 4.4-15.2 12-6.4 7.6-9.8 17.2-3.4 9.6-3.4 19.6zm24.4.8q0-5.6 1.2-11.6t4-11.2q2.8-5.2 7.4-8.4 4.8-3.2 11.2-3.2 12 0 17.8 9.2 6 9 6 25.2 0 5.6-1.4 11.4-1.2 5.6-4 10.6-2.8 4.8-7.6 7.8-4.6 3-10.8 3-6.4 0-11.2-3.2-4.6-3.2-7.4-8.2-2.8-5.2-4-10.8-1.2-5.6-1.2-10.6zM1040.797 660h23.2l38.8-96.6-23.2-7-26.2 73.2h-.4l-21.8-73.2-24.4 7zM1193.797 612.6q0-27-10.4-41.6-10.4-14.6-31.2-14.6-10.6 0-19.2 4.6-8.6 4.4-14.6 12t-9.2 17.2q-3 9.6-3 19.8 0 11.6 3.2 21.4 3.2 9.8 9.2 16.8 6 7 14 10.8 8.2 3.8 17.6 3.8 11.8 0 22.2-5.2 10.4-5.4 18.8-14.6l-14-12.8q-5.6 6-11.2 9.6-5.6 3.4-12.2 3.4-6 0-10.4-2.6-4.4-2.8-7.2-7.2-2.8-4.6-4.2-9.8-1.2-5.4-1.4-11zm-62-17.2q.8-8 6.6-14.8 6-7 13.8-7 9 0 13.4 6.4 4.4 6.2 5 15.4zM1205.997 660h24.6l.6-62.4q4-8.4 9.2-13 5.2-4.6 12-4.6 1.8 0 5.8.8l4-23.4q-4-1-7.2-1-8.6.2-14 6-5.2 5.6-9.4 15.6l-.2-.4v-18.4h-24.4zM335.672 859.6q-3.4 2.4-6 3.6-2.4 1.2-5.2 1.2-4.4 0-6.4-2.6-1.8-2.8-1.8-8 0-16.6.2-26.6l.6-29.6h22.4v-18.4l-22.4.4.8-36h-24.4l-.8 36-13.6-.4v18.4h13.6l-.6 30.8q-.2 8.8-.2 24.2 0 15.6 7.2 23 7.2 7.2 20.2 7.2 3.4 0 7.2-.8 3.8-.8 8-3.2l8.2-4.4zM348.67 880h24.4l.4-68.4q5.8-5.8 11.4-9.4 5.6-3.8 10.8-3.8 7.2 0 10.2 3.6 3 3.6 3 10 0 7-.2 19 0 11.8-.2 23.8l-.2 25.2h24.4l.6-50.6v-8.8q.2-7.8.2-13.8 0-6.4-1.4-11.6-1.2-5.4-4.2-9.6-3-4.2-8.4-6.6-5.2-2.6-12.8-2.6-9.6 0-18 4t-14.6 11h-.4l.4-61.4h-24.4zM535.797 832.6q0-27-10.4-41.6-10.4-14.6-31.2-14.6-10.6 0-19.2 4.6-8.6 4.4-14.6 12t-9.2 17.2q-3 9.6-3 19.8 0 11.6 3.2 21.4 3.2 9.8 9.2 16.8 6 7 14 10.8 8.2 3.8 17.6 3.8 11.8 0 22.2-5.2 10.4-5.4 18.8-14.6l-14-12.8q-5.6 6-11.2 9.6-5.6 3.4-12.2 3.4-6 0-10.4-2.6-4.4-2.8-7.2-7.2-2.8-4.6-4.2-9.8-1.2-5.4-1.4-11zm-62-17.2q.8-8 6.6-14.8 6-7 13.8-7 9 0 13.4 6.4 4.4 6.2 5 15.4zM599.266 880h24.4l1.2-150h-24.4zM656.134 809.8q10.6-8.2 16.2-11 5.8-2.8 10-2.8 5.8 0 8.6 2.8 3 2.8 3 10.6v6.6q-15.8 2.6-26.6 6.6-10.6 3.8-16.6 8.6-5.8 4.6-8.4 10.2-2.4 5.4-2.4 12 0 13.4 8.2 21.4 8.4 8 22 8 7 0 13.6-3.4 6.8-3.6 12.2-10 1.4 6.2 6 9.8 4.8 3.6 11.4 3.6 4 0 8.8-1.8 5-1.6 12.2-6.4l-5.8-12.2q-3 1.4-4.6 2-1.6.6-2.6.6-2 0-3.8-2.8-1.6-2.8-1.6-6.8 0-3.2.4-10.8v-1.8l.8-29q.2-2.6.2-8.4 0-14-8.4-21.4-8.4-7.6-20.4-7.6-4.4 0-8.8.8-4.2.6-9.4 2.8-5 2-11.4 6.2-6.4 4-14.4 10.6zm37.2 45.2q-4.2 4.4-9 7-4.6 2.4-8.4 2.4-5.8 0-9.4-3.2-3.4-3.2-3.4-8.6 0-7.8 6.6-12.4 6.8-4.8 24-8.6zM739.934 880h69.2v-19.6h-44.6l47-66.8-7.4-14.4h-69v19.6h44.2l-46.6 66.8zM814.606 928.4h4.6q18.4 0 28.2-8.4t17.4-27.4l43.6-109.2-23.2-7-26.2 73.2h-.4l-21.8-73.2-24.4 7 34 96.6-7.2 15.4q-2.2 4.6-5.2 7.4-2.8 2.8-5.8 4-3 1.4-5.4 1.6-2.4.4-4.6.4h-3.6zM1028.875 880h23.4l.6-150h-24.4l-.6 56.4h-.4q-3.8-5-9.8-7.2-6-2.4-12.6-2.4-10.2 0-18.4 4.6-8.2 4.4-14 12.2-5.6 7.6-8.6 17.4-2.8 9.6-2.8 20 0 11.2 3 20.6 3.2 9.4 8.8 16.4 5.8 6.8 13.4 10.6 7.8 3.8 17 3.8 7.4 0 14.2-3.8 7-3.8 10.8-9.6h.4zm-1.4-34.2q-1 6.4-6.4 11.2-5.4 4.6-11.2 4.6-10.6 0-17.4-8.8-6.8-9-6.8-23 0-14.4 7.2-23.2 7.4-9 17.6-9 5.8 0 10 2.8 4.2 2.6 7 6.4zM1066.603 829.6q0 11 3 20.6 3 9.6 9 17 6 7.2 15 11.4 9.2 4.2 21.2 4.2 11.2 0 20.2-4.2t15.2-11.6q6.2-7.4 9.4-17 3.4-9.6 3.4-20.4 0-23.4-12.6-38.2-12.4-15-35.6-15-10.8 0-19.8 4.4-8.8 4.4-15.2 12-6.4 7.6-9.8 17.2-3.4 9.6-3.4 19.6zm24.4.8q0-5.6 1.2-11.6t4-11.2q2.8-5.2 7.4-8.4 4.8-3.2 11.2-3.2 12 0 17.8 9.2 6 9 6 25.2 0 5.6-1.4 11.4-1.2 5.6-4 10.6-2.8 4.8-7.6 7.8-4.6 3-10.8 3-6.4 0-11.2-3.2-4.6-3.2-7.4-8.2-2.8-5.2-4-10.8-1.2-5.6-1.2-10.6zM1274.33 795.8v-15.6l-32.6.6q-5.8-2.4-10.4-3.4-4.4-1-12-1-16.2 0-27.6 9.4-11.4 9.2-11.4 24.8 0 7.6 3.4 13.8 3.4 6 10.4 9.8-14.2 9-19 13.4-4.6 4.2-4.6 10.4t5.2 9q5.4 2.6 15.2 4.8l1.2.2v.4q-10.2 5.2-16 10.8-5.6 5.8-5.6 15.6 0 5.6 2.6 10.8 2.8 5.4 8.4 9.6 5.6 4.2 14.2 6.6 8.8 2.6 20.4 2.6 9.8 0 19.4-2.6 9.8-2.6 17.8-8 8.2-5.2 13-13 4.8-7.8 4.8-17.8 0-9-3.8-14.6-3.8-5.8-10.4-8.8-6.4-3-14-4.2-7.4-1.4-18.2-2.4-18-1.6-23.4-2.8-5.4-1.2-5.4-4.4 0-2 1.6-3.6 1.8-1.8 5.2-4.2 1.4-1 2-1.4 8.2 2.6 18.4 2.6 15.2 0 26.2-8.8t11-23.8q0-9-5.8-15.4zm-83 99.6q0-6 4.2-10.2 4.2-4 12-8.8 1-.6 1.4-.8 14 1.6 21.4 2.8 7.4 1.2 11.2 2.8 3.8 1.6 5 3.8 1.4 2.4 1.4 6.6 0 8.2-8.6 14.6-8.6 6.6-21.2 6.6-4.4 0-9-1-4.6-.8-8.8-3-4-2-6.6-5.4-2.4-3.4-2.4-8zm30-103.4q7.2 0 11.4 5.2 4.4 5 4.4 12.4 0 8.2-4.2 13.2-4.2 4.8-12.2 4.8-8.2 0-12.8-5-4.4-5-4.4-12 0-8.4 4.8-13.4 4.8-5.2 13-5.2zM1284.26 880h26.8v-26.8h-26.8z"/></g></svg>