<svg xmlns="http://www.w3.org/2000/svg" viewBox="0 0 1600 1000" height="1000" width="1600"><path fill="#fff" d="M0 0h1600v1000H0z"/><g font-weight="400" font-size="200" font-family="Syntax" letter-spacing="-.03em" text-anchor="middle" fill="#222"><path d="M413.208 96h43.8l-1.2 124h17.2l1.2-124h43.8V81.6h-104.8zM530.536 220h16l.8-69.6q7.8-9.4 15-13.8 7.2-4.6 14.8-4.6 8.6 0 13.4 4 4.8 4 4.8 11.8v14.4q-.2 11-.2 13l-.4 44.8h16l.4-49.4q0-2 .2-11.4v-11.4q0-14.8-7-22.4-7-7.8-23.4-7.8-9.2 0-18.4 5-9.2 4.8-15 13.4h-.4l.8-66h-16.6zM712.664 168v-3.2q0-21.2-9.6-34.2-9.6-13-28.8-13-9.8 0-18.2 4.4-8.4 4.2-14.6 11.6-6.2 7.4-9.6 17-3.2 9.4-3.2 19.6 0 24.6 11.4 38.6 11.6 14 32.2 14 10.6 0 20.2-4.8t17.8-13l-7.8-8.6q-7.8 7-14.2 10.8-6.4 3.6-14.2 3.6-7.4 0-12.8-3-5.4-3.2-8.8-8.6-3.4-5.6-5-12.6-1.6-7.2-1.6-15.2V168zm-65.4-10.8q2.2-11.2 9.4-19.4t17.8-8.2q11.4 0 16.8 8 5.4 7.8 5.4 19.6zM859.933 120.4h-14.8l-.6 10.2h-.4q-4.2-5.6-11.4-9.2-7.2-3.8-15.6-3.8-8.4 0-16.6 4.2-8 4-14.4 11.2-6.4 7.2-10.2 17-3.8 9.8-3.8 20.8 0 14 3.6 24.2 3.6 10 9.6 16.2 6 6 13 8.8 7 2.8 13.8 2.8 10 0 18.4-4.6 8.6-4.8 12.8-11.6h.4l-.8 63.8h15.8zm-17.2 70.8q-3.2 7-10.6 12.8-7.4 5.6-16.4 5.6-11 0-18.8-10.2-7.6-10.2-7.6-29.2 0-7.4 2.2-14.4 2.2-7.2 6-12.8 4-5.6 9.6-8.8 5.6-3.4 12-3.4 7.4 0 13.2 3.8 6 3.6 11 12.2zM885.06 169.8v11.4q-.2 9.4-.2 11.4 0 14.6 7 22.4 7 7.8 23.4 7.8 9.2 0 18.4-5t15.4-13.8h.4l-.6 16h16l.8-99.6h-16l-.8 69.6q-7.8 9.4-15 14-7.2 4.4-14.8 4.4-8.6 0-13.4-4-4.8-4-4.8-11.8 0-6.8.2-14.4v-13l.4-44.8h-16zM988.39 220h16l.8-99.6h-16zm0-120.4h17.2v-18h-17.2zM1100.52 134.2q-6-7.6-14.6-12-8.4-4.6-18-4.6-10 0-18.6 4.2-8.4 4.2-14.8 11.8-6.4 7.4-9.8 17-3.4 9.4-3.4 19.6 0 12 3.2 22 3.4 9.8 9.4 16.6 6.2 6.8 14.2 10.4 8 3.6 17.4 3.6 10.2 0 18.2-4 8.2-4 15.4-12.6l-8.2-9.4q-3.8 5.2-10.2 9-6.4 3.8-12.4 3.8-12 0-21-10-8.8-10.2-8.8-26.4 0-19.8 9-31 9-11.4 21-11.4 12.2 0 21.6 11.6zM1110.992 220h15.6l.6-51.2 50.4 55.6 12.6-10.2-43.2-48 42-40.4-10.6-10.4-51.2 53 .8-98.4h-15.8zM397.86 440h15.2l.6-10.2h.4q4.2 5.6 11.6 9.4 7.4 3.6 16.8 3.6t17.4-4.4q8-4.4 13.8-12 6-7.8 9.2-17.2 3.2-9.6 3.2-19.6 0-14-3.6-24-3.6-10.2-9.6-16.2-6-6.2-13-9t-13.8-2.8q-10 0-18.4 4.8-8.4 4.6-12.6 11.4h-.4l.4-63.8h-16zm16.6-70.8q4.2-7.4 11.6-12.8 7.6-5.6 16.4-5.6 11.2 0 18.8 10.2 7.6 10 7.6 29.2 0 7.4-2.2 14.6-2.2 7-6.2 12.6t-9.6 9q-5.4 3.2-11.8 3.2-14.6 0-25-16zM503.387 440h16l.8-65.4q6-11 13-16.2 7-5.2 12.8-5.2 2.2 0 6.2 1l4.8-15.2q-3.8-1.4-8.6-1.4-9.8 0-18 8-3.2 3.2-5.8 7-2.4 3.8-3.8 7.6l-.4-.4.2-19.4h-16.4zM572.427 390.2q0-19.4 9.4-30 9.4-10.6 21.8-10.6 12.8 0 21.2 10.4 8.4 10.4 8.4 30.2 0 19.4-9.4 30-9.4 10.6-21.8 10.6-12.8 0-21.2-10.4-8.4-10.4-8.4-30.2zm-17.2 0q0 24.6 12.4 38.6t34.2 14q11.4 0 20.6-4.4 9.2-4.4 15.4-12 6.2-7.6 9.4-17t3.2-19.2q0-24.6-12.4-38.6t-34.2-14q-11.4 0-20.6 4.4-9.2 4.4-15.4 12-6.2 7.6-9.4 17t-3.2 19.2zM687.15 440h15.8l27-79.2h.4l21.8 79.2h15.6l35.4-97.6-15.4-4.8-26.6 83.2h-.4l-21.8-80.4h-16.2l-26.6 80.4h-.4l-21.6-83.2-16.2 4.8zM817.42 440h16l.8-69.6q7.8-9.4 15-13.8 7.2-4.6 14.8-4.6 8.6 0 13.4 4 4.8 4 4.8 11.8v14.4q-.2 11-.2 13l-.4 44.8h16l.4-49.4q0-2 .2-11.4v-11.4q0-14.8-7-22.4-7-7.8-23.4-7.8-9.2 0-18.4 5t-15.4 13.8h-.4l.6-16h-16zM961.416 352.4h19.4l-.8 87.6h16l.8-87.6h26.6v-12h-27.2l.6-16q.4-9.8 5.2-16.2 5-6.6 14.4-6.6h7v-13.2q-18.4 0-29.4 7.8-10.8 7.6-12.4 25-.8 8.8-.8 19.2h-19.4zM1043.013 390.2q0-19.4 9.4-30 9.4-10.6 21.8-10.6 12.8 0 21.2 10.4 8.4 10.4 8.4 30.2 0 19.4-9.4 30-9.4 10.6-21.8 10.6-12.8 0-21.2-10.4-8.4-10.4-8.4-30.2zm-17.2 0q0 24.6 12.4 38.6t34.2 14q11.4 0 20.6-4.4 9.2-4.4 15.4-12 6.2-7.6 9.4-17t3.2-19.2q0-24.6-12.4-38.6t-34.2-14q-11.4 0-20.6 4.4-9.2 4.4-15.4 12-6.2 7.6-9.4 17t-3.2 19.2zM1201.74 442.8l14.6-8.8-34-45 33.4-43.8-13.2-7.6-29.8 40.4-26.4-40.4-15 7.6 32.4 43.8-33.8 45 12.8 8.8 30-42.8zM387.744 560.4h-16l-1.2 108.8q-.2 14.6-4 20.2-3.6 5.8-14 5.8v12q19 0 26.4-9.8 7.4-9.8 7.6-29.6zm-16.8-20.8h17.2v-18h-17.2zM411.475 609.8v11.4q-.2 9.4-.2 11.4 0 14.6 7 22.4 7 7.8 23.4 7.8 9.2 0 18.4-5t15.4-13.8h.4l-.6 16h16l.8-99.6h-16l-.8 69.6q-7.8 9.4-15 14-7.2 4.4-14.8 4.4-8.6 0-13.4-4-4.8-4-4.8-11.8 0-6.8.2-14.4v-13l.4-44.8h-16zM515.603 660h16l1.2-71.4q6.8-8 13.4-12.2 6.8-4.4 15-4.4 6.8 0 11.2 4 4.6 4 4.6 11.8v14.4q-.2 11-.2 13l-.4 44.8h15.8l1.2-71.4q6.8-8 13.4-12.2 6.8-4.4 15-4.4 6.8 0 11.2 4 4.6 4 4.6 11.8v14.4q-.2 11-.2 13l-.4 44.8h16l.4-49.4q0-2 .2-11.4v-11.4q0-14.6-6.6-22.4-6.6-7.8-21.4-7.8-8.8 0-18.2 5.4-9.2 5.2-16.4 13-1.8-9-8.6-13.6-6.8-4.8-16.4-4.8-9.6 0-18 4.8-8.2 4.6-14.8 12.6h-.4l.2-14.6h-16.2zM676.6 710.4h16l.4-60.6h.4q4 5.6 11.4 9.4 7.4 3.6 16.8 3.6t17.4-4.4q8-4.4 13.8-12 6-7.8 9.2-17.2 3.2-9.6 3.2-19.6 0-14-3.6-24-3.6-10.2-9.6-16.2-6-6.2-13-9t-13.8-2.8q-10 0-18.4 4.8-8.4 4.6-12.6 11.4h-.4v-13.4h-16zm17-121.2q4.2-7.4 11.6-12.8 7.6-5.6 16.4-5.6 11.2 0 18.8 10.2 7.6 10 7.6 29.2 0 7.4-2.2 14.6-2.2 7-6.2 12.6t-9.6 9q-5.4 3.2-11.8 3.2-14.6 0-25-16zM773.928 653q7.2 4.6 15 7.2 7.8 2.6 16.2 2.6 13 0 23-8.2 10-8.4 10-22 0-6.6-2.4-11.4-2.2-5-6-8.2-3.8-3.2-8-5.2-4-2-10.6-4.6-9.8-3.8-14.6-7.2-4.6-3.4-4.6-9.8 0-8.4 5.4-12.4 5.6-4.2 14.8-4.2 4.8 0 9 1.8 4.2 1.6 10 4.8l7.4-10.2q-5.8-3.8-13.4-6-7.4-2.4-15.6-2.4-14.2 0-24 8.2-9.6 8-9.6 21.6 0 6.4 2.2 11t5.8 7.6q3.6 3 7.4 5 4 2 10.2 4.4 10.6 4 15.6 8 5 3.8 5 11.4 0 7.8-6 12-5.8 4-13.4 4-5.8 0-11.2-2.4-5.4-2.4-10.8-6zM913.73 610.2q0-19.4 9.4-30 9.4-10.6 21.8-10.6 12.8 0 21.2 10.4 8.4 10.4 8.4 30.2 0 19.4-9.4 30-9.4 10.6-21.8 10.6-12.8 0-21.2-10.4-8.4-10.4-8.4-30.2zm-17.2 0q0 24.6 12.4 38.6t34.2 14q11.4 0 20.6-4.4 9.2-4.4 15.4-12 6.2-7.6 9.4-17t3.2-19.2q0-24.6-12.4-38.6t-34.2-14q-11.4 0-20.6 4.4-9.2 4.4-15.4 12-6.2 7.6-9.4 17t-3.2 19.2zM1074.06 557.6l-31.2 83.2h-.4l-28.2-83.2-16.6 4.4 36.6 98h15.6l40.2-97.6zM1179.86 608v-3.2q0-21.2-9.6-34.2-9.6-13-28.8-13-9.8 0-18.2 4.4-8.4 4.2-14.6 11.6-6.2 7.4-9.6 17-3.2 9.4-3.2 19.6 0 24.6 11.4 38.6 11.6 14 32.2 14 10.6 0 20.2-4.8t17.8-13l-7.8-8.6q-7.8 7-14.2 10.8-6.4 3.6-14.2 3.6-7.4 0-12.8-3-5.4-3.2-8.8-8.6-3.4-5.6-5-12.6-1.6-7.2-1.6-15.2V608zm-65.4-10.8q2.2-11.2 9.4-19.4t17.8-8.2q11.4 0 16.8 8 5.4 7.8 5.4 19.6zM1197.06 660h16l.8-65.4q6-11 13-16.2 7-5.2 12.8-5.2 2.2 0 6.2 1l4.8-15.2q-3.8-1.4-8.6-1.4-9.8 0-18 8-3.2 3.2-5.8 7-2.4 3.8-3.8 7.6l-.4-.4.2-19.4h-16.4zM284.54 780.4v12h17l-.4 36.4q-.2 13.8-.2 28.6 0 12.4 5 19 5.2 6.4 16.4 6.4 6.2 0 12.8-2.6 6.6-2.4 12.2-6l-5.2-10.4q-3.4 2.2-7.8 4-4.4 1.8-8.2 1.8-5 0-7.2-3.2-2-3.2-2-9.6 0-12.4.2-23.6l.4-40.8h27.4v-12h-27.2l.4-36.8h-16l-.4 36.8zM356.137 880h16l.8-69.6q7.8-9.4 15-13.8 7.2-4.6 14.8-4.6 8.6 0 13.4 4 4.8 4 4.8 11.8v14.4q-.2 11-.2 13l-.4 44.8h16l.4-49.4q0-2 .2-11.4v-11.4q0-14.8-7-22.4-7-7.8-23.4-7.8-9.2 0-18.4 5-9.2 4.8-15 13.4h-.4l.8-66h-16.6zM538.266 828v-3.2q0-21.2-9.6-34.2-9.6-13-28.8-13-9.8 0-18.2 4.4-8.4 4.2-14.6 11.6-6.2 7.4-9.6 17-3.2 9.4-3.2 19.6 0 24.6 11.4 38.6 11.6 14 32.2 14 10.6 0 20.2-4.8t17.8-13l-7.8-8.6q-7.8 7-14.2 10.8-6.4 3.6-14.2 3.6-7.4 0-12.8-3-5.4-3.2-8.8-8.6-3.4-5.6-5-12.6-1.6-7.2-1.6-15.2V828zm-65.4-10.8q2.2-11.2 9.4-19.4t17.8-8.2q11.4 0 16.8 8 5.4 7.8 5.4 19.6zM603.334 880h16l1.2-150h-16zM724.066 867.4q-2.4 1.8-4.2 2.6-1.8.8-4.2.8-4.2 0-5.8-3.8-1.4-4-1.4-10.4 0-9 .8-26 .8-18.6.8-27.8 0-11.8-6.4-18.4-6.4-6.8-18.6-6.8-5.4 0-9.6.8-4.2.8-8.6 2.6-4.2 1.8-9.2 4.8-5 2.8-13.4 8.4l6.6 10.4q10.8-8 16.8-10.8 6-3 12-3 7.6 0 11.4 4.2 3.8 4 3.8 10.8 0 4.2-.4 12.6-9.6.4-19.4 2.2-9.6 1.6-18.6 5.6-9 4-14.6 11-5.6 6.8-5.6 16.8 0 12.8 7.8 20.8 8 8 21 8 9 0 16.4-4.4 7.4-4.4 13.6-12.2.6 6.8 4.4 11.8 4 4.8 10.4 4.8 9.4 0 18.6-7.2zm-30.4-11.2q-5.4 6.8-11.2 10.8-5.6 3.8-12.4 3.8-8.4 0-13.2-4.4-4.6-4.4-4.6-12.6 0-12 9.8-17.4 10-5.6 32.4-8.4z"/><path d="M802.866 866.8h-53.4l56.6-79.2-3.4-7.2h-70.6v14.4h51.2l-56 76.8 3.4 8.4h72.2zM811.337 927.2h6.4q8.2 0 13.6-1.6t9.4-5.4q4-3.8 7.4-10.2 3.4-6.4 8-17.6l44.4-110-15.8-4.8-30.2 81h-.4l-27.6-81-17.2 4.8 37 96-10.8 23.8q-3.2 7.4-8.2 10.2-4.8 2.8-16 2.8zM1027.406 790.6h-.4q-3-5.4-10-9.2-7-3.8-15.6-3.8-8.4 0-16.6 4.2-8 4-14.4 11.2-6.4 7.2-10.2 17-3.8 9.8-3.8 20.8 0 14 3.6 24.2 3.6 10 9.6 16.2 6 6 13 8.8 7 2.8 13.8 2.8 10 0 18.4-4.6 8.4-4.8 12-11.6h.4l-.4 13.4h16.2l1.6-150h-16.4zm-.4 60.6q-3.2 7-10.6 12.8-7.4 5.6-16.4 5.6-11 0-18.8-10.2-7.6-10.2-7.6-29.2 0-7.4 2.2-14.4 2.2-7.2 6-12.8 4-5.6 9.6-8.8 5.6-3.4 12-3.4 7.4 0 13.2 3.8 6 3.6 11 12.2zM1078.934 830.2q0-19.4 9.4-30 9.4-10.6 21.8-10.6 12.8 0 21.2 10.4 8.4 10.4 8.4 30.2 0 19.4-9.4 30-9.4 10.6-21.8 10.6-12.8 0-21.2-10.4-8.4-10.4-8.4-30.2zm-17.2 0q0 24.6 12.4 38.6t34.2 14q11.4 0 20.6-4.4 9.2-4.4 15.4-12 6.2-7.6 9.4-17t3.2-19.2q0-24.6-12.4-38.6t-34.2-14q-11.4 0-20.6 4.4-9.2 4.4-15.4 12-6.2 7.6-9.4 17t-3.2 19.2zM1267.862 781.6l-33.2.6q-7.6-4.6-18.6-4.6-7 0-13.4 2.4-6.4 2.2-11.4 6.6-5 4.4-8 10.6-2.8 6-2.8 13.2 0 9 2.8 15.4 3 6.2 9.8 11.6-13 7.4-18.2 12-5 4.6-5 9 0 4.8 5.8 8.2 5.8 3.4 18.2 4.6v.4l-1.2.6q-5.4 2.8-9.4 5.2-4 2.4-7.8 5.6-3.6 3.2-6 7.2-2.4 4.2-2.4 9 0 8.2 4.4 13.6 4.4 5.6 11.4 8.8 7 3.2 14.8 4.4 7.8 1.2 15.4 1.2 8 0 16.6-2.2 8.8-2.2 16.2-6.8 7.6-4.6 12.2-11.4 4.6-6.8 4.6-15.6 0-12.6-10.8-18.6-10.6-6.2-32-9.4-10-1.4-16.6-2.8-6.4-1.4-9.6-2.6-3.2-1.4-4.4-2.4-1-1.2-1-2.8 0-2 2.2-4.2 2.2-2.4 8.8-7.4 8.2 3.8 17.4 3.8 7.2 0 13.6-2.4 6.4-2.6 11.2-7 4.8-4.6 7.4-10.6 2.6-6.2 2.6-13.2 0-11-7.2-19.2l23.6.6zm-84.8 117.2q0-7.2 4.6-12.8 4.6-5.4 17.2-12.2 12.6 2.2 20.2 4.2 7.8 1.8 12.2 4 4.4 2.4 6.2 5.2 2 3 2 7.4 0 5.8-3.2 10.2-3.2 4.4-8.4 7.2t-11 4.2q-5.6 1.4-10.6 1.4-4.8 0-9.8-1-5-.8-9.4-3t-7.2-5.8q-2.8-3.6-2.8-9zm52.4-87.4q0 10-5 16.4-5 6.2-15.4 6.2-8.6 0-13.6-6.4t-5-15.6q0-10.4 5.4-17 5.6-6.6 13.8-6.6 10.2 0 15 6.2 4.8 6.2 4.8 16.8zM1282.99 880h18.4v-19.2h-18.4z"/></g></svg>