<svg xmlns="http://www.w3.org/2000/svg" viewBox="0 0 800 500"><path fill="#fff" d="M0 0h800v500H0z"/><g font-weight="700" font-size="100" font-family="Syntax" text-anchor="middle" fill="#111"><path d="M209.77 110h12.8l.5-58.2h19.1l.1-11h-51.3l-.1 11h19.4zM251.034 110h12.2l.2-34.2q2.9-2.9 5.7-4.7 2.8-1.9 5.4-1.9 3.6 0 5.1 1.8 1.5 1.8 1.5 5 0 3.5-.1 9.5 0 5.9-.1 11.9l-.1 12.6h12.2l.3-25.3v-4.4q.1-3.9.1-6.9 0-3.2-.7-5.8-.6-2.7-2.1-4.8-1.5-2.1-4.2-3.3-2.6-1.3-6.4-1.3-4.8 0-9 2t-7.3 5.5h-.2l.2-30.7h-12.2zM347.598 86.3q0-13.5-5.2-20.8-5.2-7.3-15.6-7.3-5.3 0-9.6 2.3-4.3 2.2-7.3 6t-4.6 8.6q-1.5 4.8-1.5 9.9 0 5.8 1.6 10.7 1.6 4.9 4.6 8.4 3 3.5 7 5.4 4.1 1.9 8.8 1.9 5.9 0 11.1-2.6 5.2-2.7 9.4-7.3l-7-6.4q-2.8 3-5.6 4.8-2.8 1.7-6.1 1.7-3 0-5.2-1.3-2.2-1.4-3.6-3.6-1.4-2.3-2.1-4.9-.6-2.7-.7-5.5zm-31-8.6q.4-4 3.3-7.4 3-3.5 6.9-3.5 4.5 0 6.7 3.2 2.2 3.1 2.5 7.7zM414.732 134.2h12.2l.4-74.6h-11.7V64h-.2q-1.6-3-4.7-4.4-3-1.4-6.9-1.4-5.1 0-9.3 2.5-4.2 2.4-7.1 6.6-2.9 4.1-4.4 9.1-1.5 4.9-1.5 9.8 0 5.1 1.4 9.7t4.1 8.1q2.7 3.5 6.5 5.5 3.8 1.9 8.3 1.9 4.6 0 8-2 3.4-2 5.1-5.7l.2.2zm.4-39.8q-2.1 3.2-4.5 4.9-2.3 1.7-5.6 1.7-5.5 0-8.4-4.7-2.9-4.8-2.9-11.2 0-6.5 3.5-11.5 3.6-5 9.9-5 2.4 0 4.7 1.2 2.4 1.2 3.4 2.7zM482.596 59.6h-12.2l-.2 34.2q-2.9 2.8-5.7 4.7-2.8 1.9-5.4 1.9-3.7 0-5.2-1.9-1.4-1.9-1.4-6.4 0-5.8.2-19.2v-.7l.1-12.6h-12.2l-.3 25.3v4.8q-.1 3.8-.1 4.6 0 8.1 3.1 12.6t10.9 4.5q4.4 0 8.5-2 4.1-2.1 7.1-5.5h.2v6.1h12.2zM496.66 110h12.2l.5-50.4h-12.2zm.5-57.4h12.2l.1-11.8h-12.2zM554.495 95.4q-2.6 2.7-4.9 4.2-2.3 1.4-5.4 1.4-4.7 0-7.8-4.4-3-4.4-3-12.1 0-6.3 3-11.1t8.4-4.8q2.8 0 5 1.2 2.2 1.1 5.1 3.5l.1.1 6.9-6.7q-3.6-4-8-6.2-4.3-2.3-9.6-2.3-5.4 0-9.9 2.3-4.4 2.2-7.5 6.1-3.1 3.9-4.7 8.8t-1.6 10.2q0 4.7 1.4 9.3 1.5 4.6 4.2 8.4 2.8 3.7 6.9 5.9 4.2 2.2 9.4 2.2 5.8 0 10.4-2.4 4.6-2.5 8.4-7.2zM567.83 110h12.2V85.3h.2l20.1 27.8 10-6.9-17.6-22.5 17.6-19.8-8.7-7.3-21.4 26.5h-.2l.6-48.1h-12.2zM195.84 185.2q2.1-3.2 4.4-4.9 2.4-1.7 5.7-1.7 5.5 0 8.4 4.8 2.9 4.7 2.9 11.1 0 6.5-3.6 11.5-3.5 5-9.8 5-2.4 0-4.8-1.2-2.3-1.2-3.3-2.7zm-12.2 34.8h11.7v-4.4h.2q1.7 3 4.7 4.4 3 1.4 6.9 1.4 5.1 0 9.3-2.4 4.2-2.5 7.1-6.6 2.9-4.2 4.4-9.1 1.5-5 1.5-9.9 0-5.1-1.4-9.7t-4.1-8.1q-2.7-3.5-6.5-5.4-3.8-2-8.3-2-4.6 0-8 2-3.4 2-5.1 5.7l-.2-.2.4-30.7h-12.2zM239.803 220h12.3l.3-31.2q2-4.2 4.6-6.5 2.6-2.3 6-2.3.9 0 2.9.4l2-11.7q-2-.5-3.6-.5-4.3.1-7 3-2.6 2.8-4.7 7.8l-.1-.2v-9.2h-12.2zM270.302 194.8q0 5.5 1.5 10.3 1.5 4.8 4.5 8.5 3 3.6 7.5 5.7 4.6 2.1 10.6 2.1 5.6 0 10.1-2.1t7.6-5.8q3.1-3.7 4.7-8.5 1.7-4.8 1.7-10.2 0-11.7-6.3-19.1-6.2-7.5-17.8-7.5-5.4 0-9.9 2.2-4.4 2.2-7.6 6-3.2 3.8-4.9 8.6-1.7 4.8-1.7 9.8zm12.2.4q0-2.8.6-5.8t2-5.6q1.4-2.6 3.7-4.2 2.4-1.6 5.6-1.6 6 0 8.9 4.6 3 4.5 3 12.6 0 2.8-.7 5.7-.6 2.8-2 5.3-1.4 2.4-3.8 3.9-2.3 1.5-5.4 1.5-3.2 0-5.6-1.6-2.3-1.6-3.7-4.1-1.4-2.6-2-5.4-.6-2.8-.6-5.3zM338.966 220h12.3l9.8-36.9h.2l8.9 36.9h12.4l16.2-48.1-11.3-3.7-10.2 36.9h-.2l-9.3-35.5h-12.9l-9.9 35.5h-.2l-9.2-36.9-12 3zM406.6 220h12.2l.2-34.2q2.9-2.9 5.7-4.7 2.8-1.9 5.4-1.9 3.8 0 5.2 1.9 1.4 1.8 1.4 6.5 0 5.3-.1 15.4-.1 2.2-.1 4.4l-.1 12.6h12.2l.3-25.3v-4.4q.1-3.9.1-6.9 0-3.2-.7-5.8-.6-2.7-2.1-4.8-1.5-2.1-4.2-3.3-2.6-1.3-6.4-1.3-4.8 0-9 2t-7.3 5.5h-.2v-6.1h-12zM493.398 220h12.3v-41.2h10.7v-9.2h-10.4v-6.9q0-4.5 2-6.6 2.1-2.1 5.7-2.1h2.8v-9.8h-3.9q-9 0-14 5.2t-5 13.7v6.5h-8v9.2h8zM520.497 194.8q0 5.5 1.5 10.3 1.5 4.8 4.5 8.5 3 3.6 7.5 5.7 4.6 2.1 10.6 2.1 5.6 0 10.1-2.1t7.6-5.8q3.1-3.7 4.7-8.5 1.7-4.8 1.7-10.2 0-11.7-6.3-19.1-6.2-7.5-17.8-7.5-5.4 0-9.9 2.2-4.4 2.2-7.6 6-3.2 3.8-4.9 8.6-1.7 4.8-1.7 9.8zm12.2.4q0-2.8.6-5.8t2-5.6q1.4-2.6 3.7-4.2 2.4-1.6 5.6-1.6 6 0 8.9 4.6 3 4.5 3 12.6 0 2.8-.7 5.7-.6 2.8-2 5.3-1.4 2.4-3.8 3.9-2.3 1.5-5.4 1.5-3.2 0-5.6-1.6-2.3-1.6-3.7-4.1-1.4-2.6-2-5.4-.6-2.8-.6-5.3zM574.06 215.8l10.3 6.3 13.5-19 12.1 19 10.9-6.3-16-21 15.6-21.1-10.1-6.7-12.5 19.2-12.1-19.2-10.7 6.7 15.5 21.1zM157.903 354.2q6.3 0 10.2-1.1 3.9-1 6-3.4 2.2-2.4 3-6.4.9-3.9.9-10.3l.4-53.4h-12.2l-.4 52.3q0 4.4-.3 6.8-.3 2.4-1.1 3.7-.8 1.3-2.3 1.8-1.5.6-4.2.8zm8.3-81.6h12.2l.1-11.8h-12.2zM235.037 279.6h-12.2l-.2 34.2q-2.9 2.8-5.7 4.7-2.8 1.9-5.4 1.9-3.7 0-5.2-1.9-1.4-1.9-1.4-6.4 0-5.8.2-19.2v-.7l.1-12.6h-12.2l-.3 25.3v4.8q-.1 3.8-.1 4.6 0 8.1 3.1 12.6t10.9 4.5q4.4 0 8.5-2 4.1-2.1 7.1-5.5h.2v6.1h12.2zM248.302 330h12.1l.4-34.1q1.9-2.4 4.9-4.5 3.1-2.2 5.5-2.2 2.9 0 4.5 1.7 1.6 1.6 1.6 4.5v5.2q-.1 6-.1 9.6l-.1 19.8h12.1l.4-34.1q1.9-2.4 4.9-4.5 3.1-2.2 5.5-2.2 2.9 0 4.5 1.7 1.6 1.6 1.6 4.5v5.2q-.1 6-.1 9.6l-.1 19.8h12.2q0-3.1.1-18.7v-18.6q0-2.7-.6-5.2t-2.1-4.6q-1.5-2.1-4.2-3.4-2.7-1.3-6.7-1.3-4.8 0-9.2 2.4-4.4 2.3-7.3 6.2-1.2-4.3-4.5-6.4-3.2-2.2-7.8-2.2-4.5 0-8.6 2.3-4 2.3-6.4 6l-.2-.2v-6.7h-12.1zM330.6 354.2h12.2l.3-27.8h.2q2 2.5 5 3.6 3 1.2 6.4 1.2 5.2 0 9.4-2.2 4.2-2.3 7-6.1 2.9-3.9 4.3-8.7 1.5-4.9 1.5-10.1 0-5.6-1.6-10.4-1.5-4.8-4.4-8.3-2.9-3.5-6.8-5.3-3.9-1.9-8.6-1.9-3.9 0-7.4 1.9-3.4 1.8-5.3 4.8h-.2v-5.3h-11.7zm12.7-57.7q.6-3.4 2.9-5.6 2.4-2.3 6.1-2.3 5.5 0 8.9 4.5 3.5 4.5 3.5 11.6 0 7.2-3.9 11.7-3.8 4.4-8.8 4.4-3 0-5.1-1.3-2-1.3-3.6-3.3zM384.664 326.6q8.1 4.8 17.3 4.8 7.9 0 13.4-4.2 5.6-4.2 5.6-11.9 0-3.8-1.3-6.4-1.3-2.6-3.4-4.2-2.1-1.6-4.5-2.5-2.3-1-5.7-2-4.8-1.4-7-2.7-2.2-1.4-2.2-4.1 0-2.8 2.4-4.4 2.4-1.6 5.4-1.6 2.7 0 5.7 1.2 3.1 1.1 5.4 2.8l5.2-7.7q-3.2-2.7-7.8-4.1-4.6-1.4-9.3-1.4-7.8 0-13.2 4.1-5.4 4.1-5.4 11.5 0 4.2 1.3 7.1 1.3 2.8 3.4 4.5 2.1 1.6 4.3 2.5 2.3.8 5.7 1.8 4.6 1.2 6.7 2.5 2.1 1.3 2.1 4.1 0 2.9-2 4.4-2 1.5-5 1.5-3.1 0-6.2-1.1-3-1.1-6.4-3.1zM456.434 304.8q0 5.5 1.5 10.3 1.5 4.8 4.5 8.5 3 3.6 7.5 5.7 4.6 2.1 10.6 2.1 5.6 0 10.1-2.1t7.6-5.8q3.1-3.7 4.7-8.5 1.7-4.8 1.7-10.2 0-11.7-6.3-19.1-6.2-7.5-17.8-7.5-5.4 0-9.9 2.2-4.4 2.2-7.6 6-3.2 3.8-4.9 8.6-1.7 4.8-1.7 9.8zm12.2.4q0-2.8.6-5.8t2-5.6q1.4-2.6 3.7-4.2 2.4-1.6 5.6-1.6 6 0 8.9 4.6 3 4.5 3 12.6 0 2.8-.7 5.7-.6 2.8-2 5.3-1.4 2.4-3.8 3.9-2.3 1.5-5.4 1.5-3.2 0-5.6-1.6-2.3-1.6-3.7-4.1-1.4-2.6-2-5.4-.6-2.8-.6-5.3zM526.398 330h11.6l19.4-48.3-11.6-3.5-13.1 36.6h-.2l-10.9-36.6-12.2 3.5zM605.898 306.3q0-13.5-5.2-20.8-5.2-7.3-15.6-7.3-5.3 0-9.6 2.3-4.3 2.2-7.3 6t-4.6 8.6q-1.5 4.8-1.5 9.9 0 5.8 1.6 10.7 1.6 4.9 4.6 8.4 3 3.5 7 5.4 4.1 1.9 8.8 1.9 5.9 0 11.1-2.6 5.2-2.7 9.4-7.3l-7-6.4q-2.8 3-5.6 4.8-2.8 1.7-6.1 1.7-3 0-5.2-1.3-2.2-1.4-3.6-3.6-1.4-2.3-2.1-4.9-.6-2.7-.7-5.5zm-31-8.6q.4-4 3.3-7.4 3-3.5 6.9-3.5 4.5 0 6.7 3.2 2.2 3.1 2.5 7.7zM614.998 330h12.3l.3-31.2q2-4.2 4.6-6.5 2.6-2.3 6-2.3.9 0 2.9.4l2-11.7q-2-.5-3.6-.5-4.3.1-7 3-2.6 2.8-4.7 7.8l-.1-.2v-9.2h-12.2zM149.836 429.8q-1.7 1.2-3 1.8-1.2.6-2.6.6-2.2 0-3.2-1.3-.9-1.4-.9-4 0-8.3.1-13.3l.3-14.8h11.2v-9.2l-11.2.2.4-18h-12.2l-.4 18-6.8-.2v9.2h6.8l-.3 15.4q-.1 4.4-.1 12.1 0 7.8 3.6 11.5 3.6 3.6 10.1 3.6 1.7 0 3.6-.4 1.9-.4 4-1.6l4.1-2.2zM159.334 440h12.2l.2-34.2q2.9-2.9 5.7-4.7 2.8-1.9 5.4-1.9 3.6 0 5.1 1.8 1.5 1.8 1.5 5 0 3.5-.1 9.5 0 5.9-.1 11.9l-.1 12.6h12.2l.3-25.3v-4.4q.1-3.9.1-6.9 0-3.2-.7-5.8-.6-2.7-2.1-4.8-1.5-2.1-4.2-3.3-2.6-1.3-6.4-1.3-4.8 0-9 2t-7.3 5.5h-.2l.2-30.7h-12.2zM255.898 416.3q0-13.5-5.2-20.8-5.2-7.3-15.6-7.3-5.3 0-9.6 2.3-4.3 2.2-7.3 6t-4.6 8.6q-1.5 4.8-1.5 9.9 0 5.8 1.6 10.7 1.6 4.9 4.6 8.4 3 3.5 7 5.4 4.1 1.9 8.8 1.9 5.9 0 11.1-2.6 5.2-2.7 9.4-7.3l-7-6.4q-2.8 3-5.6 4.8-2.8 1.7-6.1 1.7-3 0-5.2-1.3-2.2-1.4-3.6-3.6-1.4-2.3-2.1-4.9-.6-2.7-.7-5.5zm-31-8.6q.4-4 3.3-7.4 3-3.5 6.9-3.5 4.5 0 6.7 3.2 2.2 3.1 2.5 7.7zM293.633 440h12.2l.6-75h-12.2zM325.067 404.9q5.3-4.1 8.1-5.5 2.9-1.4 5-1.4 2.9 0 4.3 1.4 1.5 1.4 1.5 5.3v3.3q-7.9 1.3-13.3 3.3-5.3 1.9-8.3 4.3-2.9 2.3-4.2 5.1-1.2 2.7-1.2 6 0 6.7 4.1 10.7 4.2 4 11 4 3.5 0 6.8-1.7 3.4-1.8 6.1-5 .7 3.1 3 4.9 2.4 1.8 5.7 1.8 2 0 4.4-.9 2.5-.8 6.1-3.2l-2.9-6.1q-1.5.7-2.3 1-.8.3-1.3.3-1 0-1.9-1.4-.8-1.4-.8-3.4 0-1.6.2-5.4v-.9l.4-14.5q.1-1.3.1-4.2 0-7-4.2-10.7-4.2-3.8-10.2-3.8-2.2 0-4.4.4-2.1.3-4.7 1.4-2.5 1-5.7 3.1-3.2 2-7.2 5.3zm18.6 22.6q-2.1 2.2-4.5 3.5-2.3 1.2-4.2 1.2-2.9 0-4.7-1.6-1.7-1.6-1.7-4.3 0-3.9 3.3-6.2 3.4-2.4 12-4.3zM369.967 440h34.6v-9.8h-22.3l23.5-33.4-3.7-7.2h-34.5v9.8h22.1l-23.3 33.4zM410.303 464.2h2.3q9.2 0 14.1-4.2t8.7-13.7l21.8-54.6-11.6-3.5-13.1 36.6h-.2l-10.9-36.6-12.2 3.5 17 48.3-3.6 7.7q-1.1 2.3-2.6 3.7-1.4 1.4-2.9 2-1.5.7-2.7.8-1.2.2-2.3.2h-1.8zM523.438 440h11.7l.3-75h-12.2l-.3 28.2h-.2q-1.9-2.5-4.9-3.6-3-1.2-6.3-1.2-5.1 0-9.2 2.3-4.1 2.2-7 6.1-2.8 3.8-4.3 8.7-1.4 4.8-1.4 10 0 5.6 1.5 10.3 1.6 4.7 4.4 8.2 2.9 3.4 6.7 5.3 3.9 1.9 8.5 1.9 3.7 0 7.1-1.9 3.5-1.9 5.4-4.8h.2zm-.7-17.1q-.5 3.2-3.2 5.6-2.7 2.3-5.6 2.3-5.3 0-8.7-4.4-3.4-4.5-3.4-11.5 0-7.2 3.6-11.6 3.7-4.5 8.8-4.5 2.9 0 5 1.4 2.1 1.3 3.5 3.2zM545.302 414.8q0 5.5 1.5 10.3 1.5 4.8 4.5 8.5 3 3.6 7.5 5.7 4.6 2.1 10.6 2.1 5.6 0 10.1-2.1t7.6-5.8q3.1-3.7 4.7-8.5 1.7-4.8 1.7-10.2 0-11.7-6.3-19.1-6.2-7.5-17.8-7.5-5.4 0-9.9 2.2-4.4 2.2-7.6 6-3.2 3.8-4.9 8.6-1.7 4.8-1.7 9.8zm12.2.4q0-2.8.6-5.8t2-5.6q1.4-2.6 3.7-4.2 2.4-1.6 5.6-1.6 6 0 8.9 4.6 3 4.5 3 12.6 0 2.8-.7 5.7-.6 2.8-2 5.3-1.4 2.4-3.8 3.9-2.3 1.5-5.4 1.5-3.2 0-5.6-1.6-2.3-1.6-3.7-4.1-1.4-2.6-2-5.4-.6-2.8-.6-5.3zM652.166 397.9v-7.8l-16.3.3q-2.9-1.2-5.2-1.7-2.2-.5-6-.5-8.1 0-13.8 4.7-5.7 4.6-5.7 12.4 0 3.8 1.7 6.9 1.7 3 5.2 4.9-7.1 4.5-9.5 6.7-2.3 2.1-2.3 5.2t2.6 4.5q2.7 1.3 7.6 2.4l.6.1v.2q-5.1 2.6-8 5.4-2.8 2.9-2.8 7.8 0 2.8 1.3 5.4 1.4 2.7 4.2 4.8 2.8 2.1 7.1 3.3 4.4 1.3 10.2 1.3 4.9 0 9.7-1.3 4.9-1.3 8.9-4 4.1-2.6 6.5-6.5 2.4-3.9 2.4-8.9 0-4.5-1.9-7.3-1.9-2.9-5.2-4.4-3.2-1.5-7-2.1-3.7-.7-9.1-1.2-9-.8-11.7-1.4-2.7-.6-2.7-2.2 0-1 .8-1.8.9-.9 2.6-2.1.7-.5 1-.7 4.1 1.3 9.2 1.3 7.6 0 13.1-4.4t5.5-11.9q0-4.5-2.9-7.7zm-41.5 49.8q0-3 2.1-5.1 2.1-2 6-4.4.5-.3.7-.4 7 .8 10.7 1.4 3.7.6 5.6 1.4 1.9.8 2.5 1.9.7 1.2.7 3.3 0 4.1-4.3 7.3-4.3 3.3-10.6 3.3-2.2 0-4.5-.5-2.3-.4-4.4-1.5-2-1-3.3-2.7-1.2-1.7-1.2-4zm15-51.7q3.6 0 5.7 2.6 2.2 2.5 2.2 6.2 0 4.1-2.1 6.6-2.1 2.4-6.1 2.4-4.1 0-6.4-2.5-2.2-2.5-2.2-6 0-4.2 2.4-6.7 2.4-2.6 6.5-2.6zM660.13 440h13.4v-13.4h-13.4z"/></g></svg>