<svg xmlns="http://www.w3.org/2000/svg" viewBox="0 0 800 500"><path fill="#fff" d="M0 0h800v500H0z"/><g font-weight="400" font-size="100" font-family="Times New Roman" letter-spacing="-.03em" text-anchor="middle" fill="#222"><path d="M270.092 43.79l.732 15.526h-1.855q-.538-4.1-1.466-5.86-1.514-2.83-4.053-4.15-2.49-1.367-6.59-1.367h-9.327v50.585q0 6.104 1.32 7.618 1.854 2.05 5.71 2.05h2.296V110h-28.077v-1.807h2.344q4.2 0 5.957-2.54 1.074-1.56 1.074-7.128V47.94h-7.96q-4.637 0-6.59.683-2.54.928-4.346 3.565-1.807 2.636-2.15 7.128h-1.854l.78-15.527zM286.623 40.566V73.28q5.42-5.956 8.594-7.616 3.174-1.71 6.347-1.71 3.81 0 6.543 2.1 2.735 2.1 4.053 6.592.928 3.125.928 11.426v15.82q0 4.25.683 5.81.49 1.173 1.662 1.857 1.172.682 4.297.682V110h-21.974v-1.758h1.025q3.126 0 4.347-.928 1.22-.976 1.71-2.832.145-.78.145-4.59v-15.82q0-7.324-.78-9.62-.733-2.294-2.393-3.417-1.662-1.172-4.005-1.172-2.393 0-4.98 1.27-2.59 1.27-6.202 5.127v23.633q0 4.59.488 5.712.538 1.124 1.906 1.905 1.416.732 4.834.732V110h-22.168v-1.758q2.978 0 4.687-.928.976-.488 1.562-1.855.586-1.368.586-5.567v-40.48q0-7.665-.39-9.423-.343-1.758-1.124-2.392-.733-.635-2.002-.635-1.025 0-3.32.78l-.684-1.708 13.38-5.47zM328.008 82.12q-.05 9.96 4.834 15.624 4.883 5.664 11.474 5.664 4.395 0 7.618-2.392 3.27-2.442 5.468-8.3l1.514.975q-1.025 6.69-5.957 12.208-4.933 5.47-12.355 5.47-8.056 0-13.818-6.25-5.713-6.3-5.713-16.895 0-11.475 5.86-17.87 5.908-6.447 14.795-6.447 7.518 0 12.352 4.98 4.834 4.932 4.834 13.233zm0-2.833h20.703q-.243-4.297-1.024-6.055-1.22-2.734-3.663-4.296-2.392-1.563-5.03-1.563-4.052 0-7.274 3.174-3.175 3.125-3.712 8.74zM423.424 63.955v57.52q0 4.296.586 5.517.586 1.22 1.806 1.904 1.27.684 4.883.684v1.807h-22.56v-1.807h.928q2.735 0 4.15-.78.977-.538 1.563-1.954.587-1.367.587-5.37v-19.24q-4.443 5.274-7.763 7.227-3.32 1.904-6.885 1.904-6.495 0-11.622-5.908-5.078-5.91-5.078-15.82 0-11.378 6.738-18.507 6.738-7.178 16.26-7.178 2.783 0 5.127.78 2.343.783 4.2 2.345 2.83-1.367 5.42-3.125zm-8.057 35.205V78.164q0-3.662-.976-5.762-.927-2.1-3.37-3.564-2.44-1.465-5.516-1.465-5.47 0-9.375 4.64-3.907 4.637-3.907 14.06 0 9.034 3.955 13.722 4.004 4.687 9.62 4.687 2.88 0 5.126-1.22 2.246-1.27 4.443-4.102zM470.033 65.273v27.1q0 7.764.342 9.522.39 1.71 1.172 2.392.83.684 1.904.684 1.515 0 3.42-.83l.683 1.71-13.38 5.517h-2.196v-9.472q-5.762 6.25-8.79 7.86-3.027 1.612-6.396 1.612-3.76 0-6.542-2.148-2.734-2.2-3.81-5.616-1.073-3.418-1.073-9.668v-19.97q0-3.175-.683-4.396-.684-1.22-2.05-1.855-1.32-.684-4.835-.635v-1.807h15.674v29.932q0 6.25 2.15 8.203 2.196 1.953 5.273 1.953 2.1 0 4.736-1.317 2.684-1.318 6.347-5.03v-25.34q0-3.81-1.416-5.128-1.367-1.367-5.76-1.465v-1.807zM489.2 40.566q2.052 0 3.468 1.465 1.465 1.417 1.465 3.468 0 2.05-1.465 3.516-1.416 1.465-3.467 1.465-2.05 0-3.514-1.466-1.465-1.465-1.465-3.516 0-2.05 1.417-3.467 1.465-1.464 3.564-1.464zm4.054 23.39v35.937q0 4.2.586 5.615.635 1.367 1.806 2.05 1.22.684 4.395.684V110h-21.728v-1.758q3.272 0 4.395-.635 1.123-.634 1.758-2.1.683-1.464.683-5.614V82.656q0-7.275-.44-9.424-.34-1.562-1.073-2.148-.733-.635-2.002-.635-1.367 0-3.32.732l-.684-1.758 13.475-5.47zM540.547 93.008q-1.807 8.838-7.08 13.623-5.274 4.737-11.67 4.737-7.617 0-13.28-6.396-5.665-6.396-5.665-17.284 0-10.547 6.25-17.14 6.298-6.59 15.087-6.59 6.59 0 10.84 3.515 4.247 3.467 4.247 7.227 0 1.856-1.22 3.028-1.172 1.123-3.32 1.123-2.882 0-4.346-1.856-.83-1.025-1.122-3.906-.245-2.88-1.954-4.395-1.71-1.463-4.736-1.463-4.883 0-7.86 3.613-3.956 4.785-3.956 12.646 0 8.008 3.906 14.16 3.955 6.104 10.644 6.104 4.786 0 8.594-3.27 2.686-2.248 5.225-8.156zM557.127 40.566v44.532l11.377-10.4q3.613-3.32 4.2-4.2.39-.586.39-1.172 0-.976-.83-1.66-.782-.732-2.637-.83v-1.563h19.434v1.563q-4.003.098-6.69 1.22-2.636 1.124-5.81 4.005l-11.474 10.596 11.475 14.502q4.786 6.006 6.446 7.617 2.344 2.295 4.1 2.98 1.222.487 4.25.487V110h-21.73v-1.758q1.856-.05 2.49-.537.685-.537.685-1.465 0-1.123-1.952-3.613l-13.72-17.53v14.844q0 4.347.585 5.714.635 1.367 1.758 1.953 1.124.586 4.884.635V110H541.6v-1.758q3.418 0 5.127-.83 1.025-.537 1.562-1.66.73-1.61.73-5.566V59.463q0-7.764-.34-9.473-.342-1.758-1.123-2.392-.782-.684-2.05-.684-1.027 0-3.077.83l-.83-1.71 13.28-5.468zM221.85 182.988q6.494-9.033 14.013-9.033 6.885 0 12.012 5.908 5.127 5.86 5.127 16.065 0 11.914-7.91 19.19-6.787 6.25-15.137 6.25-3.906 0-7.96-1.417-4.003-1.415-8.202-4.247v-46.338q0-7.617-.39-9.375-.342-1.758-1.124-2.392-.782-.635-1.954-.635-1.367 0-3.418.78l-.683-1.708 13.427-5.47h2.198zm0 3.125v26.758q2.49 2.443 5.127 3.712 2.685 1.22 5.468 1.22 4.444 0 8.252-4.882 3.858-4.883 3.858-14.21 0-8.593-3.858-13.183-3.808-4.638-8.69-4.638-2.59 0-5.177 1.317-1.953.977-4.98 3.906zM269.68 173.955v10.06q5.615-10.06 11.523-10.06 2.686 0 4.443 1.66 1.758 1.612 1.758 3.76 0 1.904-1.27 3.223-1.27 1.318-3.027 1.318-1.71 0-3.857-1.66-2.1-1.71-3.125-1.71-.88 0-1.904.977-2.197 2.002-4.54 6.592v21.436q0 3.712.927 5.616.635 1.318 2.247 2.197 1.61.88 4.638.88V220h-22.9v-1.758q3.418 0 5.078-1.074 1.22-.78 1.71-2.49.243-.83.243-4.737v-17.333q0-7.812-.342-9.277-.292-1.514-1.17-2.197-.83-.684-2.1-.684-1.514 0-3.418.732l-.488-1.758 13.525-5.47zM308.867 173.955q10.156 0 16.31 7.715 5.223 6.592 5.223 15.137 0 6.006-2.88 12.158-2.88 6.152-7.96 9.277-5.03 3.125-11.23 3.125-10.107 0-16.064-8.056-5.03-6.787-5.03-15.234 0-6.152 3.028-12.207 3.076-6.104 8.056-8.985 4.98-2.93 10.547-2.93zm-1.513 3.174q-2.588 0-5.225 1.56-2.59 1.515-4.2 5.373-1.612 3.857-1.612 9.912 0 9.765 3.858 16.845 3.906 7.08 10.254 7.08 4.736 0 7.812-3.906 3.076-3.906 3.076-13.428 0-11.914-5.127-18.75-3.465-4.687-8.836-4.687zM331.502 175.273h18.75v1.807q-2.588.195-3.418.928-.78.732-.78 2.1 0 1.513.83 3.662l9.57 25.732 9.618-20.947-2.54-6.592q-1.17-2.93-3.075-4.053-1.074-.683-4.004-.83v-1.807h21.29v1.807q-3.516.147-4.98 1.27-.978.78-.978 2.49 0 .976.39 2.002l10.157 25.683 9.424-24.755q.976-2.637.976-4.2 0-.927-.976-1.66-.928-.732-3.71-.83v-1.807h14.11v1.807q-4.248.635-6.25 5.762l-14.94 38.525h-2.003l-11.182-28.564-13.036 28.564h-1.807l-14.355-37.597q-1.416-3.565-2.783-4.786-1.368-1.27-4.298-1.904z"/><path d="M416.295 183.428q7.86-9.473 14.99-9.473 3.662 0 6.3 1.856 2.636 1.807 4.198 6.006 1.074 2.93 1.074 8.985v19.093q0 4.248.684 5.76.538 1.222 1.71 1.906 1.22.682 4.443.682V220h-22.12v-1.758h.93q3.124 0 4.345-.928 1.27-.976 1.757-2.832.196-.732.196-4.59v-18.31q0-6.103-1.61-8.838-1.563-2.783-5.323-2.783-5.81 0-11.572 6.35v23.583q0 4.54.537 5.615.684 1.416 1.856 2.1 1.22.634 4.882.634V220h-22.12v-1.758h.978q3.418 0 4.59-1.71 1.22-1.757 1.22-6.64v-16.6q0-8.058-.39-9.815-.342-1.758-1.123-2.393-.733-.635-2.002-.635-1.368 0-3.272.732l-.73-1.758 13.475-5.47h2.1zM489.738 178.79v29.394q0 6.25 1.367 7.91 1.807 2.148 4.834 2.148h4.052V220h-26.71v-1.758h2.003q1.953 0 3.565-.976 1.61-.977 2.197-2.637.635-1.66.635-6.446V178.79h-8.692v-3.517h8.692v-2.93q0-6.69 2.148-11.327 2.15-4.64 6.543-7.47 4.443-2.882 9.96-2.882 5.128 0 9.425 3.32 2.832 2.198 2.832 4.932 0 1.465-1.27 2.783-1.27 1.27-2.734 1.27-1.123 0-2.393-.783-1.22-.83-3.027-3.466-1.807-2.685-3.32-3.613-1.514-.927-3.37-.927-2.246 0-3.808 1.22-1.563 1.172-2.246 3.71-.684 2.492-.684 12.94v3.223h11.524v3.516z"/><path d="M524.53 173.955q10.158 0 16.31 7.715 5.224 6.592 5.224 15.137 0 6.006-2.88 12.158-2.88 6.152-7.96 9.277-5.03 3.125-11.23 3.125-10.107 0-16.064-8.056-5.03-6.787-5.03-15.234 0-6.152 3.028-12.207 3.076-6.104 8.056-8.985 4.98-2.93 10.547-2.93zm-1.512 3.174q-2.588 0-5.225 1.56-2.588 1.515-4.2 5.373-1.61 3.857-1.61 9.912 0 9.765 3.857 16.845 3.906 7.08 10.254 7.08 4.736 0 7.812-3.906 3.076-3.906 3.076-13.428 0-11.914-5.127-18.75-3.466-4.687-8.837-4.687zM547.85 175.273h21.045v1.807q-2.002 0-2.832.684-.782.683-.782 1.806 0 1.172 1.71 3.614.537.78 1.612 2.44l3.173 5.08 3.662-5.08q3.516-4.833 3.516-6.103 0-1.024-.83-1.708-.83-.732-2.686-.732v-1.807h15.137v1.807q-2.392.147-4.15 1.318-2.393 1.66-6.543 7.227l-6.103 8.154 11.133 16.015q4.102 5.908 5.86 7.13 1.757 1.17 4.54 1.317V220h-21.093v-1.758q2.197 0 3.418-.976.928-.684.928-1.807 0-1.124-3.125-5.665l-6.543-9.57-7.178 9.57q-3.32 4.443-3.32 5.273 0 1.172 1.074 2.15 1.124.927 3.32 1.024V220h-14.6v-1.758q1.76-.244 3.078-1.22 1.855-1.417 6.25-7.227l9.375-12.45-8.497-12.306q-3.613-5.274-5.615-6.593-1.952-1.367-4.93-1.367zM205.918 260.518q2.1 0 3.564 1.464 1.465 1.465 1.465 3.565 0 2.05-1.465 3.515-1.464 1.465-3.564 1.465-2.05 0-3.516-1.465-1.464-1.464-1.464-3.515 0-2.1 1.464-3.565 1.465-1.464 3.516-1.464zm4.2 23.437v45.02q0 11.474-4.884 17.04-4.882 5.567-12.695 5.567-4.444 0-6.593-1.61-2.148-1.613-2.148-3.322 0-1.71 1.22-2.93 1.17-1.22 2.783-1.22 1.27 0 2.588.635.83.342 3.174 2.44 2.393 2.15 4.004 2.15 1.172 0 2.295-.928 1.123-.88 1.66-3.027.538-2.1.538-9.18v-31.836q0-7.373-.44-9.473-.34-1.61-1.073-2.196-.733-.635-2.002-.635-1.367 0-3.32.732l-.684-1.758 13.478-5.47zM258.533 285.273v27.1q0 7.764.342 9.522.39 1.71 1.172 2.392.83.684 1.904.684 1.515 0 3.42-.83l.683 1.71-13.38 5.517h-2.196v-9.472q-5.762 6.25-8.79 7.86-3.027 1.612-6.396 1.612-3.76 0-6.542-2.148-2.734-2.2-3.81-5.616-1.073-3.418-1.073-9.668v-19.97q0-3.175-.683-4.396-.684-1.22-2.05-1.855-1.32-.684-4.835-.635v-1.807h15.674v29.932q0 6.25 2.15 8.203 2.196 1.953 5.273 1.953 2.1 0 4.736-1.317 2.684-1.318 6.347-5.03v-25.34q0-3.81-1.416-5.128-1.367-1.367-5.76-1.465v-1.807z"/><path d="M279.605 293.477q4.883-4.883 5.762-5.616 2.197-1.854 4.737-2.88 2.54-1.025 5.03-1.025 4.198 0 7.225 2.44 3.027 2.443 4.052 7.082 5.03-5.86 8.496-7.666 3.467-1.855 7.13-1.855 3.564 0 6.298 1.856 2.783 1.807 4.394 5.958 1.075 2.832 1.075 8.886v19.24q0 4.198.634 5.76.488 1.075 1.806 1.856 1.318.732 4.297.732V330h-22.07v-1.758h.927q2.88 0 4.493-1.123 1.123-.782 1.61-2.49.196-.83.196-4.737v-19.24q0-5.467-1.32-7.714-1.903-3.126-6.103-3.126-2.588 0-5.224 1.32-2.588 1.268-6.3 4.784l-.097.537.098 2.1v21.338q0 4.59.488 5.712.537 1.124 1.953 1.905 1.416.732 4.834.732V330H291.42v-1.758q3.71 0 5.078-.88 1.416-.878 1.953-2.635.244-.83.244-4.834v-19.24q0-5.467-1.61-7.86-2.15-3.125-6.007-3.125-2.637 0-5.225 1.416-4.052 2.148-6.25 4.834v23.975q0 4.394.586 5.712.636 1.32 1.808 2.002 1.22.635 4.883.635V330h-22.118v-1.758q3.076 0 4.297-.635 1.22-.683 1.854-2.1.635-1.464.635-5.614v-17.09q0-7.373-.44-9.522-.342-1.61-1.075-2.196-.732-.635-2.002-.635-1.367 0-3.27.732l-.734-1.758 13.476-5.47h2.1z"/><path d="M337.836 289.717l13.77-5.567h1.855v10.45q3.468-5.91 6.935-8.252 3.515-2.393 7.373-2.393 6.738 0 11.23 5.274 5.518 6.444 5.518 16.795 0 11.573-6.64 19.14-5.47 6.202-13.77 6.202-3.614 0-6.25-1.025-1.954-.733-4.395-2.93v13.623q0 4.59.538 5.81.586 1.27 1.953 2.003 1.417.732 5.08.732v1.807H337.59v-1.807h1.22q2.686.05 4.59-1.025.928-.537 1.416-1.758.537-1.172.537-6.055v-42.285q0-4.346-.39-5.518-.39-1.172-1.27-1.758-.83-.586-2.295-.586-1.17 0-2.978.683zm15.625 7.763v16.7q0 5.42.44 7.13.684 2.83 3.32 4.98 2.686 2.147 6.74 2.147 4.882 0 7.91-3.808 3.954-4.982 3.954-14.015 0-10.254-4.492-15.77-3.125-3.81-7.422-3.81-2.344 0-4.64 1.172-1.756.88-5.81 5.273zM416.965 283.955v15.234h-1.61q-1.857-7.178-4.787-9.766-2.88-2.588-7.373-2.588-3.418 0-5.517 1.807-2.1 1.806-2.1 4.003 0 2.735 1.563 4.688 1.514 2.002 6.153 4.248l7.13 3.467q9.91 4.833 9.91 12.743 0 6.103-4.638 9.863-4.59 3.71-10.302 3.71-4.102 0-9.375-1.464-1.612-.488-2.637-.488-1.122 0-1.757 1.27h-1.61v-15.967h1.61q1.367 6.836 5.225 10.303 3.857 3.466 8.642 3.466 3.37 0 5.47-1.953 2.147-2.002 2.147-4.785 0-3.37-2.392-5.664-2.344-2.295-9.424-5.81-7.08-3.516-9.276-6.348-2.198-2.783-2.198-7.03 0-5.52 3.76-9.23 3.81-3.71 9.815-3.71 2.637 0 6.397 1.122 2.49.733 3.32.733.782 0 1.22-.34.44-.343 1.027-1.515zM467.8 283.955q10.157 0 16.31 7.715 5.224 6.592 5.224 15.137 0 6.005-2.88 12.158-2.882 6.152-7.96 9.277-5.03 3.125-11.23 3.125-10.108 0-16.065-8.056-5.03-6.787-5.03-15.234 0-6.152 3.027-12.207 3.076-6.104 8.057-8.985 4.98-2.93 10.547-2.93zm-1.513 3.174q-2.588 0-5.224 1.56-2.588 1.515-4.2 5.373-1.61 3.857-1.61 9.912 0 9.765 3.856 16.845 3.906 7.08 10.253 7.08 4.737 0 7.813-3.906 3.076-3.906 3.076-13.428 0-11.914-5.127-18.75-3.467-4.687-8.838-4.687zM490.63 285.273h21.046v1.807h-1.367q-1.906 0-2.93.928-.978.928-.978 2.49 0 1.71 1.026 4.053l10.4 24.708 10.45-25.635q1.122-2.734 1.122-4.15 0-.684-.39-1.123-.537-.733-1.367-.977-.83-.293-3.37-.293v-1.807h14.6v1.807q-2.54.195-3.516 1.025-1.71 1.465-3.076 4.883l-15.868 38.38h-2.002l-15.967-37.745q-1.074-2.637-2.05-3.76-.977-1.172-2.49-1.953-.83-.44-3.272-.83zM547.445 302.12q-.048 9.96 4.834 15.624t11.474 5.664q4.394 0 7.617-2.392 3.273-2.442 5.47-8.3l1.514.975q-1.026 6.69-5.958 12.208-4.93 5.47-12.353 5.47-8.057 0-13.818-6.25-5.713-6.3-5.713-16.895 0-11.475 5.86-17.87 5.907-6.447 14.794-6.447 7.52 0 12.354 4.98 4.834 4.932 4.834 13.233zm0-2.833h20.703q-.244-4.297-1.025-6.055-1.22-2.734-3.662-4.296-2.392-1.563-5.028-1.563-4.053 0-7.276 3.174-3.174 3.125-3.71 8.74zM594.348 283.955v10.06q5.615-10.06 11.523-10.06 2.687 0 4.444 1.66 1.758 1.612 1.758 3.76 0 1.904-1.27 3.223-1.27 1.318-3.027 1.318-1.71 0-3.857-1.66-2.1-1.71-3.125-1.71-.88 0-1.904.977-2.2 2.002-4.542 6.592v21.436q0 3.712.927 5.616.635 1.318 2.246 2.197 1.613.88 4.64.88V330h-22.9v-1.758q3.418 0 5.078-1.074 1.22-.78 1.71-2.49.243-.83.243-4.737v-17.333q0-7.812-.34-9.277-.294-1.514-1.173-2.197-.83-.684-2.1-.684-1.513 0-3.417.732l-.49-1.758 13.527-5.47zM177.375 380.576v14.697h10.45v3.418h-10.45v29.005q0 4.346 1.22 5.86 1.27 1.513 3.223 1.513 1.612 0 3.125-.976 1.514-1.026 2.344-2.98h1.904q-1.708 4.786-4.833 7.228-3.125 2.392-6.445 2.392-2.246 0-4.394-1.22-2.15-1.27-3.174-3.565-1.026-2.343-1.026-7.177v-30.08h-7.08v-1.61q2.686-1.074 5.47-3.613 2.83-2.588 5.028-6.104 1.123-1.855 3.125-6.787z"/><path d="M202.256 370.566v32.715q5.42-5.956 8.594-7.616 3.173-1.71 6.347-1.71 3.81 0 6.543 2.1 2.735 2.1 4.053 6.592.928 3.125.928 11.426v15.82q0 4.25.684 5.81.49 1.173 1.66 1.857 1.172.682 4.297.682V440h-21.97v-1.758h1.024q3.125 0 4.346-.928 1.22-.976 1.71-2.832.145-.78.145-4.59v-15.82q0-7.324-.78-9.62-.733-2.294-2.394-3.417-1.66-1.172-4.003-1.172-2.392 0-4.98 1.27-2.588 1.27-6.2 5.127v23.633q0 4.59.487 5.712.537 1.124 1.904 1.905 1.416.732 4.834.732V440h-22.168v-1.758q2.98 0 4.688-.928.977-.488 1.562-1.855.586-1.368.586-5.567v-40.48q0-7.665-.39-9.423-.342-1.758-1.123-2.392-.733-.635-2.002-.635-1.026 0-3.32.78l-.684-1.708 13.38-5.47zM243.64 412.12q-.048 9.96 4.835 15.624 4.882 5.664 11.474 5.664 4.394 0 7.616-2.392 3.272-2.442 5.47-8.3l1.513.975q-1.027 6.69-5.958 12.208-4.932 5.47-12.354 5.47-8.056 0-13.818-6.25-5.713-6.3-5.713-16.895 0-11.475 5.86-17.87 5.908-6.447 14.794-6.447 7.52 0 12.355 4.98 4.834 4.932 4.834 13.233zm0-2.833h20.704q-.244-4.297-1.026-6.055-1.22-2.734-3.662-4.296-2.392-1.563-5.03-1.563-4.052 0-7.274 3.174-3.174 3.125-3.71 8.74zM314.838 370.566v59.327q0 4.2.586 5.566.635 1.366 1.904 2.1 1.27.682 4.736.682V440H300.14v-1.758q3.077 0 4.2-.635 1.123-.634 1.758-2.1.634-1.464.634-5.614v-40.625q0-7.57-.34-9.278-.343-1.758-1.124-2.392-.733-.635-1.905-.635-1.27 0-3.222.78l-.83-1.708 13.33-5.47zM349.533 433.555q-6.885 5.322-8.642 6.152-2.636 1.22-5.615 1.22-4.638 0-7.666-3.173-2.98-3.174-2.98-8.35 0-3.27 1.466-5.664 2.002-3.32 6.933-6.25 4.98-2.93 16.503-7.13v-1.756q0-6.69-2.148-9.18-2.1-2.49-6.153-2.49-3.076 0-4.882 1.66-1.856 1.66-1.856 3.808l.098 2.832q0 2.246-1.172 3.467-1.123 1.222-2.98 1.222-1.805 0-2.977-1.27-1.123-1.27-1.123-3.466 0-4.2 4.297-7.715 4.297-3.515 12.06-3.515 5.957 0 9.766 2.002 2.88 1.514 4.248 4.736.88 2.1.88 8.594v15.186q0 6.396.244 7.86.244 1.417.78 1.905.587.49 1.32.49.78 0 1.367-.343 1.026-.635 3.956-3.565v2.735q-5.47 7.324-10.45 7.324-2.392 0-3.808-1.66t-1.465-5.665zm0-3.174v-17.04q-7.373 2.93-9.52 4.15-3.86 2.15-5.52 4.492-1.66 2.344-1.66 5.127 0 3.515 2.1 5.86 2.1 2.294 4.835 2.294 3.71 0 9.765-4.883z"/><path d="M404.395 426.28l-.538 13.72h-39.453v-1.758l29.688-39.55h-14.65q-4.735 0-6.2.634-1.465.586-2.392 2.295-1.32 2.443-1.514 6.056h-1.953l.293-12.403h37.5v1.807l-29.98 39.65h16.308q5.127 0 6.933-.832 1.856-.878 2.98-3.027.78-1.56 1.317-6.59z"/><path d="M404.324 395.273h20.85v1.807h-1.026q-2.197 0-3.32.977-1.074.927-1.074 2.343 0 1.905 1.61 5.274l10.89 22.558 10.01-24.707q.83-2.002.83-3.955 0-.88-.342-1.318-.39-.537-1.22-.83-.83-.342-2.93-.342v-1.807h14.55v1.807q-1.806.195-2.783.78-.977.587-2.15 2.2-.44.682-1.66 3.758l-18.212 44.63q-2.637 6.493-6.934 9.814-4.248 3.32-8.203 3.32-2.88 0-4.735-1.66-1.856-1.66-1.856-3.81 0-2.05 1.317-3.32 1.368-1.22 3.71-1.22 1.613 0 4.396 1.074 1.953.733 2.44.733 1.466 0 3.175-1.515 1.758-1.513 3.516-5.86l3.174-7.763-16.065-33.74q-.732-1.514-2.344-3.76-1.22-1.71-2.003-2.295-1.123-.78-3.613-1.367zM507.455 434.97q-3.27 3.42-6.396 4.932-3.126 1.465-6.74 1.465-7.324 0-12.793-6.103-5.468-6.153-5.468-15.772 0-9.62 6.053-17.578 6.055-8.008 15.576-8.008 5.908 0 9.765 3.76v-8.252q0-7.666-.39-9.424-.342-1.758-1.124-2.392-.78-.635-1.952-.635-1.27 0-3.37.78l-.634-1.708 13.33-5.47h2.198v51.71q0 7.862.342 9.62.39 1.71 1.17 2.392.83.684 1.906.684 1.318 0 3.515-.83l.537 1.71-13.28 5.517h-2.247zm0-3.417v-23.047q-.293-3.32-1.758-6.055-1.465-2.733-3.906-4.1-2.392-1.416-4.686-1.416-4.297 0-7.666 3.857-4.444 5.08-4.444 14.845 0 9.863 4.297 15.136 4.298 5.226 9.57 5.226 4.445 0 8.595-4.443zM544.738 393.955q10.157 0 16.31 7.715 5.223 6.592 5.223 15.137 0 6.005-2.88 12.158-2.88 6.152-7.958 9.277-5.03 3.125-11.23 3.125-10.108 0-16.065-8.056-5.03-6.787-5.03-15.234 0-6.152 3.028-12.207 3.076-6.104 8.056-8.985 4.982-2.93 10.548-2.93zm-1.513 3.174q-2.588 0-5.225 1.56-2.588 1.515-4.2 5.373-1.61 3.857-1.61 9.912 0 9.765 3.857 16.845 3.906 7.08 10.254 7.08 4.737 0 7.813-3.906 3.076-3.906 3.076-13.428 0-11.914-5.127-18.75-3.467-4.687-8.838-4.687zM581.826 423.69q-4.1-2-6.3-5.565-2.196-3.613-2.196-7.96 0-6.64 4.98-11.425 5.03-4.785 12.842-4.785 6.397 0 11.084 3.125h9.473q2.1 0 2.44.147.342.097.49.39.292.44.292 1.563 0 1.27-.245 1.757-.146.245-.537.39-.34.148-2.44.148h-5.812q2.735 3.515 2.735 8.984 0 6.25-4.785 10.692-4.785 4.444-12.842 4.444-3.32 0-6.787-.977-2.15 1.855-2.93 3.27-.733 1.368-.733 2.344 0 .83.78 1.612.83.78 3.175 1.123 1.367.194 6.836.34 10.058.245 13.037.684 4.54.635 7.226 3.37 2.736 2.734 2.736 6.738 0 5.517-5.176 10.35-7.617 7.13-19.873 7.13-9.424 0-15.918-4.248-3.663-2.44-3.663-5.078 0-1.172.537-2.344.83-1.807 3.418-5.03.342-.44 4.98-5.273-2.54-1.514-3.613-2.686-1.026-1.22-1.026-2.735 0-1.71 1.367-4.004 1.417-2.295 6.446-6.495zm8.496-27.39q-3.613 0-6.054 2.88-2.442 2.88-2.442 8.838 0 7.714 3.32 11.962 2.54 3.223 6.446 3.223 3.71 0 6.103-2.783t2.393-8.74q0-7.764-3.37-12.16-2.49-3.22-6.396-3.22zm-8.984 43.7q-2.295 2.49-3.467 4.64-1.17 2.147-1.17 3.954 0 2.344 2.83 4.1 4.884 3.03 14.113 3.03 8.79 0 12.94-3.126 4.198-3.077 4.198-6.592 0-2.54-2.49-3.613-2.538-1.075-10.058-1.27-10.986-.293-16.894-1.123zM626.238 430.527q2.295 0 3.858 1.612 1.562 1.56 1.562 3.807 0 2.246-1.61 3.858-1.564 1.562-3.81 1.562t-3.857-1.562q-1.562-1.612-1.562-3.858 0-2.295 1.563-3.857 1.612-1.563 3.858-1.563z"/></g></svg>