<svg xmlns="http://www.w3.org/2000/svg" viewBox="0 0 1600 1000" height="1000" width="1600"><path fill="#fff" d="M0 0h1600v1000H0z"/><g font-weight="400" font-size="200" font-family="Times New Roman" letter-spacing="-.03em" text-anchor="middle" fill="#222"><path d="M540.184 87.578l1.464 31.055h-3.71q-1.075-8.203-2.93-11.72-3.028-5.663-8.106-8.3-4.98-2.734-13.183-2.734h-18.654v101.17q0 12.208 2.637 15.235 3.71 4.102 11.426 4.102h4.59V220h-56.154v-3.613h4.688q8.398 0 11.914-5.078 2.148-3.126 2.148-14.26V95.88h-15.918q-9.277 0-13.183 1.366-5.078 1.856-8.692 7.13-3.613 5.272-4.296 14.257h-3.71l1.56-31.055zM573.246 81.133v65.43q10.84-11.915 17.188-15.235 6.347-3.418 12.695-3.418 7.616 0 13.085 4.2 5.47 4.2 8.105 13.183 1.856 6.25 1.856 22.852v31.64q0 8.496 1.367 11.62.977 2.345 3.32 3.712 2.344 1.367 8.594 1.367V220h-43.945v-3.516h2.05q6.25 0 8.692-1.855 2.44-1.954 3.418-5.665.293-1.563.293-9.18v-31.64q0-14.65-1.563-19.24-1.465-4.59-4.785-6.835-3.32-2.343-8.008-2.343-4.786 0-9.962 2.54-5.175 2.538-12.402 10.253v47.265q0 9.18.977 11.426 1.074 2.247 3.808 3.81 2.833 1.464 9.67 1.464V220h-44.337v-3.516q5.957 0 9.375-1.855 1.953-.978 3.125-3.712t1.172-11.133v-80.957q0-15.332-.78-18.848-.685-3.515-2.247-4.785-1.465-1.27-4.004-1.27-2.05 0-6.64 1.563l-1.368-3.418 26.758-10.937zM656.016 164.238q-.098 19.922 9.668 31.25 9.765 11.328 22.95 11.328 8.788 0 15.233-4.785 6.543-4.882 10.938-16.6l3.027 1.953q-2.05 13.38-11.914 24.414-9.863 10.937-24.707 10.937-16.112 0-27.636-12.5-11.426-12.597-11.426-33.79 0-22.948 11.72-35.74 11.816-12.89 29.59-12.89 15.038 0 24.706 9.96 9.668 9.863 9.668 26.464zm0-5.664h41.406q-.488-8.594-2.05-12.11-2.442-5.468-7.325-8.593-4.785-3.124-10.06-3.124-8.104 0-14.55 6.348-6.347 6.25-7.42 17.48zM846.848 127.91v115.04q0 8.593 1.172 11.034 1.17 2.442 3.613 3.81 2.54 1.366 9.765 1.366v3.613H816.28v-3.613h1.857q5.468 0 8.3-1.562 1.954-1.075 3.125-3.907 1.172-2.733 1.172-10.74v-38.477q-8.886 10.547-15.527 14.453-6.64 3.808-13.77 3.808-12.988 0-23.242-11.816-10.156-11.816-10.156-31.64 0-22.755 13.476-37.012 13.476-14.356 32.52-14.356 5.566 0 10.253 1.563 4.687 1.562 8.397 4.687 5.665-2.734 10.84-6.25zm-16.114 70.41v-41.992q0-7.324-1.953-11.523-1.854-4.2-6.737-7.13-4.883-2.93-11.035-2.93-10.938 0-18.75 9.278-7.813 9.278-7.813 28.125 0 18.067 7.91 27.442 8.008 9.375 19.24 9.375 5.76 0 10.253-2.442 4.492-2.54 8.886-8.203zM940.066 130.547v54.2q0 15.526.684 19.042.78 3.417 2.344 4.784 1.66 1.367 3.808 1.367 3.028 0 6.836-1.66l1.367 3.42-26.757 11.034h-4.395V203.79q-11.523 12.5-17.578 15.722-6.055 3.222-12.793 3.222-7.52 0-13.086-4.297-5.47-4.394-7.617-11.23-2.15-6.836-2.15-19.336v-39.94q0-6.348-1.367-8.79-1.367-2.44-4.1-3.71-2.638-1.368-9.67-1.27v-3.613h31.348v59.863q0 12.5 4.298 16.406 4.395 3.907 10.547 3.907 4.2 0 9.473-2.637 5.37-2.637 12.695-10.06v-50.682q0-7.617-2.832-10.254-2.733-2.735-11.522-2.93v-3.613zM978.402 81.133q4.102 0 6.934 2.93 2.93 2.832 2.93 6.933 0 4.102-2.93 7.03-2.832 2.93-6.934 2.93-4.1 0-7.03-2.93-2.93-2.928-2.93-7.03 0-4.1 2.83-6.933 2.93-2.93 7.13-2.93zm8.106 46.777v71.875q0 8.4 1.172 11.23 1.27 2.735 3.613 4.102 2.44 1.367 8.79 1.367V220h-43.458v-3.516q6.543 0 8.79-1.27 2.245-1.27 3.515-4.198 1.367-2.93 1.367-11.23V165.31q0-14.55-.88-18.847-.683-3.125-2.147-4.297-1.465-1.27-4.004-1.27-2.735 0-6.64 1.465l-1.368-3.515 26.953-10.938zM1081.094 186.016q-3.613 17.675-14.16 27.246-10.547 9.472-23.34 9.472-15.235 0-26.563-12.793-11.327-12.792-11.327-34.57 0-21.093 12.5-34.276 12.598-13.184 30.176-13.184 13.183 0 21.68 7.03 8.495 6.935 8.495 14.455 0 3.71-2.442 6.054-2.343 2.245-6.64 2.245-5.762 0-8.692-3.71-1.66-2.05-2.245-7.813-.488-5.762-3.906-8.79-3.42-2.93-9.474-2.93-9.765 0-15.722 7.228-7.91 9.57-7.91 25.293 0 16.015 7.812 28.32 7.91 12.207 21.29 12.207 9.57 0 17.187-6.543 5.37-4.492 10.45-16.31zM1114.254 81.133v89.062l22.754-20.8q7.226-6.64 8.398-8.4.78-1.17.78-2.343 0-1.953-1.66-3.32-1.56-1.465-5.272-1.66v-3.125h38.867v3.125q-8.007.195-13.378 2.44-5.273 2.247-11.62 8.01l-22.95 21.19 22.95 29.004q9.57 12.012 12.89 15.235 4.687 4.59 8.203 5.958 2.44.976 8.496.976V220h-43.456v-3.516q3.71-.097 4.98-1.074 1.368-1.074 1.368-2.93 0-2.246-3.907-7.226l-27.44-35.06v29.69q0 8.69 1.17 11.425 1.27 2.733 3.516 3.905 2.247 1.172 9.767 1.27V220H1083.2v-3.516q6.835 0 10.253-1.66 2.05-1.074 3.125-3.32 1.465-3.223 1.465-11.133v-81.444q0-15.528-.684-18.946-.684-3.515-2.247-4.785-1.562-1.367-4.1-1.367-2.052 0-6.154 1.66l-1.66-3.418 26.562-10.937zM443.7 365.977q12.988-18.067 28.027-18.067 13.77 0 24.023 11.817 10.254 11.718 10.254 32.128 0 23.83-15.82 38.38-13.575 12.5-30.274 12.5-7.812 0-15.918-2.833-8.008-2.832-16.406-8.496V338.73q0-15.234-.78-18.75-.685-3.515-2.247-4.785-1.564-1.27-3.908-1.27-2.734 0-6.836 1.563l-1.367-3.418 26.855-10.937h4.394zm0 6.25v53.515q4.98 4.883 10.253 7.422 5.37 2.44 10.938 2.44 8.887 0 16.505-9.764 7.714-9.766 7.714-28.418 0-17.188-7.715-26.367-7.618-9.278-17.383-9.278-5.176 0-10.352 2.637-3.906 1.953-9.96 7.813zM539.36 347.91v20.117q11.23-20.117 23.046-20.117 5.37 0 8.887 3.32 3.516 3.223 3.516 7.52 0 3.81-2.54 6.445-2.54 2.637-6.055 2.637-3.418 0-7.715-3.32-4.2-3.418-6.25-3.418-1.758 0-3.81 1.953-4.393 4.004-9.08 13.183v42.872q0 7.42 1.855 11.23 1.27 2.637 4.492 4.395 3.223 1.757 9.277 1.757V440h-45.8v-3.516q6.836 0 10.156-2.148 2.44-1.563 3.418-4.98.488-1.66.488-9.473v-34.668q0-15.625-.683-18.555-.586-3.027-2.344-4.394-1.66-1.368-4.2-1.368-3.028 0-6.836 1.465l-.977-3.515 27.05-10.938zM617.734 347.91q20.313 0 32.618 15.43 10.45 13.183 10.45 30.273 0 12.012-5.763 24.317-5.763 12.304-15.92 18.554-10.057 6.25-22.46 6.25-20.215 0-32.13-16.113-10.057-13.573-10.057-30.468 0-12.304 6.054-24.414 6.153-12.207 16.114-17.968 9.962-5.86 21.094-5.86zm-3.027 6.348q-5.176 0-10.45 3.125-5.175 3.027-8.398 10.742-3.223 7.715-3.223 19.824 0 19.53 7.715 33.69 7.812 14.16 20.507 14.16 9.472 0 15.624-7.812 6.153-7.812 6.153-26.855 0-23.828-10.254-37.5-6.934-9.375-17.676-9.375zM663.004 350.547h37.5v3.613q-5.176.39-6.836 1.856-1.563 1.464-1.563 4.2 0 3.026 1.66 7.323l19.14 51.464 19.24-41.895-5.08-13.184q-2.342-5.86-6.15-8.106-2.15-1.367-8.01-1.66v-3.613h42.58v3.613q-7.032.293-9.962 2.54-1.953 1.562-1.953 4.98 0 1.953.782 4.004l20.312 51.367 18.848-49.51q1.953-5.274 1.953-8.4 0-1.855-1.953-3.32-1.856-1.465-7.422-1.66v-3.613h28.223v3.613q-8.497 1.27-12.5 11.524l-29.883 77.05h-4.004l-22.363-57.13-26.075 57.13h-3.613l-28.71-75.195q-2.833-7.13-5.567-9.57-2.735-2.54-8.594-3.81z"/><path d="M832.59 366.855q15.722-18.945 29.98-18.945 7.325 0 12.598 3.71 5.273 3.614 8.398 12.013 2.15 5.86 2.15 17.97v38.182q0 8.496 1.366 11.524 1.074 2.44 3.418 3.807 2.44 1.367 8.887 1.367V440h-44.24v-3.516h1.857q6.25 0 8.69-1.855 2.54-1.954 3.517-5.665.392-1.465.392-9.18v-36.62q0-12.208-3.223-17.677-3.126-5.566-10.646-5.566-11.62 0-23.144 12.695v47.168q0 9.082 1.074 11.23 1.367 2.833 3.71 4.2 2.442 1.27 9.767 1.27V440h-44.238v-3.516h1.953q6.836 0 9.18-3.418 2.442-3.515 2.442-13.28V386.58q0-16.113-.782-19.63-.683-3.514-2.246-4.784-1.466-1.27-4.005-1.27-2.734 0-6.543 1.465l-1.465-3.515 26.954-10.938h4.2zM979.477 357.578v58.79q0 12.5 2.734 15.82 3.614 4.296 9.67 4.296h8.104V440h-53.418v-3.516h4.004q3.907 0 7.13-1.953 3.222-1.952 4.394-5.272 1.27-3.32 1.27-12.89v-58.79H945.98v-7.03h17.383v-5.86q0-13.38 4.297-22.657 4.297-9.276 13.086-14.94 8.887-5.762 19.922-5.762 10.254 0 18.848 6.64 5.664 4.395 5.664 9.864 0 2.93-2.54 5.566-2.538 2.54-5.468 2.54-2.246 0-4.785-1.563-2.442-1.66-6.055-6.934-3.613-5.37-6.64-7.225-3.028-1.856-6.74-1.856-4.49 0-7.616 2.44-3.125 2.345-4.492 7.423-1.367 4.98-1.367 25.88v6.444h23.046v7.03z"/><path d="M1049.063 347.91q20.312 0 32.617 15.43 10.45 13.183 10.45 30.273 0 12.012-5.763 24.317-5.762 12.304-15.918 18.554-10.06 6.25-22.462 6.25-20.215 0-32.13-16.113-10.057-13.573-10.057-30.468 0-12.304 6.056-24.414 6.152-12.207 16.113-17.968 9.96-5.86 21.093-5.86zm-3.028 6.348q-5.176 0-10.45 3.125-5.175 3.027-8.397 10.742-3.223 7.715-3.223 19.824 0 19.53 7.715 33.69 7.812 14.16 20.507 14.16 9.473 0 15.626-7.812 6.152-7.812 6.152-26.855 0-23.828-10.254-37.5-6.933-9.375-17.675-9.375zM1095.7 350.547h42.09v3.613q-4.005 0-5.665 1.367-1.563 1.368-1.563 3.614 0 2.344 3.42 7.227 1.073 1.563 3.22 4.883l6.35 10.156 7.323-10.156q7.03-9.668 7.03-12.207 0-2.05-1.66-3.418-1.66-1.465-5.37-1.465v-3.613h30.273v3.613q-4.785.293-8.3 2.637-4.785 3.32-13.086 14.453l-12.207 16.31 22.265 32.03q8.203 11.816 11.72 14.258 3.515 2.343 9.08 2.636V440h-42.186v-3.516q4.394 0 6.836-1.953 1.855-1.366 1.855-3.612t-6.25-11.328l-13.086-19.14-14.356 19.14q-6.64 8.887-6.64 10.547 0 2.343 2.147 4.297 2.248 1.855 6.642 2.05V440h-29.2v-3.516q3.516-.488 6.153-2.44 3.71-2.833 12.5-14.454l18.75-24.902-16.992-24.61q-7.227-10.547-11.23-13.183-3.907-2.735-9.864-2.735zM411.836 521.035q4.2 0 7.13 2.93 2.93 2.93 2.93 7.13 0 4.1-2.93 7.03-2.93 2.93-7.13 2.93-4.102 0-7.03-2.93-2.93-2.93-2.93-7.03 0-4.2 2.93-7.13 2.928-2.93 7.03-2.93zm8.398 46.875v90.04q0 22.948-9.765 34.08-9.767 11.134-25.392 11.134-8.887 0-13.183-3.223-4.297-3.22-4.297-6.64 0-3.417 2.44-5.86 2.345-2.44 5.567-2.44 2.54 0 5.176 1.27 1.66.683 6.35 4.882 4.784 4.297 8.007 4.297 2.343 0 4.59-1.856 2.246-1.758 3.32-6.055 1.074-4.2 1.074-18.36v-63.672q0-14.746-.878-18.946-.683-3.222-2.148-4.394-1.465-1.27-4.004-1.27-2.735 0-6.64 1.465l-1.368-3.515 26.953-10.938zM517.066 570.547v54.2q0 15.526.684 19.042.78 3.417 2.344 4.784 1.66 1.367 3.808 1.367 3.028 0 6.836-1.66l1.367 3.42-26.757 11.034h-4.395V643.79q-11.523 12.5-17.578 15.722-6.055 3.222-12.793 3.222-7.52 0-13.086-4.296-5.47-4.395-7.617-11.23-2.15-6.837-2.15-19.337v-39.94q0-6.348-1.367-8.79-1.367-2.44-4.1-3.71-2.638-1.367-9.67-1.27v-3.613h31.348v59.863q0 12.5 4.298 16.406 4.395 3.907 10.547 3.907 4.2 0 9.473-2.637 5.37-2.637 12.695-10.06v-50.682q0-7.617-2.832-10.254-2.733-2.735-11.522-2.93v-3.613z"/><path d="M559.21 586.953q9.767-9.765 11.524-11.23 4.395-3.71 9.473-5.762 5.078-2.05 10.06-2.05 8.397 0 14.452 4.883 6.053 4.883 8.104 14.16 10.06-11.72 16.992-15.332 6.934-3.71 14.258-3.71 7.13 0 12.598 3.71 5.566 3.614 8.79 11.915 2.147 5.664 2.147 17.774v38.475q0 8.4 1.27 11.524.975 2.147 3.612 3.71 2.637 1.464 8.594 1.464V660h-44.14v-3.516h1.855q5.763 0 8.985-2.246 2.246-1.562 3.223-4.98.39-1.66.39-9.473V601.31q0-10.94-2.636-15.43-3.81-6.25-12.207-6.25-5.176 0-10.45 2.636-5.175 2.54-12.597 9.57l-.195 1.074.195 4.2v42.675q0 9.18.976 11.426 1.075 2.247 3.907 3.81 2.833 1.464 9.67 1.464V660h-45.216v-3.516q7.422 0 10.156-1.757 2.832-1.758 3.906-5.274.49-1.66.49-9.668V601.31q0-10.94-3.224-15.724-4.297-6.25-12.012-6.25-5.273 0-10.45 2.832-8.105 4.297-12.5 9.668v47.95q0 8.788 1.173 11.425 1.27 2.638 3.613 4.005 2.442 1.27 9.766 1.27V660h-44.24v-3.516q6.154 0 8.595-1.27 2.442-1.366 3.71-4.198 1.27-2.93 1.27-11.23v-34.18q0-14.747-.878-19.044-.685-3.222-2.15-4.394-1.465-1.27-4.004-1.27-2.734 0-6.543 1.465l-1.464-3.515 26.952-10.938h4.2z"/><path d="M675.672 579.434l27.54-11.133h3.71v20.9q6.933-11.817 13.867-16.505 7.03-4.785 14.745-4.785 13.477 0 22.46 10.547 11.036 12.89 11.036 33.594 0 23.145-13.28 38.282-10.938 12.402-27.54 12.402-7.226 0-12.5-2.05-3.905-1.465-8.788-5.86v27.246q0 9.18 1.074 11.62 1.172 2.54 3.906 4.005 2.832 1.465 10.157 1.465v3.613h-46.876v-3.613h2.44q5.372.098 9.18-2.05 1.856-1.075 2.833-3.516 1.074-2.344 1.074-12.11v-84.57q0-8.69-.78-11.035-.782-2.345-2.54-3.517-1.66-1.172-4.59-1.172-2.343 0-5.956 1.37zm31.25 15.527v33.4q0 10.84.88 14.257 1.366 5.664 6.64 9.96 5.37 4.298 13.476 4.298 9.766 0 15.82-7.617 7.91-9.96 7.91-28.028 0-20.507-8.984-31.543-6.25-7.617-14.844-7.617-4.687 0-9.277 2.344-3.516 1.758-11.62 10.547zM833.93 567.91v30.47h-3.223q-3.71-14.357-9.57-19.532-5.762-5.176-14.746-5.176-6.835 0-11.035 3.613t-4.2 8.008q0 5.47 3.126 9.375 3.03 4.004 12.306 8.496l14.258 6.934q19.824 9.668 19.824 25.488 0 12.207-9.277 19.726-9.18 7.422-20.605 7.422-8.203 0-18.75-2.93-3.222-.976-5.273-.976-2.246 0-3.516 2.54h-3.223v-31.934h3.223q2.734 13.67 10.45 20.605 7.714 6.933 17.284 6.933 6.74 0 10.938-3.907 4.297-4.004 4.297-9.57 0-6.738-4.785-11.328-4.688-4.59-18.848-11.62-14.16-7.032-18.555-12.696-4.394-5.567-4.394-14.063 0-11.036 7.52-18.458 7.617-7.422 19.628-7.422 5.275 0 12.794 2.246 4.98 1.465 6.64 1.465 1.563 0 2.442-.683.88-.683 2.05-3.027zM935.602 567.91q20.312 0 32.617 15.43 10.448 13.183 10.448 30.273 0 12.012-5.762 24.317-5.76 12.304-15.918 18.554-10.058 6.25-22.46 6.25-20.216 0-32.13-16.113-10.058-13.573-10.058-30.468 0-12.304 6.055-24.414 6.152-12.207 16.113-17.968 9.96-5.86 21.094-5.86zm-3.028 6.348q-5.176 0-10.45 3.125-5.175 3.027-8.397 10.742-3.223 7.715-3.223 19.824 0 19.53 7.715 33.69 7.81 14.16 20.507 14.16 9.472 0 15.625-7.812 6.152-7.812 6.152-26.855 0-23.828-10.254-37.5-6.934-9.375-17.676-9.375zM981.262 570.547h42.09v3.613h-2.735q-3.808 0-5.86 1.856-1.952 1.855-1.952 4.98 0 3.418 2.05 8.106l20.8 49.414 20.9-51.27q2.246-5.47 2.246-8.3 0-1.368-.78-2.247-1.075-1.466-2.735-1.954-1.66-.586-6.738-.586v-3.613h29.2v3.613q-5.08.39-7.032 2.05-3.418 2.93-6.153 9.767l-31.738 76.757h-4.004l-31.933-75.488q-2.15-5.273-4.102-7.52-1.953-2.343-4.98-3.906-1.66-.88-6.543-1.66zM1094.89 604.238q-.097 19.922 9.67 31.25 9.764 11.328 22.948 11.328 8.79 0 15.234-4.785 6.543-4.882 10.938-16.6l3.027 1.953q-2.05 13.38-11.914 24.414-9.863 10.937-24.707 10.937-16.113 0-27.637-12.5-11.427-12.597-11.427-33.79 0-22.948 11.72-35.74 11.816-12.89 29.59-12.89 15.038 0 24.706 9.96 9.667 9.863 9.667 26.464zm0-5.664h41.407q-.488-8.594-2.05-12.11-2.442-5.468-7.325-8.593-4.785-3.124-10.06-3.124-8.104 0-14.55 6.348-6.347 6.25-7.42 17.48zM1188.695 567.91v20.117q11.23-20.117 23.047-20.117 5.37 0 8.887 3.32 3.515 3.223 3.515 7.52 0 3.81-2.54 6.445-2.54 2.637-6.054 2.637-3.417 0-7.714-3.32-4.2-3.418-6.25-3.418-1.758 0-3.81 1.953-4.393 4.004-9.08 13.183v42.872q0 7.42 1.855 11.23 1.27 2.637 4.493 4.395 3.223 1.757 9.277 1.757V660h-45.8v-3.516q6.835 0 10.156-2.148 2.44-1.563 3.418-4.98.488-1.66.488-9.473v-34.668q0-15.625-.684-18.555-.586-3.027-2.343-4.394-1.66-1.368-4.2-1.368-3.027 0-6.836 1.465l-.977-3.515 27.05-10.938zM354.75 761.152v29.395h20.898v6.836H354.75v58.008q0 8.692 2.44 11.72 2.54 3.027 6.447 3.027 3.222 0 6.25-1.953 3.027-2.05 4.687-5.957h3.81q-3.42 9.57-9.67 14.453-6.25 4.785-12.89 4.785-4.492 0-8.79-2.442-4.296-2.54-6.347-7.128-2.05-4.688-2.05-14.356v-60.157h-14.16v-3.223q5.37-2.148 10.937-7.226 5.664-5.176 10.06-12.207 2.245-3.71 6.25-13.575z"/><path d="M404.512 741.133v65.43q10.84-11.915 17.187-15.235 6.347-3.418 12.695-3.418 7.617 0 13.085 4.2 5.47 4.2 8.106 13.183 1.855 6.25 1.855 22.852v31.64q0 8.496 1.37 11.62.975 2.345 3.32 3.712 2.343 1.367 8.593 1.367V880h-43.946v-3.516h2.05q6.25 0 8.693-1.855 2.44-1.954 3.418-5.665.292-1.563.292-9.18v-31.64q0-14.65-1.562-19.24-1.465-4.59-4.785-6.835-3.32-2.343-8.008-2.343-4.785 0-9.96 2.54-5.177 2.538-12.403 10.253v47.265q0 9.18.976 11.426 1.075 2.247 3.81 3.81 2.83 1.464 9.667 1.464V880H374.63v-3.516q5.956 0 9.374-1.855 1.953-.978 3.125-3.712 1.17-2.734 1.17-11.133v-80.957q0-15.332-.78-18.848-.684-3.515-2.247-4.785-1.464-1.27-4.003-1.27-2.05 0-6.64 1.563l-1.368-3.418 26.758-10.937zM487.28 824.238q-.096 19.922 9.67 31.25 9.765 11.328 22.948 11.328 8.79 0 15.235-4.785 6.543-4.882 10.937-16.6l3.028 1.953q-2.05 13.38-11.914 24.414-9.864 10.937-24.707 10.937-16.114 0-27.637-12.5-11.426-12.597-11.426-33.79 0-22.948 11.72-35.74 11.815-12.89 29.59-12.89 15.038 0 24.706 9.96 9.668 9.863 9.668 26.464zm0-5.664h41.408q-.49-8.594-2.05-12.11-2.443-5.468-7.326-8.593-4.785-3.124-10.058-3.124-8.106 0-14.55 6.348-6.35 6.25-7.423 17.48zM629.676 741.133v118.652q0 8.4 1.172 11.133 1.27 2.734 3.808 4.2 2.54 1.366 9.473 1.366V880h-43.85v-3.516q6.154 0 8.4-1.27 2.246-1.27 3.515-4.198 1.27-2.93 1.27-11.23v-81.25q0-15.138-.684-18.556-.682-3.515-2.245-4.785-1.465-1.27-3.808-1.27-2.54 0-6.446 1.563l-1.66-3.418 26.66-10.937zM699.066 867.11q-13.77 10.644-17.285 12.304-5.272 2.44-11.23 2.44-9.277 0-15.33-6.346-5.958-6.348-5.958-16.7 0-6.542 2.93-11.328 4.003-6.64 13.867-12.5 9.96-5.86 33.006-14.257v-3.516q0-13.38-4.296-18.36-4.2-4.98-12.305-4.98-6.153 0-9.766 3.32-3.712 3.32-3.712 7.618l.196 5.664q0 4.49-2.344 6.932-2.246 2.442-5.957 2.442-3.613 0-5.957-2.54-2.246-2.538-2.246-6.933 0-8.397 8.593-15.43 8.594-7.03 24.122-7.03 11.914 0 19.53 4.004 5.762 3.027 8.497 9.473 1.758 4.2 1.758 17.187v30.37q0 12.794.488 15.724.488 2.832 1.562 3.81 1.172.975 2.637.975 1.563 0 2.735-.683 2.05-1.27 7.91-7.13v5.47q-10.938 14.648-20.9 14.648-4.784 0-7.616-3.32t-2.93-11.33zm0-6.348V826.68q-14.746 5.86-19.043 8.3-7.714 4.297-11.035 8.985-3.32 4.687-3.32 10.254 0 7.03 4.2 11.717 4.198 4.59 9.667 4.59 7.422 0 19.53-9.765z"/><path d="M808.79 852.56L807.714 880H728.81v-3.516l59.374-79.1h-29.297q-9.473 0-12.403 1.268-2.93 1.172-4.785 4.59-2.638 4.883-3.028 12.11h-3.906l.586-24.805h75v3.613l-59.96 79.297h32.616q10.254 0 13.867-1.66 3.71-1.758 5.957-6.055 1.563-3.125 2.637-13.183z"/><path d="M808.648 790.547h41.7v3.613h-2.05q-4.396 0-6.642 1.953-2.148 1.856-2.148 4.688 0 3.81 3.222 10.548l21.778 45.117 20.02-49.414q1.66-4.003 1.66-7.91 0-1.757-.684-2.636-.78-1.074-2.442-1.66-1.66-.684-5.86-.684v-3.613h29.103v3.613q-3.614.39-5.567 1.563-1.953 1.172-4.297 4.394-.878 1.367-3.32 7.52l-36.425 89.258q-5.273 12.988-13.867 19.628-8.496 6.64-16.406 6.64-5.762 0-9.473-3.32-3.712-3.32-3.712-7.616 0-4.102 2.637-6.64 2.734-2.442 7.422-2.442 3.223 0 8.79 2.148 3.905 1.465 4.882 1.465 2.928 0 6.346-3.028 3.516-3.027 7.032-11.718l6.347-15.528-32.13-67.48q-1.463-3.027-4.686-7.52-2.443-3.418-4.005-4.59-2.246-1.562-7.227-2.734zM1014.91 869.94q-6.543 6.837-12.793 9.865-6.25 2.93-13.476 2.93-14.648 0-25.585-12.208-10.938-12.304-10.938-31.543 0-19.238 12.11-35.156 12.11-16.015 31.152-16.015 11.815 0 19.53 7.52v-16.505q0-15.332-.78-18.848-.685-3.515-2.247-4.785-1.563-1.27-3.906-1.27-2.54 0-6.74 1.563l-1.268-3.418 26.66-10.937h4.393V844.55q0 15.723.684 19.24.78 3.417 2.344 4.784 1.66 1.367 3.81 1.367 2.636 0 7.03-1.66l1.075 3.42-26.563 11.034h-4.492zm0-6.835v-46.093q-.586-6.64-3.515-12.11-2.93-5.468-7.813-8.203-4.785-2.833-9.375-2.833-8.594 0-15.332 7.715-8.887 10.156-8.887 29.688 0 19.726 8.594 30.273 8.594 10.45 19.14 10.45 8.887 0 17.188-8.888zM1089.477 787.91q20.312 0 32.617 15.43 10.45 13.183 10.45 30.273 0 12.012-5.763 24.317-5.76 12.304-15.917 18.554-10.058 6.25-22.46 6.25-20.216 0-32.13-16.113-10.058-13.573-10.058-30.468 0-12.304 6.055-24.414 6.152-12.207 16.113-17.968 9.96-5.86 21.094-5.86zm-3.028 6.348q-5.177 0-10.45 3.125-5.176 3.027-8.398 10.742-3.223 7.715-3.223 19.824 0 19.53 7.714 33.69 7.812 14.16 20.508 14.16 9.472 0 15.625-7.812 6.152-7.812 6.152-26.855 0-23.828-10.255-37.5-6.934-9.375-17.676-9.375zM1163.652 847.383q-8.203-4.004-12.597-11.133-4.395-7.227-4.395-15.918 0-13.28 9.96-22.852 10.06-9.57 25.685-9.57 12.793 0 22.168 6.25h18.945q4.2 0 4.883.293.684.195.977.78.586.88.586 3.126 0 2.538-.488 3.515-.293.488-1.074.78-.683.294-4.882.294h-11.62q5.468 7.03 5.468 17.968 0 12.5-9.57 21.387-9.57 8.886-25.684 8.886-6.64 0-13.575-1.952-4.296 3.71-5.86 6.543-1.464 2.736-1.464 4.69 0 1.66 1.563 3.22 1.66 1.564 6.347 2.247 2.735.39 13.672.684 20.117.49 26.074 1.368 9.082 1.27 14.453 6.74 5.468 5.467 5.468 13.475 0 11.035-10.35 20.703-15.235 14.258-39.746 14.258-18.848 0-31.836-8.496-7.324-4.883-7.324-10.156 0-2.344 1.074-4.688 1.66-3.613 6.836-10.058.683-.88 9.96-10.547-5.077-3.03-7.226-5.372-2.05-2.442-2.05-5.47 0-3.417 2.734-8.007 2.832-4.59 12.89-12.987zm16.992-54.785q-7.226 0-12.11 5.76-4.882 5.763-4.882 17.677 0 15.43 6.64 23.926 5.08 6.446 12.892 6.446 7.42 0 12.207-5.566 4.786-5.567 4.786-17.48 0-15.528-6.74-24.317-4.98-6.445-12.792-6.445zM1162.676 880q-4.59 4.98-6.934 9.277-2.344 4.297-2.344 7.91 0 4.688 5.664 8.204 9.766 6.055 28.223 6.055 17.578 0 25.88-6.25 8.397-6.152 8.397-13.183 0-5.078-4.98-7.227-5.078-2.148-20.117-2.54-21.973-.585-33.79-2.245zM1252.477 861.055q4.59 0 7.714 3.222 3.126 3.125 3.126 7.618 0 4.492-3.222 7.714-3.125 3.124-7.617 3.124-4.493 0-7.715-3.125-3.125-3.223-3.125-7.715 0-4.59 3.125-7.715 3.222-3.125 7.715-3.125z"/></g></svg>