<svg xmlns="http://www.w3.org/2000/svg" viewBox="0 0 800 500"><path fill="#fff" d="M0 0h800v500H0z"/><g font-weight="400" font-size="100" font-family="Today Sans" letter-spacing="-.03em" text-anchor="middle" fill="#222"><path d="M219.783 44.4h54v7.2h-20.7q-1.3 0-2.3-.3.3 1 .3 2.3v56.6h-8.7V53.6q0-1.3.3-2.3-1 .3-2.3.3h-20.6zM279.62 40.1h8.2v16q0 7.7-.5 16.6l.3.1q3.4-4.3 6.9-6.2 3.5-1.9 8-1.9 6.5 0 10.7 4.4 4.2 4.4 4.2 11.3v29.8h-8.2V83.7q0-6.4-1.9-8.8-2.6-3.4-7.2-3.4-6.6 0-12.3 7v31.7h-8.2zM360.672 87.5h-25.5q-1.1 0-1.8-.4.1 8 4 12.5t10.8 4.5q7.2 0 12.1-4.9l4.2 4.3q-7.2 7.8-17.8 7.8-9.5 0-15.5-6.3-5.9-6.4-5.9-16.7 0-10.3 6.1-16.9 6.1-6.7 15.4-6.7 7.9 0 12.8 5.1 4.9 5 4.9 13.1zm-21.8-5.4h15q1.9 0 3.3.4-.5-5.3-3.5-8.4-3-3.1-7.9-3.1-4.8 0-8.1 3-3.2 3-4.2 8.5 2.3-.4 5.4-.4zM428.03 67.9v68h-8.2v-16.2q0-8.1.5-14.2l-.3-.1q-5.6 5.3-12.5 5.3-8.8 0-14.4-6-5.6-6.1-5.6-15.6 0-10.9 6.4-17.6 6.5-6.8 16.9-6.8 7 0 17.2 3.2zm-8.2 25.4V79.9q0-3.8.4-6.6-4.4-2.2-9.1-2.2-6.7 0-10.8 4.5-4.1 4.5-4.1 11.9t3.8 12q3.8 4.5 10 4.5 5.3 0 10.2-4.4-.4-2.6-.4-6.3zM476.19 65.8v30.1q0 5.1.4 6.5.6 2.9 4 2.9 1.1 0 2.5-.3l-1.3 5.7q-2 .5-3.8.5-7.9 0-8.9-6.9l-.2-.1q-6.5 7.1-14.7 7.1-4.3 0-7.8-1.8t-5.2-4.9q-2-3.6-2-11.2V65.8h8.2V93q0 6.3 2.1 9.1 2.2 2.7 7.1 2.7 6.3 0 11.4-6v-33zM488.847 45.7q1.5-1.6 3.6-1.6t3.5 1.6q1.5 1.5 1.5 3.8t-1.5 3.9q-1.4 1.5-3.5 1.5t-3.6-1.5q-1.4-1.6-1.4-3.9t1.4-3.8zm7.7 20.1v44.4h-8.2V65.8zM541.398 69.3l-4.1 6q-5.5-3.5-10-3.5-5.9 0-9.8 4.3-3.8 4.3-3.8 11 0 7.6 4 12.3 4.1 4.6 10.8 4.6 4.8 0 10.4-3.2l3 5.4q-6.7 5.1-15.3 5.1-9.5 0-15.6-6.3-6-6.4-6-16.4 0-10.2 6.4-17 6.5-6.9 16.2-6.9 7.4 0 13.8 4.6zM545.237 40.1h8.2v29.5q0 9.2-.4 16l.3.1q4.5-4.9 10.3-10.5l10.1-9.8 8.1 1.6-16.1 15.4q-.2.2-1 .9-.7.6-1.5 1.3 1.4 1.5 2.9 3.2l18.5 22.4h-9.9l-16.1-19.6q-.8-1-1.2-1.8-.4.8-1.3 1.6l-2.7 2.4v17.4h-8.2zM216.6 150.1h8.2v18.2q0 6.7-.4 11.6l.2.1q3.7-2.7 6.4-3.7t6.1-1q8.5 0 14.2 6.4 5.7 6.4 5.7 16 0 10.5-6.5 17.1-6.4 6.5-16.7 6.5-4.6 0-8.2-1-3.5-1-9-3.9zm8.2 42.2v13.5q0 3.7-.4 6.4 4.8 2.8 9.4 2.8 6.6 0 10.5-4.4 4-4.4 4-11.7 0-7.4-3.9-12t-10.2-4.6q-5 0-9.8 3.6.4 2.7.4 6.4zM273.16 186.2h.4q5.8-11.5 12.2-11.5 2.7 0 7 1.7l-2 6.9q-3.6-1.2-5.4-1.2-5.5 0-11.4 9.2v28.9h-8.2v-26.5q0-8.3-.6-11.3-.5-3-2.4-4.8l6.9-2.9q1.8 1.5 2.5 4 .8 2.4 1 7.5zM314.676 174.7q9.6 0 15.9 6.7 6.4 6.6 6.4 16.7 0 10.2-6.3 16.7t-16.2 6.5q-10 0-16.4-6.4-6.3-6.5-6.3-16.6 0-10.3 6.4-16.9 6.5-6.7 16.5-6.7zm-.9 6.8q-6 0-9.7 4.3-3.7 4.2-3.7 11.1 0 7.7 4.2 12.8 4.3 5.1 10.7 5.1 5.8 0 9.4-4.3 3.7-4.3 3.7-11.1 0-7.7-4.2-12.8-4.1-5.1-10.4-5.1zM400.296 174.8l7.1 2-17.2 43.4h-8.1l-4.5-11.6q-2.8-7.5-4.3-12.5h-.4q-1.8 6.7-4 12.5l-4.2 11.6h-8.1l-17.3-43.4 7.8-2 8.3 21.2q3.9 10 6 16.4h.3q1.7-5.9 4.1-12.2l4.3-11.2-4.9-12.3 7.6-2 7.8 20.2q3.4 8.7 5.9 16.5h.3q2.9-9 5.8-16.5zM420.7 183.3l.3.1q5.7-8.7 15.1-8.7 6.6 0 10.7 4.4 4.2 4.3 4.2 11.3v29.8h-8.2v-26.5q0-6.4-2.1-9.3-2.1-2.9-6.7-2.9-6.5 0-12.4 7v31.7h-8.2v-26.5q0-8.3-.6-11.3-.5-3-2.4-4.8l6.9-2.9q3 2.4 3.4 8.6zM504.127 176v6h-10.1q-1.3 0-2.3-.3.3 1 .3 2.3v36.2h-8.2V184q0-1.3.3-2.3-1 .3-2.3.3h-7.1v-6h7.1q1.3 0 2.3.3-.3-1-.3-2.3v-4q0-9.3 5.5-14.8 5.5-5.6 14.7-5.6 2.3 0 4.7.5l-1.1 6.4q-1.4-.1-3-.1-6.7 0-9.7 3.2-2.9 3.1-2.9 10.3v4.1q0 1.3-.3 2.3 1-.3 2.3-.3zM527.215 174.7q9.6 0 15.9 6.7 6.4 6.6 6.4 16.7 0 10.2-6.3 16.7t-16.2 6.5q-10 0-16.4-6.4-6.3-6.5-6.3-16.6 0-10.3 6.4-16.9 6.5-6.7 16.5-6.7zm-.9 6.8q-6 0-9.7 4.3-3.7 4.2-3.7 11.1 0 7.7 4.2 12.8 4.3 5.1 10.7 5.1 5.8 0 9.4-4.3 3.7-4.3 3.7-11.1 0-7.7-4.2-12.8-4.1-5.1-10.4-5.1zM583.16 174.7l7.3 2.3-14.6 19.9 16.7 22.3-8 2.3-9-12.6q-1.4-2-4.2-6.6h-.4q-2.5 4.4-4.1 6.6l-8.7 12.6-7.4-2.3 16.4-21.9-15.4-20.3 7.8-2.3 7.7 10.6q1.6 2.3 4.1 6.4h.3q2.1-3.7 4-6.4zM200.144 265.7q1.5-1.6 3.6-1.6t3.5 1.6q1.5 1.5 1.5 3.8t-1.5 3.9q-1.4 1.5-3.5 1.5t-3.6-1.5q-1.4-1.6-1.4-3.9t1.4-3.8zm7.7 20.1v43.9q0 10-1.2 13.9-1.8 5.2-6.4 8.1-4.6 3-11.1 3-1.6 0-2.9-.2l1.2-6.6h1.4q6.7-.1 8.8-3.9 2-3.3 2-16.5v-41.7zM256.095 285.8v30.1q0 5.1.4 6.5.6 2.9 4 2.9 1.1 0 2.5-.3l-1.3 5.7q-2 .5-3.8.5-7.9 0-8.9-6.9l-.2-.1q-6.5 7.1-14.7 7.1-4.3 0-7.8-1.8t-5.2-4.9q-2-3.6-2-11.2v-27.6h8.2V313q0 6.3 2.1 9.1 2.2 2.7 7.1 2.7 6.3 0 11.4-6v-33zM276.053 293.2l.4.1q4.9-8.6 14.5-8.6 4.4 0 7.7 2.3 3.4 2.3 5 6.4l.3.1q3.8-4.8 7.3-6.8t8.2-2q7.1 0 11 4 3.9 4 3.9 11.3v30.2h-8.2V303q0-6.1-1.3-8.2-2-3.4-7.3-3.4-3.6 0-6.4 1.7-2.7 1.7-5.5 5.7v31.4h-8.2v-27.1q0-6.4-1.9-9-1.9-2.7-6.5-2.7-7.4 0-12.1 7.4v31.4h-8.2v-26.5q0-8.3-.6-11.3-.5-3-2.4-4.8l6.9-2.9q3 2.4 3.4 8.5zM343.027 287.6l6.9-2.9q2.7 2.1 3.1 4.7 6.7-4.7 13.3-4.7 8.8 0 14.5 6.5 5.8 6.4 5.8 16.3 0 10.2-6.2 16.7t-15.9 6.5q-5.6 0-10.5-2.4.2 3.4.2 8.1v19.5h-8.2v-52.2q0-8.3-.6-11.3-.5-3-2.4-4.8zm11.2 14v13.5q0 3.6-.4 6.1 4.7 3.4 9.5 3.4 6.7 0 10.6-4.4 3.9-4.4 3.9-12t-3.9-12.3q-3.9-4.8-10.1-4.8-5 0-10 3.4.4 3 .4 7.1zM419.17 289.1l-3.1 6.1q-5.7-3.8-9.5-3.8-3 0-4.9 1.6-1.9 1.5-1.9 3.9 0 1.9 1.4 3.3 1.4 1.3 4.9 2.8l6.5 2.8q8.2 3.5 8.2 11.8 0 5.9-4.4 9.8-4.4 3.9-11.1 3.9-9.1 0-15.4-6.7l4.2-5.5q5.8 5.7 11.7 5.7 3.2 0 5.2-1.7 2.1-1.8 2.1-4.5 0-2.1-1.3-3.4-1.3-1.3-4.9-2.8-8.6-3.5-11.5-6.3-2.9-2.9-2.9-7.9 0-5.7 4-9.6 4.1-3.9 10-3.9 6.7 0 12.7 4.4zM466.773 284.7q9.6 0 15.9 6.7 6.4 6.6 6.4 16.7 0 10.2-6.3 16.7t-16.2 6.5q-10 0-16.4-6.4-6.3-6.5-6.3-16.6 0-10.3 6.4-16.9 6.5-6.7 16.5-6.7zm-.9 6.8q-6 0-9.7 4.3-3.7 4.2-3.7 11.1 0 7.7 4.2 12.8 4.3 5.1 10.7 5.1 5.8 0 9.4-4.3 3.7-4.3 3.7-11.1 0-7.7-4.2-12.8-4.1-5.1-10.4-5.1zM526.594 284.7l7.5 2.1-17.6 43.4h-7.9l-17.2-43.5 8.1-2 7.6 19.6q3.5 8.9 5.9 16.4h.3q2.6-7.9 5.8-16.4zM570.93 307.5h-25.5q-1.1 0-1.8-.4.1 8 4 12.5t10.8 4.5q7.2 0 12.1-4.9l4.2 4.3q-7.2 7.8-17.8 7.8-9.5 0-15.5-6.3-5.9-6.4-5.9-16.7 0-10.3 6.1-16.9 6.1-6.7 15.4-6.7 7.9 0 12.8 5.1 4.9 5 4.9 13.1zm-21.8-5.4h15q1.9 0 3.3.4-.5-5.3-3.5-8.4-3-3.1-7.9-3.1-4.8 0-8.1 3-3.2 3-4.2 8.5 2.3-.4 5.4-.4zM590.21 296.2h.4q5.8-11.5 12.2-11.5 2.7 0 7 1.7l-2 6.9q-3.6-1.2-5.4-1.2-5.5 0-11.4 9.2v28.9h-8.2v-26.5q0-8.3-.6-11.3-.5-3-2.4-4.8l6.9-2.9q1.8 1.5 2.5 4 .8 2.4 1 7.5zM196.547 396v6h-10.1q-1.3 0-2.3-.3.3 1 .3 2.3v21.4q0 5.1 1.3 6.9 1.3 1.8 5 1.8 3.4 0 7.9-1.8l1.2 5.5q-5.4 2.9-11.7 2.9-3.3 0-6.2-1.3-2.9-1.3-4-3.3-1.7-2.9-1.7-12V404q0-1.3.3-2.3-1 .3-2.3.3h-7.4v-4.9q3.4-.2 4.8-.2 1.5-.1 3.2-.8 1.7-.7 2.2-1.1.5-.5 1.2-2.4.8-2 1-3.6.3-1.6.8-5.5h5.1l-.6 10.5q0 1-.4 2.3 1-.3 2.3-.3zM204.627 370.1h8.2v16q0 7.7-.5 16.6l.3.1q3.4-4.3 6.9-6.2 3.5-1.9 8-1.9 6.5 0 10.7 4.4 4.2 4.4 4.2 11.3v29.8h-8.2v-26.5q0-6.4-1.9-8.8-2.6-3.4-7.2-3.4-6.6 0-12.3 7v31.7h-8.2zM285.68 417.5h-25.5q-1.1 0-1.8-.4.1 8 4 12.5t10.8 4.5q7.2 0 12.1-4.9l4.2 4.3q-7.2 7.8-17.8 7.8-9.5 0-15.5-6.3-5.9-6.4-5.9-16.7 0-10.3 6.1-16.9 6.1-6.7 15.4-6.7 7.9 0 12.8 5.1 4.9 5 4.9 13.1zm-21.8-5.4h15q1.9 0 3.3.4-.5-5.3-3.5-8.4-3-3.1-7.9-3.1-4.8 0-8.1 3-3.2 3-4.2 8.5 2.3-.4 5.4-.4zM315.84 370.1h8.2v70.1h-8.2zM334.69 406.8v-7.1q8.6-4.7 16-4.7t11.4 4.3q3.1 3.4 3.1 12.1v14.5q0 5.1.4 6.5.6 2.9 3.9 2.9.8 0 2.6-.4l-1.2 5.8q-2 .5-4 .5-6.9 0-8.7-5.8-3.8 3.3-6.8 4.6-2.9 1.3-6.6 1.3-5.7 0-9.2-3.4-3.5-3.5-3.5-9.2 0-7.5 5.9-11.3 6-3.9 19.4-5-.4-.8-.4-1.7v-.8q0-8.1-7.7-8.1-3.2 0-6.3 1.1-3.1 1-8.3 3.9zm22.3 24.8v-10.1q0-2.4.4-4.2-9.4 1.4-13.3 3.9-3.9 2.5-3.9 7.2 0 3 2 4.8 2 1.8 5.4 1.8 2.3 0 4.1-.6 1.8-.7 5.3-2.8zM406.717 396l1.1 3.7-17.2 23.7q-3.8 5.3-8.1 10.5l.2.2q5.6-.3 13.2-.3h13.7l-1.4 6.2h-35.1l-.9-3.7 17.5-23.9q4.6-6.3 8.1-10.5l-.1-.3q-5.1.4-11.9.4h-11.4v-6z"/><path d="M444.023 394.7l7.3 2-21.6 53.1q-3.3 8-7.5 11.5-4.1 3.5-10.5 3.5-1.4 0-5.8-.6l1.2-6.4q2.7.5 4.3.5 3.9 0 6.5-2.5t5.2-8.7l3.2-7.9-16.6-42.5 7.9-2 7.1 18.6q3.3 8.7 5.8 16.6h.3q2.4-7.4 5.9-16.6zM504.848 370.1h8.2v55.8q0 5.1.4 6.5.3 1.3 1.3 2.1 1.1.8 2.4.8 1.4 0 2.7-.4l-1.2 5.8q-2 .5-3.9.5-7 0-8.7-5.8-6.2 5.9-13.9 5.9-8.7 0-14.3-6.2-5.6-6.3-5.6-16 0-10.2 6.2-17 6.3-6.8 15.6-6.8 5 0 11.1 3.5-.3-4.5-.3-10.2zm0 53.8v-11.1q0-3.5.4-6.1-5-5-10.8-5-5.9 0-9.7 4.7-3.7 4.6-3.7 11.9 0 7.3 3.7 11.8 3.8 4.4 10 4.4 3.1 0 5.3-.9 2.2-1 5.2-3.5-.4-2.6-.4-6.2zM544.883 394.7q9.6 0 15.9 6.7 6.4 6.6 6.4 16.7 0 10.2-6.3 16.7t-16.2 6.5q-10 0-16.4-6.4-6.3-6.5-6.3-16.6 0-10.3 6.4-16.9 6.5-6.7 16.5-6.7zm-.9 6.8q-6 0-9.7 4.3-3.7 4.2-3.7 11.1 0 7.7 4.2 12.8 4.3 5.1 10.7 5.1 5.8 0 9.4-4.3 3.7-4.3 3.7-11.1 0-7.7-4.2-12.8-4.1-5.1-10.4-5.1zM591.003 399.7q-4.5 0-7.1 3-2.5 2.9-2.5 8.2 0 5.5 2.6 8.7 2.7 3.1 7.4 3.1t7.3-2.8q2.6-2.9 2.6-8 0-5.5-2.9-8.8-2.8-3.4-7.4-3.4zm3.6 44.6l-8.3-1.7q-7.8 3.8-7.8 9.8 0 4.1 4 6.9 4 2.8 9.9 2.8 5.8 0 9.4-2.6 3.6-2.5 3.6-6.6 0-3.5-2.5-5.5-2.4-1.9-8.3-3.1zm-9.7-17.3l-.3.3q-2.3 2.3-2.3 4.4 0 1.6 1.4 2.5 1.5.9 5.1 1.7l13.3 2.7q4.9 1 7.9 4.4 3.1 3.4 3.1 8.1 0 7.4-6.2 12.1-6.1 4.8-15.8 4.8-8.9 0-14.6-4-5.7-4-5.7-10.3 0-8.3 11.8-12.7v-.4q-3.6-1.2-5.1-2.7-1.5-1.6-1.5-4.2 0-4.3 5.8-7.9l.3-.2-.1-.2q-8.7-4.2-8.7-14.5 0-7.4 5-11.9 5.1-4.6 13.3-4.6 3.6 0 8 1.6h15.9v5.5l-5.6-.6q-2.8-.2-6-1.1l-.2.3q3.4 3.1 4.5 5.5 1.2 2.4 1.2 6.1 0 7.1-5 11.7-4.9 4.6-12.6 4.6-3.8 0-6.9-1zM620.136 431.5q1.5-1.6 3.8-1.6t3.7 1.6q1.5 1.6 1.5 4.1 0 2.5-1.5 4.2-1.4 1.6-3.7 1.6-2.3 0-3.8-1.6-1.4-1.6-1.4-4.2 0-2.5 1.4-4.1z"/></g></svg>