<svg xmlns="http://www.w3.org/2000/svg" viewBox="0 0 1600 1000" height="1000" width="1600"><path fill="#fff" d="M0 0h1600v1000H0z"/><g font-weight="400" font-size="200" font-family="Today Sans" letter-spacing="-.03em" text-anchor="middle" fill="#222"><path d="M439.566 88.8h108v14.4h-41.4q-2.6 0-4.6-.6.6 2 .6 4.6v113.2h-17.4V107.2q0-2.6.6-4.6-2 .6-4.6.6h-41.2zM559.237 80.2h16.4v32q0 15.4-1 33.2l.6.2q6.8-8.6 13.8-12.4 7-3.8 16-3.8 13 0 21.4 8.8 8.4 8.8 8.4 22.6v59.6h-16.4v-53q0-12.8-3.8-17.6-5.2-6.8-14.4-6.8-13.2 0-24.6 14v63.4h-16.4zM721.344 175h-51q-2.2 0-3.6-.8.2 16 8 25t21.6 9q14.4 0 24.2-9.8l8.4 8.6q-14.4 15.6-35.6 15.6-19 0-31-12.6-11.8-12.8-11.8-33.4 0-20.6 12.2-33.8 12.2-13.4 30.8-13.4 15.8 0 25.6 10.2 9.8 10 9.8 26.2zm-43.6-10.8h30q3.8 0 6.6.8-1-10.6-7-16.8-6-6.2-15.8-6.2-9.6 0-16.2 6-6.4 6-8.4 17 4.6-.8 10.8-.8zM856.063 135.8v136h-16.4v-32.4q0-16.2 1-28.4l-.6-.2q-11.2 10.6-25 10.6-17.6 0-28.8-12-11.2-12.2-11.2-31.2 0-21.8 12.8-35.2 13-13.6 33.8-13.6 14 0 34.4 6.4zm-16.4 50.8v-26.8q0-7.6.8-13.2-8.8-4.4-18.2-4.4-13.4 0-21.6 9-8.2 9-8.2 23.8t7.6 24q7.6 9 20 9 10.6 0 20.4-8.8-.8-5.2-.8-12.6zM952.378 131.6v60.2q0 10.2.8 13 1.2 5.8 8 5.8 2.2 0 5-.6l-2.6 11.4q-4 1-7.6 1-15.8 0-17.8-13.8l-.4-.2q-13 14.2-29.4 14.2-8.6 0-15.6-3.6t-10.4-9.8q-4-7.2-4-22.4v-55.2h16.4V186q0 12.6 4.2 18.2 4.4 5.4 14.2 5.4 12.6 0 22.8-12v-66zM977.694 91.4q3-3.2 7.2-3.2t7 3.2q3 3 3 7.6t-3 7.8q-2.8 3-7 3t-7.2-3q-2.8-3.2-2.8-7.8t2.8-7.6zm15.4 40.2v88.8h-16.4v-88.8zM1082.797 138.6l-8.2 12q-11-7-20-7-11.8 0-19.6 8.6-7.6 8.6-7.6 22 0 15.2 8 24.6 8.2 9.2 21.6 9.2 9.6 0 20.8-6.4l6 10.8q-13.4 10.2-30.6 10.2-19 0-31.2-12.6-12-12.8-12-32.8 0-20.4 12.8-34 13-13.8 32.4-13.8 14.8 0 27.6 9.2zM1090.475 80.2h16.4v59q0 18.4-.8 32l.6.2q9-9.8 20.6-21l20.2-19.6 16.2 3.2-32.2 30.8q-.4.4-2 1.8-1.4 1.2-3 2.6 2.8 3 5.8 6.4l37 44.8h-19.8l-32.2-39.2q-1.6-2-2.4-3.6-.8 1.6-2.6 3.2l-5.4 4.8v34.8h-16.4zM433.202 300.2h16.4v36.4q0 13.4-.8 23.2l.4.2q7.4-5.4 12.8-7.4t12.2-2q17 0 28.4 12.8 11.4 12.8 11.4 32 0 21-13 34.2-12.8 13-33.4 13-9.2 0-16.4-2-7-2-18-7.8zm16.4 84.4v27q0 7.4-.8 12.8 9.6 5.6 18.8 5.6 13.2 0 21-8.8 8-8.8 8-23.4 0-14.8-7.8-24t-20.4-9.2q-10 0-19.6 7.2.8 5.4.8 12.8zM546.317 372.4h.8q11.6-23 24.4-23 5.4 0 14 3.4l-4 13.8q-7.2-2.4-10.8-2.4-11 0-22.8 18.4v57.8h-16.4v-53q0-16.6-1.2-22.6-1-6-4.8-9.6l13.8-5.8q3.6 3 5 8 1.6 4.8 2 15zM629.352 349.4q19.2 0 31.8 13.4 12.8 13.2 12.8 33.4 0 20.4-12.6 33.4t-32.4 13q-20 0-32.8-12.8-12.6-13-12.6-33.2 0-20.6 12.8-33.8 13-13.4 33-13.4zm-1.8 13.6q-12 0-19.4 8.6-7.4 8.4-7.4 22.2 0 15.4 8.4 25.6 8.6 10.2 21.4 10.2 11.6 0 18.8-8.6 7.4-8.6 7.4-22.2 0-15.4-8.4-25.6-8.2-10.2-20.8-10.2zM800.592 349.6l14.2 4-34.4 86.8h-16.2l-9-23.2q-5.6-15-8.6-25h-.8q-3.6 13.4-8 25l-8.4 23.2h-16.2l-34.6-86.8 15.6-4 16.6 42.4q7.8 20 12 32.8h.6q3.4-11.8 8.2-24.4l8.6-22.4-9.8-24.6 15.2-4 15.6 40.4q6.8 17.4 11.8 33h.6q5.8-18 11.6-33zM841.398 366.6l.6.2q11.4-17.4 30.2-17.4 13.2 0 21.4 8.8 8.4 8.6 8.4 22.6v59.6h-16.4v-53q0-12.8-4.2-18.6-4.2-5.8-13.4-5.8-13 0-24.8 14v63.4h-16.4v-53q0-16.6-1.2-22.6-1-6-4.8-9.6l13.8-5.8q6 4.8 6.8 17.2zM1008.255 352v12h-20.2q-2.6 0-4.6-.6.6 2 .6 4.6v72.4h-16.4V368q0-2.6.6-4.6-2 .6-4.6.6h-14.2v-12h14.2q2.6 0 4.6.6-.6-2-.6-4.6v-8q0-18.6 11-29.6 11-11.2 29.4-11.2 4.6 0 9.4 1l-2.2 12.8q-2.8-.2-6-.2-13.4 0-19.4 6.4-5.8 6.2-5.8 20.6v8.2q0 2.6-.6 4.6 2-.6 4.6-.6zM1054.43 349.4q19.2 0 31.8 13.4 12.8 13.2 12.8 33.4 0 20.4-12.6 33.4t-32.4 13q-20 0-32.8-12.8-12.6-13-12.6-33.2 0-20.6 12.8-33.8 13-13.4 33-13.4zm-1.8 13.6q-12 0-19.4 8.6-7.4 8.4-7.4 22.2 0 15.4 8.4 25.6 8.6 10.2 21.4 10.2 11.6 0 18.8-8.6 7.4-8.6 7.4-22.2 0-15.4-8.4-25.6-8.2-10.2-20.8-10.2zM1166.317 349.4l14.6 4.6-29.2 39.8 33.4 44.6-16 4.6-18-25.2q-2.8-4-8.4-13.2h-.8q-5 8.8-8.2 13.2l-17.4 25.2-14.8-4.6 32.8-43.8-30.8-40.6 15.6-4.6 15.4 21.2q3.2 4.6 8.2 12.8h.6q4.2-7.4 8-12.8zM400.288 531.4q3-3.2 7.2-3.2t7 3.2q3 3 3 7.6t-3 7.8q-2.8 3-7 3t-7.2-3q-2.8-3.2-2.8-7.8t2.8-7.6zm15.4 40.2v87.8q0 20-2.4 27.8-3.6 10.4-12.8 16.2-9.2 6-22.2 6-3.2 0-5.8-.4l2.4-13.2h2.8q13.4-.2 17.6-7.8 4-6.6 4-33v-83.4zM512.19 571.6v60.2q0 10.2.8 13 1.2 5.8 8 5.8 2.2 0 5-.6l-2.6 11.4q-4 1-7.6 1-15.8 0-17.8-13.8l-.4-.2q-13 14.2-29.4 14.2-8.6 0-15.6-3.6t-10.4-9.8q-4-7.2-4-22.4v-55.2h16.4V626q0 12.6 4.2 18.2 4.4 5.4 14.2 5.4 12.6 0 22.8-12v-66zM552.106 586.4l.8.2q9.8-17.2 29-17.2 8.8 0 15.4 4.6 6.8 4.6 10 12.8l.6.2q7.6-9.6 14.6-13.6t16.4-4q14.2 0 22 8 7.8 8 7.8 22.6v60.4h-16.4V606q0-12.2-2.6-16.4-4-6.8-14.6-6.8-7.2 0-12.8 3.4-5.4 3.4-11 11.4v62.8h-16.4v-54.2q0-12.8-3.8-18-3.8-5.4-13-5.4-14.8 0-24.2 14.8v62.8h-16.4v-53q0-16.6-1.2-22.6-1-6-4.8-9.6l13.8-5.8q6 4.8 6.8 17zM686.053 575.2l13.8-5.8q5.4 4.2 6.2 9.4 13.4-9.4 26.6-9.4 17.6 0 29 13 11.6 12.8 11.6 32.6 0 20.4-12.4 33.4t-31.8 13q-11.2 0-21-4.8.4 6.8.4 16.2v39h-16.4V607.4q0-16.6-1.2-22.6-1-6-4.8-9.6zm22.4 28v27q0 7.2-.8 12.2 9.4 6.8 19 6.8 13.4 0 21.2-8.8 7.8-8.8 7.8-24t-7.8-24.6q-7.8-9.6-20.2-9.6-10 0-20 6.8.8 6 .8 14.2zM838.34 578.2l-6.2 12.2q-11.4-7.6-19-7.6-6 0-9.8 3.2-3.8 3-3.8 7.8 0 3.8 2.8 6.6 2.8 2.6 9.8 5.6l13 5.6q16.4 7 16.4 23.6 0 11.8-8.8 19.6-8.8 7.8-22.2 7.8-18.2 0-30.8-13.4l8.4-11q11.6 11.4 23.4 11.4 6.4 0 10.4-3.4 4.2-3.6 4.2-9 0-4.2-2.6-6.8-2.6-2.6-9.8-5.6-17.2-7-23-12.6-5.8-5.8-5.8-15.8 0-11.4 8-19.2 8.2-7.8 20-7.8 13.4 0 25.4 8.8zM933.547 569.4q19.2 0 31.8 13.4 12.8 13.2 12.8 33.4 0 20.4-12.6 33.4t-32.4 13q-20 0-32.8-12.8-12.6-13-12.6-33.2 0-20.6 12.8-33.8 13-13.4 33-13.4zm-1.8 13.6q-12 0-19.4 8.6-7.4 8.4-7.4 22.2 0 15.4 8.4 25.6 8.6 10.2 21.4 10.2 11.6 0 18.8-8.6 7.4-8.6 7.4-22.2 0-15.4-8.4-25.6-8.2-10.2-20.8-10.2zM1053.188 569.4l15 4.2-35.2 86.8h-15.8l-34.4-87 16.2-4 15.2 39.2q7 17.8 11.8 32.8h.6q5.2-15.8 11.6-32.8zM1141.86 615h-51q-2.2 0-3.6-.8.2 16 8 25t21.6 9q14.4 0 24.2-9.8l8.4 8.6q-14.4 15.6-35.6 15.6-19 0-31-12.6-11.8-12.8-11.8-33.4 0-20.6 12.2-33.8 12.2-13.4 30.8-13.4 15.8 0 25.6 10.2 9.8 10 9.8 26.2zm-43.6-10.8h30q3.8 0 6.6.8-1-10.6-7-16.8-6-6.2-15.8-6.2-9.6 0-16.2 6-6.4 6-8.4 17 4.6-.8 10.8-.8zM1180.42 592.4h.8q11.6-23 24.4-23 5.4 0 14 3.4l-4 13.8q-7.2-2.4-10.8-2.4-11 0-22.8 18.4v57.8h-16.4v-53q0-16.6-1.2-22.6-1-6-4.8-9.6l13.8-5.8q3.6 3 5 8 1.6 4.8 2 15zM393.094 792v12h-20.2q-2.6 0-4.6-.6.6 2 .6 4.6v42.8q0 10.2 2.6 13.8 2.6 3.6 10 3.6 6.8 0 15.8-3.6l2.4 11q-10.8 5.8-23.4 5.8-6.6 0-12.4-2.6-5.8-2.6-8-6.6-3.4-5.8-3.4-24V808q0-2.6.6-4.6-2 .6-4.6.6h-14.8v-9.8q6.8-.4 9.6-.4 3-.2 6.4-1.6 3.4-1.4 4.4-2.2 1-1 2.4-4.8 1.6-4 2-7.2.6-3.2 1.6-11h10.2l-1.2 21q0 2-.8 4.6 2-.6 4.6-.6zM409.253 740.2h16.4v32q0 15.4-1 33.2l.6.2q6.8-8.6 13.8-12.4 7-3.8 16-3.8 13 0 21.4 8.8 8.4 8.8 8.4 22.6v59.6h-16.4v-53q0-12.8-3.8-17.6-5.2-6.8-14.4-6.8-13.2 0-24.6 14v63.4h-16.4zM571.36 835h-51q-2.2 0-3.6-.8.2 16 8 25t21.6 9q14.4 0 24.2-9.8l8.4 8.6q-14.4 15.6-35.6 15.6-19 0-31-12.6-11.8-12.8-11.8-33.4 0-20.6 12.2-33.8 12.2-13.4 30.8-13.4 15.8 0 25.6 10.2 9.8 10 9.8 26.2zm-43.6-10.8h30q3.8 0 6.6.8-1-10.6-7-16.8-6-6.2-15.8-6.2-9.6 0-16.2 6-6.4 6-8.4 17 4.6-.8 10.8-.8zM631.678 740.2h16.4v140.2h-16.4zM669.38 813.6v-14.2q17.2-9.4 32-9.4t22.8 8.6q6.2 6.8 6.2 24.2v29q0 10.2.8 13 1.2 5.8 7.8 5.8 1.6 0 5.2-.8l-2.4 11.6q-4 1-8 1-13.8 0-17.4-11.6-7.6 6.6-13.6 9.2-5.8 2.6-13.2 2.6-11.4 0-18.4-6.8-7-7-7-18.4 0-15 11.8-22.6 12-7.8 38.8-10-.8-1.6-.8-3.4v-1.6q0-16.2-15.4-16.2-6.4 0-12.6 2.2-6.2 2-16.6 7.8zm44.6 49.6V843q0-4.8.8-8.4-18.8 2.8-26.6 7.8-7.8 5-7.8 14.4 0 6 4 9.6 4 3.6 10.8 3.6 4.6 0 8.2-1.2 3.6-1.4 10.6-5.6zM813.434 792l2.2 7.4-34.4 47.4q-7.6 10.6-16.2 21l.4.4q11.2-.6 26.4-.6h27.4l-2.8 12.4h-70.2l-1.8-7.4 35-47.8q9.2-12.6 16.2-21l-.2-.6q-10.2.8-23.8.8h-22.8v-12z"/><path d="M888.047 789.4l14.6 4-43.2 106.2q-6.6 16-15 23-8.2 7-21 7-2.8 0-11.6-1.2l2.4-12.8q5.4 1 8.6 1 7.8 0 13-5t10.4-17.4l6.4-15.8-33.2-85 15.8-4 14.2 37.2q6.6 17.4 11.6 33.2h.6q4.8-14.8 11.8-33.2zM1009.697 740.2h16.4v111.6q0 10.2.8 13 .6 2.6 2.6 4.2 2.2 1.6 4.8 1.6 2.8 0 5.4-.8l-2.4 11.6q-4 1-7.8 1-14 0-17.4-11.6-12.4 11.8-27.8 11.8-17.4 0-28.6-12.4-11.2-12.6-11.2-32 0-20.4 12.4-34 12.6-13.6 31.2-13.6 10 0 22.2 7-.6-9-.6-20.4zm0 107.6v-22.2q0-7 .8-12.2-10-10-21.6-10-11.8 0-19.4 9.4-7.4 9.2-7.4 23.8 0 14.6 7.4 23.6 7.6 8.8 20 8.8 6.2 0 10.6-1.8 4.4-2 10.4-7-.8-5.2-.8-12.4zM1089.766 789.4q19.2 0 31.8 13.4 12.8 13.2 12.8 33.4 0 20.4-12.6 33.4t-32.4 13q-20 0-32.8-12.8-12.6-13-12.6-33.2 0-20.6 12.8-33.8 13-13.4 33-13.4zm-1.8 13.6q-12 0-19.4 8.6-7.4 8.4-7.4 22.2 0 15.4 8.4 25.6 8.6 10.2 21.4 10.2 11.6 0 18.8-8.6 7.4-8.6 7.4-22.2 0-15.4-8.4-25.6-8.2-10.2-20.8-10.2zM1182.006 799.4q-9 0-14.2 6-5 5.8-5 16.4 0 11 5.2 17.4 5.4 6.2 14.8 6.2t14.6-5.6q5.2-5.8 5.2-16 0-11-5.8-17.6-5.6-6.8-14.8-6.8zm7.2 89.2l-16.6-3.4q-15.6 7.6-15.6 19.6 0 8.2 8 13.8 8 5.6 19.8 5.6 11.6 0 18.8-5.2 7.2-5 7.2-13.2 0-7-5-11-4.8-3.8-16.6-6.2zm-19.4-34.6l-.6.6q-4.6 4.6-4.6 8.8 0 3.2 2.8 5 3 1.8 10.2 3.4l26.6 5.4q9.8 2 15.8 8.8 6.2 6.8 6.2 16.2 0 14.8-12.4 24.2-12.2 9.6-31.6 9.6-17.8 0-29.2-8-11.4-8-11.4-20.6 0-16.6 23.6-25.4v-.8q-7.2-2.4-10.2-5.4-3-3.2-3-8.4 0-8.6 11.6-15.8l.6-.4-.2-.4q-17.4-8.4-17.4-29 0-14.8 10-23.8 10.2-9.2 26.6-9.2 7.2 0 16 3.2h31.8v11l-11.2-1.2q-5.6-.4-12-2.2l-.4.6q6.8 6.2 9 11 2.4 4.8 2.4 12.2 0 14.2-10 23.4-9.8 9.2-25.2 9.2-7.6 0-13.8-2zM1240.272 863q3-3.2 7.6-3.2t7.4 3.2q3 3.2 3 8.2 0 5-3 8.4-2.8 3.2-7.4 3.2-4.6 0-7.6-3.2-2.8-3.2-2.8-8.4 0-5 2.8-8.2z"/></g></svg>