<svg xmlns="http://www.w3.org/2000/svg" viewBox="0 0 800 500"><path fill="#fff" d="M0 0h800v500H0z"/><g font-weight="400" font-size="100" font-family="Trajan Pro" text-anchor="middle" fill="#111"><path d="M155.702 39l12.6.2c9.6.2 12 2.5 12.3 5.5l.1 1.1c.1 1.4.3 1.7.8 1.7.4 0 .7-.4.7-1.3 0-1.1.3-8 .3-11 0-.6 0-1.2-.5-1.2-.4 0-1.3.3-2.8.5-1.6.3-3.9.5-7.1.5h-37.5c-1.2 0-5-.2-7.9-.5-2.7-.2-3.7-1.2-4.4-1.2-.4 0-.8 1.3-1 1.9-.2.8-2.2 9.4-2.2 10.4 0 .6.2.9.5.9.4 0 .7-.2 1-1 .3-.7.6-1.4 1.7-3.1 1.6-2.4 4-3.1 10.2-3.2l14.8-.2v42.3c0 9.6 0 17.5-.5 21.7-.4 2.9-.9 5.1-2.9 5.5-.9.2-2.1.4-3 .4-.6 0-.8.3-.8.6 0 .6.5.8 1.6.8 3 0 9.3-.3 9.8-.3s6.8.3 12.3.3c1.1 0 1.6-.3 1.6-.8 0-.3-.2-.6-.8-.6-.9 0-3.1-.2-4.5-.4-3-.4-3.6-2.6-3.9-5.5-.5-4.2-.5-12.1-.5-21.7zM252.99 70.6c0-13.2 0-15.6.2-18.3.2-3 .7-4.2 3-4.7 1.1-.2 1.6-.2 2.2-.2.4 0 .8-.4.8-.7 0-.5-.5-.7-1.5-.7-2.6 0-8.2.2-8.7.2-.4 0-6.1-.2-10-.2-1 0-1.4.2-1.4.7 0 .3.3.7.7.7.8 0 2.3.1 3 .2 2.9.4 3.3 1.8 3.5 4.7.1 2.7.2 5.3.2 18.5v1.8c0 .5-.2.5-.5.5h-36.7c-.3 0-.5 0-.5-.5v-1.8c0-13.2 0-15.8.1-18.5.2-3 .7-4.2 3.1-4.7 1-.2 1.6-.2 2.2-.2.3 0 .7-.4.7-.7 0-.5-.4-.7-1.4-.7-2.7 0-8.3.2-8.7.2-.5 0-6.1-.2-10.1-.2-1 0-1.4.2-1.4.7 0 .3.4.7.7.7.8 0 2.3.1 3 .2 2.9.4 3.4 1.8 3.6 4.7.2 2.7.2 5.1.2 18.3v15c0 8.2 0 14.9-.5 18.4-.4 2.5-.6 4.1-2.3 4.5-.8.2-1.9.4-2.7.4-.5 0-.7.4-.7.7 0 .5.5.7 1.4.7 2.7 0 8.3-.3 8.8-.3.4 0 6 .3 10.9.3 1 0 1.4-.3 1.4-.7 0-.3-.2-.7-.7-.7-.8 0-2.7-.2-4-.4-2.6-.4-2.9-2-3.2-4.5-.4-3.5-.4-10-.4-18.2v-8.5c0-.4.2-.5.5-.5h36.7c.3 0 .5.1.5.5v8.5c0 8.2 0 14.6-.4 18.1-.3 2.5-.6 4.2-2.4 4.6-.8.2-1.8.4-2.6.4-.5 0-.7.4-.7.7 0 .5.4.7 1.4.7 2.6 0 8.3-.3 8.7-.3.5 0 6.1.3 10.9.3 1 0 1.5-.3 1.5-.7 0-.3-.2-.7-.8-.7-.7 0-2.7-.2-3.9-.4-2.7-.4-2.9-2-3.2-4.5-.4-3.5-.5-10.2-.5-18.4zM282.102 85.6c0 8.2 0 14.9-.5 18.4-.4 2.5-.6 4.2-2.3 4.5-.8.1-1.9.4-2.7.4-.5 0-.7.4-.7.7 0 .5.5.7 1.4.7 1.4 0 3.4-.1 5.1-.2 1.9-.1 3.6-.1 3.8-.1 1.3 0 3.6 0 7.3.2 3.6.1 8.7.3 15.3.3 3.4 0 4.3 0 4.9-2.2.5-1.8 1.2-7.6 1.2-8.2 0-.6-.1-1.3-.6-1.3s-.7.3-.9 1.3c-.5 3.4-1.7 4.9-4 5.9-2.3.9-6.5.9-8.8.9-8.7 0-10.3-1.1-10.5-6.8-.1-1.7 0-11.6 0-14.5v-7.1c0-.3.1-.6.6-.6 1.5 0 10.9.1 13.3.4 3.4.4 4.2 1.4 4.5 2.6.4 1.1.4 2 .4 2.8 0 .5.2.8.6.8.6 0 .8-.9.8-1.6 0-.6.2-3.8.4-5.5.2-2.8.7-4.2.7-4.7s-.2-.7-.5-.7-.7.5-1.3 1.1c-.9.9-2.2 1-4.3 1.2-2 .2-13.6.2-14.7.2-.5 0-.5-.3-.5-.9V50.5c0-.6.1-.9.5-.9 1 0 11.2.1 12.7.3 4.8.6 5.7 1.2 6.3 2.6.4 1 .5 2.4.5 3 0 .7.2 1.1.7 1.1.4 0 .7-.5.8-.9.2-1 .4-4.8.5-5.6.2-2.4.7-3.4.7-4 0-.4-.1-.8-.4-.8-.4 0-.8.3-1.2.4-.7.1-2.3.4-4 .5-2 .1-20.4 0-21 0-.5 0-6.2-.2-10.2-.2-1 0-1.4.2-1.4.7 0 .3.4.7.7.7.8 0 2.3.1 3 .2 2.9.4 3.4 1.8 3.6 4.7.2 2.7.2 5.1.2 18.3zM422.502 116.7c14.2 7.7 25.7 11.2 36.4 11.2 13 0 23-3.7 28-5.9.5-.2.7-.5.7-.9 0-.2-.2-.6-.5-.6s-.7.1-1.3.3c-6.1 2.2-12.8 3.3-17.2 3.3-4.4 0-17.7-.5-36.9-10l-18-8.9c5.8-3.6 15.5-13.6 15.5-28.5 0-19.7-15-31.9-34.8-31.9-24.3 0-34.9 19.5-34.9 33.2 0 15.3 10.2 33.4 34.5 33.4 4.7 0 10.7-1 13.9-2.6zm-54-41c0-18.6 10.6-27.7 25.3-27.7 13.9 0 26.4 10.9 26.4 31.1 0 24.5-16 28.8-23.9 28.8-15.9 0-27.8-12.6-27.8-32.2z"/><path d="M446.156 83.1c0 12.4 3.4 18.3 7.7 22.3 6.2 5.8 15.4 6 18.3 6 5.2 0 12-.7 18.4-6.2 7-6 8.2-16.3 8.2-25.5v-9.1c0-13.2-.1-15.6.1-18.3.2-2.8.7-4.2 3.1-4.7 1.1-.2 1.6-.2 2.2-.2.4 0 .7-.4.7-.7 0-.5-.4-.7-1.4-.7-2.6 0-6.8.2-7.4.2-.5 0-5.6-.2-9.5-.2-1 0-1.4.2-1.4.7 0 .3.3.7.7.7.8 0 2.3.1 3 .2 2.9.4 3.4 2 3.5 4.7.1 2.7.2 5.1.2 18.3v10.7c0 8.7-.9 15.7-5 20.6-3 3.6-8.2 6-13.6 6-5 0-8.8-.7-13.1-4.6-3.8-3.4-6.5-8.5-6.5-20.8V70.6c0-13.2 0-15.6.2-18.3.2-2.8.7-4.3 3-4.7 1.1-.2 1.6-.2 2.2-.2.4 0 .8-.4.8-.7 0-.5-.5-.7-1.5-.7-2.6 0-8.1.2-8.9.2-.8 0-6.1-.2-10.1-.2-1 0-1.4.2-1.4.7 0 .3.4.7.7.7.8 0 2.3.1 3 .2 2.9.4 3.4 2 3.6 4.7.2 2.7.2 5.1.2 18.3zM531.898 70.6c0-13.2 0-15.6.1-18.3.2-3 .7-4.2 3.1-4.7 1-.2 1.6-.2 2.2-.2.3 0 .7-.4.7-.7 0-.5-.4-.7-1.4-.7-2.7 0-8.4.2-8.8.2-.5 0-6-.2-8.9-.2-1 0-1.4.2-1.4.7 0 .3.3.7.7.7.6 0 1.7.1 2.7.3 1.9.4 2.6 1.7 2.8 4.6.2 2.7.2 5.1.2 18.3v15c0 8.2-.1 14.9-.5 18.4-.3 2.5-.6 4.1-2.3 4.5-.8.2-1.9.4-2.7.4-.5 0-.7.4-.7.7 0 .5.5.7 1.4.7 2.7 0 8.2-.3 8.7-.3.4 0 6.1.3 11 .3 1 0 1.4-.3 1.4-.7 0-.3-.2-.7-.7-.7-.8 0-2.7-.2-4-.4-2.6-.4-2.9-2-3.2-4.5-.4-3.5-.4-10.2-.4-18.4zM591.098 111.4c5.7 0 12.3-.5 15.9-1.9 1.5-.6 1.7-.9 2.2-2.5.9-2.9 2.1-10.3 2.1-10.9 0-.6-.4-1.2-.8-1.2-.6 0-.7.3-.9 1.2-.3 1.6-1.5 5.2-3.4 7.1-3.5 3.5-7.9 4-14.5 4-18.8 0-31.7-14.5-31.7-30.8 0-8.6 1.4-16.2 7.9-22.2 3.1-2.9 8.5-5.9 19.8-5.9 7.8 0 14.2 2.1 17.3 4.7 2.3 1.8 3.7 5.2 3.7 8.5 0 1.2.1 1.8.7 1.8.5 0 .9-.5 1-1.8.1-1.2.1-5.9.2-8.7.2-3.1.4-4.1.4-4.8 0-.5-.2-.9-1.1-.9-2.9-.1-5.7-.7-9-1.3-4.3-.7-9.3-1-12.8-1-13.5 0-21.5 4-26.8 9.1-7.8 7.6-9.9 17.5-9.9 23.2 0 8.1 2.1 17.8 10.7 25.2 6.9 6 15.8 9.1 29 9.1zM632.297 85.6c0 8.2 0 14.9-.5 18.4-.4 2.5-.6 4.1-2.3 4.5-.8.2-1.9.4-2.7.4-.5 0-.7.4-.7.7 0 .5.5.7 1.4.7 2.7 0 8-.3 8.7-.3.7 0 6 .3 10.3.3 1 0 1.4-.3 1.4-.7 0-.3-.2-.7-.7-.7-.8 0-2.2-.2-3.4-.4-2.7-.4-3.1-2-3.4-4.5-.4-3.5-.4-10.2-.4-18.4v-8.3h.4c4.2 5 22.7 24.5 26.7 27.6 3.8 2.9 6.1 4.8 10.7 5.2 2 .2 3.6.2 6.1.2h4.5c1.5 0 1.9-.3 1.9-.7 0-.4-.5-.7-1.1-.7-.6 0-3.1-.3-5.4-1.2-4.2-1.7-5.2-2.8-12.6-9.4-3.6-3.3-21.9-21.6-24.2-24.1 1.9-2.1 16.9-16.5 19.1-18.5 3.9-3.7 5.6-5.6 9.2-7.2 1.7-.7 3.6-1.2 4.9-1.2.7 0 .9-.3.9-.7 0-.4-.4-.6-1.3-.6-2.2 0-8 .2-8.5.2-2.1 0-4.8-.2-6.6-.2-.6 0-1 .2-1 .6 0 .3.3.7.8.8.7.1 1.1.6 1.1 1.7 0 1.4-2.3 3.6-4.8 6.1-3.3 3.4-19 18.9-20.4 20.5h-.4v-5.1c0-13.2 0-15.6.2-18.3.2-3 .8-4.2 3.1-4.7 1.1-.2 1.6-.2 2.2-.2.4 0 .7-.4.7-.7 0-.5-.4-.7-1.4-.7-2.6 0-7.9.2-8.7.2-.5 0-5.9-.2-9.9-.2-1 0-1.4.2-1.4.7 0 .3.4.7.7.7.8 0 2.3.1 3 .2 2.9.4 3.4 1.8 3.6 4.7.2 2.7.2 5.1.2 18.3zM108.957 195.6c0 8.2 0 14.9-.5 18.4-.4 2.5-.6 4.4-2.3 4.7-.8.1-1.9.4-2.7.4-.5 0-.7.2-.7.5 0 .5.5.7 1.4.7 1.4 0 3.5-.1 5.3-.2 1.8 0 3.4-.1 3.6-.1.4 0 2.9.1 5.7.2 2.8.2 6 .3 7.6.3 15 0 22.1-9.4 22.1-18.9 0-9.6-8.8-15.7-15.5-17.7 4.5-4 8.9-8.2 8.9-14.9 0-4.5-3.8-13-18.5-13-4.1 0-8.2.2-10.3.2-.5 0-6.2-.2-10.2-.2-1 0-1.4.2-1.4.7 0 .3.4.5.7.5.8 0 2.3.1 3 .2 2.9.4 3.4 2 3.6 4.9.2 2.7.2 5.1.2 18.3zm7.6-35.6c0-.5.3-.7 1.1-.9 1.4-.3 3.5-.4 4.5-.4 8.8 0 12.4 7.2 12.4 13.7 0 4.1-1.5 7-3.4 9.1-1.8 2-3.7 2.2-8.6 2.2-3.3 0-4.9-.3-5.4-.4-.4-.1-.6-.3-.6-.9zm0 27.1c0-.4.2-.6.5-.6 1.4 0 5.8 0 6.9.2 2.1.4 4.9.3 7.9 2.2 6.9 4.4 8.4 11.7 8.4 15.5 0 10.9-7.1 13.1-12.9 13.1-1.6 0-5.3-.1-7.7-1.2-2.7-1.3-2.7-2.3-3-6.4-.1-1.3-.1-11.5-.1-18.1zM167.355 195.6c0 8.2 0 14.9-.5 18.4-.4 2.5-.6 4.1-2.3 4.5-.8.2-1.9.4-2.7.4-.5 0-.7.4-.7.7 0 .5.5.7 1.4.7 2.7 0 8.6-.3 8.7-.3.4 0 6 .3 10.8.3 1 0 1.4-.3 1.4-.7 0-.3-.1-.7-.7-.7-.8 0-2.7-.2-3.9-.4-2.7-.4-3.2-2-3.5-4.5-.4-3.5-.4-10.1-.4-18.3v-2c0-.5.2-.7.6-.7l11.2.2c.6 0 .8.1 1.2.5 1.9 2.3 5.8 7.8 9.5 12.4 5 6.4 8.2 10.5 12 12.5 2.2 1.2 4.4 1.7 9.4 1.7h5.5c1.6 0 2.1-.2 2.1-.7 0-.3-.3-.7-.8-.7s-1.4 0-3.1-.3c-2.2-.3-5.1-1.1-9.8-5.9-5.1-5.3-11.2-13-18.4-22 8.2-7 10.8-13.1 10.8-19.4 0-5.9-3.9-10-6.1-11.6-4.6-3.2-10.8-3.7-16.4-3.7-2.7 0-10.1.2-11 .2-.5 0-6.4-.2-10.4-.2-1 0-1.4.2-1.4.7 0 .3.4.7.7.7.8 0 2.3.1 3 .2 2.9.4 3.4 1.8 3.6 4.7.2 2.7.2 5.1.2 18.3zm7.6-35.1c0-.5.3-.8.7-1 .9-.2 3.7-.5 6.3-.5 9.4 0 15.2 6.1 15.2 16.7 0 6.5-2.3 11-5.3 13-2.1 1.4-4.5 1.5-6.6 1.5-3.9 0-8.4-.6-9.7-1.3-.4-.3-.6-.6-.6-1.1zM225.91 188c0 15.3 10.3 33.4 34.4 33.4 21.2 0 35.3-15.7 35.3-34.7 0-19.8-15-31.9-34.8-31.9-24.3 0-34.9 19.5-34.9 33.2zm9.1-2.3c0-18.5 10.6-27.7 25.3-27.7 13.9 0 26.3 10.7 26.3 31.1 0 24.6-15.9 28.8-23.8 28.8-15.9 0-27.8-12.4-27.8-32.2zM353.684 160.3c-1.1-2.9-1.8-4-2.4-4-.5 0-1.1.5-2.4 3.9l-18.4 47.5h-.2c-1.1-3.5-10.1-34.7-11.5-40.1-1-3.8-1.7-6.8-1.7-7.9 0-1.1.6-1.6 1.2-1.8 1-.5 2.4-.5 3.1-.5.4 0 .9-.3.9-.8 0-.4-.4-.6-1.6-.6-4.4 0-8.4.2-9.2.2-.9 0-5.8-.2-10.4-.2-.8 0-1.4.2-1.4.6 0 .5.4.8.8.8.6 0 2.8.1 4 .5 2.3.8 3.2 1.9 4.6 6.4l15.6 50.4c1.8 5.8 2.5 6.7 3.4 6.7 1 0 1.6-.9 3.1-4.5 3.2-7.9 15.1-39 18.1-46.4l17.2 46.5c1.2 3.3 2 4.4 2.9 4.4 1 0 1.5-1 3.8-7.3 3.5-9.5 12.2-36.5 16.1-47.3 1.7-4.7 3.1-8.1 5.7-9 1-.3 2.7-.4 3-.4.6 0 .8-.5.8-.9 0-.3-.4-.5-1.2-.5-2.7 0-6.5.2-7.1.2-.8 0-4.5-.2-9-.2-1.1 0-1.5.2-1.5.6 0 .3.3.8.8.8 4 0 4.7 1 4.7 2.5 0 1.1-.1 2.1-1 5.3-3.1 10.9-11 35.5-13.2 42.5h-.4zM415.76 168.6c2.7 3 12.6 13.4 22.8 24.1 9.3 9.7 22 22.2 22.9 23 4.9 4.5 5.8 5.2 6.7 5.2.6 0 .7-.5.7-6.1l.2-49.8c0-5.1.2-6.8 3.1-7.4 1-.2 1.7-.2 2.1-.2.6 0 1-.5 1-.8 0-.5-.7-.6-1.6-.6-3.6 0-6.5.2-7.5.2s-5.2-.2-9.2-.2c-1 0-1.7.1-1.7.6 0 .3.1.8.7.8.7 0 2.7.1 4.3.4 2.7.5 3.2 2.4 3.3 7.9l.9 42.6c-2.7-2.8-12.1-12.9-20.8-21.9-13.6-14-26.4-27.6-27.8-29-.9-.9-2.4-2.6-3.4-2.6-.7 0-1.2.9-1.2 4.3v48.7c0 7.7-.3 10-2.5 10.6-1.3.4-2.9.5-3.6.5-.4 0-.7.3-.7.7 0 .6.5.7 1.4.7 4 0 7.7-.3 8.5-.3.8 0 4.3.3 9.3.3 1 0 1.6-.2 1.6-.7 0-.4-.3-.7-.7-.7-.8 0-2.8-.1-4.4-.5-2.4-.6-3.2-2.7-3.4-9.7zM528.88 195.6c0 8.2 0 14.9-.5 18.4-.4 2.5-.6 4.2-2.3 4.5-.8.1-1.9.4-2.7.4-.5 0-.7.4-.7.7 0 .5.5.7 1.4.7 2.7 0 8.2-.3 8.7-.3.4 0 6.1.3 11 .3 1 0 1.4-.3 1.4-.7 0-.3-.2-.7-.7-.7-.8 0-2.7-.2-4-.4-2.4-.4-2.9-2-3.2-4.5-.4-3.3-.4-10-.4-18.4v-6.8c0-.6.1-.8.6-.8 1.5 0 11.9-.1 14.1.2 2.7.4 4.1 1.5 4.5 2.7.4 1 .5 2.2.6 3.1 0 .4.1.8.6.8.6 0 .8-.9.8-1.7 0-.6.1-4 .3-5.7.2-2.8.8-4.2.8-4.7 0-.4-.1-.7-.5-.7-.3 0-.7.4-1.1.9-.8 1-2 1.3-4.1 1.5-1.2.1-2.5.1-4 .1l-12 .1c-.6 0-.6-.3-.6-.8v-23.2c0-.7.2-.9.7-.9l14.4.2c3.4 0 5.5 1.4 6 2.5s.8 2.5.8 3.2c0 .6.3 1 .7 1 .4 0 .7-.5.8-.9.2-1 .3-4.8.4-5.6.3-2.4.7-3.4.7-4 0-.4-.2-.8-.6-.8-.3 0-.7.4-1.2.5-.8.3-2.3.3-4 .4-2 .1-21.1 0-22.8 0-.5 0-6-.2-10-.2-1 0-1.4.2-1.4.7 0 .3.4.7.7.7.8 0 2.3.1 3 .2 2.9.4 3.4 1.8 3.6 4.7.2 2.7.2 5.1.2 18.3zM572.395 188c0 15.3 10.3 33.4 34.4 33.4 21.2 0 35.3-15.7 35.3-34.7 0-19.8-15-31.9-34.8-31.9-24.3 0-34.9 19.5-34.9 33.2zm9.1-2.3c0-18.5 10.6-27.7 25.3-27.7 13.9 0 26.3 10.7 26.3 31.1 0 24.6-15.9 28.8-23.8 28.8-15.9 0-27.8-12.4-27.8-32.2zM656.21 211.8c-2.8 4.3-4.6 5.9-7.2 6.6-1.3.3-2.6.5-3.3.5-.5 0-.7.4-.7.8 0 .3.1.6.8.6 2.9 0 7.3-.3 8-.3.8 0 6.6.3 8.7.3.6 0 1.1-.2 1.1-.6 0-.4-.3-.8-.8-.8-.4 0-1.1-.1-1.6-.2-.8-.2-1.4-.6-1.4-1.4 0-.9.3-2.4 1.1-3.8l13.5-22.3c5.3 8.6 10.1 16.8 14.9 25.1.8 1.4 0 2.3-.5 2.4-.3.1-.5.4-.5.7 0 .4.4.6 2.7.7 4.8.2 9 .2 14.4.2.8 0 1.2-.3 1.2-.7 0-.4-.2-.7-.7-.7-.5 0-1.8-.2-3-.5-2.6-.7-3.6-1.9-5-3.7-1.9-2.3-16.9-27-18.6-29.6l14.1-20.6c2.5-3.7 4.1-5.9 6.6-6.7 1-.3 2.3-.4 3-.4.6 0 .9-.5.9-.8 0-.4-.4-.6-1.4-.6-3 0-6.6.2-7.4.2-.8 0-4.5-.2-7.8-.2-1.1 0-1.5.2-1.5.6 0 .4.3.8.8.8s1.5 0 2.4.2c.9.3 1.5.8 1.5 1.4 0 1-.2 1.8-.9 3-.8 1.8-10.1 16.1-12.7 19.8-4.6-7.3-7.9-13.4-11.6-20.1-.5-.9-.9-2-.9-2.8 0-.6.3-1.2 1.1-1.3.7-.2 1.8-.2 2.4-.2.5 0 .8-.4.8-.8s-.3-.6-1.5-.6c-3 0-7.8.2-8.6.2-.7 0-7.8-.2-10.3-.2-1.1 0-1.5.2-1.5.6 0 .3.3.8.8.8s2.3.2 3.7.6c3 .9 4.7 3.3 6.7 6.6l14 22.8zM117.348 290.6c0-13.2 0-15.6.1-18.3.2-3 .7-4.2 3.1-4.7 1-.2 1.6-.2 2.2-.2.3 0 .7-.4.7-.7 0-.5-.4-.7-1.4-.7-2.7 0-8.2.2-8.6.2-.5 0-6.2-.2-10.2-.2-1 0-1.4.2-1.4.7 0 .3.4.7.7.7.8 0 2.3.1 3 .2 2.9.4 3.4 1.8 3.6 4.7.2 2.7.2 5.1.2 18.3v24.6c0 21.9-2.7 26.3-8.4 32-.8.7-2 1.7-3.1 2.3-.8.5-1.1.9-1.1 1.4 0 .4.4.5.6.5.3 0 .5-.1.6-.1.9-.5 2.4-1.4 3.6-2.2 7.1-4.7 11-8.7 12.9-13 2.6-6 2.9-11.3 2.9-25.1zM141.762 303.1c0 12.4 3.4 18.3 7.7 22.3 6.2 5.8 15.4 6 18.3 6 5.2 0 12-.7 18.4-6.2 7-6 8.2-16.3 8.2-25.5v-9.1c0-13.2-.1-15.6.1-18.3.2-2.8.7-4.2 3.1-4.7 1.1-.2 1.6-.2 2.2-.2.4 0 .7-.4.7-.7 0-.5-.4-.7-1.4-.7-2.6 0-6.8.2-7.4.2-.5 0-5.6-.2-9.5-.2-1 0-1.4.2-1.4.7 0 .3.3.7.7.7.8 0 2.3.1 3 .2 2.9.4 3.4 2 3.5 4.7.1 2.7.2 5.1.2 18.3v10.7c0 8.7-.9 15.7-5 20.6-3 3.6-8.2 6-13.6 6-5 0-8.8-.7-13.1-4.6-3.8-3.4-6.5-8.5-6.5-20.8v-11.9c0-13.2 0-15.6.2-18.3.2-2.8.7-4.3 3-4.7 1.1-.2 1.6-.2 2.2-.2.4 0 .8-.4.8-.7 0-.5-.5-.7-1.5-.7-2.6 0-8.1.2-8.9.2-.8 0-6.1-.2-10.1-.2-1 0-1.4.2-1.4.7 0 .3.4.7.7.7.8 0 2.3.1 3 .2 2.9.4 3.4 2 3.6 4.7.2 2.7.2 5.1.2 18.3zM277.84 267.1c-.2-1.6-.7-2.3-1.3-2.3-.6 0-1 .6-1.4 1.4l-25.6 52.7-26.6-52.8c-.5-1-1.2-1.3-1.8-1.3-.5 0-.9.6-1 1.5l-6.4 55.5c-.4 3.2-.5 6.3-3.4 6.8-1.3.2-1.9.3-2.6.3-.5 0-.9.3-.9.6 0 .6.6.8 1.5.8 2.4 0 6.6-.3 7.4-.3.7 0 4.9.3 8.2.3 1 0 1.6-.2 1.6-.8 0-.3-.4-.6-.7-.6-.6 0-1.9-.1-3.4-.5-1.3-.3-2.1-1.1-2.1-2.4 0-1.4 0-3 .1-4.3l3.4-38.4h.4c1.5 3.5 8.6 17.8 11.2 23.2 2.2 4.6 8 15.5 10.3 19.7 1.7 3.1 2.2 3.9 3 3.9.8 0 1.3-.8 3.1-4.5l21.2-43.4h.2l4.2 43c.2 1.6.1 2.9-.4 3-.4.1-.6.4-.6.7 0 .4.4.7 2.5.9 3.2.3 13 .5 15 .5 1 0 1.8-.3 1.8-.8 0-.4-.3-.6-.7-.6-.9 0-3.2 0-5.7-.8-3.6-1.2-4.2-5.8-4.5-8.8zM310.324 305.6c0 8.2 0 14.9-.5 18.4-.4 2.5-.6 4.1-2.3 4.5-.8.2-1.9.4-2.7.4-.5 0-.7.4-.7.7 0 .5.5.7 1.4.7 2.7 0 8.4-.3 8.7-.3.4 0 6.2.3 11 .3 1 0 1.4-.3 1.4-.7 0-.3-.2-.7-.7-.7-.8 0-2.7-.2-3.9-.4-2.7-.4-3.2-2-3.5-4.5-.4-3.5-.4-10.2-.4-18.4V271c0-.9.2-1.5.7-1.6.9-.2 3.4-.6 4.9-.6 2 0 7.3-.5 11.9 4.1 4.7 4.6 5 10.1 5 12.9 0 7.7-6.8 13.7-16.3 13.7-1.8 0-2.3.2-2.3.9 0 .4.5.8.9.8.5.1 2 .1 2.5.1 13.5 0 22.7-8.1 22.7-20.3 0-4.6-2.4-8.4-4.4-10.2-1.5-1.3-5.5-4.8-16.8-4.8-4 0-10.6.2-12.5.2-.7 0-6.2-.2-10.2-.2-1 0-1.4.2-1.4.7 0 .3.4.7.7.7.8 0 2.3.1 3 .2 2.9.4 3.4 1.8 3.6 4.7.2 2.7.2 5.1.2 18.3zM374.904 331.4c4.8 0 10.3-.6 14-3 6.3-4.1 8.2-9.5 8.2-14.5 0-7.3-3.7-13.2-14.4-20.5l-2.5-1.7c-8.7-5.9-11.4-9-11.4-14.4 0-6 5.3-9.2 11.7-9.2 7.9 0 10.8 3.2 11.4 4.2.5.9 1.2 3.2 1.3 4.2.1.7.2 1.1.8 1.1.6 0 .7-.6.7-1.9 0-5.8.4-8.6.4-9 0-.5-.2-.6-.9-.6s-1.4 0-3.1-.4c-2.1-.5-5.6-1-9.1-1-11.6 0-19.5 6-19.5 16 0 5.9 3.1 11.1 12.6 18.2l4 3c7.8 5.8 11.1 8.7 11.1 14.8 0 6.4-4.5 11.3-13.2 11.3-5.9 0-12.5-2.2-13.9-8.4-.3-1.2-.3-2.4-.3-3.1 0-.7-.3-1-.8-1s-.7.5-.7 1.4c-.1 1.4-.5 4.8-.5 9 0 2.3.1 2.6 1.3 3.2 3.6 1.7 8.7 2.3 12.8 2.3zM444.27 298c0 15.3 10.3 33.4 34.4 33.4 21.2 0 35.3-15.7 35.3-34.7 0-19.8-15-31.9-34.8-31.9-24.3 0-34.9 19.5-34.9 33.2zm9.1-2.3c0-18.5 10.6-27.7 25.3-27.7 13.9 0 26.3 10.7 26.3 31.1 0 24.6-15.9 28.8-23.8 28.8-15.9 0-27.8-12.4-27.8-32.2zM536.852 276.4c-1.3-3.4-2.4-6-2.4-7.1 0-.6.1-1.1 1-1.5.8-.3 2.2-.4 3.2-.4.6 0 .9-.4.9-.8s-.8-.6-2.4-.6c-3.4 0-7.3.2-8.2.2-1.1 0-6.1-.2-10.3-.2-1.4 0-2.3.1-2.3.6 0 .3.2.8.7.8.5 0 2 0 3.4.3 2.9.7 4.1 1.6 6.1 6.4l21.6 52.1c1.7 4.1 2.3 5.2 3.3 5.2.9 0 1.4-1.3 3.8-6.4 2-4.2 5.9-13.4 11.3-25.8 4.5-10.4 8.8-20.6 9.8-23 2.3-5.8 3.7-7 4.9-7.8 1.6-1 3.6-1 4.2-1 .7 0 1-.4 1-.8s-.5-.6-1.4-.6c-2.6 0-6.4.2-6.9.2-1.1 0-5.1-.2-8.6-.2-1.4 0-2 .2-2 .7 0 .4.5.7 1 .7 1 0 2 0 3 .3.9.3 1.2 1.1 1.2 1.8s-.4 1.9-.8 3.2c-1.9 6.1-13.4 35.1-18.5 46.5zM599.387 305.6c0 8.2 0 14.9-.5 18.4-.4 2.5-.6 4.2-2.3 4.5-.8.1-1.9.4-2.7.4-.5 0-.7.4-.7.7 0 .5.5.7 1.4.7 1.4 0 3.4-.1 5.1-.2 1.9-.1 3.6-.1 3.8-.1 1.3 0 3.6 0 7.3.2 3.6.1 8.7.3 15.3.3 3.4 0 4.3 0 4.9-2.2.5-1.8 1.2-7.6 1.2-8.2 0-.6-.1-1.3-.6-1.3s-.7.3-.9 1.3c-.5 3.4-1.7 4.9-4 5.9-2.3.9-6.5.9-8.8.9-8.7 0-10.3-1.1-10.5-6.8-.1-1.7 0-11.6 0-14.5v-7.1c0-.3.1-.6.6-.6 1.5 0 10.9.1 13.3.4 3.4.4 4.2 1.4 4.5 2.6.4 1.1.4 2 .4 2.8 0 .5.2.8.6.8.6 0 .8-.9.8-1.6 0-.6.2-3.8.4-5.5.2-2.8.7-4.2.7-4.7s-.2-.7-.5-.7-.7.5-1.3 1.1c-.9.9-2.2 1-4.3 1.2-2 .2-13.6.2-14.7.2-.5 0-.5-.3-.5-.9v-23.1c0-.6.1-.9.5-.9 1 0 11.2.1 12.7.3 4.8.6 5.7 1.2 6.3 2.6.4 1 .5 2.4.5 3 0 .7.2 1.1.7 1.1.4 0 .7-.5.8-.9.2-1 .4-4.8.5-5.6.2-2.4.7-3.4.7-4 0-.4-.1-.8-.4-.8-.4 0-.8.3-1.2.4-.7.1-2.3.4-4 .5-2 .1-20.4 0-21 0-.5 0-6.2-.2-10.2-.2-1 0-1.4.2-1.4.7 0 .3.4.7.7.7.8 0 2.3.1 3 .2 2.9.4 3.4 1.8 3.6 4.7.2 2.7.2 5.1.2 18.3zM654.465 305.6c0 8.2 0 14.9-.5 18.4-.4 2.5-.6 4.1-2.3 4.5-.8.2-1.9.4-2.7.4-.5 0-.7.4-.7.7 0 .5.5.7 1.4.7 2.7 0 8.6-.3 8.7-.3.4 0 6 .3 10.8.3 1 0 1.4-.3 1.4-.7 0-.3-.1-.7-.7-.7-.8 0-2.7-.2-3.9-.4-2.7-.4-3.2-2-3.5-4.5-.4-3.5-.4-10.1-.4-18.3v-2c0-.5.2-.7.6-.7l11.2.2c.6 0 .8.1 1.2.5 1.9 2.3 5.8 7.8 9.5 12.4 5 6.4 8.2 10.5 12 12.5 2.2 1.2 4.4 1.7 9.4 1.7h5.5c1.6 0 2.1-.2 2.1-.7 0-.3-.3-.7-.8-.7s-1.4 0-3.1-.3c-2.2-.3-5.1-1.1-9.8-5.9-5.1-5.3-11.2-13-18.4-22 8.2-7 10.8-13.1 10.8-19.4 0-5.9-3.9-10-6.1-11.6-4.6-3.2-10.8-3.7-16.4-3.7-2.7 0-10.1.2-11 .2-.5 0-6.4-.2-10.4-.2-1 0-1.4.2-1.4.7 0 .3.4.7.7.7.8 0 2.3.1 3 .2 2.9.4 3.4 1.8 3.6 4.7.2 2.7.2 5.1.2 18.3zm7.6-35.1c0-.5.3-.8.7-1 .9-.2 3.7-.5 6.3-.5 9.4 0 15.2 6.1 15.2 16.7 0 6.5-2.3 11-5.3 13-2.1 1.4-4.5 1.5-6.6 1.5-3.9 0-8.4-.6-9.7-1.3-.4-.3-.6-.6-.6-1.1zM53.84 379.9l11 .2c8.4.2 10.3 2.1 10.6 4.7l.1.9c.1 1.2.3 1.5.7 1.5.4 0 .8-.4.8-1.1 0-1 .3-7.1.3-9.7 0-.5 0-1-.4-1s-1.2.2-2.5.4c-1.4.2-3.4.4-6.3.4h-33.2c-1 0-4.4-.1-6.9-.4-2.4-.3-3.3-1-3.9-1-.3 0-.7 1.1-.9 1.6-.1.7-1.9 8.3-1.9 9.2 0 .5.4.7.6.7.4 0 .7-.1.9-.8.3-.6.4-1.2 1.4-2.7 1.3-2 3.4-2.6 8.9-2.7l12.7-.2v35.7c0 8.2 0 14.9-.4 18.4-.3 2.5-.8 4.2-2.6 4.6-.8.2-1.8.4-2.6.4-.5 0-.7.3-.7.6 0 .5.4.7 1.4.7 2.6 0 8.7-.3 9.1-.3.5 0 6.1.3 10.9.3 1 0 1.4-.3 1.4-.7 0-.3-.1-.7-.7-.7-.8 0-2.8-.2-4-.4-2.7-.4-3.1-2-3.4-4.5-.4-3.5-.4-10.2-.4-18.4zM149.278 400.6c0-13.2 0-15.6.2-18.3.2-3 .7-4.2 3-4.7 1.1-.2 1.6-.2 2.2-.2.4 0 .8-.4.8-.7 0-.5-.5-.7-1.5-.7-2.6 0-8.2.2-8.7.2-.4 0-6.1-.2-10-.2-1 0-1.4.2-1.4.7 0 .3.3.7.7.7.8 0 2.3.1 3 .2 2.9.4 3.3 1.8 3.5 4.7.1 2.7.2 5.3.2 18.5v1.8c0 .5-.2.5-.5.5h-36.7c-.3 0-.5 0-.5-.5v-1.8c0-13.2 0-15.8.1-18.5.2-3 .7-4.2 3.1-4.7 1-.2 1.6-.2 2.2-.2.3 0 .7-.4.7-.7 0-.5-.4-.7-1.4-.7-2.7 0-8.3.2-8.7.2-.5 0-6.1-.2-10.1-.2-1 0-1.4.2-1.4.7 0 .3.4.7.7.7.8 0 2.3.1 3 .2 2.9.4 3.4 1.8 3.6 4.7.2 2.7.2 5.1.2 18.3v15c0 8.2 0 14.9-.5 18.4-.4 2.5-.6 4.1-2.3 4.5-.8.2-1.9.4-2.7.4-.5 0-.7.4-.7.7 0 .5.5.7 1.4.7 2.7 0 8.3-.3 8.8-.3.4 0 6 .3 10.9.3 1 0 1.4-.3 1.4-.7 0-.3-.2-.7-.7-.7-.8 0-2.7-.2-4-.4-2.6-.4-2.9-2-3.2-4.5-.4-3.5-.4-10-.4-18.2v-8.5c0-.4.2-.5.5-.5h36.7c.3 0 .5.1.5.5v8.5c0 8.2 0 14.6-.4 18.1-.3 2.5-.6 4.2-2.4 4.6-.8.2-1.8.4-2.6.4-.5 0-.7.4-.7.7 0 .5.4.7 1.4.7 2.6 0 8.3-.3 8.7-.3.5 0 6.1.3 10.9.3 1 0 1.5-.3 1.5-.7 0-.3-.2-.7-.8-.7-.7 0-2.7-.2-3.9-.4-2.7-.4-2.9-2-3.2-4.5-.4-3.5-.5-10.2-.5-18.4zM178.39 415.6c0 8.2 0 14.9-.5 18.4-.4 2.5-.6 4.2-2.3 4.5-.8.1-1.9.4-2.7.4-.5 0-.7.4-.7.7 0 .5.5.7 1.4.7 1.4 0 3.4-.1 5.1-.2 1.9-.1 3.6-.1 3.8-.1 1.3 0 3.6 0 7.3.2 3.6.1 8.7.3 15.3.3 3.4 0 4.3 0 4.9-2.2.5-1.8 1.2-7.6 1.2-8.2 0-.6-.1-1.3-.6-1.3s-.7.3-.9 1.3c-.5 3.4-1.7 4.9-4 5.9-2.3.9-6.5.9-8.8.9-8.7 0-10.3-1.1-10.5-6.8-.1-1.7 0-11.6 0-14.5v-7.1c0-.3.1-.6.6-.6 1.5 0 10.9.1 13.3.4 3.4.4 4.2 1.4 4.5 2.6.4 1.1.4 2 .4 2.8 0 .5.2.8.6.8.6 0 .8-.9.8-1.6 0-.6.2-3.8.4-5.5.2-2.8.7-4.2.7-4.7s-.2-.7-.5-.7-.7.5-1.3 1.1c-.9.9-2.2 1-4.3 1.2-2 .2-13.6.2-14.7.2-.5 0-.5-.3-.5-.9v-23.1c0-.6.1-.9.5-.9 1 0 11.2.1 12.7.3 4.8.6 5.7 1.2 6.3 2.6.4 1 .5 2.4.5 3 0 .7.2 1.1.7 1.1.4 0 .7-.5.8-.9.2-1 .4-4.8.5-5.6.2-2.4.7-3.4.7-4 0-.4-.1-.8-.4-.8-.4 0-.8.3-1.2.4-.7.1-2.3.4-4 .5-2 .1-20.4 0-21 0-.5 0-6.2-.2-10.2-.2-1 0-1.4.2-1.4.7 0 .3.4.7.7.7.8 0 2.3.1 3 .2 2.9.4 3.4 1.8 3.6 4.7.2 2.7.2 5.1.2 18.3zM273.89 400.6c0-13.2 0-15.6.1-18.3.2-3 .7-4.3 3.3-4.8 1-.1 2.3-.2 2.9-.2.3 0 .7-.3.7-.6 0-.5-.5-.7-1.4-.7-2.7 0-9.3.2-9.7.2-.5 0-6-.2-10-.2-1 0-1.4.2-1.4.7 0 .3.4.7.7.7.8 0 2.3.1 3 .2 2.9.4 3.4 1.8 3.6 4.7.2 2.7.2 5.1.2 18.3v15c0 8.2 0 14.9-.5 18.4-.4 2.5-.6 4.1-2.3 4.5-.8.2-1.9.4-2.7.4-.5 0-.7.4-.7.7 0 .5.5.7 1.4.7 1.4 0 3.3-.1 5.1-.2 1.7-.1 3.2-.1 3.6-.1 2.6 0 5.6.1 9.6.2 4.1.2 9 .3 15.3.3 4.7 0 5-.3 5.6-2.3.7-2.5 1.3-7.6 1.3-8.5 0-.9-.2-1.3-.6-1.3-.5 0-.8.5-.9 1.1-.3 1.7-1 3.5-2.1 4.8-2.1 2.5-6 2.6-10.6 2.6-6.9 0-10.3-.6-11.7-2-1.6-1.5-1.8-6.6-1.8-19.1zM313.083 430.9c-1.7 4.3-3.4 7.3-7.4 7.8-.7.1-2 .2-2.6.2-.4 0-.8.3-.8.7 0 .5.6.7 1.7.7 3.6 0 8-.3 8.9-.3 1 0 5.8.3 7.9.3.8 0 1.3-.2 1.3-.7 0-.4-.2-.7-.9-.7h-.8c-1.5 0-3-.6-3-2.3 0-1.5.5-3.6 1.3-5.7l5-13.6c.2-.5.5-.7.9-.7h20.3c.5 0 .6.1.8.5l7.9 19.5c.6 1.4-.3 2.1-.8 2.3-.4.2-.6.2-.6.6 0 .5 1.4.5 3.1.6 6.1.2 12.6.2 13.9.2 1 0 2-.2 2-.7 0-.5-.6-.7-1.1-.7-.9 0-2.2-.1-3.5-.5-1.9-.6-4.3-1.7-7.5-9.3-5.4-12.9-19.5-48-21.1-51.6-.9-1.9-1.2-3.1-2.1-3.1-.6 0-1 .5-2.1 3.3zm12.7-17.8c-.3 0-.4-.2-.3-.6l8.2-23.3c.5-1.3 1-1.3 1.5 0l8.7 23.3c.1.4.1.6-.3.6zM384.387 436.3c13.3-19.3 26.1-38.3 38.9-57.9.4-.5.5-1.1.5-1.5 0-.5-.5-.7-1.8-.7h-24.6c-2.8 0-7 .1-15.4-.2-2.3-.1-2.9-.6-3.7-.6-.5 0-.7.4-.8 1.6-.5 2.6-1.8 10.3-1.8 11.3 0 .7.1 1.1.5 1.1.5 0 1-.2 1.2-1.5.3-2 1.9-5.1 5-6.7 2.8-1.5 8-1.4 12.5-1.4h18.6c-12.1 18.9-25.1 37.8-38.3 56.9-1.1 1.6-1.2 2.2-1.2 2.6 0 .6.6.7 1.6.7 15.4 0 30.3.4 45 .4 2 0 2.1-.1 2.6-2.2.6-2.1 1.8-7.1 1.8-9.8 0-1.6-.2-1.9-.7-1.9-.5 0-.8.5-1 1.3-.3 1.2-.9 3.5-1.8 4.6-2 2.4-4.4 3.9-13.7 3.9zM453.625 425.5c0 1.4 0 5-.2 8.5-.2 2.5-.8 4.1-2.6 4.5-.8.2-1.8.4-2.6.4-.5 0-.7.4-.7.7 0 .5.4.7 1.4.7 2.6 0 8.2-.3 8.6-.3.5 0 6.2.3 11.1.3.9 0 1.4-.3 1.4-.7 0-.3-.2-.7-.7-.7-.8 0-2.8-.2-4-.4-2.6-.4-3.2-2-3.4-4.5-.3-3.5-.3-7.1-.3-8.5v-7.3c0-2.8-.4-5.5 1.1-8.5 1.8-3.6 14.2-23.6 17.1-27 1.9-2.3 2.7-3.2 4.4-4.2 1.4-.8 3.1-1.1 4.1-1.1.7 0 1.1-.5 1.1-.9 0-.3-.5-.5-1.1-.5-1.7 0-8 .2-8.6.2-.7 0-3.8-.2-6.1-.2-.9 0-1.4.2-1.4.5 0 .4.5.8 1.3 1 1 .3 1.4 1 1.4 2.2 0 1.1-.4 2.5-1.5 4.4-1.6 2.8-12.6 21-14.4 24.6l-16-26.5c-.6-1.1-1.2-2.1-1.2-3.3 0-.7.4-1.1 1.1-1.4.8-.3 1.4-.6 1.4-.9 0-.4-.2-.6-1.2-.6-3.4 0-7 .2-7.6.2-.4 0-7-.2-8.7-.2-.8 0-1.1.2-1.1.6 0 .4.4.8.9.8.7 0 2.4.4 3.7 1.2 1.6 1.1 3.7 3 5.8 6.2 3 4.5 14.9 23.4 15.6 24.7 1.3 2.4 1.9 4.1 1.9 8.7zM533.664 415.6c0 8.2 0 14.9-.5 18.4-.4 2.5-.6 4.1-2.3 4.5-.8.2-1.9.4-2.7.4-.5 0-.7.4-.7.7 0 .5.5.7 1.4.7 1.4 0 3.5-.1 5.3-.2 1.8 0 3.4-.1 3.6-.1.4 0 3.4.2 7.2.5 3.8.2 8.5.5 12.3.5 15 0 22.9-5.9 26.7-9.8 4.9-5 9.5-13.2 9.5-23.9 0-10.1-4.2-17.2-8.6-21.6-10.4-10.5-26.5-9.7-35.3-9.7-5.2 0-10.8.2-11.8.2-.5 0-6.2-.2-10.2-.2-1 0-1.4.2-1.4.7 0 .3.4.7.7.7.8 0 2.3.1 3 .2 2.9.4 3.4 1.8 3.6 4.7.2 2.7.2 5.1.2 18.3zm8-34.2c0-1 .3-1.4 1.1-1.7.8-.3 3.6-.6 5.3-.6 10.5 0 20.2 1.1 28.5 9.5 3.6 3.6 8.3 10.5 8.3 21.3 0 7.8-2.3 15.9-6.9 20.2-5.3 5-12.5 7.7-20.6 7.7-10.4 0-13.5-1.8-14.6-3.4-.7-.9-.9-4-1-6.1-.1-1.6-.1-9.5-.1-18.5zM604.523 408c0 15.3 10.3 33.4 34.4 33.4 21.2 0 35.3-15.7 35.3-34.7 0-19.8-15-31.9-34.8-31.9-24.3 0-34.9 19.5-34.9 33.2zm9.1-2.3c0-18.5 10.6-27.7 25.3-27.7 13.9 0 26.3 10.7 26.3 31.1 0 24.6-15.9 28.8-23.8 28.8-15.9 0-27.8-12.4-27.8-32.2zM736.783 433.3c0 1.6-.7 2-1.8 2.6-2.3 1.3-6.4 1.6-9.5 1.6-8.1 0-15.5-2.4-22.5-8.9-3.1-2.9-9.3-11.5-9.3-23.5 0-9.9 3.6-17.5 8.7-21.4 6.7-5.1 13.1-5.5 18.4-5.5 11.4 0 18.1 3.4 20.3 6.6 1.4 2 1.9 4.5 2 5.6 0 .8.1 1.3.6 1.3.6 0 1-.4 1-1.8 0-8.5.5-10.8.5-12 0-.4-.2-.8-1.1-.8-2.2 0-5.3-.5-7.1-.9-1.7-.4-7.9-1.4-13.5-1.4-6.7 0-15.5.6-23.4 5.4-7.8 4.7-14.7 14.3-14.7 27.9 0 10.6 5.1 19.7 10.5 24.2 9.8 8.3 22.3 9.1 29 9.1 5.1 0 13.1-.9 18.7-3.8 1.1-.6 1.2-.7 1.2-4.6v-9.5c0-3.6 0-6.1.1-8.8.2-3 .9-4.3 3.3-4.7 1-.2 1.6-.2 2.2-.2.3 0 .7-.4.7-.7 0-.6-.4-.7-1.4-.7-2.7 0-8.2.2-8.6.2-.5 0-6.4-.2-10.4-.2-1 0-1.4.1-1.4.7 0 .3.4.7.7.7.8 0 2.3.1 3 .2 3.6.7 3.8 1.7 3.8 8.6zM768.26 440c3.4 0 5.6-2.6 5.6-5.8 0-3.2-2.4-5.2-5.5-5.2-3.9 0-5.5 3.2-5.5 5.5 0 2.5 1.6 5.5 5.4 5.5z"/></g></svg>