<svg xmlns="http://www.w3.org/2000/svg" viewBox="0 0 1600 1000" height="1000" width="1600"><path fill="#fff" d="M0 0h1600v1000H0z"/><g font-weight="400" font-size="200" font-family="Univers" letter-spacing="-.03em" text-anchor="middle" fill="#222"><path d="M422.536 220V92.8h-48.4V75.6h116.8v17.2h-48.4V220zM524.602 220h-19V75.6h19V133h.4q10.6-16.4 32.6-16.4 18.2 0 26.2 10 8.2 10 8.2 25.4v68h-19v-59.4q0-14.4-5-21.8-4.8-7.4-17.4-7.6-6-.2-13.2 4-7 4-9.6 10-1.6 3.6-2.4 7.6-.8 3.8-1 5.6v5.8q.2 4 .2 4.2zM704.867 173.4h-70.8q-1.2 14.6 5.2 25.2t20 10.6q11.2 0 17-4.8 5.8-4.8 7.4-15.6h20q-2.2 16.6-14.2 25.4-11.8 8.8-30.4 8.8-23 0-34-14.2-11-14.4-11-38.2 0-23.4 11.8-38.6 12-15.4 34.8-15.4 21.8.4 33 13.2 11.2 12.6 11.2 34.2zm-70.8-13.2h50.8q.4-13.4-6-21.6-6.4-8.2-19.6-8.2-11.6 0-18.4 8.6-6.8 8.4-6.8 21.2zM817.064 209.2q28 0 28-40.2 0-10.2-2.6-18.4-2.6-8.4-9.4-14.2-6.8-6-17.2-6-14.8 0-21.4 11.2-6.4 11-6.4 27.4 0 7.4 1.2 13.8 1.2 6.2 4 12.6 3 6.4 9 10.2 6.2 3.6 14.8 3.6zm27.6-74.4l1-15.2h19.4q-1 15-1 18v120.8h-19v-49.6h-.4q-12 14.2-34.8 14.2-13.6 0-23.6-8.6-9.8-8.8-14-20.6-4.2-12-4.2-25 0-21.2 10.8-36.6 10.8-15.6 31-15.6 23.8 0 34.4 18.2zM960.33 171.2v-51.6h19V220h-18.6v-14.8h-.4q-10.8 17.8-34.4 17.8-15.4 0-24.2-10.2-8.8-10.4-8.8-26v-67.2h19V179q0 14.6 4.6 22.4 4.8 7.8 17.6 7.8 6.8 0 13.2-3.6 6.4-3.6 9.2-10.8 3.8-10 3.8-23.6zM1028.595 220h-19V119.6h19zm-20.8-123.8V75.6h22.6v20.6zM1133.264 151.8h-19q-1.6-21.4-20.6-21.4-25.2 0-25.2 39.4t25.2 39.4q9.4 0 15-5.8 5.6-6 6.4-16.8h19q-1.2 16.8-12.4 26.6-11.2 9.8-28.2 9.8-23 0-34-14.2-11-14.4-11-38.2 0-23.4 11.8-38.6 12-15.4 34.8-15.4 16.2 0 26.8 9.6 10.6 9.4 11.4 25.6zM1169.464 220h-19V75.6h19v85l37.6-41h24.6l-42.4 42.6 45 57.8h-24.6l-39.8-54.2h-.4zM436.406 389.8q0-10.6-2.2-18.8-2.2-8.2-8.8-14.4-6.6-6.2-17.4-6.2-14.8 0-21.6 11.8-6.8 11.6-6.8 27.6 0 39.4 28.4 39.4 14.8 0 21.6-11.6 6.8-11.6 6.8-27.8zm-56.4 35.2l-.8 15h-19.6q1-15 1-16V295.6h19v57.6h.4q8-16.6 31.2-16.6 22 0 33.6 15.6 11.6 15.4 11.6 37.6 0 10-2.4 19.2t-7.2 17q-4.8 7.8-13.2 12.4-8.2 4.6-19 4.6-25.4 0-34.6-19h-.4zM497.272 390.2V440h-19V339.6h19V359h.4q2-10 10.2-15.4 8.4-5.4 19.2-5.4 1.2 0 3.4.2h3.2v18q-2.6-1-8.2-1-16.8.6-22.6 9-5.6 8.2-5.6 25.8zM555.606 351.2q13-14.6 37-14.6t37 14.6q13 14.4 13 38.6 0 24.2-13 38.8-13 14.4-37 14.4t-37-14.4q-13-14.6-13-38.8 0-24.2 13-38.6zm14 10q-7 10.8-7 28.6t7 28.6q7.2 10.8 23 10.8t22.8-10.8q7.2-10.8 7.2-28.6t-7.2-28.6q-7-10.8-22.8-10.8t-23 10.8zM792.672 339.6h19.4l-35.4 100.4h-21.6l-23.4-82.6h-.4l-26 82.6h-22.2l-33.2-100.4h20.6l24.2 80.8h.4l25-80.8h24.6l22.6 79.2h.4zM845.07 339.6v14.8h.4q4.4-8.8 13.2-13.2 8.8-4.6 17.2-4.6 3.2 0 6.6.4 3.6.4 9.6 2.4t10.4 5.4q4.6 3.2 8 10 3.4 6.8 3.4 15.8V440h-19v-63.2q0-25.6-23-25.6-10.4-.6-18.4 7.4-2.4 2.4-3.6 4-1.2 1.6-2.8 7.8-1.6 6-1.6 15V440h-19V339.6zM1016.003 440h-19v-87.2h-19.6v-13.2h19.6v-19.2q.4-15 9.4-21.4 9.2-6.4 22-6.4 2.2 0 13.6 2v15.8l-9.6-.6q-8.6 0-12.8 3-4 3-3.6 10.8v16h23.2v13.2h-23.2zM1059.2 351.2q13-14.6 37-14.6t37 14.6q13 14.4 13 38.6 0 24.2-13 38.8-13 14.4-37 14.4t-37-14.4q-13-14.6-13-38.8 0-24.2 13-38.6zm14 10q-7 10.8-7 28.6t7 28.6q7.2 10.8 23 10.8t22.8-10.8q7.2-10.8 7.2-28.6t-7.2-28.6q-7-10.8-22.8-10.8t-23 10.8zM1258.866 339.6l-39.4 49 39.4 51.4h-24.8l-28.6-40.2-28.4 40.2h-22l39.8-52.6-37.6-47.8h24.6l26.8 37.8 28-37.8zM334.802 559.6v106.6q0 15-5.2 23.6-5.2 8.6-19.6 8.6-8.2 0-12.2-.6v-13.2q3.2-.2 5.6.2 2.6.4 4.4-.6 1.8-.8 3-1.2 1.4-.2 2.2-1.6 1-1.2 1.4-1.8.6-.6.8-2.2.4-1.4.4-2.2V673q.2-1.4.2-1.8V559.6zm1.8-23.4h-22.6v-20.6h22.6zM431.47 611.2v-51.6h19V660h-18.6v-14.8h-.4q-10.8 17.8-34.4 17.8-15.4 0-24.2-10.2-8.8-10.4-8.8-26v-67.2h19V619q0 14.6 4.6 22.4 4.8 7.8 17.6 7.8 6.8 0 13.2-3.6 6.4-3.6 9.2-10.8 3.8-10 3.8-23.6zM498.536 559.6V574h.4q4.2-8.8 12-13 8-4.4 16.6-4.4 27.6 0 35.4 18.8 11-18.8 33.4-18.8 17 0 27.2 9.4 10.2 9.2 10.2 23.2V660h-19v-59.4q0-6.2-.8-10.6-.6-4.4-3-9-2.2-4.8-7.4-7.2-5-2.6-13-2.6-6 0-13 3.8-6.8 3.6-9.2 11.8-2 7-2 21.6V660h-19v-59.4q0-14.4-4.8-21.8-4.6-7.6-17.4-7.6-17.8 0-24.8 16.4-1.4 3.4-1.4 20.8V660h-19V559.6zM738.008 609.8q0-10.6-2.2-18.8-2.2-8.2-8.8-14.4-6.6-6.2-17.4-6.2-14.8 0-21.6 11.8-6.8 11.6-6.8 27.6 0 10.6 2 18.8 2.2 8.2 8.4 14.4 6.2 6.2 16.2 6.2 8.4 0 14.4-3.4 6.2-3.4 9.4-9.2 3.4-6 4.8-12.6 1.6-6.6 1.6-14.2zm-75.8 88.6V577.6q-.2-6-1-18h19.4l.6 16h.4q7.6-19 34.2-19 20 0 31 15.6 11.2 15.6 11.2 37.6 0 10.2-2.6 19.4-2.4 9-7.8 16.8-5.4 7.8-15.2 12.4-9.6 4.6-22.6 4.6-7.2 0-15.4-3.6-8-3.6-12.6-10.8h-.6v49.8zM771.873 587q0-14.6 12-22.4 12-8 27.4-8 10.4 0 19 2.8t14.6 10q6 7.2 5.4 18h-20q.6-9-5.2-13-5.6-4-14.8-4-8.2 0-13.4 4-5 4-5 12 0 4 3 6.8 3 2.6 6.2 3.6t8.6 2.2q5.4 1.2 6.6 1.6 2.2.8 8.4 2.6t8.8 2.8q2.8.8 7.2 3.2 4.6 2.4 6.6 5 2.2 2.6 3.8 7 1.8 4.2 1.8 9.6 0 11.6-7.2 19.2-7 7.6-16.6 10.2-9.4 2.8-20.8 2.8-17 0-27.8-8.2t-10.6-24.6h20q.2 9 5.8 14t14.6 5q9.6 0 16-4.2 6.6-4.2 6.6-13.2 0-5.2-4.6-8.4-4.4-3.2-11.2-4.4-6.8-1.2-14.8-3.2-7.8-2.2-14.6-4.6-6.8-2.6-11.4-8.8-4.4-6.2-4.4-15.4zM928.942 571.2q13-14.6 37-14.6t37 14.6q13 14.4 13 38.6 0 24.2-13 38.8-13 14.4-37 14.4t-37-14.4q-13-14.6-13-38.8 0-24.2 13-38.6zm14 10q-7 10.8-7 28.6t7 28.6q7.2 10.8 23 10.8t22.8-10.8q7.2-10.8 7.2-28.6t-7.2-28.6q-7-10.8-22.8-10.8t-23 10.8zM1085.208 660h-19l-42-100.4h21l32 79.6 31.2-79.6h20.8zM1227.336 613.4h-70.8q-1.2 14.6 5.2 25.2t20 10.6q11.2 0 17-4.8 5.8-4.8 7.4-15.6h20q-2.2 16.6-14.2 25.4-11.8 8.8-30.4 8.8-23 0-34-14.2-11-14.4-11-38.2 0-23.4 11.8-38.6 12-15.4 34.8-15.4 21.8.4 33 13.2 11.2 12.6 11.2 34.2zm-70.8-13.2h50.8q.4-13.4-6-21.6-6.4-8.2-19.6-8.2-11.6 0-18.4 8.6-6.8 8.4-6.8 21.2zM1269.264 610.2V660h-19V559.6h19V579h.4q2-10 10.2-15.4 8.4-5.4 19.2-5.4 1.2 0 3.4.2h3.2v18q-2.6-1-8.2-1-16.8.6-22.6 9-5.6 8.2-5.6 25.8zM237.605 779l17.2.6v-21.4l19-6v27.4l23.2-.6v14.2l-23.2-.2v64.8q0 5.2 3.4 8 3.6 2.6 9 2.6 5.6 0 10-1.2v14.6q-1.8 0-6.2.6t-6.8.6q-7 0-12.8-1-7.4-1.4-11.2-6.6-3.4-4.8-4-8-.4-3.2-.4-10.6V793l-17.2.2zM333.602 880h-19V735.6h19V793h.4q10.6-16.4 32.6-16.4 18.2 0 26.2 10 8.2 10 8.2 25.4v68h-19v-59.4q0-14.4-5-21.8-4.8-7.4-17.4-7.6-6-.2-13.2 4-7 4-9.6 10-1.6 3.6-2.4 7.6-.8 3.8-1 5.6v5.8q.2 4 .2 4.2zM513.867 833.4h-70.8q-1.2 14.6 5.2 25.2t20 10.6q11.2 0 17-4.8 5.8-4.8 7.4-15.6h20q-2.2 16.6-14.2 25.4-11.8 8.8-30.4 8.8-23 0-34-14.2-11-14.4-11-38.2 0-23.4 11.8-38.6 12-15.4 34.8-15.4 21.8.4 33 13.2 11.2 12.6 11.2 34.2zm-70.8-13.2h50.8q.4-13.4-6-21.6-6.4-8.2-19.6-8.2-11.6 0-18.4 8.6-6.8 8.4-6.8 21.2zM605.064 880h-19V735.6h19zM693.733 831.2h-19q-10.8.6-19 5.2-8 4.4-8 14.2 0 9 5.4 13.8 5.6 4.8 14.4 4.8 27 0 26.2-38zm-17.2-13.2h17.2q0-7.8-.6-11.8-.4-4.2-2.4-8.2-2-4.2-6.4-5.8-4.4-1.8-11.8-1.8-7.6 0-13.2 4.4-5.4 4.2-5.6 11.6h-20q.8-15.4 11.2-22.6 10.6-7.2 26.8-7.2 41 0 41 34.2v48q0 10 .8 21.2h-14q-.8.2-1.4.2-.6 0-1.4-.2-.6 0-1-.4t-.4-1q-.8-9.4-1-13.6h-.4q-8.8 18-31.2 18-14.4 0-24.8-7.4-10.2-7.4-10.2-21.2 0-13.4 7.4-21.8 7.6-8.6 18-11.6t23.4-3zM803.46 866.8V880h-73v-13.2l50.6-74h-49.8v-13.2h70.2v13.2l-50.4 74zM913.333 779.6l-59 138.8h-19.4l15.2-38.8-41.8-100h21.2l31.4 79.2 32-79.2zM990.73 829.6q0 7.6 1.4 14.4 1.6 6.6 4.6 12.6 3.2 6 9 9.6 5.8 3.6 13.4 3.6 10.8 0 17.4-6.4 6.8-6.4 8.8-14.8 2.2-8.4 2.2-19 0-16-6.8-27.8-6.8-12-21.6-12-10.8 0-17.4 6.4-6.6 6.2-8.8 14.6-2.2 8.2-2.2 18.8zm56.6-36.4v-57.6h19v126.6q0 3.4 1 17.8h-19.4l-.6-15v-1h-.4q-9.2 19-34.6 19-14.2 0-24-8-9.6-8.2-13.6-19.8-4-11.6-4-25.4 0-22.2 11.4-37.6 11.6-15.6 33.6-15.6 23.2 0 31.2 16.6zM1100.395 791.2q13-14.6 37-14.6t37 14.6q13 14.4 13 38.6 0 24.2-13 38.8-13 14.4-37 14.4t-37-14.4q-13-14.6-13-38.8 0-24.2 13-38.6zm14 10q-7 10.8-7 28.6t7 28.6q7.2 10.8 23 10.8t22.8-10.8q7.2-10.8 7.2-28.6t-7.2-28.6q-7-10.8-22.8-10.8t-23 10.8zM1224.86 810.6q-2.2 7.8-2.2 16.8t2.2 16.8q2.2 7.8 8.8 14 6.8 6.2 17.2 6.2 14.4 0 21.2-10.4 7-10.6 7-26.6t-7-26.4q-6.8-10.6-21.2-10.6-10.4 0-17.2 6.2-6.6 6.2-8.8 14zm54.2-16l.6-15h19.6q-1.2 12-1.2 18v70.6q0 27.4-12.6 39.6-12.4 12.2-40.2 12.2-17.2 0-27.2-8-9.8-7.8-10-24.4h20q1.2 18.6 23.4 18.6 4 0 7.2-.6 3.4-.4 6-2t4.6-2.8q2-1.2 3.4-4.2 1.4-2.8 2.4-4.4 1.2-1.4 1.8-5.6.6-4 1-5.6.4-1.6.6-6.4.4-5 .4-6.4 0-1.6.2-7h-.6q-4.2 8.4-13.6 12.8-9.2 4.2-19.4 4.2-21.8 0-32.4-13.6-10.4-13.6-10.4-36.2t12.2-37.2q12.4-14.6 34.4-14.6 7.8 0 15 3.4 7.4 3.2 11.8 9.8.2.2 1 1.8 1.8 3.2 2 3zM1348.127 880h-23.2v-24h23.2z"/></g></svg>