<svg xmlns="http://www.w3.org/2000/svg" viewBox="0 0 1600 1000" height="1000" width="1600"><path fill="#fff" d="M0 0h1600v1000H0z"/><g font-weight="100" font-size="200" font-family="Univers" letter-spacing="-.03em" text-anchor="middle" fill="#222"><path d="M401.512 87.578V75.566h105.566v12.012h-45.8L461.08 220H448.29l-.196-132.422zM520.023 220V75.566h12.012v59.278h.39q5.177-9.082 13.282-13.672 8.106-4.59 18.066-4.59 6.74 0 12.207 1.66 5.567 1.66 9.18 4.297 3.613 2.636 6.25 6.444 2.735 3.71 4.2 7.325 1.464 3.612 2.245 7.81.88 4.2 1.075 7.13.293 2.93.293 5.957V220H587.21v-64.844q0-12.988-7.03-20.215-7.032-7.323-19.336-7.323-9.473 0-16.21 4.98-6.642 4.98-9.67 12.598-2.93 7.617-2.93 16.992V220zM619.297 169.805q0-10.45 2.832-19.825 2.93-9.472 8.3-16.992 5.468-7.52 14.16-11.914 8.69-4.492 19.53-4.492 12.208 0 21.193 4.297 9.082 4.198 14.355 12.01 5.273 7.813 7.715 17.676 2.54 9.864 2.54 22.07h-77.54q.195 8.302 2.148 15.235 2.052 6.935 6.056 12.5 4.102 5.47 10.84 8.595 6.738 3.027 15.722 3.027 10.547 0 18.653-6.738 8.106-6.836 10.352-17.285h12.598q-4.59 17.87-15.918 26.464-11.23 8.593-29.492 8.593-10.84 0-19.434-4.394-8.593-4.395-13.867-11.914-5.274-7.618-8.01-16.993-2.733-9.375-2.733-19.922zm13.476-8.203h64.16q-1.074-15.332-9.374-24.61-8.302-9.375-23.244-9.375-13.867 0-22.07 9.863-8.203 9.864-9.473 24.122zM773.313 169.414q0-8.008 1.367-15.43 1.465-7.52 4.59-14.355 3.222-6.935 7.812-11.915 4.688-5.078 11.72-8.106 7.03-3.028 15.72-3.028 10.353 0 19.728 4.785 9.473 4.688 14.648 12.988v.684h.39v-.685l.685-14.746h12.402q-1.074 18.847-1.074 22.558v116.016h-12.01v-53.81h-.392q-6.152 9.083-15.136 13.868-8.887 4.785-19.824 4.785-8.497 0-15.43-3.125-6.934-3.222-11.524-8.496-4.59-5.273-7.812-12.207-3.125-7.032-4.492-14.454-1.368-7.52-1.368-15.332zm12.988-1.367q0 6.055.684 11.816.782 5.664 2.832 11.62 2.05 5.958 5.176 10.45 3.125 4.395 8.3 7.227 5.177 2.832 11.817 2.832 7.617 0 13.574-2.44 5.957-2.54 9.765-6.642 3.808-4.2 6.25-10.058 2.538-5.86 3.515-12.11 1.074-6.25 1.074-13.38 0-8.007-1.856-14.842-1.758-6.934-5.47-12.598-3.71-5.762-10.155-8.984-6.35-3.32-14.845-3.32-8.203 0-14.356 3.612-6.153 3.516-9.57 9.473-3.42 5.957-5.08 12.89-1.66 6.837-1.66 14.454zM885.477 182.402V119.61h12.01v64.745q0 12.99 7.033 20.313 7.03 7.324 19.335 7.324 9.473 0 16.114-4.98 6.737-4.98 9.667-12.598 3.027-7.617 3.027-16.992V119.61h12.012v77.83q0 5.47.976 22.56H953.25l-.586-14.844-.39-.39q-5.176 9.082-13.38 13.672-8.105 4.59-18.066 4.59-6.738 0-12.305-1.66-5.468-1.66-9.082-4.298-3.612-2.636-6.346-6.347-2.637-3.81-4.102-7.325-1.367-3.613-2.246-7.812-.88-4.297-1.074-7.227-.195-2.93-.195-5.958zM990.023 90.605v-15.04h13.965v15.04zM991 220V119.61h12.012V220zM1022.5 169.805q0-10.45 2.832-19.825 2.93-9.472 8.3-16.992 5.47-7.52 14.16-11.914 8.692-4.492 19.532-4.492 15.918 0 26.758 9.082 10.938 9.082 11.62 24.707h-12.987q-1.465-22.753-27.442-22.753-8.886 0-15.82 5.762-6.836 5.76-10.45 15.33-3.515 9.474-3.515 20.9 0 17.87 8.203 30.175 8.205 12.207 21.583 12.207 11.622 0 19.14-6.445 7.52-6.543 8.302-16.992h12.988q-4.785 34.472-39.16 34.472-10.84 0-19.434-4.394-8.594-4.395-13.868-11.914-5.273-7.618-8.008-16.993-2.734-9.375-2.734-19.922zM1124.508 220V75.566h12.012v85.06l48.632-41.017h15.332l-50.78 43.36 54.784 57.03h-15.136l-52.833-54.395V220zM389.988 440q.977-17.09.977-22.56V295.567h12.012v58.79l.39.488q5.078-8.594 14.55-13.38 9.57-4.882 19.923-4.882 8.69 0 15.723 3.027 7.03 3.027 11.62 8.105 4.688 4.98 7.813 11.914 3.223 6.835 4.59 14.354 1.367 7.422 1.367 15.43 0 7.813-1.367 15.332-1.367 7.422-4.492 14.453-3.125 6.933-7.715 12.206-4.59 5.274-11.525 8.496-6.933 3.125-15.43 3.125-10.937 0-19.92-4.785-8.985-4.785-15.138-13.867l-.39.78L402.39 440zm12.99-52.246q0 7.13.975 13.38 1.074 6.25 3.516 12.01 2.538 5.762 6.346 9.864 3.81 4.1 9.766 6.543 5.957 2.442 13.574 2.442 6.64 0 11.817-2.734 5.175-2.832 8.3-7.227 3.125-4.393 5.176-10.253 2.05-5.957 2.734-11.62.78-5.665.78-11.72 0-6.054-.976-11.62-.976-5.665-3.32-11.036-2.246-5.37-5.664-9.276-3.418-4.004-8.79-6.445-5.273-2.443-11.816-2.443-8.496 0-14.94 3.418-6.35 3.32-10.157 9.082-3.71 5.762-5.566 12.696-1.757 6.933-1.757 14.94zM497.367 339.61h12.403l.585 14.745h.39q2.735-7.617 8.888-12.5 6.25-4.98 13.672-5.273 1.367-.098 3.125-.098 3.515 0 8.886.293v11.62q-.78-.096-3.418-.39-2.636-.39-4.003-.39-13.086 0-20.215 8.692-7.032 8.592-7.325 23.338V440h-12.01v-77.832-.78q0-4.59-.978-21.78zM553.28 405.527q-1.757-7.617-1.757-15.722 0-8.106 1.758-15.625 1.76-7.618 5.47-14.453 3.81-6.934 9.18-12.012 5.468-5.078 13.28-8.106 7.813-3.028 17.09-3.028 9.278 0 17.09 3.027 7.91 3.027 13.282 8.105 5.37 5.078 9.18 12.012 3.808 6.836 5.566 14.453 1.758 7.52 1.758 15.625t-1.758 15.722q-1.758 7.52-5.566 14.453-3.81 6.836-9.18 11.915-5.37 5.078-13.28 8.105-7.814 3.027-17.09 3.027-9.28 0-17.09-3.027-7.814-3.027-13.282-8.105-5.37-5.08-9.18-11.915-3.71-6.933-5.47-14.453zm12.404-27.246q-1.172 5.763-1.172 11.525 0 5.76 1.172 11.523 1.17 5.762 3.808 11.328 2.637 5.567 6.445 9.864 3.81 4.2 9.57 6.835 5.763 2.637 12.794 2.637 7.032 0 12.794-2.637 5.76-2.636 9.57-6.835 3.81-4.297 6.445-9.864 2.636-5.566 3.808-11.328 1.172-5.762 1.172-11.523 0-5.762-1.172-11.524-1.172-5.76-3.81-11.327-2.635-5.566-6.444-9.765-3.81-4.297-9.57-6.934-5.762-2.637-12.793-2.637-7.03 0-12.792 2.637t-9.57 6.933q-3.81 4.2-6.446 9.766-2.637 5.567-3.808 11.328zM651.285 339.61h13.184l29.98 84.57h.39l30.47-84.57h14.16l29.59 83.788h.39l29.003-83.79h13.184L774.234 440h-11.328l-30.86-86.62h-.39L700.31 440H688.1zM823.508 339.61h12.402l.586 14.745.39.49q5.176-9.083 13.282-13.673 8.105-4.59 18.066-4.59 6.74 0 12.207 1.66 5.568 1.66 9.18 4.297 3.614 2.636 6.25 6.444 2.735 3.71 4.2 7.325 1.465 3.612 2.246 7.81.88 4.2 1.075 7.13.294 2.93.294 5.957V440h-12.012v-64.844q0-12.988-7.03-20.215-7.033-7.323-19.337-7.323-9.473 0-16.21 4.98-6.642 4.98-9.67 12.598-2.93 7.618-2.93 16.993V440h-12.01v-77.832q0-5.47-.977-22.56zM967.66 350.645V339.61h20.215v-21.387q0-12.99 5.664-18.946 5.76-6.054 18.554-6.054 1.758 0 3.515.39 1.855.293 4.394.977 2.54.586 3.418.78v9.67q-5.47-.88-7.324-.88-5.957 0-9.57 1.563-3.516 1.465-4.98 4.394-1.368 2.93-1.76 7.13-.097 1.952-.097 4.198 0 2.54.197 5.37v12.794h22.754v11.035h-22.753V440h-12.012v-89.355zM1034.22 405.527q-1.76-7.617-1.76-15.722 0-8.106 1.76-15.625 1.757-7.618 5.468-14.453 3.808-6.934 9.18-12.012 5.468-5.078 13.28-8.106 7.813-3.028 17.09-3.028 9.278 0 17.09 3.027 7.91 3.027 13.28 8.105 5.372 5.078 9.18 12.012 3.81 6.836 5.567 14.453 1.758 7.52 1.758 15.625t-1.758 15.722q-1.757 7.52-5.566 14.453-3.81 6.836-9.18 11.915-5.372 5.078-13.282 8.105-7.812 3.027-17.09 3.027-9.277 0-17.09-3.027-7.812-3.027-13.28-8.105-5.372-5.08-9.18-11.915-3.71-6.933-5.47-14.453zm12.4-27.246q-1.17 5.763-1.17 11.525 0 5.76 1.17 11.523 1.173 5.762 3.81 11.328 2.636 5.567 6.445 9.864 3.81 4.2 9.57 6.835 5.762 2.637 12.793 2.637 7.032 0 12.793-2.637 5.763-2.636 9.572-6.835 3.808-4.297 6.445-9.864 2.637-5.566 3.81-11.328 1.17-5.762 1.17-11.523 0-5.762-1.17-11.524-1.173-5.76-3.81-11.327-2.637-5.566-6.445-9.765-3.81-4.297-9.57-6.934-5.762-2.637-12.794-2.637-7.03 0-12.793 2.637-5.76 2.637-9.57 6.933-3.81 4.2-6.445 9.766-2.637 5.567-3.81 11.328zM1132.418 440l.39-.39 38.38-50.977-37.012-49.024h16.015l29.396 40.43 30.176-40.43h12.597l-35.938 48.632 39.16 51.758h-15.82l-32.13-43.555-31.64 43.555zM335.86 687.44h.585q10.84 0 12.89-3.807 2.15-3.71 2.15-18.555v-1.367V559.61h12.01v104.785q0 7.714-.194 11.62-.097 4.005-.976 8.692-.88 4.688-2.54 6.738-1.66 2.05-4.784 4.004-3.125 2.05-7.813 2.636-3.32.39-7.91.39-1.66 0-3.418-.097zm14.648-156.835v-15.04h13.965v15.04zM389.82 622.402V559.61h12.012v64.745q0 12.99 7.03 20.313 7.033 7.324 19.337 7.324 9.472 0 16.113-4.98 6.738-4.98 9.667-12.598 3.028-7.617 3.028-16.992V559.61h12.012v77.83q0 5.47.976 22.56h-12.402l-.586-14.844-.39-.39q-5.177 9.082-13.38 13.67-8.105 4.59-18.066 4.59-6.738 0-12.305-1.66-5.47-1.66-9.082-4.296-3.613-2.636-6.348-6.347-2.636-3.81-4.1-7.325-1.368-3.613-2.247-7.812-.88-4.297-1.074-7.227-.196-2.93-.196-5.958zM493.977 559.61h12.402l.585 14.745.39.49q5.176-9.083 13.282-13.673 8.105-4.59 18.066-4.59 11.72 0 20.508 6.055 8.79 5.957 12.11 15.918 6.153-9.766 14.844-15.82 8.79-6.153 19.727-6.153 6.74 0 12.208 1.66 5.566 1.66 9.18 4.297 3.613 2.636 6.25 6.444 2.734 3.71 4.2 7.325 1.463 3.612 2.245 7.81.88 4.2 1.074 7.13.293 2.93.293 5.957V660h-12.012v-64.844q0-12.988-7.03-20.215-7.032-7.323-19.337-7.323-9.472 0-16.21 4.98-6.64 4.98-9.668 12.598-2.93 7.618-2.93 16.993V660h-12.01v-64.844q0-12.988-7.033-20.215-7.032-7.323-19.337-7.323-9.472 0-16.21 4.98-6.64 4.98-9.668 12.598-2.93 7.618-2.93 16.993V660h-12.012v-77.832q0-5.47-.976-22.56zM663.855 559.61h12.403l.586 14.745.39.49q5.078-8.595 14.55-13.38 9.57-4.883 19.923-4.883 8.69 0 15.723 3.027 7.03 3.027 11.62 8.105 4.688 4.98 7.813 11.914 3.223 6.835 4.59 14.354 1.367 7.422 1.367 15.43 0 7.813-1.367 15.332-1.367 7.422-4.492 14.453-3.124 6.933-7.714 12.206-4.59 5.274-11.523 8.496-6.934 3.125-15.43 3.125-10.938 0-19.922-4.785-8.983-4.785-15.136-13.867h-.39v54.004h-12.012V582.167v-.78q0-4.59-.977-21.78zm12.99 47.753q0 7.13.975 13.38 1.075 6.25 3.516 12.11 2.54 5.858 6.348 10.057 3.808 4.102 9.765 6.64 5.956 2.442 13.573 2.442 6.64 0 11.817-2.832 5.176-2.832 8.3-7.226 3.126-4.493 5.176-10.45 2.05-5.957 2.735-11.62.782-5.762.782-11.817 0-6.055-.977-11.62-.976-5.568-3.32-10.84-2.246-5.372-5.664-9.278-3.417-3.908-8.788-6.25-5.273-2.443-11.816-2.443-8.496 0-14.942 3.32-6.347 3.223-10.156 8.985-3.71 5.664-5.566 12.598-1.758 6.835-1.758 14.843zM765.375 632.56h12.988q.39 5.37 2.832 9.374 2.442 3.906 6.446 6.054 4.005 2.05 8.497 3.028 4.59.976 10.058.976 10.645 0 18.36-5.078 7.812-5.176 7.812-14.94 0-3.908-1.66-6.837-1.562-3.028-4.102-4.883-2.44-1.953-6.445-3.418-3.906-1.563-7.617-2.54-3.71-.976-8.69-2.05-2.15-.488-3.224-.683-5.86-1.368-9.57-2.442-3.615-1.17-8.4-3.32-4.687-2.245-7.422-4.784-2.636-2.637-4.59-6.836-1.855-4.2-1.855-9.57 0-6.055 2.148-10.84 2.15-4.883 5.665-8.008 3.614-3.125 8.4-5.274 4.882-2.148 9.96-3.027 5.176-.878 10.644-.878 34.57 0 36.62 27.832h-12.988q-.78-8.79-7.617-12.793-6.836-4.003-17.188-4.003-9.472 0-16.113 4.004-6.543 4.005-6.543 12.208 0 3.125 1.075 5.47 1.075 2.245 3.418 3.905 2.344 1.66 5.176 2.832 2.83 1.172 7.128 2.442 4.395 1.17 8.594 2.148 4.2.977 10.058 2.637 5.957 1.66 11.133 3.515 7.813 2.735 12.403 9.082 4.59 6.25 4.59 14.355t-3.614 14.55q-3.515 6.446-9.57 10.352-6.055 3.906-13.477 5.86-7.324 2.05-15.527 2.05-6.836 0-13.28-1.757-6.35-1.66-11.915-5.08-5.567-3.514-9.082-9.57-3.417-6.15-3.515-14.06zM910.21 625.527q-1.757-7.617-1.757-15.722 0-8.106 1.758-15.625 1.76-7.618 5.47-14.453 3.808-6.934 9.18-12.012 5.468-5.078 13.28-8.106 7.813-3.028 17.09-3.028 9.278 0 17.09 3.027 7.91 3.027 13.282 8.105 5.37 5.078 9.18 12.012 3.808 6.835 5.566 14.453 1.758 7.52 1.758 15.625t-1.758 15.722q-1.758 7.52-5.567 14.453-3.807 6.836-9.178 11.915-5.372 5.078-13.282 8.105-7.812 3.027-17.09 3.027-9.277 0-17.09-3.027-7.812-3.027-13.28-8.105-5.372-5.08-9.18-11.915-3.71-6.933-5.47-14.453zm12.403-27.246q-1.172 5.763-1.172 11.525 0 5.76 1.173 11.523 1.172 5.762 3.81 11.328 2.636 5.567 6.444 9.864 3.81 4.2 9.57 6.835 5.762 2.637 12.793 2.637 7.032 0 12.793-2.637 5.762-2.636 9.57-6.835 3.81-4.297 6.446-9.864 2.636-5.566 3.808-11.328 1.172-5.762 1.172-11.523 0-5.762-1.172-11.524-1.172-5.76-3.81-11.327-2.636-5.566-6.444-9.765-3.81-4.297-9.57-6.934-5.762-2.637-12.794-2.637-7.03 0-12.793 2.637-5.76 2.637-9.57 6.933-3.808 4.2-6.445 9.766-2.637 5.567-3.81 11.328zM1007.824 559.61h13.184l34.57 83.788 33.4-83.79h13.182L1062.414 660h-13.574zM1108.953 609.805q0-10.45 2.832-19.825 2.93-9.472 8.3-16.992 5.47-7.52 14.16-11.914 8.693-4.492 19.532-4.492 12.207 0 21.192 4.297 9.08 4.198 14.354 12.01 5.274 7.813 7.715 17.676 2.538 9.864 2.538 22.07h-77.54q.196 8.302 2.15 15.235 2.05 6.935 6.054 12.5 4.102 5.47 10.84 8.595 6.738 3.027 15.723 3.027 10.547 0 18.652-6.738 8.105-6.836 10.352-17.285h12.596q-4.59 17.87-15.918 26.464-11.23 8.593-29.492 8.593-10.84 0-19.434-4.394-8.593-4.395-13.867-11.914-5.273-7.618-8.008-16.993-2.734-9.375-2.734-19.922zm13.477-8.203h64.16q-1.074-15.332-9.375-24.61-8.3-9.375-23.242-9.375-13.867 0-22.07 9.863-8.204 9.864-9.473 24.122zM1219.36 559.61h12.402l.586 14.745h.39q2.735-7.617 8.887-12.5 6.25-4.98 13.672-5.273 1.367-.098 3.125-.098 3.516 0 8.887.293v11.62q-.783-.096-3.42-.39-2.636-.39-4.003-.39-13.086 0-20.215 8.692-7.03 8.592-7.324 23.338V660h-12.012v-77.832-.78q0-4.59-.977-21.78zM279.262 790.645V779.61h20.02v-21.387l12.01-5.176v26.562h22.755v11.035h-22.754v67.871q.098 6.445 3.418 9.863 3.517 3.612 10.353 3.612 6.542 0 10.45-1.172v10.352q-7.228 1.855-12.208 1.855-3.516 0-6.543-.488-3.028-.392-5.274-1.173-2.246-.78-4.1-1.855-1.76-1.074-3.03-2.442-1.17-1.465-2.147-3.027-.976-1.563-1.464-3.32-.488-1.856-.88-3.71-.39-1.857-.487-3.81 0-2.05-.1-4.004-.096-2.052 0-4.005v-64.55zM351.094 880V735.566h12.01v59.278h.392q5.176-9.082 13.28-13.672 8.107-4.59 18.068-4.59 6.738 0 12.207 1.66 5.567 1.66 9.18 4.297 3.614 2.636 6.25 6.444 2.735 3.71 4.2 7.325 1.465 3.612 2.246 7.81.88 4.2 1.074 7.13.293 2.93.293 5.957V880H418.28v-64.844q0-12.988-7.03-20.215-7.03-7.323-19.336-7.323-9.473 0-16.21 4.98-6.64 4.98-9.67 12.598-2.93 7.618-2.93 16.993V880zM450.367 829.805q0-10.45 2.832-19.825 2.93-9.472 8.3-16.992 5.47-7.52 14.16-11.914 8.692-4.492 19.53-4.492 12.208 0 21.193 4.297 9.082 4.198 14.355 12.01 5.274 7.813 7.715 17.676 2.54 9.864 2.54 22.07h-77.54q.195 8.302 2.15 15.235 2.05 6.935 6.053 12.5 4.102 5.47 10.84 8.595 6.738 3.027 15.723 3.027 10.546 0 18.65-6.738 8.107-6.836 10.353-17.285h12.597q-4.59 17.87-15.918 26.464-11.23 8.593-29.492 8.593-10.84 0-19.433-4.394-8.594-4.395-13.868-11.914-5.274-7.618-8.008-16.993-2.735-9.375-2.735-19.922zm13.477-8.203h64.16q-1.074-15.332-9.375-24.61-8.302-9.375-23.243-9.375-13.867 0-22.07 9.863-8.204 9.864-9.473 24.122zM611.414 880V735.566h12.012V880zM640.96 851.973q0-9.96 5.47-17.578 5.468-7.618 14.746-11.426 6.054-2.638 13.183-3.517 7.128-.88 18.066-.88 11.035 0 14.062-.194v-9.18q-.88-11.817-6.738-16.7-5.86-4.883-16.992-4.883-22.656 0-24.61 17.383h-12.793q1.075-7.52 4.395-13.086 3.32-5.566 8.3-8.887 5.08-3.32 11.23-4.882 6.25-1.563 13.673-1.563 17.188 0 26.563 8.203 9.082 7.91 8.984 24.024v55.957q.195 3.71.586 8.69.39 4.884.488 6.544h-12.402l-.39-14.844h-.49l-.585 1.465q-3.418 6.544-12.5 11.525-8.984 4.882-18.848 4.882-14.356 0-23.926-8.3-9.473-8.4-9.473-22.754zm12.99 0q0 9.668 6.347 14.843 6.445 5.176 16.21 5.176 7.618 0 13.282-2.44 5.663-2.443 8.886-6.447 3.32-4.003 5.273-9.667 1.952-5.665 2.44-11.524.294-3.223.294-6.738 0-2.832-.196-5.762-2.05.098-7.13.195-4.98 0-8.397.097-3.32 0-8.495.488-5.176.49-8.79 1.27-3.515.78-7.52 2.44-4.003 1.66-6.444 4.005-2.44 2.246-4.1 5.86-1.66 3.613-1.66 8.203zM735.742 880v-11.035l58.594-78.32h-58.594V779.61h72.754v11.035l-58.203 78.32h58.203V880zM811.97 779.61h14.647l33.79 83.984L894 779.61h12.988l-55.37 138.77h-13.184L853.57 880zM963.055 829.414q0-8.008 1.367-15.43 1.465-7.52 4.59-14.355 3.222-6.935 7.812-11.915 4.688-5.078 11.72-8.106 7.03-3.028 15.722-3.028 10.35 0 19.824 4.883 9.473 4.785 14.55 13.38l.39-.49v-58.79h12.013v121.876q0 3.81 1.074 22.56h-12.402l-.684-14.844-.39-.78q-6.152 8.983-15.038 13.866-8.887 4.785-19.336 4.785-8.594 0-15.723-3.125-7.03-3.222-11.72-8.398-4.59-5.274-7.81-12.305-3.224-7.032-4.59-14.454-1.368-7.52-1.368-15.332zm13.867-12.988q-.88 5.566-.88 11.62 0 6.056.685 11.72.78 5.664 2.734 11.718 1.954 6.055 4.98 10.45 3.126 4.394 8.205 7.226 5.175 2.832 11.816 2.832 7.618 0 13.575-2.44 5.957-2.54 9.766-6.642 3.81-4.2 6.25-10.058 2.54-5.86 3.516-12.11 1.075-6.25 1.075-13.38 0-8.007-1.855-14.842-1.758-6.934-5.47-12.598-3.71-5.762-10.155-8.985-6.348-3.32-14.844-3.32-6.543 0-11.816 2.442-5.273 2.342-8.69 6.25-3.42 3.905-5.665 9.276-2.247 5.273-3.223 10.84zM1069.75 845.527q-1.758-7.617-1.758-15.722 0-8.106 1.758-15.625 1.758-7.618 5.47-14.453 3.807-6.934 9.178-12.012 5.47-5.078 13.282-8.106 7.812-3.028 17.09-3.028 9.277 0 17.09 3.027 7.91 3.027 13.28 8.105 5.372 5.078 9.18 12.012 3.81 6.835 5.567 14.453 1.757 7.52 1.757 15.625t-1.757 15.722q-1.758 7.52-5.567 14.453-3.808 6.836-9.18 11.915-5.37 5.078-13.28 8.105-7.813 3.027-17.09 3.027-9.278 0-17.09-3.027-7.813-3.027-13.282-8.105-5.37-5.08-9.18-11.915-3.71-6.933-5.468-14.453zm12.402-27.246q-1.172 5.763-1.172 11.525 0 5.76 1.172 11.523 1.172 5.762 3.81 11.328 2.636 5.567 6.444 9.864 3.81 4.2 9.57 6.835 5.762 2.637 12.794 2.637 7.03 0 12.793-2.637 5.76-2.636 9.57-6.835 3.808-4.297 6.445-9.864 2.637-5.566 3.81-11.328 1.17-5.762 1.17-11.523 0-5.762-1.17-11.524-1.173-5.76-3.81-11.327-2.637-5.566-6.445-9.765-3.81-4.297-9.57-6.934-5.762-2.637-12.794-2.637-7.032 0-12.793 2.637-5.762 2.637-9.57 6.933-3.81 4.2-6.446 9.766-2.636 5.567-3.808 11.328zM1173.516 829.023q0-10.546 2.44-19.726 2.442-9.18 7.423-16.602 4.98-7.52 13.378-11.816 8.496-4.298 19.53-4.298 20.118 0 33.01 18.652l.39-.88.683-14.745h12.403q-1.074 18.847-1.074 22.558v60.254q0 16.894-.977 23.34-2.735 17.285-15.43 25.39-2.246 1.465-4.785 2.637-5.762 2.733-10.645 3.612-4.785.977-12.11.977-5.76 0-11.132-.782-5.37-.782-10.74-2.735-5.275-1.953-9.18-4.98-3.907-2.93-6.348-7.715-2.442-4.785-2.442-10.742h12.988q.49 4.297 3.125 7.52 2.735 3.222 6.836 4.98 4.1 1.855 8.69 2.636 4.688.88 9.766.88 12.11 0 21.094-7.813 8.984-7.814 9.277-20.02V860.76h-.39q-4.2 8.593-13.38 13.77-9.08 5.077-19.14 5.077-8.79 0-16.015-2.637-7.227-2.637-12.305-7.227-4.98-4.59-8.398-10.937-3.42-6.447-4.982-13.87-1.562-7.518-1.562-15.917zm12.988-.976q0 5.664 1.074 11.328 1.172 5.566 3.613 10.938 2.54 5.273 6.154 9.375 3.613 4.003 8.886 6.445 5.372 2.44 11.72 2.44 6.64 0 12.11-2.343 5.467-2.44 8.983-6.445 3.613-4.004 6.055-9.277 2.44-5.37 3.515-11.133 1.074-5.762 1.074-11.816 0-7.423-2.05-14.357-2.05-7.03-5.86-12.793-3.808-5.762-10.156-9.277-6.25-3.516-14.06-3.516-7.814 0-13.966 3.71-6.153 3.614-9.766 9.67-3.613 6.054-5.47 12.987-1.854 6.836-1.854 14.063zM1289.684 880v-17.188h16.015V880z"/></g></svg>