<svg xmlns="http://www.w3.org/2000/svg" viewBox="0 0 800 500"><path fill="#fff" d="M0 0h800v500H0z"/><g font-weight="400" font-size="100" font-family="Vollkorn" text-anchor="middle" fill="#111"><path d="M214.84 46.3h-5.1q-3.9 0-6.2.9-2.2.9-3.5 2.5-1.3 1.6-1.9 3.7-.6 2.1-1.1 4.6-1.1 0-2.4-.2-1.3-.2-2.2-.7.8-3.5 1.2-7.5.4-4 .4-7.5 4.2.2 11 .3h29q3.4-.1 6.2-.1 2.9-.1 5-.2 0 6.8.6 15-1.1.5-2.4.7-1.2.2-2.4.2-.2-5.4-3-8.5-2.7-3.2-9-3.2h-4.8v51q0 2.5.3 4.2.3 1.6 1.1 2.6.9.9 2.4 1.4 1.6.4 4 .5.5 1.4.5 4.3-3.2-.2-6.6-.3h-13.3q-3.5.1-6.3.3 0-2.9.5-4.3 2.4-.1 3.9-.5 1.6-.5 2.5-1.4.9-1 1.2-2.6.4-1.7.4-4.2zM294.23 97.3q0 5.2 1.4 7 1.5 1.7 4.5 1.7.3.9.4 1.9.1 1 .1 2.4-2.2-.2-5-.3h-5.9q-3.1 0-6.4.1-3.2.1-5.5.2 0-2.9.5-4.3 3.6 0 5.2-1.8 1.7-1.9 1.7-6.9V82.1q0-3.5-.7-5.8-.7-2.4-2-3.8-1.2-1.4-2.9-2-1.7-.6-3.7-.6t-4 .9q-2 .9-3.6 2.9t-2.7 5.2q-1 3.1-1 7.7v10.7q0 5 1.5 6.9 1.5 1.8 5.4 1.8.3.9.4 1.9.1 1 .1 2.4-2.1-.1-5.5-.2-3.3-.1-6.4-.1h-6.4q-3.3.1-5.5.3 0-2.9.5-4.3 3.9 0 5.4-1.8 1.5-1.9 1.5-6.9V52.5q0-1.8-.2-3.1t-1-2.2q-.8-.9-2.3-1.3-1.5-.5-4-.5 0-1.1.2-2 .2-.9.7-1.7 1.1 0 3-.3t3.9-.7q2-.5 3.8-1.1 1.8-.7 2.7-1.3.9.3 1.5 1.2.7.9.7 2.8v25.4q0 1.2-.1 2.7-.1 1.5-.6 3.2.3-.5.6-1.1.3-.7.9-1.5.8-1.2 2.2-2.4 1.4-1.3 3.2-2.3 1.9-1.1 4.1-1.8 2.3-.7 5-.7 2.8 0 5.4.9 2.6.8 4.6 2.7 2 1.9 3.1 5 1.2 3.1 1.2 7.7zM324.5 87.7q-3.3.1-6.4.3.1 2.2.5 4.3.7 3.6 2.3 6.5 1.7 2.9 4.5 4.7 2.8 1.8 7.2 1.8 3.3 0 6.5-1.4 3.2-1.5 5.7-4.4.8.5 1.5 1.4.7.9.9 1.7-3.5 4.5-7.9 6.4-4.4 1.9-9.9 1.9-5.3 0-9.3-1.9-4-1.9-6.7-5.1-2.6-3.2-3.9-7.5-1.3-4.4-1.3-9.3 0-4.8 1.4-9.1 1.5-4.3 4.1-7.6 2.7-3.3 6.5-5.2 3.9-1.9 8.7-1.9 4.9 0 8.3 1.7 3.4 1.6 5.6 4.4 2.2 2.8 3.3 6.6 1.2 3.7 1.5 8-.4 2-1.5 3.4H341q-3.4 0-7.7.1-4.2 0-8.8.2zm-5.7-10.9q-.6 2.5-.8 6.1h19.2q0-6.6-2.4-10.7t-6.8-4.1q-1.8 0-3.6.8-1.8.7-3.3 2.7-1.4 1.9-2.3 5.2zM400.882 130.2q2.4-.1 3.9-.6 1.5-.4 2.4-1.4.9-.9 1.2-2.6.4-1.6.4-4.1V108q0-2.5.4-5 .3-1.9.8-4.6l-.8 2q-.9 2.1-1.8 3.3-1 1.3-2.5 2.5-1.5 1.1-3.3 2-1.7.9-3.7 1.4-1.9.5-3.9.5-3.6 0-7-1.3-3.3-1.4-5.9-4.1-2.5-2.7-4-6.7t-1.5-9.4q0-5.1 1.7-9.7 1.8-4.6 5-8 3.2-3.5 7.7-5.5 4.5-2.1 10-2.1 6.9 0 11.7 1.8 4.9 1.8 8.1 4.9-1 1.5-1.5 4-.5 2.4-.5 6.9v40.6q0 5 1.4 6.7 1.5 1.8 5.5 2 .3.9.4 1.9.1 1 .1 2.4-.9-.1-2.4-.2-1.4 0-3.1-.1h-13.4q-3.3.1-5.9.3 0-2.9.5-4.3zm6.8-35.3q.9-2.9 1.1-7V71.4q-1.1-1.2-3.5-2.3-2.4-1.2-4.9-1.2-6.6 0-10.8 5-4.1 5-4.1 14.4 0 4.7 1.1 7.9t2.8 5.2q1.8 1.9 4 2.8 2.2.8 4.3.8 1.7 0 3.6-.8 2-.9 3.6-2.9 1.7-2.1 2.8-5.4zM463.37 77q0-1.8-.3-3.1-.2-1.3-1-2.1-.8-.9-2.3-1.3-1.4-.5-3.9-.6 0-1.1.1-1.9.1-.9.6-1.8 3.9-.2 7.6-1 3.7-.8 6-1.9.9.3 1.5 1.3.7.9.7 3.1v28.7q0 1.8.2 3.1t.9 2.2q.7.8 2 1.3 1.3.4 3.6.5 0 1.1-.1 2.2-.1 1-.5 2.1-1.1 0-2.8.3-1.7.2-3.5.6-1.7.4-3.3 1-1.5.6-2.4 1.2-.9-.3-1.7-1.3-.8-1-.8-3.6 0-2 .2-4v-.9q-1 2.2-3 4.2-5.1 5.1-12.1 5.1-3.5 0-6.3-.9-2.7-.9-4.6-2.9-1.9-2.1-2.9-5.5-.9-3.4-.9-8.5V77.5q0-1.8-.2-3.1-.1-1.3-.8-2.1-.7-.9-2-1.3-1.3-.5-3.6-.6 0-1.1.1-1.9.1-.9.6-1.8 1.5-.1 3.2-.4 1.8-.4 3.5-.8 1.7-.5 3.2-1 1.6-.6 2.8-1.2.9.3 1.5 1.3.7.9.7 3.1v22.7q0 7.6 2 10.8 2 3.1 7 3.1 2 0 4-1t3.5-3.1q1.6-2.1 2.5-5.3 1-3.3 1-7.7zM491.42 46.2q0-2.7 1.8-4.4 1.8-1.7 4.1-1.7 2.7 0 4.3 1.7 1.7 1.7 1.7 4.4 0 2.3-1.8 4.1-1.7 1.7-4.2 1.7-2.6 0-4.3-1.7-1.6-1.7-1.6-4.1zm11.2 51.1q0 5 1.3 6.9 1.4 1.8 4.6 1.8.3 1.1.4 2.4.1 1.2.1 1.9-2.6-.2-5.5-.3h-11.8q-3 .1-5.5.3 0-1 .1-2.1.1-1.2.4-2.2 4 0 5.4-1.8 1.5-1.9 1.5-6.9V77.5q0-1.8-.2-3.1t-1-2.2q-.8-.9-2.3-1.3-1.5-.5-4-.5 0-1.1.2-2 .2-.9.7-1.7 1.1 0 3-.3t3.9-.7q2-.5 3.8-1.1 1.8-.7 2.7-1.3.9.3 1.5 1.2.7.9.7 2.8zM553.993 102.2q-2.7 4.3-6.7 6.5t-9.7 2.2q-3.8 0-7.6-1.5-3.7-1.5-6.7-4.4-2.9-3-4.7-7.4-1.8-4.4-1.8-10.3 0-4.5 1.3-8.8 1.4-4.3 4-7.7 2.7-3.4 6.5-5.4 3.9-2.1 9-2.1 9.4 0 15.1 4.5-.5 2.9-.6 5.7-.1 2.8-.1 5.7-.8.5-2.2.7-1.3.1-2.4.1-.6-5.8-3.4-8.9-2.8-3.1-7.2-3.1-5 0-7.9 4.6-2.8 4.6-2.8 13.2 0 3.8.9 7.3 1 3.5 2.8 6.2 1.8 2.7 4.4 4.3 2.7 1.6 6.2 1.6 6.7 0 11.1-5.8.8.4 1.5 1.2.7.7 1 1.6zM566.566 52.5q0-1.8-.2-3.1t-1-2.2q-.8-.9-2.3-1.3-1.5-.5-4-.5 0-1.1.2-2 .2-.9.7-1.7 1.1 0 3-.3t3.9-.7q2-.5 3.8-1.1 1.8-.7 2.7-1.3.9.3 1.5 1.2.7.9.7 2.8v41.6l6.7-6.2q3.4-3.1 4.9-5 1.5-1.9 1.5-3 0-1.6-2.9-1.6-.6-1.9-.6-4.1 3.2.2 5.8.2h8.8q2.5 0 5.2-.2 0 1-.2 2.2-.1 1.1-.5 2-2.9.1-5.7 1.4-2.8 1.3-6.5 4.7l-8.7 7.9q.8 1 1.7 2 1.8 1.9 3.7 4.2 1.9 2.3 4.1 5 2.2 2.7 4.8 6 1.7 2.1 2.9 3.4 1.2 1.2 2.3 1.8 1.1.6 2.3.8 1.2.2 2.9.3 0 2.9-.5 4.3-3.6 0-6.6.2-2.9.2-6.2.7-1.3-2.1-3.8-5.4-2.4-3.3-5.4-7-2.9-3.7-6-7.2-2.1-2.5-4-4.5v10.5q0 5 1.3 6.9 1.4 1.8 4.6 1.8.3 1.1.4 2.4.1 1.2.1 1.9-2.6-.2-5.5-.3h-11.8q-3 .1-5.5.3 0-1 .1-2.1.1-1.2.4-2.2 4 0 5.4-1.8 1.5-1.9 1.5-6.9zM204.706 220.9q-6.9 0-11.7-1.9-4.8-2-7.8-4.9 1-1.3 1.6-4 .6-2.8.6-8.7v-38.9q0-1.8-.2-3.1t-1-2.2q-.8-.9-2.3-1.3-1.5-.5-4-.5 0-1.1.2-2 .2-.9.7-1.7 1.1 0 3-.3t3.9-.7q2-.5 3.8-1.1 1.8-.7 2.7-1.3.9.3 1.5 1.2.7.9.7 2.8v26.1q0 1.8-.3 3.5-.1.4-.2 1 .8-1.5 1.3-2.2.7-1.1 1.9-2.4 1.3-1.3 3.1-2.4 1.8-1.1 4-1.8 2.2-.8 4.7-.8 8.8 0 13.7 5.3 5 5.3 5 16.9 0 5.3-1.8 9.9-1.8 4.6-5.1 8.1-3.2 3.4-7.8 5.4-4.6 2-10.2 2zm-8.3-8.1q1.4 1.2 2.9 2.1 2.4 1.4 5.9 1.4 2.1 0 4.6-.8 2.5-.8 4.7-3t3.7-5.9q1.5-3.8 1.5-9.8 0-4.8-1.2-8.1-1.1-3.3-2.8-5.3-1.6-2-3.6-2.9-2-.9-3.6-.9-2.2 0-4.4 1-2.1 1-3.9 3.3-1.7 2.3-2.8 6-1 3.6-1 8.8zM254.494 190.2q-.7 2.2-.8 4.5v10.6q0 3.3.5 5.3t1.6 3.2q1.1 1.2 2.7 1.7 1.7.4 4.1.5.5 1.4.5 4.3-2.3-.2-5.7-.3h-14.3q-1.8.1-3.3.1-1.5.1-2.5.2 0-2.9.5-4.3 4-.2 5.4-1.9 1.5-1.8 1.5-6.8v-19.8q0-1.8-.3-3.1-.2-1.3-1-2.1-.8-.9-2.3-1.3-1.4-.5-3.9-.6 0-1.1.2-2 .2-.9.7-1.7 1.5-.1 3.3-.4 1.9-.4 3.7-.8 1.9-.5 3.5-1 1.7-.6 2.9-1.2.9.3 1.5 1.3.7.9.7 3.1 0 3.5-.6 6.2l-.9 4.1q.6-1.5.9-2.7.6-1.8 1.4-3 2.2-3.5 5.2-5.8t6.9-2.3q2 0 3.6.6 1.7.6 3.3 1.8-.4 2.5-.6 5.9-.1 3.3-.1 5.9-.9.3-2.5.6-1.5.3-3.2.3-.2-4.8-1.6-6.3-1.3-1.5-3.3-1.5-1.3 0-2.8 1.1-1.5 1.1-2.8 3.1-1.2 1.9-2.1 4.5zM289.686 195q0 10.2 3.6 15.7 3.6 5.4 9.7 5.4 6 0 8.9-4.9 2.9-5 2.9-12.9 0-4.6-1.1-8.3-1.1-3.8-3-6.4-1.8-2.7-4.3-4.1-2.4-1.4-5.2-1.4-5.8 0-8.7 4.7-2.8 4.7-2.8 12.2zm-10.1 2.1q0-5.1 1.6-9.4 1.7-4.4 4.7-7.6 3-3.2 7.1-5 4.2-1.8 9.2-1.8 5.3 0 9.5 1.7t7.1 4.9q2.9 3.1 4.4 7.5 1.6 4.4 1.6 9.7 0 5.1-1.7 9.5-1.6 4.4-4.6 7.6-2.9 3.1-7.1 4.9-4.1 1.8-9.2 1.8t-9.3-1.7q-4.2-1.7-7.2-4.8-2.9-3.1-4.5-7.5t-1.6-9.8zM370.158 174.2q1.6 3.6 3.4 7.9 1.9 4.3 3.8 9 2 4.6 4 9.4 1.6 3.9 3.1 7.7l5.4-17q1.2-3.6 1.4-6 .2-2.4-.4-3.8-.6-1.5-1.9-2.2-1.3-.7-3.1-.9-.9-2.1-.9-4.4 1.9.2 4.3.3h4.6q5.3 0 8.8-.3 0 2.5-.8 4.4-1.1.3-2 1-.8.6-1.6 2-.8 1.3-1.7 3.6-.9 2.3-2.1 6l-10.1 30q-1.4 0-2.6-.2-1.1-.2-2-.7-1.7-4.2-3.6-8.7-1.9-4.6-3.9-9.2t-4-9.1q-1.3-3-2.5-5.8l-13.1 33.7q-1.7 0-2.7-.2-.9-.2-1.7-.7-3.2-9.1-6.6-17.9-3.4-8.8-7.2-17.9-1.1-2.8-2.3-4-1.1-1.2-3.3-1.9-.4-1-.5-2.2-.1-1.2-.1-2.1 2 .1 4.2.2H343.858q2.6-.1 5.2-.3 0 1-.1 2.3-.1 1.3-.4 2.1-4.2.5-4.8 1.9-.6 1.3.5 4.1 2.4 5.9 4.9 12.8 2.2 5.8 4.1 11l12.9-34.3q1 0 2.1.1t1.9.3zM453.802 207.3q0 5.2 1.4 7 1.5 1.7 4.5 1.7.3.9.4 1.9.1 1 .1 2.4-2.2-.2-5-.3h-5.9q-3.1 0-6.4.1-3.2.1-5.5.2 0-2.9.5-4.3 3.6 0 5.2-1.8 1.7-1.9 1.7-6.9v-15.2q0-3.5-.7-5.8-.7-2.4-2-3.8-1.2-1.4-2.9-2-1.7-.6-3.7-.6t-4 .9q-2 .9-3.6 2.9t-2.7 5.2q-1 3.1-1 7.7v10.7q0 5 1.5 6.9 1.5 1.8 5.4 1.8.3.9.4 1.9.1 1 .1 2.4-2.1-.1-5.5-.2-3.3-.1-6.4-.1h-6.4q-3.3.1-5.5.3 0-2.9.5-4.3 3.9 0 5.4-1.8 1.5-1.9 1.5-6.9v-19.8q0-1.8-.3-3.1-.2-1.3-1-2.1-.8-.9-2.3-1.3-1.4-.5-3.9-.6 0-1.1.2-2 .2-.9.7-1.7 1.5-.1 3.3-.4 1.9-.4 3.7-.8 1.9-.5 3.5-1 1.7-.6 2.9-1.2.9.3 1.5 1.3.7.9.7 3.1 0 1.2-.1 2.7-.1 1.5-.6 3.2.3-.5.6-1.1.3-.7.9-1.5.8-1.2 2.2-2.4 1.4-1.3 3.2-2.3 1.9-1.1 4.1-1.8 2.3-.7 5-.7 2.8 0 5.4.9 2.6.8 4.6 2.7 2 1.9 3.1 5 1.2 3.1 1.2 7.7zM504.194 175.2h10.2q0 1-.2 2.3-.2 1.2-.8 2.2-5.3 0-9.2 1.2v24.4q0 3.3.5 5.3t1.6 3.2q1.1 1.2 2.7 1.7 1.7.4 4.1.5.5 1.4.5 4.3-2.3-.2-5.7-.3h-14.3q-1.8.1-3.3.1-1.5.1-2.5.2 0-2.9.5-4.3 4-.2 5.4-1.9 1.5-1.8 1.5-6.8v-26.7q-2.2-.5-4.4-.7-2.1-.2-3.6-.2 0-2.7 1.4-4.5h6.6v-4q0-5.6 1.8-9.8 1.8-4.3 4.7-7.1 3-2.9 6.7-4.3 3.8-1.4 7.7-1.4 3.9 0 5.8.8 2 .7 3.7 1.7-.2 3.2-.3 6.1-.1 2.9-.1 5.6-1.3.4-2.8.6-1.5.2-2.9.2 0-4.1-1.8-6.8t-6-2.7q-4.1 0-5.8 3.7-1.7 3.6-1.7 10.3zM531.873 195q0 10.2 3.6 15.7 3.6 5.4 9.7 5.4 6 0 8.9-4.9 2.9-5 2.9-12.9 0-4.6-1.1-8.3-1.1-3.8-3-6.4-1.8-2.7-4.3-4.1-2.4-1.4-5.2-1.4-5.8 0-8.7 4.7-2.8 4.7-2.8 12.2zm-10.1 2.1q0-5.1 1.6-9.4 1.7-4.4 4.7-7.6 3-3.2 7.1-5 4.2-1.8 9.2-1.8 5.3 0 9.5 1.7t7.1 4.9q2.9 3.1 4.4 7.5 1.6 4.4 1.6 9.7 0 5.1-1.7 9.5-1.6 4.4-4.6 7.6-2.9 3.1-7.1 4.9-4.1 1.8-9.2 1.8t-9.3-1.7q-4.2-1.7-7.2-4.8-2.9-3.1-4.5-7.5t-1.6-9.8zM599.145 209.8q-1.4-2.1-3-4.4-1.3-2.1-2.8-4.1l-4.1 6.1q-3.2 4.6-2.6 6.6.6 2 3.5 2 .3.8.4 2 .2 1.1.2 2.2-2.8-.2-5.9-.2h-7.8q-2 0-5.1.2 0-1.1.1-2.2.1-1.2.5-2 1.3-.1 2.5-.5 1.3-.4 2.6-1.4 1.3-1 2.7-2.7 1.5-1.7 3.4-4.3l6.9-9.7q-1.9-2.6-3.7-5.2-2.1-3-3.8-5.3-2.1-2.8-3.5-4.5-1.4-1.8-2.4-2.7-1-.9-1.9-1.2-.8-.4-2-.5-.7-1.5-.7-4 2.2.1 4.9.2h11.5q3 0 5.6-.2 0 1-.2 2.1-.1 1.1-.3 1.9-3.5.2-4.1 1.7-.6 1.4 2.6 5.7l2.2 3q1.1 1.5 2.3 3.2l4-6.2q2.6-4 2.4-5.6-.2-1.6-3.5-1.8-.4-.9-.5-1.9-.1-1-.1-2.1 1.9.1 3.9.2h9.9q1.9-.1 3.5-.2 0 1.1-.2 2.2-.2 1-.4 1.8-1.1.1-2.1.4-.9.2-1.9 1-.9.7-2.1 2-1.1 1.3-2.6 3.5l-7.4 10.5q2.1 2.8 4.3 5.8 2.7 3.7 4.7 6.6 1.6 2.4 2.8 4 1.2 1.5 2.1 2.5 1 .9 1.8 1.3.9.4 1.9.4.4 1 .4 2 .1.9.1 2.2-3.1-.2-5.5-.2h-10.6q-3 0-5.9.2v-2.3q.1-1 .4-1.9 3.5-.1 4.2-1.4.7-1.3-1.6-4.8zM167.057 297.5q0-1.8-.2-3.1t-1-2.2q-.8-.9-2.3-1.3-1.5-.5-4-.5 0-1.1.2-2 .2-.9.7-1.7 1.1 0 3-.3t3.9-.7q2-.5 3.8-1.1 1.8-.7 2.7-1.3.9.3 1.5 1.2.7.9.7 2.8v40.4q0 5.1-1.6 9.4-1.5 4.3-3.9 7.7-2.4 3.5-5.4 6-2.9 2.6-5.7 4.1-.8-.4-1.4-1.1-.6-.7-.8-1.7 3-3.4 4.9-6.3 1.9-2.9 3-5.7 1.1-2.8 1.5-5.9.4-3 .4-6.8zm-2.2-31.3q0-2.7 1.8-4.4 1.8-1.7 4.1-1.7 2.7 0 4.3 1.7 1.7 1.7 1.7 4.4 0 2.3-1.8 4.1-1.7 1.7-4.2 1.7-2.6 0-4.3-1.7-1.6-1.7-1.6-4.1zM221.377 297q0-1.8-.3-3.1-.2-1.3-1-2.1-.8-.9-2.3-1.3-1.4-.5-3.9-.6 0-1.1.1-1.9.1-.9.6-1.8 3.9-.2 7.6-1 3.7-.8 6-1.9.9.3 1.5 1.3.7.9.7 3.1v28.7q0 1.8.2 3.1t.9 2.2q.7.8 2 1.3 1.3.4 3.6.5 0 1.1-.1 2.2-.1 1-.5 2.1-1.1 0-2.8.3-1.7.2-3.5.6-1.7.4-3.3 1-1.5.6-2.4 1.2-.9-.3-1.7-1.3-.8-1-.8-3.6 0-2 .2-4v-.9q-1 2.2-3 4.2-5.1 5.1-12.1 5.1-3.5 0-6.3-.9-2.7-.9-4.6-2.9-1.9-2.1-2.9-5.5-.9-3.4-.9-8.5v-15.1q0-1.8-.2-3.1-.1-1.3-.8-2.1-.7-.9-2-1.3-1.3-.5-3.6-.6 0-1.1.1-1.9.1-.9.6-1.8 1.5-.1 3.2-.4 1.8-.4 3.5-.8 1.7-.5 3.2-1 1.6-.6 2.8-1.2.9.3 1.5 1.3.7.9.7 3.1v22.7q0 7.6 2 10.8 2 3.1 7 3.1 2 0 4-1t3.5-3.1q1.6-2.1 2.5-5.3 1-3.3 1-7.7zM245.027 286.7q1.3-.1 3.1-.4 1.8-.3 3.6-.8 1.9-.5 3.5-1 1.7-.6 2.7-1.2.9.3 1.5 1.2.7.9.7 2.8 0 1.7-.2 3.8 0 1-.2 2.5.4-.9.6-1.4.7-1.3 1-1.7.8-1.2 2.1-2.4 1.4-1.3 3.2-2.3 1.8-1.1 4.1-1.8t4.9-.7q4.2 0 7.7 1.9t5.1 6.5q.3 1 .4 2.5.3-.9.6-1.5.5-.9 1.1-1.7.8-1.2 2.1-2.4 1.4-1.3 3.2-2.3 1.9-1.1 4.1-1.8 2.3-.7 4.9-.7 2.8 0 5.3.9 2.6.8 4.5 2.7 2 1.9 3.1 5 1.2 3.1 1.2 7.7v17.2q0 2.6.3 4.3.4 1.6 1.1 2.6.8.9 1.9 1.3 1.2.4 2.7.5.3.9.4 1.9.1 1 .1 2.4-2.3-.2-5.1-.3h-12q-3.2.1-5.7.3 0-2.9.5-4.3 4-.2 5.4-1.9 1.5-1.8 1.5-6.8v-15.2q0-3.5-.7-5.8-.7-2.4-1.9-3.8t-2.9-2q-1.7-.6-3.7-.6-1.9 0-3.9.9t-3.6 2.9q-1.6 2-2.6 5.2-1 3.1-1 7.7v10.7q0 2.6.4 4.3.4 1.6 1.2 2.6.8.9 2.1 1.3 1.4.4 3.3.5.3.9.4 1.9.1 1 .1 2.4-2.6-.2-5.8-.3h-12.2q-3.1.1-5.8.3 0-2.9.5-4.3 4-.2 5.4-1.9 1.5-1.8 1.5-6.8v-15.7q0-3.5-.7-5.8-.7-2.4-1.9-3.8t-2.9-2q-1.7-.6-3.7-.6-1.9 0-3.9.9t-3.6 2.9q-1.6 2-2.6 5.2-1 3.1-1 7.7v11.2q0 5 1.5 6.8 1.5 1.7 5.5 1.9.3.9.4 1.9.1 1 .1 2.4-2.6-.2-6-.3h-12q-3.4.1-5.8.3 0-2.9.5-4.3 4-.2 5.4-1.9 1.5-1.8 1.5-6.8v-19.8q0-1.8-.3-3.1-.2-1.3-1-2.1-.8-.9-2.3-1.3-1.4-.5-3.9-.6 0-1.1.2-2 .2-.9.7-1.7zM357.304 330.9q-2.9 0-5-.5-1.5-.4-3.3-.8v11.1q.1 2.9.6 4.6.6 1.8 1.7 2.8 1.1 1.1 2.7 1.5 1.6.5 3.9.6.5 1.4.5 4.3-2.3-.2-5.7-.3h-14.3q-1.8.1-3.3.1-1.5.1-2.5.2 0-2.9.5-4.3 4-.2 5.4-2 1.5-1.7 1.5-6.7v-44q0-1.8-.3-3.1-.2-1.3-1-2.1-.8-.9-2.3-1.3-1.4-.5-3.9-.6 0-1.1.2-2 .2-.9.7-1.7 1.5-.1 3.3-.4 1.9-.4 3.7-.8 1.9-.5 3.5-1 1.7-.6 2.9-1.2.9.3 1.5 1.3.7.9.7 3.1 0 2.3-.7 4.4-.4 1.3-1 3.1l1-2q1-1.7 1.5-2.5.7-1.1 1.9-2.4 1.3-1.3 3.1-2.4 1.8-1.1 4-1.8 2.2-.8 4.7-.8 8.8 0 13.7 5.2 5 5.2 5 16.1 0 5.6-1.8 10.4-1.8 4.8-5.1 8.4-3.2 3.5-7.8 5.5t-10.2 2zm-7.3-31q-.9 3.1-1 7.3v15.6q1.4 1.2 2.9 2.1 2.4 1.4 5.9 1.4 2.1 0 4.6-.8 2.5-.8 4.7-3t3.7-5.9q1.5-3.8 1.5-9.8 0-7.9-3.2-12.5-3.2-4.7-8-4.7-2.2 0-4.4 1-2.1 1-3.9 3.3-1.7 2.3-2.8 6zM421.73 286.8q-.2 2.4-.2 5.1 0 2.7.4 5.3-2 1.2-5 1.2-.2-2.1-1.1-4-.8-2-2.3-3.5-1.4-1.6-3.4-2.5-2-1-4.4-1-3.1 0-5 1.5-1.8 1.5-1.8 4 0 1.3.3 2.3.4 1 1.6 2.1 1.3 1 3.6 2.2 2.4 1.1 6.4 2.7 4 1.5 6.7 3 2.8 1.5 4.4 3.2 1.7 1.7 2.4 3.7t.7 4.7q0 3.2-1.4 5.8-1.4 2.6-3.9 4.5-2.4 1.8-5.8 2.8-3.3 1-7.2 1-3 0-5.3-.3-2.3-.2-4.3-.6-1.9-.5-3.6-1.2-1.6-.7-3.3-1.6.1-1.2.2-2.8.1-1.6.1-3.3 0-1.8-.1-3.4 0-1.7-.1-2.9.8-.6 2.2-.8 1.5-.3 3-.3.8 6.3 3.9 9.4 3.1 3.1 8.3 3.1 4.1 0 6.3-1.8 2.3-1.8 2.3-4.6 0-1.3-.5-2.3-.4-1.1-1.6-2-1.2-1-3.3-2-2.1-1.1-5.4-2.5-4.1-1.6-6.9-3-2.8-1.5-4.6-3.2-1.7-1.7-2.5-3.8-.8-2.2-.8-5.2 0-3.2 1.6-5.5 1.7-2.4 4.2-3.9 2.5-1.6 5.4-2.3 2.9-.8 5.4-.8 4.5 0 7.9.9 3.4.9 6.5 2.6zM463.026 305q0 10.2 3.6 15.7 3.6 5.4 9.7 5.4 6 0 8.9-4.9 2.9-5 2.9-12.9 0-4.6-1.1-8.3-1.1-3.8-3-6.4-1.8-2.7-4.3-4.1-2.4-1.4-5.2-1.4-5.8 0-8.7 4.7-2.8 4.7-2.8 12.2zm-10.1 2.1q0-5.1 1.6-9.4 1.7-4.4 4.7-7.6 3-3.2 7.1-5 4.2-1.8 9.2-1.8 5.3 0 9.5 1.7t7.1 4.9q2.9 3.1 4.4 7.5 1.6 4.4 1.6 9.7 0 5.1-1.7 9.5-1.6 4.4-4.6 7.6-2.9 3.1-7.1 4.9-4.1 1.8-9.2 1.8t-9.3-1.7q-4.2-1.7-7.2-4.8-2.9-3.1-4.5-7.5t-1.6-9.8zM533.598 283.9q2 .2 4.5.3h9.7q2.6-.1 4.4-.3 0 2.5-.9 4.3-1.2.3-2.2.9-.9.6-1.8 1.9-.9 1.2-1.9 3.2-.9 1.9-2.1 4.9l-13.4 31.8q-1.2 0-2.5-.2-1.2-.2-2.1-.7-.6-1.4-1.9-4.3-1.2-2.9-2.8-6.5-1.6-3.6-3.4-7.5-1.8-3.9-3.4-7.3-1.6-3.5-2.9-6.1-1.2-2.7-1.7-3.8-1-2-1.7-3.2-.7-1.2-1.4-1.8-.6-.7-1.4-.9-.7-.3-1.7-.4-.4-1.3-.5-2.1-.1-.8-.1-2.2 4.2.3 10.5.3h6.5q3.4-.1 5.8-.3 0 1.1-.2 2.2-.2 1-.5 1.9-2.5.2-4 .6-1.4.3-1.9 1.1-.5.7-.2 2 .3 1.2 1.2 3.2.7 1.5 2 4.6 1.4 3.1 3 6.9 1.7 3.8 3.4 7.8 1.3 3.2 2.4 5.8 2.2-5.7 3.9-10.3 2-5.2 3.7-9.7 2.5-6.5 1.5-9-1-2.6-4.8-2.9-1.1-2-1.1-4.2zM574.89 307.7q-3.3.1-6.4.3.1 2.2.5 4.3.7 3.6 2.3 6.5 1.7 2.9 4.5 4.7 2.8 1.8 7.2 1.8 3.3 0 6.5-1.4 3.2-1.5 5.7-4.4.8.5 1.5 1.4.7.9.9 1.7-3.5 4.5-7.9 6.4-4.4 1.9-9.9 1.9-5.3 0-9.3-1.9-4-1.9-6.7-5.1-2.6-3.2-3.9-7.5-1.3-4.4-1.3-9.3 0-4.8 1.4-9.1 1.5-4.3 4.1-7.6 2.7-3.3 6.5-5.2 3.9-1.9 8.7-1.9 4.9 0 8.3 1.7 3.4 1.6 5.6 4.4 2.2 2.8 3.3 6.6 1.2 3.7 1.5 8-.4 2-1.5 3.4h-5.1q-3.4 0-7.7.1-4.2 0-8.8.2zm-5.7-10.9q-.6 2.5-.8 6.1h19.2q0-6.6-2.4-10.7t-6.8-4.1q-1.8 0-3.6.8-1.8.7-3.3 2.7-1.4 1.9-2.3 5.2zM622.95 300.2q-.7 2.2-.8 4.5v10.6q0 3.3.5 5.3t1.6 3.2q1.1 1.2 2.7 1.7 1.7.4 4.1.5.5 1.4.5 4.3-2.3-.2-5.7-.3h-14.3q-1.8.1-3.3.1-1.5.1-2.5.2 0-2.9.5-4.3 4-.2 5.4-1.9 1.5-1.8 1.5-6.8v-19.8q0-1.8-.3-3.1-.2-1.3-1-2.1-.8-.9-2.3-1.3-1.4-.5-3.9-.6 0-1.1.2-2 .2-.9.7-1.7 1.5-.1 3.3-.4 1.9-.4 3.7-.8 1.9-.5 3.5-1 1.7-.6 2.9-1.2.9.3 1.5 1.3.7.9.7 3.1 0 3.5-.6 6.2l-.9 4.1q.6-1.5.9-2.7.6-1.8 1.4-3 2.2-3.5 5.2-5.8t6.9-2.3q2 0 3.6.6 1.7.6 3.3 1.8-.4 2.5-.6 5.9-.1 3.3-.1 5.9-.9.3-2.5.6-1.5.3-3.2.3-.2-4.8-1.6-6.3-1.3-1.5-3.3-1.5-1.3 0-2.8 1.1-1.5 1.1-2.8 3.1-1.2 1.9-2.1 4.5zM134.298 395.2V382q2-.5 4-1.6t3.5-2.4q.5.2.8.5.3.2.5.8.2.5.2 1.4.1.9.1 2.5v12h12.9q0 2.2-.9 4.4-7.3.3-12 1.3v25q0 5.1 1.5 7.4 1.5 2.2 4.2 2.2 2.1 0 3.6-.6 1.6-.6 3-1.8 1.3 1.5 1.5 3.3-1.7 1.9-4.9 3.2-3.2 1.3-6.4 1.3-6 0-8.8-3-2.8-3-2.8-9.9v-27.1q-1.5-.5-3.1-.8-1.6-.3-4.1-.5 0-1.3.2-2.2.2-1 .7-2.2zM209.854 427.3q0 5.2 1.4 7 1.5 1.7 4.5 1.7.3.9.4 1.9.1 1 .1 2.4-2.2-.2-5-.3h-5.9q-3.1 0-6.4.1-3.2.1-5.5.2 0-2.9.5-4.3 3.6 0 5.2-1.8 1.7-1.9 1.7-6.9v-15.2q0-3.5-.7-5.8-.7-2.4-2-3.8-1.2-1.4-2.9-2-1.7-.6-3.7-.6t-4 .9q-2 .9-3.6 2.9t-2.7 5.2q-1 3.1-1 7.7v10.7q0 5 1.5 6.9 1.5 1.8 5.4 1.8.3.9.4 1.9.1 1 .1 2.4-2.1-.1-5.5-.2-3.3-.1-6.4-.1h-6.4q-3.3.1-5.5.3 0-2.9.5-4.3 3.9 0 5.4-1.8 1.5-1.9 1.5-6.9v-44.8q0-1.8-.2-3.1t-1-2.2q-.8-.9-2.3-1.3-1.5-.5-4-.5 0-1.1.2-2 .2-.9.7-1.7 1.1 0 3-.3t3.9-.7q2-.5 3.8-1.1 1.8-.7 2.7-1.3.9.3 1.5 1.2.7.9.7 2.8v25.4q0 1.2-.1 2.7-.1 1.5-.6 3.2.3-.5.6-1.1.3-.7.9-1.5.8-1.2 2.2-2.4 1.4-1.3 3.2-2.3 1.9-1.1 4.1-1.8 2.3-.7 5-.7 2.8 0 5.4.9 2.6.8 4.6 2.7 2 1.9 3.1 5 1.2 3.1 1.2 7.7zM240.124 417.7q-3.3.1-6.4.3.1 2.2.5 4.3.7 3.6 2.3 6.5 1.7 2.9 4.5 4.7 2.8 1.8 7.2 1.8 3.3 0 6.5-1.4 3.2-1.5 5.7-4.4.8.5 1.5 1.4.7.9.9 1.7-3.5 4.5-7.9 6.4-4.4 1.9-9.9 1.9-5.3 0-9.3-1.9-4-1.9-6.7-5.1-2.6-3.2-3.9-7.5-1.3-4.4-1.3-9.3 0-4.8 1.4-9.1 1.5-4.3 4.1-7.6 2.7-3.3 6.5-5.2 3.9-1.9 8.7-1.9 4.9 0 8.3 1.7 3.4 1.6 5.6 4.4 2.2 2.8 3.3 6.6 1.2 3.7 1.5 8-.4 2-1.5 3.4h-5.1q-3.4 0-7.7.1-4.2 0-8.8.2zm-5.7-10.9q-.6 2.5-.8 6.1h19.2q0-6.6-2.4-10.7t-6.8-4.1q-1.8 0-3.6.8-1.8.7-3.3 2.7-1.4 1.9-2.3 5.2zM298.207 382.5q0-1.8-.2-3.1t-1-2.2q-.8-.9-2.3-1.3-1.5-.5-4-.5 0-1.1.2-2 .2-.9.7-1.7 1.1 0 3-.3t3.9-.7q2-.5 3.8-1.1 1.8-.7 2.7-1.3.9.3 1.5 1.2.7.9.7 2.8v55q0 5 1.3 6.9 1.4 1.8 4.6 1.8.3 1.1.4 2.4.1 1.2.1 1.9-2.6-.2-5.5-.3h-11.8q-3 .1-5.5.3 0-1 .1-2.1.1-1.2.4-2.2 4 0 5.4-1.8 1.5-1.9 1.5-6.9zM347.885 417.3q-2.6.3-5.4.9-2.8.5-5.1 1.6t-3.9 3.1q-1.5 1.9-1.5 5.2 0 3.7 1.8 5.4 1.8 1.7 4.1 1.7 1.6 0 3.3-.8 1.8-.8 3.3-2.5 1.5-1.7 2.4-4.3 1-2.7 1-6.5zm9 7.8q0 4.8 1 6.4 1.1 1.6 4.7 1.6 0 1.1-.2 2.5-.1 1.3-.5 2.2-2.6.4-5.6 1.3-2.9.8-5 1.8-1-.4-1.8-1.5-.7-1.1-.7-3.4 0-1.5.1-2.5t.1-1.7q-.4 1.3-1.2 2.6-.7 1.3-2.5 2.9-1.7 1.5-4.2 2.5-2.4.9-5.8.9-6.5 0-9.8-2.8-3.2-2.8-3.2-7.8 0-4.9 2.8-7.9 2.9-3.1 6.9-4.9 4.1-1.9 8.4-2.7 4.4-.9 7.5-1.4 0-3.1-.1-5.1-.1-2-.3-3.3-.2-1.4-.7-2.3-.4-.9-1-1.7-2.4-3-6.4-3-2.3 0-3.9 1.2t-2.7 3q-1 1.7-1.5 3.7-.4 2-.5 3.7-1.1 0-2.8-.1-1.6-.2-2.4-.6.2-2.5.1-5.5-.1-3.1-.6-5.4 4-2 8.4-3.2 4.4-1.3 9.1-1.3 3.4 0 5.8 1.1 2.4 1 4.3 2.8 1.3 1.3 2.1 2.8.8 1.5 1.2 3.6.5 2 .7 4.6.2 2.6.2 6.2zM372.227 393.9q1.5.1 3.7.2 2.2 0 4.7.1h19.5q2.4-.1 4.5-.1 2.1-.1 3.6-.2.7.8 1 2 .3 1.2.3 2.3-1.7 2.5-4 5.7t-4.8 6.7q-2.5 3.5-5.2 7.2t-5.2 7.2q-2.5 3.4-4.8 6.5-1.6 2.2-3 4h12.7q2.7 0 4.4-.4 1.8-.4 2.9-1.5 1.1-1.2 1.6-3.4.6-2.2.9-5.8 1.2 0 2.5.1t2.8.5v3q.1 1.7.2 3.6l.2 3.6q.2 1.8.4 3.1-.4.8-1.2 1.4-.8.5-2 .5-1.9 0-3.7-.1-1.8 0-3.9-.1H379.127q-4.2.1-6.9.2-.7-.7-1.2-1.7-.4-1.1-.4-2.3 1.7-2.4 4.1-5.7 2.4-3.4 5-7.1 2.7-3.7 5.4-7.6 2.8-3.9 5.2-7.4 2.5-3.5 4.4-6.4 1.4-2 2.3-3.4h-9.2q-2.7 0-4.5.4-1.8.4-3.1 1.6-1.2 1.2-2 3.3-.8 2-1.5 5.3-1.2 0-2.7-.1-1.4-.2-2.5-.7.3-3.3.5-7t.2-7.5zM454.123 410.2q1.3-3.2 1.5-5.3.3-2.1-.3-3.4-.6-1.4-2.1-2.1-1.4-.7-3.6-1.1-.7-2-.7-4.3 2.3.2 4.7.2h10.4q2.5 0 4.8-.2 0 1-.1 2.1 0 1.1-.5 2.2-1.4.3-2.4.9-1 .6-1.9 1.8-.8 1.1-1.7 3-.9 1.9-2.1 4.7l-14.7 35q-2.9 6.8-5.1 11-2.2 4.2-4.2 6.4-1.9 2.3-3.9 3-1.9.8-4.2.8-3 0-4.8-.8-1.7-.7-2.7-1.5-.4-1.5-.3-3.8.1-2.2.4-3.5 3.4.6 6.4.6 2.9 0 5.5-1.4 2.6-1.3 4.6-4.5.7-1 1.7-3.2 1.1-2.1 2.4-5.1.3-.5.5-1-1.5-3.3-3.1-6.9-1.9-4.4-3.8-8.6-1.9-4.2-3.7-8-1.7-3.8-3-6.6-1.8-3.7-3.1-6-1.2-2.3-2.3-3.6-1.1-1.3-2.1-1.8-1-.6-2.3-.9-.6-1.8-.6-4.3l5.8.2h11.9l3.6-.1q1.8-.1 3.3-.1 0 2.6-.7 4.3-2.7.5-4.2 1.2t-2 2q-.5 1.2 0 3.1.5 1.9 1.9 4.7 1 2.2 2.3 5.1 1.3 2.8 2.6 5.9 1.4 3 2.6 6 .8 1.9 1.4 3.6.5-1.1 1-2.3zM519.623 393.3q2.9 0 5 .5 1.5.4 3.3.9v-12.2q0-1.8-.2-3.1t-1-2.2q-.8-.9-2.3-1.3-1.5-.5-4-.5 0-1.1.2-2 .2-.9.7-1.7 1.1 0 3-.3t3.9-.7q2-.5 3.8-1.1 1.8-.7 2.7-1.3.9.3 1.5 1.2.7.9.7 2.8v55q.1 3.1 1.3 4.6 1.2 1.4 5.4 1.6 0 1.1-.1 2.2-.1 1-.5 2.1-1.1 0-2.8.3-1.6.2-3.3.6-1.6.4-3.1 1t-2.4 1.2q-.9-.3-1.7-1.3-.8-1-.8-3.6 0-1.8.1-3.6.1-1.3.4-3.2-.4 1-.9 1.8-.9 1.7-1.4 2.5-.7 1.1-2 2.4-1.2 1.3-3 2.4-1.8 1.1-4 1.8-2.2.8-4.7.8-8.8 0-13.8-5.3-4.9-5.3-4.9-16.9 0-5.2 1.8-9.8 1.8-4.7 5-8.1 3.3-3.5 7.9-5.5 4.6-2 10.2-2zm7.2 31.1q.9-3 1.1-7.3v-15.6q-1.4-1.2-3-2.2-2.3-1.4-5.8-1.4-2.1 0-4.6.8-2.5.8-4.7 3t-3.7 6q-1.5 3.7-1.5 9.7 0 4.8 1.1 8.1 1.2 3.3 2.8 5.3 1.7 2 3.6 2.9 2 .9 3.7.9 2.2 0 4.3-1 2.2-1 3.9-3.3 1.8-2.3 2.8-5.9zM561.073 415q0 10.2 3.6 15.7 3.6 5.4 9.7 5.4 6 0 8.9-4.9 2.9-5 2.9-12.9 0-4.6-1.1-8.3-1.1-3.8-3-6.4-1.8-2.7-4.3-4.1-2.4-1.4-5.2-1.4-5.8 0-8.7 4.7-2.8 4.7-2.8 12.2zm-10.1 2.1q0-5.1 1.6-9.4 1.7-4.4 4.7-7.6 3-3.2 7.1-5 4.2-1.8 9.2-1.8 5.3 0 9.5 1.7t7.1 4.9q2.9 3.1 4.4 7.5 1.6 4.4 1.6 9.7 0 5.1-1.7 9.5-1.6 4.4-4.6 7.6-2.9 3.1-7.1 4.9-4.1 1.8-9.2 1.8t-9.3-1.7q-4.2-1.7-7.2-4.8-2.9-3.1-4.5-7.5t-1.6-9.8zM623.798 393.3q3.5 0 6.3.9h16.4q.4 1.3.5 3 .2 1.6.2 3.2-1.2-.3-2.8-.6-1.6-.3-3.3-.5-1.6-.3-3.2-.5h-.4l.4.4q2.2 2.4 3.2 5.2 1 2.8 1 4.9 0 3.5-1.2 6.6-1.1 3-3.4 5.3t-5.7 3.6q-3.4 1.3-7.8 1.3-3.6 0-6.9-1-.4-.2-.8-.3-1.1 1.1-1.7 2.1-.8 1.5-.8 2.6 0 1.4.4 2.2.5.8 2 1.3 1.6.4 4.4.6 2.9.1 7.7.1 5 0 8.4.6 3.5.6 5.6 1.9 2.2 1.3 3.1 3.5 1 2.1 1 5.1 0 3.4-1.9 6.9-1.8 3.6-5.1 6.5-3.3 3-7.9 4.8-4.5 1.9-9.9 1.9-9.3 0-13.4-3.5-4-3.4-4-10 0-3.8 2-6.6 1.8-2.5 5.3-4.2-1-.4-1.8-.8-1.6-1.1-2.3-2.7-.6-1.6-.6-3.9 0-3.3 1.9-6.4 1.4-2.3 3.4-4.2l-.8-.6q-2.5-2-4-5-1.5-3.1-1.5-7.1 0-3.4 1.1-6.4 1.2-3.1 3.4-5.3 2.3-2.3 5.6-3.6 3.4-1.3 7.9-1.3zm-2.2 48.4q-3.2 0-5.5-.2-1.7 1.5-2.4 3.1-.9 2-.9 4.7 0 5.1 2.5 7.7 2.5 2.6 8.7 2.6 3.3 0 5.9-.9 2.6-.9 4.4-2.4 1.9-1.5 2.8-3.5 1-2 1-4.1 0-1.9-.7-3.3-.6-1.3-2.4-2.1-1.8-.8-5.1-1.2-3.2-.4-8.3-.4zm1.2-43.9q-2 0-3.5.9-1.4.9-2.4 2.4t-1.5 3.5q-.4 1.9-.4 4 0 6.3 2.7 9.6t7.5 3.3q3.3 0 5.4-2.7 2.1-2.7 2.1-8 0-2.7-.7-5-.6-2.4-1.9-4.1-1.3-1.8-3.1-2.8-1.8-1.1-4.2-1.1zM663.37 429.8q2.6 0 4 1.8 1.5 1.7 1.5 3.4 0 3-1.8 4.4-1.8 1.4-4.1 1.4-2.7 0-4.2-1.5t-1.5-3.8q0-2.3 1.7-4 1.7-1.7 4.4-1.7z"/></g></svg>