<svg xmlns="http://www.w3.org/2000/svg" viewBox="0 0 1000 1000"><path fill="#fff" d="M0 0h1000v1000H0z"/><g font-weight="400" font-size="128" font-family="Vollkorn" text-anchor="middle" fill="#111"><path d="M262.997 59.264h-6.528q-4.993 0-7.937 1.152-2.816 1.152-4.48 3.2-1.664 2.048-2.432 4.736-.767 2.688-1.407 5.888-1.408 0-3.072-.256-1.663-.256-2.815-.896 1.024-4.48 1.536-9.6.513-5.12.513-9.6 5.376.256 14.08.384h37.12q4.352-.128 7.936-.128 3.71-.128 6.4-.256 0 8.704.767 19.2-1.408.64-3.072.896-1.536.256-3.072.256-.256-6.912-3.84-10.88-3.456-4.096-11.52-4.096h-6.144v65.28q0 3.2.383 5.376.384 2.048 1.408 3.328 1.153 1.152 3.073 1.792 2.048.512 5.12.64.64 1.792.64 5.504-4.096-.256-8.448-.384H260.18q-4.48.128-8.063.384 0-3.712.64-5.504 3.072-.128 4.992-.64 2.047-.64 3.2-1.792 1.15-1.28 1.535-3.328.512-2.176.512-5.376zM364.613 124.544q0 6.656 1.792 8.96 1.92 2.176 5.76 2.176.384 1.152.512 2.432t.128 3.072q-2.816-.256-6.4-.384h-7.552q-3.968 0-8.192.128-4.095.128-7.04.256 0-3.712.64-5.504 4.61 0 6.657-2.304 2.176-2.432 2.176-8.832v-19.456q0-4.48-.896-7.424-.896-3.072-2.56-4.864-1.536-1.792-3.712-2.56t-4.736-.768q-2.56 0-5.12 1.152t-4.61 3.712q-2.047 2.56-3.455 6.656-1.28 3.968-1.28 9.856v13.696q0 6.4 1.92 8.832 1.92 2.304 6.912 2.304.384 1.152.512 2.432.127 1.28.127 3.072-2.688-.128-7.04-.256-4.224-.128-8.192-.128h-8.192q-4.224.128-7.04.384 0-3.712.64-5.504 4.992 0 6.912-2.304 1.92-2.432 1.92-8.832V67.2q0-2.304-.256-3.968-.257-1.664-1.28-2.816-1.025-1.152-2.945-1.664-1.92-.64-5.12-.64 0-1.408.256-2.56.257-1.152.897-2.176 1.408 0 3.84-.384t4.992-.896q2.56-.64 4.863-1.408 2.304-.896 3.456-1.664 1.15.384 1.92 1.536.895 1.152.895 3.584v32.512q0 1.536-.128 3.456t-.768 4.096q.383-.64.767-1.408.384-.896 1.152-1.92 1.023-1.536 2.815-3.072 1.792-1.664 4.096-2.944 2.433-1.408 5.25-2.304 2.943-.896 6.4-.896 3.583 0 6.91 1.152 3.33 1.024 5.89 3.456 2.56 2.432 3.967 6.4 1.536 3.968 1.536 9.856zM403.36 112.256q-4.225.128-8.193.384.128 2.816.64 5.504.896 4.608 2.944 8.32 2.177 3.712 5.76 6.016 3.585 2.304 9.217 2.304 4.224 0 8.32-1.792 4.096-1.92 7.296-5.632 1.024.64 1.92 1.792.896 1.152 1.152 2.176-4.48 5.76-10.112 8.192-5.632 2.432-12.672 2.432-6.783 0-11.903-2.432t-8.576-6.528q-3.327-4.096-4.99-9.6-1.665-5.632-1.665-11.904 0-6.144 1.792-11.648 1.92-5.504 5.248-9.728 3.456-4.224 8.32-6.656 4.992-2.432 11.136-2.432 6.273 0 10.625 2.176 4.352 2.048 7.168 5.632 2.816 3.584 4.224 8.448 1.536 4.736 1.92 10.24-.512 2.56-1.92 4.352h-6.528q-4.353 0-9.857.128-5.376 0-11.264.256zm-7.297-13.952q-.768 3.2-1.024 7.808h24.575q0-8.448-3.072-13.696-3.072-5.248-8.704-5.248-2.305 0-4.61 1.024-2.303.896-4.223 3.456-1.792 2.432-2.944 6.656zM501.13 166.656q3.07-.128 4.99-.768 1.92-.512 3.073-1.792 1.152-1.152 1.536-3.328.51-2.048.51-5.248v-17.28q0-3.2.513-6.4.384-2.432 1.024-5.888l-1.024 2.56q-1.152 2.688-2.304 4.224-1.28 1.664-3.2 3.2-1.92 1.408-4.225 2.56-2.176 1.152-4.736 1.792-2.433.64-4.993.64-4.608 0-8.96-1.664-4.224-1.792-7.552-5.248-3.2-3.456-5.12-8.576-1.92-5.12-1.92-12.032 0-6.528 2.176-12.416 2.305-5.888 6.4-10.24 4.097-4.48 9.857-7.04 5.76-2.688 12.8-2.688 8.832 0 14.976 2.304 6.272 2.304 10.368 6.272-1.28 1.92-1.92 5.12-.64 3.072-.64 8.832v51.968q0 6.4 1.793 8.576 1.92 2.304 7.04 2.56.384 1.152.512 2.432t.128 3.072q-1.152-.128-3.072-.256-1.79 0-3.967-.128H508.04q-4.223.128-7.55.384 0-3.712.64-5.504zm8.703-45.184q1.152-3.712 1.408-8.96v-21.12q-1.407-1.536-4.48-2.944-3.07-1.536-6.27-1.536-8.45 0-13.825 6.4-5.248 6.4-5.248 18.432 0 6.016 1.408 10.112t3.584 6.656q2.303 2.432 5.12 3.584 2.815 1.024 5.503 1.024 2.176 0 4.608-1.024 2.56-1.152 4.61-3.712 2.175-2.688 3.583-6.912zM581.113 98.56q0-2.304-.384-3.968-.257-1.664-1.28-2.688-1.025-1.152-2.945-1.664-1.792-.64-4.992-.768 0-1.408.128-2.432.13-1.152.77-2.304 4.99-.256 9.727-1.28 4.736-1.024 7.68-2.432 1.152.384 1.92 1.664.896 1.152.896 3.968v36.736q0 2.304.256 3.968.255 1.664 1.15 2.816.897 1.024 2.56 1.664 1.665.512 4.61.64 0 1.408-.13 2.816-.127 1.28-.64 2.688-1.407 0-3.583.384-2.176.256-4.48.768-2.176.512-4.224 1.28-1.92.768-3.072 1.536-1.15-.384-2.175-1.664-1.024-1.28-1.024-4.608 0-2.56.257-5.12v-1.152q-1.28 2.816-3.84 5.376-6.528 6.528-15.488 6.528-4.48 0-8.065-1.152-3.456-1.152-5.888-3.712-2.432-2.688-3.712-7.04-1.152-4.352-1.152-10.88V99.2q0-2.304-.256-3.968-.128-1.664-1.024-2.688-.896-1.152-2.56-1.664-1.664-.64-4.608-.768 0-1.408.128-2.432.128-1.152.768-2.304 1.92-.128 4.097-.512 2.304-.512 4.48-1.024 2.176-.64 4.096-1.28 2.048-.768 3.584-1.536 1.152.384 1.92 1.664.896 1.152.896 3.968v29.056q0 9.728 2.56 13.824 2.56 3.968 8.96 3.968 2.56 0 5.12-1.28t4.48-3.968q2.048-2.688 3.2-6.784 1.28-4.224 1.28-9.856zM617.017 59.136q0-3.456 2.304-5.632 2.305-2.176 5.25-2.176 3.455 0 5.503 2.176 2.176 2.176 2.176 5.632 0 2.944-2.305 5.248-2.176 2.176-5.376 2.176-3.33 0-5.505-2.176-2.048-2.176-2.048-5.248zm14.336 65.408q0 6.4 1.664 8.832 1.792 2.304 5.888 2.304.384 1.408.512 3.072.128 1.536.128 2.432-3.328-.256-7.04-.384H617.4q-3.84.128-7.04.384 0-1.28.13-2.688.127-1.536.51-2.816 5.12 0 6.913-2.304 1.92-2.432 1.92-8.832V99.2q0-2.304-.256-3.968-.256-1.664-1.28-2.816t-2.944-1.664q-1.92-.64-5.12-.64 0-1.408.256-2.56.255-1.152.895-2.176 1.408 0 3.84-.384t4.992-.896q2.56-.64 4.864-1.408 2.305-.896 3.457-1.664 1.152.384 1.92 1.536.896 1.152.896 3.584zM697.11 130.816q-3.455 5.504-8.575 8.32-5.12 2.816-12.416 2.816-4.865 0-9.73-1.92-4.735-1.92-8.575-5.632-3.712-3.84-6.016-9.472-2.305-5.632-2.305-13.184 0-5.76 1.664-11.264 1.79-5.504 5.12-9.856 3.455-4.352 8.32-6.912 4.99-2.688 11.52-2.688 12.03 0 19.327 5.76-.64 3.712-.768 7.296-.13 3.584-.13 7.296-1.023.64-2.815.896-1.664.128-3.072.128-.768-7.424-4.352-11.392-3.583-3.968-9.215-3.968-6.4 0-10.112 5.888-3.584 5.888-3.584 16.896 0 4.864 1.15 9.344 1.28 4.48 3.585 7.936 2.304 3.456 5.632 5.504 3.456 2.048 7.936 2.048 8.576 0 14.208-7.424 1.025.512 1.92 1.536.897.896 1.28 2.048zM713.205 67.2q0-2.304-.256-3.968-.257-1.664-1.28-2.816-1.025-1.152-2.945-1.664-1.92-.64-5.12-.64 0-1.408.256-2.56.257-1.152.897-2.176 1.408 0 3.84-.384t4.992-.896q2.56-.64 4.863-1.408 2.304-.896 3.456-1.664 1.15.384 1.92 1.536.895 1.152.895 3.584v53.248l8.576-7.936q4.353-3.968 6.273-6.4 1.92-2.432 1.92-3.84 0-2.048-3.712-2.048-.767-2.432-.767-5.248 4.096.256 7.424.256H755.7q3.2 0 6.657-.256 0 1.28-.256 2.816-.127 1.408-.64 2.56-3.71.128-7.295 1.792-3.584 1.664-8.32 6.016l-11.136 10.112q1.023 1.28 2.175 2.56 2.304 2.432 4.736 5.376 2.433 2.944 5.25 6.4 2.815 3.456 6.143 7.68 2.176 2.688 3.712 4.352 1.536 1.536 2.944 2.304 1.407.768 2.943 1.024t3.712.384q0 3.712-.64 5.504-4.608 0-8.448.256-3.712.256-7.936.896-1.663-2.688-4.863-6.912-3.072-4.224-6.912-8.96-3.712-4.736-7.68-9.216-2.688-3.2-5.12-5.76v13.44q0 6.4 1.664 8.832 1.79 2.304 5.887 2.304.384 1.408.512 3.072.127 1.536.127 2.432-3.328-.256-7.04-.384h-15.104q-3.84.128-7.04.384 0-1.28.128-2.688.13-1.536.513-2.816 5.12 0 6.912-2.304 1.92-2.432 1.92-8.832zM250.024 282.752q-8.832 0-14.976-2.432-6.144-2.56-9.984-6.272 1.28-1.664 2.048-5.12.768-3.584.768-11.136V208q0-2.304-.256-3.968-.256-1.664-1.28-2.816t-2.944-1.664q-1.92-.64-5.12-.64 0-1.408.256-2.56.256-1.152.896-2.176 1.408 0 3.84-.384t4.992-.896q2.56-.64 4.864-1.408 2.304-.896 3.456-1.664 1.152.384 1.92 1.536.896 1.152.896 3.584v33.408q0 2.304-.384 4.48-.128.512-.256 1.28 1.024-1.92 1.664-2.816.896-1.408 2.432-3.072 1.664-1.664 3.968-3.072 2.304-1.408 5.12-2.304 2.816-1.024 6.016-1.024 11.264 0 17.536 6.784 6.4 6.784 6.4 21.632 0 6.784-2.304 12.672-2.304 5.888-6.528 10.368-4.096 4.352-9.984 6.912-5.888 2.56-13.056 2.56zM239.4 272.384q1.792 1.536 3.712 2.688 3.072 1.792 7.552 1.792 2.688 0 5.888-1.024 3.2-1.024 6.016-3.84t4.736-7.552q1.92-4.864 1.92-12.544 0-6.144-1.536-10.368-1.408-4.224-3.584-6.784-2.048-2.56-4.608-3.712-2.56-1.152-4.608-1.152-2.816 0-5.632 1.28-2.688 1.28-4.992 4.224-2.176 2.944-3.584 7.68-1.28 4.608-1.28 11.264zM313.752 243.456q-.896 2.816-1.024 5.76v13.568q0 4.224.64 6.784.64 2.56 2.048 4.096t3.456 2.176q2.176.512 5.248.64.64 1.792.64 5.504-2.944-.256-7.296-.384H299.16q-2.304.128-4.224.128-1.92.128-3.2.256 0-3.712.64-5.504 5.12-.256 6.912-2.432 1.92-2.304 1.92-8.704V240q0-2.304-.384-3.968-.256-1.664-1.28-2.688-1.024-1.152-2.944-1.664-1.792-.64-4.992-.768 0-1.408.256-2.56.256-1.152.896-2.176 1.92-.128 4.224-.512 2.432-.512 4.736-1.024 2.432-.64 4.48-1.28 2.176-.768 3.712-1.536 1.152.384 1.92 1.664.896 1.152.896 3.968 0 4.48-.768 7.936l-1.152 5.248q.768-1.92 1.152-3.456.768-2.304 1.792-3.84 2.816-4.48 6.656-7.424t8.832-2.944q2.56 0 4.608.768 2.176.768 4.224 2.304-.512 3.2-.768 7.552-.128 4.224-.128 7.552-1.152.384-3.2.768-1.92.384-4.096.384-.256-6.144-2.048-8.064-1.664-1.92-4.224-1.92-1.664 0-3.584 1.408-1.92 1.408-3.584 3.968-1.536 2.432-2.688 5.76zM358.798 249.6q0 13.056 4.608 20.096 4.608 6.912 12.416 6.912 7.68 0 11.392-6.272 3.712-6.4 3.712-16.512 0-5.888-1.408-10.624-1.408-4.864-3.84-8.192-2.304-3.456-5.504-5.248-3.072-1.792-6.656-1.792-7.424 0-11.136 6.016-3.584 6.016-3.584 15.616zm-12.928 2.688q0-6.528 2.048-12.032 2.176-5.632 6.016-9.728t9.088-6.4q5.376-2.304 11.776-2.304 6.784 0 12.16 2.176t9.088 6.272q3.712 3.968 5.632 9.6 2.048 5.632 2.048 12.416 0 6.528-2.176 12.16-2.048 5.632-5.888 9.728-3.712 3.968-9.088 6.272-5.248 2.304-11.776 2.304t-11.904-2.176q-5.376-2.176-9.216-6.144-3.712-3.968-5.76-9.6-2.048-5.632-2.048-12.544zM461.802 222.976q2.048 4.608 4.352 10.112 2.432 5.504 4.864 11.52 2.56 5.888 5.12 12.032 2.048 4.992 3.968 9.856l6.912-21.76q1.536-4.608 1.792-7.68t-.512-4.864q-.768-1.92-2.432-2.816-1.664-.896-3.968-1.152-1.152-2.688-1.152-5.632 2.432.256 5.504.384h5.888q6.784 0 11.264-.384 0 3.2-1.024 5.632-1.408.384-2.56 1.28-1.024.768-2.048 2.56-1.024 1.664-2.176 4.608-1.152 2.944-2.688 7.68l-12.928 38.4q-1.792 0-3.328-.256-1.408-.256-2.56-.896-2.176-5.376-4.608-11.136-2.432-5.888-4.992-11.776t-5.12-11.648q-1.664-3.84-3.2-7.424l-16.768 43.136q-2.176 0-3.456-.256-1.152-.256-2.176-.896-4.096-11.648-8.448-22.912t-9.216-22.912q-1.408-3.584-2.944-5.12-1.408-1.536-4.224-2.432-.512-1.28-.64-2.816-.128-1.536-.128-2.688 2.56.128 5.376.256h14.592q3.328-.128 6.656-.384 0 1.28-.128 2.944t-.512 2.688q-5.376.64-6.144 2.432-.768 1.664.64 5.248 3.072 7.552 6.272 16.384 2.816 7.424 5.248 14.08l16.512-43.904q1.28 0 2.688.128 1.408.128 2.432.384zM568.866 265.344q0 6.656 1.792 8.96 1.92 2.176 5.76 2.176.384 1.152.512 2.432t.128 3.072q-2.816-.256-6.4-.384h-7.552q-3.968 0-8.192.128-4.096.128-7.04.256 0-3.712.64-5.504 4.608 0 6.656-2.304 2.176-2.432 2.176-8.832v-19.456q0-4.48-.896-7.424-.896-3.072-2.56-4.864-1.536-1.792-3.712-2.56t-4.736-.768q-2.56 0-5.12 1.152t-4.608 3.712q-2.048 2.56-3.456 6.656-1.28 3.968-1.28 9.856v13.696q0 6.4 1.92 8.832 1.92 2.304 6.912 2.304.384 1.152.512 2.432t.128 3.072q-2.688-.128-7.04-.256-4.224-.128-8.192-.128h-8.192q-4.224.128-7.04.384 0-3.712.64-5.504 4.992 0 6.912-2.304 1.92-2.432 1.92-8.832V240q0-2.304-.384-3.968-.256-1.664-1.28-2.688-1.024-1.152-2.944-1.664-1.792-.64-4.992-.768 0-1.408.256-2.56.256-1.152.896-2.176 1.92-.128 4.224-.512 2.432-.512 4.736-1.024 2.432-.64 4.48-1.28 2.176-.768 3.712-1.536 1.152.384 1.92 1.664.896 1.152.896 3.968 0 1.536-.128 3.456t-.768 4.096q.384-.64.768-1.408.384-.896 1.152-1.92 1.024-1.536 2.816-3.072 1.792-1.664 4.096-2.944 2.432-1.408 5.248-2.304 2.944-.896 6.4-.896 3.584 0 6.912 1.152 3.328 1.024 5.888 3.456t3.968 6.4q1.536 3.968 1.536 9.856zM633.368 224.256h13.056q0 1.28-.256 2.944-.256 1.536-1.024 2.816-6.784 0-11.776 1.536v31.232q0 4.224.64 6.784.64 2.56 2.048 4.096t3.456 2.176q2.176.512 5.248.64.64 1.792.64 5.504-2.944-.256-7.296-.384H619.8q-2.304.128-4.224.128-1.92.128-3.2.256 0-3.712.64-5.504 5.12-.256 6.912-2.432 1.92-2.304 1.92-8.704v-34.176q-2.816-.64-5.632-.896-2.688-.256-4.608-.256 0-3.456 1.792-5.76h8.448v-5.12q0-7.168 2.304-12.544 2.304-5.504 6.016-9.088 3.84-3.712 8.576-5.504 4.864-1.792 9.856-1.792t7.424 1.024q2.56.896 4.736 2.176-.256 4.096-.384 7.808-.128 3.712-.128 7.168-1.664.512-3.584.768-1.92.256-3.712.256 0-5.248-2.304-8.704-2.304-3.456-7.68-3.456-5.248 0-7.424 4.736-2.176 4.608-2.176 13.184zM668.798 249.6q0 13.056 4.608 20.096 4.608 6.912 12.416 6.912 7.68 0 11.392-6.272 3.712-6.4 3.712-16.512 0-5.888-1.408-10.624-1.408-4.864-3.84-8.192-2.304-3.456-5.504-5.248-3.072-1.792-6.656-1.792-7.424 0-11.136 6.016-3.584 6.016-3.584 15.616zm-12.928 2.688q0-6.528 2.048-12.032 2.176-5.632 6.016-9.728t9.088-6.4q5.376-2.304 11.776-2.304 6.784 0 12.16 2.176t9.088 6.272q3.712 3.968 5.632 9.6 2.048 5.632 2.048 12.416 0 6.528-2.176 12.16-2.048 5.632-5.888 9.728-3.712 3.968-9.088 6.272-5.248 2.304-11.776 2.304t-11.904-2.176q-5.376-2.176-9.216-6.144-3.712-3.968-5.76-9.6-2.048-5.632-2.048-12.544zM754.906 268.544q-1.792-2.688-3.84-5.632-1.664-2.688-3.584-5.248l-5.248 7.808q-4.096 5.888-3.328 8.448.768 2.56 4.48 2.56.384 1.024.512 2.56.256 1.408.256 2.816-3.584-.256-7.552-.256h-9.984q-2.56 0-6.528.256 0-1.408.128-2.816.128-1.536.64-2.56 1.664-.128 3.2-.64 1.664-.512 3.328-1.792t3.456-3.456q1.92-2.176 4.352-5.504l8.832-12.416q-2.432-3.328-4.736-6.656-2.688-3.84-4.864-6.784-2.688-3.584-4.48-5.76-1.792-2.304-3.072-3.456-1.28-1.152-2.432-1.536-1.024-.512-2.56-.64-.896-1.92-.896-5.12 2.816.128 6.272.256H741.978q3.84 0 7.168-.256 0 1.28-.256 2.688-.128 1.408-.384 2.432-4.48.256-5.248 2.176-.768 1.792 3.328 7.296l2.816 3.84q1.408 1.92 2.944 4.096l5.12-7.936q3.328-5.12 3.072-7.168-.256-2.048-4.48-2.304-.512-1.152-.64-2.432t-.128-2.688q2.432.128 4.992.256h12.672q2.432-.128 4.48-.256 0 1.408-.256 2.816-.256 1.28-.512 2.304-1.408.128-2.688.512-1.152.256-2.432 1.28-1.152.896-2.688 2.56-1.408 1.664-3.328 4.48l-9.472 13.44q2.688 3.584 5.504 7.424 3.456 4.736 6.016 8.448 2.048 3.072 3.584 5.12 1.536 1.92 2.688 3.2 1.28 1.152 2.304 1.664 1.152.512 2.432.512.512 1.28.512 2.56.128 1.152.128 2.816-3.968-.256-7.04-.256h-13.568q-3.84 0-7.552.256v-2.944q.128-1.28.512-2.432 4.48-.128 5.376-1.792.896-1.664-2.048-6.144zM201.833 380.8q0-2.304-.256-3.968-.256-1.664-1.28-2.816t-2.944-1.664q-1.92-.64-5.12-.64 0-1.408.256-2.56.255-1.152.895-2.176 1.408 0 3.84-.384t4.992-.896q2.56-.64 4.864-1.408 2.305-.896 3.457-1.664 1.152.384 1.92 1.536.896 1.152.896 3.584v51.712q0 6.528-2.048 12.032-1.92 5.504-4.992 9.856-3.072 4.48-6.912 7.68-3.71 3.328-7.295 5.248-1.024-.512-1.792-1.408-.768-.896-1.024-2.176 3.84-4.352 6.27-8.064 2.433-3.712 3.84-7.296 1.41-3.584 1.92-7.552.513-3.84.513-8.704zm-2.816-40.064q0-3.456 2.304-5.632 2.305-2.176 5.25-2.176 3.455 0 5.503 2.176 2.176 2.176 2.176 5.632 0 2.944-2.305 5.248-2.176 2.176-5.376 2.176-3.33 0-5.505-2.176-2.048-2.176-2.048-5.248zM271.363 380.16q0-2.304-.384-3.968-.257-1.664-1.28-2.688-1.025-1.152-2.945-1.664-1.792-.64-4.992-.768 0-1.408.128-2.432.13-1.152.77-2.304 4.99-.256 9.727-1.28 4.736-1.024 7.68-2.432 1.152.384 1.92 1.664.896 1.152.896 3.968v36.736q0 2.304.256 3.968.255 1.664 1.15 2.816.897 1.024 2.56 1.664 1.665.512 4.61.64 0 1.408-.13 2.816-.127 1.28-.64 2.688-1.407 0-3.583.384-2.176.256-4.48.768-2.176.512-4.224 1.28-1.92.768-3.072 1.536-1.15-.384-2.175-1.664-1.024-1.28-1.024-4.608 0-2.56.257-5.12v-1.152q-1.28 2.816-3.84 5.376-6.528 6.528-15.488 6.528-4.48 0-8.065-1.152-3.456-1.152-5.888-3.712-2.432-2.688-3.712-7.04-1.152-4.352-1.152-10.88V380.8q0-2.304-.256-3.968-.128-1.664-1.024-2.688-.896-1.152-2.56-1.664-1.664-.64-4.608-.768 0-1.408.128-2.432.128-1.152.768-2.304 1.92-.128 4.097-.512 2.304-.512 4.48-1.024 2.176-.64 4.096-1.28 2.048-.768 3.584-1.536 1.152.384 1.92 1.664.896 1.152.896 3.968v29.056q0 9.728 2.56 13.824 2.56 3.968 8.96 3.968 2.56 0 5.12-1.28t4.48-3.968q2.048-2.688 3.2-6.784 1.28-4.224 1.28-9.856zM301.635 366.976q1.664-.128 3.968-.512 2.304-.384 4.608-1.024 2.433-.64 4.48-1.28 2.177-.768 3.457-1.536 1.152.384 1.92 1.536.896 1.152.896 3.584 0 2.176-.256 4.864 0 1.28-.256 3.2.513-1.152.77-1.792.895-1.664 1.28-2.176 1.023-1.536 2.687-3.072 1.792-1.664 4.096-2.944 2.304-1.408 5.248-2.304 2.945-.896 6.273-.896 5.376 0 9.856 2.432 4.48 2.432 6.527 8.32.384 1.28.512 3.2.383-1.152.767-1.92.64-1.152 1.408-2.176 1.024-1.536 2.688-3.072 1.792-1.664 4.096-2.944 2.43-1.408 5.247-2.304 2.944-.896 6.272-.896 3.583 0 6.783 1.152 3.328 1.024 5.76 3.456 2.56 2.432 3.968 6.4 1.537 3.968 1.537 9.856v22.016q0 3.328.384 5.504.513 2.048 1.41 3.328 1.023 1.152 2.43 1.664 1.537.512 3.457.64.384 1.152.512 2.432.127 1.28.127 3.072-2.944-.256-6.528-.384h-15.361q-4.097.128-7.297.384 0-3.712.64-5.504 5.12-.256 6.912-2.432 1.92-2.304 1.92-8.704v-19.456q0-4.48-.896-7.424-.897-3.072-2.433-4.864-1.536-1.792-3.712-2.56t-4.736-.768q-2.433 0-4.993 1.152-2.56 1.152-4.608 3.712-2.05 2.56-3.33 6.656-1.28 3.968-1.28 9.856v13.696q0 3.328.513 5.504.512 2.048 1.536 3.328 1.023 1.152 2.687 1.664 1.792.512 4.224.64.385 1.152.513 2.432t.128 3.072q-3.327-.256-7.423-.384H345.41q-3.967.128-7.423.384 0-3.712.64-5.504 5.12-.256 6.912-2.432 1.92-2.304 1.92-8.704v-20.096q0-4.48-.897-7.424-.896-3.072-2.432-4.864-1.535-1.792-3.71-2.56-2.177-.768-4.737-.768-2.432 0-4.992 1.152t-4.607 3.712q-2.048 2.56-3.328 6.656-1.28 3.968-1.28 9.856v14.336q0 6.4 1.92 8.704 1.92 2.176 7.04 2.432.384 1.152.512 2.432t.128 3.072q-3.328-.256-7.68-.384h-15.36q-4.352.128-7.424.384 0-3.712.64-5.504 5.12-.256 6.913-2.432 1.92-2.304 1.92-8.704V380.8q0-2.304-.384-3.968-.257-1.664-1.28-2.688-1.025-1.152-2.945-1.664-1.792-.64-4.992-.768 0-1.408.256-2.56.255-1.152.895-2.176zM445.35 423.552q-3.713 0-6.4-.64-1.92-.512-4.225-1.024v14.208q.128 3.712.768 5.888.768 2.304 2.176 3.584 1.407 1.408 3.455 1.92 2.048.64 4.992.768.64 1.792.64 5.504-2.944-.256-7.296-.384h-18.303q-2.304.128-4.224.128-1.92.128-3.2.256 0-3.712.64-5.504 5.12-.256 6.912-2.56 1.92-2.176 1.92-8.576V380.8q0-2.304-.384-3.968-.255-1.664-1.28-2.688-1.023-1.152-2.943-1.664-1.792-.64-4.992-.768 0-1.408.256-2.56.257-1.152.897-2.176 1.92-.128 4.224-.512 2.433-.512 4.737-1.024 2.432-.64 4.48-1.28 2.176-.768 3.712-1.536 1.15.384 1.92 1.664.895 1.152.895 3.968 0 2.944-.896 5.632-.513 1.664-1.28 3.968l1.28-2.56q1.28-2.176 1.92-3.2.895-1.408 2.43-3.072 1.665-1.664 3.97-3.072 2.303-1.408 5.12-2.304 2.815-1.024 6.015-1.024 11.264 0 17.536 6.656 6.4 6.656 6.4 20.608 0 7.168-2.303 13.312-2.304 6.144-6.528 10.752-4.097 4.48-9.985 7.04-5.888 2.56-13.056 2.56zm-9.345-39.68q-1.152 3.968-1.28 9.344v19.968q1.792 1.536 3.712 2.688 3.072 1.792 7.552 1.792 2.687 0 5.887-1.024 3.2-1.024 6.016-3.84t4.736-7.552q1.92-4.864 1.92-12.544 0-10.112-4.097-16-4.096-6.016-10.24-6.016-2.816 0-5.632 1.28-2.687 1.28-4.99 4.224-2.177 2.944-3.585 7.68zM527.815 367.104q-.256 3.072-.256 6.528 0 3.456.51 6.784-2.56 1.536-6.4 1.536-.255-2.688-1.407-5.12-1.024-2.56-2.944-4.48-1.793-2.048-4.353-3.2-2.56-1.28-5.632-1.28-3.968 0-6.4 1.92-2.304 1.92-2.304 5.12 0 1.664.385 2.944.512 1.28 2.048 2.688 1.664 1.28 4.608 2.816 3.073 1.408 8.193 3.456 5.12 1.92 8.576 3.84 3.583 1.92 5.63 4.096 2.177 2.176 3.073 4.736.896 2.56.896 6.016 0 4.096-1.793 7.424-1.792 3.328-4.992 5.76-3.072 2.304-7.424 3.584-4.223 1.28-9.215 1.28-3.84 0-6.784-.384-2.943-.256-5.503-.768-2.432-.64-4.608-1.536-2.05-.896-4.225-2.048.128-1.536.256-3.584.13-2.048.13-4.224 0-2.304-.13-4.352 0-2.176-.127-3.712 1.024-.768 2.816-1.024 1.92-.384 3.84-.384 1.023 8.064 4.99 12.032 3.97 3.968 10.625 3.968 5.248 0 8.064-2.304 2.943-2.304 2.943-5.888 0-1.664-.64-2.944-.512-1.408-2.048-2.56-1.536-1.28-4.224-2.56-2.687-1.408-6.91-3.2-5.25-2.048-8.833-3.84-3.584-1.92-5.888-4.096-2.177-2.176-3.2-4.864-1.025-2.816-1.025-6.656 0-4.096 2.048-7.04 2.176-3.072 5.376-4.992 3.2-2.048 6.91-2.944 3.713-1.024 6.913-1.024 5.76 0 10.112 1.152t8.32 3.328zM580.673 390.4q0 13.056 4.608 20.096 4.61 6.912 12.417 6.912 7.68 0 11.392-6.272 3.71-6.4 3.71-16.512 0-5.888-1.407-10.624-1.408-4.864-3.84-8.192-2.304-3.456-5.504-5.248-3.073-1.792-6.657-1.792-7.424 0-11.136 6.016-3.584 6.016-3.584 15.616zm-12.928 2.688q0-6.528 2.048-12.032 2.176-5.632 6.016-9.728t9.087-6.4q5.376-2.304 11.776-2.304 6.784 0 12.16 2.176t9.088 6.272q3.713 3.968 5.633 9.6 2.048 5.632 2.048 12.416 0 6.528-2.175 12.16-2.048 5.632-5.888 9.728-3.712 3.968-9.088 6.272-5.25 2.304-11.777 2.304-6.528 0-11.904-2.176-5.377-2.176-9.217-6.144-3.712-3.968-5.76-9.6-2.048-5.632-2.048-12.544zM671.005 363.392q2.56.256 5.76.384h12.414q3.33-.128 5.633-.384 0 3.2-1.152 5.504-1.535.384-2.815 1.152-1.152.768-2.304 2.432-1.15 1.536-2.43 4.096-1.153 2.432-2.69 6.272l-17.15 40.704q-1.537 0-3.2-.256-1.537-.256-2.69-.896-.767-1.792-2.43-5.504-1.537-3.712-3.585-8.32-2.048-4.608-4.352-9.6-2.304-4.992-4.352-9.344-2.047-4.48-3.71-7.808-1.537-3.456-2.177-4.864-1.28-2.56-2.176-4.096-.896-1.536-1.792-2.304-.768-.896-1.792-1.152-.896-.384-2.176-.512-.512-1.664-.64-2.688-.128-1.024-.128-2.816 5.375.384 13.44.384h8.32q4.35-.128 7.423-.384 0 1.408-.256 2.816-.256 1.28-.64 2.432-3.2.256-5.12.768-1.792.384-2.432 1.408-.64.896-.256 2.56.383 1.536 1.535 4.096.896 1.92 2.56 5.888 1.792 3.968 3.84 8.832 2.176 4.864 4.352 9.984 1.664 4.096 3.072 7.424 2.815-7.296 4.99-13.184 2.56-6.656 4.737-12.416 3.2-8.32 1.92-11.52-1.28-3.328-6.144-3.712-1.408-2.56-1.408-5.376zM723.86 393.856q-4.225.128-8.193.384.128 2.816.64 5.504.896 4.608 2.944 8.32 2.177 3.712 5.76 6.016 3.585 2.304 9.217 2.304 4.224 0 8.32-1.792 4.096-1.92 7.296-5.632 1.024.64 1.92 1.792.896 1.152 1.152 2.176-4.48 5.76-10.112 8.192-5.632 2.432-12.672 2.432-6.783 0-11.903-2.432t-8.576-6.528q-3.327-4.096-4.99-9.6-1.665-5.632-1.665-11.904 0-6.144 1.792-11.648 1.92-5.504 5.248-9.728 3.456-4.224 8.32-6.656 4.992-2.432 11.136-2.432 6.273 0 10.625 2.176 4.352 2.048 7.168 5.632 2.816 3.584 4.224 8.448 1.536 4.736 1.92 10.24-.512 2.56-1.92 4.352h-6.528q-4.353 0-9.857.128-5.376 0-11.264.256zm-7.297-13.952q-.768 3.2-1.024 7.808h24.575q0-8.448-3.072-13.696-3.072-5.248-8.704-5.248-2.305 0-4.61 1.024-2.303.896-4.223 3.456-1.792 2.432-2.944 6.656zM785.377 384.256q-.896 2.816-1.024 5.76v13.568q0 4.224.64 6.784.64 2.56 2.048 4.096 1.41 1.536 3.457 2.176 2.176.512 5.248.64.64 1.792.64 5.504-2.944-.256-7.296-.384h-18.304q-2.304.128-4.224.128-1.92.128-3.2.256 0-3.712.64-5.504 5.12-.256 6.913-2.432 1.92-2.304 1.92-8.704V380.8q0-2.304-.384-3.968-.257-1.664-1.28-2.688-1.025-1.152-2.945-1.664-1.792-.64-4.992-.768 0-1.408.256-2.56.255-1.152.895-2.176 1.92-.128 4.224-.512 2.43-.512 4.735-1.024 2.432-.64 4.48-1.28 2.176-.768 3.712-1.536 1.152.384 1.92 1.664.896 1.152.896 3.968 0 4.48-.768 7.936l-1.152 5.248q.768-1.92 1.152-3.456.768-2.304 1.792-3.84 2.816-4.48 6.656-7.424t8.832-2.944q2.56 0 4.608.768 2.176.768 4.224 2.304-.512 3.2-.768 7.552-.13 4.224-.13 7.552-1.15.384-3.2.768-1.92.384-4.095.384-.256-6.144-2.048-8.064-1.664-1.92-4.224-1.92-1.664 0-3.584 1.408-1.92 1.408-3.585 3.968-1.536 2.432-2.688 5.76zM159.9 505.856V488.96q2.56-.64 5.12-2.048t4.48-3.072q.64.256 1.025.64.384.256.64 1.024.256.64.256 1.792.13 1.152.13 3.2v15.36h16.51q0 2.816-1.15 5.632-9.345.384-15.36 1.664v32q0 6.528 1.92 9.472 1.92 2.816 5.375 2.816 2.688 0 4.608-.768 2.048-.768 3.84-2.304 1.664 1.92 1.92 4.224-2.176 2.432-6.272 4.096-4.095 1.664-8.19 1.664-7.68 0-11.265-3.84-3.584-3.84-3.584-12.672v-34.688q-1.92-.64-3.967-1.024-2.048-.384-5.248-.64 0-1.664.256-2.816.257-1.28.897-2.816zM256.613 546.944q0 6.656 1.792 8.96 1.92 2.176 5.76 2.176.384 1.152.512 2.432t.128 3.072q-2.816-.256-6.4-.384h-7.552q-3.968 0-8.192.128-4.095.128-7.04.256 0-3.712.64-5.504 4.61 0 6.657-2.304 2.176-2.432 2.176-8.832v-19.456q0-4.48-.896-7.424-.896-3.072-2.56-4.864-1.536-1.792-3.712-2.56t-4.736-.768q-2.56 0-5.12 1.152t-4.61 3.712q-2.047 2.56-3.455 6.656-1.28 3.968-1.28 9.856v13.696q0 6.4 1.92 8.832 1.92 2.304 6.912 2.304.384 1.152.512 2.432.127 1.28.127 3.072-2.688-.128-7.04-.256-4.224-.128-8.192-.128h-8.192q-4.224.128-7.04.384 0-3.712.64-5.504 4.992 0 6.912-2.304 1.92-2.432 1.92-8.832V489.6q0-2.304-.256-3.968-.257-1.664-1.28-2.816-1.025-1.152-2.945-1.664-1.92-.64-5.12-.64 0-1.408.256-2.56.257-1.152.897-2.176 1.408 0 3.84-.384t4.992-.896q2.56-.64 4.863-1.408 2.304-.896 3.456-1.664 1.15.384 1.92 1.536.895 1.152.895 3.584v32.512q0 1.536-.128 3.456t-.768 4.096q.383-.64.767-1.408.384-.896 1.152-1.92 1.023-1.536 2.815-3.072 1.792-1.664 4.096-2.944 2.433-1.408 5.25-2.304 2.943-.896 6.4-.896 3.583 0 6.91 1.152 3.33 1.024 5.89 3.456 2.56 2.432 3.967 6.4 1.536 3.968 1.536 9.856zM295.36 534.656q-4.225.128-8.193.384.128 2.816.64 5.504.896 4.608 2.944 8.32 2.177 3.712 5.76 6.016 3.585 2.304 9.217 2.304 4.224 0 8.32-1.792 4.096-1.92 7.296-5.632 1.024.64 1.92 1.792.896 1.152 1.152 2.176-4.48 5.76-10.112 8.192-5.632 2.432-12.672 2.432-6.783 0-11.903-2.432t-8.576-6.528q-3.327-4.096-4.99-9.6-1.665-5.632-1.665-11.904 0-6.144 1.792-11.648 1.92-5.504 5.248-9.728 3.456-4.224 8.32-6.656 4.992-2.432 11.136-2.432 6.273 0 10.625 2.176 4.352 2.048 7.168 5.632 2.816 3.584 4.224 8.448 1.536 4.736 1.92 10.24-.512 2.56-1.92 4.352h-6.528q-4.353 0-9.857.128-5.376 0-11.264.256zm-7.297-13.952q-.768 3.2-1.024 7.808h24.575q0-8.448-3.072-13.696-3.072-5.248-8.704-5.248-2.305 0-4.61 1.024-2.303.896-4.223 3.456-1.792 2.432-2.944 6.656zM369.705 489.6q0-2.304-.256-3.968-.257-1.664-1.28-2.816-1.025-1.152-2.945-1.664-1.92-.64-5.12-.64 0-1.408.256-2.56.257-1.152.897-2.176 1.408 0 3.84-.384t4.992-.896q2.56-.64 4.863-1.408 2.304-.896 3.456-1.664 1.15.384 1.92 1.536.895 1.152.895 3.584v70.4q0 6.4 1.664 8.832 1.79 2.304 5.887 2.304.384 1.408.512 3.072.127 1.536.127 2.432-3.328-.256-7.04-.384h-15.104q-3.84.128-7.04.384 0-1.28.128-2.688.13-1.536.513-2.816 5.12 0 6.912-2.304 1.92-2.432 1.92-8.832zM433.293 534.144q-3.328.384-6.912 1.152-3.583.64-6.527 2.048t-4.992 3.968q-1.92 2.432-1.92 6.656 0 4.736 2.305 6.912 2.304 2.176 5.248 2.176 2.048 0 4.224-1.024 2.304-1.024 4.224-3.2 1.92-2.176 3.073-5.504 1.28-3.456 1.28-8.32zm11.52 9.984q0 6.144 1.28 8.192 1.408 2.048 6.016 2.048 0 1.408-.257 3.2-.128 1.664-.64 2.816-3.328.512-7.168 1.664-3.712 1.024-6.4 2.304-1.28-.512-2.304-1.92-.895-1.408-.895-4.352 0-1.92.128-3.2.128-1.28.128-2.176-.51 1.664-1.535 3.328-.896 1.664-3.2 3.712-2.176 1.92-5.376 3.2-3.073 1.152-7.425 1.152-8.32 0-12.544-3.584-4.095-3.584-4.095-9.984 0-6.272 3.584-10.112 3.71-3.968 8.83-6.272 5.25-2.432 10.753-3.456 5.632-1.152 9.6-1.792 0-3.968-.128-6.528-.128-2.56-.384-4.224-.255-1.792-.895-2.944-.512-1.152-1.28-2.176-3.072-3.84-8.192-3.84-2.944 0-4.992 1.536-2.047 1.536-3.455 3.84-1.28 2.176-1.92 4.736-.512 2.56-.64 4.736-1.408 0-3.584-.128-2.047-.256-3.07-.768.255-3.2.127-7.04-.128-3.968-.768-6.912 5.12-2.56 10.75-4.096 5.633-1.664 11.65-1.664 4.35 0 7.423 1.408 3.072 1.28 5.504 3.584 1.664 1.664 2.688 3.584 1.024 1.92 1.536 4.608.64 2.56.897 5.888.256 3.328.256 7.936zM464.45 504.192q1.92.128 4.737.256 2.816 0 6.016.128H500.164q3.072-.128 5.76-.128 2.688-.128 4.608-.256.897 1.024 1.28 2.56.385 1.536.385 2.944-2.176 3.2-5.12 7.296t-6.144 8.576q-3.2 4.48-6.655 9.216-3.456 4.736-6.656 9.216-3.2 4.352-6.145 8.32-2.048 2.816-3.84 5.12h16.256q3.457 0 5.633-.512 2.304-.512 3.712-1.92 1.408-1.536 2.048-4.352.768-2.816 1.152-7.424 1.536 0 3.2.128 1.664.128 3.584.64v3.84q.127 2.176.255 4.608l.256 4.608q.257 2.304.513 3.968-.512 1.024-1.536 1.792-1.024.64-2.56.64-2.432 0-4.736-.128-2.303 0-4.99-.128h-27.137q-5.376.128-8.832.256-.895-.896-1.535-2.176-.512-1.408-.512-2.944 2.176-3.072 5.248-7.296 3.073-4.352 6.4-9.088 3.457-4.736 6.913-9.728 3.584-4.992 6.656-9.472 3.2-4.48 5.63-8.192 1.793-2.56 2.945-4.352H484.42q-3.457 0-5.76.512-2.305.512-3.97 2.048-1.535 1.536-2.56 4.224-1.023 2.56-1.92 6.784-1.535 0-3.455-.128-1.792-.256-3.2-.896.384-4.224.64-8.96.256-4.736.256-9.6zM569.277 525.056q1.664-4.096 1.92-6.784.384-2.688-.384-4.352-.768-1.792-2.688-2.688-1.792-.896-4.608-1.408-.896-2.56-.896-5.504 2.945.256 6.017.256h13.312q3.2 0 6.143-.256 0 1.28-.128 2.688 0 1.408-.64 2.816-1.792.384-3.072 1.152-1.28.768-2.432 2.304-1.023 1.408-2.175 3.84t-2.688 6.016l-18.816 44.8q-3.71 8.704-6.527 14.08-2.816 5.376-5.376 8.192-2.432 2.944-4.992 3.84-2.432 1.024-5.376 1.024-3.84 0-6.145-1.024-2.176-.896-3.456-1.92-.513-1.92-.385-4.864.128-2.816.512-4.48 4.352.768 8.192.768 3.71 0 7.04-1.792 3.327-1.664 5.887-5.76.896-1.28 2.176-4.096 1.408-2.688 3.072-6.528.384-.64.64-1.28-1.92-4.224-3.968-8.832-2.432-5.632-4.864-11.008-2.432-5.376-4.736-10.24-2.176-4.864-3.84-8.448-2.304-4.736-3.968-7.68-1.537-2.944-2.945-4.608-1.408-1.664-2.688-2.304-1.28-.768-2.944-1.152-.768-2.304-.768-5.504l7.424.256h15.23l4.61-.128q2.303-.128 4.223-.128 0 3.328-.896 5.504-3.456.64-5.376 1.536-1.92.896-2.56 2.56-.64 1.536 0 3.968t2.433 6.016q1.28 2.816 2.944 6.528 1.664 3.584 3.328 7.552 1.792 3.84 3.328 7.68 1.024 2.432 1.792 4.608.64-1.408 1.28-2.944zM653.117 503.424q3.712 0 6.4.64 1.92.512 4.224 1.152V489.6q0-2.304-.255-3.968-.256-1.664-1.28-2.816t-2.944-1.664q-1.92-.64-5.12-.64 0-1.408.257-2.56.256-1.152.896-2.176 1.408 0 3.84-.384t4.992-.896q2.56-.64 4.864-1.408 2.303-.896 3.455-1.664 1.152.384 1.92 1.536.896 1.152.896 3.584v70.4q.13 3.968 1.665 5.888 1.536 1.792 6.912 2.048 0 1.408-.128 2.816-.13 1.28-.64 2.688-1.41 0-3.585.384-2.048.256-4.224.768-2.047.512-3.967 1.28t-3.072 1.536q-1.15-.384-2.175-1.664-1.024-1.28-1.024-4.608 0-2.304.13-4.608.127-1.664.51-4.096-.51 1.28-1.15 2.304-1.153 2.176-1.793 3.2-.896 1.408-2.56 3.072-1.536 1.664-3.84 3.072-2.304 1.408-5.12 2.304-2.816 1.024-6.016 1.024-11.263 0-17.663-6.784-6.272-6.784-6.272-21.632 0-6.656 2.304-12.544 2.303-6.016 6.4-10.368 4.223-4.48 10.11-7.04 5.89-2.56 13.057-2.56zm9.216 39.808q1.152-3.84 1.408-9.344V513.92q-1.79-1.536-3.84-2.816-2.943-1.792-7.423-1.792-2.688 0-5.888 1.024-3.2 1.024-6.017 3.84-2.816 2.816-4.736 7.68-1.92 4.736-1.92 12.416 0 6.144 1.408 10.368 1.536 4.224 3.584 6.784 2.175 2.56 4.607 3.712 2.56 1.152 4.736 1.152 2.816 0 5.504-1.28 2.816-1.28 4.992-4.224 2.303-2.944 3.583-7.552zM706.173 531.2q0 13.056 4.608 20.096 4.61 6.912 12.417 6.912 7.68 0 11.392-6.272 3.71-6.4 3.71-16.512 0-5.888-1.407-10.624-1.408-4.864-3.84-8.192-2.304-3.456-5.504-5.248-3.073-1.792-6.657-1.792-7.424 0-11.136 6.016-3.584 6.016-3.584 15.616zm-12.928 2.688q0-6.528 2.048-12.032 2.176-5.632 6.016-9.728t9.087-6.4q5.376-2.304 11.776-2.304 6.784 0 12.16 2.176t9.088 6.272q3.713 3.968 5.633 9.6 2.048 5.632 2.048 12.416 0 6.528-2.175 12.16-2.048 5.632-5.888 9.728-3.712 3.968-9.088 6.272-5.25 2.304-11.777 2.304-6.528 0-11.904-2.176-5.377-2.176-9.217-6.144-3.712-3.968-5.76-9.6-2.048-5.632-2.048-12.544zM786.46 503.424q4.48 0 8.065 1.152h20.992q.512 1.664.64 3.84.256 2.048.256 4.096-1.536-.384-3.584-.768-2.05-.384-4.225-.64-2.048-.384-4.096-.64h-.513l.512.512q2.815 3.072 4.095 6.656 1.28 3.584 1.28 6.272 0 4.48-1.536 8.448-1.41 3.84-4.353 6.784-2.944 2.944-7.296 4.608-4.35 1.664-9.983 1.664-4.608 0-8.832-1.28-.512-.256-1.024-.384-1.407 1.408-2.175 2.688-1.024 1.92-1.024 3.328 0 1.792.513 2.816.64 1.024 2.56 1.664 2.048.512 5.632.768 3.712.128 9.856.128 6.4 0 10.753.768 4.48.768 7.168 2.432 2.817 1.664 3.97 4.48 1.28 2.688 1.28 6.528 0 4.352-2.433 8.832-2.304 4.608-6.528 8.32-4.225 3.84-10.113 6.144-5.76 2.432-12.672 2.432-11.904 0-17.152-4.48-5.12-4.352-5.12-12.8 0-4.864 2.56-8.448 2.304-3.2 6.784-5.376-1.28-.512-2.304-1.024-2.048-1.408-2.944-3.456-.77-2.048-.77-4.992 0-4.224 2.433-8.192 1.792-2.944 4.352-5.376l-1.024-.768q-3.2-2.56-5.12-6.4-1.92-3.968-1.92-9.088 0-4.352 1.41-8.192 1.535-3.968 4.35-6.784 2.945-2.944 7.17-4.608 4.35-1.664 10.11-1.664zm-2.815 61.952q-4.096 0-7.04-.256-2.176 1.92-3.072 3.968-1.152 2.56-1.152 6.016 0 6.528 3.2 9.856 3.2 3.328 11.137 3.328 4.224 0 7.552-1.152 3.327-1.152 5.63-3.072 2.433-1.92 3.585-4.48 1.28-2.56 1.28-5.248 0-2.432-.896-4.224-.77-1.664-3.073-2.688-2.304-1.024-6.528-1.536-4.097-.512-10.625-.512zm1.536-56.192q-2.56 0-4.48 1.152-1.79 1.152-3.07 3.072-1.28 1.92-1.92 4.48-.513 2.432-.513 5.12 0 8.064 3.456 12.288t9.6 4.224q4.224 0 6.912-3.456 2.688-3.456 2.688-10.24 0-3.456-.896-6.4-.768-3.072-2.432-5.248-1.664-2.304-3.968-3.584-2.304-1.408-5.376-1.408zM837.113 550.144q3.328 0 5.12 2.304 1.92 2.176 1.92 4.352 0 3.84-2.304 5.632-2.305 1.792-5.25 1.792-3.455 0-5.375-1.92t-1.92-4.864q0-2.944 2.176-5.12 2.177-2.176 5.633-2.176z"/></g></svg>