<svg xmlns="http://www.w3.org/2000/svg" viewBox="0 0 1000 1000"><path fill="#fff" d="M0 0h1000v1000H0z"/><g font-weight="400" font-size="128" font-family="Yanone Kaffeesatz" text-anchor="middle" fill="#111"><path d="M359.595 58.752q0 2.176-2.176 2.176h-15.745v77.824q0 1.152-.512 1.536-.512.384-3.072.512h-6.783V60.928H313.9v-7.68q0-2.048 2.175-2.048h43.52zM366.385 51.456q0-2.432.768-3.328.768-1.024 2.688-1.152 1.92-.256 6.785-.256v33.792q5.76-4.992 14.464-4.992 7.807 0 10.495 4.096 2.816 3.968 2.816 12.8v46.336q0 1.152-.64 1.536-.51.384-3.07.512h-6.785V95.232q0-4.864-1.536-7.424-1.537-2.688-6.017-2.688-5.632 0-9.728 3.456v50.176q0 1.152-.512 1.536-.384.384-2.944.512h-6.785zM437.12 132.096q7.68 0 14.593-4.096.896 2.816.896 7.04 0 2.944-5.25 4.992-5.12 2.048-12.415 2.048-6.528 0-11.008-2.432-4.352-2.432-6.912-8.96-2.56-6.528-2.56-18.56 0-14.976 3.072-23.04 3.2-8.064 8.064-10.752 4.865-2.816 11.52-2.816 16.257 0 16.257 20.48 0 10.24-1.408 16.64-10.37 2.048-26.88 2.048.383 9.984 3.07 13.696 2.817 3.712 8.96 3.712zm-1.15-47.488q-9.73 0-10.88 21.76 11.647.256 17.663-1.408.64-2.944.64-7.68-.128-7.168-1.664-9.856-1.537-2.816-5.76-2.816zM520.9 161.664q0 2.944-1.15 3.584-1.025.768-4.993.896-2.304 0-4.224-.384v-29.312q-3.84 5.632-12.288 5.632-17.28 0-17.28-29.184 0-19.84 7.168-28.544 7.168-8.832 19.072-8.832 8.064 0 13.696 3.968zm-10.367-75.392q-2.304-1.792-5.888-1.792-5.888 0-8.96 6.528-3.072 6.528-3.072 21.632 0 11.904 2.56 16.128 2.688 4.224 6.912 4.224 2.688 0 4.992-1.664t3.456-4.864zM570.657 137.472q-8.576 4.608-19.2 4.608-7.552 0-11.648-2.304-4.097-2.304-5.76-6.784-1.665-4.608-1.665-12.16V78.848q0-1.152.384-1.536.51-.384 3.07-.384 2.69-.128 7.17-.128v44.928q0 6.528 1.663 8.96 1.792 2.432 7.04 2.432 5.12 0 8.576-2.432v-51.84q0-1.152.51-1.536.513-.384 2.945-.384 2.56-.128 6.912-.128zM582.007 60.16q0-3.712 1.408-5.76 1.536-2.176 4.48-2.176 2.944 0 4.096 1.664 1.153 1.664 1.153 5.504 0 8.448-5.888 8.448-5.248 0-5.248-7.68zm10.752 78.592q0 1.152-.513 1.536-.384.384-2.944.512h-6.912V81.536q0-2.432.77-3.328.895-1.024 2.815-1.152 1.92-.256 6.784-.256zM636.507 81.28q0 2.944-1.152 5.76-4.352-2.432-9.088-2.432-5.632 0-9.216 5.248-3.583 5.12-3.583 20.48 0 8.832 1.152 13.824 1.28 4.864 3.71 6.784 2.56 1.92 6.657 1.92 6.016 0 10.24-2.944 1.024 3.712 1.024 5.632 0 2.688-4.095 4.608-4.096 1.92-10.24 1.92-6.656 0-10.752-2.432-4.096-2.56-6.272-9.472-2.047-6.912-2.047-19.968 0-20.608 6.4-27.648 6.4-7.04 16.512-7.04 4.608 0 7.68 1.664t3.072 4.096zM644.763 51.456q0-2.432.768-3.328.897-1.024 2.817-1.152 1.92-.256 6.784-.256v34.688q3.33-2.688 7.68-4.224 4.353-1.664 8.45-1.664 10.88 0 10.88 11.008 0 11.648-10.753 19.84 4.992 2.176 8.448 7.68 3.584 5.504 4.352 13.952.128 1.28.128 4.224 0 3.072-.384 6.528-.127 1.152-.767 1.536-.512.384-3.328.512h-7.552q.512-3.968.512-8.064 0-3.84-.64-7.68-1.024-6.528-3.712-9.856-2.688-3.456-6.016-3.456-1.024 0-1.536.128-1.407.256-3.327 1.152-1.92.896-2.432 1.28v24.448q0 1.152-.383 1.536-.384.384-2.944.512h-7.04zm10.368 55.424q15.617-6.272 15.617-16.896 0-5.12-4.736-5.12-5.887 0-10.88 6.144zM308.394 192.256q0-2.432.768-3.328.768-1.024 2.688-1.152 1.92-.256 6.784-.256v33.28q5.76-4.48 13.696-4.48t11.776 5.76q3.968 5.76 3.968 19.456 0 24.704-7.168 33.024-7.04 8.32-17.664 8.32-10.24 0-14.848-3.84zM318.634 272q2.048 1.792 6.016 1.792 4.736 0 8.32-6.272 3.584-6.4 3.584-23.808 0-9.984-2.176-13.952-2.176-4.096-6.784-4.096-5.376 0-8.96 3.584zM357.26 222.08q8.192-5.76 17.408-5.76 8.96 0 8.96 5.376 0 3.2-1.152 6.016-2.688-1.536-6.144-1.536-4.864 0-8.576 2.944v50.432q0 1.152-.512 1.536-.512.384-3.072.512h-6.912zM386.206 249.6q0-33.28 21.376-33.28 7.04 0 11.264 2.944 4.224 2.816 6.4 10.112 2.176 7.168 2.176 19.968 0 17.408-5.376 25.472-5.248 8.064-15.744 8.064-7.168 0-11.392-2.432-4.224-2.432-6.528-9.6-2.176-7.296-2.176-21.248zm11.264.256q0 10.24 1.024 15.488 1.024 5.248 2.944 7.04 1.92 1.792 5.12 1.792 4.608 0 7.04-5.376 2.56-5.376 2.56-19.456 0-9.984-1.024-15.232-.896-5.248-2.816-7.168t-5.12-1.92q-4.736 0-7.296 5.376-2.432 5.376-2.432 19.456zM485.838 219.904q.256-1.28.768-1.664.64-.384 3.072-.512t6.4-.128q-2.048 10.112-7.808 37.248-5.632 27.136-6.016 27.136-.384.128-2.176.256-1.792.128-4.48.128-1.536 0-3.2-1.664-1.536-1.792-2.176-4.992l-1.664-8.704q-2.944-13.568-4.736-31.872-2.304 20.224-4.736 32l-2.944 14.848q-.896.128-3.456.256-2.432.128-5.12.128-3.072 0-4.352-6.272-2.304-9.856-6.656-29.824-4.352-19.968-5.76-26.496-.256-1.152.384-1.536.64-.384 3.456-.512t7.296-.128l3.968 20.864q1.536 8.96 2.816 18.688 1.28 9.728 1.664 12.544h.768q2.432-17.408 3.584-23.68l4.096-24.448q.256-1.408.768-1.792.64-.384 2.56-.384h6.784l4.992 26.88q1.408 6.144 2.56 13.696 1.152 7.424 1.408 9.728h.64q1.28-15.232 4.096-31.232zM503.76 220.672q3.968-1.792 9.728-3.072t10.624-1.28q9.984 0 13.952 3.968 3.968 3.84 3.968 13.184v46.08q0 1.152-.512 1.536-.512.384-3.2.512h-6.912v-45.056q0-6.4-1.536-8.832-1.536-2.432-6.144-2.432-5.504 0-9.6 2.304v51.968q0 1.152-.512 1.536-.512.384-3.072.512h-6.784zM568.914 226.304q0-3.456.128-5.504.128-2.176.512-2.688.512-.512 1.92-.512h6.272v-7.808q0-22.784 21.376-22.784 5.76 0 8.832 1.408 3.072 1.408 3.072 3.84 0 2.944-1.152 5.632-3.712-1.536-9.088-1.536-6.016 0-9.472 2.56-3.328 2.56-3.328 10.112v8.576h11.52q0 3.456-.128 5.632-.128 2.048-.512 2.56t-1.536.512h-9.344v53.248q0 2.048-2.176 2.048h-8.064v-55.296z"/><path d="M600.956 249.6q0-33.28 21.376-33.28 7.04 0 11.264 2.944 4.224 2.816 6.4 10.112 2.176 7.168 2.176 19.968 0 17.408-5.376 25.472-5.248 8.064-15.744 8.064-7.168 0-11.392-2.432-4.224-2.432-6.528-9.6-2.176-7.296-2.176-21.248zm11.264.256q0 10.24 1.024 15.488 1.024 5.248 2.944 7.04 1.92 1.792 5.12 1.792 4.608 0 7.04-5.376 2.56-5.376 2.56-19.456 0-9.984-1.024-15.232-.896-5.248-2.816-7.168t-5.12-1.92q-4.736 0-7.296 5.376-2.432 5.376-2.432 19.456zM695.298 279.168q.512.896.512 1.408 0 .768-2.048.896t-9.856.128l-4.736-8.448q-2.816-5.248-8.448-17.28-4.48 10.24-8.064 17.408l-3.712 6.272q-.512 1.024-1.408 1.536-.896.384-3.584.512h-6.784l18.176-33.28-15.616-29.056q-.384-.896 0-1.152.384-.384 3.2-.384 2.816-.128 7.68-.128l4.736 8.832q3.584 6.656 6.912 14.592 5.12-11.008 7.04-14.72l3.968-6.912q.384-1.024 1.024-1.28.64-.384 3.2-.384 2.688-.128 7.168-.128l-16.384 29.952zM292.15 341.76q0-7.936 5.76-7.936 2.944 0 4.096 1.664 1.152 1.664 1.152 5.504 0 8.448-5.888 8.448-5.12 0-5.12-7.68zm10.752 85.248q0 9.6-3.584 14.976-3.584 5.504-13.056 5.504-13.696 0-13.696-6.784 0-3.328 1.536-5.248 4.864 2.56 10.88 2.56 4.736 0 6.144-2.816 1.536-2.688 1.536-9.728v-62.336q0-2.432.768-3.328.896-1.024 2.688-1.152 1.92-.256 6.784-.256zM353.282 419.072q-8.576 4.608-19.2 4.608-7.552 0-11.648-2.304t-5.76-6.784q-1.664-4.608-1.664-12.16v-41.984q0-1.152.384-1.536.512-.384 3.072-.384 2.688-.128 7.168-.128v44.928q0 6.528 1.664 8.96 1.792 2.432 7.04 2.432 5.12 0 8.576-2.432v-51.84q0-1.152.512-1.536.512-.384 2.944-.384 2.56-.128 6.912-.128zM364.888 361.344q9.344-4.224 19.328-4.224 7.936 0 11.648 3.968 7.04-3.968 15.616-3.968 6.144 0 9.216 2.048 3.2 2.048 4.224 5.888 1.024 3.712 1.024 10.112v45.184q0 1.152-.512 1.536-.512.384-3.072.512h-6.784v-47.36q0-4.992-1.28-6.912-1.152-1.92-4.992-1.92-4.736 0-8.704 2.432v51.712q0 1.152-.512 1.536-.384.384-2.944.512h-6.784v-47.616q0-3.584-.384-5.248-.384-1.792-1.792-2.56-1.28-.896-4.224-.896-4.608 0-8.704 2.304v51.968q0 1.152-.512 1.536-.512.384-3.072.512h-6.784zM438.888 362.24q8.064-5.12 18.688-5.12 10.24 0 15.488 5.888 5.376 5.888 5.376 20.736 0 39.936-19.072 39.936-6.528 0-10.112-3.584v26.752q-2.432.768-5.376.768-2.816 0-3.968-1.024-1.024-.896-1.024-3.456zm10.368 48q2.56 4.224 6.912 4.224 10.88 0 10.88-29.568 0-7.552-1.152-11.648-1.024-4.096-3.2-5.632-2.048-1.536-5.632-1.536-4.352 0-7.808 2.432zM493.392 385.792q-7.424-6.016-7.424-13.568 0-7.04 5.248-11.008 5.376-4.096 15.744-4.096 8.704 0 12.288 2.304 3.712 2.304 3.712 4.864 0 2.688-2.176 5.248-5.632-3.456-12.672-3.456-4.608 0-7.424 1.664-2.688 1.664-2.688 4.608 0 1.92 1.024 3.712 1.024 1.664 4.096 4.224l11.904 9.6q4.224 4.096 5.888 7.68 1.792 3.584 1.792 8.32 0 8.448-5.76 13.184-5.632 4.608-15.488 4.608-7.04 0-11.392-1.664-4.224-1.664-4.224-4.736t1.92-6.016q5.248 3.072 12.672 3.072 10.496 0 10.496-7.808 0-5.632-5.12-10.112zM549.956 390.4q0-33.28 21.376-33.28 7.04 0 11.264 2.944 4.224 2.816 6.4 10.112 2.176 7.168 2.176 19.968 0 17.408-5.376 25.472-5.248 8.064-15.744 8.064-7.168 0-11.392-2.432-4.224-2.432-6.528-9.6-2.176-7.296-2.176-21.248zm11.264.256q0 10.24 1.024 15.488 1.024 5.248 2.944 7.04 1.92 1.792 5.12 1.792 4.608 0 7.04-5.376 2.56-5.376 2.56-19.456 0-9.984-1.024-15.232-.896-5.248-2.816-7.168t-5.12-1.92q-4.736 0-7.296 5.376-2.432 5.376-2.432 19.456zM594.932 361.6q-.256-1.28-.256-1.408 0-.896.768-1.28.896-.384 3.584-.384 2.816-.128 6.784-.128l4.096 20.608q1.792 8.32 3.2 18.816 1.536 10.368 1.92 13.568h.256q.384-3.2 1.792-13.568 1.408-10.496 3.072-18.944l3.456-18.176q.256-1.28.768-1.664.512-.384 3.072-.512 2.688-.128 7.04-.128l-14.72 64.384q-1.92.384-7.296.384-2.944 0-4.48-6.272zM660.746 413.696q7.68 0 14.592-4.096.896 2.816.896 7.04 0 2.944-5.248 4.992-5.12 2.048-12.416 2.048-6.528 0-11.008-2.432-4.352-2.432-6.912-8.96-2.56-6.528-2.56-18.56 0-14.976 3.072-23.04 3.2-8.064 8.064-10.752 4.864-2.816 11.52-2.816 16.256 0 16.256 20.48 0 10.24-1.408 16.64-10.368 2.048-26.88 2.048.384 9.984 3.072 13.696 2.816 3.712 8.96 3.712zm-1.152-47.488q-9.728 0-10.88 21.76 11.648.256 17.664-1.408.64-2.944.64-7.68-.128-7.168-1.664-9.856-1.536-2.816-5.76-2.816zM686.26 362.88q8.192-5.76 17.408-5.76 8.96 0 8.96 5.376 0 3.2-1.152 6.016-2.688-1.536-6.144-1.536-4.864 0-8.576 2.944v50.432q0 1.152-.512 1.536-.512.384-3.072.512h-6.912zM251.682 508.032q0-3.456.128-5.504.128-2.176.512-2.688.512-.64 1.536-.64h6.528v-19.456q0-1.792.768-2.432.896-.768 2.688-.896 1.92-.256 6.784-.256v23.04h13.312q0 3.456-.128 5.632-.128 2.176-.64 2.688-.384.512-1.408.512h-11.136v37.376q0 5.248.768 7.808.896 2.432 3.968 2.432 3.2 0 7.424-1.92.768 2.56.768 5.12 0 5.632-11.008 5.632-5.248 0-7.936-2.176-2.56-2.304-3.456-6.272-.768-4.096-.768-10.624v-37.376zM292.51 473.856q0-2.432.768-3.328.768-1.024 2.688-1.152 1.92-.256 6.784-.256v33.792q5.76-4.992 14.464-4.992 7.808 0 10.496 4.096 2.816 3.968 2.816 12.8v46.336q0 1.152-.64 1.536-.512.384-3.072.512h-6.784v-45.568q0-4.864-1.536-7.424-1.536-2.688-6.016-2.688-5.632 0-9.728 3.456v50.176q0 1.152-.512 1.536-.384.384-2.944.512h-6.784zM363.246 554.496q7.68 0 14.592-4.096.896 2.816.896 7.04 0 2.944-5.248 4.992-5.12 2.048-12.416 2.048-6.528 0-11.008-2.432-4.352-2.432-6.912-8.96-2.56-6.528-2.56-18.56 0-14.976 3.072-23.04 3.2-8.064 8.064-10.752 4.864-2.816 11.52-2.816 16.256 0 16.256 20.48 0 10.24-1.408 16.64-10.368 2.048-26.88 2.048.384 9.984 3.072 13.696 2.816 3.712 8.96 3.712zm-1.152-47.488q-9.728 0-10.88 21.76 11.648.256 17.664-1.408.64-2.944.64-7.68-.128-7.168-1.664-9.856-1.536-2.816-5.76-2.816zM419.506 561.152q0 1.152-.512 1.536-.512.384-3.072.512h-6.784v-89.344q0-2.432.768-3.328.896-1.024 2.816-1.152 1.92-.256 6.784-.256zM466.076 520.32q0 28.16-.768 39.808-7.168 4.352-18.432 4.352-5.376 0-9.216-1.408-3.712-1.408-6.144-5.632-2.304-4.224-2.304-12.416 0-12.16 4.608-16.512 4.736-4.48 12.544-4.48 6.016 0 9.344 1.664v-10.112q0-4.352-1.92-6.016-1.92-1.664-6.016-1.664-9.856 0-17.024 2.944-1.408-2.688-1.408-6.016 0-2.56 1.408-3.456 1.92-1.28 7.424-2.304 5.504-1.152 12.16-1.152 8.32 0 12.032 3.584 3.712 3.584 3.712 12.032zm-10.368 12.672q-2.432-1.28-6.016-1.28-4.608 0-7.168 2.688-2.56 2.688-2.56 10.368 0 6.528 2.048 8.832 2.176 2.176 6.528 2.176 4.48 0 6.784-2.048.384-4.352.384-20.736zM509.918 499.2q.128.128.512 1.024.512.768.512 2.176 0 2.432-1.152 4.992L485.47 553.6h11.392q8.448 0 13.568-1.28.256 1.024.256 4.48 0 3.456-.896 4.992-.768 1.408-3.2 1.408h-31.488q-.128-.128-.512-.64-.384-.64-.768-1.792-.384-1.152-.384-2.688 0-2.304.896-3.84l24.96-46.336H486.11q-7.296 0-11.776.64-.384-2.176-.384-4.864 0-4.48 3.328-4.48zM516.822 502.016q-.256-1.024-.256-1.408 0-1.024 1.664-1.152 1.792-.256 8.576-.256l7.04 30.72q1.28 6.272 2.176 13.44 1.024 7.04 1.28 9.216.256-2.048 1.024-9.088.896-7.168 2.048-13.696l5.76-27.648q.256-1.664.768-2.176.64-.512 2.56-.64t7.808-.128l-15.744 67.456q-1.92 8.192-4.352 12.8-2.304 4.608-5.632 6.528-3.2 1.92-7.936 1.92-10.368 0-10.368-4.992 0-3.584 1.536-5.76 2.816 1.92 8.064 1.92 6.784 0 9.344-13.824zM612.518 473.856q0-2.432.768-3.328.896-1.024 2.816-1.152 1.92-.256 6.784-.256v91.52q-8.192 3.84-18.432 3.84-6.528 0-11.008-2.176-4.352-2.176-7.04-8.96-2.688-6.784-2.688-19.84 0-18.048 5.376-26.752 5.504-8.832 14.208-8.832 5.888 0 9.216 2.56zm0 34.688q-2.176-1.664-5.888-1.664-11.52 0-11.52 25.472 0 9.344 1.152 14.336 1.152 4.992 3.2 6.784 2.048 1.792 5.376 1.792 4.864 0 7.68-1.92zM631.956 531.2q0-33.28 21.376-33.28 7.04 0 11.264 2.944 4.224 2.816 6.4 10.112 2.176 7.168 2.176 19.968 0 17.408-5.376 25.472-5.248 8.064-15.744 8.064-7.168 0-11.392-2.432-4.224-2.432-6.528-9.6-2.176-7.296-2.176-21.248zm11.264.256q0 10.24 1.024 15.488 1.024 5.248 2.944 7.04 1.92 1.792 5.12 1.792 4.608 0 7.04-5.376 2.56-5.376 2.56-19.456 0-9.984-1.024-15.232-.896-5.248-2.816-7.168t-5.12-1.92q-4.736 0-7.296 5.376-2.432 5.376-2.432 19.456zM724.75 498.944q1.024 1.792 1.024 4.864 0 3.968-3.584 3.968-1.792 0-4.608-.64 4.864 4.608 4.864 13.952 0 22.4-20.736 22.4-3.328 0-5.76-.512-3.456 3.456-3.456 5.632 0 1.408 2.688 2.048 2.816.64 9.728 1.664l2.816.384q8.448 1.28 12.672 4.608 4.352 3.2 4.352 10.24 0 8.96-6.272 14.848-6.272 6.016-18.304 6.016-20.48 0-20.48-13.952 0-4.48 2.688-8.576 2.688-3.968 7.04-6.912-7.808-2.304-7.808-6.784 0-5.376 8.064-11.776-7.936-4.992-7.936-19.072 0-23.424 21.376-23.424 3.2 0 6.144 1.024zm-22.4 36.608q9.728 0 9.728-16.896 0-6.912-2.304-9.984-2.304-3.2-7.04-3.2-4.608 0-7.424 3.84-2.688 3.712-2.688 11.776 0 7.424 1.92 11.008 2.048 3.456 7.808 3.456zm11.904 33.408q0-2.944-1.28-4.608-1.28-1.536-4.352-2.304-3.072-.896-8.832-1.28l-2.432-.256q-3.072 2.176-5.12 5.248-1.92 3.2-1.92 6.272 0 3.456 2.304 5.12 2.304 1.792 8.448 1.792 6.4 0 9.728-3.072 3.456-3.072 3.456-6.912zM731.986 556.672q0-3.072 1.92-5.12 2.048-2.176 5.248-2.176 7.04 0 7.04 7.296 0 3.2-1.92 5.248t-5.12 2.048q-7.168 0-7.168-7.296z"/></g></svg>