<svg xmlns="http://www.w3.org/2000/svg" viewBox="0 0 800 500"><path fill="#fff" d="M0 0h800v500H0z"/><g font-weight="400" font-size="100" font-family="Yanone Kaffeesatz" text-anchor="middle" fill="#111"><path d="M290.31 45.9q0 1.7-1.7 1.7h-12.3v60.8q0 .9-.4 1.2-.4.3-2.4.4h-5.3V47.6h-13.6v-6q0-1.6 1.7-1.6h34zM295.613 40.2q0-1.9.6-2.6.6-.8 2.1-.9 1.5-.2 5.3-.2v26.4q4.5-3.9 11.3-3.9 6.1 0 8.2 3.2 2.2 3.1 2.2 10v36.2q0 .9-.5 1.2-.4.3-2.4.4h-5.3V74.4q0-3.8-1.2-5.8-1.2-2.1-4.7-2.1-4.4 0-7.6 2.7v39.2q0 .9-.4 1.2-.3.3-2.3.4h-5.3zM350.876 103.2q6 0 11.4-3.2.7 2.2.7 5.5 0 2.3-4.1 3.9-4 1.6-9.7 1.6-5.1 0-8.6-1.9-3.4-1.9-5.4-7-2-5.1-2-14.5 0-11.7 2.4-18 2.5-6.3 6.3-8.4 3.8-2.2 9-2.2 12.7 0 12.7 16 0 8-1.1 13-8.1 1.6-21 1.6.3 7.8 2.4 10.7 2.2 2.9 7 2.9zm-.9-37.1q-7.6 0-8.5 17 9.1.2 13.8-1.1.5-2.3.5-6-.1-5.6-1.3-7.7-1.2-2.2-4.5-2.2zM416.33 126.3q0 2.3-.9 2.8-.8.6-3.9.7-1.8 0-3.3-.3v-22.9q-3 4.4-9.6 4.4-13.5 0-13.5-22.8 0-15.5 5.6-22.3 5.6-6.9 14.9-6.9 6.3 0 10.7 3.1zm-8.1-58.9q-1.8-1.4-4.6-1.4-4.6 0-7 5.1-2.4 5.1-2.4 16.9 0 9.3 2 12.6 2.1 3.3 5.4 3.3 2.1 0 3.9-1.3 1.8-1.3 2.7-3.8zM455.2 107.4q-6.7 3.6-15 3.6-5.9 0-9.1-1.8-3.2-1.8-4.5-5.3-1.3-3.6-1.3-9.5V61.6q0-.9.3-1.2.4-.3 2.4-.3 2.1-.1 5.6-.1v35.1q0 5.1 1.3 7 1.4 1.9 5.5 1.9 4 0 6.7-1.9V61.6q0-.9.4-1.2.4-.3 2.3-.3 2-.1 5.4-.1zM464.068 47q0-2.9 1.1-4.5 1.2-1.7 3.5-1.7t3.2 1.3q.9 1.3.9 4.3 0 6.6-4.6 6.6-4.1 0-4.1-6zm8.4 61.4q0 .9-.4 1.2-.3.3-2.3.4h-5.4V63.7q0-1.9.6-2.6.7-.8 2.2-.9 1.5-.2 5.3-.2zM506.646 63.5q0 2.3-.9 4.5-3.4-1.9-7.1-1.9-4.4 0-7.2 4.1-2.8 4-2.8 16 0 6.9.9 10.8 1 3.8 2.9 5.3 2 1.5 5.2 1.5 4.7 0 8-2.3.8 2.9.8 4.4 0 2.1-3.2 3.6t-8 1.5q-5.2 0-8.4-1.9-3.2-2-4.9-7.4-1.6-5.4-1.6-15.6 0-16.1 5-21.6t12.9-5.5q3.6 0 6 1.3t2.4 3.2zM513.096 40.2q0-1.9.6-2.6.7-.8 2.2-.9 1.5-.2 5.3-.2v27.1q2.6-2.1 6-3.3 3.4-1.3 6.6-1.3 8.5 0 8.5 8.6 0 9.1-8.4 15.5 3.9 1.7 6.6 6 2.8 4.3 3.4 10.9.1 1 .1 3.3 0 2.4-.3 5.1-.1.9-.6 1.2-.4.3-2.6.4h-5.9q.4-3.1.4-6.3 0-3-.5-6-.8-5.1-2.9-7.7-2.1-2.7-4.7-2.7-.8 0-1.2.1-1.1.2-2.6.9t-1.9 1v19.1q0 .9-.3 1.2-.3.3-2.3.4h-5.5zm8.1 43.3q12.2-4.9 12.2-13.2 0-4-3.7-4-4.6 0-8.5 4.8zM250.308 150.2q0-1.9.6-2.6.6-.8 2.1-.9 1.5-.2 5.3-.2v26q4.5-3.5 10.7-3.5 6.2 0 9.2 4.5 3.1 4.5 3.1 15.2 0 19.3-5.6 25.8-5.5 6.5-13.8 6.5-8 0-11.6-3zm8 62.3q1.6 1.4 4.7 1.4 3.7 0 6.5-4.9 2.8-5 2.8-18.6 0-7.8-1.7-10.9-1.7-3.2-5.3-3.2-4.2 0-7 2.8zM288.484 173.5q6.4-4.5 13.6-4.5 7 0 7 4.2 0 2.5-.9 4.7-2.1-1.2-4.8-1.2-3.8 0-6.7 2.3v39.4q0 .9-.4 1.2-.4.3-2.4.4h-5.4zM311.098 195q0-26 16.7-26 5.5 0 8.8 2.3 3.3 2.2 5 7.9 1.7 5.6 1.7 15.6 0 13.6-4.2 19.9-4.1 6.3-12.3 6.3-5.6 0-8.9-1.9-3.3-1.9-5.1-7.5-1.7-5.7-1.7-16.6zm8.8.2q0 8 .8 12.1t2.3 5.5q1.5 1.4 4 1.4 3.6 0 5.5-4.2 2-4.2 2-15.2 0-7.8-.8-11.9-.7-4.1-2.2-5.6-1.5-1.5-4-1.5-3.7 0-5.7 4.2-1.9 4.2-1.9 15.2zM388.936 171.8q.2-1 .6-1.3.5-.3 2.4-.4 1.9-.1 5-.1-1.6 7.9-6.1 29.1-4.4 21.2-4.7 21.2-.3.1-1.7.2t-3.5.1q-1.2 0-2.5-1.3-1.2-1.4-1.7-3.9l-1.3-6.8q-2.3-10.6-3.7-24.9-1.8 15.8-3.7 25l-2.3 11.6q-.7.1-2.7.2-1.9.1-4 .1-2.4 0-3.4-4.9-1.8-7.7-5.2-23.3-3.4-15.6-4.5-20.7-.2-.9.3-1.2.5-.3 2.7-.4 2.2-.1 5.7-.1l3.1 16.3q1.2 7 2.2 14.6 1 7.6 1.3 9.8h.6q1.9-13.6 2.8-18.5l3.2-19.1q.2-1.1.6-1.4.5-.3 2-.3h5.3l3.9 21q1.1 4.8 2 10.7.9 5.8 1.1 7.6h.5q1-11.9 3.2-24.4zM402.938 172.4q3.1-1.4 7.6-2.4t8.3-1q7.8 0 10.9 3.1 3.1 3 3.1 10.3v36q0 .9-.4 1.2-.4.3-2.5.4h-5.4v-35.2q0-5-1.2-6.9-1.2-1.9-4.8-1.9-4.3 0-7.5 1.8v40.6q0 .9-.4 1.2-.4.3-2.4.4h-5.3zM453.84 176.8q0-2.7.1-4.3.1-1.7.4-2.1.4-.4 1.5-.4h4.9v-6.1q0-17.8 16.7-17.8 4.5 0 6.9 1.1 2.4 1.1 2.4 3 0 2.3-.9 4.4-2.9-1.2-7.1-1.2-4.7 0-7.4 2-2.6 2-2.6 7.9v6.7h9q0 2.7-.1 4.4-.1 1.6-.4 2-.3.4-1.2.4h-7.3v41.6q0 1.6-1.7 1.6h-6.3v-43.2z"/><path d="M478.872 195q0-26 16.7-26 5.5 0 8.8 2.3 3.3 2.2 5 7.9 1.7 5.6 1.7 15.6 0 13.6-4.2 19.9-4.1 6.3-12.3 6.3-5.6 0-8.9-1.9-3.3-1.9-5.1-7.5-1.7-5.7-1.7-16.6zm8.8.2q0 8 .8 12.1t2.3 5.5q1.5 1.4 4 1.4 3.6 0 5.5-4.2 2-4.2 2-15.2 0-7.8-.8-11.9-.7-4.1-2.2-5.6-1.5-1.5-4-1.5-3.7 0-5.7 4.2-1.9 4.2-1.9 15.2zM552.577 218.1q.4.7.4 1.1 0 .6-1.6.7-1.6.1-7.7.1l-3.7-6.6q-2.2-4.1-6.6-13.5-3.5 8-6.3 13.6l-2.9 4.9q-.4.8-1.1 1.2-.7.3-2.8.4h-5.3l14.2-26-12.2-22.7q-.3-.7 0-.9.3-.3 2.5-.3 2.2-.1 6-.1l3.7 6.9q2.8 5.2 5.4 11.4 4-8.6 5.5-11.5l3.1-5.4q.3-.8.8-1 .5-.3 2.5-.3 2.1-.1 5.6-.1l-12.8 23.4zM237.617 267q0-6.2 4.5-6.2 2.3 0 3.2 1.3.9 1.3.9 4.3 0 6.6-4.6 6.6-4 0-4-6zm8.4 66.6q0 7.5-2.8 11.7-2.8 4.3-10.2 4.3-10.7 0-10.7-5.3 0-2.6 1.2-4.1 3.8 2 8.5 2 3.7 0 4.8-2.2 1.2-2.1 1.2-7.6v-48.7q0-1.9.6-2.6.7-.8 2.1-.9 1.5-.2 5.3-.2zM285.377 327.4q-6.7 3.6-15 3.6-5.9 0-9.1-1.8-3.2-1.8-4.5-5.3-1.3-3.6-1.3-9.5v-32.8q0-.9.3-1.2.4-.3 2.4-.3 2.1-.1 5.6-.1v35.1q0 5.1 1.3 7 1.4 1.9 5.5 1.9 4 0 6.7-1.9v-40.5q0-.9.4-1.2.4-.3 2.3-.3 2-.1 5.4-.1zM294.444 282.3q7.3-3.3 15.1-3.3 6.2 0 9.1 3.1 5.5-3.1 12.2-3.1 4.8 0 7.2 1.6 2.5 1.6 3.3 4.6.8 2.9.8 7.9v35.3q0 .9-.4 1.2-.4.3-2.4.4h-5.3v-37q0-3.9-1-5.4-.9-1.5-3.9-1.5-3.7 0-6.8 1.9v40.4q0 .9-.4 1.2-.3.3-2.3.4h-5.3v-37.2q0-2.8-.3-4.1-.3-1.4-1.4-2-1-.7-3.3-.7-3.6 0-6.8 1.8v40.6q0 .9-.4 1.2-.4.3-2.4.4h-5.3zM352.256 283q6.3-4 14.6-4 8 0 12.1 4.6 4.2 4.6 4.2 16.2 0 31.2-14.9 31.2-5.1 0-7.9-2.8v20.9q-1.9.6-4.2.6-2.2 0-3.1-.8-.8-.7-.8-2.7zm8.1 37.5q2 3.3 5.4 3.3 8.5 0 8.5-23.1 0-5.9-.9-9.1-.8-3.2-2.5-4.4-1.6-1.2-4.4-1.2-3.4 0-6.1 1.9zM394.837 301.4q-5.8-4.7-5.8-10.6 0-5.5 4.1-8.6 4.2-3.2 12.3-3.2 6.8 0 9.6 1.8 2.9 1.8 2.9 3.8 0 2.1-1.7 4.1-4.4-2.7-9.9-2.7-3.6 0-5.8 1.3-2.1 1.3-2.1 3.6 0 1.5.8 2.9.8 1.3 3.2 3.3l9.3 7.5q3.3 3.2 4.6 6 1.4 2.8 1.4 6.5 0 6.6-4.5 10.3-4.4 3.6-12.1 3.6-5.5 0-8.9-1.3-3.3-1.3-3.3-3.7 0-2.4 1.5-4.7 4.1 2.4 9.9 2.4 8.2 0 8.2-6.1 0-4.4-4-7.9zM439.028 305q0-26 16.7-26 5.5 0 8.8 2.3 3.3 2.2 5 7.9 1.7 5.6 1.7 15.6 0 13.6-4.2 19.9-4.1 6.3-12.3 6.3-5.6 0-8.9-1.9-3.3-1.9-5.1-7.5-1.7-5.7-1.7-16.6zm8.8.2q0 8 .8 12.1t2.3 5.5q1.5 1.4 4 1.4 3.6 0 5.5-4.2 2-4.2 2-15.2 0-7.8-.8-11.9-.7-4.1-2.2-5.6-1.5-1.5-4-1.5-3.7 0-5.7 4.2-1.9 4.2-1.9 15.2zM474.166 282.5q-.2-1-.2-1.1 0-.7.6-1 .7-.3 2.8-.3 2.2-.1 5.3-.1l3.2 16.1q1.4 6.5 2.5 14.7 1.2 8.1 1.5 10.6h.2q.3-2.5 1.4-10.6 1.1-8.2 2.4-14.8l2.7-14.2q.2-1 .6-1.3.4-.3 2.4-.4 2.1-.1 5.5-.1l-11.5 50.3q-1.5.3-5.7.3-2.3 0-3.5-4.9zM525.583 323.2q6 0 11.4-3.2.7 2.2.7 5.5 0 2.3-4.1 3.9-4 1.6-9.7 1.6-5.1 0-8.6-1.9-3.4-1.9-5.4-7-2-5.1-2-14.5 0-11.7 2.4-18 2.5-6.3 6.3-8.4 3.8-2.2 9-2.2 12.7 0 12.7 16 0 8-1.1 13-8.1 1.6-21 1.6.3 7.8 2.4 10.7 2.2 2.9 7 2.9zm-.9-37.1q-7.6 0-8.5 17 9.1.2 13.8-1.1.5-2.3.5-6-.1-5.6-1.3-7.7-1.2-2.2-4.5-2.2zM545.516 283.5q6.4-4.5 13.6-4.5 7 0 7 4.2 0 2.5-.9 4.7-2.1-1.2-4.8-1.2-3.8 0-6.7 2.3v39.4q0 .9-.4 1.2-.4.3-2.4.4h-5.4zM206.002 396.9q0-2.7.1-4.3.1-1.7.4-2.1.4-.5 1.2-.5h5.1v-15.2q0-1.4.6-1.9.7-.6 2.1-.7 1.5-.2 5.3-.2v18h10.4q0 2.7-.1 4.4-.1 1.7-.5 2.1-.3.4-1.1.4h-8.7v29.2q0 4.1.6 6.1.7 1.9 3.1 1.9 2.5 0 5.8-1.5.6 2 .6 4 0 4.4-8.6 4.4-4.1 0-6.2-1.7-2-1.8-2.7-4.9-.6-3.2-.6-8.3v-29.2zM237.898 370.2q0-1.9.6-2.6.6-.8 2.1-.9 1.5-.2 5.3-.2v26.4q4.5-3.9 11.3-3.9 6.1 0 8.2 3.2 2.2 3.1 2.2 10v36.2q0 .9-.5 1.2-.4.3-2.4.4h-5.3v-35.6q0-3.8-1.2-5.8-1.2-2.1-4.7-2.1-4.4 0-7.6 2.7v39.2q0 .9-.4 1.2-.3.3-2.3.4h-5.3zM293.16 433.2q6 0 11.4-3.2.7 2.2.7 5.5 0 2.3-4.1 3.9-4 1.6-9.7 1.6-5.1 0-8.6-1.9-3.4-1.9-5.4-7-2-5.1-2-14.5 0-11.7 2.4-18 2.5-6.3 6.3-8.4 3.8-2.2 9-2.2 12.7 0 12.7 16 0 8-1.1 13-8.1 1.6-21 1.6.3 7.8 2.4 10.7 2.2 2.9 7 2.9zm-.9-37.1q-7.6 0-8.5 17 9.1.2 13.8-1.1.5-2.3.5-6-.1-5.6-1.3-7.7-1.2-2.2-4.5-2.2zM337.114 438.4q0 .9-.4 1.2-.4.3-2.4.4h-5.3v-69.8q0-1.9.6-2.6.7-.8 2.2-.9 1.5-.2 5.3-.2zM373.497 406.5q0 22-.6 31.1-5.6 3.4-14.4 3.4-4.2 0-7.2-1.1-2.9-1.1-4.8-4.4-1.8-3.3-1.8-9.7 0-9.5 3.6-12.9 3.7-3.5 9.8-3.5 4.7 0 7.3 1.3v-7.9q0-3.4-1.5-4.7-1.5-1.3-4.7-1.3-7.7 0-13.3 2.3-1.1-2.1-1.1-4.7 0-2 1.1-2.7 1.5-1 5.8-1.8 4.3-.9 9.5-.9 6.5 0 9.4 2.8 2.9 2.8 2.9 9.4zm-8.1 9.9q-1.9-1-4.7-1-3.6 0-5.6 2.1-2 2.1-2 8.1 0 5.1 1.6 6.9 1.7 1.7 5.1 1.7 3.5 0 5.3-1.6.3-3.4.3-16.2zM407.748 390q.1.1.4.8.4.6.4 1.7 0 1.9-.9 3.9l-19 36.1h8.9q6.6 0 10.6-1 .2.8.2 3.5t-.7 3.9q-.6 1.1-2.5 1.1h-24.6q-.1-.1-.4-.5-.3-.5-.6-1.4-.3-.9-.3-2.1 0-1.8.7-3l19.5-36.2h-10.3q-5.7 0-9.2.5-.3-1.7-.3-3.8 0-3.5 2.6-3.5zM413.142 392.2q-.2-.8-.2-1.1 0-.8 1.3-.9 1.4-.2 6.7-.2l5.5 24q1 4.9 1.7 10.5.8 5.5 1 7.2.2-1.6.8-7.1.7-5.6 1.6-10.7l4.5-21.6q.2-1.3.6-1.7.5-.4 2-.5 1.5-.1 6.1-.1l-12.3 52.7q-1.5 6.4-3.4 10-1.8 3.6-4.4 5.1-2.5 1.5-6.2 1.5-8.1 0-8.1-3.9 0-2.8 1.2-4.5 2.2 1.5 6.3 1.5 5.3 0 7.3-10.8zM487.905 370.2q0-1.9.6-2.6.7-.8 2.2-.9 1.5-.2 5.3-.2V438q-6.4 3-14.4 3-5.1 0-8.6-1.7-3.4-1.7-5.5-7t-2.1-15.5q0-14.1 4.2-20.9 4.3-6.9 11.1-6.9 4.6 0 7.2 2zm0 27.1q-1.7-1.3-4.6-1.3-9 0-9 19.9 0 7.3.9 11.2.9 3.9 2.5 5.3t4.2 1.4q3.8 0 6-1.5zM503.09 415q0-26 16.7-26 5.5 0 8.8 2.3 3.3 2.2 5 7.9 1.7 5.6 1.7 15.6 0 13.6-4.2 19.9-4.1 6.3-12.3 6.3-5.6 0-8.9-1.9-3.3-1.9-5.1-7.5-1.7-5.7-1.7-16.6zm8.8.2q0 8 .8 12.1t2.3 5.5q1.5 1.4 4 1.4 3.6 0 5.5-4.2 2-4.2 2-15.2 0-7.8-.8-11.9-.7-4.1-2.2-5.6-1.5-1.5-4-1.5-3.7 0-5.7 4.2-1.9 4.2-1.9 15.2zM575.586 389.8q.8 1.4.8 3.8 0 3.1-2.8 3.1-1.4 0-3.6-.5 3.8 3.6 3.8 10.9 0 17.5-16.2 17.5-2.6 0-4.5-.4-2.7 2.7-2.7 4.4 0 1.1 2.1 1.6 2.2.5 7.6 1.3l2.2.3q6.6 1 9.9 3.6 3.4 2.5 3.4 8 0 7-4.9 11.6-4.9 4.7-14.3 4.7-16 0-16-10.9 0-3.5 2.1-6.7 2.1-3.1 5.5-5.4-6.1-1.8-6.1-5.3 0-4.2 6.3-9.2-6.2-3.9-6.2-14.9 0-18.3 16.7-18.3 2.5 0 4.8.8zm-17.5 28.6q7.6 0 7.6-13.2 0-5.4-1.8-7.8-1.8-2.5-5.5-2.5-3.6 0-5.8 3-2.1 2.9-2.1 9.2 0 5.8 1.5 8.6 1.6 2.7 6.1 2.7zm9.3 26.1q0-2.3-1-3.6-1-1.2-3.4-1.8-2.4-.7-6.9-1l-1.9-.2q-2.4 1.7-4 4.1-1.5 2.5-1.5 4.9 0 2.7 1.8 4 1.8 1.4 6.6 1.4 5 0 7.6-2.4 2.7-2.4 2.7-5.4zM581.24 434.9q0-2.4 1.5-4 1.6-1.7 4.1-1.7 5.5 0 5.5 5.7 0 2.5-1.5 4.1-1.5 1.6-4 1.6-5.6 0-5.6-5.7z"/></g></svg>